<svg id="Ebene_1" data-name="Ebene 1" xmlns="http://www.w3.org/2000/svg" width="29.44" height="29.44" viewBox="0 0 29.44 29.44"><title>stageone-icon</title><g id="Gruppe_68" data-name="Gruppe 68"><path id="Pfad_110" data-name="Pfad 110" d="M696.75,369H668.69a.69.69,0,0,0-.69.69v28.06a.69.69,0,0,0,.69.69h28.06a.69.69,0,0,0,.69-.69V369.69A.69.69,0,0,0,696.75,369ZM694,372.93V394.5a.47.47,0,0,1-.48.48H671.93a.47.47,0,0,1-.48-.46v0h0V372.93a.47.47,0,0,1,.46-.48h21.6a.47.47,0,0,1,.48.48Z" transform="translate(-668 -369)"/><path id="Pfad_111" data-name="Pfad 111" d="M684.63,376.42v3.24l3-.42v7.37h3.25V375.54Z" transform="translate(-668 -369)"/></g></svg>