<?xml version="1.0" encoding="UTF-8"?><svg id="Ebene_1" xmlns="http://www.w3.org/2000/svg" xmlns:xlink="http://www.w3.org/1999/xlink" viewBox="0 0 46.68 46.6"><g id="linked"><g class="cls-2"><g id="Gruppe_348"><path id="Pfad_1937" class="cls-3" d="M46.68,46.6h-9.67v-15.13c0-3.6-.07-8.26-5.03-8.26s-5.8,3.93-5.8,7.99v15.39h-9.66V15.47h9.27v4.25h.13c1.9-3.23,5.41-5.16,9.15-5.03,9.8,0,11.6,6.44,11.6,14.83v17.07h0ZM5.61,11.22h0C2.52,11.22,0,8.71,0,5.61S2.52,0,5.61,0s5.6,2.51,5.6,5.6h0c0,3.09-2.52,5.59-5.6,5.61m4.83,35.38H.77V15.47H10.44v31.13h0Z"/></g></g></g></svg>