<?xml version="1.0" encoding="utf-8"?>
<svg version="1.1" id="Ebene_1" xmlns="http://www.w3.org/2000/svg" xmlns:xlink="http://www.w3.org/1999/xlink"
	 viewBox="0 0 46.8 46.8" xml:space="preserve">
<g id="insta" transform="translate(0 -12)">
	<path id="Pfad_1929" class="st0" d="M8.1,22.9c0-1.6,1.3-2.8,2.8-2.8s2.8,1.3,2.8,2.8s-1.3,2.8-2.8,2.8S8.1,24.5,8.1,22.9L8.1,22.9
		"/>
	<path id="Pfad_1930" class="st0" d="M4.4,44.9c0,1.5,0.3,3,0.8,4.3c0.4,1,1,1.9,1.8,2.7c0.8,0.8,1.7,1.4,2.7,1.8
		c1.4,0.5,2.9,0.8,4.4,0.8c2.5,0.1,3.2,0.1,9.5,0.1s7,0,9.5-0.1c1.5,0,3-0.3,4.3-0.8c2-0.8,3.7-2.4,4.5-4.4c0.5-1.4,0.8-2.9,0.8-4.3
		c0.1-2.5,0.1-3.2,0.1-9.5s0-7-0.1-9.5c0-1.5-0.3-3-0.8-4.3c-0.4-1-1-1.9-1.8-2.7c-0.8-0.8-1.7-1.4-2.7-1.8
		c-1.4-0.5-2.9-0.8-4.3-0.8c-2.5-0.1-3.2-0.1-9.5-0.1s-7,0-9.5,0.1c-1.5,0-3,0.3-4.3,0.8c-2,0.8-3.7,2.4-4.4,4.4
		C4.7,23,4.4,24.5,4.4,26c-0.1,2.5-0.1,3.2-0.1,9.5S4.3,42.4,4.4,44.9C4.4,44.9,4.4,44.9,4.4,44.9z M0.1,25.8c0-1.9,0.4-3.9,1.1-5.7
		c1.2-3.1,3.7-5.6,6.8-6.9c1.8-0.7,3.8-1,5.7-1.1c2.5-0.1,3.3-0.1,9.7-0.1s7.2,0,9.7,0.1c1.9,0,3.9,0.4,5.7,1.1
		c3.1,1.2,5.6,3.7,6.8,6.9c0.7,1.8,1,3.7,1.1,5.7c0.1,2.5,0.1,3.3,0.1,9.7s0,7.2-0.1,9.7c0,1.9-0.4,3.9-1.1,5.7
		c-1.2,3.1-3.7,5.6-6.8,6.8c-1.8,0.7-3.7,1-5.7,1.1c-2.5,0.1-3.3,0.1-9.7,0.1s-7.2,0-9.7-0.1c-1.9,0-3.9-0.4-5.7-1.1
		c-1.6-0.6-3-1.5-4.1-2.7c-1.2-1.2-2.1-2.6-2.7-4.2c-0.7-1.8-1.1-3.7-1.1-5.7C0,42.6,0,41.8,0,35.4S0,28.2,0.1,25.8L0.1,25.8z"/>
	<path id="Pfad_1931" class="st0" d="M23.4,43.2c4.3,0,7.8-3.5,7.8-7.8s-3.5-7.8-7.8-7.8s-7.8,3.5-7.8,7.8l0,0
		C15.6,39.7,19.1,43.2,23.4,43.2L23.4,43.2 M23.4,23.4c6.6,0,12,5.4,12,12c0,6.6-5.4,12-12,12c-6.6,0-12-5.4-12-12l0,0
		C11.4,28.8,16.8,23.4,23.4,23.4"/>
</g>
</svg>
