<?xml version="1.0" encoding="utf-8"?>
<!-- Generator: Adobe Illustrator 27.0.0, SVG Export Plug-In . SVG Version: 6.00 Build 0)  -->
<svg version="1.1" id="Ebene_1" xmlns="http://www.w3.org/2000/svg" xmlns:xlink="http://www.w3.org/1999/xlink" x="0px" y="0px"
	 viewBox="0 0 46.8 46.8" style="enable-background:new 0 0 46.8 46.8;" xml:space="preserve">
<path d="M41.5,14.9c0,0.4,0,0.8,0,1.2c0,12.3-9.3,26.4-26.4,26.4v0c-5,0-10-1.4-14.2-4.2c0.7,0.1,1.5,0.1,2.2,0.1
	c4.2,0,8.2-1.4,11.5-4c-4-0.1-7.4-2.7-8.7-6.4c1.4,0.3,2.8,0.2,4.2-0.2c-4.3-0.9-7.4-4.7-7.4-9.1v-0.1c1.3,0.7,2.7,1.1,4.2,1.2
	c-4.1-2.7-5.3-8.1-2.9-12.4c4.7,5.8,11.7,9.3,19.1,9.7c-0.7-3.2,0.3-6.6,2.7-8.9C29.6,4.8,35.5,5,39,8.7c2.1-0.4,4.1-1.2,5.9-2.3
	c-0.7,2.1-2.1,4-4.1,5.1c1.8-0.2,3.6-0.7,5.3-1.5C44.9,12,43.3,13.6,41.5,14.9L41.5,14.9L41.5,14.9z"/>
</svg>
