<?xml version="1.0" encoding="UTF-8"?><svg id="SocialIcons" xmlns="http://www.w3.org/2000/svg" viewBox="0 0 48 48"><g id="Instagram" transform="translate(0 0)"><path id="Pfad_1929" class="cls-1" d="M8.37,11.25c0-1.58,1.28-2.87,2.87-2.87s2.87,1.28,2.87,2.87-1.28,2.87-2.87,2.87-2.87-1.28-2.87-2.87h0"/><path id="Pfad_1930" class="cls-1" d="M4.55,33.65c.02,1.51,.3,3.02,.82,4.44,.38,1.04,1,1.98,1.79,2.75,.77,.79,1.71,1.4,2.74,1.78,1.42,.53,2.92,.81,4.44,.83,2.52,.11,3.26,.13,9.65,.13s7.13-.02,9.65-.13c1.52-.02,3.02-.3,4.44-.83,2.08-.8,3.73-2.45,4.54-4.53,.52-1.42,.8-2.92,.82-4.44,.12-2.52,.15-3.28,.15-9.65s-.02-7.14-.15-9.66c-.02-1.52-.29-3.02-.82-4.44-.38-1.04-.99-1.98-1.79-2.74-.77-.79-1.71-1.4-2.75-1.79-1.42-.53-2.92-.81-4.44-.83-2.52-.11-3.27-.14-9.65-.14s-7.13,.03-9.65,.14c-1.52,.02-3.02,.3-4.44,.83-2.08,.81-3.72,2.45-4.54,4.53-.52,1.42-.8,2.93-.82,4.44-.12,2.52-.15,3.27-.15,9.66s.03,7.13,.15,9.65h0ZM.25,14.15c.04-1.98,.42-3.94,1.12-5.8,1.24-3.21,3.77-5.75,6.98-6.99,1.86-.7,3.82-1.07,5.8-1.11,2.55-.11,3.36-.15,9.86-.15s7.31,.02,9.86,.15c1.98,.04,3.94,.42,5.8,1.11,3.21,1.24,5.74,3.78,6.98,6.99,.69,1.86,1.07,3.82,1.11,5.8,.12,2.55,.14,3.36,.14,9.86s-.03,7.3-.14,9.85c-.04,1.98-.41,3.95-1.11,5.8-1.25,3.2-3.78,5.74-6.98,6.99-1.86,.69-3.82,1.07-5.8,1.11-2.54,.12-3.37,.15-9.86,.15s-7.3-.03-9.86-.15c-1.98-.04-3.94-.41-5.8-1.11-1.59-.6-3.03-1.54-4.23-2.76-1.22-1.19-2.16-2.63-2.75-4.23-.7-1.86-1.08-3.82-1.12-5.8-.12-2.54-.15-3.36-.15-9.85s.03-7.31,.15-9.86H.25Z"/><path id="Pfad_1931" class="cls-1" d="M23.99,31.96c4.4,0,7.96-3.57,7.96-7.97,0-4.4-3.57-7.96-7.97-7.96-4.4,0-7.96,3.57-7.96,7.97h0c0,4.4,3.56,7.96,7.96,7.96h0m0-20.23c6.78,0,12.28,5.49,12.28,12.27,0,6.78-5.49,12.28-12.27,12.28-6.78,0-12.28-5.49-12.28-12.27h0c0-6.78,5.49-12.28,12.27-12.28"/></g></svg>