<?xml version="1.0" encoding="UTF-8"?><svg id="SocialIcons" xmlns="http://www.w3.org/2000/svg" viewBox="0 0 48 48"><g id="LinkedIn"><path id="Pfad_1937" class="cls-1" d="M47.84,47.8h-9.88v-15.46c0-3.68-.07-8.44-5.14-8.44s-5.93,4.02-5.93,8.16v15.73h-9.87V15.99h9.47v4.34h.13c1.94-3.3,5.52-5.27,9.35-5.14,10.01,0,11.85,6.58,11.85,15.15v17.44h0ZM5.89,11.65h0C2.72,11.65,.15,9.09,.15,5.92S2.72,.19,5.89,.19s5.72,2.56,5.72,5.72h0c0,3.15-2.57,5.72-5.72,5.73m4.94,36.14H.94V15.99H10.81v31.81h0Z"/></g></svg>