<?xml version="1.0" encoding="utf-8"?>
<!-- Generator: Adobe Illustrator 27.0.0, SVG Export Plug-In . SVG Version: 6.00 Build 0)  -->
<svg version="1.1" id="Ebene_1" xmlns="http://www.w3.org/2000/svg" xmlns:xlink="http://www.w3.org/1999/xlink" x="0px" y="0px"
	 viewBox="0 0 46.8 46.8" style="enable-background:new 0 0 46.8 46.8;" xml:space="preserve">
<path d="M8.7,9.5c-0.4,0-0.7,0.1-0.9,0.4c-0.2,0.3-0.1,0.6,0,1l4.5,7.8c0,0,0,0,0,0L5.2,31.2c-0.2,0.4-0.2,0.7,0,1
	c0.2,0.3,0.5,0.5,0.9,0.5h6.7c1,0,1.5-0.7,1.8-1.3c0,0,6.9-12.2,7.2-12.7c0,0-4.6-8-4.6-8c-0.3-0.6-0.8-1.2-1.9-1.2L8.7,9.5L8.7,9.5
	z"/>
<path id="path19375" d="M36.6,0.4c-1,0-1.4,0.6-1.8,1.3c0,0-14.3,25.4-14.8,26.2c0,0,9.5,17.3,9.5,17.3c0.3,0.6,0.8,1.3,1.9,1.3H38
	c0.4,0,0.7-0.2,0.9-0.4c0.2-0.3,0.2-0.7,0-1l-9.4-17.1c0,0,0,0,0,0l14.7-26c0.2-0.4,0.2-0.7,0-1c-0.2-0.3-0.5-0.4-0.9-0.4L36.6,0.4
	L36.6,0.4z"/>
</svg>
