<svg id="Ebene_1" data-name="Ebene 1" xmlns="http://www.w3.org/2000/svg" width="21.97" height="9" viewBox="0 0 21.97 9"><defs><style>.cls-1{fill:#3d4042;fill-rule:evenodd;}</style></defs><g id="interface_-_sidebar_hamburger" data-name="interface - sidebar hamburger"><path class="cls-1" d="M301.29,392.42h21a.5.5,0,0,0,.5-.5.5.5,0,0,0-.5-.5h-21a.51.51,0,0,0-.5.5A.5.5,0,0,0,301.29,392.42Zm21,3h-21a.51.51,0,0,0-.5.5.5.5,0,0,0,.5.5h21a.5.5,0,0,0,.5-.5A.5.5,0,0,0,322.26,395.42Zm0,4h-21a.51.51,0,0,0-.5.5.5.5,0,0,0,.5.5h21a.5.5,0,0,0,.5-.5A.5.5,0,0,0,322.26,399.42Z" transform="translate(-300.79 -391.42)"/></g></svg>