<?xml version="1.0" encoding="utf-8"?>
<!-- Generator: Adobe Illustrator 17.0.2, SVG Export Plug-In . SVG Version: 6.00 Build 0)  -->
<!DOCTYPE svg PUBLIC "-//W3C//DTD SVG 1.1//EN" "http://www.w3.org/Graphics/SVG/1.1/DTD/svg11.dtd">
<svg version="1.1" id="Layer_1" xmlns="http://www.w3.org/2000/svg" xmlns:xlink="http://www.w3.org/1999/xlink" x="0px" y="0px"
	 width="56.693px" height="56.693px" viewBox="0 0 56.693 56.693" enable-background="new 0 0 56.693 56.693" xml:space="preserve">
<g>
	<path d="M37.458,19.239c-5.049,0-9.157,4.108-9.157,9.157s4.108,9.156,9.157,9.156s9.157-4.107,9.157-9.156
		S42.506,19.239,37.458,19.239z M37.458,35.552c-3.946,0-7.157-3.21-7.157-7.156s3.211-7.157,7.157-7.157s7.157,3.211,7.157,7.157
		S41.404,35.552,37.458,35.552z"/>
	<path d="M37.458,13.122H19.105c-8.422,0-15.274,6.853-15.274,15.274S10.683,43.67,19.105,43.67h18.353
		c8.422,0,15.274-6.853,15.274-15.274S45.879,13.122,37.458,13.122z M37.458,41.67H19.105c-7.319,0-13.274-5.955-13.274-13.274
		s5.955-13.274,13.274-13.274h18.353c7.319,0,13.274,5.955,13.274,13.274S44.777,41.67,37.458,41.67z"/>
</g>
</svg>
