<?xml version="1.0" encoding="iso-8859-1"?>
<!-- Generator: Adobe Illustrator 16.0.0, SVG Export Plug-In . SVG Version: 6.00 Build 0)  -->
<!DOCTYPE svg PUBLIC "-//W3C//DTD SVG 1.1//EN" "http://www.w3.org/Graphics/SVG/1.1/DTD/svg11.dtd">
<svg version="1.1" xmlns="http://www.w3.org/2000/svg" xmlns:xlink="http://www.w3.org/1999/xlink" x="0px" y="0px" width="16px"
	 height="16px" viewBox="0 0 16 16" style="enable-background:new 0 0 16 16;" xml:space="preserve">
<g id="_x37_-animal_-_monkey" style="enable-background:new    ;">
	<path style="fill-rule:evenodd;clip-rule:evenodd;" d="M16,6.5c0-1.933-1.344-3.499-3-3.499c-0.436,0-0.846,0.113-1.219,0.307
		c0.002,0.002,0.002,0.004,0.004,0.006C10.984,1.926,9.594,1,8,1C6.409,1,5.019,1.923,4.218,3.308C3.845,3.114,3.435,3.001,3,3.001
		c-1.657,0-3,1.566-3,3.499c0,1.608,0.935,2.95,2.202,3.359C2.075,10.225,2,10.605,2,11c0,2.485,2.686,5,6,5c3.314,0,6-2.515,6-5
		c0-0.395-0.076-0.775-0.203-1.141C15.064,9.45,16,8.108,16,6.5z M1,6.5c0-1.38,0.896-2.499,2-2.499
		c0.288,0,0.561,0.079,0.808,0.216C3.617,4.772,3.5,5.37,3.5,6c0,0.631,0.117,1.228,0.308,1.784C3.343,8.124,2.955,8.521,2.657,8.96
		c0.001-0.001,0.001-0.002,0.002-0.003C1.718,8.754,1,7.735,1,6.5z M8,15c-2.761,0-5-2.066-5-4c0-1.164,0.82-2.188,2.069-2.823
		C4.712,7.55,4.5,6.804,4.5,6c0-1.626,0.853-3.02,2.072-3.645C7.25,2.659,8,3.179,8,4.001c0-0.894,0.706-1.426,1.279-1.716
		C10.578,2.87,11.5,4.309,11.5,6c0,0.804-0.213,1.55-0.57,2.177C12.18,8.813,13,9.836,13,11C13,12.934,10.762,15,8,15z M13.34,8.957
		c-0.297-0.438-0.686-0.834-1.148-1.173C12.383,7.228,12.5,6.63,12.5,6c0-0.631-0.117-1.229-0.309-1.785c0,0.001,0,0.001,0,0.002
		C12.439,4.08,12.711,4.001,13,4.001c1.105,0,2,1.119,2,2.499C15,7.735,14.283,8.754,13.34,8.957z M8,12c-1.657,0-3-0.895-3-1.999H4
		C4,11.657,5.791,13,8,13s4-1.343,4-2.999h-1C11,11.105,9.656,12,8,12z"/>
</g>
<g id="Layer_1">
</g>
</svg>
