<?xml version="1.0" encoding="iso-8859-1"?>
<!-- Generator: Adobe Illustrator 16.0.0, SVG Export Plug-In . SVG Version: 6.00 Build 0)  -->
<!DOCTYPE svg PUBLIC "-//W3C//DTD SVG 1.1//EN" "http://www.w3.org/Graphics/SVG/1.1/DTD/svg11.dtd">
<svg version="1.1" xmlns="http://www.w3.org/2000/svg" xmlns:xlink="http://www.w3.org/1999/xlink" x="0px" y="0px" width="16px"
	 height="16px" viewBox="0 0 16 16" style="enable-background:new 0 0 16 16;" xml:space="preserve">
<g id="_x36_-animal_-_monkey" style="enable-background:new    ;">
	<path style="fill-rule:evenodd;clip-rule:evenodd;" d="M15,6.5c0-1.933-1.344-3.499-3-3.499c-0.283,0-0.553,0.061-0.813,0.146
		C10.41,1.909,9.143,1.084,7.697,1.014L7.667,1L7.64,1.01C7.593,1.008,7.547,1,7.5,1C5.971,1,4.625,1.852,3.812,3.147
		C3.552,3.062,3.283,3.001,3,3.001c-1.657,0-3,1.566-3,3.499c0,1.186,0.508,2.229,1.281,2.862C1.1,9.797,1,10.259,1,10.737
		C1,13.354,3.91,16,7.5,16s6.5-2.646,6.5-5.263c0-0.479-0.1-0.939-0.281-1.375C14.492,8.729,15,7.686,15,6.5z M1,6.5
		C1,5.12,1.896,4,3,4c0.123,0,0.242,0.019,0.358,0.045C3.128,4.646,3,5.306,3,6c0,0.425,0.059,0.832,0.148,1.226
		C2.605,7.583,2.14,8.003,1.788,8.476C1.312,8.019,1,7.308,1,6.5z M7.5,15C4.462,15,2,12.795,2,10.733
		c0-1.261,0.924-2.374,2.335-3.05C4.125,7.17,4,6.604,4,6c0-1.814,1.063-3.328,2.511-3.818C7.001,2.806,7.667,3.862,7.667,5
		c0-1.119,0.516-2.161,0.905-2.789C9.977,2.731,11,4.221,11,6c0,0.604-0.125,1.17-0.336,1.683C12.076,8.359,13,9.473,13,10.733
		C13,12.795,10.537,15,7.5,15z M11.852,7.226C11.941,6.832,12,6.425,12,6c0-0.694-0.129-1.354-0.359-1.955
		C11.758,4.019,11.877,4,12,4c1.105,0,2,1.12,2,2.5c0,0.808-0.313,1.519-0.787,1.976C12.859,8.003,12.395,7.583,11.852,7.226z"/>
</g>
<g id="Layer_1">
</g>
</svg>
