<?xml version="1.0" encoding="iso-8859-1"?>
<!-- Generator: Adobe Illustrator 16.0.0, SVG Export Plug-In . SVG Version: 6.00 Build 0)  -->
<!DOCTYPE svg PUBLIC "-//W3C//DTD SVG 1.1//EN" "http://www.w3.org/Graphics/SVG/1.1/DTD/svg11.dtd">
<svg version="1.1" xmlns="http://www.w3.org/2000/svg" xmlns:xlink="http://www.w3.org/1999/xlink" x="0px" y="0px" width="16px"
	 height="16px" viewBox="0 0 16 16" style="enable-background:new 0 0 16 16;" xml:space="preserve">
<g id="_x31_2-animal_-_cat" style="enable-background:new    ;">
	<path d="M13.916,1.004c-1.631,0.715-3.371,1.313-4.428,1.65C8.724,2.244,7.883,2,6.989,2C6.073,2,5.216,2.258,4.439,2.686
		C3.363,2.349,1.647,1.77,0.042,1.082c0.007-0.021-0.115,0.861,0.03,1.419C0.396,3.749,1.075,5.668,1.39,6.54
		C1.142,7.308,0.989,8.131,0.989,9c0,3.866,2.686,7,6,7s6-3.134,6-7c0-0.873-0.154-1.7-0.404-2.471
		c0.313-0.886,0.98-2.826,1.303-4.088C14.029,1.877,13.908,0.983,13.916,1.004z M1.063,2.501l2.535,0.73
		c-0.7,0.561-1.277,1.299-1.72,2.147L1.063,2.501z M6.973,15c-2.758,0-4.993-2.687-4.993-6s2.235-6,4.993-6s4.992,2.687,4.992,6
		S9.73,15,6.973,15z M12.096,5.372c-0.449-0.86-1.037-1.611-1.75-2.175l2.561-0.756L12.096,5.372z M8.497,12.001
		c-0.548,0-0.991-0.448-0.991-1.001H6.514c0,0.553-0.443,1.001-0.991,1.001c-0.548,0-0.991-0.448-0.991-1.001H3.541
		c0,1.104,0.887,2,1.982,2c0.595,0,1.123-0.271,1.486-0.689C7.373,12.729,7.901,13,8.497,13c1.095,0,1.982-0.896,1.982-2h-0.99
		C9.488,11.553,9.043,12.001,8.497,12.001z"/>
</g>
<g id="Layer_1">
</g>
</svg>
