<?xml version="1.0" encoding="iso-8859-1"?>
<!-- Generator: Adobe Illustrator 16.0.0, SVG Export Plug-In . SVG Version: 6.00 Build 0)  -->
<!DOCTYPE svg PUBLIC "-//W3C//DTD SVG 1.1//EN" "http://www.w3.org/Graphics/SVG/1.1/DTD/svg11.dtd">
<svg version="1.1" xmlns="http://www.w3.org/2000/svg" xmlns:xlink="http://www.w3.org/1999/xlink" x="0px" y="0px" width="16px"
	 height="16px" viewBox="0 0 16 16" style="enable-background:new 0 0 16 16;" xml:space="preserve">
<g id="_x32_1-animal_-_cow_1_" style="display:none;enable-background:new    ;">
	<path style="display:inline;" d="M13,7.1V4h1.5C14.776,4,15,3.776,15,3.5S14.776,3,14.5,3H13c0-1.104-0.895-2-2-2H5
		C3.896,1,3,1.896,3,3H1.5C1.224,3,1,3.224,1,3.5S1.224,4,1.5,4H3v3.1C1.173,8.017,0,9.422,0,11c0,2.762,3.582,5,8,5s8-2.238,8-5
		C16,9.422,14.828,8.017,13,7.1z M4,3c0-0.553,0.448-1,1-1h6c0.553,0,1,0.447,1,1v3.674c-0.618-0.224-1.29-0.396-2-0.511V4.5
		C10,4.224,9.776,4,9.5,4C9.224,4,9,4.224,9,4.5v1.543C8.671,6.018,8.339,6,8,6S7.328,6.018,7,6.043V4.5C7,4.224,6.776,4,6.5,4
		C6.224,4,6,4.224,6,4.5v1.663C5.29,6.278,4.619,6.45,4,6.674V3z M8,15c-3.866,0-7-1.791-7-4s3.134-4,7-4c3.866,0,7,1.791,7,4
		S11.866,15,8,15z M11,9c-1.104,0-2,0.896-2,2s0.896,2,2,2c1.105,0,2-0.896,2-2S12.105,9,11,9z M11,12c-0.552,0-1-0.448-1-1
		c0-0.553,0.448-1,1-1c0.553,0,1,0.447,1,1C12,11.552,11.552,12,11,12z M5,9c-1.104,0-2,0.896-2,2s0.896,2,2,2s2-0.896,2-2
		S6.104,9,5,9z M5,12c-0.552,0-1-0.448-1-1c0-0.553,0.448-1,1-1s1,0.447,1,1C6,11.552,5.552,12,5,12z"/>
	<path style="display:inline;" d="M12.398,5.965c0.181,0.964,0.227,2.513-0.642,4.284l-1.487-1.855
		C10.647,7.759,11.38,6.695,12.398,5.965 M12.997,4.499c-2.521,1-3.924,4-3.924,4l2.805,3.5C14.684,7.999,12.997,4.499,12.997,4.499
		L12.997,4.499z"/>
	<path style="display:inline;fill:none;" d="M6.877,11.999l-2.805-3.5c0,0,1.402-3,3.924-4C7.997,4.499,9.684,7.999,6.877,11.999z"
		/>
</g>
<g id="_x32_0-animal_-_chicken_1_" style="display:none;enable-background:new    ;">
	<path style="display:inline;" d="M7.97,1.295C7.865,0.568,7.267,0.001,6.511,0.001c-0.753,0-1.351,0.565-1.457,1.289
		C2.317,2.331,0,6.074,0,9.25C0,12.979,3.188,16,6.506,16c3.317,0,6.506-3.021,6.506-6.75C13.012,6.078,10.702,2.342,7.97,1.295z
		 M6.011,1.501c0-0.276,0.224-0.5,0.5-0.5c0.276,0,0.5,0.224,0.5,0.5v2c0,0.275-0.224,0.5-0.5,0.5c-0.275,0-0.5-0.225-0.5-0.5V1.501
		z M6.506,15C3.741,15,1,12.426,1,9.25c0-2.596,1.833-5.79,4.012-6.87v1.121c0,0.828,0.671,1.5,1.5,1.5c0.829,0,1.5-0.672,1.5-1.5
		V2.385c2.176,1.086,4.002,4.273,4.002,6.865C12.012,12.426,9.27,15,6.506,15z M6.511,6.001c-2.208,0-4,1.791-4,4s1.791,4,4,4
		c2.21,0,4-1.791,4-4S8.721,6.001,6.511,6.001z M6.511,7.001c1.658,0,3,1.343,3,3l-3-1l-3,1C3.511,8.344,4.854,7.001,6.511,7.001z
		 M6.511,13.001c-1.324,0-2.436-0.864-2.833-2.056l2.833-0.944l2.833,0.944C8.948,12.137,7.836,13.001,6.511,13.001z"/>
</g>
<g id="_x31_9-animal_-_goose_1_" style="display:none;enable-background:new    ;">
	<path style="display:inline;" d="M6.506,1C3.188,1,0,5.522,0,9.25C0,12.979,3.188,16,6.506,16c3.317,0,6.506-3.021,6.506-6.75
		C13.012,5.522,9.823,1,6.506,1z M6.506,15C3.741,15,1,12.426,1,9.25C1,6.075,3.741,2,6.506,2c2.764,0,5.506,4.075,5.506,7.25
		C12.012,12.426,9.27,15,6.506,15z M6.511,6.001c-2.208,0-4,1.791-4,4s1.791,4,4,4c2.21,0,4-1.791,4-4S8.721,6.001,6.511,6.001z
		 M6.511,7.001c1.658,0,3,1.343,3,3l-3-1l-3,1C3.511,8.344,4.854,7.001,6.511,7.001z M6.511,13.001
		c-1.324,0-2.436-0.865-2.833-2.056l2.833-0.944l2.833,0.944C8.948,12.136,7.836,13.001,6.511,13.001z"/>
</g>
<g id="_x31_8-animal_-_dog_1_" style="display:none;enable-background:new    ;">
	<path style="display:inline;" d="M13.947,1.003c-2.065,0.904-4.295,1.617-5.1,1.854C8.268,2.645,7.661,2.5,7.02,2.5
		c-0.672,0-1.307,0.153-1.909,0.385C4.223,2.626,2.051,1.939,0.041,1.081C0.049,1.061-0.074,1.943,0.071,2.5
		c0.363,1.391,1.16,3.599,1.408,4.277C1.212,7.544,1.053,8.374,1.053,9.249C1.053,12.978,3.725,16,7.02,16
		c3.295,0,5.966-3.022,5.966-6.751c0-0.896-0.162-1.746-0.442-2.528c0.265-0.74,1.022-2.903,1.374-4.28
		C14.061,1.876,13.94,0.982,13.947,1.003z M1.064,2.5l3.063,0.88C3.246,3.938,2.503,4.724,1.97,5.688L1.064,2.5z M7.02,14.999
		c-2.747,0-4.973-2.574-4.973-5.75s2.227-5.75,4.973-5.75s4.973,2.574,4.973,5.75S9.766,14.999,7.02,14.999z M12.047,5.645
		c-0.542-0.966-1.298-1.747-2.188-2.297l3.076-0.907L12.047,5.645z M5.07,10.25c0,0,0.684,2,1.955,2c1.272,0,1.956-2,1.956-2
		s-0.965-0.5-1.956-0.5C6.06,9.75,5.07,10.25,5.07,10.25z"/>
</g>
<g id="_x31_7-animal_-_lion_1_" style="display:none;enable-background:new    ;">
	<path style="display:inline;" d="M15.041,1.003c-1.7,0.739-3.726,1.351-4.927,1.68c-0.803-0.432-1.67-0.684-2.547-0.684
		c-0.902,0-1.792,0.268-2.614,0.722c-1.222-0.329-3.227-0.925-4.911-1.64C0.049,1.061-0.074,1.943,0.072,2.5
		c0.305,1.159,1.154,2.881,1.642,3.821C1.303,7.239,1.061,8.235,1.061,9.249C1.061,12.978,4.25,16,7.567,16
		c3.316,0,6.506-3.022,6.506-6.751c0-1.03-0.25-2.041-0.673-2.97c0.486-0.96,1.313-2.678,1.61-3.839
		C15.155,1.876,15.033,0.982,15.041,1.003z M1.072,2.5L4.12,3.262C3.404,3.806,2.769,4.497,2.267,5.286L1.072,2.5z M7.567,14.999
		c-1.212,0-2.406-0.515-3.38-1.338l3.385-1.473l3.378,1.47C9.975,14.483,8.781,14.999,7.567,14.999z M11.72,12.875l-3.648-1.586
		v-1.152C9.028,9.722,9.541,8.25,9.541,8.25s-0.973-0.5-1.968-0.5c-0.972,0-1.968,0.5-1.968,0.5s0.512,1.472,1.468,1.886v1.153
		l-3.656,1.59c-0.816-0.992-1.355-2.245-1.355-3.63c0-3.176,2.741-6.25,5.506-6.25c2.765,0,5.506,3.074,5.506,6.25
		C13.073,10.632,12.535,11.884,11.72,12.875z M12.842,5.25c-0.512-0.792-1.156-1.484-1.882-2.026l3.062-0.783L12.842,5.25z"/>
</g>
<g id="_x31_6-animal_-_sheep_1_" style="display:none;enable-background:new    ;">
	<path style="display:inline;" d="M11,5.001c0,0.045,0.006,0.079,0.006,0.124c-0.5-1.007-1.924-1.124-2.941-1.124
		c-1.065,0-2.596,0.115-3.073,1.188C4.992,5.122,5,5.068,5,5.001c0,0-5,0-5,4.557c0,0,2.713,1.364,4.141-0.753
		c1.86,7.193,2.626,6.697,2.626,6.697C6.882,15.553,7.412,16,8.064,16c0.687,0,1.189-0.449,1.302-0.5c0,0,0.632,0.496,2.505-6.68
		C13.301,10.913,16,9.558,16,9.558C16,5.001,11,5.001,11,5.001z M1,9.052c0-2.769,3-3.039,3-3.039C4,10.32,1,9.052,1,9.052z
		 M10.907,8.584C10,13.001,9,14.501,9,14.501s-0.609,0.5-1,0.5c-0.369,0-1-0.5-1-0.5s-1-1.5-1.905-5.92
		C4.854,7.4,5.123,6.945,5.478,6.365c0.13-0.213,0.265-0.434,0.377-0.696C6.004,5.319,6.529,5.001,8.055,5
		c1.483,0,1.966,0.317,2.11,0.664c0.109,0.263,0.241,0.483,0.367,0.696C10.879,6.941,11.145,7.423,10.907,8.584z M12,6.013
		c0,0,3,0.271,3,3.039C15,9.052,12,10.32,12,6.013z"/>
</g>
<g id="_x31_5-animal_-_shrimp_1_" style="display:none;enable-background:new    ;">
	<path style="display:inline;" d="M15.997,0.806l-0.704-0.811L11.734,3H6.504l-1,0.066l0.003,0.025
		c-2.794,0.432-4.989,2.639-5.41,5.44L0.051,8.997C0.038,9.166,0,9.328,0,9.5c0,2.133,1.041,4.008,2.627,5.193l0.857,0.532
		C4.389,15.704,5.405,16,6.5,16c1.923,0,3.625-0.857,4.812-2.188l0.041,0.042l3.501-3.5l-0.708-0.708l-3.167,3.168l-3.518-2.642
		L7.412,9.807c0.859-0.279,2.407-0.895,3.489-1.996c1.075-1.095,1.66-2.65,1.92-3.508l2.77,1.204l0.403-0.954l-2.927-1.273
		L15.997,0.806z M5.639,4.075l0.689,5.171c-0.1,0.03-0.179,0.054-0.231,0.067L1.168,8.211C1.685,6.072,3.441,4.423,5.639,4.075z
		 M3.257,13.923C1.895,12.922,1,11.321,1,9.5c0-0.094,0.023-0.183,0.028-0.275l5.102,1.189L3.257,13.923z M10.25,13.485
		C9.269,14.417,7.959,15,6.5,15c-0.851,0-1.646-0.209-2.366-0.554l2.846-3.414L10.25,13.485z M10.193,7.095
		c-0.862,0.877-2.019,1.456-2.901,1.81L6.638,4h5.309C11.656,4.879,11.112,6.159,10.193,7.095z"/>
</g>
<g id="_x31_4-animal_-_frog_1_" style="display:none;enable-background:new    ;">
	<path style="display:inline;" d="M16,6.999C16,5.343,14.657,4,13,4c-0.622,0-1.199,0.189-1.679,0.514C10.372,4.192,9.235,4,8,4
		C6.765,4,5.628,4.192,4.679,4.514C4.2,4.189,3.622,4,3,4C1.343,4,0,5.343,0,6.999c0,0.876,0.382,1.657,0.98,2.206
		C0.89,10.323,0.786,16,8,16s7.11-5.677,7.02-6.795C15.619,8.656,16,7.875,16,6.999z M1,6.999c0-1.104,0.896-2,2-2s2,0.896,2,2
		c0,1.105-0.896,2-2,2S1,8.104,1,6.999z M8,14.999c-2.893,0-4.322-0.856-5.017-1.858c1.126,0.148,3.067,0.358,5.022,0.358
		c1.952,0,3.888-0.21,5.012-0.358C12.322,14.143,10.893,14.999,8,14.999z M13.511,12.073c-0.968,0.139-3.244,0.426-5.511,0.426
		c-2.285,0-4.547-0.286-5.511-0.425C2.208,10.981,2.5,9.999,2.5,9.999v-0.05c0.164,0.027,0.329,0.05,0.5,0.05c1.657,0,3-1.343,3-3
		C6,6.36,5.796,5.771,5.456,5.283C6.199,5.104,7.066,4.999,8,4.999s1.801,0.105,2.544,0.284C10.204,5.771,10,6.36,10,6.999
		c0,1.657,1.344,3,3,3c0.172,0,0.337-0.022,0.5-0.05v0.05C13.5,9.999,13.792,10.98,13.511,12.073z M13,8.999c-1.104,0-2-0.895-2-2
		c0-1.104,0.896-2,2-2c1.105,0,2,0.896,2,2C15,8.104,14.105,8.999,13,8.999z"/>
</g>
<g id="_x31_3-animal_-_fish_1_" style="display:none;enable-background:new    ;">
	<path style="display:inline;" d="M11.767,6.41C10.95,6.124,10.193,6,9.498,6c-3.641,0-5.616,3.391-6.104,4.56L0,7v7.5l3.404-3.12
		C3.907,12.596,5.757,16,9.33,16c0.688,0,1.439-0.126,2.258-0.418C14.469,14.554,16,11.468,16,10.953
		C16,10.448,14.649,7.42,11.767,6.41z M0.96,12.549V9.25V9.212l1.494,1.768L0.96,12.549z M11,14.712
		c-0.577,0.18-1.141,0.289-1.67,0.289c-3.22,0-4.766-3.346-5.044-4.017l-0.011-0.027C4.35,10.776,5.977,7,9.498,7
		C9.978,7,10.485,7.094,11,7.235V14.712z M12,14.307V7.601c1.803,0.891,2.825,2.719,3.02,3.342
		C14.816,11.516,13.772,13.345,12,14.307z"/>
</g>
<g id="_x31_2-animal_-_cat_1_" style="display:none;enable-background:new    ;">
	<path style="display:inline;" d="M13.917,1.004c-1.631,0.715-3.372,1.313-4.429,1.65C8.724,2.244,7.883,2,6.989,2
		C6.073,2,5.216,2.258,4.439,2.686C3.363,2.349,1.647,1.77,0.042,1.082c0.007-0.021-0.115,0.861,0.03,1.419
		C0.396,3.749,1.075,5.668,1.39,6.54C1.142,7.308,0.989,8.131,0.989,9c0,3.866,2.686,7,6,7c3.313,0,5.999-3.134,5.999-7
		c0-0.873-0.153-1.7-0.403-2.471c0.312-0.886,0.98-2.826,1.302-4.088C14.03,1.877,13.909,0.983,13.917,1.004z M1.063,2.501
		l2.535,0.73c-0.7,0.561-1.277,1.299-1.72,2.147L1.063,2.501z M6.973,15c-2.758,0-4.993-2.687-4.993-6s2.235-6,4.993-6
		c2.757,0,4.993,2.687,4.993,6S9.73,15,6.973,15z M12.096,5.372c-0.45-0.86-1.037-1.611-1.751-2.175l2.561-0.756L12.096,5.372z
		 M8.497,12.001c-0.548,0-0.991-0.448-0.991-1.001H6.514c0,0.553-0.443,1.001-0.991,1.001c-0.548,0-0.991-0.448-0.991-1.001H3.541
		c0,1.104,0.887,2,1.982,2c0.595,0,1.123-0.271,1.486-0.689C7.373,12.729,7.901,13,8.497,13c1.095,0,1.981-0.896,1.981-2h-0.99
		C9.488,11.553,9.043,12.001,8.497,12.001z"/>
</g>
<g id="_x31_1-animal_-_mouse_1_" style="display:none;enable-background:new    ;">
	<path style="display:inline;" d="M12.5,0c-1.418,0-2.633,0.848-3.183,2.061c-0.483-0.045-0.937-0.06-1.253-0.06
		c-0.344,0-0.845,0.016-1.376,0.068C6.14,0.852,4.922,0,3.5,0C1.567,0,0,1.567,0,3.501C0,5.33,1.408,6.813,3.197,6.97
		c0.401,1.546,1.299,2.436,1.806,3.98c0.211,0.643,0.679,1.462,1.193,2.199C6.074,13.408,6,13.695,6,14.001C6,15.104,6.896,16,8,16
		c1.105,0,2-0.896,2-1.999c0-0.245-0.05-0.478-0.131-0.694c0.559-0.766,1.074-1.646,1.302-2.342c0.41-1.252,1.287-1.73,1.632-3.348
		l0.062-0.653C14.624,6.779,16,5.309,16,3.501C16,1.567,14.433,0,12.5,0z M3.662,3.771c-0.334,0.53-0.697,1.127-0.64,2.182
		C1.871,5.729,1,4.718,1,3.501C1,2.119,2.119,1,3.5,1c0.916,0,1.708,0.498,2.144,1.233C4.884,2.402,4.21,2.69,3.989,3.191
		C3.901,3.393,3.785,3.576,3.662,3.771z M8,15c-0.552,0-1-0.447-1-0.999C7,13.448,7.448,13,8,13s1,0.448,1,1.001
		C9,14.553,8.552,15,8,15z M11.907,6.584l-0.076,0.37c-0.237,1.146-1.209,2.258-1.772,4.027c-0.152,0.479-0.479,1.002-0.832,1.45
		C8.887,12.165,8.464,12.001,8,12.001c-0.461,0-0.881,0.162-1.219,0.424c-0.316-0.422-0.614-0.928-0.79-1.455
		C5.559,9.671,4.593,8.909,4.095,6.581C3.843,5.403,4.123,4.945,4.478,4.364c0.13-0.213,0.265-0.433,0.377-0.696
		C5.004,3.319,6.53,3.001,8.055,3c1.483,0,2.966,0.316,3.11,0.664c0.109,0.263,0.241,0.483,0.367,0.696
		C11.879,4.941,12.154,5.4,11.907,6.584z M12.991,5.951c0.056-1.052-0.298-1.646-0.623-2.176c-0.12-0.194-0.232-0.379-0.318-0.579
		c-0.224-0.519-0.914-0.812-1.685-0.979C10.802,1.491,11.59,1,12.5,1C13.88,1,15,2.119,15,3.501C15,4.713,14.136,5.723,12.991,5.951
		z"/>
</g>
<g id="_x31_0-animal_-_dog_1_" style="display:none;enable-background:new    ;">
	<path style="display:inline;" d="M6.143,11c0,0,0.689,2,1.969,2c1.279,0,1.968-2,1.968-2s-0.972-0.5-1.968-0.5
		C7.14,10.5,6.143,11,6.143,11z M15.824,5.212c-0.557-2.168-2.216-3.056-3.833-3.137c-0.688-0.034-1.373,0.063-1.917,0.365
		C9.423,2.17,8.729,2,7.994,2C7.293,2,6.631,2.161,6.006,2.408C5.451,2.065,4.73,1.96,4.008,1.997
		C2.391,2.08,0.732,2.979,0.175,5.177s0.255,4.338,1.815,4.779c0.03,0.009,0.066,0.006,0.098,0.011C2.592,13.209,5.042,16,7.994,16
		c2.961,0,5.417-2.808,5.91-6.063c0.034-0.006,0.072-0.003,0.105-0.013C15.569,9.489,16.381,7.379,15.824,5.212z M2.243,8.961
		c-1.04-0.294-1.544-1.869-1.126-3.518S3.42,2.935,4.5,2.935c1,0,1.918,0.417,1.5,2.065S3.283,9.256,2.243,8.961z M7.994,15
		c-2.462,0-4.499-2.439-4.917-5.216C4.763,9.019,7,6.283,7,4.456c0-0.508-0.094-0.92-0.259-1.252C7.144,3.084,7.559,3,7.994,3
		c0.452,0,0.88,0.091,1.296,0.22C9.109,3.556,9,3.973,9,4.501c0,1.799,2.23,4.49,3.915,5.25C12.506,12.541,10.466,15,7.994,15z
		 M13.756,8.944C12.717,9.234,10.417,6.626,10,5c-0.418-1.625,0.5-1.999,1.5-1.999c1.08,0,2.966,0.848,3.383,2.474
		C15.3,7.101,14.796,8.653,13.756,8.944z"/>
</g>
<g id="_x39_-animal_-_wolf_1_" style="display:none;enable-background:new    ;">
	<path style="display:inline;fill-rule:evenodd;clip-rule:evenodd;" d="M5.154,11.5c0,0,0.689,2.001,1.968,2.001
		c1.28,0,1.968-2.001,1.968-2.001S8.119,11,7.122,11C6.15,11,5.154,11.5,5.154,11.5z M13.506,1
		c-1.598,0.634-2.744,2.069-3.371,3.037C9.222,3.383,8.154,3,7.005,3C7.002,3,7,3,6.998,3L6.997,3L6.993,3.001
		C5.904,3.003,4.887,3.349,4.007,3.943C3.335,2.979,2.152,1.614,0.525,1c0,0-1.588,3.146,0.76,6.881
		c-0.185,0.674-0.286,1.393-0.286,2.139C0.999,13.897,3.688,16,7.005,16s6.006-2.103,6.006-5.979c0-0.723-0.094-1.42-0.268-2.077
		C15.031,4.182,13.506,1,13.506,1z M0.951,2.55C0.868,2.526,0.785,2.501,0.717,2.5L0.96,2.493C0.956,2.507,0.955,2.535,0.951,2.55
		C1.622,2.746,2.709,3.655,3.33,4.476c-0.705,0.64-1.284,1.457-1.688,2.397C1.146,5.894,0.749,3.26,0.951,2.55z M11.974,10.526
		c-0.594,0.221-1.343,0.348-1.96-0.027c0.907,0.551,1.084,1.909,1.115,2.592C10.227,14.363,8.718,15,7.005,15
		c-1.708,0-3.211-0.634-4.115-1.897c0.03-0.68,0.205-2.05,1.117-2.604c-0.622,0.378-1.376,0.246-1.972,0.022
		C2.02,10.358,1.999,10.2,1.999,10.024c0-2.886,1.688-5.295,3.939-5.884C6.457,4.58,6.997,5.22,6.997,6
		c0-0.783,0.543-1.424,1.064-1.863c2.257,0.583,3.95,2.997,3.95,5.888C12.011,10.201,11.99,10.361,11.974,10.526z M10.779,4.562
		c0.576-0.843,1.664-1.81,2.324-2.012c-0.005-0.015-0.005-0.043-0.01-0.057l0.23,0.007c-0.064,0.001-0.144,0.026-0.221,0.05
		c0.197,0.73-0.208,3.505-0.698,4.413C12.017,6.029,11.462,5.208,10.779,4.562z"/>
</g>
<g id="_x38_-animal_-_dog_husky_1_" style="enable-background:new    ;">
	<path style="fill-rule:evenodd;clip-rule:evenodd;" d="M5.139,11.5c0,0,0.689,2.001,1.969,2.001c1.279,0,1.968-2.001,1.968-2.001
		S8.103,11,7.107,11C6.135,11,5.139,11.5,5.139,11.5z M13.537,1.001c-1.471,0.69-2.516,2.269-3.072,3.3C9.483,3.485,8.286,3,6.99,3
		C5.697,3,4.502,3.482,3.522,4.295C2.965,3.264,1.921,1.689,0.454,1.001c0,0-1.376,3.399,0.694,7.417
		c-0.104,0.516-0.164,1.05-0.164,1.603C0.984,13.897,3.674,16,6.99,16c3.316,0,6.005-2.103,6.005-5.979
		c0-0.547-0.059-1.077-0.16-1.588C14.916,4.409,13.537,1.001,13.537,1.001z M0.994,2.564c0.847,0.72,1.463,1.729,1.823,2.414
		C2.291,5.574,1.86,6.281,1.547,7.067C0.794,5.207,0.833,3.581,0.994,2.564z M6.99,15c-2.766,0-5.006-1.649-5.006-4.976
		c0-2.886,1.687-5.295,3.939-5.884c0.52,0.439,1.06,1.08,1.06,1.86c0-0.783,0.542-1.425,1.063-1.864
		c2.258,0.583,3.95,2.997,3.95,5.888C11.996,13.351,9.755,15,6.99,15z M11.169,4.985c0.36-0.685,0.978-1.699,1.828-2.421
		c0.16,1.019,0.2,2.65-0.559,4.518C12.126,6.293,11.697,5.583,11.169,4.985z"/>
</g>
<g id="_x37_-animal_-_monkey_1_" style="display:none;enable-background:new    ;">
	<path style="display:inline;fill-rule:evenodd;clip-rule:evenodd;" d="M16,6.5c0-1.933-1.343-3.499-3-3.499
		c-0.435,0-0.845,0.113-1.218,0.307c0.001,0.002,0.002,0.004,0.003,0.006C10.985,1.926,9.593,1,8,1C6.409,1,5.019,1.923,4.218,3.308
		C3.845,3.114,3.435,3.001,3,3.001c-1.657,0-3,1.566-3,3.499c0,1.608,0.935,2.95,2.202,3.359C2.075,10.225,2,10.605,2,11
		c0,2.485,2.686,5,6,5s6-2.515,6-5c0-0.395-0.075-0.775-0.202-1.141C15.065,9.45,16,8.108,16,6.5z M1,6.5
		c0-1.38,0.896-2.499,2-2.499c0.288,0,0.561,0.079,0.808,0.216C3.617,4.772,3.5,5.37,3.5,6c0,0.631,0.117,1.228,0.308,1.784
		C3.343,8.124,2.955,8.521,2.657,8.96c0.001-0.001,0.001-0.002,0.002-0.003C1.718,8.754,1,7.735,1,6.5z M8,15c-2.761,0-5-2.066-5-4
		c0-1.164,0.82-2.188,2.069-2.823C4.712,7.55,4.5,6.804,4.5,6c0-1.626,0.853-3.02,2.072-3.645C7.25,2.659,8,3.179,8,4.001
		c0-0.894,0.706-1.426,1.28-1.716C10.578,2.87,11.5,4.309,11.5,6c0,0.804-0.212,1.55-0.569,2.177C12.179,8.813,13,9.836,13,11
		C13,12.934,10.761,15,8,15z M13.34,8.957c-0.298-0.438-0.686-0.834-1.149-1.173C12.383,7.228,12.5,6.63,12.5,6
		c0-0.631-0.116-1.229-0.309-1.785c0,0.001,0.001,0.001,0.001,0.002C12.439,4.08,12.711,4.001,13,4.001c1.105,0,2,1.119,2,2.499
		C15,7.735,14.283,8.754,13.34,8.957z M8,12c-1.657,0-3-0.895-3-1.999H4C4,11.657,5.791,13,8,13c2.209,0,4-1.343,4-2.999h-1
		C11,11.105,9.657,12,8,12z"/>
</g>
<g id="_x36_-animal_-_monkey_1_" style="display:none;enable-background:new    ;">
	<path style="display:inline;fill-rule:evenodd;clip-rule:evenodd;" d="M15,6.5c0-1.933-1.343-3.499-3-3.499
		c-0.283,0-0.552,0.061-0.812,0.146c-0.777-1.238-2.045-2.063-3.491-2.133L7.667,1L7.64,1.01C7.593,1.008,7.547,1,7.5,1
		C5.971,1,4.625,1.852,3.812,3.147C3.552,3.062,3.283,3.001,3,3.001c-1.657,0-3,1.566-3,3.499c0,1.186,0.508,2.229,1.281,2.862
		C1.1,9.797,1,10.259,1,10.737C1,13.354,3.91,16,7.5,16c3.589,0,6.5-2.646,6.5-5.263c0-0.479-0.1-0.939-0.28-1.375
		C14.492,8.729,15,7.686,15,6.5z M1,6.5C1,5.12,1.896,4,3,4c0.123,0,0.242,0.019,0.358,0.045C3.128,4.646,3,5.306,3,6
		c0,0.425,0.059,0.832,0.148,1.226C2.605,7.583,2.14,8.003,1.788,8.476C1.312,8.019,1,7.308,1,6.5z M7.5,15
		C4.462,15,2,12.795,2,10.733c0-1.261,0.924-2.374,2.335-3.05C4.125,7.17,4,6.604,4,6c0-1.814,1.063-3.328,2.511-3.818
		C7.001,2.806,7.667,3.862,7.667,5c0-1.119,0.516-2.161,0.905-2.789C9.977,2.731,11,4.221,11,6c0,0.604-0.125,1.17-0.335,1.683
		C12.076,8.359,13,9.473,13,10.733C13,12.795,10.538,15,7.5,15z M11.851,7.226C11.941,6.832,12,6.425,12,6
		c0-0.694-0.128-1.354-0.358-1.955C11.758,4.019,11.876,4,12,4c1.105,0,2,1.12,2,2.5c0,0.808-0.312,1.519-0.787,1.976
		C12.859,8.003,12.394,7.583,11.851,7.226z"/>
</g>
<g id="_x35_-animal_-_cow_1_" style="display:none;enable-background:new    ;">
	<path style="display:inline;" d="M11.908,3.001C11.236,2.112,9.037,2,8.064,2C7.068,2,4.815,2.112,4.131,3.001H0v0.5
		c0,0,1.168,2.554,3.072,2.912C3.09,6.533,3.105,6.649,3.134,6.78c0.719,3.259,1.812,7.28,2.992,8.616l0.061,0.069l0.081,0.036
		C6.382,15.553,7.412,16,8.064,16c0.687,0,1.689-0.449,1.802-0.5l0.078-0.036l0.059-0.067c1.096-1.24,2.03-4.167,2.8-7.779
		l0.079-0.84c0.027-0.125,0.041-0.236,0.059-0.351C14.836,6.058,16,3.503,16,3.503V3.001H11.908z M3.03,5.391
		C2.461,5.173,1.945,4.642,1.501,3.98h2.031C3.304,4.355,3.091,4.785,3.03,5.391z M4.095,6.581C3.843,5.403,4.123,4.944,4.478,4.364
		c0.13-0.213,0.265-0.433,0.377-0.696c0.149-0.349,1.674-0.667,3.2-0.667c0.316,0,0.631,0.017,0.935,0.043
		C9.262,4.169,9.543,6.728,6.73,7.5C5.627,7.804,4.959,8.198,4.556,8.602C4.405,7.976,4.252,7.316,4.095,6.581z M11.907,6.583
		l-0.076,0.371c-0.388,1.874-1.404,6.336-2.421,7.653C9.104,14.743,8.446,15,8.055,15c-0.369,0-1.041-0.258-1.355-0.394
		C6.216,13.98,5.662,12.683,5.049,10.5H5.17c0,0-1.17-1,2.6-2.5c2.77-1.102,2.586-3.59,2.307-4.805
		c0.592,0.123,1.016,0.292,1.089,0.469c0.109,0.263,0.241,0.483,0.367,0.696C11.879,4.941,12.154,5.4,11.907,6.583z M12.984,5.397
		c-0.059-0.606-0.267-1.038-0.49-1.413h2.005C14.059,4.645,13.547,5.176,12.984,5.397z"/>
</g>
<g id="_x34_-animal_-_bull_1_" style="display:none;enable-background:new    ;">
	<path style="display:inline;" d="M11.907,3c-0.198-0.262-0.519-0.46-0.914-0.603l0.94-1.64c0.138-0.24,0.056-0.549-0.184-0.688
		c-0.238-0.139-0.545-0.057-0.683,0.184L9.982,2.146C9.261,2.028,8.524,2.001,8.064,2.001c-0.486,0-1.277,0.028-2.04,0.157
		L4.933,0.254C4.795,0.014,4.489-0.068,4.25,0.07S3.929,0.518,4.067,0.758l0.951,1.659C4.635,2.558,4.325,2.749,4.132,3H0v0.501
		c0,0,1.168,2.555,3.072,2.913C3.09,6.533,3.105,6.649,3.134,6.78c0.371,1.678,1.34,3.558,1.869,5.169
		c0.499,1.52,0.55,2.8,1.123,3.448l0.061,0.068l0.081,0.036C6.382,15.553,7.413,16,8.064,16c0.687,0,1.689-0.449,1.802-0.5
		l0.077-0.036l0.06-0.066C10.608,14.711,10.5,13.5,11,12c0.54-1.618,1.396-3.445,1.882-5.223c0.035-0.127,0.054-0.237,0.077-0.354
		C14.844,6.042,16,3.503,16,3.503V3H11.907z M3.03,5.391C2.461,5.173,1.945,4.642,1.501,3.979h2.031
		C3.304,4.354,3.091,4.784,3.03,5.391z M11.907,6.584c-0.525,2.326-1.422,4.149-1.848,5.397C9.676,13.1,9.805,14.096,9.41,14.607
		C9.104,14.743,8.446,15,8.055,15c-0.369,0-1.041-0.258-1.355-0.395c-0.366-0.472-0.27-1.313-0.709-2.637
		c-0.432-1.298-1.398-3.061-1.896-5.388C3.843,5.403,4.123,4.945,4.478,4.365c0.13-0.214,0.265-0.434,0.377-0.697
		C5.004,3.319,6.53,3.001,8.055,3c1.483,0,2.966,0.316,3.11,0.664c0.109,0.263,0.241,0.483,0.367,0.696
		C11.879,4.941,12.168,5.427,11.907,6.584z M13.038,5.385c-0.055-0.62-0.3-1.03-0.537-1.4h1.998
		C14.073,4.623,13.581,5.15,13.038,5.385z"/>
</g>
<g id="_x33_-animal_-_pig_1_" style="display:none;enable-background:new    ;">
	<path style="display:inline;fill-rule:evenodd;clip-rule:evenodd;" d="M13.181,6.452c1.824-2.358,0.013-6.451,0.013-6.451
		C11.263,0.717,9.95,2.455,9.358,3.386C8.621,3.141,7.829,3,7,3C6.171,3,5.38,3.141,4.642,3.386C4.05,2.455,2.736,0.717,0.806,0.001
		c0,0-1.812,4.093,0.013,6.452C0.297,7.362,0,8.398,0,9.5C0,13.091,3.134,16,7,16c3.865,0,7-2.909,7-6.5
		C14,8.397,13.703,7.361,13.181,6.452z M12.625,1.398c0.325,1.116,0.666,2.934-0.055,4.177c-0.607-0.742-1.377-1.362-2.267-1.805
		C10.753,3.1,11.549,2.08,12.625,1.398z M1.375,1.398C2.451,2.08,3.248,3.1,3.696,3.77C2.806,4.213,2.037,4.833,1.43,5.575
		C0.709,4.332,1.049,2.514,1.375,1.398z M7,15.001c-3.314,0-6-2.463-6-5.501C1,6.463,3.686,4,7,4c3.313,0,6,2.463,6,5.5
		C13,12.538,10.313,15.001,7,15.001z M7,8c-2.209,0-4,1.344-4,3c0,1.657,1.792,3,4,3s4-1.343,4-3C11,9.344,9.209,8,7,8z M7,13
		c-1.657,0-3-0.896-3-2s1.343-2,3-2c1.656,0,3,0.896,3,2S8.657,13,7,13z"/>
</g>
<g id="_x32_-animal_-_pig_1_" style="display:none;enable-background:new    ;">
	<path style="display:inline;fill-rule:evenodd;clip-rule:evenodd;" d="M5,11h1v-1H5V11z M7,8c-2.209,0-4,1.12-4,2.5
		c0,1.381,1.792,2.501,4,2.501s4-1.12,4-2.501C11,9.12,9.209,8,7,8z M7,12c-1.657,0-3-0.671-3-1.5c0-0.827,1.343-1.499,3-1.499
		c1.656,0,3,0.672,3,1.499C10,11.329,8.657,12,7,12z M13.181,6.452c1.824-2.358,0.013-6.451,0.013-6.451
		C11.263,0.717,9.95,2.455,9.358,3.386C8.621,3.141,7.829,3,7,3C6.171,3,5.38,3.141,4.642,3.386C4.05,2.455,2.736,0.717,0.806,0.001
		c0,0-1.812,4.093,0.013,6.452C0.297,7.362,0,8.398,0,9.5C0,13.091,3.134,16,7,16c3.865,0,7-2.909,7-6.5
		C14,8.397,13.703,7.361,13.181,6.452z M12.625,1.398c0.325,1.116,0.666,2.934-0.055,4.177c-0.607-0.742-1.377-1.362-2.267-1.805
		C10.752,3.1,11.549,2.08,12.625,1.398z M1.375,1.398C2.451,2.08,3.248,3.1,3.696,3.77C2.806,4.213,2.037,4.833,1.43,5.575
		C0.709,4.332,1.049,2.514,1.375,1.398z M7,15.001c-3.314,0-6-2.463-6-5.501C1,6.463,3.687,4,7,4c3.313,0,6,2.463,6,5.5
		C13,12.538,10.313,15.001,7,15.001z M8,11h1v-1H8V11z"/>
</g>
<g id="_x31_-animal_-_fox_1_" style="display:none;enable-background:new    ;">
	<path style="display:inline;" d="M7.016,13.501l2.004-2H5.011L7.016,13.501z M12.625,5.034C13.223,3.612,14.324,0.442,13.893,0
		C13.427,0,10.735,0.478,8.8,2.729C7.678,2.517,7.047,2.501,7.047,2.501S6.263,2.563,5.245,2.746C3.304,0.479,0.591,0,0.123,0
		C-0.31,0.443,0.797,3.624,1.396,5.041C0.57,6.032,0,7,0,7s0.501,3,3.038,6.001c0.988,1.478,2.77,2.753,3.476,2.999h1.003
		c0.697-0.249,2.517-1.527,3.491-2.999C13.53,9.501,14,7,14,7S13.44,6.027,12.625,5.034z M12.918,1.001
		c0.106,0.97-0.363,2.404-0.849,3.402C11.448,3.751,10.738,3.18,10.025,3C10.012,2.997,10,2.995,9.988,2.991
		C10.539,1.991,12.918,0.502,12.918,1.001z M1.101,1.001c0-0.501,2.399,0.998,2.944,1.998C4.043,3,4.042,3,4.04,3
		C3.316,3.181,2.591,3.758,1.956,4.415C1.466,3.417,0.994,1.975,1.101,1.001z M10.172,12.449c-0.77,1.162-2.096,2.308-2.655,2.552
		H6.514c-0.571-0.243-1.863-1.39-2.642-2.555C2.222,9.977,1.017,8.493,1.002,7c0.096-0.292,2.062-2.726,3.281-3.029
		c1.267-0.316,2.166-0.47,2.733-0.47c0.566,0,1.249,0.088,2.764,0.469c1.215,0.307,3.145,2.942,3.23,3.211
		C13.068,8.486,11.613,10.273,10.172,12.449z"/>
</g>

</svg>
