<?xml version="1.0" encoding="iso-8859-1"?>
<!-- Generator: Adobe Illustrator 16.0.0, SVG Export Plug-In . SVG Version: 6.00 Build 0)  -->
<!DOCTYPE svg PUBLIC "-//W3C//DTD SVG 1.1//EN" "http://www.w3.org/Graphics/SVG/1.1/DTD/svg11.dtd">
<svg version="1.1" xmlns="http://www.w3.org/2000/svg" xmlns:xlink="http://www.w3.org/1999/xlink" x="0px" y="0px" width="16px"
	 height="16px" viewBox="0 0 16 16" style="enable-background:new 0 0 16 16;" xml:space="preserve">
<g id="_x31_6-animal_-_sheep" style="enable-background:new    ;">
	<path d="M11,5.001c0,0.045,0.006,0.079,0.006,0.124c-0.5-1.007-1.924-1.124-2.942-1.124c-1.065,0-2.596,0.115-3.073,1.188
		C4.992,5.122,5,5.068,5,5.001c0,0-5,0-5,4.557c0,0,2.713,1.364,4.141-0.753c1.86,7.193,2.626,6.697,2.626,6.697
		C6.882,15.553,7.412,16,8.064,16c0.687,0,1.19-0.449,1.301-0.5c0,0,0.633,0.496,2.506-6.68C13.301,10.913,16,9.558,16,9.558
		C16,5.001,11,5.001,11,5.001z M1,9.052c0-2.769,3-3.039,3-3.039C4,10.32,1,9.052,1,9.052z M10.906,8.584
		C10,13.001,9,14.501,9,14.501s-0.609,0.5-1,0.5c-0.369,0-1-0.5-1-0.5s-1-1.5-1.905-5.92C4.854,7.4,5.123,6.945,5.478,6.365
		c0.13-0.213,0.265-0.434,0.377-0.696C6.004,5.319,6.529,5.001,8.055,5c1.484,0,1.966,0.317,2.111,0.664
		c0.109,0.263,0.24,0.483,0.367,0.696C10.879,6.941,11.145,7.423,10.906,8.584z M12,6.013c0,0,3,0.271,3,3.039
		C15,9.052,12,10.32,12,6.013z"/>
</g>
<g id="Layer_1">
</g>
</svg>
