<?xml version="1.0" encoding="iso-8859-1"?>
<!-- Generator: Adobe Illustrator 16.0.0, SVG Export Plug-In . SVG Version: 6.00 Build 0)  -->
<!DOCTYPE svg PUBLIC "-//W3C//DTD SVG 1.1//EN" "http://www.w3.org/Graphics/SVG/1.1/DTD/svg11.dtd">
<svg version="1.1" xmlns="http://www.w3.org/2000/svg" xmlns:xlink="http://www.w3.org/1999/xlink" x="0px" y="0px" width="16px"
	 height="16px" viewBox="0 0 16 16" style="enable-background:new 0 0 16 16;" xml:space="preserve">
<g id="_x31_1-animal_-_mouse" style="enable-background:new    ;">
	<path d="M12.5,0c-1.418,0-2.633,0.848-3.184,2.061c-0.483-0.045-0.936-0.06-1.252-0.06c-0.344,0-0.845,0.016-1.376,0.068
		C6.14,0.852,4.922,0,3.5,0C1.567,0,0,1.567,0,3.501C0,5.33,1.408,6.813,3.197,6.97c0.401,1.546,1.299,2.436,1.806,3.98
		c0.211,0.643,0.679,1.462,1.193,2.199C6.074,13.408,6,13.695,6,14.001C6,15.104,6.896,16,8,16c1.105,0,2-0.896,2-1.999
		c0-0.245-0.051-0.478-0.131-0.694c0.559-0.766,1.074-1.646,1.301-2.342c0.41-1.252,1.287-1.73,1.633-3.348l0.061-0.653
		C14.623,6.779,16,5.309,16,3.501C16,1.567,14.434,0,12.5,0z M3.662,3.771c-0.334,0.53-0.697,1.127-0.64,2.182
		C1.871,5.729,1,4.718,1,3.501C1,2.119,2.119,1,3.5,1c0.916,0,1.708,0.498,2.144,1.233C4.884,2.402,4.21,2.69,3.989,3.191
		C3.901,3.393,3.785,3.576,3.662,3.771z M8,15c-0.552,0-1-0.447-1-0.999C7,13.448,7.448,13,8,13s1,0.448,1,1.001
		C9,14.553,8.552,15,8,15z M11.906,6.584l-0.076,0.37c-0.236,1.146-1.209,2.258-1.771,4.027c-0.152,0.479-0.479,1.002-0.832,1.45
		C8.887,12.165,8.464,12.001,8,12.001c-0.461,0-0.881,0.162-1.219,0.424c-0.316-0.422-0.614-0.928-0.79-1.455
		C5.559,9.671,4.593,8.909,4.095,6.581C3.843,5.403,4.123,4.945,4.478,4.364c0.13-0.213,0.265-0.433,0.377-0.696
		C5.004,3.319,6.53,3.001,8.055,3c1.484,0,2.966,0.316,3.111,0.664c0.109,0.263,0.24,0.483,0.367,0.696
		C11.879,4.941,12.154,5.4,11.906,6.584z M12.99,5.951c0.057-1.052-0.297-1.646-0.623-2.176c-0.119-0.194-0.232-0.379-0.318-0.579
		c-0.223-0.519-0.914-0.812-1.684-0.979C10.803,1.491,11.59,1,12.5,1C13.881,1,15,2.119,15,3.501C15,4.713,14.137,5.723,12.99,5.951
		z"/>
</g>
<g id="Layer_1">
</g>
</svg>
