<?xml version="1.0" encoding="iso-8859-1"?>
<!-- Generator: Adobe Illustrator 16.0.0, SVG Export Plug-In . SVG Version: 6.00 Build 0)  -->
<!DOCTYPE svg PUBLIC "-//W3C//DTD SVG 1.1//EN" "http://www.w3.org/Graphics/SVG/1.1/DTD/svg11.dtd">
<svg version="1.1" xmlns="http://www.w3.org/2000/svg" xmlns:xlink="http://www.w3.org/1999/xlink" x="0px" y="0px" width="16px"
	 height="16px" viewBox="0 0 16 16" style="enable-background:new 0 0 16 16;" xml:space="preserve">
<g id="_x31_0-animal_-_dog" style="enable-background:new    ;">
	<path d="M6.143,11c0,0,0.689,2,1.969,2c1.279,0,1.968-2,1.968-2s-0.973-0.5-1.968-0.5C7.14,10.5,6.143,11,6.143,11z M15.824,5.212
		c-0.557-2.168-2.217-3.056-3.834-3.137c-0.688-0.034-1.373,0.063-1.916,0.365C9.424,2.17,8.729,2,7.994,2
		C7.293,2,6.631,2.161,6.006,2.408C5.451,2.065,4.73,1.96,4.008,1.997C2.391,2.08,0.732,2.979,0.175,5.177s0.255,4.338,1.815,4.779
		c0.03,0.009,0.066,0.006,0.098,0.011C2.592,13.209,5.042,16,7.994,16c2.961,0,5.416-2.808,5.91-6.063
		c0.033-0.006,0.072-0.003,0.105-0.013C15.568,9.489,16.381,7.379,15.824,5.212z M2.243,8.961c-1.04-0.294-1.544-1.869-1.126-3.518
		S3.42,2.935,4.5,2.935c1,0,1.918,0.417,1.5,2.065S3.283,9.256,2.243,8.961z M7.994,15c-2.462,0-4.499-2.439-4.917-5.216
		C4.763,9.019,7,6.283,7,4.456c0-0.508-0.094-0.92-0.259-1.252C7.144,3.084,7.559,3,7.994,3c0.452,0,0.88,0.091,1.297,0.22
		C9.109,3.556,9,3.973,9,4.501c0,1.799,2.231,4.49,3.915,5.25C12.506,12.541,10.467,15,7.994,15z M13.756,8.944
		C12.717,9.234,10.418,6.626,10,5c-0.418-1.625,0.5-1.999,1.5-1.999c1.08,0,2.965,0.848,3.383,2.474S14.797,8.653,13.756,8.944z"/>
</g>
<g id="Layer_1">
</g>
</svg>
