<?xml version="1.0" encoding="iso-8859-1"?>
<!-- Generator: Adobe Illustrator 16.0.0, SVG Export Plug-In . SVG Version: 6.00 Build 0)  -->
<!DOCTYPE svg PUBLIC "-//W3C//DTD SVG 1.1//EN" "http://www.w3.org/Graphics/SVG/1.1/DTD/svg11.dtd">
<svg version="1.1" xmlns="http://www.w3.org/2000/svg" xmlns:xlink="http://www.w3.org/1999/xlink" x="0px" y="0px" width="16px"
	 height="16px" viewBox="0 0 16 16" style="enable-background:new 0 0 16 16;" xml:space="preserve">
<g id="_x31_3-animal_-_fish" style="enable-background:new    ;">
	<path d="M11.768,6.41C10.949,6.124,10.193,6,9.498,6c-3.641,0-5.617,3.391-6.105,4.56L0,7v7.5l3.404-3.12
		C3.907,12.596,5.757,16,9.33,16c0.688,0,1.439-0.126,2.258-0.418C14.469,14.554,16,11.468,16,10.953
		C16,10.448,14.648,7.42,11.768,6.41z M0.96,12.549V9.25V9.212l1.494,1.768L0.96,12.549z M11,14.712
		c-0.578,0.18-1.141,0.289-1.67,0.289c-3.22,0-4.767-3.346-5.044-4.017l-0.011-0.027C4.35,10.776,5.977,7,9.498,7
		C9.979,7,10.484,7.094,11,7.235V14.712z M12,14.307V7.601c1.803,0.891,2.824,2.719,3.02,3.342
		C14.816,11.516,13.771,13.345,12,14.307z"/>
</g>
<g id="Layer_1">
</g>
</svg>
