<?xml version="1.0" encoding="iso-8859-1"?>
<!-- Generator: Adobe Illustrator 16.0.0, SVG Export Plug-In . SVG Version: 6.00 Build 0)  -->
<!DOCTYPE svg PUBLIC "-//W3C//DTD SVG 1.1//EN" "http://www.w3.org/Graphics/SVG/1.1/DTD/svg11.dtd">
<svg version="1.1" xmlns="http://www.w3.org/2000/svg" xmlns:xlink="http://www.w3.org/1999/xlink" x="0px" y="0px" width="16px"
	 height="16px" viewBox="0 0 16 16" style="enable-background:new 0 0 16 16;" xml:space="preserve">
<g id="_x31_5-animal_-_shrimp" style="enable-background:new    ;">
	<path d="M15.996,0.806l-0.703-0.811L11.734,3h-5.23l-1,0.066l0.003,0.025c-2.794,0.432-4.989,2.639-5.41,5.44L0.051,8.997
		C0.038,9.166,0,9.328,0,9.5c0,2.133,1.041,4.008,2.627,5.193l0.857,0.532C4.389,15.704,5.405,16,6.5,16
		c1.923,0,3.625-0.857,4.813-2.188l0.041,0.042l3.5-3.5l-0.707-0.708l-3.168,3.168l-3.518-2.642L7.412,9.807
		C8.271,9.527,9.818,8.912,10.9,7.811c1.076-1.095,1.66-2.65,1.92-3.508l2.77,1.204l0.404-0.954l-2.928-1.273L15.996,0.806z
		 M5.639,4.075l0.689,5.171c-0.1,0.03-0.179,0.054-0.231,0.067L1.168,8.211C1.685,6.072,3.441,4.423,5.639,4.075z M3.257,13.923
		C1.895,12.922,1,11.321,1,9.5c0-0.094,0.023-0.183,0.028-0.275l5.102,1.189L3.257,13.923z M10.25,13.485
		C9.27,14.417,7.959,15,6.5,15c-0.851,0-1.646-0.209-2.366-0.554l2.846-3.414L10.25,13.485z M10.193,7.095
		C9.33,7.972,8.174,8.551,7.292,8.904L6.638,4h5.31C11.656,4.879,11.111,6.159,10.193,7.095z"/>
</g>
<g id="Layer_1">
</g>
</svg>
