<?xml version="1.0" encoding="iso-8859-1"?>
<!-- Generator: Adobe Illustrator 16.0.0, SVG Export Plug-In . SVG Version: 6.00 Build 0)  -->
<!DOCTYPE svg PUBLIC "-//W3C//DTD SVG 1.1//EN" "http://www.w3.org/Graphics/SVG/1.1/DTD/svg11.dtd">
<svg version="1.1" xmlns="http://www.w3.org/2000/svg" xmlns:xlink="http://www.w3.org/1999/xlink" x="0px" y="0px" width="16px"
	 height="16px" viewBox="0 0 16 16" style="enable-background:new 0 0 16 16;" xml:space="preserve">
<g id="_x35_-animal_-_cow" style="enable-background:new    ;">
	<path d="M11.908,3.001C11.236,2.112,9.037,2,8.064,2C7.068,2,4.815,2.112,4.131,3.001H0v0.5c0,0,1.168,2.554,3.072,2.912
		C3.09,6.533,3.105,6.649,3.134,6.78c0.719,3.259,1.812,7.28,2.992,8.616l0.061,0.069l0.081,0.036C6.382,15.553,7.412,16,8.064,16
		c0.687,0,1.69-0.449,1.801-0.5l0.078-0.036l0.059-0.067c1.096-1.24,2.031-4.167,2.801-7.779l0.078-0.84
		c0.027-0.125,0.041-0.236,0.059-0.351C14.836,6.058,16,3.503,16,3.503V3.001H11.908z M3.03,5.391
		C2.461,5.173,1.945,4.642,1.501,3.98h2.031C3.304,4.355,3.091,4.785,3.03,5.391z M4.095,6.581C3.843,5.403,4.123,4.944,4.478,4.364
		c0.13-0.213,0.265-0.433,0.377-0.696c0.149-0.349,1.674-0.667,3.2-0.667c0.316,0,0.631,0.017,0.935,0.043
		C9.262,4.169,9.543,6.728,6.73,7.5C5.627,7.804,4.959,8.198,4.556,8.602C4.405,7.976,4.252,7.316,4.095,6.581z M11.906,6.583
		L11.83,6.954c-0.387,1.874-1.404,6.336-2.42,7.653C9.104,14.743,8.446,15,8.055,15c-0.369,0-1.041-0.258-1.355-0.394
		C6.216,13.98,5.662,12.683,5.049,10.5H5.17c0,0-1.17-1,2.6-2.5c2.769-1.102,2.585-3.59,2.306-4.805
		c0.592,0.123,1.016,0.292,1.09,0.469c0.109,0.263,0.24,0.483,0.367,0.696C11.879,4.941,12.154,5.4,11.906,6.583z M12.984,5.397
		c-0.059-0.606-0.268-1.038-0.49-1.413h2.004C14.059,4.645,13.547,5.176,12.984,5.397z"/>
</g>
<g id="Layer_1">
</g>
</svg>
