<?xml version="1.0" encoding="iso-8859-1"?>
<!-- Generator: Adobe Illustrator 16.0.0, SVG Export Plug-In . SVG Version: 6.00 Build 0)  -->
<!DOCTYPE svg PUBLIC "-//W3C//DTD SVG 1.1//EN" "http://www.w3.org/Graphics/SVG/1.1/DTD/svg11.dtd">
<svg version="1.1" xmlns="http://www.w3.org/2000/svg" xmlns:xlink="http://www.w3.org/1999/xlink" x="0px" y="0px" width="16px"
	 height="16px" viewBox="0 0 16 16" style="enable-background:new 0 0 16 16;" xml:space="preserve">
<g id="_x32_0-animal_-_chicken" style="enable-background:new    ;">
	<path d="M7.97,1.295C7.865,0.568,7.267,0.001,6.511,0.001c-0.753,0-1.351,0.565-1.457,1.289C2.317,2.331,0,6.074,0,9.25
		C0,12.979,3.188,16,6.506,16c3.316,0,6.506-3.021,6.506-6.75C13.012,6.078,10.701,2.342,7.97,1.295z M6.011,1.501
		c0-0.276,0.224-0.5,0.5-0.5c0.276,0,0.5,0.224,0.5,0.5v2c0,0.275-0.224,0.5-0.5,0.5c-0.275,0-0.5-0.225-0.5-0.5V1.501z M6.506,15
		C3.741,15,1,12.426,1,9.25c0-2.596,1.833-5.79,4.012-6.87v1.121c0,0.828,0.671,1.5,1.5,1.5c0.829,0,1.5-0.672,1.5-1.5V2.385
		c2.175,1.086,4.001,4.273,4.001,6.865C12.012,12.426,9.27,15,6.506,15z M6.511,6.001c-2.208,0-4,1.791-4,4s1.791,4,4,4
		c2.21,0,3.999-1.791,3.999-4S8.721,6.001,6.511,6.001z M6.511,7.001c1.658,0,2.999,1.343,2.999,3l-2.999-1l-3,1
		C3.511,8.344,4.854,7.001,6.511,7.001z M6.511,13.001c-1.324,0-2.436-0.864-2.833-2.056l2.833-0.944l2.833,0.944
		C8.948,12.137,7.836,13.001,6.511,13.001z"/>
</g>
<g id="Layer_1">
</g>
</svg>
