<?xml version="1.0" encoding="iso-8859-1"?>
<!-- Generator: Adobe Illustrator 16.0.0, SVG Export Plug-In . SVG Version: 6.00 Build 0)  -->
<!DOCTYPE svg PUBLIC "-//W3C//DTD SVG 1.1//EN" "http://www.w3.org/Graphics/SVG/1.1/DTD/svg11.dtd">
<svg version="1.1" xmlns="http://www.w3.org/2000/svg" xmlns:xlink="http://www.w3.org/1999/xlink" x="0px" y="0px" width="16px"
	 height="16px" viewBox="0 0 16 16" style="enable-background:new 0 0 16 16;" xml:space="preserve">
<g id="_x31_8-animal_-_dog" style="enable-background:new    ;">
	<path d="M13.947,1.003c-2.066,0.904-4.295,1.617-5.1,1.854C8.268,2.645,7.661,2.5,7.02,2.5c-0.672,0-1.307,0.153-1.909,0.385
		C4.223,2.626,2.051,1.939,0.041,1.081C0.049,1.061-0.074,1.943,0.071,2.5c0.363,1.391,1.16,3.599,1.408,4.277
		C1.212,7.544,1.053,8.374,1.053,9.249C1.053,12.978,3.725,16,7.02,16s5.967-3.022,5.967-6.751c0-0.896-0.162-1.746-0.443-2.528
		c0.266-0.74,1.023-2.903,1.375-4.28C14.061,1.876,13.939,0.982,13.947,1.003z M1.064,2.5l3.063,0.88
		C3.246,3.938,2.503,4.724,1.97,5.688L1.064,2.5z M7.02,14.999c-2.747,0-4.973-2.574-4.973-5.75s2.227-5.75,4.973-5.75
		c2.746,0,4.973,2.574,4.973,5.75S9.766,14.999,7.02,14.999z M12.047,5.645c-0.541-0.966-1.297-1.747-2.188-2.297l3.076-0.907
		L12.047,5.645z M5.07,10.25c0,0,0.684,2,1.955,2c1.272,0,1.956-2,1.956-2s-0.965-0.5-1.956-0.5C6.06,9.75,5.07,10.25,5.07,10.25z"
		/>
</g>
<g id="Layer_1">
</g>
</svg>
