<?xml version="1.0" encoding="iso-8859-1"?>
<!-- Generator: Adobe Illustrator 16.0.0, SVG Export Plug-In . SVG Version: 6.00 Build 0)  -->
<!DOCTYPE svg PUBLIC "-//W3C//DTD SVG 1.1//EN" "http://www.w3.org/Graphics/SVG/1.1/DTD/svg11.dtd">
<svg version="1.1" xmlns="http://www.w3.org/2000/svg" xmlns:xlink="http://www.w3.org/1999/xlink" x="0px" y="0px" width="16px"
	 height="16px" viewBox="0 0 16 16" style="enable-background:new 0 0 16 16;" xml:space="preserve">
<g id="_x34_-animal_-_bull" style="enable-background:new    ;">
	<path d="M11.906,3c-0.197-0.262-0.518-0.46-0.914-0.603l0.941-1.64c0.137-0.24,0.055-0.549-0.184-0.688s-0.545-0.057-0.684,0.184
		L9.982,2.146C9.262,2.028,8.524,2.001,8.064,2.001c-0.486,0-1.277,0.028-2.04,0.157L4.933,0.254C4.795,0.014,4.489-0.068,4.25,0.07
		S3.929,0.518,4.067,0.758l0.951,1.659C4.635,2.558,4.325,2.749,4.132,3H0v0.501c0,0,1.168,2.555,3.072,2.913
		C3.09,6.533,3.105,6.649,3.134,6.78c0.371,1.678,1.34,3.558,1.869,5.169c0.499,1.52,0.55,2.8,1.123,3.448l0.061,0.068l0.081,0.036
		C6.382,15.553,7.413,16,8.064,16c0.687,0,1.69-0.449,1.801-0.5l0.078-0.036l0.059-0.066C10.607,14.711,10.5,13.5,11,12
		c0.539-1.618,1.395-3.445,1.881-5.223c0.035-0.127,0.055-0.237,0.078-0.354C14.844,6.042,16,3.503,16,3.503V3H11.906z M3.03,5.391
		C2.461,5.173,1.945,4.642,1.501,3.979h2.031C3.304,4.354,3.091,4.784,3.03,5.391z M11.906,6.584
		c-0.525,2.326-1.422,4.149-1.848,5.397C9.676,13.1,9.805,14.096,9.41,14.607C9.104,14.743,8.446,15,8.055,15
		c-0.369,0-1.041-0.258-1.355-0.395c-0.366-0.472-0.27-1.313-0.709-2.637c-0.432-1.298-1.398-3.061-1.896-5.388
		C3.843,5.403,4.123,4.945,4.478,4.365c0.13-0.214,0.265-0.434,0.377-0.697C5.004,3.319,6.53,3.001,8.055,3
		c1.484,0,2.966,0.316,3.111,0.664c0.109,0.263,0.24,0.483,0.367,0.696C11.879,4.941,12.168,5.427,11.906,6.584z M13.037,5.385
		c-0.055-0.62-0.299-1.03-0.537-1.4h1.998C14.072,4.623,13.58,5.15,13.037,5.385z"/>
</g>
<g id="Layer_1">
</g>
</svg>
