<?xml version="1.0" encoding="iso-8859-1"?>
<!-- Generator: Adobe Illustrator 16.0.0, SVG Export Plug-In . SVG Version: 6.00 Build 0)  -->
<!DOCTYPE svg PUBLIC "-//W3C//DTD SVG 1.1//EN" "http://www.w3.org/Graphics/SVG/1.1/DTD/svg11.dtd">
<svg version="1.1" xmlns="http://www.w3.org/2000/svg" xmlns:xlink="http://www.w3.org/1999/xlink" x="0px" y="0px" width="16px"
	 height="16px" viewBox="0 0 16 16" style="enable-background:new 0 0 16 16;" xml:space="preserve">
<g id="_x33_-animal_-_pig" style="enable-background:new    ;">
	<path style="fill-rule:evenodd;clip-rule:evenodd;" d="M13.182,6.452c1.824-2.358,0.012-6.451,0.012-6.451
		c-1.93,0.716-3.244,2.454-3.836,3.385C8.621,3.141,7.829,3,7,3C6.171,3,5.38,3.141,4.642,3.386C4.05,2.455,2.736,0.717,0.806,0.001
		c0,0-1.812,4.093,0.013,6.452C0.297,7.362,0,8.398,0,9.5C0,13.091,3.134,16,7,16c3.865,0,7-2.909,7-6.5
		C14,8.397,13.703,7.361,13.182,6.452z M12.625,1.398c0.326,1.116,0.666,2.934-0.055,4.177c-0.607-0.742-1.377-1.362-2.266-1.805
		C10.754,3.1,11.549,2.08,12.625,1.398z M1.375,1.398C2.451,2.08,3.248,3.1,3.696,3.77C2.806,4.213,2.037,4.833,1.43,5.575
		C0.709,4.332,1.049,2.514,1.375,1.398z M7,15.001c-3.314,0-6-2.463-6-5.501C1,6.463,3.686,4,7,4c3.312,0,6,2.463,6,5.5
		C13,12.538,10.313,15.001,7,15.001z M7,8c-2.209,0-4,1.344-4,3c0,1.657,1.792,3,4,3c2.208,0,4-1.343,4-3C11,9.344,9.209,8,7,8z
		 M7,13c-1.657,0-3-0.896-3-2s1.343-2,3-2c1.656,0,3,0.896,3,2S8.657,13,7,13z"/>
</g>
<g id="Layer_1">
</g>
</svg>
