<?xml version="1.0" encoding="iso-8859-1"?>
<!-- Generator: Adobe Illustrator 16.0.0, SVG Export Plug-In . SVG Version: 6.00 Build 0)  -->
<!DOCTYPE svg PUBLIC "-//W3C//DTD SVG 1.1//EN" "http://www.w3.org/Graphics/SVG/1.1/DTD/svg11.dtd">
<svg version="1.1" xmlns="http://www.w3.org/2000/svg" xmlns:xlink="http://www.w3.org/1999/xlink" x="0px" y="0px" width="16px"
	 height="16px" viewBox="0 0 16 16" style="enable-background:new 0 0 16 16;" xml:space="preserve">
<g id="_x31_9-animal_-_goose" style="enable-background:new    ;">
	<path d="M6.506,1C3.188,1,0,5.522,0,9.25C0,12.979,3.188,16,6.506,16c3.316,0,6.506-3.021,6.506-6.75C13.012,5.522,9.822,1,6.506,1
		z M6.506,15C3.741,15,1,12.426,1,9.25C1,6.075,3.741,2,6.506,2c2.764,0,5.506,4.075,5.506,7.25C12.012,12.426,9.27,15,6.506,15z
		 M6.511,6.001c-2.208,0-4,1.791-4,4s1.791,4,4,4c2.21,0,3.999-1.791,3.999-4S8.721,6.001,6.511,6.001z M6.511,7.001
		c1.658,0,2.999,1.343,2.999,3l-2.999-1l-3,1C3.511,8.344,4.854,7.001,6.511,7.001z M6.511,13.001c-1.324,0-2.436-0.865-2.833-2.056
		l2.833-0.944l2.833,0.944C8.948,12.136,7.836,13.001,6.511,13.001z"/>
</g>
<g id="Layer_1">
</g>
</svg>
