<?xml version="1.0" encoding="iso-8859-1"?>
<!-- Generator: Adobe Illustrator 16.0.0, SVG Export Plug-In . SVG Version: 6.00 Build 0)  -->
<!DOCTYPE svg PUBLIC "-//W3C//DTD SVG 1.1//EN" "http://www.w3.org/Graphics/SVG/1.1/DTD/svg11.dtd">
<svg version="1.1" xmlns="http://www.w3.org/2000/svg" xmlns:xlink="http://www.w3.org/1999/xlink" x="0px" y="0px" width="16px"
	 height="16px" viewBox="0 0 16 16" style="enable-background:new 0 0 16 16;" xml:space="preserve">
<g id="_x31_7-animal_-_lion" style="enable-background:new    ;">
	<path d="M15.041,1.003c-1.701,0.739-3.727,1.351-4.928,1.68C9.311,2.251,8.444,1.999,7.567,1.999c-0.902,0-1.792,0.268-2.614,0.722
		c-1.222-0.329-3.227-0.925-4.911-1.64C0.049,1.061-0.074,1.943,0.072,2.5c0.305,1.159,1.154,2.881,1.642,3.821
		C1.303,7.239,1.061,8.235,1.061,9.249C1.061,12.978,4.25,16,7.567,16c3.316,0,6.505-3.022,6.505-6.751
		c0-1.03-0.25-2.041-0.672-2.97c0.486-0.96,1.313-2.678,1.609-3.839C15.154,1.876,15.033,0.982,15.041,1.003z M1.072,2.5L4.12,3.262
		C3.404,3.806,2.769,4.497,2.267,5.286L1.072,2.5z M7.567,14.999c-1.212,0-2.406-0.515-3.38-1.338l3.385-1.473l3.379,1.47
		C9.975,14.483,8.781,14.999,7.567,14.999z M11.721,12.875l-3.649-1.586v-1.152C9.027,9.722,9.541,8.25,9.541,8.25
		s-0.973-0.5-1.969-0.5c-0.972,0-1.968,0.5-1.968,0.5s0.512,1.472,1.468,1.886v1.153l-3.656,1.59
		c-0.816-0.992-1.355-2.245-1.355-3.63c0-3.176,2.741-6.25,5.506-6.25s5.505,3.074,5.505,6.25
		C13.072,10.632,12.535,11.884,11.721,12.875z M12.842,5.25c-0.512-0.792-1.156-1.484-1.881-2.026l3.061-0.783L12.842,5.25z"/>
</g>
<g id="Layer_1">
</g>
</svg>
