<?xml version="1.0" encoding="iso-8859-1"?>
<!-- Generator: Adobe Illustrator 16.0.0, SVG Export Plug-In . SVG Version: 6.00 Build 0)  -->
<!DOCTYPE svg PUBLIC "-//W3C//DTD SVG 1.1//EN" "http://www.w3.org/Graphics/SVG/1.1/DTD/svg11.dtd">
<svg version="1.1" xmlns="http://www.w3.org/2000/svg" xmlns:xlink="http://www.w3.org/1999/xlink" x="0px" y="0px" width="16px"
	 height="16px" viewBox="0 0 16 16" style="enable-background:new 0 0 16 16;" xml:space="preserve">
<g id="_x32_1-animal_-_cow" style="enable-background:new    ;">
	<path d="M13,7.1V4h1.5C14.775,4,15,3.776,15,3.5S14.775,3,14.5,3H13c0-1.104-0.895-2-2-2H5C3.896,1,3,1.896,3,3H1.5
		C1.224,3,1,3.224,1,3.5S1.224,4,1.5,4H3v3.1C1.173,8.017,0,9.422,0,11c0,2.762,3.582,5,8,5c4.418,0,8-2.238,8-5
		C16,9.422,14.828,8.017,13,7.1z M4,3c0-0.553,0.448-1,1-1h6c0.553,0,1,0.447,1,1v3.674c-0.619-0.224-1.291-0.396-2-0.511V4.5
		C10,4.224,9.775,4,9.5,4S9,4.224,9,4.5v1.543C8.671,6.018,8.339,6,8,6S7.328,6.018,7,6.043V4.5C7,4.224,6.776,4,6.5,4
		C6.224,4,6,4.224,6,4.5v1.663C5.29,6.278,4.619,6.45,4,6.674V3z M8,15c-3.866,0-7-1.791-7-4s3.134-4,7-4c3.865,0,7,1.791,7,4
		S11.865,15,8,15z M11,9c-1.105,0-2,0.896-2,2s0.895,2,2,2s2-0.896,2-2S12.105,9,11,9z M11,12c-0.553,0-1-0.448-1-1
		c0-0.553,0.447-1,1-1s1,0.447,1,1C12,11.552,11.553,12,11,12z M5,9c-1.104,0-2,0.896-2,2s0.896,2,2,2s2-0.896,2-2S6.104,9,5,9z
		 M5,12c-0.552,0-1-0.448-1-1c0-0.553,0.448-1,1-1s1,0.447,1,1C6,11.552,5.552,12,5,12z"/>
</g>
<g id="Layer_1">
</g>
</svg>
