<?xml version="1.0" encoding="iso-8859-1"?>
<!-- Generator: Adobe Illustrator 16.0.0, SVG Export Plug-In . SVG Version: 6.00 Build 0)  -->
<!DOCTYPE svg PUBLIC "-//W3C//DTD SVG 1.1//EN" "http://www.w3.org/Graphics/SVG/1.1/DTD/svg11.dtd">
<svg version="1.1" xmlns="http://www.w3.org/2000/svg" xmlns:xlink="http://www.w3.org/1999/xlink" x="0px" y="0px" width="16px"
	 height="16px" viewBox="0 0 16 16" style="enable-background:new 0 0 16 16;" xml:space="preserve">
<g id="_x31_4-animal_-_frog" style="enable-background:new    ;">
	<path d="M16,6.999C16,5.343,14.656,4,13,4c-0.623,0-1.199,0.189-1.68,0.514C10.371,4.192,9.234,4,8,4
		C6.765,4,5.628,4.192,4.679,4.514C4.2,4.189,3.622,4,3,4C1.343,4,0,5.343,0,6.999c0,0.876,0.382,1.657,0.98,2.206
		C0.89,10.323,0.786,16,8,16c7.215,0,7.109-5.677,7.02-6.795C15.619,8.656,16,7.875,16,6.999z M1,6.999c0-1.104,0.896-2,2-2
		s2,0.896,2,2c0,1.105-0.896,2-2,2S1,8.104,1,6.999z M8,14.999c-2.893,0-4.322-0.856-5.017-1.858
		c1.126,0.148,3.067,0.358,5.022,0.358c1.952,0,3.887-0.21,5.012-0.358C12.322,14.143,10.893,14.999,8,14.999z M13.512,12.073
		c-0.969,0.139-3.244,0.426-5.512,0.426c-2.285,0-4.547-0.286-5.511-0.425C2.208,10.981,2.5,9.999,2.5,9.999v-0.05
		c0.164,0.027,0.329,0.05,0.5,0.05c1.657,0,3-1.343,3-3C6,6.36,5.796,5.771,5.456,5.283C6.199,5.104,7.066,4.999,8,4.999
		s1.801,0.105,2.545,0.284C10.203,5.771,10,6.36,10,6.999c0,1.657,1.344,3,3,3c0.172,0,0.336-0.022,0.5-0.05v0.05
		C13.5,9.999,13.791,10.98,13.512,12.073z M13,8.999c-1.105,0-2-0.895-2-2c0-1.104,0.895-2,2-2s2,0.896,2,2
		C15,8.104,14.105,8.999,13,8.999z"/>
</g>
<g id="Layer_1">
</g>
</svg>
