<?xml version="1.0" encoding="iso-8859-1"?>
<!-- Generator: Adobe Illustrator 16.0.0, SVG Export Plug-In . SVG Version: 6.00 Build 0)  -->
<!DOCTYPE svg PUBLIC "-//W3C//DTD SVG 1.1//EN" "http://www.w3.org/Graphics/SVG/1.1/DTD/svg11.dtd">
<svg version="1.1" xmlns="http://www.w3.org/2000/svg" xmlns:xlink="http://www.w3.org/1999/xlink" x="0px" y="0px" width="16px"
	 height="16px" viewBox="0 0 16 16" style="enable-background:new 0 0 16 16;" xml:space="preserve">
<g id="_x31_-animal_-_fox" style="enable-background:new    ;">
	<path d="M7.016,13.501l2.003-2H5.011L7.016,13.501z M12.625,5.034C13.223,3.612,14.324,0.442,13.893,0
		C13.428,0,10.734,0.478,8.8,2.729C7.678,2.517,7.047,2.501,7.047,2.501S6.263,2.563,5.245,2.746C3.304,0.479,0.591,0,0.123,0
		C-0.31,0.443,0.797,3.624,1.396,5.041C0.57,6.032,0,7,0,7s0.501,3,3.038,6.001c0.988,1.478,2.77,2.753,3.476,2.999h1.003
		c0.697-0.249,2.516-1.527,3.491-2.999C13.529,9.501,14,7,14,7S13.439,6.027,12.625,5.034z M12.918,1.001
		c0.107,0.97-0.363,2.404-0.848,3.402C11.447,3.751,10.738,3.18,10.025,3C10.012,2.997,10,2.995,9.988,2.991
		C10.539,1.991,12.918,0.502,12.918,1.001z M1.101,1.001c0-0.501,2.399,0.998,2.944,1.998C4.043,3,4.042,3,4.04,3
		C3.316,3.181,2.591,3.758,1.956,4.415C1.466,3.417,0.994,1.975,1.101,1.001z M10.172,12.449c-0.77,1.162-2.095,2.308-2.655,2.552
		H6.514c-0.571-0.243-1.863-1.39-2.642-2.555C2.222,9.977,1.017,8.493,1.002,7c0.096-0.292,2.062-2.726,3.281-3.029
		c1.267-0.316,2.166-0.47,2.733-0.47c0.566,0,1.249,0.088,2.763,0.469c1.215,0.307,3.145,2.942,3.23,3.211
		C13.068,8.486,11.613,10.273,10.172,12.449z"/>
</g>
<g id="Layer_1">
</g>
</svg>
