<?xml version="1.0" encoding="iso-8859-1"?>
<!-- Generator: Adobe Illustrator 16.0.0, SVG Export Plug-In . SVG Version: 6.00 Build 0)  -->
<!DOCTYPE svg PUBLIC "-//W3C//DTD SVG 1.1//EN" "http://www.w3.org/Graphics/SVG/1.1/DTD/svg11.dtd">
<svg version="1.1" xmlns="http://www.w3.org/2000/svg" xmlns:xlink="http://www.w3.org/1999/xlink" x="0px" y="0px" width="16px"
	 height="16px" viewBox="0 0 16 16" style="enable-background:new 0 0 16 16;" xml:space="preserve">
<g id="_x33_3-communication_-_phone_call" style="enable-background:new    ;">
	<path d="M13.65,0.271c-0.633-0.441-1.326-0.28-1.609,0.121c-0.172,0.244-1.953,2.914-2.152,3.241
		C9.801,3.777,9.758,3.95,9.758,4.139c0,0.244,0.07,0.515,0.211,0.778c0.135,0.257,0.58,1.035,0.797,1.417
		c-0.236,0.335-0.842,1.123-2.087,2.365c-1.237,1.234-2.034,1.844-2.373,2.081c-0.382-0.217-1.162-0.66-1.419-0.795
		C4.402,9.73,3.917,9.702,3.591,9.909c-0.308,0.194-2.966,1.963-3.219,2.145c-0.238,0.172-0.367,0.48-0.367,0.815
		c0,0.264,0.08,0.543,0.249,0.786c0.017,0.023,1.691,2.37,2.662,2.338c2.726-0.086,5.929-2.727,8.136-4.927
		c2.207-2.2,4.855-5.394,4.943-8.123V2.921C15.996,1.966,13.672,0.287,13.65,0.271z M10.346,10.361
		c-2.915,2.904-5.543,4.548-7.413,4.634c-0.354-0.126-1.26-1.041-1.889-1.909c-0.045-0.063-0.07-0.144-0.07-0.217
		c0-0.017,0.001-0.03,0.003-0.041c0.409-0.28,2.694-1.786,3.122-2.06c0.045-0.001,0.159,0.015,0.322,0.1
		c0.174,0.092,0.68,0.375,1.389,0.777l0.551,0.314l0.52-0.363c0.387-0.271,1.227-0.917,2.504-2.191
		c1.285-1.28,1.93-2.115,2.199-2.499l0.365-0.519l-0.314-0.549c-0.305-0.533-0.672-1.177-0.781-1.386
		c-0.09-0.168-0.096-0.283-0.096-0.314c0-0.005,0-0.009,0-0.012c0.24-0.383,1.791-2.711,2.074-3.121
		C12.871,1,12.959,1.005,13.066,1.081c0.879,0.633,1.797,1.53,1.928,1.882C14.906,4.833,13.258,7.457,10.346,10.361z"/>
</g>
<g id="Layer_1">
</g>
</svg>
