<?xml version="1.0" encoding="iso-8859-1"?>
<!-- Generator: Adobe Illustrator 16.0.0, SVG Export Plug-In . SVG Version: 6.00 Build 0)  -->
<!DOCTYPE svg PUBLIC "-//W3C//DTD SVG 1.1//EN" "http://www.w3.org/Graphics/SVG/1.1/DTD/svg11.dtd">
<svg version="1.1" xmlns="http://www.w3.org/2000/svg" xmlns:xlink="http://www.w3.org/1999/xlink" x="0px" y="0px" width="16px"
	 height="16px" viewBox="0 0 16 16" style="enable-background:new 0 0 16 16;" xml:space="preserve">
<g id="_x31_9-communication_-_chat_talk_bubble_more_dots" style="enable-background:new    ;">
	<path d="M8,5.5c-0.553,0-1,0.447-1,1s0.447,1,1,1s1-0.447,1-1S8.553,5.5,8,5.5z M4,5.5c-0.553,0-1,0.447-1,1s0.447,1,1,1
		c0.552,0,1-0.447,1-1S4.552,5.5,4,5.5z M11,0.5H5c-2.762,0-5,2.238-5,5v2c0,2.049,1.235,3.806,3,4.578V15.5l4.125-3H11
		c2.762,0,5-2.238,5-5v-2C16,2.738,13.762,0.5,11,0.5z M15,7.5c0,2.209-1.791,4-4,4H6.801L4,13.5v-2.142C2.278,10.912,1,9.361,1,7.5
		v-2c0-2.209,1.791-4,4-4h6c2.209,0,4,1.791,4,4V7.5z M12,5.5c-0.553,0-1,0.447-1,1s0.447,1,1,1s1-0.447,1-1S12.553,5.5,12,5.5z"/>
</g>
<g id="Layer_1">
</g>
</svg>
