<?xml version="1.0" encoding="iso-8859-1"?>
<!-- Generator: Adobe Illustrator 16.0.0, SVG Export Plug-In . SVG Version: 6.00 Build 0)  -->
<!DOCTYPE svg PUBLIC "-//W3C//DTD SVG 1.1//EN" "http://www.w3.org/Graphics/SVG/1.1/DTD/svg11.dtd">
<svg version="1.1" xmlns="http://www.w3.org/2000/svg" xmlns:xlink="http://www.w3.org/1999/xlink" x="0px" y="0px" width="16px"
	 height="16px" viewBox="0 0 16 16" style="enable-background:new 0 0 16 16;" xml:space="preserve">
<g id="_x33_7-communication_-_task_vote_choice_select" style="enable-background:new    ;">
	<path d="M12.004,13c0,0.552-0.447,1-1,1H2.005c-0.553,0-1-0.448-1-1V3c0-0.553,0.447-1,1-1h8.999c0.553,0,1,0.447,1,1h1
		c0-1.104-0.895-2-2-2H2.005c-1.104,0-2,0.896-2,2v10c0,1.104,0.896,2,2,2h8.999c1.105,0,2-0.896,2-2v-2h-1V13z M15.848,4.141
		c-0.197-0.196-0.516-0.196-0.713,0l-5.639,5.17L6.888,7.145c-0.203-0.204-0.534-0.204-0.738,0s-0.204,0.535,0,0.738l2.956,2.456
		c0.107,0.107,0.25,0.155,0.391,0.148c0.01,0.001,0.016-0.004,0.023-0.004c0.102-0.01,0.199-0.049,0.283-0.117
		c0.016-0.013,0.041-0.008,0.057-0.023l5.988-5.489C16.045,4.657,16.045,4.338,15.848,4.141z"/>
</g>
<g id="Layer_1">
</g>
</svg>
