<?xml version="1.0" encoding="iso-8859-1"?>
<!-- Generator: Adobe Illustrator 16.0.0, SVG Export Plug-In . SVG Version: 6.00 Build 0)  -->
<!DOCTYPE svg PUBLIC "-//W3C//DTD SVG 1.1//EN" "http://www.w3.org/Graphics/SVG/1.1/DTD/svg11.dtd">
<svg version="1.1" xmlns="http://www.w3.org/2000/svg" xmlns:xlink="http://www.w3.org/1999/xlink" x="0px" y="0px" width="16px"
	 height="16px" viewBox="0 0 16 16" style="enable-background:new 0 0 16 16;" xml:space="preserve">
<g id="_x32_3-communication_-_email_envelope_tick_done" style="enable-background:new    ;">
	<path d="M1,12.517V2.534l6.618,5.309c0.007,0.008,0.004,0.019,0.011,0.026c0.1,0.099,0.229,0.142,0.358,0.139
		c0.129,0.003,0.259-0.04,0.357-0.139c0.007-0.008,0.004-0.019,0.011-0.026l6.638-5.324v7.499h0.998v-8.5
		c0-0.274-0.221-0.495-0.492-0.499c-0.012-0.001-0.021-0.002-0.033-0.002H0.508C0.49,1.016,0.475,1.024,0.457,1.026
		c-0.103,0.01-0.194,0.049-0.27,0.111c-0.012,0.01-0.029,0.006-0.04,0.017c-0.009,0.01-0.006,0.023-0.014,0.033
		C0.061,1.269,0.016,1.372,0.009,1.488C0.008,1.495,0.005,1.5,0.005,1.507c0,0.004-0.002,0.007-0.002,0.011v11.999
		c0,0.275,0.224,0.5,0.499,0.5h8.5v-1H1.5C1.224,13.017,1,12.792,1,12.517z M14.059,2.017l-6.071,4.87l-6.072-4.87H14.059z
		 M15.846,11.16c-0.201-0.203-0.525-0.203-0.727,0l-2.635,2.665l-1.605-1.624c-0.199-0.203-0.525-0.203-0.727,0
		s-0.201,0.532,0,0.735l1.881,1.903c0.123,0.125,0.293,0.163,0.451,0.135c0.16,0.028,0.33-0.01,0.453-0.135l2.908-2.944
		C16.047,11.693,16.047,11.363,15.846,11.16z"/>
</g>
<g id="Layer_1">
</g>
</svg>
