<?xml version="1.0" encoding="iso-8859-1"?>
<!-- Generator: Adobe Illustrator 16.0.0, SVG Export Plug-In . SVG Version: 6.00 Build 0)  -->
<!DOCTYPE svg PUBLIC "-//W3C//DTD SVG 1.1//EN" "http://www.w3.org/Graphics/SVG/1.1/DTD/svg11.dtd">
<svg version="1.1" xmlns="http://www.w3.org/2000/svg" xmlns:xlink="http://www.w3.org/1999/xlink" x="0px" y="0px" width="16px"
	 height="16px" viewBox="0 0 16 16" style="enable-background:new 0 0 16 16;" xml:space="preserve">
<g id="_x32_4-communication_-__email_envelope_delete_minus" style="enable-background:new    ;">
	<path d="M15.5,13.501h-4.014c-0.277,0-0.502,0.223-0.502,0.499s0.225,0.5,0.502,0.5H15.5c0.277,0,0.502-0.224,0.502-0.5
		S15.777,13.501,15.5,13.501z M14.988,10.502h0.998V2c0-0.272-0.219-0.493-0.492-0.498c-0.012,0-0.021-0.002-0.035-0.002H0.503
		c-0.02,0-0.034,0.009-0.054,0.01C0.348,1.521,0.256,1.56,0.182,1.621C0.17,1.631,0.153,1.627,0.141,1.638
		c-0.009,0.01-0.005,0.023-0.013,0.033C0.055,1.752,0.01,1.856,0.003,1.972C0.003,1.979,0,1.983,0,1.99C0,1.994-0.002,1.997-0.002,2
		v12c0,0.276,0.224,0.5,0.5,0.5h7.5v-1H1.495c-0.275,0-0.5-0.224-0.5-0.5V3.018l6.619,5.309c0.007,0.008,0.004,0.019,0.011,0.026
		c0.099,0.099,0.229,0.143,0.357,0.14c0.13,0.003,0.259-0.041,0.358-0.14c0.006-0.008,0.004-0.019,0.01-0.026l6.638-5.324V10.502z
		 M7.982,7.37L1.911,2.5h12.142L7.982,7.37z"/>
</g>
<g id="Layer_1">
</g>
</svg>
