<?xml version="1.0" encoding="iso-8859-1"?>
<!-- Generator: Adobe Illustrator 16.0.0, SVG Export Plug-In . SVG Version: 6.00 Build 0)  -->
<!DOCTYPE svg PUBLIC "-//W3C//DTD SVG 1.1//EN" "http://www.w3.org/Graphics/SVG/1.1/DTD/svg11.dtd">
<svg version="1.1" xmlns="http://www.w3.org/2000/svg" xmlns:xlink="http://www.w3.org/1999/xlink" x="0px" y="0px" width="16px"
	 height="16px" viewBox="0 0 16 16" style="enable-background:new 0 0 16 16;" xml:space="preserve">
<g id="_x32_7-communication_-_email_envelope" style="enable-background:new    ;">
	<path d="M2,9.5h7V8.499H2V9.5z M2,11.5h7v-1H2V11.5z M15,1.5H1c-0.553,0-1,0.447-1,1v11c0,0.552,0.447,1,1,1h14
		c0.553,0,1-0.448,1-1v-11C16,1.947,15.553,1.5,15,1.5z M15,13c0,0.276-0.225,0.5-0.5,0.5h-13C1.224,13.5,1,13.276,1,13V3
		c0-0.276,0.224-0.5,0.5-0.5h13C14.775,2.5,15,2.724,15,3V13z M10,7.5h4v-4h-4V7.5z M11,4.5h2v2h-2V4.5z"/>
</g>
<g id="Layer_1">
</g>
</svg>
