<?xml version="1.0" encoding="iso-8859-1"?>
<!-- Generator: Adobe Illustrator 16.0.0, SVG Export Plug-In . SVG Version: 6.00 Build 0)  -->
<!DOCTYPE svg PUBLIC "-//W3C//DTD SVG 1.1//EN" "http://www.w3.org/Graphics/SVG/1.1/DTD/svg11.dtd">
<svg version="1.1" xmlns="http://www.w3.org/2000/svg" xmlns:xlink="http://www.w3.org/1999/xlink" x="0px" y="0px" width="16px"
	 height="16px" viewBox="0 0 16 16" style="enable-background:new 0 0 16 16;" xml:space="preserve">
<g id="_x33_4-communication_-_phone_call" style="enable-background:new    ;">
	<path d="M15.762,2.34c-0.018-0.023-1.695-2.372-2.668-2.341c-2.73,0.087-5.939,2.73-8.151,4.933s-4.866,5.398-4.954,8.13v0.022
		c0,0.956,2.328,2.637,2.351,2.652c0.632,0.442,1.329,0.28,1.611-0.121c0.172-0.244,1.957-2.917,2.158-3.244
		c0.087-0.144,0.13-0.316,0.13-0.507c0-0.244-0.071-0.514-0.211-0.778c-0.136-0.258-0.581-1.037-0.8-1.418
		C5.466,9.333,6.072,8.544,7.322,7.3c1.239-1.235,2.038-1.845,2.377-2.082c0.383,0.218,1.164,0.66,1.422,0.795
		c0.484,0.255,0.971,0.284,1.297,0.077c0.309-0.194,2.971-1.965,3.225-2.147c0.24-0.172,0.369-0.48,0.369-0.815
		C16.012,2.863,15.932,2.583,15.762,2.34z M15.037,3.168c-0.41,0.28-2.699,1.788-3.127,2.062c-0.045,0-0.16-0.015-0.324-0.101
		c-0.174-0.091-0.682-0.374-1.391-0.777L9.643,4.037l-0.52,0.364c-0.387,0.271-1.229,0.917-2.51,2.192
		C5.327,7.875,4.68,8.711,4.409,9.095L4.043,9.613l0.316,0.55c0.306,0.533,0.672,1.178,0.783,1.387
		c0.089,0.169,0.096,0.283,0.096,0.314c0,0.005,0,0.01,0,0.013c-0.241,0.382-1.794,2.713-2.077,3.124
		c-0.04,0.007-0.127,0-0.236-0.075c-0.88-0.633-1.799-1.531-1.931-1.883c0.088-1.872,1.74-4.499,4.659-7.406
		c2.919-2.906,5.554-4.552,7.427-4.638c0.354,0.126,1.262,1.041,1.893,1.91c0.045,0.064,0.07,0.144,0.07,0.218
		C15.041,3.144,15.039,3.157,15.037,3.168z"/>
</g>
<g id="Layer_1">
</g>
</svg>
