<?xml version="1.0" encoding="iso-8859-1"?>
<!-- Generator: Adobe Illustrator 16.0.0, SVG Export Plug-In . SVG Version: 6.00 Build 0)  -->
<!DOCTYPE svg PUBLIC "-//W3C//DTD SVG 1.1//EN" "http://www.w3.org/Graphics/SVG/1.1/DTD/svg11.dtd">
<svg version="1.1" xmlns="http://www.w3.org/2000/svg" xmlns:xlink="http://www.w3.org/1999/xlink" x="0px" y="0px" width="16px"
	 height="16px" viewBox="0 0 16 16" style="enable-background:new 0 0 16 16;" xml:space="preserve">
<g id="_x33_5-communication_-_bell_notification" style="enable-background:new    ;">
	<path d="M14,12.5h-0.5v-7c0-2.21-1.791-4-4-4H9c0-0.552-0.447-1-1-1C7.448,0.5,7,0.948,7,1.5H6.5c-2.209,0-4,1.79-4,4v7H2
		c-0.276,0-0.5,0.224-0.5,0.5c0,0.275,0.224,0.5,0.5,0.5h3.5h1.101h2.797H10.5H14c0.275,0,0.5-0.225,0.5-0.5
		C14.5,12.724,14.275,12.5,14,12.5z M12.5,12.5h-9v-7c0-1.657,1.343-3,3-3h3c1.656,0,3,1.343,3,3V12.5z M8,15.5
		c0.651,0,1.192-0.421,1.399-1H6.601C6.808,15.079,7.349,15.5,8,15.5z"/>
</g>
<g id="Layer_1">
</g>
</svg>
