<?xml version="1.0" encoding="iso-8859-1"?>
<!-- Generator: Adobe Illustrator 16.0.0, SVG Export Plug-In . SVG Version: 6.00 Build 0)  -->
<!DOCTYPE svg PUBLIC "-//W3C//DTD SVG 1.1//EN" "http://www.w3.org/Graphics/SVG/1.1/DTD/svg11.dtd">
<svg version="1.1" xmlns="http://www.w3.org/2000/svg" xmlns:xlink="http://www.w3.org/1999/xlink" x="0px" y="0px" width="16px"
	 height="16px" viewBox="0 0 16 16" style="enable-background:new 0 0 16 16;" xml:space="preserve">
<g id="_x31_8-communication_-_broadcast_megaphone" style="enable-background:new    ;">
	<path d="M11.873,3H8H4C1.792,3,0,4.791,0,7c0,1.918,1.351,3.516,3.15,3.906L4,16l4-2l-0.75-3H8h3.875L16,14V0L11.873,3z M5,14.5
		L4,11h2l1,2.5L5,14.5z M11,10H8v0.001H4c-1.657,0-3-1.344-3-3.001c0-1.656,1.343-2.999,3-2.999h4V4h3V10z M15,12l-3-2.143V4.143
		l3-2.144V12z"/>
</g>
<g id="Layer_1">
</g>
</svg>
