<?xml version="1.0" encoding="iso-8859-1"?>
<!-- Generator: Adobe Illustrator 16.0.0, SVG Export Plug-In . SVG Version: 6.00 Build 0)  -->
<!DOCTYPE svg PUBLIC "-//W3C//DTD SVG 1.1//EN" "http://www.w3.org/Graphics/SVG/1.1/DTD/svg11.dtd">
<svg version="1.1" xmlns="http://www.w3.org/2000/svg" xmlns:xlink="http://www.w3.org/1999/xlink" x="0px" y="0px" width="16px"
	 height="16px" viewBox="0 0 16 16" style="enable-background:new 0 0 16 16;" xml:space="preserve">
<g id="_x33_8-communication_-_pictures_frame_image" style="enable-background:new    ;">
	<path d="M1,11.5v-9C1,2.224,1.224,2,1.5,2h11C12.775,2,13,2.224,13,2.5V3h1V2c0-0.552-0.447-1-1-1H1C0.448,1,0,1.448,0,2v10
		c0,0.551,0.447,1,1,1h1v-1H1.5C1.224,12,1,11.775,1,11.5z M15,4H4C3.448,4,3,4.448,3,5v9c0,0.551,0.447,1,1,1h1.254h0.001h0.001H15
		c0.553,0,1-0.449,1-1V5C16,4.448,15.553,4,15,4z M15,13.5c0,0.275-0.225,0.5-0.5,0.5H6.254l3.013-3.021l1.932,2.023l0.092-0.008
		l1.936-2.021L16,13.492l-1-1.254V13.5z M15,11.254l-1.699-1.756l-0.027,0.027l-0.02-0.018l-1.998,2.035L9.244,9.498L9.223,9.52
		L9.207,9.504L4.755,14H4.5C4.224,14,4,13.775,4,13.5v-8C4,5.224,4.224,5,4.5,5h10C14.775,5,15,5.224,15,5.5V11.254z M6.5,7
		C5.671,7,5,7.671,5,8.5C5,9.328,5.671,10,6.5,10C7.329,10,8,9.328,8,8.5C8,7.671,7.329,7,6.5,7z M6.5,9C6.224,9,6,8.775,6,8.5
		C6,8.223,6.224,8,6.5,8C6.776,8,7,8.223,7,8.5C7,8.775,6.776,9,6.5,9z"/>
</g>
<g id="Layer_1">
</g>
</svg>
