<?xml version="1.0" encoding="iso-8859-1"?>
<!-- Generator: Adobe Illustrator 16.0.0, SVG Export Plug-In . SVG Version: 6.00 Build 0)  -->
<!DOCTYPE svg PUBLIC "-//W3C//DTD SVG 1.1//EN" "http://www.w3.org/Graphics/SVG/1.1/DTD/svg11.dtd">
<svg version="1.1" xmlns="http://www.w3.org/2000/svg" xmlns:xlink="http://www.w3.org/1999/xlink" x="0px" y="0px" width="16px"
	 height="16px" viewBox="0 0 16 16" style="enable-background:new 0 0 16 16;" xml:space="preserve">
<g id="_x31_4-communication_-_bubble_chat_group_conversation" style="enable-background:new    ;">
	<path d="M11,12.66c0,0.188-0.16,0.34-0.357,0.34H7.498L6,14.496L4.502,13H1.357C1.16,13,1,12.848,1,12.66V5.339
		C1,5.15,1.16,4.998,1.357,4.998H3v-1H1.125C0.503,3.998,0,4.489,0,5.095v7.808C0,13.508,0.503,14,1.125,14h2.87l0,0L6,16.002
		L8.006,14H8.004h2.871C11.496,14,12,13.508,12,12.902v-0.904h-1V12.66z M14.875-0.002h-9.75C4.503-0.002,4,0.489,4,1.095v7.808
		C4,9.508,4.503,10,5.125,10h2.871H7.996L10,12.002L12.006,10h-0.002h2.871C15.496,10,16,9.508,16,8.902V1.095
		C16,0.489,15.496-0.002,14.875-0.002z M15,8.66C15,8.848,14.84,9,14.643,9h-3.145L10,10.496L8.502,9H5.357C5.16,9,5,8.848,5,8.66
		V1.338C5,1.15,5.16,0.997,5.357,0.997h9.286C14.84,0.997,15,1.15,15,1.338V8.66z"/>
</g>
<g id="Layer_1">
</g>
</svg>
