<?xml version="1.0" encoding="iso-8859-1"?>
<!-- Generator: Adobe Illustrator 16.0.0, SVG Export Plug-In . SVG Version: 6.00 Build 0)  -->
<!DOCTYPE svg PUBLIC "-//W3C//DTD SVG 1.1//EN" "http://www.w3.org/Graphics/SVG/1.1/DTD/svg11.dtd">
<svg version="1.1" xmlns="http://www.w3.org/2000/svg" xmlns:xlink="http://www.w3.org/1999/xlink" x="0px" y="0px" width="16px"
	 height="16px" viewBox="0 0 16 16" style="enable-background:new 0 0 16 16;" xml:space="preserve">
<g id="_x31_3-communication_-_bubble_chat_group_conversation" style="enable-background:new    ;">
	<path d="M10.875,3.998h-9.75C0.503,3.998,0,4.489,0,5.095v7.808C0,13.508,0.503,14,1.125,14h2.87l0,0L6,16.002L8.006,14H8.004
		h2.871C11.496,14,12,13.508,12,12.902V5.095C12,4.489,11.496,3.998,10.875,3.998z M11,12.66c0,0.188-0.16,0.34-0.357,0.34H7.498
		L6,14.496L4.502,13H1.357C1.16,13,1,12.848,1,12.66V5.339C1,5.15,1.16,4.998,1.357,4.998h9.286C10.84,4.998,11,5.15,11,5.339V12.66
		z M14.875-0.002h-9.75C4.503-0.002,4,0.49,4,1.099v1.899h1V1.339C5,1.15,5.16,0.998,5.357,0.998h9.286
		C14.84,0.998,15,1.15,15,1.339V8.66C15,8.848,14.84,9,14.643,9H13v0.998h2c0.621,0,1-0.459,1-1.068V1.099
		C16,0.49,15.496-0.002,14.875-0.002z"/>
</g>
<g id="Layer_1">
</g>
</svg>
