<?xml version="1.0" encoding="iso-8859-1"?>
<!-- Generator: Adobe Illustrator 16.0.0, SVG Export Plug-In . SVG Version: 6.00 Build 0)  -->
<!DOCTYPE svg PUBLIC "-//W3C//DTD SVG 1.1//EN" "http://www.w3.org/Graphics/SVG/1.1/DTD/svg11.dtd">
<svg version="1.1" xmlns="http://www.w3.org/2000/svg" xmlns:xlink="http://www.w3.org/1999/xlink" x="0px" y="0px" width="16px"
	 height="16px" viewBox="0 0 16 16" style="enable-background:new 0 0 16 16;" xml:space="preserve">
<g id="_x34_-communication_-_bubble_chat_talk_conversation" style="enable-background:new    ;">
	<path d="M13,0H3C1.343,0,0,1.343,0,3v6.5C0,11.156,1.343,12,3,12h6l4,4v-4c1.656,0,3-0.844,3-2.5V3C16,1.343,14.656,0,13,0z
		 M15,9.5c0,1.104-0.896,1.5-2,1.5h-1v2.5L9.5,11H3c-1.104,0-2-0.396-2-1.5V3c0-1.105,0.896-2,2-2h10c1.104,0,2,0.895,2,2V9.5z"/>
</g>
<g id="Layer_1">
</g>
</svg>
