<?xml version="1.0" encoding="iso-8859-1"?>
<!-- Generator: Adobe Illustrator 16.0.0, SVG Export Plug-In . SVG Version: 6.00 Build 0)  -->
<!DOCTYPE svg PUBLIC "-//W3C//DTD SVG 1.1//EN" "http://www.w3.org/Graphics/SVG/1.1/DTD/svg11.dtd">
<svg version="1.1" xmlns="http://www.w3.org/2000/svg" xmlns:xlink="http://www.w3.org/1999/xlink" x="0px" y="0px" width="16px"
	 height="16px" viewBox="0 0 16 16" style="enable-background:new 0 0 16 16;" xml:space="preserve">
<g id="_x32_8-communication_-_letter_feather_pen" style="enable-background:new    ;">
	<path d="M15.918,0.076c0,0-6.281-0.698-9.072,2.097c-2.628,2.632-3.807,6.307-2.191,8.479l-4.647,4.651l0.698,0.699l4.646-4.651
		c2.169,1.62,5.843,0.441,8.472-2.191c0.115-0.115,0.428-0.548,0.428-0.548c0.086-0.117,0.328-0.82,0.328-0.82l-1.453-0.729
		l2.012-0.672l0.439-0.726C16.232,2.943,15.918,0.076,15.918,0.076z M5.317,6.231l0.831,0.832l0.698-0.698l-1.088-1.09
		c0.159-0.293,0.331-0.584,0.527-0.87l1.259,1.261l0.698-0.698l-1.358-1.36c0.209-0.251,0.425-0.5,0.66-0.736
		c2.14-2.143,5.468-2.082,6.833-1.952l-9.02,9.03C4.713,8.979,4.774,7.625,5.317,6.231z M14.748,5.59l-3.367,1.124L13.35,8.19
		c-0.072,0.092-0.139,0.185-0.223,0.27c-2.244,2.247-5.302,3.37-7.072,2.187l9.023-9.032C15.158,2.445,15.203,4.009,14.748,5.59z"/>
</g>
<g id="Layer_1">
</g>
</svg>
