<?xml version="1.0" encoding="iso-8859-1"?>
<!-- Generator: Adobe Illustrator 16.0.0, SVG Export Plug-In . SVG Version: 6.00 Build 0)  -->
<!DOCTYPE svg PUBLIC "-//W3C//DTD SVG 1.1//EN" "http://www.w3.org/Graphics/SVG/1.1/DTD/svg11.dtd">
<svg version="1.1" xmlns="http://www.w3.org/2000/svg" xmlns:xlink="http://www.w3.org/1999/xlink" x="0px" y="0px" width="16px"
	 height="16px" viewBox="0 0 16 16" style="enable-background:new 0 0 16 16;" xml:space="preserve">
<g id="_x32_9-communication_-_fountain_pen_messages" style="enable-background:new    ;">
	<path d="M12.5,13h-1l2-4L8,0L2.5,9l2,4h-1c-0.553,0-1,0.447-1,1v1c0,0.552,0.447,1,1,1h9c0.553,0,1-0.448,1-1v-1
		C13.5,13.447,13.053,13,12.5,13z M3.5,9l4-6.667V5h1V2.321l4,6.571L10.49,13H5.5L3.5,9z M12,15H4c-0.276,0-0.5-0.224-0.5-0.5
		S3.724,14,4,14h8c0.275,0,0.5,0.224,0.5,0.5S12.275,15,12,15z M8,12c1.381,0,2.5-1.12,2.5-2.501s-1.119-2.5-2.5-2.5
		c-1.38,0-2.499,1.119-2.499,2.5S6.62,12,8,12z M8,7.999c0.829,0,1.5,0.672,1.5,1.5s-0.671,1.5-1.5,1.5
		c-0.828,0-1.499-0.672-1.499-1.5S7.171,7.999,8,7.999z"/>
</g>
<g id="Layer_1">
</g>
</svg>
