<?xml version="1.0" encoding="iso-8859-1"?>
<!-- Generator: Adobe Illustrator 16.0.0, SVG Export Plug-In . SVG Version: 6.00 Build 0)  -->
<!DOCTYPE svg PUBLIC "-//W3C//DTD SVG 1.1//EN" "http://www.w3.org/Graphics/SVG/1.1/DTD/svg11.dtd">
<svg version="1.1" xmlns="http://www.w3.org/2000/svg" xmlns:xlink="http://www.w3.org/1999/xlink" x="0px" y="0px" width="16px"
	 height="16px" viewBox="0 0 16 16" style="enable-background:new 0 0 16 16;" xml:space="preserve">
<g id="_x31_6-communication_-_bubble_help_question_support" style="enable-background:new    ;">
	<path d="M7.746,9.795c-0.326,0-0.599,0.273-0.599,0.602c0,0.326,0.272,0.6,0.599,0.6c0.327,0,0.599-0.273,0.599-0.6
		C8.344,10.068,8.073,9.795,7.746,9.795z M8,0C3.582,0,0,3.134,0,7c0,2.209,1.173,4.178,3,5.461V16l4.096-2.047
		C7.393,13.982,7.694,14,8,14c4.417,0,8-3.133,8-7C16,3.134,12.418,0,8,0z M8,13c-0.463,0-1,0.002-1,0.002L4,14.5V12
		c0,0-3-2.789-3-5c0-3.313,3.134-6,7-6c3.865,0,7,2.687,7,6C15,10.314,11.865,13,8,13z M7.866,3.5c-1.034,0-1.84,0.425-2.362,1.112
		l0.544,0.589C6.451,4.656,6.962,4.307,7.79,4.307c0.85,0,1.273,0.47,1.273,1.015c0,1.157-1.959,1.266-1.959,2.651
		c0,0.34,0.12,0.645,0.414,0.895l0.665-0.293c-0.186-0.131-0.284-0.35-0.284-0.523C7.898,6.979,10,6.838,10,5.19
		C10,4.252,9.193,3.5,7.866,3.5z"/>
</g>
<g id="Layer_1">
</g>
</svg>
