<?xml version="1.0" encoding="iso-8859-1"?>
<!-- Generator: Adobe Illustrator 16.0.0, SVG Export Plug-In . SVG Version: 6.00 Build 0)  -->
<!DOCTYPE svg PUBLIC "-//W3C//DTD SVG 1.1//EN" "http://www.w3.org/Graphics/SVG/1.1/DTD/svg11.dtd">
<svg version="1.1" xmlns="http://www.w3.org/2000/svg" xmlns:xlink="http://www.w3.org/1999/xlink" x="0px" y="0px" width="16px"
	 height="16px" viewBox="0 0 16 16" style="enable-background:new 0 0 16 16;" xml:space="preserve">
<g id="_x32_1-communication_-_email_envelope_mail" style="enable-background:new    ;">
	<path d="M8,0L0,5v11h16V5L8,0z M8,1l6.794,4.368l-7.021,5.325L5.993,9.257l0.004-0.005L5.175,8.597L1.189,5.379L8,1z M1,6.527
		l3.554,2.868L1,13.966V6.527z M1.527,15l3.845-4.944l2.117,1.708l0.233,0.233l0.029-0.021l0.026,0.021l0.176-0.175L10.5,9.891
		L14.473,15H1.527z M15,13.966l-3.662-4.71L15,6.479V13.966z"/>
</g>
<g id="Layer_1">
</g>
</svg>
