<?xml version="1.0" encoding="iso-8859-1"?>
<!-- Generator: Adobe Illustrator 16.0.0, SVG Export Plug-In . SVG Version: 6.00 Build 0)  -->
<!DOCTYPE svg PUBLIC "-//W3C//DTD SVG 1.1//EN" "http://www.w3.org/Graphics/SVG/1.1/DTD/svg11.dtd">
<svg version="1.1" xmlns="http://www.w3.org/2000/svg" xmlns:xlink="http://www.w3.org/1999/xlink" x="0px" y="0px" width="16px"
	 height="16px" viewBox="0 0 16 16" style="enable-background:new 0 0 16 16;" xml:space="preserve">
<g id="_x33_0-communication_-_email_send_contact" style="enable-background:new    ;">
	<path d="M15.887,0.221c-0.014-0.021-0.031-0.039-0.049-0.058c-0.02-0.018-0.037-0.036-0.059-0.051
		c-0.121-0.094-0.275-0.138-0.432-0.096L0.381,7.443c-0.009,0.003-0.015,0.01-0.024,0.012C0.194,7.502,0.058,7.622,0.014,7.799
		c-0.022,0.089-0.012,0.177,0.012,0.261c0.001,0.002,0,0.005,0,0.007c0.002,0.006,0.006,0.011,0.008,0.017
		c0.017,0.051,0.038,0.098,0.069,0.142c0.016,0.022,0.034,0.04,0.052,0.06c0.025,0.026,0.051,0.051,0.082,0.071
		c0.026,0.018,0.053,0.029,0.082,0.042c0.023,0.011,0.043,0.027,0.068,0.034l4.539,2.164l2.641,5.017
		c0.007,0.025,0.024,0.045,0.035,0.069c0.012,0.027,0.024,0.055,0.041,0.08c0.021,0.031,0.046,0.057,0.072,0.082
		c0.02,0.019,0.037,0.036,0.06,0.052c0.043,0.031,0.091,0.053,0.142,0.069c0.006,0.002,0.01,0.007,0.016,0.008
		c0.002,0.001,0.005,0,0.007,0.001c0.084,0.023,0.172,0.034,0.261,0.012c0.177-0.044,0.297-0.181,0.344-0.343
		c0.003-0.009,0.01-0.016,0.013-0.024l7.425-14.966C16.025,0.496,15.98,0.341,15.887,0.221z M1.652,7.931l11.161-5.538L5.189,9.616
		L1.652,7.931z M8.044,14.397L5.9,10.323l7.861-7.45L8.044,14.397z"/>
</g>
<g id="Layer_1">
</g>
</svg>
