<?xml version="1.0" encoding="iso-8859-1"?>
<!-- Generator: Adobe Illustrator 16.0.0, SVG Export Plug-In . SVG Version: 6.00 Build 0)  -->
<!DOCTYPE svg PUBLIC "-//W3C//DTD SVG 1.1//EN" "http://www.w3.org/Graphics/SVG/1.1/DTD/svg11.dtd">
<svg version="1.1" xmlns="http://www.w3.org/2000/svg" xmlns:xlink="http://www.w3.org/1999/xlink" x="0px" y="0px" width="16px"
	 height="16px" viewBox="0 0 16 16" style="enable-background:new 0 0 16 16;" xml:space="preserve">
<g id="_x36_-communication_-_bubble_chat_talk_conversation_more" style="enable-background:new    ;">
	<path d="M4,5C3.448,5,3,5.447,3,6s0.447,1,1,1c0.552,0,1-0.447,1-1S4.552,5,4,5z M8,5C7.448,5,7,5.447,7,6s0.447,1,1,1s1-0.447,1-1
		S8.553,5,8,5z M12,5c-0.553,0-1,0.447-1,1s0.447,1,1,1s1-0.447,1-1S12.553,5,12,5z M13,0H3C1.343,0,0,1.343,0,3v6.5
		C0,11.156,1.343,12,3,12h6l4,4v-4c1.656,0,3-0.844,3-2.5V3C16,1.343,14.656,0,13,0z M15,9.5c0,1.104-0.895,1.5-2,1.5h-1v2.5L9.5,11
		H3c-1.104,0-2-0.396-2-1.5V3c0-1.105,0.896-2,2-2h10c1.105,0,2,0.895,2,2V9.5z"/>
</g>
<g id="Layer_1">
</g>
</svg>
