<?xml version="1.0" encoding="iso-8859-1"?>
<!-- Generator: Adobe Illustrator 16.0.0, SVG Export Plug-In . SVG Version: 6.00 Build 0)  -->
<!DOCTYPE svg PUBLIC "-//W3C//DTD SVG 1.1//EN" "http://www.w3.org/Graphics/SVG/1.1/DTD/svg11.dtd">
<svg version="1.1" xmlns="http://www.w3.org/2000/svg" xmlns:xlink="http://www.w3.org/1999/xlink" x="0px" y="0px" width="16px"
	 height="16px" viewBox="0 0 16 16" style="enable-background:new 0 0 16 16;" xml:space="preserve">
<g id="_x32_5-communication_-__email_envelope_add_plus" style="enable-background:new    ;">
	<path d="M15.5,12.5h-1.504V11c0-0.275-0.225-0.5-0.502-0.5s-0.502,0.225-0.502,0.5v1.5h-1.506c-0.277,0-0.502,0.225-0.502,0.5
		c0,0.277,0.225,0.5,0.502,0.5h1.506V15c0,0.277,0.225,0.5,0.502,0.5s0.502-0.223,0.502-0.5v-1.5H15.5
		c0.277,0,0.502-0.223,0.502-0.5C16.002,12.725,15.777,12.5,15.5,12.5z M14.988,9.502h0.998V1c0-0.272-0.219-0.492-0.492-0.498
		c-0.012,0-0.021-0.002-0.035-0.002H0.503c-0.02,0-0.034,0.009-0.054,0.01C0.348,0.521,0.256,0.56,0.182,0.621
		C0.17,0.631,0.153,0.627,0.141,0.638c-0.009,0.01-0.005,0.023-0.014,0.033C0.055,0.752,0.01,0.856,0.003,0.972
		C0.003,0.979,0,0.983,0,0.99C0,0.994-0.002,0.997-0.002,1v12c0,0.277,0.224,0.5,0.5,0.5h7.5v-1H1.495
		c-0.275,0-0.499-0.223-0.499-0.5V2.018l6.618,5.309c0.007,0.008,0.004,0.019,0.011,0.026c0.099,0.099,0.229,0.143,0.357,0.14
		c0.13,0.003,0.259-0.041,0.358-0.14c0.006-0.007,0.004-0.019,0.01-0.026l6.638-5.324V9.502z M7.982,6.37L1.911,1.501h12.142
		L7.982,6.37z"/>
</g>
<g id="Layer_1">
</g>
</svg>
