<?xml version="1.0" encoding="iso-8859-1"?>
<!-- Generator: Adobe Illustrator 16.0.0, SVG Export Plug-In . SVG Version: 6.00 Build 0)  -->
<!DOCTYPE svg PUBLIC "-//W3C//DTD SVG 1.1//EN" "http://www.w3.org/Graphics/SVG/1.1/DTD/svg11.dtd">
<svg version="1.1" xmlns="http://www.w3.org/2000/svg" xmlns:xlink="http://www.w3.org/1999/xlink" x="0px" y="0px" width="16px"
	 height="16px" viewBox="0 0 16 16" style="enable-background:new 0 0 16 16;" xml:space="preserve">
<g id="_x32_0-communication_-_voicemail" style="enable-background:new    ;">
	<path d="M12.5,4.5C10.566,4.5,9,6.067,9,8c0,0.98,0.406,1.864,1.057,2.5H5.944C6.594,9.864,7,8.98,7,8c0-1.933-1.567-3.5-3.5-3.5
		C1.567,4.5,0,6.067,0,8s1.566,3.5,3.5,3.5h9c1.934,0,3.5-1.567,3.5-3.5S14.434,4.5,12.5,4.5z M3.5,10.5C2.12,10.5,1,9.381,1,8
		S2.12,5.5,3.5,5.5S6,6.619,6,8S4.881,10.5,3.5,10.5z M12.5,10.5C11.119,10.5,10,9.381,10,8s1.119-2.5,2.5-2.5S15,6.619,15,8
		S13.881,10.5,12.5,10.5z"/>
</g>
<g id="Layer_1">
</g>
</svg>
