<?xml version="1.0" encoding="iso-8859-1"?>
<!-- Generator: Adobe Illustrator 16.0.0, SVG Export Plug-In . SVG Version: 6.00 Build 0)  -->
<!DOCTYPE svg PUBLIC "-//W3C//DTD SVG 1.1//EN" "http://www.w3.org/Graphics/SVG/1.1/DTD/svg11.dtd">
<svg version="1.1" xmlns="http://www.w3.org/2000/svg" xmlns:xlink="http://www.w3.org/1999/xlink" x="0px" y="0px" width="16px"
	 height="16px" viewBox="0 0 16 16" style="enable-background:new 0 0 16 16;" xml:space="preserve">
<g id="_x31_2-communication_-_bubble_chat_group_conversation" style="enable-background:new    ;">
	<path d="M13,0H5C3.343,0,2,1.343,2,3v4c0,1.657,1.343,3,3,3h4.25L13,13v-3l0,0c1.656,0,3-1.343,3-3V3C16,1.343,14.656,0,13,0z
		 M15,7c0,1.104-0.895,2-2,2h-1v2L9.332,9H5C3.896,9,3,8.104,3,7V3c0-1.104,0.896-2,2-2h8c1.105,0,2,0.896,2,2V7z M4,14v-2H3
		c-0.775,0-1.44-0.446-1.772-1.092C1.094,10.818,1,10.673,1,10.5V10V6V3.778C0.39,4.327,0,5.115,0,6v4c0,1.656,1.343,3,3,3v3l3.75-3
		H9v-1H6.667L4,14z"/>
</g>
<g id="Layer_1">
</g>
</svg>
