<?xml version="1.0" encoding="iso-8859-1"?>
<!-- Generator: Adobe Illustrator 16.0.0, SVG Export Plug-In . SVG Version: 6.00 Build 0)  -->
<!DOCTYPE svg PUBLIC "-//W3C//DTD SVG 1.1//EN" "http://www.w3.org/Graphics/SVG/1.1/DTD/svg11.dtd">
<svg version="1.1" xmlns="http://www.w3.org/2000/svg" xmlns:xlink="http://www.w3.org/1999/xlink" x="0px" y="0px" width="16px"
	 height="16px" viewBox="0 0 16 16" style="enable-background:new 0 0 16 16;" xml:space="preserve">
<g id="_x32_2-communication_-_email_envelope_delete_cross" style="enable-background:new    ;">
	<path d="M15.504,1.01c-0.014,0-0.023-0.002-0.035-0.002H0.512c-0.02,0-0.035,0.009-0.055,0.01C0.356,1.028,0.265,1.067,0.19,1.129
		c-0.012,0.01-0.03,0.006-0.041,0.017c-0.009,0.01-0.005,0.023-0.014,0.033C0.063,1.26,0.019,1.364,0.012,1.479
		c0,0.007-0.004,0.012-0.004,0.019c0,0.004-0.002,0.007-0.002,0.01v12c0,0.277,0.224,0.5,0.5,0.5h7.501v-1H1.503
		c-0.276,0-0.5-0.223-0.5-0.5V2.525l6.619,5.309C7.628,7.842,7.625,7.853,7.632,7.86C7.731,7.959,7.861,8.003,7.99,8
		C8.12,8.003,8.25,7.959,8.348,7.86c0.007-0.007,0.004-0.019,0.011-0.026l6.639-5.324v7.5h0.996V1.508
		C15.994,1.235,15.775,1.016,15.504,1.01z M7.99,6.878L1.919,2.009h12.141L7.99,6.878z M14.82,11.152
		c-0.203-0.203-0.533-0.203-0.736,0l-1.605,1.609l-1.604-1.609c-0.203-0.203-0.533-0.203-0.736,0c-0.205,0.205-0.205,0.535,0,0.74
		l1.604,1.607l-1.604,1.607c-0.205,0.205-0.205,0.535,0,0.74c0.203,0.203,0.533,0.203,0.736,0l1.604-1.609l1.605,1.609
		c0.203,0.203,0.533,0.203,0.736,0c0.203-0.205,0.203-0.535,0-0.74L13.217,13.5l1.604-1.607
		C15.023,11.688,15.023,11.357,14.82,11.152z"/>
</g>
<g id="Layer_1">
</g>
</svg>
