<?xml version="1.0" encoding="iso-8859-1"?>
<!-- Generator: Adobe Illustrator 16.0.0, SVG Export Plug-In . SVG Version: 6.00 Build 0)  -->
<!DOCTYPE svg PUBLIC "-//W3C//DTD SVG 1.1//EN" "http://www.w3.org/Graphics/SVG/1.1/DTD/svg11.dtd">
<svg version="1.1" xmlns="http://www.w3.org/2000/svg" xmlns:xlink="http://www.w3.org/1999/xlink" x="0px" y="0px" width="16px"
	 height="16px" viewBox="0 0 16 16" style="enable-background:new 0 0 16 16;" xml:space="preserve">
<g id="_x31_7-communication_-_broadcast_megaphone" style="enable-background:new    ;">
	<path d="M11.875,3H11c0,0-0.322,0-0.5,0H10H9H1.5C0.671,3,0,3.672,0,4.5v5C0,10.328,0.671,11,1.5,11h1.666L4,16l4-2l-0.75-3H9h1
		h0.5c0.178,0,0.5,0,0.5,0h0.875L16,14V0L11.875,3z M5,14.5L4,11h2l1,2.5L5,14.5z M9,10H2H1.5C1.224,10,1,9.776,1,9.5v-5
		C1,4.224,1.224,4,1.5,4H2h7V10z M11,10h-1V4h1V10z M15,12l-3-2.144V4.143l3-2.144V12z"/>
</g>
<g id="Layer_1">
</g>
</svg>
