<?xml version="1.0" encoding="iso-8859-1"?>
<!-- Generator: Adobe Illustrator 16.0.0, SVG Export Plug-In . SVG Version: 6.00 Build 0)  -->
<!DOCTYPE svg PUBLIC "-//W3C//DTD SVG 1.1//EN" "http://www.w3.org/Graphics/SVG/1.1/DTD/svg11.dtd">
<svg version="1.1" xmlns="http://www.w3.org/2000/svg" xmlns:xlink="http://www.w3.org/1999/xlink" x="0px" y="0px" width="16px"
	 height="16px" viewBox="0 0 16 16" style="enable-background:new 0 0 16 16;" xml:space="preserve">
<g id="_x33_9-communication_-_megaphone_broadcast_announcement" style="enable-background:new    ;">
	<path d="M15,1v1L1,4C0.448,4,0,4.447,0,5v5c0,0.552,0.447,1,1,1l2,0.286V13.5c0,0.019,0.009,0.035,0.011,0.054
		c0,0.004,0.002,0.008,0.002,0.012C3.047,13.81,3.248,14,3.5,14c0.003,0,0.006-0.002,0.01-0.002l3.839,0.987
		c0.037,0.01,0.074,0.005,0.111,0.007C7.474,14.993,7.486,15,7.5,15c0.007,0,0.014-0.004,0.021-0.004
		c0.032-0.003,0.062-0.011,0.092-0.02c0.039-0.009,0.076-0.019,0.111-0.036c0.015-0.008,0.026-0.019,0.04-0.027
		c0.041-0.026,0.079-0.055,0.11-0.092c0.011-0.012,0.018-0.026,0.026-0.039c0.028-0.04,0.052-0.083,0.067-0.131
		c0.002-0.005,0.006-0.009,0.008-0.014c0.003-0.011,0-0.021,0.002-0.032C7.987,14.57,8,14.537,8,14.5V12l7,1v1h1v-2V3V1H15z
		 M7,13.876l-3-0.771v-1.676l3,0.429V13.876z M15,11.5c0,0.276-0.225,0.5-0.5,0.5l-13-2C1.224,10,1,9.776,1,9.5v-4
		C1,5.225,1.224,5,1.5,5l13-2C14.775,3,15,3.224,15,3.5V11.5z"/>
</g>
<g id="Layer_1">
</g>
</svg>
