<?xml version="1.0" encoding="iso-8859-1"?>
<!-- Generator: Adobe Illustrator 16.0.0, SVG Export Plug-In . SVG Version: 6.00 Build 0)  -->
<!DOCTYPE svg PUBLIC "-//W3C//DTD SVG 1.1//EN" "http://www.w3.org/Graphics/SVG/1.1/DTD/svg11.dtd">
<svg version="1.1" xmlns="http://www.w3.org/2000/svg" xmlns:xlink="http://www.w3.org/1999/xlink" x="0px" y="0px" width="16px"
	 height="16px" viewBox="0 0 16 16" style="enable-background:new 0 0 16 16;" xml:space="preserve">
<g id="_x33_6-communication_-_bell_notification" style="enable-background:new    ;">
	<path d="M14.5,12h-1v-2V6c0-2.594-1.982-4.701-4.509-4.95C8.991,1.032,9,1.018,9,1c0-0.552-0.447-1-1-1C7.448,0,7,0.448,7,1
		c0,0.018,0.009,0.032,0.01,0.05C4.482,1.299,2.5,3.406,2.5,6v4v2h-1v1h4.05c-0.032,0.161-0.05,0.328-0.05,0.5
		C5.5,14.881,6.62,16,8,16c1.381,0,2.5-1.119,2.5-2.5c0-0.172-0.018-0.339-0.051-0.5H14.5V12z M8,15C7.171,15,6.5,14.328,6.5,13.5
		c0-0.178,0.044-0.343,0.101-0.5h2.797C9.455,13.157,9.5,13.322,9.5,13.5C9.5,14.328,8.829,15,8,15z M12.5,10v2h-0.297H3.797H3.5v-2
		V6c0-2.209,1.791-4,4-4h1c2.208,0,4,1.791,4,4V10z"/>
</g>
<g id="Layer_1">
</g>
</svg>
