<?xml version="1.0" encoding="iso-8859-1"?>
<!-- Generator: Adobe Illustrator 16.0.0, SVG Export Plug-In . SVG Version: 6.00 Build 0)  -->
<!DOCTYPE svg PUBLIC "-//W3C//DTD SVG 1.1//EN" "http://www.w3.org/Graphics/SVG/1.1/DTD/svg11.dtd">
<svg version="1.1" xmlns="http://www.w3.org/2000/svg" xmlns:xlink="http://www.w3.org/1999/xlink" x="0px" y="0px" width="16px"
	 height="16px" viewBox="0 0 16 16" style="enable-background:new 0 0 16 16;" xml:space="preserve">
<g id="_x38_-communication_-_bubble_chat_talk_conversation_line" style="enable-background:new    ;">
	<path d="M10.5,7.497h-5c-0.276,0-0.5,0.224-0.5,0.5c0,0.275,0.224,0.499,0.5,0.499h5c0.275,0,0.5-0.224,0.5-0.499
		C11,7.721,10.775,7.497,10.5,7.497z M12.5,4.496h-9C3.224,4.496,3,4.721,3,4.997c0,0.275,0.224,0.5,0.5,0.5h9
		c0.275,0,0.5-0.225,0.5-0.5C13,4.721,12.775,4.496,12.5,4.496z M14.5,0.497h-13c-0.829,0-1.5,0.672-1.5,1.5v10
		c0,0.828,0.671,1.5,1.5,1.5h4.493L8,15.503l2.005-2.006H14.5c0.828,0,1.5-0.672,1.5-1.5v-10C16,1.169,15.328,0.497,14.5,0.497z
		 M15,11.997c0,0.276-0.225,0.501-0.5,0.501H9.506L8,14.003l-1.506-1.505H1.5c-0.276,0-0.5-0.225-0.5-0.501v-10
		c0-0.276,0.224-0.5,0.5-0.5h13c0.275,0,0.5,0.224,0.5,0.5V11.997z"/>
</g>
<g id="Layer_1">
</g>
</svg>
