<?xml version="1.0" encoding="iso-8859-1"?>
<!-- Generator: Adobe Illustrator 16.0.0, SVG Export Plug-In . SVG Version: 6.00 Build 0)  -->
<!DOCTYPE svg PUBLIC "-//W3C//DTD SVG 1.1//EN" "http://www.w3.org/Graphics/SVG/1.1/DTD/svg11.dtd">
<svg version="1.1" xmlns="http://www.w3.org/2000/svg" xmlns:xlink="http://www.w3.org/1999/xlink" x="0px" y="0px" width="16px"
	 height="16px" viewBox="0 0 16 16" style="enable-background:new 0 0 16 16;" xml:space="preserve">
<g id="_x37_-communication_-_bubble_chat_talk_conversation" style="enable-background:new    ;">
	<path d="M14.5,0.497h-13c-0.829,0-1.5,0.672-1.5,1.5v10c0,0.828,0.671,1.5,1.5,1.5h4.493L8,15.503l2.005-2.006H14.5
		c0.828,0,1.5-0.672,1.5-1.5v-10C16,1.169,15.328,0.497,14.5,0.497z M15,11.997c0,0.276-0.225,0.501-0.5,0.501H9.506L8,14.003
		l-1.506-1.505H1.5c-0.276,0-0.5-0.225-0.5-0.501v-10c0-0.276,0.224-0.5,0.5-0.5h13c0.275,0,0.5,0.224,0.5,0.5V11.997z"/>
</g>
<g id="Layer_1">
</g>
</svg>
