<?xml version="1.0" encoding="iso-8859-1"?>
<!-- Generator: Adobe Illustrator 16.0.0, SVG Export Plug-In . SVG Version: 6.00 Build 0)  -->
<!DOCTYPE svg PUBLIC "-//W3C//DTD SVG 1.1//EN" "http://www.w3.org/Graphics/SVG/1.1/DTD/svg11.dtd">
<svg version="1.1" xmlns="http://www.w3.org/2000/svg" xmlns:xlink="http://www.w3.org/1999/xlink" x="0px" y="0px" width="16px"
	 height="16px" viewBox="0 0 16 16" style="enable-background:new 0 0 16 16;" xml:space="preserve">
<g id="_x35_-communication_-_bubble_chat_talk_conversation_line" style="enable-background:new    ;">
	<path d="M10.5,7h-5C5.224,7,5,7.224,5,7.5C5,7.775,5.224,8,5.5,8h5C10.775,8,11,7.775,11,7.5C11,7.224,10.775,7,10.5,7z M11.5,4h-7
		C4.224,4,4,4.224,4,4.5C4,4.775,4.224,5,4.5,5h7C11.775,5,12,4.775,12,4.5C12,4.224,11.775,4,11.5,4z M13,0H3C1.343,0,0,1.343,0,3
		v6.5C0,11.156,1.343,12,3,12h5.6l4.4,4v-4c1.656,0,3-1.344,3-3V3C16,1.343,14.656,0,13,0z M15,9c0,1.104-0.896,2-2,2h-1v2.777L9,11
		H3c-1.104,0-2-0.396-2-1.5V3c0-1.105,0.896-2,2-2h10c1.104,0,2,0.895,2,2V9z"/>
</g>
<g id="Layer_1">
</g>
</svg>
