<?xml version="1.0" encoding="iso-8859-1"?>
<!-- Generator: Adobe Illustrator 16.0.0, SVG Export Plug-In . SVG Version: 6.00 Build 0)  -->
<!DOCTYPE svg PUBLIC "-//W3C//DTD SVG 1.1//EN" "http://www.w3.org/Graphics/SVG/1.1/DTD/svg11.dtd">
<svg version="1.1" xmlns="http://www.w3.org/2000/svg" xmlns:xlink="http://www.w3.org/1999/xlink" x="0px" y="0px" width="16px"
	 height="16px" viewBox="0 0 16 16" style="enable-background:new 0 0 16 16;" xml:space="preserve">
<g id="_x32_-communication_-_bubble_chat_talk_conversation_line" style="enable-background:new    ;">
	<path d="M11.5,5h-7C4.224,5,4,5.224,4,5.5S4.224,6,4.5,6h7C11.775,6,12,5.776,12,5.5S11.775,5,11.5,5z M10.5,8h-5
		C5.224,8,5,8.224,5,8.5S5.224,9,5.5,9h5C10.775,9,11,8.776,11,8.5S10.775,8,10.5,8z M8,0C3.582,0,0,3.134,0,7
		c0,2.209,1.173,4.177,3,5.459V16l4.096-2.048C7.394,13.981,7.694,14,8,14c4.417,0,8-3.134,8-7S12.418,0,8,0z M8,13
		c-0.463,0-1,0-1,0l-3,1.5V12c0,0-3-2.788-3-5c0-3.313,3.134-6,7-6c3.865,0,7,2.687,7,6S11.865,13,8,13z"/>
</g>
<g id="Layer_1">
</g>
</svg>
