<?xml version="1.0" encoding="iso-8859-1"?>
<!-- Generator: Adobe Illustrator 16.0.0, SVG Export Plug-In . SVG Version: 6.00 Build 0)  -->
<!DOCTYPE svg PUBLIC "-//W3C//DTD SVG 1.1//EN" "http://www.w3.org/Graphics/SVG/1.1/DTD/svg11.dtd">
<svg version="1.1" xmlns="http://www.w3.org/2000/svg" xmlns:xlink="http://www.w3.org/1999/xlink" x="0px" y="0px" width="16px"
	 height="16px" viewBox="0 0 16 16" style="enable-background:new 0 0 16 16;" xml:space="preserve">
<g id="_x31_5-communication_-_bubble_help_question_support" style="enable-background:new    ;">
	<path d="M7.746,8.795c-0.326,0-0.599,0.272-0.599,0.601c0,0.327,0.272,0.6,0.599,0.6c0.327,0,0.599-0.272,0.599-0.6
		C8.344,9.067,8.073,8.795,7.746,8.795z M7.866,2.499c-1.034,0-1.84,0.426-2.362,1.114l0.544,0.588
		C6.451,3.656,6.962,3.307,7.79,3.307c0.85,0,1.273,0.47,1.273,1.016c0,1.156-1.959,1.265-1.959,2.65
		c0,0.339,0.12,0.645,0.414,0.895l0.665-0.294c-0.186-0.131-0.284-0.35-0.284-0.524C7.898,5.979,10,5.839,10,4.19
		C10,3.252,9.193,2.499,7.866,2.499z M13,0H3C1.343,0,0,1.396,0,3.12v6.76C0,11.604,1.343,13,3,13h6.25L13,16v-3
		c1.656,0,3-1.396,3-3.12V3.12C16,1.396,14.656,0,13,0z M15,9.905c0,1.156-0.895,2.094-2,2.094h-1V14l-2.4-2.001H3
		c-1.104,0-2-0.938-2-2.094v-6.81C1,1.938,1.896,1,3,1h10c1.105,0,2,0.938,2,2.096V9.905z"/>
</g>
<g id="Layer_1">
</g>
</svg>
