<?xml version="1.0" encoding="iso-8859-1"?>
<!-- Generator: Adobe Illustrator 16.0.0, SVG Export Plug-In . SVG Version: 6.00 Build 0)  -->
<!DOCTYPE svg PUBLIC "-//W3C//DTD SVG 1.1//EN" "http://www.w3.org/Graphics/SVG/1.1/DTD/svg11.dtd">
<svg version="1.1" xmlns="http://www.w3.org/2000/svg" xmlns:xlink="http://www.w3.org/1999/xlink" x="0px" y="0px" width="16px"
	 height="16px" viewBox="0 0 16 16" style="enable-background:new 0 0 16 16;" xml:space="preserve">
<g id="_x32_6-communication_-_email_envelope" style="enable-background:new    ;">
	<path d="M15.982,1.99c0-0.007-0.004-0.012-0.004-0.019c-0.006-0.116-0.053-0.22-0.125-0.302c-0.008-0.009-0.004-0.023-0.014-0.032
		c-0.01-0.011-0.027-0.007-0.039-0.017c-0.074-0.063-0.166-0.102-0.27-0.111c-0.02-0.002-0.033-0.01-0.053-0.01H0.522
		c-0.02,0-0.034,0.008-0.054,0.01C0.366,1.52,0.274,1.559,0.2,1.621C0.188,1.631,0.17,1.627,0.16,1.638
		C0.151,1.646,0.154,1.661,0.146,1.67C0.074,1.752,0.028,1.855,0.021,1.972c0,0.007-0.003,0.012-0.003,0.019
		c0,0.004-0.002,0.007-0.002,0.01v12c0,0.276,0.223,0.5,0.499,0.5h14.969c0.277,0,0.5-0.224,0.5-0.5V2
		C15.984,1.997,15.982,1.994,15.982,1.99z M14.072,2.5L8,7.37L1.928,2.5H14.072z M14.986,13c0,0.276-0.223,0.5-0.5,0.5H1.513
		c-0.276,0-0.499-0.224-0.499-0.5V3.019l6.617,5.308c0.007,0.008,0.004,0.019,0.011,0.026C7.742,8.451,7.871,8.495,8,8.492
		c0.129,0.003,0.26-0.041,0.357-0.14C8.366,8.345,8.362,8.334,8.37,8.326l6.617-5.308V13z"/>
</g>
<g id="Layer_1">
</g>
</svg>
