<?xml version="1.0" encoding="iso-8859-1"?>
<!-- Generator: Adobe Illustrator 16.0.0, SVG Export Plug-In . SVG Version: 6.00 Build 0)  -->
<!DOCTYPE svg PUBLIC "-//W3C//DTD SVG 1.1//EN" "http://www.w3.org/Graphics/SVG/1.1/DTD/svg11.dtd">
<svg version="1.1" xmlns="http://www.w3.org/2000/svg" xmlns:xlink="http://www.w3.org/1999/xlink" x="0px" y="0px" width="16px"
	 height="16px" viewBox="0 0 16 16" style="enable-background:new 0 0 16 16;" xml:space="preserve">
<g id="_x33_1-communication_-_mic" style="enable-background:new    ;">
	<path d="M8,12c1.934,0,3.5-1.567,3.5-3.5v-5C11.5,1.567,9.934,0,8,0C6.067,0,4.5,1.567,4.5,3.5v5C4.5,10.433,6.067,12,8,12z
		 M5.5,3.5C5.5,2.119,6.62,1,8,1c1.381,0,2.5,1.119,2.5,2.5v5C10.5,9.881,9.381,11,8,11C6.62,11,5.5,9.881,5.5,8.5V3.5z M12.5,8v1
		c0,2.209-1.791,4-4,4h-1c-2.209,0-4-1.791-4-4V8h-1v1c0,2.761,2.238,5,5,5v1H7c-0.276,0-0.5,0.224-0.5,0.5S6.724,16,7,16h0.5h1H9
		c0.275,0,0.5-0.224,0.5-0.5S9.275,15,9,15H8.5v-1c2.761,0,5-2.239,5-5V8H12.5z"/>
</g>
<g id="Layer_1">
</g>
</svg>
