<?xml version="1.0" encoding="iso-8859-1"?>
<!-- Generator: Adobe Illustrator 16.0.0, SVG Export Plug-In . SVG Version: 6.00 Build 0)  -->
<!DOCTYPE svg PUBLIC "-//W3C//DTD SVG 1.1//EN" "http://www.w3.org/Graphics/SVG/1.1/DTD/svg11.dtd">
<svg version="1.1" xmlns="http://www.w3.org/2000/svg" xmlns:xlink="http://www.w3.org/1999/xlink" x="0px" y="0px" width="16px"
	 height="16px" viewBox="0 0 16 16" style="enable-background:new 0 0 16 16;" xml:space="preserve">
<g id="_x31_1-communication_-_bubble_chat_group_conversation" style="enable-background:new    ;">
	<path d="M12.93,2.566c0.406,0.635,0.701,1.331,0.861,2.069c0.727,0.866,1.176,1.937,1.176,3.11c0,2.057-2.572,4.645-2.572,4.645
		v1.541l-1.91-1.148c-0.379,0.074-0.771,0.115-1.176,0.115c-0.511,0-0.998-0.082-1.47-0.197c-0.602,0.127-1.226,0.201-1.872,0.201
		c-0.133,0-0.263-0.012-0.394-0.018c1.066,0.666,2.353,1.055,3.736,1.055c0.359,0,0.705-0.047,1.049-0.098l3.066,2.15v-3.396
		c1.555-1.133,2.57-2.869,2.57-4.841C15.994,5.575,14.77,3.668,12.93,2.566z M13.002,6.006c0-3.313-2.908-5.998-6.498-5.998
		c-3.589,0-6.498,2.686-6.498,5.998c0,1.742,0.817,3.297,2.103,4.393v3.018l2.449-1.717c0.618,0.18,1.264,0.305,1.946,0.305
		C10.094,12.004,13.002,9.318,13.002,6.006z M4.383,10.607l-1.246,0.748V9.922C1.848,9.008,1.003,7.6,1.003,5.999
		c0-2.761,2.463-4.997,5.501-4.997c3.039,0,5.501,2.236,5.501,4.997c0,2.759-2.463,4.995-5.501,4.995
		C5.752,10.994,5.037,10.855,4.383,10.607z"/>
</g>
<g id="Layer_1">
</g>
</svg>
