<?xml version="1.0" encoding="iso-8859-1"?>
<!-- Generator: Adobe Illustrator 16.0.0, SVG Export Plug-In . SVG Version: 6.00 Build 0)  -->
<!DOCTYPE svg PUBLIC "-//W3C//DTD SVG 1.1//EN" "http://www.w3.org/Graphics/SVG/1.1/DTD/svg11.dtd">
<svg version="1.1" xmlns="http://www.w3.org/2000/svg" xmlns:xlink="http://www.w3.org/1999/xlink" x="0px" y="0px" width="16px"
	 height="16px" viewBox="0 0 16 16" style="enable-background:new 0 0 16 16;" xml:space="preserve">
<g id="_x33_2-communication_-_mic_silent_mute" style="enable-background:new    ;">
	<path d="M13.414,1.708l-11.53,11.53l0.702,0.702L14.117,2.41L13.414,1.708z M5.474,8.245V3.5c0-1.381,1.119-2.5,2.5-2.5
		c1.302,0,2.358,0.998,2.478,2.268l0.838-0.839C10.834,1.023,9.531,0,7.974,0c-1.933,0-3.5,1.567-3.5,3.5v5
		c0,0.231,0.025,0.457,0.068,0.677L5.474,8.245z M3.64,10.079C3.542,9.733,3.474,9.376,3.474,9V8h-1v1
		c0,0.664,0.136,1.295,0.371,1.874L3.64,10.079z M12.473,9c0,2.209-1.789,4-4,4h-1c-0.912,0-1.742-0.316-2.415-0.83l-0.707,0.707
		C5.209,13.568,6.286,14,7.474,14v1h-0.5c-0.276,0-0.5,0.224-0.5,0.5s0.224,0.5,0.5,0.5h0.5h1h0.5c0.277,0,0.5-0.224,0.5-0.5
		S9.25,15,8.973,15h-0.5v-1c2.761,0,5-2.239,5-5V8h-1V9z M7.974,11c-0.497,0-0.957-0.149-1.346-0.399l-0.715,0.716
		C6.492,11.741,7.2,12,7.974,12c1.933,0,3.499-1.567,3.499-3.5V5.755l-1,1V8.5C10.473,9.881,9.354,11,7.974,11z"/>
</g>
<g id="Layer_1">
</g>
</svg>
