<?xml version="1.0" encoding="iso-8859-1"?>
<!-- Generator: Adobe Illustrator 16.0.0, SVG Export Plug-In . SVG Version: 6.00 Build 0)  -->
<!DOCTYPE svg PUBLIC "-//W3C//DTD SVG 1.1//EN" "http://www.w3.org/Graphics/SVG/1.1/DTD/svg11.dtd">
<svg version="1.1" xmlns="http://www.w3.org/2000/svg" xmlns:xlink="http://www.w3.org/1999/xlink" x="0px" y="0px" width="16px"
	 height="16px" viewBox="0 0 16 16" style="enable-background:new 0 0 16 16;" xml:space="preserve">
<g id="_x39_-communication_-_bubble_chat_talk_conversation_more" style="enable-background:new    ;">
	<path d="M4,5.497c-0.553,0-1,0.448-1,1c0,0.553,0.447,1,1,1c0.552,0,1-0.447,1-1C5,5.945,4.552,5.497,4,5.497z M14.5,0.497h-13
		c-0.829,0-1.5,0.672-1.5,1.5v10c0,0.828,0.671,1.5,1.5,1.5h4.493L8,15.503l2.005-2.006H14.5c0.828,0,1.5-0.672,1.5-1.5v-10
		C16,1.169,15.328,0.497,14.5,0.497z M15,11.997c0,0.276-0.225,0.501-0.5,0.501H9.506L8,14.003l-1.506-1.505H1.5
		c-0.276,0-0.5-0.225-0.5-0.501v-10c0-0.276,0.224-0.5,0.5-0.5h13c0.275,0,0.5,0.224,0.5,0.5V11.997z M8,5.497c-0.553,0-1,0.448-1,1
		c0,0.553,0.447,1,1,1s1-0.447,1-1C9,5.945,8.553,5.497,8,5.497z M12,5.497c-0.553,0-1,0.448-1,1c0,0.553,0.447,1,1,1s1-0.447,1-1
		C13,5.945,12.553,5.497,12,5.497z"/>
</g>
<g id="Layer_1">
</g>
</svg>
