<?xml version="1.0" encoding="iso-8859-1"?>
<!-- Generator: Adobe Illustrator 16.0.0, SVG Export Plug-In . SVG Version: 6.00 Build 0)  -->
<!DOCTYPE svg PUBLIC "-//W3C//DTD SVG 1.1//EN" "http://www.w3.org/Graphics/SVG/1.1/DTD/svg11.dtd">
<svg version="1.1" xmlns="http://www.w3.org/2000/svg" xmlns:xlink="http://www.w3.org/1999/xlink" x="0px" y="0px" width="16px"
	 height="16px" viewBox="0 0 16 16" style="enable-background:new 0 0 16 16;" xml:space="preserve">
<g id="_x33_6-document_-_folder_sync" style="enable-background:new    ;">
	<path d="M4.056,8.719C4.087,8.78,4.131,8.833,4.184,8.878C4.171,8.919,4.5,8.999,4.5,8.999h0.684H6.5c0.276,0,0.5-0.225,0.5-0.5
		c0-0.276-0.224-0.5-0.5-0.5H5.814c0.545-0.602,1.309-1,2.186-1c1.486,0,2.711,1.082,2.949,2.5h1c-0.248-1.971-1.912-3.5-3.949-3.5
		c-1.217,0-2.273,0.567-3,1.428V6.499c0-0.276-0.224-0.5-0.5-0.5c-0.276,0-0.5,0.224-0.5,0.5v2C4,8.575,4.02,8.646,4.05,8.71
		C4.052,8.713,4.054,8.715,4.056,8.719z M15,1.999H7v-1c0-0.552-0.448-1-1-1H1c-0.552,0-1,0.448-1,1v2v1v1v10c0,0.552,0.448,1,1,1
		h14c0.553,0,1-0.448,1-1v-10v-2C16,2.446,15.553,1.999,15,1.999z M15,5.499v0.5v8.5c0,0.276-0.225,0.5-0.5,0.5h-13
		c-0.276,0-0.5-0.224-0.5-0.5v-8.5v-0.5v-0.5h0.5h13H15V5.499z M14.5,3.999h-1H1v-1v-0.5v-0.5v-0.5c0-0.275,0.224-0.5,0.5-0.5h4
		c0.276,0,0.5,0.225,0.5,0.5v0.5v0.5v0.5h7.5h1c0.275,0,0.5,0.224,0.5,0.499C15,3.775,14.775,3.999,14.5,3.999z M11.943,11.279
		c-0.031-0.063-0.074-0.115-0.127-0.159c0.012-0.041-0.316-0.121-0.316-0.121h-0.684H9.5c-0.275,0-0.5,0.224-0.5,0.5
		s0.225,0.5,0.5,0.5h0.686c-0.545,0.602-1.309,1-2.186,1c-1.485,0-2.71-1.082-2.95-2.5h-1c0.249,1.97,1.912,3.5,3.95,3.5
		c1.217,0,2.273-0.567,3-1.428v0.928c0,0.275,0.225,0.5,0.5,0.5s0.5-0.225,0.5-0.5v-2c0-0.076-0.02-0.146-0.051-0.211
		C11.947,11.285,11.945,11.282,11.943,11.279z"/>
</g>
<g id="Layer_1">
</g>
</svg>
