<?xml version="1.0" encoding="iso-8859-1"?>
<!-- Generator: Adobe Illustrator 16.0.0, SVG Export Plug-In . SVG Version: 6.00 Build 0)  -->
<!DOCTYPE svg PUBLIC "-//W3C//DTD SVG 1.1//EN" "http://www.w3.org/Graphics/SVG/1.1/DTD/svg11.dtd">
<svg version="1.1" xmlns="http://www.w3.org/2000/svg" xmlns:xlink="http://www.w3.org/1999/xlink" x="0px" y="0px" width="16px"
	 height="16px" viewBox="0 0 16 16" style="enable-background:new 0 0 16 16;" xml:space="preserve">
<g id="_x31_7-document_-_remove_minus_delete_file" style="enable-background:new    ;">
	<path d="M11-0.001H2.5c-0.276,0-0.5,0.224-0.5,0.5v15c0,0.276,0.224,0.5,0.5,0.5h12c0.275,0,0.5-0.224,0.5-0.5v-11.5L11-0.001z
		 M11,1.812l2.188,2.188H11V1.812z M14,14.498c0,0.276-0.225,0.501-0.5,0.501h-10c-0.276,0-0.5-0.225-0.5-0.501v-13
		c0-0.275,0.224-0.499,0.5-0.499H10v3v1h1h3V14.498z M6,8.999h5v-1H6V8.999z"/>
</g>
<g id="Layer_1">
</g>
</svg>
