<?xml version="1.0" encoding="iso-8859-1"?>
<!-- Generator: Adobe Illustrator 16.0.0, SVG Export Plug-In . SVG Version: 6.00 Build 0)  -->
<!DOCTYPE svg PUBLIC "-//W3C//DTD SVG 1.1//EN" "http://www.w3.org/Graphics/SVG/1.1/DTD/svg11.dtd">
<svg version="1.1" xmlns="http://www.w3.org/2000/svg" xmlns:xlink="http://www.w3.org/1999/xlink" x="0px" y="0px" width="16px"
	 height="16px" viewBox="0 0 16 16" style="enable-background:new 0 0 16 16;" xml:space="preserve">
<g id="_x32_4-document_-_printer" style="enable-background:new    ;">
	<path d="M3,4.999C2.998,4.999,2.997,5,2.995,5H2v0.998c0,0,0,0,0,0.001V7h2V5H3.005C3.003,5,3.002,4.999,3,4.999z M15.5,2.999H12
		v-3H4v3H0.5c-0.276,0-0.5,0.224-0.5,0.5v9c0,0.275,0.224,0.5,0.5,0.5H4v2.999h8v-2.999h3.5c0.275,0,0.5-0.225,0.5-0.5v-9
		C16,3.223,15.775,2.999,15.5,2.999z M5,0.999h6v2H5V0.999z M11,14.999H5v-5h6V14.999z M15,11.499c0,0.276-0.225,0.5-0.5,0.5H12v-3
		H4v3H1.5c-0.276,0-0.5-0.224-0.5-0.5v-7c0-0.276,0.224-0.5,0.5-0.5h13c0.275,0,0.5,0.224,0.5,0.5V11.499z M6,4.999
		C5.998,4.999,5.997,5,5.995,5H5v0.998c0,0,0,0,0,0.001V7h2V5H6.005C6.003,5,6.002,4.999,6,4.999z"/>
</g>
<g id="Layer_1">
</g>
</svg>
