<?xml version="1.0" encoding="iso-8859-1"?>
<!-- Generator: Adobe Illustrator 16.0.0, SVG Export Plug-In . SVG Version: 6.00 Build 0)  -->
<!DOCTYPE svg PUBLIC "-//W3C//DTD SVG 1.1//EN" "http://www.w3.org/Graphics/SVG/1.1/DTD/svg11.dtd">
<svg version="1.1" xmlns="http://www.w3.org/2000/svg" xmlns:xlink="http://www.w3.org/1999/xlink" x="0px" y="0px" width="16px"
	 height="16px" viewBox="0 0 17 17" style="enable-background:new 0 0 17 17;" xml:space="preserve">
<g id="_x39_-document_-_cancel_cross_delete_file" style="enable-background:new    ;">
	<g id="_x39_-document_-_cancel_cross_delete_file_1_">
		<g>
			<path d="M10.747,6.003L9,7.75L7.252,6.003L6.503,6.752l1.748,1.747l-1.748,1.748l0.749,0.748L9,9.248l1.748,1.747l0.748-0.748
				L9.748,8.499l1.747-1.747L10.747,6.003z M15.499,0.999h-12C3.223,0.999,3,1.223,3,1.498v15.001c0,0.276,0.224,0.5,0.5,0.5h8.5
				l4-4V1.498C15.999,1.223,15.775,0.999,15.499,0.999z M11.999,15.185v-2.186h2.187L11.999,15.185z M14.999,11.999h-3h-1v1v3H4.5
				c-0.276,0-0.5-0.224-0.5-0.5v-13c0-0.276,0.224-0.5,0.5-0.5h10c0.276,0,0.5,0.224,0.5,0.5V11.999z"/>
		</g>
	</g>
</g>
<g id="Layer_1">
</g>
</svg>
