<?xml version="1.0" encoding="iso-8859-1"?>
<!-- Generator: Adobe Illustrator 16.0.0, SVG Export Plug-In . SVG Version: 6.00 Build 0)  -->
<!DOCTYPE svg PUBLIC "-//W3C//DTD SVG 1.1//EN" "http://www.w3.org/Graphics/SVG/1.1/DTD/svg11.dtd">
<svg version="1.1" xmlns="http://www.w3.org/2000/svg" xmlns:xlink="http://www.w3.org/1999/xlink" x="0px" y="0px" width="16px"
	 height="16px" viewBox="0 0 16 16" style="enable-background:new 0 0 16 16;" xml:space="preserve">
<g id="_x31_0-document_-_book_article" style="enable-background:new    ;">
	<path d="M3,4.499v1c0,0,0.5-0.5,1.5-0.5s2,0.5,2,0.5v-1c0,0-1.063-0.5-2.094-0.5C3.438,3.999,3,4.499,3,4.499z M3,10.499v1
		c0,0,0.5-0.5,1.5-0.5s2,0.5,2,0.5v-1c0,0-1.063-0.5-2.094-0.5C3.438,9.999,3,10.499,3,10.499z M3,7.499v1c0,0,0.5-0.5,1.5-0.5
		s2,0.5,2,0.5v-1c0,0-1.063-0.5-2.094-0.5C3.438,6.999,3,7.499,3,7.499z M10.5,7.499v1c0,0,1-0.5,2-0.5s1.5,0.5,1.5,0.5v-1
		c0,0-0.564-0.5-1.594-0.5C11.438,6.999,10.5,7.499,10.5,7.499z M12.031,0.498c-1.832,0-3.532,1.001-3.532,1.001
		S6.801,0.498,4.969,0.498C2.825,0.498,1,1.499,1,1.499v14c0,0,1.894-1,4.063-1c1.796,0,3.437,1,3.437,1s1.641-1,3.438-1
		c2.168,0,4.063,1,4.063,1v-14C16,1.499,14.174,0.498,12.031,0.498z M15,13.999c0,0-1.219-0.5-2.953-0.5
		c-1.201,0-2.396,0.229-3.047,0.377V2.499H8.5H8v11.377c-0.649-0.147-1.845-0.377-3.047-0.377c-1.734,0-2.953,0.5-2.953,0.5v-11.5
		c0,0,1.25-1,3-1s3.5,1,3.5,1s1.75-1,3.5-1s3,1,3,1V13.999z M10.5,10.499v1c0,0,1-0.5,2-0.5s1.5,0.5,1.5,0.5v-1
		c0,0-0.564-0.5-1.594-0.5C11.438,9.999,10.5,10.499,10.5,10.499z M10.5,5.499c0,0,1-0.5,2-0.5s1.5,0.5,1.5,0.5v-1
		c0,0-0.564-0.5-1.594-0.5c-0.969,0-1.906,0.5-1.906,0.5V5.499z"/>
	<rect x="8" y="2.083" width="0.999" height="1"/>
</g>
<g id="Layer_1">
</g>
</svg>
