<?xml version="1.0" encoding="iso-8859-1"?>
<!-- Generator: Adobe Illustrator 16.0.0, SVG Export Plug-In . SVG Version: 6.00 Build 0)  -->
<!DOCTYPE svg PUBLIC "-//W3C//DTD SVG 1.1//EN" "http://www.w3.org/Graphics/SVG/1.1/DTD/svg11.dtd">
<svg version="1.1" xmlns="http://www.w3.org/2000/svg" xmlns:xlink="http://www.w3.org/1999/xlink" x="0px" y="0px" width="16px"
	 height="16px" viewBox="0 0 16 16" style="enable-background:new 0 0 16 16;" xml:space="preserve">
<g id="_x39_8-document_-_notebook_pen_book_notes" style="enable-background:new    ;">
	<path d="M13.5,4.999h-6c-0.276,0-0.5,0.224-0.5,0.5c0,0.275,0.224,0.5,0.5,0.5h6c0.275,0,0.5-0.225,0.5-0.5
		C14,5.223,13.775,4.999,13.5,4.999z M15,0.999h-1v-1h-1v1h-2v-1h-1v1H8v-1H7v1H6c-0.552,0-1,0.447-1,1v12.999
		c0,0.553,0.448,1.001,1,1.001h9c0.553,0,1-0.448,1-1.001V1.999C16,1.446,15.553,0.999,15,0.999z M15,14.499
		c0,0.276-0.225,0.499-0.5,0.499h-8c-0.276,0-0.5-0.223-0.5-0.499v-12c0-0.276,0.224-0.5,0.5-0.5H7h1h2h1h2h1h0.5
		c0.275,0,0.5,0.224,0.5,0.5V14.499z M3-0.001H1c-0.552,0-1,0.447-1,1v6v0.999v7c0,0.553,0.448,1.001,1,1.001h2
		c0.552,0,1-0.448,1-1.001v-7V6.999v-6C4,0.446,3.552-0.001,3-0.001z M3,14.499c0,0.276-0.224,0.499-0.5,0.499h-1
		c-0.276,0-0.5-0.223-0.5-0.499V7.998h2V14.499z M3,6.999H1v-5.5c0-0.276,0.224-0.5,0.5-0.5h1c0.276,0,0.5,0.224,0.5,0.5V6.999z
		 M13.5,10.999h-6c-0.276,0-0.5,0.224-0.5,0.5s0.224,0.5,0.5,0.5h6c0.275,0,0.5-0.224,0.5-0.5S13.775,10.999,13.5,10.999z
		 M13.5,7.998h-6C7.224,7.998,7,8.223,7,8.499s0.224,0.5,0.5,0.5h6c0.275,0,0.5-0.224,0.5-0.5S13.775,7.998,13.5,7.998z"/>
</g>
<g id="Layer_1">
</g>
</svg>
