<?xml version="1.0" encoding="iso-8859-1"?>
<!-- Generator: Adobe Illustrator 16.0.0, SVG Export Plug-In . SVG Version: 6.00 Build 0)  -->
<!DOCTYPE svg PUBLIC "-//W3C//DTD SVG 1.1//EN" "http://www.w3.org/Graphics/SVG/1.1/DTD/svg11.dtd">
<svg version="1.1" xmlns="http://www.w3.org/2000/svg" xmlns:xlink="http://www.w3.org/1999/xlink" x="0px" y="0px" width="16px"
	 height="16px" viewBox="0 0 16 16" style="enable-background:new 0 0 16 16;" xml:space="preserve">
<g id="_x39_4-media_-_image_photo" style="enable-background:new    ;">
	<path d="M13,1.999H4c-0.552,0-1,0.447-1,0.999v9.001c0,0.552,0.448,0.999,1,0.999h9c0.553,0,1-0.447,1-0.999V2.998
		C14,2.446,13.553,1.999,13,1.999z M13,11.499c0,0.275-0.225,0.5-0.5,0.5h-8c-0.276,0-0.5-0.225-0.5-0.5v-0.015
		c0.139,0.004,0.277-0.041,0.383-0.146l2.112-2.543l1.646,2.059c0.196,0.197,0.516,0.197,0.713,0
		c0.002-0.001,0.001-0.004,0.003-0.005c0.007-0.007,0.019-0.004,0.025-0.011l2.169-3.496l1.514,1.916
		c0.094,0.155,0.26,0.209,0.434,0.21V11.499z M13,8.223L11.434,6.24c-0.018-0.03-0.057-0.034-0.078-0.059
		c-0.01-0.012-0.006-0.027-0.018-0.038c-0.021-0.021-0.053-0.016-0.078-0.033c-0.068-0.045-0.129-0.079-0.211-0.087
		c-0.082-0.014-0.15,0.004-0.23,0.029c-0.023,0.009-0.047-0.003-0.068,0.009c-0.018,0.01-0.027,0.026-0.045,0.038
		C10.672,6.12,10.629,6.114,10.6,6.144L8.44,9.622L6.858,7.644C6.757,7.542,6.624,7.497,6.492,7.5C6.35,7.493,6.208,7.535,6.1,7.644
		L4,10.171V3.499c0-0.276,0.224-0.501,0.5-0.501h8c0.275,0,0.5,0.225,0.5,0.501V8.223z M15-0.002H2c-0.552,0-1,0.448-1,1.001v13.999
		c0,0.553,0.448,1,1,1h13c0.553,0,1-0.447,1-1V0.999C16,0.446,15.553-0.002,15-0.002z M15,14.498c0,0.276-0.225,0.5-0.5,0.5h-12
		c-0.276,0-0.5-0.224-0.5-0.5v-13c0-0.275,0.224-0.499,0.5-0.499h12c0.275,0,0.5,0.224,0.5,0.499V14.498z"/>
</g>
<g id="Layer_1">
</g>
</svg>
