<?xml version="1.0" encoding="iso-8859-1"?>
<!-- Generator: Adobe Illustrator 16.0.0, SVG Export Plug-In . SVG Version: 6.00 Build 0)  -->
<!DOCTYPE svg PUBLIC "-//W3C//DTD SVG 1.1//EN" "http://www.w3.org/Graphics/SVG/1.1/DTD/svg11.dtd">
<svg version="1.1" xmlns="http://www.w3.org/2000/svg" xmlns:xlink="http://www.w3.org/1999/xlink" x="0px" y="0px" width="16px"
	 height="16px" viewBox="0 0 16 16" style="enable-background:new 0 0 16 16;" xml:space="preserve">
<g id="_x38_7-media_-_video" style="enable-background:new    ;">
	<path d="M3,11.499c0,0.276,0.224,0.5,0.5,0.5h6c0.275,0,0.5-0.224,0.5-0.5c0-0.275-0.225-0.5-0.5-0.5h-6
		C3.224,10.999,3,11.224,3,11.499z M15.5,5.999L13,7.562V5.999c0-0.552-0.447-1-1-1h-1.316L6.878,1.183
		C6.859,1.16,6.84,1.14,6.817,1.121L6.762,1.065C6.746,1.057,6.727,1.056,6.71,1.049C6.691,1.04,6.671,1.036,6.651,1.029
		c-0.04-0.012-0.079-0.022-0.12-0.023C6.52,1.005,6.511,0.999,6.5,0.999h-5c-0.276,0-0.5,0.225-0.5,0.5c0,0.276,0.224,0.5,0.5,0.5
		h4.816l4.081,4H11.5c0.275,0,0.5,0.224,0.5,0.5v7c0,0.276-0.225,0.5-0.5,0.5h-10c-0.276,0-0.5-0.224-0.5-0.5v-7
		c0-0.276,0.224-0.5,0.5-0.5H5v-1H1c-0.552,0-1,0.448-1,1v8c0,0.553,0.448,1,1,1h11c0.553,0,1-0.447,1-1v-1.563l2.5,1.563
		c0.275,0,0.5-0.224,0.5-0.5v-7C16,6.223,15.775,5.999,15.5,5.999z M15,12.499l-2-1v-3L15,7.5V12.499z"/>
</g>
<g id="Layer_1">
</g>
</svg>
