<?xml version="1.0" encoding="iso-8859-1"?>
<!-- Generator: Adobe Illustrator 16.0.0, SVG Export Plug-In . SVG Version: 6.00 Build 0)  -->
<!DOCTYPE svg PUBLIC "-//W3C//DTD SVG 1.1//EN" "http://www.w3.org/Graphics/SVG/1.1/DTD/svg11.dtd">
<svg version="1.1" id="Layer_1" xmlns="http://www.w3.org/2000/svg" xmlns:xlink="http://www.w3.org/1999/xlink" x="0px" y="0px"
	 width="16px" height="16px" viewBox="0 0 16 16" style="enable-background:new 0 0 16 16;" xml:space="preserve">
<path d="M13,16H2c-1.104,0-2-0.896-2-2V6V5V2c0-1.104,0.896-2,2-2h4c1.104,0,2,0.896,2,2h5c1.104,0,2,0.896,2,2v1v1v1v7
	C15,15.104,14.104,16,13,16z M14,4c0-0.552-0.447-1-1-1h-1H8H7V2c0-0.552-0.448-1-1-1H2C1.448,1,1,1.448,1,2v1v1v1h13V4z M14,8.723
	V7V6H1v1v0.723V14c0,0.553,0.448,1,1,1h11c0.553,0,1-0.447,1-1V8.723z M8.161,10.484l1.694,1.693c0.187,0.188,0.187,0.49,0,0.678
	c-0.188,0.187-0.49,0.188-0.678,0l-1.694-1.693l-1.693,1.693c-0.187,0.188-0.49,0.188-0.678,0c-0.187-0.188-0.187-0.49,0-0.678
	l1.694-1.693L5.113,8.791c-0.187-0.188-0.188-0.491,0-0.678c0.187-0.187,0.491-0.187,0.678,0l1.693,1.693l1.694-1.693
	c0.188-0.188,0.49-0.188,0.678,0c0.187,0.187,0.187,0.49,0,0.678L8.161,10.484z"/>
</svg>
