<?xml version="1.0" encoding="iso-8859-1"?>
<!-- Generator: Adobe Illustrator 16.0.0, SVG Export Plug-In . SVG Version: 6.00 Build 0)  -->
<!DOCTYPE svg PUBLIC "-//W3C//DTD SVG 1.1//EN" "http://www.w3.org/Graphics/SVG/1.1/DTD/svg11.dtd">
<svg version="1.1" xmlns="http://www.w3.org/2000/svg" xmlns:xlink="http://www.w3.org/1999/xlink" x="0px" y="0px" width="16px"
	 height="16px" viewBox="0 0 16 16" style="enable-background:new 0 0 16 16;" xml:space="preserve">
<g id="_x33_7-document_-_box" style="enable-background:new    ;">
	<path d="M15,0.999H1c-0.552,0-1,0.447-1,1v4c0,0.553,0.448,1,1,1v8c0,0.552,0.448,1,1,1h12c0.553,0,1-0.448,1-1v-8
		c0.553,0,1-0.447,1-1v-4C16,1.446,15.553,0.999,15,0.999z M14,14.499c0,0.276-0.225,0.5-0.5,0.5h-11c-0.276,0-0.5-0.224-0.5-0.5v-7
		c0-0.276,0.224-0.5,0.5-0.5H5v2c0,0.553,0.448,1,1,1h4c0.553,0,1-0.447,1-1v-2h2.5c0.275,0,0.5,0.224,0.5,0.5V14.499z M6,8.499
		v-0.5v-0.5v-0.5h0.5h3H10v0.5v0.5v0.5c0,0.276-0.225,0.5-0.5,0.5h-3C6.224,8.999,6,8.775,6,8.499z M15,5.499
		c0,0.276-0.225,0.5-0.5,0.5H10H6H1.5c-0.276,0-0.5-0.224-0.5-0.5v-3c0-0.276,0.224-0.5,0.5-0.5h13c0.275,0,0.5,0.224,0.5,0.5V5.499
		z"/>
</g>
<g id="Layer_1">
</g>
</svg>
