<?xml version="1.0" encoding="iso-8859-1"?>
<!-- Generator: Adobe Illustrator 16.0.0, SVG Export Plug-In . SVG Version: 6.00 Build 0)  -->
<!DOCTYPE svg PUBLIC "-//W3C//DTD SVG 1.1//EN" "http://www.w3.org/Graphics/SVG/1.1/DTD/svg11.dtd">
<svg version="1.1" xmlns="http://www.w3.org/2000/svg" xmlns:xlink="http://www.w3.org/1999/xlink" x="0px" y="0px" width="16px"
	 height="16px" viewBox="0 0 16 16" style="enable-background:new 0 0 16 16;" xml:space="preserve">
<g id="_x36_6-document_-_article_column_newspaper_news" style="enable-background:new    ;">
	<path d="M14-0.001H2c-1.104,0-2,0.895-2,2v12c0,1.104,0.896,1.999,2,1.999h12c1.105,0,2-0.896,2-1.999v-12
		C16,0.894,15.105-0.001,14-0.001z M11,14.999H2c-0.552,0-1-0.448-1-1V3.998h10V14.999z M15,13.999c0,0.552-0.447,1-1,1h-2V3.998h3
		V13.999z M15,2.999H1v-1c0-0.553,0.448-1,1-1h12c0.553,0,1,0.447,1,1V2.999z M3.5,6.999h5c0.276,0,0.5-0.224,0.5-0.5
		s-0.224-0.5-0.5-0.5h-5c-0.276,0-0.5,0.224-0.5,0.5S3.224,6.999,3.5,6.999z M3.5,9.999h5c0.276,0,0.5-0.225,0.5-0.501
		c0-0.275-0.224-0.499-0.5-0.499h-5C3.224,8.999,3,9.223,3,9.498C3,9.774,3.224,9.999,3.5,9.999z M3.5,12.999h5
		c0.276,0,0.5-0.225,0.5-0.5c0-0.276-0.224-0.501-0.5-0.501h-5c-0.276,0-0.5,0.225-0.5,0.501C3,12.774,3.224,12.999,3.5,12.999z"/>
</g>
<g id="Layer_1">
</g>
</svg>
