<?xml version="1.0" encoding="iso-8859-1"?>
<!-- Generator: Adobe Illustrator 16.0.0, SVG Export Plug-In . SVG Version: 6.00 Build 0)  -->
<!DOCTYPE svg PUBLIC "-//W3C//DTD SVG 1.1//EN" "http://www.w3.org/Graphics/SVG/1.1/DTD/svg11.dtd">
<svg version="1.1" xmlns="http://www.w3.org/2000/svg" xmlns:xlink="http://www.w3.org/1999/xlink" x="0px" y="0px" width="16px"
	 height="16px" viewBox="0 0 16 16" style="enable-background:new 0 0 16 16;" xml:space="preserve">
<g id="_x33_5-document_-_folder_cross_delete_remove" style="enable-background:new    ;">
	<path d="M10.842,7.141c-0.195-0.197-0.516-0.197-0.711,0L7.992,9.278L5.854,7.141c-0.197-0.197-0.516-0.197-0.713,0
		c-0.197,0.196-0.197,0.516,0,0.712l2.138,2.139l-2.138,2.138c-0.197,0.196-0.197,0.516,0,0.713c0.197,0.196,0.516,0.196,0.713,0
		l2.138-2.139l2.139,2.139c0.195,0.196,0.516,0.196,0.711,0c0.197-0.197,0.197-0.517,0-0.713L8.705,9.991l2.137-2.139
		C11.039,7.656,11.039,7.337,10.842,7.141z M15,1.999H7v-1c0-0.552-0.448-1-1-1H1c-0.552,0-1,0.448-1,1v2v1v1v10
		c0,0.552,0.448,1,1,1h14c0.553,0,1-0.448,1-1v-10v-2C16,2.446,15.553,1.999,15,1.999z M15,5.499v0.5v8.5c0,0.276-0.225,0.5-0.5,0.5
		h-13c-0.276,0-0.5-0.224-0.5-0.5v-8.5v-0.5v-0.5h0.5h13H15V5.499z M14.5,3.999h-1H1v-1v-0.5v-0.5v-0.5c0-0.275,0.224-0.5,0.5-0.5h4
		c0.276,0,0.5,0.225,0.5,0.5v0.5v0.5v0.5h7.5h1c0.275,0,0.5,0.224,0.5,0.499C15,3.775,14.775,3.999,14.5,3.999z"/>
</g>
<g id="Layer_1">
</g>
</svg>
