<?xml version="1.0" encoding="iso-8859-1"?>
<!-- Generator: Adobe Illustrator 16.0.0, SVG Export Plug-In . SVG Version: 6.00 Build 0)  -->
<!DOCTYPE svg PUBLIC "-//W3C//DTD SVG 1.1//EN" "http://www.w3.org/Graphics/SVG/1.1/DTD/svg11.dtd">
<svg version="1.1" xmlns="http://www.w3.org/2000/svg" xmlns:xlink="http://www.w3.org/1999/xlink" x="0px" y="0px" width="16px"
	 height="16px" viewBox="0 0 16 16" style="enable-background:new 0 0 16 16;" xml:space="preserve">
<g id="_x37_0-document_-_bookmark_important" style="enable-background:new    ;">
	<path d="M13,0.998H4c-0.552,0-1,0.448-1,1.001v12.999c0,0.553,0.948,1,1.5,1l3.945-4.999l4.055,4.999c0.553,0,1.5-0.447,1.5-1
		V1.999C14,1.446,13.553,0.998,13,0.998z M13,13.998c0,0.276-0.225,0.501-0.5,0.501l-4-5l-4,5c-0.276,0-0.5-0.225-0.5-0.501V2.499
		c0-0.276,0.224-0.5,0.5-0.5h8c0.275,0,0.5,0.224,0.5,0.5V13.998z"/>
</g>
<g id="Layer_1">
</g>
</svg>
