<?xml version="1.0" encoding="iso-8859-1"?>
<!-- Generator: Adobe Illustrator 16.0.0, SVG Export Plug-In . SVG Version: 6.00 Build 0)  -->
<!DOCTYPE svg PUBLIC "-//W3C//DTD SVG 1.1//EN" "http://www.w3.org/Graphics/SVG/1.1/DTD/svg11.dtd">
<svg version="1.1" xmlns="http://www.w3.org/2000/svg" xmlns:xlink="http://www.w3.org/1999/xlink" x="0px" y="0px" width="16px"
	 height="16px" viewBox="0 0 16 16" style="enable-background:new 0 0 16 16;" xml:space="preserve">
<g id="_x38_3-document_-_briefcase_case_bag" style="enable-background:new    ;">
	<path d="M14,2.998h-3V1.499c0-0.277-0.225-0.501-0.5-0.501h-5C5.224,0.998,5,1.222,5,1.499v1.499H2c-1.104,0-2,0.896-2,2v9.001
		c0,1.104,0.896,2,2,2h12c1.104,0,2-0.896,2-2V4.998C16,3.895,15.104,2.998,14,2.998z M6,2.499c0-0.276,0.224-0.501,0.5-0.501h3
		c0.275,0,0.5,0.225,0.5,0.501v0.499H9.5h-3H6V2.499z M15,13.999c0,0.552-0.447,1-1,1H2c-0.552,0-1-0.448-1-1v-6h14V13.999z
		 M15,6.998H1v-2c0-0.552,0.448-0.999,1-0.999h12c0.553,0,1,0.447,1,0.999V6.998z"/>
</g>
<g id="Layer_1">
</g>
</svg>
