<?xml version="1.0" encoding="iso-8859-1"?>
<!-- Generator: Adobe Illustrator 16.0.0, SVG Export Plug-In . SVG Version: 6.00 Build 0)  -->
<!DOCTYPE svg PUBLIC "-//W3C//DTD SVG 1.1//EN" "http://www.w3.org/Graphics/SVG/1.1/DTD/svg11.dtd">
<svg version="1.1" xmlns="http://www.w3.org/2000/svg" xmlns:xlink="http://www.w3.org/1999/xlink" x="0px" y="0px" width="16px"
	 height="16px" viewBox="0 0 16 16" style="enable-background:new 0 0 16 16;" xml:space="preserve">
<g id="_x34_9-document_-_article_book_journal" style="enable-background:new    ;">
	<path d="M12.5,9.998h-6c-0.276,0-0.5,0.225-0.5,0.501s0.224,0.499,0.5,0.499h6c0.275,0,0.5-0.223,0.5-0.499
		S12.775,9.998,12.5,9.998z M12.5,3.999h-6c-0.276,0-0.5,0.224-0.5,0.5s0.224,0.5,0.5,0.5h6c0.275,0,0.5-0.224,0.5-0.5
		S12.775,3.999,12.5,3.999z M12.5,6.998h-6C6.224,6.998,6,7.223,6,7.499s0.224,0.5,0.5,0.5h6c0.275,0,0.5-0.224,0.5-0.5
		S12.775,6.998,12.5,6.998z M14.5-0.001h-12c-0.829,0-1.5,0.672-1.5,1.5v13c0,0.828,0.671,1.5,1.5,1.5h12c0.828,0,1.5-0.672,1.5-1.5
		v-13C16,0.671,15.328-0.001,14.5-0.001z M3,14.499c0,0.275-0.224,0.5-0.5,0.5c-0.276,0-0.5-0.225-0.5-0.5v-13
		c0-0.276,0.224-0.5,0.5-0.5c0.276,0,0.5,0.224,0.5,0.5V14.499z M15,14.499c0,0.275-0.225,0.5-0.5,0.5H4v-14h10.5
		c0.275,0,0.5,0.224,0.5,0.5V14.499z"/>
</g>
<g id="Layer_1">
</g>
</svg>
