<?xml version="1.0" encoding="iso-8859-1"?>
<!-- Generator: Adobe Illustrator 16.0.0, SVG Export Plug-In . SVG Version: 6.00 Build 0)  -->
<!DOCTYPE svg PUBLIC "-//W3C//DTD SVG 1.1//EN" "http://www.w3.org/Graphics/SVG/1.1/DTD/svg11.dtd">
<svg version="1.1" xmlns="http://www.w3.org/2000/svg" xmlns:xlink="http://www.w3.org/1999/xlink" x="0px" y="0px" width="16px"
	 height="16px" viewBox="0 0 16 16" style="enable-background:new 0 0 16 16;" xml:space="preserve">
<g id="_x36_0-document_-_list" style="enable-background:new    ;">
	<path d="M2.5,6.999h-1c-0.276,0-0.5,0.224-0.5,0.5v1c0,0.276,0.224,0.5,0.5,0.5h1c0.276,0,0.5-0.224,0.5-0.5v-1
		C3,7.223,2.776,6.999,2.5,6.999z M2.5,10.999h-1c-0.276,0-0.5,0.224-0.5,0.5v1c0,0.276,0.224,0.5,0.5,0.5h1
		c0.276,0,0.5-0.224,0.5-0.5v-1C3,11.223,2.776,10.999,2.5,10.999z M5.5,3.999h9c0.275,0,0.5-0.224,0.5-0.5s-0.225-0.5-0.5-0.5h-9
		c-0.276,0-0.5,0.224-0.5,0.5S5.224,3.999,5.5,3.999z M14.5,6.999h-9c-0.276,0-0.5,0.224-0.5,0.5s0.224,0.5,0.5,0.5h9
		c0.275,0,0.5-0.224,0.5-0.5S14.775,6.999,14.5,6.999z M14.5,10.999h-9c-0.276,0-0.5,0.224-0.5,0.5s0.224,0.5,0.5,0.5h9
		c0.275,0,0.5-0.224,0.5-0.5S14.775,10.999,14.5,10.999z M2.5,2.999h-1c-0.276,0-0.5,0.224-0.5,0.5v1c0,0.276,0.224,0.5,0.5,0.5h1
		c0.276,0,0.5-0.224,0.5-0.5v-1C3,3.223,2.776,2.999,2.5,2.999z"/>
</g>
<g id="Layer_1">
</g>
</svg>
