<?xml version="1.0" encoding="iso-8859-1"?>
<!-- Generator: Adobe Illustrator 16.0.0, SVG Export Plug-In . SVG Version: 6.00 Build 0)  -->
<!DOCTYPE svg PUBLIC "-//W3C//DTD SVG 1.1//EN" "http://www.w3.org/Graphics/SVG/1.1/DTD/svg11.dtd">
<svg version="1.1" xmlns="http://www.w3.org/2000/svg" xmlns:xlink="http://www.w3.org/1999/xlink" x="0px" y="0px" width="16px"
	 height="16px" viewBox="0 0 16 16" style="enable-background:new 0 0 16 16;" xml:space="preserve">
<g id="_x39_2-media_-_image_photo" style="enable-background:new    ;">
	<g>
		<path d="M15-0.001H1c-0.552,0-1,0.447-1,1v13.999c0,0.553,0.448,1,1,1h14c0.553,0,1-0.447,1-1V0.999
			C16,0.446,15.553-0.001,15-0.001z M15,14.499c0,0.275-0.225,0.499-0.5,0.499h-13c-0.276,0-0.5-0.224-0.5-0.499V1.498
			c0-0.275,0.224-0.499,0.5-0.499h13c0.275,0,0.5,0.224,0.5,0.499V14.499z"/>
		<path d="M4.5,5.998c0.828,0,1.5-0.671,1.5-1.499C6,3.67,5.328,2.998,4.5,2.998C3.671,2.998,3,3.67,3,4.499
			C3,5.327,3.671,5.998,4.5,5.998z M4.459,4.021c0.275,0,0.5,0.224,0.5,0.5s-0.225,0.5-0.5,0.5c-0.277,0-0.5-0.224-0.5-0.5
			S4.182,4.021,4.459,4.021z"/>
		<path d="M13.1,6.144l-4.178,4.647L5.9,8.644c-0.11-0.11-0.255-0.149-0.4-0.141c-0.145-0.009-0.29,0.03-0.4,0.141l-2.956,3.955
			c-0.204,0.204-0.204,0.535,0,0.739s0.535,0.204,0.739,0l2.72-3.641l3.013,2.141c0.105,0.105,0.244,0.15,0.383,0.146
			c0.139,0.004,0.278-0.041,0.383-0.146l4.455-4.956c0.205-0.204,0.205-0.534,0-0.738C13.635,5.939,13.305,5.939,13.1,6.144z"/>
	</g>
</g>
<g id="Layer_1">
</g>
</svg>
