<?xml version="1.0" encoding="iso-8859-1"?>
<!-- Generator: Adobe Illustrator 16.0.0, SVG Export Plug-In . SVG Version: 6.00 Build 0)  -->
<!DOCTYPE svg PUBLIC "-//W3C//DTD SVG 1.1//EN" "http://www.w3.org/Graphics/SVG/1.1/DTD/svg11.dtd">
<svg version="1.1" xmlns="http://www.w3.org/2000/svg" xmlns:xlink="http://www.w3.org/1999/xlink" x="0px" y="0px" width="16px"
	 height="16px" viewBox="0 0 16 16" style="enable-background:new 0 0 16 16;" xml:space="preserve">
<g id="_x36_4-document_-_compose_pencil_write" style="enable-background:new    ;">
	<path d="M3.702,8.782L3.351,9.134L3,13l3.866-0.352l0.382-0.383l0.672-0.672l8.083-8.083l-3.514-3.515l-2.109,2.108L9.678,2.808
		L3.953,8.531L3.702,8.782z M12.488,1.402l2.109,2.108l-1.406,1.405l-2.109-2.108L12.488,1.402z M10.379,3.511l2.109,2.108
		l-5.271,5.271L5.108,8.782L10.379,3.511z M4.405,9.485l2.108,2.108l-2.46,0.352L4.405,9.485z M14,14.999H1v-13h8v-1H0v15h15v-9h-1
		V14.999z"/>
</g>
<g id="Layer_1">
</g>
</svg>
