<?xml version="1.0" encoding="iso-8859-1"?>
<!-- Generator: Adobe Illustrator 16.0.0, SVG Export Plug-In . SVG Version: 6.00 Build 0)  -->
<!DOCTYPE svg PUBLIC "-//W3C//DTD SVG 1.1//EN" "http://www.w3.org/Graphics/SVG/1.1/DTD/svg11.dtd">
<svg version="1.1" xmlns="http://www.w3.org/2000/svg" xmlns:xlink="http://www.w3.org/1999/xlink" x="0px" y="0px" width="16px"
	 height="16px" viewBox="0 0 16 16" style="enable-background:new 0 0 16 16;" xml:space="preserve">
<g id="_x36_-document_-_add_plus_file" style="enable-background:new    ;">
	<path d="M9,4.999H8v2H6v1h2v2h1v-2h2v-1H9V4.999z M14.5-0.001h-12C2.224-0.001,2,0.223,2,0.498v15.001c0,0.276,0.224,0.5,0.5,0.5
		H11l4-4V0.498C15,0.223,14.775-0.001,14.5-0.001z M11,14.185v-2.186h2.186L11,14.185z M14,10.999h-3h-1v1v3H3.5
		c-0.276,0-0.5-0.224-0.5-0.5v-13c0-0.276,0.224-0.5,0.5-0.5h10c0.275,0,0.5,0.224,0.5,0.5V10.999z"/>
</g>
<g id="Layer_1">
</g>
</svg>
