<?xml version="1.0" encoding="iso-8859-1"?>
<!-- Generator: Adobe Illustrator 16.0.0, SVG Export Plug-In . SVG Version: 6.00 Build 0)  -->
<!DOCTYPE svg PUBLIC "-//W3C//DTD SVG 1.1//EN" "http://www.w3.org/Graphics/SVG/1.1/DTD/svg11.dtd">
<svg version="1.1" xmlns="http://www.w3.org/2000/svg" xmlns:xlink="http://www.w3.org/1999/xlink" x="0px" y="0px" width="16px"
	 height="16px" viewBox="0 0 16 16" style="enable-background:new 0 0 16 16;" xml:space="preserve">
<g id="_x39_0-document_-_photo_stack_polaroid" style="enable-background:new    ;">
	<path d="M0.999,13.999V2.998H0v11.001c0,1.104,0.95,2,2.123,2h11.861v-1H2.069C1.478,14.999,0.999,14.551,0.999,13.999z
		 M13.488,1.999H4.496c-0.276,0-0.5,0.224-0.5,0.5v8c0,0.276,0.224,0.5,0.5,0.5h8.993c0.275,0,0.498-0.224,0.498-0.5v-8
		C13.986,2.223,13.764,1.999,13.488,1.999z M12.988,9.499c0,0.275-0.225,0.5-0.5,0.5H5.495c-0.276,0-0.5-0.225-0.5-0.5v-6
		c0-0.276,0.224-0.5,0.5-0.5h6.994c0.275,0,0.5,0.224,0.5,0.5V9.499z M14.986-0.001H2.997c-0.552,0-0.999,0.448-0.999,1v12
		c0,0.552,0.447,1,0.999,1h11.989c0.551,0,0.998-0.448,0.998-1v-12C15.984,0.447,15.537-0.001,14.986-0.001z M14.986,12.499
		c0,0.276-0.225,0.5-0.5,0.5H3.497c-0.276,0-0.5-0.224-0.5-0.5v-11c0-0.276,0.224-0.5,0.5-0.5h10.99c0.275,0,0.5,0.224,0.5,0.5
		V12.499z"/>
</g>
<g id="Layer_1">
</g>
</svg>
