<?xml version="1.0" encoding="iso-8859-1"?>
<!-- Generator: Adobe Illustrator 16.0.0, SVG Export Plug-In . SVG Version: 6.00 Build 0)  -->
<!DOCTYPE svg PUBLIC "-//W3C//DTD SVG 1.1//EN" "http://www.w3.org/Graphics/SVG/1.1/DTD/svg11.dtd">
<svg version="1.1" xmlns="http://www.w3.org/2000/svg" xmlns:xlink="http://www.w3.org/1999/xlink" x="0px" y="0px" width="16px"
	 height="16px" viewBox="0 0 16 16" style="enable-background:new 0 0 16 16;" xml:space="preserve">
<g id="_x37_-document_-_remove_minus_delete_file" style="enable-background:new    ;">
	<g id="_x37_-document_-_remove_minus_delete_file_1_">
		<g>
			<path d="M7,8.999h5v-1H7V8.999z M15.499,0.999h-12C3.223,0.999,3,1.223,3,1.498v15.001c0,0.276,0.224,0.5,0.5,0.5h8.5l4-4V1.498
				C15.999,1.223,15.775,0.999,15.499,0.999z M11.999,15.185v-2.186h2.187L11.999,15.185z M14.999,11.999h-3h-1v1v3H4.5
				c-0.276,0-0.5-0.224-0.5-0.5v-13c0-0.276,0.224-0.5,0.5-0.5h10c0.276,0,0.5,0.224,0.5,0.5V11.999z"/>
		</g>
	</g>
</g>
<g id="Layer_1">
</g>
</svg>
