<?xml version="1.0" encoding="iso-8859-1"?>
<!-- Generator: Adobe Illustrator 16.0.0, SVG Export Plug-In . SVG Version: 6.00 Build 0)  -->
<!DOCTYPE svg PUBLIC "-//W3C//DTD SVG 1.1//EN" "http://www.w3.org/Graphics/SVG/1.1/DTD/svg11.dtd">
<svg version="1.1" xmlns="http://www.w3.org/2000/svg" xmlns:xlink="http://www.w3.org/1999/xlink" x="0px" y="0px" width="16px"
	 height="16px" viewBox="0 0 16 16" style="enable-background:new 0 0 16 16;" xml:space="preserve">
<g id="_x33_2-document_-_folder_add_plus_new" style="enable-background:new    ;">
	<path d="M10.5,9.999H8v-2.5c0-0.276-0.224-0.501-0.5-0.501C7.224,6.998,7,7.223,7,7.499v2.5H4.5c-0.276,0-0.5,0.224-0.5,0.5
		s0.224,0.5,0.5,0.5H7v2.5c0,0.275,0.224,0.5,0.5,0.5c0.276,0,0.5-0.225,0.5-0.5v-2.5h2.5c0.275,0,0.5-0.224,0.5-0.5
		S10.775,9.999,10.5,9.999z M15,1.999H7v-1c0-0.552-0.448-1-1-1H1c-0.552,0-1,0.448-1,1v2v1v1v10c0,0.552,0.448,1,1,1h14
		c0.553,0,1-0.448,1-1v-10v-2C16,2.446,15.553,1.999,15,1.999z M15,5.499v0.5v8.5c0,0.276-0.225,0.5-0.5,0.5h-13
		c-0.276,0-0.5-0.224-0.5-0.5v-8.5v-0.5v-0.5h0.5h13H15V5.499z M14.5,3.999h-1H1v-1v-0.5v-0.5v-0.5c0-0.275,0.224-0.5,0.5-0.5h4
		c0.276,0,0.5,0.225,0.5,0.5v0.5v0.5v0.5h7.5h1c0.275,0,0.5,0.224,0.5,0.499C15,3.775,14.775,3.999,14.5,3.999z"/>
</g>
<g id="Layer_1">
</g>
</svg>
