<?xml version="1.0" encoding="iso-8859-1"?>
<!-- Generator: Adobe Illustrator 16.0.0, SVG Export Plug-In . SVG Version: 6.00 Build 0)  -->
<!DOCTYPE svg PUBLIC "-//W3C//DTD SVG 1.1//EN" "http://www.w3.org/Graphics/SVG/1.1/DTD/svg11.dtd">
<svg version="1.1" xmlns="http://www.w3.org/2000/svg" xmlns:xlink="http://www.w3.org/1999/xlink" x="0px" y="0px" width="16px"
	 height="16px" viewBox="0 0 16 16" style="enable-background:new 0 0 16 16;" xml:space="preserve">
<g id="_x34_0-document_-_paper_article_news" style="enable-background:new    ;">
	<path d="M5.5,4.999h4c0.275,0,0.5-0.224,0.5-0.5s-0.225-0.5-0.5-0.5h-4c-0.276,0-0.5,0.224-0.5,0.5S5.224,4.999,5.5,4.999z
		 M2,2.999c-0.552,0-1,0.447-1,1v10.999c0,0.553,0.448,1.001,1,1.001h11c0.553,0,1-0.448,1-1.001H2V2.999z M12.5,6.999h-7
		c-0.276,0-0.5,0.224-0.5,0.5c0,0.275,0.224,0.5,0.5,0.5h7c0.275,0,0.5-0.225,0.5-0.5C13,7.223,12.775,6.999,12.5,6.999z
		 M12.5,9.999h-7c-0.276,0-0.5,0.224-0.5,0.5c0,0.275,0.224,0.5,0.5,0.5h7c0.275,0,0.5-0.225,0.5-0.5
		C13,10.223,12.775,9.999,12.5,9.999z M14,0.999H4c-0.552,0-1,0.447-1,1v11c0,0.552,0.448,1,1,1h10c0.553,0,1-0.448,1-1v-11
		C15,1.446,14.553,0.999,14,0.999z M14,12.499c0,0.275-0.225,0.5-0.5,0.5h-9c-0.276,0-0.5-0.225-0.5-0.5v-10
		c0-0.276,0.224-0.5,0.5-0.5h9c0.275,0,0.5,0.224,0.5,0.5V12.499z"/>
</g>
<g id="Layer_1">
</g>
</svg>
