<?xml version="1.0" encoding="iso-8859-1"?>
<!-- Generator: Adobe Illustrator 16.0.0, SVG Export Plug-In . SVG Version: 6.00 Build 0)  -->
<!DOCTYPE svg PUBLIC "-//W3C//DTD SVG 1.1//EN" "http://www.w3.org/Graphics/SVG/1.1/DTD/svg11.dtd">
<svg version="1.1" xmlns="http://www.w3.org/2000/svg" xmlns:xlink="http://www.w3.org/1999/xlink" x="0px" y="0px" width="16px"
	 height="16px" viewBox="0 0 16 16" style="enable-background:new 0 0 16 16;" xml:space="preserve">
<g id="_x35_4-document_-_pie_chart_graph" style="enable-background:new    ;">
	<g>
		<path d="M9,15.998L10,16c5.221-0.751,6-5.001,6-5.001v-1H9V15.998z M9.99,10.999L15,11c0,1-3,4-5.01,3.999V10.999z"/>
		<path d="M8-0.001c-4.418,0-8,3.581-8,8c0,4.079,3.055,7.438,7,7.931v0.068h1v-0.999V14V9l8-0.001v-1C16,3.58,12.418-0.001,8-0.001
			z M7,14.897c-1.231-0.178-2.354-0.679-3.293-1.405L7,10.2V14.897z M7.808,7.999L7.803,7.995L7.799,7.999H7v0.799l-4.024,4.024
			C1.762,11.571,1,9.884,1,7.999c0-3.866,3.134-7,7-7c3.865,0,7,3.134,7,7H7.808z"/>
	</g>
</g>
<g id="Layer_1">
</g>
</svg>
