<?xml version="1.0" encoding="iso-8859-1"?>
<!-- Generator: Adobe Illustrator 16.0.0, SVG Export Plug-In . SVG Version: 6.00 Build 0)  -->
<!DOCTYPE svg PUBLIC "-//W3C//DTD SVG 1.1//EN" "http://www.w3.org/Graphics/SVG/1.1/DTD/svg11.dtd">
<svg version="1.1" xmlns="http://www.w3.org/2000/svg" xmlns:xlink="http://www.w3.org/1999/xlink" x="0px" y="0px" width="16px"
	 height="16px" viewBox="0 0 16 16" style="enable-background:new 0 0 16 16;" xml:space="preserve">
<g id="_x34_3-document_-_binder_tier_blank_zero_0" style="enable-background:new    ;">
	<path d="M14-0.002H2c-1.104,0-2,0.896-2,2.001v11.999c0,1.105,0.896,2.001,2,2.001h12c1.104,0,2-0.896,2-2.001V1.999
		C16,0.895,15.104-0.002,14-0.002z M15,13.998c0,0.553-0.447,1.001-1,1.001H2c-0.552,0-1-0.448-1-1.001V1.999c0-0.553,0.448-1,1-1
		h12c0.553,0,1,0.447,1,1V13.998z"/>
</g>
<g id="Layer_1">
</g>
</svg>
