<?xml version="1.0" encoding="iso-8859-1"?>
<!-- Generator: Adobe Illustrator 16.0.0, SVG Export Plug-In . SVG Version: 6.00 Build 0)  -->
<!DOCTYPE svg PUBLIC "-//W3C//DTD SVG 1.1//EN" "http://www.w3.org/Graphics/SVG/1.1/DTD/svg11.dtd">
<svg version="1.1" xmlns="http://www.w3.org/2000/svg" xmlns:xlink="http://www.w3.org/1999/xlink" x="0px" y="0px" width="16px"
	 height="16px" viewBox="0 0 16 16" style="enable-background:new 0 0 16 16;" xml:space="preserve">
<g id="_x31_2-document_-_book_paper" style="enable-background:new    ;">
	<path style="fill-rule:evenodd;clip-rule:evenodd;" d="M10.5,10h-7C3.223,10,3,10.225,3,10.5C3,10.777,3.223,11,3.5,11h7
		c0.275,0,0.5-0.223,0.5-0.5C11,10.225,10.775,10,10.5,10z M10.5,12h-7C3.223,12,3,12.225,3,12.5C3,12.777,3.223,13,3.5,13h7
		c0.275,0,0.5-0.223,0.5-0.5C11,12.225,10.775,12,10.5,12z M10,3H4C3.448,3,3,3.448,3,4v3C3,7.552,3.448,8,4,8h6
		C10.553,8,11,7.552,11,7V4C11,3.448,10.553,3,10,3z M10,6.5C10,6.777,9.775,7,9.5,7h-5C4.223,7,4,6.777,4,6.5v-2
		C4,4.224,4.223,4,4.5,4h5C9.775,4,10,4.224,10,4.5V6.5z M16,6V2h-2V1c0-0.553-0.447-1-1-1H1C0.448,0,0,0.448,0,1v14
		c0,0.553,0.448,1,1,1h12c0.553,0,1-0.447,1-1v-1h1v-2h-1v-2h1V8h-1V6H16z M14,3h1v2h-1V3z M13,14.5c0,0.275-0.225,0.5-0.5,0.5h-11
		C1.224,15,1,14.775,1,14.5v-13C1,1.224,1.224,1,1.5,1h11C12.775,1,13,1.224,13,1.5V14.5z"/>
</g>
<g id="Layer_1">
</g>
</svg>
