<?xml version="1.0" encoding="iso-8859-1"?>
<!-- Generator: Adobe Illustrator 16.0.0, SVG Export Plug-In . SVG Version: 6.00 Build 0)  -->
<!DOCTYPE svg PUBLIC "-//W3C//DTD SVG 1.1//EN" "http://www.w3.org/Graphics/SVG/1.1/DTD/svg11.dtd">
<svg version="1.1" xmlns="http://www.w3.org/2000/svg" xmlns:xlink="http://www.w3.org/1999/xlink" x="0px" y="0px" width="16px"
	 height="16px" viewBox="0 0 16 16" style="enable-background:new 0 0 16 16;" xml:space="preserve">
<g id="_x32_5-document_-_printer" style="enable-background:new    ;">
	<path d="M15,8.998h-2V0.999c0-0.552-0.447-1-1-1H4c-0.552,0-1,0.448-1,1v7.999H1c-0.552,0-1,0.448-1,1.001v3c0,0.552,0.448,1,1,1h2
		v1.5c0,0.276,0.224,0.499,0.5,0.499h9c0.275,0,0.5-0.223,0.5-0.499v-1.5h2c0.553,0,1-0.448,1-1v-3C16,9.446,15.553,8.998,15,8.998z
		 M4,1.499c0-0.276,0.224-0.5,0.5-0.5h7c0.275,0,0.5,0.224,0.5,0.5v7c0,0.275-0.225,0.499-0.5,0.499h-7C4.224,8.998,4,8.774,4,8.499
		V1.499z M12,14.499c0,0.275-0.225,0.5-0.5,0.5h-7c-0.276,0-0.5-0.225-0.5-0.5v-2c0-0.276,0.224-0.5,0.5-0.5h7
		c0.275,0,0.5,0.224,0.5,0.5V14.499z M15,12.499c0,0.275-0.225,0.5-0.5,0.5H13v-1.5c0-0.276-0.225-0.5-0.5-0.5h-9
		c-0.276,0-0.5,0.224-0.5,0.5v1.5H1.5c-0.276,0-0.5-0.225-0.5-0.5v-2.001c0-0.275,0.224-0.499,0.5-0.499h13
		c0.275,0,0.5,0.224,0.5,0.499V12.499z"/>
</g>
<g id="Layer_1">
</g>
</svg>
