<?xml version="1.0" encoding="iso-8859-1"?>
<!-- Generator: Adobe Illustrator 16.0.0, SVG Export Plug-In . SVG Version: 6.00 Build 0)  -->
<!DOCTYPE svg PUBLIC "-//W3C//DTD SVG 1.1//EN" "http://www.w3.org/Graphics/SVG/1.1/DTD/svg11.dtd">
<svg version="1.1" xmlns="http://www.w3.org/2000/svg" xmlns:xlink="http://www.w3.org/1999/xlink" x="0px" y="0px" width="16px"
	 height="16px" viewBox="0 0 16 16" style="enable-background:new 0 0 16 16;" xml:space="preserve">
<g id="_x33_9-document_-_profile_newspaper" style="enable-background:new    ;">
	<path d="M5.5,4.999c-1.933,0-3.5,1.566-3.5,3.5s1.567,3.5,3.5,3.5S9,10.433,9,8.499S7.433,4.999,5.5,4.999z M5.5,10.999
		c-1.381,0-2.5-1.12-2.5-2.5c0-1.381,1.119-2.5,2.5-2.5c1.38,0,2.5,1.119,2.5,2.5C8,9.879,6.88,10.999,5.5,10.999z M13.5,10.999h-3
		c-0.275,0-0.5,0.224-0.5,0.5c0,0.275,0.225,0.5,0.5,0.5h3c0.275,0,0.5-0.225,0.5-0.5C14,11.223,13.775,10.999,13.5,10.999z
		 M13,1.999H3c-1.657,0-3,1.343-3,3v7c0,1.656,1.343,2.999,3,2.999h10c1.656,0,3-1.343,3-2.999v-7C16,3.342,14.656,1.999,13,1.999z
		 M15,12.499c0,0.828-0.672,1.5-1.5,1.5h-11c-0.829,0-1.5-0.672-1.5-1.5v-8c0-0.829,0.671-1.5,1.5-1.5h11c0.828,0,1.5,0.671,1.5,1.5
		V12.499z M13.5,4.999h-3c-0.275,0-0.5,0.224-0.5,0.5s0.225,0.5,0.5,0.5h3c0.275,0,0.5-0.224,0.5-0.5S13.775,4.999,13.5,4.999z
		 M13.5,6.999h-3c-0.275,0-0.5,0.224-0.5,0.5c0,0.275,0.225,0.5,0.5,0.5h3c0.275,0,0.5-0.225,0.5-0.5
		C14,7.223,13.775,6.999,13.5,6.999z M13.5,8.998h-3c-0.275,0-0.5,0.225-0.5,0.501s0.225,0.5,0.5,0.5h3c0.275,0,0.5-0.224,0.5-0.5
		S13.775,8.998,13.5,8.998z"/>
</g>
<g id="Layer_1">
</g>
</svg>
