<?xml version="1.0" encoding="iso-8859-1"?>
<!-- Generator: Adobe Illustrator 16.0.0, SVG Export Plug-In . SVG Version: 6.00 Build 0)  -->
<!DOCTYPE svg PUBLIC "-//W3C//DTD SVG 1.1//EN" "http://www.w3.org/Graphics/SVG/1.1/DTD/svg11.dtd">
<svg version="1.1" xmlns="http://www.w3.org/2000/svg" xmlns:xlink="http://www.w3.org/1999/xlink" x="0px" y="0px" width="16px"
	 height="16px" viewBox="0 0 16 16" style="enable-background:new 0 0 16 16;" xml:space="preserve">
<g id="_x31_5-document_-_file" style="enable-background:new    ;">
	<path d="M11.5,10.998h-6c-0.276,0-0.5,0.225-0.5,0.5c0,0.276,0.224,0.5,0.5,0.5h6c0.275,0,0.5-0.224,0.5-0.5
		C12,11.223,11.775,10.998,11.5,10.998z M5,8.499c0,0.275,0.224,0.5,0.5,0.5h6c0.275,0,0.5-0.225,0.5-0.5
		c0-0.276-0.225-0.501-0.5-0.501h-6C5.224,7.998,5,8.223,5,8.499z M11-0.002H2.5C2.224-0.002,2,0.223,2,0.499v14.999
		c0,0.277,0.224,0.501,0.5,0.501h12c0.275,0,0.5-0.224,0.5-0.501v-11.5L11-0.002z M11,1.812l2.188,2.187H11V1.812z M14,14.498
		c0,0.276-0.225,0.5-0.5,0.5h-10c-0.276,0-0.5-0.224-0.5-0.5v-13c0-0.275,0.224-0.499,0.5-0.499H10v2.999v1.001h1h3V14.498z"/>
</g>
<g id="Layer_1">
</g>
</svg>
