<?xml version="1.0" encoding="iso-8859-1"?>
<!-- Generator: Adobe Illustrator 16.0.0, SVG Export Plug-In . SVG Version: 6.00 Build 0)  -->
<!DOCTYPE svg PUBLIC "-//W3C//DTD SVG 1.1//EN" "http://www.w3.org/Graphics/SVG/1.1/DTD/svg11.dtd">
<svg version="1.1" xmlns="http://www.w3.org/2000/svg" xmlns:xlink="http://www.w3.org/1999/xlink" x="0px" y="0px" width="16px"
	 height="16px" viewBox="0 0 16 16" style="enable-background:new 0 0 16 16;" xml:space="preserve">
<g id="_x36_2-business_-_tie_job" style="enable-background:new    ;">
	<path d="M11.5-0.001h-6l1,5l-1,2v5.5c0,0,0.283,0.657,0.527,1.027C7,14.999,8.5,15.999,8.5,15.999s1.5-1,2.481-2.48
		c0.242-0.364,0.52-1.02,0.52-1.02v-5.5l-1-2L11.5-0.001z M10.5,0.999l-0.857,3H7.357l-0.857-3H10.5z M10.5,12.499l-2,2.5
		l-1.662-2.077l3.663-2.126V12.499z M10.5,9.646l-4,2.321v-2.22l3.289-1.913L9.311,7.001L6.5,8.637V6.999l1-2h2l1,2V9.646z"/>
</g>
<g id="Layer_1">
</g>
</svg>
