<?xml version="1.0" encoding="iso-8859-1"?>
<!-- Generator: Adobe Illustrator 16.0.0, SVG Export Plug-In . SVG Version: 6.00 Build 0)  -->
<!DOCTYPE svg PUBLIC "-//W3C//DTD SVG 1.1//EN" "http://www.w3.org/Graphics/SVG/1.1/DTD/svg11.dtd">
<svg version="1.1" xmlns="http://www.w3.org/2000/svg" xmlns:xlink="http://www.w3.org/1999/xlink" x="0px" y="0px" width="16px"
	 height="16px" viewBox="0 0 16 16" style="enable-background:new 0 0 16 16;" xml:space="preserve">
<g id="_x32_-document_-_article_news_newspaper" style="enable-background:new    ;">
	<path d="M5,9.992h9v-1H5V9.992z M5,12.996h9v-1.001H5V12.996z M14.5-0.001h-10C3.671-0.001,3,0.691,3,1.547v2.44H1.5
		C0.671,3.987,0,4.659,0,5.488v9.009c0,0.829,0.671,1.502,1.5,1.502h5c0,0,0.001,0,0.001,0H14.5c0.828,0,1.5-0.693,1.5-1.549V1.547
		C16,0.691,15.328-0.001,14.5-0.001z M15,14.45c0,0.285-0.225,0.516-0.5,0.516H6.655c-0.049,0.017-0.1,0.032-0.155,0.032h-5
		c-0.276,0-0.5-0.225-0.5-0.501V5.488c0-0.276,0.224-0.5,0.5-0.5H3v7.914h1V4.988V4.644V1.547c0-0.285,0.224-0.516,0.5-0.516h10
		c0.275,0,0.5,0.23,0.5,0.516V14.45z M13,2.985H6c-0.552,0-1,0.449-1,1.002v2.002c0,0.553,0.448,1,1,1h7c0.553,0,1-0.447,1-1V3.987
		C14,3.435,13.553,2.985,13,2.985z M13,5.488c0,0.276-0.225,0.501-0.5,0.501h-6C6.224,5.989,6,5.765,6,5.488V4.487
		c0-0.276,0.224-0.5,0.5-0.5h6c0.275,0,0.5,0.224,0.5,0.5V5.488z"/>
</g>
<g id="Layer_1">
</g>
</svg>
