<?xml version="1.0" encoding="iso-8859-1"?>
<!-- Generator: Adobe Illustrator 16.0.0, SVG Export Plug-In . SVG Version: 6.00 Build 0)  -->
<!DOCTYPE svg PUBLIC "-//W3C//DTD SVG 1.1//EN" "http://www.w3.org/Graphics/SVG/1.1/DTD/svg11.dtd">
<svg version="1.1" xmlns="http://www.w3.org/2000/svg" xmlns:xlink="http://www.w3.org/1999/xlink" x="0px" y="0px" width="16px"
	 height="16px" viewBox="0 0 16 16" style="enable-background:new 0 0 16 16;" xml:space="preserve">
<g id="_x37_5-document_-__drawer_box_shelf_dashboard" style="enable-background:new    ;">
	<path d="M13,1.999H3c-0.552,0-1,0.447-1,1v8c0,0.552,0.448,1,1,1h2v1c0,0.552,0.448,1,1,1h4c0.553,0,1-0.448,1-1v-1h2
		c0.553,0,1-0.448,1-1v-8C14,2.446,13.553,1.999,13,1.999z M13,10.498c0,0.277-0.225,0.501-0.5,0.501H10v2H9.5h-3H6v-2H3.5
		c-0.276,0-0.5-0.224-0.5-0.501V3.499c0-0.276,0.224-0.5,0.5-0.5h9c0.275,0,0.5,0.224,0.5,0.5V10.498z M15-0.001H1
		c-0.552,0-1,0.448-1,1v14c0,0.552,0.448,1,1,1h14c0.553,0,1-0.448,1-1v-14C16,0.447,15.553-0.001,15-0.001z M15,14.498
		c0,0.277-0.225,0.501-0.5,0.501h-13c-0.276,0-0.5-0.224-0.5-0.501V1.499c0-0.276,0.224-0.5,0.5-0.5h13c0.275,0,0.5,0.224,0.5,0.5
		V14.498z"/>
</g>
<g id="Layer_1">
</g>
</svg>
