<?xml version="1.0" encoding="iso-8859-1"?>
<!-- Generator: Adobe Illustrator 16.0.0, SVG Export Plug-In . SVG Version: 6.00 Build 0)  -->
<!DOCTYPE svg PUBLIC "-//W3C//DTD SVG 1.1//EN" "http://www.w3.org/Graphics/SVG/1.1/DTD/svg11.dtd">
<svg version="1.1" xmlns="http://www.w3.org/2000/svg" xmlns:xlink="http://www.w3.org/1999/xlink" x="0px" y="0px" width="16px"
	 height="16px" viewBox="0 0 16 16" style="enable-background:new 0 0 16 16;" xml:space="preserve">
<g id="_x35_9-document_-_analytic_graph_up" style="enable-background:new    ;">
	<path d="M12.75,3.968c-0.238-0.139-0.545-0.056-0.684,0.183L8.978,6.972l-2.441-1.74C6.411,5.046,6.164,4.968,5.932,5.014
		C5.887,5.021,5.847,5.032,5.806,5.05C5.796,5.054,5.787,5.054,5.778,5.058C5.769,5.063,5.765,5.069,5.756,5.074
		C5.72,5.095,5.688,5.119,5.658,5.148C5.629,5.175,5.604,5.202,5.583,5.233C5.579,5.24,5.571,5.245,5.567,5.252l-2.5,2.989
		C2.929,8.482,3.011,8.79,3.25,8.929c0.239,0.14,0.545,0.057,0.683-0.185l2.205-2.635l2.326,1.656
		c0.052,0.077,0.129,0.129,0.214,0.17C8.707,7.964,8.712,8.009,8.75,8.03c0.239,0.138,0.545,0.056,0.684-0.184l3.5-3.196
		C13.07,4.411,12.988,4.105,12.75,3.968z M15.5,0.999H14H2H0.5c-0.276,0-0.5,0.224-0.5,0.5s0.224,0.5,0.5,0.5H1v9
		c0,0.552,0.448,1,1,1h4.319L5.074,14.29c-0.153,0.228-0.062,0.518,0.204,0.649c0.266,0.131,0.605,0.054,0.759-0.174l1.389-2.559
		c0.045-0.065,0.063-0.137,0.068-0.208h1.013c0.005,0.071,0.023,0.143,0.068,0.208l1.388,2.559c0.154,0.228,0.494,0.305,0.76,0.174
		c0.266-0.132,0.355-0.422,0.203-0.649l-1.244-2.291H14c0.553,0,1-0.448,1-1v-9h0.5c0.275,0,0.5-0.224,0.5-0.5
		S15.775,0.999,15.5,0.999z M14,10.499c0,0.275-0.225,0.5-0.5,0.5h-11c-0.276,0-0.5-0.225-0.5-0.5v-8c0-0.276,0.224-0.5,0.5-0.5h11
		c0.275,0,0.5,0.224,0.5,0.5V10.499z"/>
</g>
<g id="Layer_1">
</g>
</svg>
