<?xml version="1.0" encoding="iso-8859-1"?>
<!-- Generator: Adobe Illustrator 16.0.0, SVG Export Plug-In . SVG Version: 6.00 Build 0)  -->
<!DOCTYPE svg PUBLIC "-//W3C//DTD SVG 1.1//EN" "http://www.w3.org/Graphics/SVG/1.1/DTD/svg11.dtd">
<svg version="1.1" xmlns="http://www.w3.org/2000/svg" xmlns:xlink="http://www.w3.org/1999/xlink" x="0px" y="0px" width="16px"
	 height="16px" viewBox="0 0 16 16" style="enable-background:new 0 0 16 16;" xml:space="preserve">
<g id="_x36_3-business_-_tie_job" style="enable-background:new    ;">
	<path d="M11-0.001H5l1,5l-1,2v5.5c0,0,0.283,0.657,0.527,1.027C6.5,14.999,8,15.999,8,15.999s1.5-1,2.48-2.48
		c0.242-0.364,0.52-1.02,0.52-1.02v-5.5l-1-2L11-0.001z M10,0.999l-0.857,3H6.857L6,0.999H10z M10,12.499l-2,2.5l-2-2.5v-5.5l1-2h2
		l1,2V12.499z"/>
</g>
<g id="Layer_1">
</g>
</svg>
