<?xml version="1.0" encoding="iso-8859-1"?>
<!-- Generator: Adobe Illustrator 16.0.0, SVG Export Plug-In . SVG Version: 6.00 Build 0)  -->
<!DOCTYPE svg PUBLIC "-//W3C//DTD SVG 1.1//EN" "http://www.w3.org/Graphics/SVG/1.1/DTD/svg11.dtd">
<svg version="1.1" id="Layer_1" xmlns="http://www.w3.org/2000/svg" xmlns:xlink="http://www.w3.org/1999/xlink" x="0px" y="0px"
	 width="16px" height="16px" viewBox="0 0 16 16" style="enable-background:new 0 0 16 16;" xml:space="preserve">
<path d="M13,16H2c-1.104,0-2-0.896-2-2V6V5V2c0-1.104,0.896-2,2-2h4c1.104,0,2,0.896,2,2h5c1.104,0,2,0.896,2,2v1v1v1v7
	C15,15.104,14.104,16,13,16z M14,4c0-0.552-0.447-1-1-1h-1H8H7V2c0-0.552-0.448-1-1-1H2C1.448,1,1,1.448,1,2v1v1v1h13V4z M14,8.723
	V7V6H1v1v0.723V14c0,0.553,0.448,1,1,1h11c0.553,0,1-0.447,1-1V8.723z M6.839,12.817c-0.036,0.036-0.089,0.031-0.132,0.055
	c-0.072,0.041-0.14,0.093-0.219,0.09c-0.132,0.002-0.264-0.044-0.364-0.145c-0.02-0.02-0.014-0.049-0.03-0.071l-1.979-1.821
	c-0.188-0.214-0.188-0.559,0-0.771c0.188-0.214,0.493-0.214,0.681,0l1.712,1.575l3.622-3.583c0.197-0.195,0.518-0.195,0.715,0
	c0.198,0.196,0.198,0.514,0,0.709L6.839,12.817z"/>
</svg>
