<?xml version="1.0" encoding="iso-8859-1"?>
<!-- Generator: Adobe Illustrator 16.0.0, SVG Export Plug-In . SVG Version: 6.00 Build 0)  -->
<!DOCTYPE svg PUBLIC "-//W3C//DTD SVG 1.1//EN" "http://www.w3.org/Graphics/SVG/1.1/DTD/svg11.dtd">
<svg version="1.1" id="Layer_1" xmlns="http://www.w3.org/2000/svg" xmlns:xlink="http://www.w3.org/1999/xlink" x="0px" y="0px"
	 width="16px" height="16px" viewBox="0 0 16 16" style="enable-background:new 0 0 16 16;" xml:space="preserve">
<path d="M13,16H2c-1.104,0-2-0.896-2-2V6V5V2c0-1.104,0.896-2,2-2h4c1.104,0,2,0.896,2,2h5c1.104,0,2,0.896,2,2v1v1v1v7
	C15,15.104,14.104,16,13,16z M14,4c0-0.552-0.447-1-1-1h-1H8H7V2c0-0.552-0.448-1-1-1H2C1.448,1,1,1.448,1,2v1v1v1h13V4z M14,8.723
	V7V6H1v1v0.723V14c0,0.553,0.448,1,1,1h11c0.553,0,1-0.447,1-1V8.723z M9.5,10.999H8v1.5c0,0.275-0.224,0.5-0.5,0.5
	S7,12.774,7,12.499v-1.5H5.5c-0.276,0-0.5-0.225-0.5-0.5c0-0.276,0.224-0.5,0.5-0.5H7v-1.5c0-0.276,0.224-0.501,0.5-0.501
	S8,8.223,8,8.499v1.5h1.5c0.276,0,0.5,0.224,0.5,0.5C10,10.774,9.776,10.999,9.5,10.999z"/>
</svg>
