<?xml version="1.0" encoding="iso-8859-1"?>
<!-- Generator: Adobe Illustrator 16.0.0, SVG Export Plug-In . SVG Version: 6.00 Build 0)  -->
<!DOCTYPE svg PUBLIC "-//W3C//DTD SVG 1.1//EN" "http://www.w3.org/Graphics/SVG/1.1/DTD/svg11.dtd">
<svg version="1.1" xmlns="http://www.w3.org/2000/svg" xmlns:xlink="http://www.w3.org/1999/xlink" x="0px" y="0px" width="16px"
	 height="16px" viewBox="0 0 16 16" style="enable-background:new 0 0 16 16;" xml:space="preserve">
<g id="_x37_9-document_-_drawer_dashboard" style="enable-background:new    ;">
	<path d="M14-0.001H2l-2,9v1v5c0,0.552,0.448,1,1,1h14c0.553,0,1-0.448,1-1v-5v-1L14-0.001z M15,14.498
		c0,0.277-0.225,0.501-0.5,0.501h-13c-0.276,0-0.5-0.224-0.5-0.501v-4c0-0.275,0.224-0.499,0.5-0.499H4v2h8v-2h2.5
		c0.275,0,0.5,0.224,0.5,0.499V14.498z M11,8.999v2H5v-2H1l2-8h10l2,8H11z"/>
</g>
<g id="Layer_1">
</g>
</svg>
