<?xml version="1.0" encoding="iso-8859-1"?>
<!-- Generator: Adobe Illustrator 16.0.0, SVG Export Plug-In . SVG Version: 6.00 Build 0)  -->
<!DOCTYPE svg PUBLIC "-//W3C//DTD SVG 1.1//EN" "http://www.w3.org/Graphics/SVG/1.1/DTD/svg11.dtd">
<svg version="1.1" xmlns="http://www.w3.org/2000/svg" xmlns:xlink="http://www.w3.org/1999/xlink" x="0px" y="0px" width="16px"
	 height="16px" viewBox="0 0 16 16" style="enable-background:new 0 0 16 16;" xml:space="preserve">
<g id="_x33_-document_-_article_news_newspaper" style="enable-background:new    ;">
	<path d="M13.5,11.999h-11c-0.276,0-0.5,0.224-0.5,0.5s0.224,0.5,0.5,0.5h11c0.275,0,0.5-0.224,0.5-0.5S13.775,11.999,13.5,11.999z
		 M13.5,9.999h-11c-0.276,0-0.5,0.224-0.5,0.5s0.224,0.5,0.5,0.5h11c0.275,0,0.5-0.224,0.5-0.5S13.775,9.999,13.5,9.999z
		 M13.5,7.999h-11c-0.276,0-0.5,0.224-0.5,0.5s0.224,0.5,0.5,0.5h11c0.275,0,0.5-0.224,0.5-0.5S13.775,7.999,13.5,7.999z M3,6.999h4
		c0.552,0,1-0.448,1-1v-3c0-0.553-0.448-1-1-1H3c-0.552,0-1,0.447-1,1v3C2,6.551,2.448,6.999,3,6.999z M3,3.498
		c0-0.275,0.224-0.499,0.5-0.499h3c0.276,0,0.5,0.224,0.5,0.499v2.001c0,0.276-0.224,0.5-0.5,0.5h-3c-0.276,0-0.5-0.224-0.5-0.5
		V3.498z M13.5,5.999h-4c-0.275,0-0.5,0.224-0.5,0.5s0.225,0.5,0.5,0.5h4c0.275,0,0.5-0.224,0.5-0.5S13.775,5.999,13.5,5.999z
		 M13.5,1.999h-4c-0.275,0-0.5,0.224-0.5,0.5c0,0.275,0.225,0.5,0.5,0.5h4c0.275,0,0.5-0.225,0.5-0.5
		C14,2.223,13.775,1.999,13.5,1.999z M15-0.001H1c-0.552,0-1,0.447-1,1v14c0,0.552,0.448,1,1,1h14c0.553,0,1-0.448,1-1v-14
		C16,0.446,15.553-0.001,15-0.001z M15,14.499c0,0.276-0.225,0.5-0.5,0.5h-13c-0.276,0-0.5-0.224-0.5-0.5v-13
		c0-0.276,0.224-0.5,0.5-0.5h13c0.275,0,0.5,0.224,0.5,0.5V14.499z M13.5,3.999h-4c-0.275,0-0.5,0.224-0.5,0.5s0.225,0.5,0.5,0.5h4
		c0.275,0,0.5-0.224,0.5-0.5S13.775,3.999,13.5,3.999z"/>
</g>
<g id="Layer_1">
</g>
</svg>
