<?xml version="1.0" encoding="iso-8859-1"?>
<!-- Generator: Adobe Illustrator 16.0.0, SVG Export Plug-In . SVG Version: 6.00 Build 0)  -->
<!DOCTYPE svg PUBLIC "-//W3C//DTD SVG 1.1//EN" "http://www.w3.org/Graphics/SVG/1.1/DTD/svg11.dtd">
<svg version="1.1" xmlns="http://www.w3.org/2000/svg" xmlns:xlink="http://www.w3.org/1999/xlink" x="0px" y="0px" width="16px"
	 height="16px" viewBox="0 0 16 16" style="enable-background:new 0 0 16 16;" xml:space="preserve">
<g id="_x32_0-document_-_book_paper" style="enable-background:new    ;">
	<path d="M10,8.999h2v-1h-2V8.999z M10,10.999h2v-1h-2V10.999z M10,4.999h2v-1h-2V4.999z M10,6.999h2v-1h-2V6.999z M7,3.999H5v1h2
		V3.999z M15,1.998h-1c0-0.552-0.447-0.999-1-0.999H4c-0.552,0-1,0.447-1,0.999H2c-0.552,0-1,0.448-1,1.001v12c0,0.553,0.448,1,1,1
		h13c0.553,0,1-0.447,1-1v-12C16,2.446,15.553,1.998,15,1.998z M9,1.998h3.5c0.275,0,0.5,0.225,0.5,0.501v10
		c0,0.275-0.225,0.5-0.5,0.5H9V1.998z M4,2.499c0-0.276,0.224-0.501,0.5-0.501H8v11.001H4.5c-0.276,0-0.5-0.225-0.5-0.5V2.499z
		 M15,14.499c0,0.276-0.225,0.5-0.5,0.5h-12c-0.276,0-0.5-0.224-0.5-0.5v-11c0-0.276,0.224-0.5,0.5-0.5H3v10c0,0.552,0.448,1,1,1h9
		c0.553,0,1-0.448,1-1v-10h0.5c0.275,0,0.5,0.224,0.5,0.5V14.499z M7,5.999H5v1h2V5.999z M7,9.999H5v1h2V9.999z M7,7.999H5v1h2
		V7.999z"/>
</g>
<g id="Layer_1">
</g>
</svg>
