<?xml version="1.0" encoding="iso-8859-1"?>
<!-- Generator: Adobe Illustrator 16.0.0, SVG Export Plug-In . SVG Version: 6.00 Build 0)  -->
<!DOCTYPE svg PUBLIC "-//W3C//DTD SVG 1.1//EN" "http://www.w3.org/Graphics/SVG/1.1/DTD/svg11.dtd">
<svg version="1.1" xmlns="http://www.w3.org/2000/svg" xmlns:xlink="http://www.w3.org/1999/xlink" x="0px" y="0px" width="16px"
	 height="16px" viewBox="0 0 16 16" style="enable-background:new 0 0 16 16;" xml:space="preserve">
<g id="_x39_6-document_-_blank_document_minus_delete" style="enable-background:new    ;">
	<path d="M4,9.999h5v-1H4V9.999z M11,2.999H2c-0.552,0-1,0.447-1,1v11c0,0.553,0.448,1,1,1h9c0.553,0,1-0.447,1-1v-11
		C12,3.446,11.553,2.999,11,2.999z M11,14.498c0,0.276-0.225,0.501-0.5,0.501h-8c-0.276,0-0.5-0.225-0.5-0.501V4.499
		c0-0.276,0.224-0.5,0.5-0.5h8c0.275,0,0.5,0.224,0.5,0.5V14.498z M14-0.001H6c-0.552,0-1,0.448-1,1v1h1v-0.5
		c0-0.276,0.224-0.5,0.5-0.5h7c0.275,0,0.5,0.224,0.5,0.5v10c0,0.275-0.225,0.5-0.5,0.5H13v1h1c0.553,0,1-0.448,1-1v-11
		C15,0.447,14.553-0.001,14-0.001z"/>
</g>
<g id="Layer_1">
</g>
</svg>
