<?xml version="1.0" encoding="iso-8859-1"?>
<!-- Generator: Adobe Illustrator 16.0.0, SVG Export Plug-In . SVG Version: 6.00 Build 0)  -->
<!DOCTYPE svg PUBLIC "-//W3C//DTD SVG 1.1//EN" "http://www.w3.org/Graphics/SVG/1.1/DTD/svg11.dtd">
<svg version="1.1" xmlns="http://www.w3.org/2000/svg" xmlns:xlink="http://www.w3.org/1999/xlink" x="0px" y="0px" width="16px"
	 height="16px" viewBox="0 0 16 16" style="enable-background:new 0 0 16 16;" xml:space="preserve">
<g id="_x33_4-document_-_folder_tick_done" style="enable-background:new    ;">
	<path d="M12.131,7.141l-4.69,4.688L4.821,9.642c-0.188-0.188-0.492-0.188-0.679,0c-0.188,0.187-0.188,0.49,0,0.678l2.989,2.497
		c0.006,0.007,0.003,0.019,0.01,0.025c0.099,0.099,0.228,0.147,0.357,0.147c0.13,0.005,0.26-0.034,0.359-0.133
		c0.009-0.009,0.005-0.022,0.013-0.031l4.971-4.973c0.197-0.196,0.197-0.516,0-0.712C12.646,6.943,12.326,6.943,12.131,7.141z
		 M15,1.999H7v-1c0-0.552-0.448-1-1-1H1c-0.552,0-1,0.448-1,1v2v1v1v10c0,0.552,0.448,1,1,1h14c0.553,0,1-0.448,1-1v-10v-2
		C16,2.446,15.553,1.999,15,1.999z M15,5.499v0.5v8.5c0,0.276-0.225,0.5-0.5,0.5h-13c-0.276,0-0.5-0.224-0.5-0.5v-8.5v-0.5v-0.5h0.5
		h13H15V5.499z M14.5,3.999h-1H1v-1v-0.5v-0.5v-0.5c0-0.275,0.224-0.5,0.5-0.5h4c0.276,0,0.5,0.225,0.5,0.5v0.5v0.5v0.5h7.5h1
		c0.275,0,0.5,0.224,0.5,0.499C15,3.775,14.775,3.999,14.5,3.999z"/>
</g>
<g id="Layer_1">
</g>
</svg>
