<?xml version="1.0" encoding="iso-8859-1"?>
<!-- Generator: Adobe Illustrator 16.0.0, SVG Export Plug-In . SVG Version: 6.00 Build 0)  -->
<!DOCTYPE svg PUBLIC "-//W3C//DTD SVG 1.1//EN" "http://www.w3.org/Graphics/SVG/1.1/DTD/svg11.dtd">
<svg version="1.1" xmlns="http://www.w3.org/2000/svg" xmlns:xlink="http://www.w3.org/1999/xlink" x="0px" y="0px" width="16px"
	 height="16px" viewBox="0 0 16 16" style="enable-background:new 0 0 16 16;" xml:space="preserve">
<g id="_x38_2-document_-_briefcase_case_bag" style="enable-background:new    ;">
	<path d="M14,2.999h-3v-1.5c0-0.276-0.225-0.5-0.5-0.5h-5c-0.276,0-0.5,0.224-0.5,0.5v1.5H2c-1.104,0-2,0.896-2,2v2v1v6
		c0,1.104,0.896,2,2,2h12c1.104,0,2-0.896,2-2v-6v-1v-2C16,3.895,15.104,2.999,14,2.999z M6,2.499c0-0.276,0.224-0.5,0.5-0.5h3
		c0.275,0,0.5,0.224,0.5,0.5v0.5H9.5h-3H6V2.499z M15,13.999c0,0.552-0.447,1-1,1H2c-0.552,0-1-0.448-1-1v-6h4v3h6v-3h4V13.999z
		 M6,9.999v-2h4v2H6z M15,6.999h-4H5H1v-2c0-0.553,0.448-1,1-1h12c0.553,0,1,0.447,1,1V6.999z"/>
</g>
<g id="Layer_1">
</g>
</svg>
