<?xml version="1.0" encoding="iso-8859-1"?>
<!-- Generator: Adobe Illustrator 16.0.0, SVG Export Plug-In . SVG Version: 6.00 Build 0)  -->
<!DOCTYPE svg PUBLIC "-//W3C//DTD SVG 1.1//EN" "http://www.w3.org/Graphics/SVG/1.1/DTD/svg11.dtd">
<svg version="1.1" xmlns="http://www.w3.org/2000/svg" xmlns:xlink="http://www.w3.org/1999/xlink" x="0px" y="0px" width="16px"
	 height="16px" viewBox="0 0 16 16" style="enable-background:new 0 0 16 16;" xml:space="preserve">
<g id="_x37_3-document_-_paper_article_news" style="enable-background:new    ;">
	<path d="M13-0.001H3c-0.552,0-1,0.448-1,1v14c0,0.552,0.448,1,1,1h10c0.553,0,1-0.448,1-1v-14C14,0.447,13.553-0.001,13-0.001z
		 M13,14.498c0,0.277-0.225,0.501-0.5,0.501h-9c-0.276,0-0.5-0.224-0.5-0.501V1.499c0-0.276,0.224-0.5,0.5-0.5h9
		c0.275,0,0.5,0.224,0.5,0.5V14.498z M4.5,3.999h4c0.276,0,0.5-0.224,0.5-0.501c0-0.275-0.224-0.499-0.5-0.499h-4
		C4.224,2.999,4,3.223,4,3.498C4,3.775,4.224,3.999,4.5,3.999z M11.5,11.999h-7c-0.276,0-0.5,0.224-0.5,0.5
		c0,0.275,0.224,0.5,0.5,0.5h7c0.275,0,0.5-0.225,0.5-0.5C12,12.223,11.775,11.999,11.5,11.999z M11.5,5.999h-7
		c-0.276,0-0.5,0.224-0.5,0.5c0,0.275,0.224,0.499,0.5,0.499h7c0.275,0,0.5-0.224,0.5-0.499C12,6.223,11.775,5.999,11.5,5.999z
		 M11.5,8.999h-7c-0.276,0-0.5,0.224-0.5,0.5c0,0.275,0.224,0.5,0.5,0.5h7c0.275,0,0.5-0.225,0.5-0.5
		C12,9.223,11.775,8.999,11.5,8.999z"/>
</g>
<g id="Layer_1">
</g>
</svg>
