<?xml version="1.0" encoding="iso-8859-1"?>
<!-- Generator: Adobe Illustrator 16.0.0, SVG Export Plug-In . SVG Version: 6.00 Build 0)  -->
<!DOCTYPE svg PUBLIC "-//W3C//DTD SVG 1.1//EN" "http://www.w3.org/Graphics/SVG/1.1/DTD/svg11.dtd">
<svg version="1.1" xmlns="http://www.w3.org/2000/svg" xmlns:xlink="http://www.w3.org/1999/xlink" x="0px" y="0px" width="16px"
	 height="16px" viewBox="0 0 16 16" style="enable-background:new 0 0 16 16;" xml:space="preserve">
<g id="_x33_8-document_-_profile_newspaper" style="enable-background:new    ;">
	<path d="M9,7.499c0-1.934-1.566-3.5-3.5-3.5S2,5.565,2,7.499c0,1.933,1.567,3.5,3.5,3.5S9,9.432,9,7.499z M3,7.499
		c0-1.381,1.119-2.5,2.5-2.5S8,6.118,8,7.499s-1.119,2.5-2.5,2.5S3,8.88,3,7.499z M13,0.999H3c-1.657,0-3,1.343-3,3v7v1.5v1v1.499
		c0,0.553,0.448,1.001,1,1.001h0.5h2h11c0.275,0,0.5-0.224,0.5-0.5s-0.225-0.501-0.5-0.501h-10h-3c-0.276,0-0.5-0.223-0.5-0.499
		s0-1,0-1v-0.5v-1.5v-0.5v-7.5c0-0.828,0.671-1.5,1.5-1.5h11c0.828,0,1.5,0.672,1.5,1.5v8c0,0.828-0.672,1.5-1.5,1.5h-9H2v1h2.5H13
		c1.656,0,3-1.343,3-3v-7C16,2.342,14.656,0.999,13,0.999z M10.5,10.999h3c0.275,0,0.5-0.225,0.5-0.5c0-0.276-0.225-0.5-0.5-0.5h-3
		c-0.275,0-0.5,0.224-0.5,0.5C10,10.774,10.225,10.999,10.5,10.999z M10.5,8.998h3c0.275,0,0.5-0.223,0.5-0.499s-0.225-0.5-0.5-0.5
		h-3c-0.275,0-0.5,0.224-0.5,0.5S10.225,8.998,10.5,8.998z M10.5,6.999h3c0.275,0,0.5-0.225,0.5-0.5c0-0.276-0.225-0.5-0.5-0.5h-3
		c-0.275,0-0.5,0.224-0.5,0.5C10,6.774,10.225,6.999,10.5,6.999z M10.5,4.999h3c0.275,0,0.5-0.224,0.5-0.5s-0.225-0.5-0.5-0.5h-3
		c-0.275,0-0.5,0.224-0.5,0.5S10.225,4.999,10.5,4.999z"/>
</g>
<g id="Layer_1">
</g>
</svg>
