<?xml version="1.0" encoding="iso-8859-1"?>
<!-- Generator: Adobe Illustrator 16.0.0, SVG Export Plug-In . SVG Version: 6.00 Build 0)  -->
<!DOCTYPE svg PUBLIC "-//W3C//DTD SVG 1.1//EN" "http://www.w3.org/Graphics/SVG/1.1/DTD/svg11.dtd">
<svg version="1.1" xmlns="http://www.w3.org/2000/svg" xmlns:xlink="http://www.w3.org/1999/xlink" x="0px" y="0px" width="16px"
	 height="16px" viewBox="0 0 16 16" style="enable-background:new 0 0 16 16;" xml:space="preserve">
<g id="_x34_8-document_-_binder_tier_four_4" style="enable-background:new    ;">
	<path d="M11.5,11.999h-7c-0.276,0-0.5,0.224-0.5,0.5c0,0.275,0.224,0.5,0.5,0.5h7c0.275,0,0.5-0.225,0.5-0.5
		C12,12.223,11.775,11.999,11.5,11.999z M14-0.002H2c-1.104,0-2,0.896-2,2.001v11.999c0,1.105,0.896,2.001,2,2.001h12
		c1.104,0,2-0.896,2-2.001V1.999C16,0.895,15.104-0.002,14-0.002z M15,13.998c0,0.553-0.447,1.001-1,1.001H2
		c-0.552,0-1-0.448-1-1.001V1.999c0-0.553,0.448-1,1-1h12c0.553,0,1,0.447,1,1V13.998z M11.5,8.999h-7c-0.276,0-0.5,0.224-0.5,0.5
		s0.224,0.5,0.5,0.5h7c0.275,0,0.5-0.224,0.5-0.5S11.775,8.999,11.5,8.999z M11.5,2.999h-7c-0.276,0-0.5,0.224-0.5,0.5
		s0.224,0.5,0.5,0.5h7c0.275,0,0.5-0.224,0.5-0.5S11.775,2.999,11.5,2.999z M11.5,5.999h-7c-0.276,0-0.5,0.224-0.5,0.5
		s0.224,0.5,0.5,0.5h7c0.275,0,0.5-0.224,0.5-0.5S11.775,5.999,11.5,5.999z"/>
</g>
<g id="Layer_1">
</g>
</svg>
