<?xml version="1.0" encoding="iso-8859-1"?>
<!-- Generator: Adobe Illustrator 16.0.0, SVG Export Plug-In . SVG Version: 6.00 Build 0)  -->
<!DOCTYPE svg PUBLIC "-//W3C//DTD SVG 1.1//EN" "http://www.w3.org/Graphics/SVG/1.1/DTD/svg11.dtd">
<svg version="1.1" xmlns="http://www.w3.org/2000/svg" xmlns:xlink="http://www.w3.org/1999/xlink" x="0px" y="0px" width="16px"
	 height="16px" viewBox="0 0 16 16" style="enable-background:new 0 0 16 16;" xml:space="preserve">
<g id="_x35_2-document_-_stack_file" style="enable-background:new    ;">
	<path d="M0,3.999v11.999h16V3.999H0z M15,14.998H1V4.999h14V14.998z M3.5,0.999H13c0.275,0,0.5-0.225,0.5-0.5
		c0-0.276-0.225-0.5-0.5-0.5H3.5c-0.276,0-0.5,0.224-0.5,0.5C3,0.774,3.224,0.999,3.5,0.999z M1.5,2.999h13
		c0.275,0,0.5-0.224,0.5-0.5s-0.225-0.501-0.5-0.501h-13C1.224,1.998,1,2.223,1,2.499S1.224,2.999,1.5,2.999z"/>
</g>
<g id="Layer_1">
</g>
</svg>
