<?xml version="1.0" encoding="iso-8859-1"?>
<!-- Generator: Adobe Illustrator 16.0.0, SVG Export Plug-In . SVG Version: 6.00 Build 0)  -->
<!DOCTYPE svg PUBLIC "-//W3C//DTD SVG 1.1//EN" "http://www.w3.org/Graphics/SVG/1.1/DTD/svg11.dtd">
<svg version="1.1" xmlns="http://www.w3.org/2000/svg" xmlns:xlink="http://www.w3.org/1999/xlink" x="0px" y="0px" width="16px"
	 height="16px" viewBox="0 0 16 16" style="enable-background:new 0 0 16 16;" xml:space="preserve">
<g id="_x35_5-document_-_pie_chart_graph" style="enable-background:new    ;">
	<path style="fill-rule:evenodd;clip-rule:evenodd;" d="M13.98,14.148C15.236,12.701,16,10.82,16,8.756
		c0-4.556-3.693-8.75-8.25-8.75c-0.781,0-0.753-0.015-1.75,0.001v2C2.857,2.695,0,5.657,0,9.006v1h0.08c0.486,3.391,3.395,6,6.921,6
		c1.918,0,3.644-0.783,4.908-2.035l0.855,0.412l0.611,0.396c0.205-0.191,0.398-0.393,0.582-0.602l0.045-0.016L13.98,14.148z
		 M6,3.007v5.999H1C1,6.211,3.414,3.674,6,3.007z M7,15.006c-2.973,0-5.434-2.164-5.911-5H6v0.002l5.047,3.41
		C9.98,14.398,8.565,15.006,7,15.006z M11.717,12.693L7,9.008V1.007c0.196,0,0.385,0,0.75,0c4.003,0,7.25,3.746,7.25,7.75
		c0,1.867-0.713,3.561-1.871,4.846l-0.568-0.365L11.717,12.693z"/>
</g>
<g id="Layer_1">
</g>
</svg>
