<?xml version="1.0" encoding="iso-8859-1"?>
<!-- Generator: Adobe Illustrator 16.0.0, SVG Export Plug-In . SVG Version: 6.00 Build 0)  -->
<!DOCTYPE svg PUBLIC "-//W3C//DTD SVG 1.1//EN" "http://www.w3.org/Graphics/SVG/1.1/DTD/svg11.dtd">
<svg version="1.1" xmlns="http://www.w3.org/2000/svg" xmlns:xlink="http://www.w3.org/1999/xlink" x="0px" y="0px" width="16px"
	 height="16px" viewBox="0 0 16 16" style="enable-background:new 0 0 16 16;" xml:space="preserve">
<g id="_x39_1-media_-_image_photo" style="enable-background:new    ;">
	<g>
		<path d="M4.5,2.999C3.671,2.999,3,3.67,3,4.498c0,0.829,0.671,1.5,1.5,1.5c0.828,0,1.5-0.671,1.5-1.5
			C6,3.67,5.328,2.999,4.5,2.999z M4.459,5.021c-0.276,0-0.5-0.224-0.5-0.5s0.224-0.5,0.5-0.5s0.5,0.224,0.5,0.5
			S4.735,5.021,4.459,5.021z"/>
		<path d="M15-0.001H1c-0.552,0-1,0.447-1,1v13.999c0,0.553,0.448,1.001,1,1.001h14c0.553,0,1-0.448,1-1.001v-1.999v-1v-11
			C16,0.446,15.553-0.001,15-0.001z M15,14.499c0,0.276-0.225,0.499-0.5,0.499h-13c-0.276,0-0.5-0.223-0.5-0.499v-1.5h14V14.499z
			 M15,11.999H3.552l3.033-3.8l3.532,2.639c0.105,0.105,0.244,0.15,0.383,0.146c0.139,0.004,0.277-0.041,0.383-0.146L15,4.229
			V11.999z M15,2.305l-4.629,7.432L6.9,7.144c-0.11-0.11-0.255-0.149-0.4-0.141c-0.145-0.009-0.29,0.03-0.4,0.141l-3.876,4.855H1
			v-10.5c0-0.276,0.224-0.5,0.5-0.5h13c0.275,0,0.5,0.224,0.5,0.5V2.305z"/>
	</g>
</g>
<g id="Layer_1">
</g>
</svg>
