<?xml version="1.0" encoding="iso-8859-1"?>
<!-- Generator: Adobe Illustrator 16.0.0, SVG Export Plug-In . SVG Version: 6.00 Build 0)  -->
<!DOCTYPE svg PUBLIC "-//W3C//DTD SVG 1.1//EN" "http://www.w3.org/Graphics/SVG/1.1/DTD/svg11.dtd">
<svg version="1.1" xmlns="http://www.w3.org/2000/svg" xmlns:xlink="http://www.w3.org/1999/xlink" x="0px" y="0px" width="16px"
	 height="16px" viewBox="0 0 16 16" style="enable-background:new 0 0 16 16;" xml:space="preserve">
<g id="_x32_6-document_-_envelope" style="enable-background:new    ;">
	<path style="fill-rule:evenodd;clip-rule:evenodd;" d="M14,0H1C0.447,0,0,0.448,0,1v14c0,0.553,0.447,1,1,1h13c0.551,0,1-0.447,1-1
		V1C15,0.448,14.551,0,14,0z M1.5,1h12c0.516,0-2,2-2,2h-8C3.5,3,0.984,1,1.5,1z M1,2l2,2h4v8H3l-2,2V2z M13.5,15h-12
		c-0.501,0,2-2,2-2h8C11.5,13,14,15,13.5,15z M14,14l-2-2H8V4h4l2-2V14z"/>
</g>
<g id="Layer_1">
</g>
</svg>
