<?xml version="1.0" encoding="iso-8859-1"?>
<!-- Generator: Adobe Illustrator 16.0.0, SVG Export Plug-In . SVG Version: 6.00 Build 0)  -->
<!DOCTYPE svg PUBLIC "-//W3C//DTD SVG 1.1//EN" "http://www.w3.org/Graphics/SVG/1.1/DTD/svg11.dtd">
<svg version="1.1" xmlns="http://www.w3.org/2000/svg" xmlns:xlink="http://www.w3.org/1999/xlink" x="0px" y="0px" width="16px"
	 height="16px" viewBox="0 0 16 16" style="enable-background:new 0 0 16 16;" xml:space="preserve">
<g id="_x32_8-document_-_eye_glass_read" style="enable-background:new    ;">
	<path d="M16,7.999h-0.24l-2.76-6h-3v1h2.24l2.391,5H1.369l2.392-5H6v-1H3l-2.761,6H0v1h0.05C0.026,9.164,0,9.328,0,9.499v2
		c0,1.934,1.567,3.5,3.5,3.5s3.5-1.566,3.5-3.5v-0.5h2v0.5c0,1.934,1.567,3.5,3.5,3.5s3.5-1.566,3.5-3.5v-2
		c0-0.171-0.027-0.335-0.051-0.5H16V7.999z M6,9.999v1v0.5c0,1.381-1.12,2.5-2.5,2.5c-1.381,0-2.5-1.119-2.5-2.5v-2
		c0-0.171,0.018-0.338,0.05-0.5H5.95C5.982,9.161,6,9.328,6,9.499V9.999z M9,9.499v0.5H7v-0.5c0-0.171-0.027-0.335-0.05-0.5h2.101
		C9.027,9.164,9,9.328,9,9.499z M15,11.499c0,1.381-1.119,2.5-2.5,2.5s-2.5-1.119-2.5-2.5v-0.5v-1v-0.5
		c0-0.171,0.018-0.338,0.051-0.5h4.898C14.982,9.161,15,9.328,15,9.499V11.499z"/>
</g>
<g id="Layer_1">
</g>
</svg>
