<?xml version="1.0" encoding="iso-8859-1"?>
<!-- Generator: Adobe Illustrator 16.0.0, SVG Export Plug-In . SVG Version: 6.00 Build 0)  -->
<!DOCTYPE svg PUBLIC "-//W3C//DTD SVG 1.1//EN" "http://www.w3.org/Graphics/SVG/1.1/DTD/svg11.dtd">
<svg version="1.1" xmlns="http://www.w3.org/2000/svg" xmlns:xlink="http://www.w3.org/1999/xlink" x="0px" y="0px" width="16px"
	 height="16px" viewBox="0 0 16 16" style="enable-background:new 0 0 16 16;" xml:space="preserve">
<g id="_x39_9-document_-_newspaper_news" style="enable-background:new    ;">
	<path d="M14,12.999H6v1h8V12.999z M14,1.999H6v1h8V1.999z M4,0v7L0,6.999v7c0,1.103,0.897,2,2,2h0.5h1h1H14c1.104,0,2-0.897,2-2
		v-14L4,0z M4,13v1v1H2v-0.001c-0.552,0-1-0.449-1-1v-6L4,8V13z M15,13.999c0,0.551-0.449,1-1,1L5,15V1l10-0.001V13.999z M14,3.999
		H6v5.999h8V3.999z M12.996,9.002H7.003V4.996h5.993V9.002z M14,10.999H6v1h8V10.999z"/>
</g>
<g id="Layer_1">
</g>
</svg>
