<?xml version="1.0" encoding="iso-8859-1"?>
<!-- Generator: Adobe Illustrator 16.0.0, SVG Export Plug-In . SVG Version: 6.00 Build 0)  -->
<!DOCTYPE svg PUBLIC "-//W3C//DTD SVG 1.1//EN" "http://www.w3.org/Graphics/SVG/1.1/DTD/svg11.dtd">
<svg version="1.1" xmlns="http://www.w3.org/2000/svg" xmlns:xlink="http://www.w3.org/1999/xlink" x="0px" y="0px" width="16px"
	 height="16px" viewBox="0 0 16 16" style="enable-background:new 0 0 16 16;" xml:space="preserve">
<g id="_x31_3-document_-_book_paper" style="enable-background:new    ;">
	<path d="M13,2.999H6c-0.552,0-1,0.447-1,0.999v3.001c0,0.552,0.448,0.999,1,0.999h7c0.553,0,1-0.447,1-0.999V3.998
		C14,3.446,13.553,2.999,13,2.999z M13,6.499c0,0.276-0.225,0.5-0.5,0.5h-6c-0.276,0-0.5-0.224-0.5-0.5v-2
		c0-0.276,0.224-0.501,0.5-0.501h6c0.275,0,0.5,0.225,0.5,0.501V6.499z M13.5,11.998h-8c-0.276,0-0.5,0.225-0.5,0.501
		c0,0.275,0.224,0.5,0.5,0.5h8c0.275,0,0.5-0.225,0.5-0.5C14,12.223,13.775,11.998,13.5,11.998z M15-0.002H1
		c-0.552,0-1,0.448-1,1.001v13.999c0,0.553,0.448,1.001,1,1.001h14c0.553,0,1-0.448,1-1.001V0.999C16,0.446,15.553-0.002,15-0.002z
		 M3,2.999H2v2h1v2H2v2h1v1.999H2v2.001h1v1.999H1.5c-0.276,0-0.5-0.224-0.5-0.499V1.498c0-0.275,0.224-0.499,0.5-0.499H3V2.999z
		 M15,14.499c0,0.275-0.225,0.499-0.5,0.499H4v-1.999v-2.001V8.999v-2v-2v-2v-2h10.5c0.275,0,0.5,0.224,0.5,0.499V14.499z
		 M13.5,9.999h-8c-0.276,0-0.5,0.224-0.5,0.5s0.224,0.499,0.5,0.499h8c0.275,0,0.5-0.223,0.5-0.499S13.775,9.999,13.5,9.999z"/>
</g>
<g id="Layer_1">
</g>
</svg>
