<?xml version="1.0" encoding="iso-8859-1"?>
<!-- Generator: Adobe Illustrator 16.0.0, SVG Export Plug-In . SVG Version: 6.00 Build 0)  -->
<!DOCTYPE svg PUBLIC "-//W3C//DTD SVG 1.1//EN" "http://www.w3.org/Graphics/SVG/1.1/DTD/svg11.dtd">
<svg version="1.1" xmlns="http://www.w3.org/2000/svg" xmlns:xlink="http://www.w3.org/1999/xlink" x="0px" y="0px" width="16px"
	 height="16px" viewBox="0 0 16 16" style="enable-background:new 0 0 16 16;" xml:space="preserve">
<g id="_x31_-document_-_article_news_newspaper" style="enable-background:new    ;">
	<path d="M5,7.999h9v-1H5V7.999z M5,10.999h9v-1H5V10.999z M14.5-0.001h-10c-0.829,0-1.5,0.672-1.5,1.5v2.5H1.5
		c-0.829,0-1.5,0.671-1.5,1.5v9c0,0.828,0.671,1.5,1.5,1.5h13c0.828,0,1.5-0.672,1.5-1.5v-13C16,0.671,15.328-0.001,14.5-0.001z
		 M15,14.499c0,0.276-0.225,0.5-0.5,0.5h-13c-0.276,0-0.5-0.224-0.5-0.5v-9c0-0.276,0.224-0.5,0.5-0.5H3v9h1v-12.5
		c0-0.276,0.224-0.5,0.5-0.5h10c0.275,0,0.5,0.224,0.5,0.5V14.499z M5,4.999h9v-1H5V4.999z"/>
</g>
<g id="Layer_1">
</g>
</svg>
