<?xml version="1.0" encoding="iso-8859-1"?>
<!-- Generator: Adobe Illustrator 16.0.0, SVG Export Plug-In . SVG Version: 6.00 Build 0)  -->
<!DOCTYPE svg PUBLIC "-//W3C//DTD SVG 1.1//EN" "http://www.w3.org/Graphics/SVG/1.1/DTD/svg11.dtd">
<svg version="1.1" xmlns="http://www.w3.org/2000/svg" xmlns:xlink="http://www.w3.org/1999/xlink" x="0px" y="0px" width="16px"
	 height="16px" viewBox="0 0 16 16" style="enable-background:new 0 0 16 16;" xml:space="preserve">
<g id="_x35_3-document_-_pie_chart_graph" style="enable-background:new    ;">
	<path d="M16,8.5C16,3.805,12.195,0,7.5,0C7.329,0,7.168,0.035,7,0.047V0H6v0.14V1.15v0.95C2.612,2.59,0,5.477,0,9
		c0,3.866,3.134,7,7,7c1.917,0,3.633-0.795,4.896-2.045L13.395,15l0.615-0.84l-0.117-0.081C15.199,12.586,16,10.64,16,8.5z M7,15
		c-3.314,0-6-2.687-6-6c0-2.972,2.165-5.421,5-5.899v6.725L5.99,9.839L6,9.846L6.221,10l4.846,3.378C9.996,14.373,8.578,15,7,15z
		 M13.07,13.505L7,9.274V3V2V1.05C7.168,1.038,7.329,1,7.5,1C11.643,1,15,4.357,15,8.5C15,10.427,14.266,12.177,13.07,13.505z"/>
</g>
<g id="Layer_1">
</g>
</svg>
