<?xml version="1.0" encoding="iso-8859-1"?>
<!-- Generator: Adobe Illustrator 16.0.0, SVG Export Plug-In . SVG Version: 6.00 Build 0)  -->
<!DOCTYPE svg PUBLIC "-//W3C//DTD SVG 1.1//EN" "http://www.w3.org/Graphics/SVG/1.1/DTD/svg11.dtd">
<svg version="1.1" xmlns="http://www.w3.org/2000/svg" xmlns:xlink="http://www.w3.org/1999/xlink" x="0px" y="0px" width="16px"
	 height="16px" viewBox="0 0 16 16" style="enable-background:new 0 0 16 16;" xml:space="preserve">
<g id="_x31_00-document_-_book" style="enable-background:new    ;">
	<path d="M13,1.999H3c-0.552,0-1,0.448-1,1v2c0,0.553,0.448,1,1,1h10c0.553,0,1-0.447,1-1v-2C14,2.447,13.553,1.999,13,1.999z
		 M13,4.499c0,0.276-0.225,0.5-0.5,0.5h-9c-0.276,0-0.5-0.224-0.5-0.5v-1c0-0.276,0.224-0.5,0.5-0.5h9c0.275,0,0.5,0.224,0.5,0.5
		V4.499z M14-0.001h-1H2c-1.104,0-2,0.896-2,2v9.5v0.5v2c0,1.104,0.896,2,2,2h11h2h1v-3v-1v-10v-2H14z M15,14.999h-1h-1H2
		c-0.552,0-1-0.448-1-1s0.448-1,1-1h11h1h0.723H15V14.999z M15,1.999v9.5v0.5h-2H2c-0.366,0-0.705,0.105-1,0.277v-0.277v-0.5v-9.5
		c0-0.553,0.448-1,1-1h12h1V1.999z"/>
</g>
<g id="Layer_1">
</g>
</svg>
