<?xml version="1.0" encoding="utf-8"?>
<!-- Generator: Adobe Illustrator 24.0.3, SVG Export Plug-In . SVG Version: 6.00 Build 0)  -->
<svg version="1.1" id="Ebene_1" xmlns="http://www.w3.org/2000/svg" xmlns:xlink="http://www.w3.org/1999/xlink" x="0px" y="0px"
	 viewBox="0 0 16 16" style="enable-background:new 0 0 16 16;" xml:space="preserve">
<style type="text/css">
	.st0{enable-background:new    ;}
</style>
<g id="_x35_-document_-_file" class="st0">
	<g id="_x35_-document_-_file_1_">
		<g>
			<path d="M11,7H5C4.7,7,4.5,7.2,4.5,7.5C4.5,7.8,4.7,8,5,8h6c0.3,0,0.5-0.2,0.5-0.5C11.5,7.2,11.3,7,11,7z M14,0H2
				C1.7,0,1.5,0.2,1.5,0.5v15C1.5,15.8,1.7,16,2,16h8.5l4-4V0.5C14.5,0.2,14.3,0,14,0z M10.5,14.2V12h2.2L10.5,14.2z M13.5,11h-3h-1
				v1v3H3c-0.3,0-0.5-0.2-0.5-0.5v-13C2.5,1.2,2.7,1,3,1h10c0.3,0,0.5,0.2,0.5,0.5L13.5,11L13.5,11z M11,4H5C4.7,4,4.5,4.2,4.5,4.5
				S4.7,5,5,5h6c0.3,0,0.5-0.2,0.5-0.5S11.3,4,11,4z"/>
		</g>
	</g>
</g>
<g id="Layer_1">
</g>
</svg>
