<?xml version="1.0" encoding="iso-8859-1"?>
<!-- Generator: Adobe Illustrator 16.0.0, SVG Export Plug-In . SVG Version: 6.00 Build 0)  -->
<!DOCTYPE svg PUBLIC "-//W3C//DTD SVG 1.1//EN" "http://www.w3.org/Graphics/SVG/1.1/DTD/svg11.dtd">
<svg version="1.1" xmlns="http://www.w3.org/2000/svg" xmlns:xlink="http://www.w3.org/1999/xlink" x="0px" y="0px" width="16px"
	 height="16px" viewBox="0 0 16 16" style="enable-background:new 0 0 16 16;" xml:space="preserve">
<g id="_x39_3-media_-_images_photo" style="enable-background:new    ;">
	<g>
		<path d="M3.5,6.998c0.828,0,1.5-0.671,1.5-1.5C5,4.67,4.328,3.999,3.5,3.999C2.671,3.999,2,4.67,2,5.498
			C2,6.327,2.671,6.998,3.5,6.998z M3.459,5.021c0.275,0,0.5,0.224,0.5,0.5s-0.225,0.5-0.5,0.5c-0.277,0-0.5-0.224-0.5-0.5
			S3.182,5.021,3.459,5.021z"/>
		<path d="M11.1,7.144l-2.698,4.067L5.4,8.644C5.29,8.533,5.145,8.494,5,8.503c-0.145-0.009-0.29,0.03-0.4,0.141l-2.456,3.955
			c-0.204,0.204-0.204,0.535,0,0.739s0.535,0.204,0.739,0l2.221-3.577l3.013,2.576c0.105,0.106,0.244,0.151,0.383,0.147
			c0.139,0.004,0.278-0.041,0.384-0.147l2.955-4.455c0.205-0.204,0.205-0.534,0-0.738C11.635,6.939,11.305,6.939,11.1,7.144z"/>
		<path d="M15.5-0.001h-13c-0.276,0-0.5,0.224-0.5,0.5c0,0.275,0.224,0.5,0.5,0.5H15v12.5c0,0.275,0.225,0.5,0.5,0.5
			s0.5-0.225,0.5-0.5v-13C16,0.223,15.775-0.001,15.5-0.001z"/>
		<path d="M13,1.999H1c-0.552,0-1,0.447-1,0.999v12c0,0.553,0.448,1,1,1h12c0.553,0,1-0.447,1-1v-12C14,2.446,13.553,1.999,13,1.999
			z M13,14.499c0,0.275-0.225,0.499-0.5,0.499h-11c-0.276,0-0.5-0.224-0.5-0.499v-11c0-0.276,0.224-0.501,0.5-0.501h11
			c0.275,0,0.5,0.225,0.5,0.501V14.499z"/>
	</g>
</g>
<g id="Layer_1">
</g>
</svg>
