<?xml version="1.0" encoding="iso-8859-1"?>
<!-- Generator: Adobe Illustrator 16.0.0, SVG Export Plug-In . SVG Version: 6.00 Build 0)  -->
<!DOCTYPE svg PUBLIC "-//W3C//DTD SVG 1.1//EN" "http://www.w3.org/Graphics/SVG/1.1/DTD/svg11.dtd">
<svg version="1.1" xmlns="http://www.w3.org/2000/svg" xmlns:xlink="http://www.w3.org/1999/xlink" x="0px" y="0px" width="16px"
	 height="16px" viewBox="0 0 16 16" style="enable-background:new 0 0 16 16;" xml:space="preserve">
<g id="_x34_1-document_-_upload_arrow" style="enable-background:new    ;">
	<path d="M14.5,14.999h-12c-0.276,0-0.5,0.224-0.5,0.5s0.224,0.5,0.5,0.5h12c0.275,0,0.5-0.224,0.5-0.5S14.775,14.999,14.5,14.999z
		 M3.833,6.356L8,1.775v10.724c0,0.276,0.224,0.5,0.5,0.5c0.276,0,0.5-0.224,0.5-0.5V1.775l4.167,4.581c0.191,0.19,0.5,0.19,0.691,0
		s0.191-0.5,0-0.69L8.877,0.19C8.872,0.184,8.874,0.173,8.867,0.166c-0.006-0.007-0.003-0.018-0.01-0.024
		C8.851,0.136,8.84,0.139,8.833,0.132c-0.083-0.075-0.19-0.121-0.31-0.128c-0.006,0-0.01-0.003-0.017-0.003
		c-0.002,0-0.005-0.002-0.008-0.002c-0.002,0-0.004,0.002-0.007,0.002c-0.01,0-0.018,0.007-0.027,0.008
		C8.367,0.017,8.284,0.056,8.211,0.113c-0.021,0.016-0.05,0.01-0.068,0.028C8.127,0.157,8.132,0.181,8.12,0.198
		C8.114,0.206,8.103,0.21,8.097,0.218L3.143,5.666c-0.19,0.19-0.19,0.5,0,0.69C3.333,6.547,3.643,6.547,3.833,6.356z"/>
</g>
<g id="Layer_1">
</g>
</svg>
