<?xml version="1.0" encoding="iso-8859-1"?>
<!-- Generator: Adobe Illustrator 16.0.0, SVG Export Plug-In . SVG Version: 6.00 Build 0)  -->
<!DOCTYPE svg PUBLIC "-//W3C//DTD SVG 1.1//EN" "http://www.w3.org/Graphics/SVG/1.1/DTD/svg11.dtd">
<svg version="1.1" xmlns="http://www.w3.org/2000/svg" xmlns:xlink="http://www.w3.org/1999/xlink" x="0px" y="0px" width="16px"
	 height="16px" viewBox="0 0 16 16" style="enable-background:new 0 0 16 16;" xml:space="preserve">
<g id="_x38_6-media_-_video_clip_film" style="enable-background:new    ;">
	<path d="M15-0.001h-2h-1H4H3H1c-0.552,0-1,0.448-1,1v2v1v2v1v2v1v2v1v2c0,0.552,0.448,1,1,1h2h1h8h1h2c0.553,0,1-0.448,1-1v-2v-1
		v-2v-1v-2v-1v-2v-1v-2C16,0.447,15.553-0.001,15-0.001z M3,14.999H1.5c-0.276,0-0.5-0.224-0.5-0.5v-1.5h2V14.999z M3,11.999H1v-2h2
		V11.999z M3,7.999v1H1v-2h2V7.999z M3,5.999H1v-2h2V5.999z M3,2.999H1v-1.5c0-0.276,0.224-0.5,0.5-0.5H3V2.999z M12,9.999v2v1v2H4
		v-2v-1v-2v-1h8V9.999z M12,2.999v1v2v1v1H4v-1v-1v-2v-1v-2h8V2.999z M15,14.499c0,0.276-0.225,0.5-0.5,0.5H13v-2h2V14.499z
		 M15,11.999h-2v-2h2V11.999z M15,8.999h-2v-1v-1h2V8.999z M15,5.999h-2v-2h2V5.999z M15,2.999h-2v-2h1.5c0.275,0,0.5,0.224,0.5,0.5
		V2.999z"/>
</g>
<g id="Layer_1">
</g>
</svg>
