<?xml version="1.0" encoding="iso-8859-1"?>
<!-- Generator: Adobe Illustrator 16.0.0, SVG Export Plug-In . SVG Version: 6.00 Build 0)  -->
<!DOCTYPE svg PUBLIC "-//W3C//DTD SVG 1.1//EN" "http://www.w3.org/Graphics/SVG/1.1/DTD/svg11.dtd">
<svg version="1.1" xmlns="http://www.w3.org/2000/svg" xmlns:xlink="http://www.w3.org/1999/xlink" x="0px" y="0px" width="16px"
	 height="16px" viewBox="0 0 16 16" style="enable-background:new 0 0 16 16;" xml:space="preserve">
<g id="_x32_7-document_-_eye_glass_read" style="enable-background:new    ;">
	<path d="M16,9.999l-0.24-1l-2.76-6h-3v1h2.24l2.391,5H1.369l2.392-5H6v-1H3l-2.761,6L0,9.999h0.05C0.026,10.164,0,10.328,0,10.499
		c0,1.933,1.567,3.5,3.5,3.5c1.394,0,2.587-0.82,3.15-2H9.35c0.563,1.18,1.756,2,3.15,2c1.934,0,3.5-1.567,3.5-3.5
		c0-0.171-0.027-0.335-0.051-0.5H16z M3.5,12.999c-1.381,0-2.5-1.119-2.5-2.5c0-0.171,0.018-0.339,0.05-0.5H5.95
		C5.982,10.16,6,10.328,6,10.499C6,11.88,4.881,12.999,3.5,12.999z M9.051,10.999H6.95C6.973,10.834,7,10.67,7,10.499
		s-0.027-0.335-0.05-0.5h2.101C9.027,10.164,9,10.328,9,10.499S9.027,10.834,9.051,10.999z M12.5,12.999c-1.381,0-2.5-1.119-2.5-2.5
		c0-0.171,0.018-0.339,0.051-0.5h4.898C14.982,10.16,15,10.328,15,10.499C15,11.88,13.881,12.999,12.5,12.999z"/>
</g>
<g id="Layer_1">
</g>
</svg>
