<?xml version="1.0" encoding="iso-8859-1"?>
<!-- Generator: Adobe Illustrator 16.0.0, SVG Export Plug-In . SVG Version: 6.00 Build 0)  -->
<!DOCTYPE svg PUBLIC "-//W3C//DTD SVG 1.1//EN" "http://www.w3.org/Graphics/SVG/1.1/DTD/svg11.dtd">
<svg version="1.1" xmlns="http://www.w3.org/2000/svg" xmlns:xlink="http://www.w3.org/1999/xlink" x="0px" y="0px" width="16px"
	 height="16px" viewBox="0 0 16 16" style="enable-background:new 0 0 16 16;" xml:space="preserve">
<g id="_x37_8-document_-_drawer_dashboard_download" style="enable-background:new    ;">
	<path d="M14,1.999h-1V2l0,0V1.999h-1V2v0.999V3h1.285L15,8.998H8.502c0.089,0,0.169-0.028,0.242-0.067
		C8.823,8.902,8.898,8.862,8.96,8.799l2.84-2.844c0.223-0.225,0.223-0.589,0-0.813c-0.225-0.225-0.588-0.225-0.813,0L9.014,7.121
		V0.499c0-0.276-0.23-0.5-0.513-0.5c-0.284,0-0.514,0.224-0.514,0.5v6.657L5.976,5.143c-0.224-0.225-0.587-0.225-0.811,0
		c-0.224,0.224-0.224,0.588,0,0.813l2.839,2.844C8.08,8.875,8.173,8.916,8.271,8.94C8.34,8.975,8.415,8.998,8.498,8.998H1L2.714,3H4
		V2.999V2V1.999H3V2h0l0-0.001H2l-2,7v1v5c0,0.552,0.448,1,1,1h14c0.553,0,1-0.448,1-1v-5v-1L14,1.999z M5,8.999h3.499
		c0.001,0,0.001,0,0.002,0c0,0,0,0,0.001,0H11v2H5V8.999z M15,14.498c0,0.277-0.225,0.501-0.5,0.501h-13
		c-0.276,0-0.5-0.224-0.5-0.501v-4c0-0.275,0.224-0.499,0.5-0.499H4v2h8v-2h2.5c0.275,0,0.5,0.224,0.5,0.499V14.498z"/>
</g>
<g id="Layer_1">
</g>
</svg>
