<?xml version="1.0" encoding="iso-8859-1"?>
<!-- Generator: Adobe Illustrator 16.0.0, SVG Export Plug-In . SVG Version: 6.00 Build 0)  -->
<!DOCTYPE svg PUBLIC "-//W3C//DTD SVG 1.1//EN" "http://www.w3.org/Graphics/SVG/1.1/DTD/svg11.dtd">
<svg version="1.1" xmlns="http://www.w3.org/2000/svg" xmlns:xlink="http://www.w3.org/1999/xlink" x="0px" y="0px" width="16px"
	 height="16px" viewBox="0 0 16 16" style="enable-background:new 0 0 16 16;" xml:space="preserve">
<g id="_x31_02-media_-_image_photo" style="enable-background:new    ;">
	<g>
		<path d="M15-0.001H1c-0.552,0-1,0.447-1,1v11.426c-0.003,0.029-0.003,0.058,0,0.087v2.486c0,0.553,0.448,1,1,1h14
			c0.553,0,1-0.447,1-1V0.999C16,0.446,15.553-0.001,15-0.001z M1.5,14.998c-0.276,0-0.5-0.224-0.5-0.499v-1.69l4.387-3.57
			l4.982,5.76H1.5z M15,14.499c0,0.275-0.225,0.499-0.5,0.499h-2.711l-3.718-4.299l4.382-3.582l2.531,2.738
			C14.988,9.859,14.996,9.857,15,9.861V14.499z M15,8.328l-2.035-2.2c-0.125-0.102-0.291-0.133-0.455-0.121
			c-0.148-0.012-0.297,0.021-0.41,0.123L7.424,9.952L5.869,8.153C5.753,8.03,5.598,7.984,5.447,8
			C5.405,7.998,5.373,8.018,5.332,8.024c-0.015,0.006-0.03,0.01-0.044,0.017C5.192,8.064,5.092,8.075,5.018,8.144L1,11.413V1.498
			c0-0.275,0.224-0.499,0.5-0.499h13c0.275,0,0.5,0.224,0.5,0.499V8.328z"/>
		<path d="M4,1.998c-1.104,0-2,0.896-2,2s0.896,2,2,2c1.105,0,2-0.896,2-2S5.104,1.998,4,1.998z M4,5C3.448,5,3,4.552,3,4
			s0.448-1,1-1s1,0.448,1,1S4.552,5,4,5z"/>
	</g>
</g>
<g id="Layer_1">
</g>
</svg>
