<?xml version="1.0" encoding="iso-8859-1"?>
<!-- Generator: Adobe Illustrator 16.0.0, SVG Export Plug-In . SVG Version: 6.00 Build 0)  -->
<!DOCTYPE svg PUBLIC "-//W3C//DTD SVG 1.1//EN" "http://www.w3.org/Graphics/SVG/1.1/DTD/svg11.dtd">
<svg version="1.1" xmlns="http://www.w3.org/2000/svg" xmlns:xlink="http://www.w3.org/1999/xlink" x="0px" y="0px" width="16px"
	 height="16px" viewBox="0 0 16 16" style="enable-background:new 0 0 16 16;" xml:space="preserve">
<g id="_x33_0-media_-_clip_video_film" style="enable-background:new    ;">
	<path d="M15,2H8C7.965,2,7.937,2.016,7.903,2.02C7.701,1.43,7.158,1,6.5,1h-5C0.671,1,0,1.671,0,2.499V14.5
		C0,15.328,0.671,16,1.5,16h5c0.658,0,1.298-0.41,1.5-0.999C8.034,15.004,8,13,8,13V3.5C8,3.224,8.224,3,8.5,3h6
		C14.775,3,15,3.224,15,3.5v10c0,0.275-0.225,0.5-0.5,0.5H10v1h5c0.553,0,1-0.447,1-1V3C16,2.448,15.553,2,15,2z M7,14.5
		C7,14.775,6.776,15,6.5,15h-5C1.224,15,1,14.775,1,14.5V2.499C1,2.224,1.224,2,1.5,2h5C6.776,2,7,2.224,7,2.499V14.5z M10,4H9v1h1
		V4z M9,13h1v-1H9V13z M13,13h1v-1h-1V13z M14,4h-1v1h1V4z M12,4h-1v1h1V4z M11,13h1v-1h-1V13z"/>
</g>
<g id="Layer_1">
</g>
</svg>
