<?xml version="1.0" encoding="iso-8859-1"?>
<!-- Generator: Adobe Illustrator 16.0.0, SVG Export Plug-In . SVG Version: 6.00 Build 0)  -->
<!DOCTYPE svg PUBLIC "-//W3C//DTD SVG 1.1//EN" "http://www.w3.org/Graphics/SVG/1.1/DTD/svg11.dtd">
<svg version="1.1" xmlns="http://www.w3.org/2000/svg" xmlns:xlink="http://www.w3.org/1999/xlink" x="0px" y="0px" width="16px"
	 height="16px" viewBox="0 0 16 16" style="enable-background:new 0 0 16 16;" xml:space="preserve">
<g id="_x35_6-document_-_analytic_graph_blank" style="enable-background:new    ;">
	<path d="M15.5,0.999H14H2H0.5c-0.276,0-0.5,0.224-0.5,0.5s0.224,0.5,0.5,0.5H1v9c0,0.552,0.448,1,1,1h4.319L5.074,14.29
		c-0.153,0.228-0.062,0.518,0.204,0.649c0.266,0.131,0.605,0.054,0.759-0.174l1.389-2.559c0.045-0.065,0.063-0.137,0.068-0.208
		h1.013c0.005,0.071,0.023,0.143,0.068,0.208l1.388,2.559c0.154,0.228,0.494,0.305,0.76,0.174c0.266-0.132,0.355-0.422,0.203-0.649
		l-1.244-2.291H14c0.553,0,1-0.448,1-1v-9h0.5c0.275,0,0.5-0.224,0.5-0.5S15.775,0.999,15.5,0.999z M14,10.499
		c0,0.275-0.225,0.5-0.5,0.5h-11c-0.276,0-0.5-0.225-0.5-0.5v-8c0-0.276,0.224-0.5,0.5-0.5h11c0.275,0,0.5,0.224,0.5,0.5V10.499z"/>
</g>
<g id="Layer_1">
</g>
</svg>
