<?xml version="1.0" encoding="iso-8859-1"?>
<!-- Generator: Adobe Illustrator 16.0.0, SVG Export Plug-In . SVG Version: 6.00 Build 0)  -->
<!DOCTYPE svg PUBLIC "-//W3C//DTD SVG 1.1//EN" "http://www.w3.org/Graphics/SVG/1.1/DTD/svg11.dtd">
<svg version="1.1" xmlns="http://www.w3.org/2000/svg" xmlns:xlink="http://www.w3.org/1999/xlink" x="0px" y="0px" width="16px"
	 height="16px" viewBox="0 0 16 16" style="enable-background:new 0 0 16 16;" xml:space="preserve">
<g id="_x36_8-document_-_attachment_clip_paperclip" style="enable-background:new    ;">
	<path d="M14.783,6.105L14.07,6.811l-4.516,4.46l-1.905,1.883c-1.182,1.168-3.099,1.168-4.281,0c-1.183-1.168-1.183-3.061,0-4.229
		l1.906-1.883L6.936,5.4l1.262-1.246l0.165-0.162l0.713-0.705l0.713-0.706l0.002,0.003C9.799,2.576,9.805,2.567,9.813,2.56
		c0.787-0.778,2.064-0.778,2.854,0c0.787,0.778,0.787,2.041,0,2.819c-0.008,0.007-0.016,0.014-0.023,0.021L12.645,5.4L11.93,6.105
		l-0.713,0.705l-0.166,0.163L9.789,8.22L9.006,8.995L8.235,9.756l-0.761,0.751l-1.251,1.236c-0.394,0.39-1.033,0.39-1.427,0
		c-0.394-0.389-0.394-1.021,0-1.409l0.713-0.705l0.538-0.53l0.761-0.752l0.771-0.762l1.498-1.479l0.736-0.727l0.691-0.683
		L9.789,3.992L9.297,4.479l-0.81,0.799L7.649,6.105L6.573,7.169L5.674,8.057L4.795,8.925L4.082,9.629l0.002,0.003
		c-0.765,0.78-0.76,2.023,0.02,2.795c0.781,0.771,2.04,0.775,2.83,0.02l0.002,0.002l1.592-1.572l0.9-0.889l2.502-2.472l0.715-0.705
		l0.713-0.705c1.182-1.168,1.182-3.061,0-4.229c-1.182-1.167-3.1-1.167-4.281,0L8.363,2.582L7.649,3.286L2.655,8.22l0.001,0.001
		c-1.553,1.56-1.547,4.065,0.021,5.615c1.568,1.549,4.106,1.556,5.685,0.021l0.001,0.002l6.42-6.343l0.715-0.705L14.783,6.105z"/>
</g>
<g id="Layer_1">
</g>
</svg>
