<?xml version="1.0" encoding="iso-8859-1"?>
<!-- Generator: Adobe Illustrator 16.0.0, SVG Export Plug-In . SVG Version: 6.00 Build 0)  -->
<!DOCTYPE svg PUBLIC "-//W3C//DTD SVG 1.1//EN" "http://www.w3.org/Graphics/SVG/1.1/DTD/svg11.dtd">
<svg version="1.1" xmlns="http://www.w3.org/2000/svg" xmlns:xlink="http://www.w3.org/1999/xlink" x="0px" y="0px" width="16px"
	 height="16px" viewBox="0 0 16 16" style="enable-background:new 0 0 16 16;" xml:space="preserve">
<g id="_x37_7-document_-_drawer_dashboard_upload" style="enable-background:new    ;">
	<path d="M4,2.999v-1H3v1H4z M14,1.999h-1l2,6.999H8.502C8.778,8.997,9,8.774,9,8.499V1.808l0.192,0.191l0,0L10.992,3.8
		c0.223,0.224,0.586,0.224,0.809,0s0.223-0.585,0-0.809L8.972,0.163C8.849,0.04,8.685-0.009,8.524,0.004
		c-0.009,0-0.016-0.005-0.024-0.005c-0.015,0-0.026,0.008-0.041,0.009C8.292-0.011,8.12,0.035,7.992,0.163L6.157,1.999h0
		L5.164,2.991C4.94,3.215,4.94,3.576,5.164,3.8s0.585,0.224,0.809,0l1.801-1.801L8,1.771v6.728c0,0.275,0.222,0.498,0.498,0.499H1
		l2-6.999H2l-2,7v6c0,0.552,0.448,1,1,1h14c0.553,0,1-0.448,1-1v-6L14,1.999z M5,8.999h3.499c0.001,0,0.001,0,0.001,0
		c0.001,0,0.001,0,0.002,0H11v2H5V8.999z M15,14.498c0,0.277-0.225,0.501-0.5,0.501h-13c-0.276,0-0.5-0.224-0.5-0.501v-4
		c0-0.275,0.224-0.499,0.5-0.499H4v2h8v-2h2.5c0.275,0,0.5,0.224,0.5,0.499V14.498z M12,2.999h1v-1h-1V2.999z"/>
	<g>
		<rect x="2" y="2" width="2" height="1"/>
		<rect x="12" y="2" width="2" height="1"/>
	</g>
</g>
<g id="Layer_1">
</g>
</svg>
