<?xml version="1.0" encoding="iso-8859-1"?>
<!-- Generator: Adobe Illustrator 16.0.0, SVG Export Plug-In . SVG Version: 6.00 Build 0)  -->
<!DOCTYPE svg PUBLIC "-//W3C//DTD SVG 1.1//EN" "http://www.w3.org/Graphics/SVG/1.1/DTD/svg11.dtd">
<svg version="1.1" xmlns="http://www.w3.org/2000/svg" xmlns:xlink="http://www.w3.org/1999/xlink" x="0px" y="0px" width="16px"
	 height="16px" viewBox="0 0 16 16" style="enable-background:new 0 0 16 16;" xml:space="preserve">
<g id="_x37_1-document_-_drawing__writing_board_tick" style="enable-background:new    ;">
	<path d="M11.5,1.999v-1H10c0-0.553-0.447-1-1-1H7c-0.552,0-1,0.447-1,1H4.5v1H1v14h14v-14H11.5z M5.5,1.999H7v-0.5
		c0-0.276,0.224-0.5,0.5-0.5h1c0.276,0,0.5,0.224,0.5,0.5v0.5h1.5v2h-2h-1h-2V1.999z M14,14.999H2v-12h2.5v2h7v-2H14V14.999z
		 M11.119,7.142l-3.686,4.611l-1.612-1.611c-0.188-0.188-0.492-0.188-0.679,0c-0.188,0.187-0.188,0.491,0,0.679l1.986,1.985
		c0.009,0.01,0.005,0.025,0.015,0.034c0.009,0.01,0.024,0.006,0.035,0.015l0.001,0.002c0.188,0.188,0.491,0.188,0.679,0
		c0.004-0.005,0.002-0.012,0.006-0.016c0,0,0.001,0,0.001-0.001l3.977-4.976c0.199-0.199,0.199-0.523,0-0.723
		C11.643,6.941,11.318,6.941,11.119,7.142z"/>
</g>
<g id="Layer_1">
</g>
</svg>
