<?xml version="1.0" encoding="iso-8859-1"?>
<!-- Generator: Adobe Illustrator 16.0.0, SVG Export Plug-In . SVG Version: 6.00 Build 0)  -->
<!DOCTYPE svg PUBLIC "-//W3C//DTD SVG 1.1//EN" "http://www.w3.org/Graphics/SVG/1.1/DTD/svg11.dtd">
<svg version="1.1" xmlns="http://www.w3.org/2000/svg" xmlns:xlink="http://www.w3.org/1999/xlink" x="0px" y="0px" width="16px"
	 height="16px" viewBox="0 0 16 16" style="enable-background:new 0 0 16 16;" xml:space="preserve">
<g id="_x35_8-document_-_analytic_graph_down" style="enable-background:new    ;">
	<path d="M15.5,0.999H14H2H0.5c-0.276,0-0.5,0.224-0.5,0.5s0.224,0.5,0.5,0.5H1v9c0,0.552,0.448,1,1,1h4.319L5.074,14.29
		c-0.153,0.228-0.062,0.518,0.204,0.649c0.266,0.131,0.605,0.054,0.759-0.174l1.389-2.559c0.045-0.065,0.063-0.137,0.068-0.208
		h1.013c0.005,0.071,0.023,0.143,0.068,0.208l1.388,2.559c0.154,0.228,0.494,0.305,0.76,0.174c0.266-0.132,0.355-0.422,0.203-0.649
		l-1.244-2.291H14c0.553,0,1-0.448,1-1v-9h0.5c0.275,0,0.5-0.224,0.5-0.5S15.775,0.999,15.5,0.999z M14,10.499
		c0,0.275-0.225,0.5-0.5,0.5h-11c-0.276,0-0.5-0.225-0.5-0.5v-8c0-0.276,0.224-0.5,0.5-0.5h11c0.275,0,0.5,0.224,0.5,0.5V10.499z
		 M9.434,4.737C9.295,4.505,8.989,4.426,8.75,4.56C8.712,4.58,8.707,4.623,8.677,4.651C8.592,4.69,8.515,4.741,8.463,4.815
		L6.092,6.839L3.933,4.336C3.795,4.103,3.489,4.022,3.25,4.157S2.929,4.591,3.067,4.824l2.5,2.898
		C5.571,7.729,5.579,7.733,5.583,7.74c0.021,0.03,0.046,0.058,0.076,0.083c0.03,0.029,0.062,0.052,0.098,0.072
		c0.008,0.004,0.013,0.012,0.021,0.016s0.019,0.004,0.028,0.008c0.041,0.017,0.082,0.028,0.126,0.035
		c0.232,0.044,0.48-0.032,0.605-0.212L8.99,5.648l3.077,3.112c0.139,0.231,0.445,0.312,0.684,0.178
		c0.238-0.135,0.32-0.431,0.184-0.663L9.434,4.737z"/>
</g>
<g id="Layer_1">
</g>
</svg>
