<?xml version="1.0" encoding="iso-8859-1"?>
<!-- Generator: Adobe Illustrator 16.0.0, SVG Export Plug-In . SVG Version: 6.00 Build 0)  -->
<!DOCTYPE svg PUBLIC "-//W3C//DTD SVG 1.1//EN" "http://www.w3.org/Graphics/SVG/1.1/DTD/svg11.dtd">
<svg version="1.1" xmlns="http://www.w3.org/2000/svg" xmlns:xlink="http://www.w3.org/1999/xlink" x="0px" y="0px" width="16px"
	 height="16px" viewBox="0 0 16 16" style="enable-background:new 0 0 16 16;" xml:space="preserve">
<g id="_x32_9-media_-_clip_video_film" style="enable-background:new    ;">
	<path d="M10,3.999H9v1h1V3.999z M9,12.999h1v-1H9V12.999z M13,12.999h1v-1h-1V12.999z M14,3.999h-1v1h1V3.999z M11,12.999h1v-1h-1
		V12.999z M12,3.999h-1v1h1V3.999z M15,1.999H8c-0.035,0-0.063,0.016-0.097,0.02c-0.202-0.59-0.745-1.02-1.403-1.02h-5
		C0.671,0.999,0,1.67,0,2.498v12.001c0,0.828,0.671,1.5,1.5,1.5h5c0.658,0,1.298-0.41,1.5-0.999c0.033,0.003,0-2.001,0-2.001v-9.5
		c0-0.276,0.224-0.5,0.5-0.5h6c0.275,0,0.5,0.224,0.5,0.5v10c0,0.276-0.225,0.5-0.5,0.5H10v1h5c0.553,0,1-0.447,1-1v-11
		C16,2.447,15.553,1.999,15,1.999z M7,14.499c0,0.275-0.224,0.5-0.5,0.5h-5c-0.276,0-0.5-0.225-0.5-0.5v-0.5h6V14.499z M7,12.999H1
		v-9h6V12.999z M7,2.999H1V2.498c0-0.275,0.224-0.499,0.5-0.499h5c0.276,0,0.5,0.224,0.5,0.499V2.999z"/>
</g>
<g id="Layer_1">
</g>
</svg>
