<?xml version="1.0" encoding="iso-8859-1"?>
<!-- Generator: Adobe Illustrator 16.0.0, SVG Export Plug-In . SVG Version: 6.00 Build 0)  -->
<!DOCTYPE svg PUBLIC "-//W3C//DTD SVG 1.1//EN" "http://www.w3.org/Graphics/SVG/1.1/DTD/svg11.dtd">
<svg version="1.1" xmlns="http://www.w3.org/2000/svg" xmlns:xlink="http://www.w3.org/1999/xlink" x="0px" y="0px" width="16px"
	 height="16px" viewBox="0 0 16 16" style="enable-background:new 0 0 16 16;" xml:space="preserve">
<g id="_x35_7-document_-_analytic_graph" style="enable-background:new    ;">
	<path d="M5.5,6.999c-0.276,0-0.5,0.224-0.5,0.5v1.999c0,0.277,0.224,0.501,0.5,0.501c0.276,0,0.5-0.224,0.5-0.501V7.499
		C6,7.223,5.776,6.999,5.5,6.999z M8.5,2.999c-0.275,0-0.5,0.224-0.5,0.5v5.999c0,0.277,0.224,0.501,0.5,0.501
		c0.276,0,0.5-0.224,0.5-0.501V3.499C9,3.223,8.776,2.999,8.5,2.999z M11.5,4.499c-0.275,0-0.5,0.224-0.5,0.5v4.499
		c0,0.277,0.225,0.501,0.5,0.501S12,9.775,12,9.498V4.999C12,4.723,11.775,4.499,11.5,4.499z M15.5,0.999H14H3H1.5
		c-0.276,0-0.5,0.224-0.5,0.5s0.224,0.5,0.5,0.5H2v9c0,0.552,0.448,1,1,1h3.819L5.574,14.29c-0.153,0.228-0.062,0.518,0.204,0.649
		c0.266,0.131,0.605,0.054,0.759-0.174l1.389-2.559c0.045-0.065,0.063-0.137,0.068-0.208h1.013c0.006,0.071,0.023,0.143,0.068,0.208
		l1.389,2.559c0.154,0.228,0.494,0.305,0.76,0.174c0.266-0.132,0.355-0.422,0.203-0.649l-1.244-2.291H14c0.553,0,1-0.448,1-1v-9h0.5
		c0.275,0,0.5-0.224,0.5-0.5S15.775,0.999,15.5,0.999z M14,10.499c0,0.275-0.225,0.5-0.5,0.5h-10c-0.276,0-0.5-0.225-0.5-0.5v-8
		c0-0.276,0.224-0.5,0.5-0.5h10c0.275,0,0.5,0.224,0.5,0.5V10.499z"/>
</g>
<g id="Layer_1">
</g>
</svg>
