<?xml version="1.0" encoding="iso-8859-1"?>
<!-- Generator: Adobe Illustrator 16.0.0, SVG Export Plug-In . SVG Version: 6.00 Build 0)  -->
<!DOCTYPE svg PUBLIC "-//W3C//DTD SVG 1.1//EN" "http://www.w3.org/Graphics/SVG/1.1/DTD/svg11.dtd">
<svg version="1.1" xmlns="http://www.w3.org/2000/svg" xmlns:xlink="http://www.w3.org/1999/xlink" x="0px" y="0px" width="16px"
	 height="16px" viewBox="0 0 16 16" style="enable-background:new 0 0 16 16;" xml:space="preserve">
<g id="_x36_9-document_-_attachment_clip_paperclip" style="enable-background:new    ;">
	<path d="M11,2.003v1.002v6.341v2.676c0,1.661-1.344,3.007-3,3.007c-1.657,0-3-1.346-3-3.007V9.346V7.013V5.24V5.009V4.006V3.005
		h0.002C5.002,2.994,5,2.984,5,2.973c0-1.106,0.896-2.004,2-2.004c1.104,0,2,0.897,2,2.004c0,0.012-0.002,0.021-0.002,0.032H9v1.001
		v1.003V5.24v1.772v1.102v1.082v1.068v1.757c0,0.554-0.447,1.002-1,1.002s-1-0.448-1-1.002v-1.001v-0.756V9.196V8.114V6.01V4.978
		V4.006H6v0.693v1.137v1.177v1.511v1.263v1.234v1.001h0.003C6.02,13.114,6.906,13.995,8,13.995c1.094,0,1.98-0.881,1.996-1.974H10
		V9.786V8.523V5.009V4.006V3.005c0-1.661-1.343-3.007-3-3.007c-1.657,0-3,1.346-3,3.007v1.001v1.003v7.013h0.001
		c0.017,2.199,1.8,3.977,3.999,3.977c2.199,0,3.98-1.777,3.998-3.977H12V3.005V2.003H11z"/>
</g>
<g id="Layer_1">
</g>
</svg>
