<?xml version="1.0" encoding="iso-8859-1"?>
<!-- Generator: Adobe Illustrator 16.0.0, SVG Export Plug-In . SVG Version: 6.00 Build 0)  -->
<!DOCTYPE svg PUBLIC "-//W3C//DTD SVG 1.1//EN" "http://www.w3.org/Graphics/SVG/1.1/DTD/svg11.dtd">
<svg version="1.1" xmlns="http://www.w3.org/2000/svg" xmlns:xlink="http://www.w3.org/1999/xlink" x="0px" y="0px" width="16px"
	 height="16px" viewBox="0 0 16 16" style="enable-background:new 0 0 16 16;" xml:space="preserve">
<g id="_x34_2-document_-_download_arrow" style="enable-background:new    ;">
	<path d="M8.098,12.781c0.006,0.008,0.016,0.012,0.021,0.02c0.013,0.017,0.008,0.04,0.023,0.056
		c0.019,0.019,0.047,0.013,0.068,0.028c0.072,0.058,0.155,0.097,0.252,0.104c0.011,0,0.02,0.008,0.03,0.008
		c0.002,0,0.004,0.002,0.006,0.002c0.003,0,0.005-0.002,0.008-0.002c0.007,0,0.012-0.003,0.019-0.004
		c0.118-0.006,0.224-0.052,0.307-0.127c0.007-0.006,0.018-0.003,0.024-0.01s0.004-0.018,0.011-0.025
		c0.006-0.006,0.004-0.017,0.01-0.023l4.98-5.476c0.191-0.19,0.191-0.5,0-0.69s-0.5-0.19-0.691,0L9,11.223V0.498
		c0-0.275-0.224-0.499-0.5-0.499C8.224-0.001,8,0.223,8,0.498v10.725L3.833,6.642c-0.19-0.19-0.5-0.19-0.69,0
		c-0.19,0.19-0.19,0.5,0,0.69L8.098,12.781z M14.5,14.999h-12c-0.276,0-0.5,0.224-0.5,0.5s0.224,0.5,0.5,0.5h12
		c0.275,0,0.5-0.224,0.5-0.5S14.775,14.999,14.5,14.999z"/>
</g>
<g id="Layer_1">
</g>
</svg>
