<?xml version="1.0" encoding="iso-8859-1"?>
<!-- Generator: Adobe Illustrator 16.0.0, SVG Export Plug-In . SVG Version: 6.00 Build 0)  -->
<!DOCTYPE svg PUBLIC "-//W3C//DTD SVG 1.1//EN" "http://www.w3.org/Graphics/SVG/1.1/DTD/svg11.dtd">
<svg version="1.1" xmlns="http://www.w3.org/2000/svg" xmlns:xlink="http://www.w3.org/1999/xlink" x="0px" y="0px" width="16px"
	 height="16px" viewBox="0 0 16 16" style="enable-background:new 0 0 16 16;" xml:space="preserve">
<g id="_x38_8-media_-_video" style="enable-background:new    ;">
	<path d="M15.5,3.999L12,6.187V4.999c0-1.104-0.895-2-2-2H2c-1.104,0-2,0.896-2,2v6c0,1.104,0.896,2,2,2h8c1.105,0,2-0.896,2-2
		V9.812l3.5,2.188c0.275,0,0.5-0.224,0.5-0.5v-7C16,4.223,15.775,3.999,15.5,3.999z M11,6.999v2v2c0,0.552-0.447,1-1,1H2
		c-0.552,0-1-0.448-1-1v-6c0-0.553,0.448-1,1-1h8c0.553,0,1,0.447,1,1V6.999z M15,10.499l-3-1.5v-2l3-1.5V10.499z"/>
</g>
<g id="Layer_1">
</g>
</svg>
