<?xml version="1.0" encoding="iso-8859-1"?>
<!-- Generator: Adobe Illustrator 16.0.0, SVG Export Plug-In . SVG Version: 6.00 Build 0)  -->
<!DOCTYPE svg PUBLIC "-//W3C//DTD SVG 1.1//EN" "http://www.w3.org/Graphics/SVG/1.1/DTD/svg11.dtd">
<svg version="1.1" xmlns="http://www.w3.org/2000/svg" xmlns:xlink="http://www.w3.org/1999/xlink" x="0px" y="0px" width="16px"
	 height="16px" viewBox="0 0 16 16" style="enable-background:new 0 0 16 16;" xml:space="preserve">
<g id="_x31_1-document_-_book_paper" style="enable-background:new    ;">
	<path d="M3,7.998h7c0.553,0,1-0.447,1-0.999V3.998c0-0.552-0.447-0.999-1-0.999H3c-0.552,0-1,0.447-1,0.999v3.001
		C2,7.551,2.448,7.998,3,7.998z M3,4.499c0-0.276,0.224-0.501,0.5-0.501h6c0.275,0,0.5,0.225,0.5,0.501v2c0,0.276-0.225,0.5-0.5,0.5
		h-6c-0.276,0-0.5-0.224-0.5-0.5V4.499z M2.5,12.999h8c0.275,0,0.5-0.225,0.5-0.5c0-0.276-0.225-0.501-0.5-0.501h-8
		c-0.276,0-0.5,0.225-0.5,0.501C2,12.774,2.224,12.999,2.5,12.999z M15-0.002H1c-0.552,0-1,0.448-1,1.001v13.999
		c0,0.553,0.448,1.001,1,1.001h14c0.553,0,1-0.448,1-1.001V0.999C16,0.446,15.553-0.002,15-0.002z M12,2.999v2v2v2v1.999v2.001
		v1.999H1.5c-0.276,0-0.5-0.224-0.5-0.499V1.498c0-0.275,0.224-0.499,0.5-0.499H12V2.999z M15,14.499c0,0.275-0.225,0.499-0.5,0.499
		H13v-1.999h1v-2.001h-1V8.999h1v-2h-1v-2h1v-2h-1v-2h1.5c0.275,0,0.5,0.224,0.5,0.499V14.499z M2.5,10.998h8
		c0.275,0,0.5-0.223,0.5-0.499s-0.225-0.5-0.5-0.5h-8c-0.276,0-0.5,0.224-0.5,0.5S2.224,10.998,2.5,10.998z"/>
</g>
<g id="Layer_1">
</g>
</svg>
