<?xml version="1.0" encoding="iso-8859-1"?>
<!-- Generator: Adobe Illustrator 16.0.0, SVG Export Plug-In . SVG Version: 6.00 Build 0)  -->
<!DOCTYPE svg PUBLIC "-//W3C//DTD SVG 1.1//EN" "http://www.w3.org/Graphics/SVG/1.1/DTD/svg11.dtd">
<svg version="1.1" xmlns="http://www.w3.org/2000/svg" xmlns:xlink="http://www.w3.org/1999/xlink" x="0px" y="0px" width="16px"
	 height="16px" viewBox="0 0 16 16" style="enable-background:new 0 0 16 16;" xml:space="preserve">
<g id="_x36_7-document_-_article_book_journal" style="enable-background:new    ;">
	<path d="M12.5,6.999h-8C4.224,6.999,4,7.223,4,7.498c0,0.276,0.224,0.5,0.5,0.5h8c0.275,0,0.5-0.224,0.5-0.5
		C13,7.223,12.775,6.999,12.5,6.999z M12.5,9.999h-8c-0.276,0-0.5,0.224-0.5,0.5s0.224,0.5,0.5,0.5h8c0.275,0,0.5-0.224,0.5-0.5
		S12.775,9.999,12.5,9.999z M12.5,3.998h-8C4.224,3.998,4,4.223,4,4.499c0,0.275,0.224,0.5,0.5,0.5h8c0.275,0,0.5-0.225,0.5-0.5
		C13,4.223,12.775,3.998,12.5,3.998z M14.5-0.001h-12c-0.829,0-1.5,0.671-1.5,1.5v12.999c0,0.829,0.671,1.5,1.5,1.5h12
		c0.828,0,1.5-0.671,1.5-1.5V1.499C16,0.67,15.328-0.001,14.5-0.001z M15,14.498c0,0.276-0.225,0.501-0.5,0.501h-12
		c-0.276,0-0.5-0.225-0.5-0.501V1.499c0-0.276,0.224-0.5,0.5-0.5h12c0.275,0,0.5,0.224,0.5,0.5V14.498z"/>
</g>
<g id="Layer_1">
</g>
</svg>
