<?xml version="1.0" encoding="iso-8859-1"?>
<!-- Generator: Adobe Illustrator 16.0.0, SVG Export Plug-In . SVG Version: 6.00 Build 0)  -->
<!DOCTYPE svg PUBLIC "-//W3C//DTD SVG 1.1//EN" "http://www.w3.org/Graphics/SVG/1.1/DTD/svg11.dtd">
<svg version="1.1" xmlns="http://www.w3.org/2000/svg" xmlns:xlink="http://www.w3.org/1999/xlink" x="0px" y="0px" width="16px"
	 height="16px" viewBox="0 0 16 16" style="enable-background:new 0 0 16 16;" xml:space="preserve">
<g id="_x36_2-ecommerce_-_jewelry_diamond" style="enable-background:new    ;">
	<path d="M15.896,5.616l-2.182-4.179c-0.127-0.244-0.455-0.443-0.73-0.443H7.956c-0.002,0-0.005-0.001-0.007-0.002
		C7.946,0.993,7.944,0.994,7.942,0.994H3.004c-0.274,0-0.604,0.199-0.733,0.442L0.096,5.534c-0.129,0.242-0.104,0.624,0.057,0.848
		l7.486,9.455c0.08,0.112,0.187,0.169,0.293,0.169c0.106,0,0.211-0.055,0.292-0.165l0.587-0.724l0.094-0.031l-0.022-0.057
		l6.95-8.567C15.996,6.24,16.023,5.859,15.896,5.616z M13.076,2.368l1.369,2.625h-2.412L13.076,2.368z M12.15,1.994l-1.109,2.793
		L8.958,1.994H12.15z M7.953,1.999l2.24,2.994H5.712L7.953,1.999z M6.962,1.994L4.811,4.865L3.66,1.994H6.962z M2.85,2.476
		l0.995,2.518H1.513L2.85,2.476z M1.11,5.993h2.855L3.961,5.999h0.281l3.063,7.749L1.11,5.993z M7.924,12.638L5.262,5.993h5.3
		L7.924,12.638z M8.528,13.821l3.105-7.822h0.313l-0.004-0.006h2.994L8.528,13.821z"/>
</g>
<g id="Layer_1">
</g>
</svg>
