<?xml version="1.0" encoding="iso-8859-1"?>
<!-- Generator: Adobe Illustrator 16.0.0, SVG Export Plug-In . SVG Version: 6.00 Build 0)  -->
<!DOCTYPE svg PUBLIC "-//W3C//DTD SVG 1.1//EN" "http://www.w3.org/Graphics/SVG/1.1/DTD/svg11.dtd">
<svg version="1.1" xmlns="http://www.w3.org/2000/svg" xmlns:xlink="http://www.w3.org/1999/xlink" x="0px" y="0px" width="16px"
	 height="16px" viewBox="0 0 16 16" style="enable-background:new 0 0 16 16;" xml:space="preserve">
<g id="_x34_1-ecommerce_-_price_tag" style="enable-background:new    ;">
	<path d="M9,13.999h1v-5H9V13.999z M8.5-0.001L3,4.499v10.5c0,0.553,0.448,1,1,1h9c0.553,0,1-0.447,1-1v-10.5L8.5-0.001z M13,14.499
		c0,0.275-0.225,0.5-0.5,0.5h-8c-0.276,0-0.5-0.225-0.5-0.5v-9.5l4.5-4l4.5,4V14.499z M7,13.999h1v-5H7V13.999z M6.5,4.999
		c0,1.104,0.896,2,2,2s2-0.896,2-2s-0.896-2-2-2S6.5,3.895,6.5,4.999z M9.5,4.999c0,0.552-0.447,1-1,1c-0.552,0-1-0.448-1-1
		c0-0.553,0.448-1,1-1C9.053,3.999,9.5,4.446,9.5,4.999z"/>
</g>
<g id="Layer_1">
</g>
</svg>
