<?xml version="1.0" encoding="iso-8859-1"?>
<!-- Generator: Adobe Illustrator 16.0.0, SVG Export Plug-In . SVG Version: 6.00 Build 0)  -->
<!DOCTYPE svg PUBLIC "-//W3C//DTD SVG 1.1//EN" "http://www.w3.org/Graphics/SVG/1.1/DTD/svg11.dtd">
<svg version="1.1" xmlns="http://www.w3.org/2000/svg" xmlns:xlink="http://www.w3.org/1999/xlink" x="0px" y="0px" width="16px"
	 height="16px" viewBox="0 0 16 16" style="enable-background:new 0 0 16 16;" xml:space="preserve">
<g id="_x31_8-ecommerce_-_download_digital_item" style="enable-background:new    ;">
	<path d="M12.5,12.999h-8c-0.276,0-0.5,0.224-0.5,0.5c0,0.275,0.224,0.499,0.5,0.499h8c0.275,0,0.5-0.224,0.5-0.499
		C13,13.223,12.775,12.999,12.5,12.999z M8.099,11.838c0.022,0.021,0.056,0.016,0.08,0.033c0.088,0.075,0.196,0.128,0.32,0.128
		c0.144,0,0.271-0.062,0.361-0.158c0.003-0.002,0.007-0.001,0.009-0.003l2.968-2.955c0.205-0.204,0.205-0.535,0-0.739
		s-0.537-0.204-0.742,0L9,10.23V2.499c0-0.276-0.224-0.5-0.5-0.5c-0.275,0-0.5,0.224-0.5,0.5v7.763L5.873,8.144
		c-0.205-0.204-0.538-0.204-0.742,0c-0.205,0.204-0.205,0.535,0,0.739L8.099,11.838z M13-0.001H4c-1.657,0-3,1.343-3,3v10
		c0,1.656,1.343,3,3,3h9c1.656,0,3-1.344,3-3v-10C16,1.342,14.656-0.001,13-0.001z M15,12.999c0,1.104-0.896,2-2,2H4
		c-1.104,0-2-0.896-2-2v-10c0-1.104,0.896-2,2-2h9c1.104,0,2,0.896,2,2V12.999z"/>
</g>
<g id="Layer_1">
</g>
</svg>
