<?xml version="1.0" encoding="iso-8859-1"?>
<!-- Generator: Adobe Illustrator 16.0.0, SVG Export Plug-In . SVG Version: 6.00 Build 0)  -->
<!DOCTYPE svg PUBLIC "-//W3C//DTD SVG 1.1//EN" "http://www.w3.org/Graphics/SVG/1.1/DTD/svg11.dtd">
<svg version="1.1" xmlns="http://www.w3.org/2000/svg" xmlns:xlink="http://www.w3.org/1999/xlink" x="0px" y="0px" width="16px"
	 height="16px" viewBox="0 0 16 16" style="enable-background:new 0 0 16 16;" xml:space="preserve">
<g id="_x31_-ecommerce_-_shop_market" style="enable-background:new    ;">
	<path d="M16,5.999l-2-6H2l-2,6h-0.005C-0.002,6.915,0.375,7.826,1,8.401V16h14V8.562c0.76-0.552,1.002-1.552,1.004-2.563H16z
		 M2.667,1h10.667l1.332,3.999H1.333L2.667,1z M14,14.999H2v-2h12V14.999z M14,11.999H2v-3.06c0.15,0.035,0.305,0.06,0.468,0.06
		c0.751,0,1.571-0.377,2.032-1c0.404,0.615,0.946,1,1.74,1c0.715,0,1.346-0.484,1.76-1c0.415,0.516,1.045,1,1.76,1
		c0.795,0,1.336-0.385,1.74-1c0.461,0.623,1.248,1,2,1c0.184,0,0.342-0.025,0.5-0.049V11.999z M13.533,7.999C12,7.999,12,7,12,7
		h-1.008c0,0,0.008,0.999-1.232,0.999C8.5,7.999,8.528,7,8.528,7H7.472c0,0,0.028,0.999-1.232,0.999C5,7.999,5,7,5,7H4
		c0,0.999-0.83,0.999-1.532,0.999c-0.703,0-1.288-1.139-1.456-2h13.976C14.988,5.999,15,7.999,13.533,7.999z"/>
</g>
<g id="Layer_1">
</g>
</svg>
