<?xml version="1.0" encoding="iso-8859-1"?>
<!-- Generator: Adobe Illustrator 16.0.0, SVG Export Plug-In . SVG Version: 6.00 Build 0)  -->
<!DOCTYPE svg PUBLIC "-//W3C//DTD SVG 1.1//EN" "http://www.w3.org/Graphics/SVG/1.1/DTD/svg11.dtd">
<svg version="1.1" xmlns="http://www.w3.org/2000/svg" xmlns:xlink="http://www.w3.org/1999/xlink" x="0px" y="0px" width="16px"
	 height="16px" viewBox="0 0 16 16" style="enable-background:new 0 0 16 16;" xml:space="preserve">
<g id="_x35_7-goods_-_shoes" style="enable-background:new    ;">
	<path d="M15,10.009h-0.389C14.854,9.658,15,9.23,15,8.764c0-1.17-0.895-2.118-2-2.118c-0.053,0-0.1,0.013-0.152,0.017L7,3.998
		c-2.543,2.736-6,0-6,0v6.011c-0.552,0-1,0.446-1,0.997v0.996c0,0.551,0.448,0.997,1,0.997h14c0.553,0,1-0.446,1-0.997v-0.996
		C16,10.455,15.553,10.009,15,10.009z M2,5.552c2.805,1.665,5.238-0.557,5.238-0.557l1.729,0.836
		C8.965,5.832,8.964,5.833,8.963,5.834l-1.889,1.12C6.921,7.195,7.012,7.503,7.278,7.642c0.266,0.14,0.605,0.057,0.759-0.185
		c0,0,1.897-1.145,1.903-1.156l1.088,0.526C11.006,6.85,9.074,8.013,9.074,8.013C8.921,8.254,9.012,8.562,9.277,8.7
		s0.605,0.057,0.76-0.185c0,0,1.918-1.195,1.932-1.233c0,0,0.992,0.422,1.031,0.422c0.553,0,1,0.475,1,1.06s-1,1.246-1,1.246H2
		V5.552z M14.5,12.002h-13c-0.276,0-0.5-0.224-0.5-0.498c0-0.275,0.224-0.498,0.5-0.498h13c0.275,0,0.5,0.223,0.5,0.498
		C15,11.778,14.775,12.002,14.5,12.002z"/>
</g>
<g id="Layer_1">
</g>
</svg>
