<?xml version="1.0" encoding="iso-8859-1"?>
<!-- Generator: Adobe Illustrator 16.0.0, SVG Export Plug-In . SVG Version: 6.00 Build 0)  -->
<!DOCTYPE svg PUBLIC "-//W3C//DTD SVG 1.1//EN" "http://www.w3.org/Graphics/SVG/1.1/DTD/svg11.dtd">
<svg version="1.1" xmlns="http://www.w3.org/2000/svg" xmlns:xlink="http://www.w3.org/1999/xlink" x="0px" y="0px" width="16px"
	 height="16px" viewBox="0 0 16 16" style="enable-background:new 0 0 16 16;" xml:space="preserve">
<g id="_x32_0-ecommerce_-_shopping_bag" style="enable-background:new    ;">
	<path d="M16,1.998c0-1.104-0.895-2-2-2H2c-1.104,0-2,0.896-2,2V3c0,0.173,0.029,0.339,0.07,0.499C0.029,3.659,0,3.825,0,3.998v10
		c0,1.104,0.896,2,2,2h12c1.105,0,2-0.896,2-2v-10c0-0.173-0.029-0.339-0.07-0.499C15.971,3.339,16,3.173,16,3V1.998z M15,13.998
		c0,0.553-0.447,1-1,1H2c-0.552,0-1-0.447-1-1V4.723C1.295,4.895,1.634,5,2,5h12c0.365,0,0.705-0.105,1-0.277V13.998z M15,3
		c0,0.552-0.447,1-1,1H2C1.448,4,1,3.552,1,3V1.998c0-0.552,0.448-1,1-1h12c0.553,0,1,0.448,1,1V3z M13.5,6.998h-2
		c-0.275,0-0.5,0.225-0.5,0.5c0,0.276,0.225,0.501,0.5,0.501H12c0,2.209-1.791,4-4,4s-4-1.791-4-4h0.5c0.276,0,0.5-0.225,0.5-0.501
		c0-0.275-0.224-0.5-0.5-0.5h-2c-0.276,0-0.5,0.225-0.5,0.5c0,0.276,0.224,0.501,0.5,0.501H3c0,2.761,2.239,5,5,5
		c2.762,0,5-2.239,5-5h0.5c0.275,0,0.5-0.225,0.5-0.501C14,7.223,13.775,6.998,13.5,6.998z"/>
</g>
<g id="Layer_1">
</g>
</svg>
