<?xml version="1.0" encoding="iso-8859-1"?>
<!-- Generator: Adobe Illustrator 16.0.0, SVG Export Plug-In . SVG Version: 6.00 Build 0)  -->
<!DOCTYPE svg PUBLIC "-//W3C//DTD SVG 1.1//EN" "http://www.w3.org/Graphics/SVG/1.1/DTD/svg11.dtd">
<svg version="1.1" xmlns="http://www.w3.org/2000/svg" xmlns:xlink="http://www.w3.org/1999/xlink" x="0px" y="0px" width="16px"
	 height="16px" viewBox="0 0 16 16" style="enable-background:new 0 0 16 16;" xml:space="preserve">
<g id="_x36_6-ecommerce_-_shop_market" style="enable-background:new    ;">
	<path d="M15.666,6.999l-1.666-5h-1v-2H4v2H3l-2,6h1v4v1v3h13v-3v-1v-4h1L15.666,6.999z M5,1h7v1H9H8H5V1z M10.229,3l1.301,3.999H9
		V3H10.229z M8,3v3.999H5.472L6.771,3H8z M3.667,2.999H4V3h1.529l-1.3,3.999H2.333L3.667,2.999z M14,14.999H3v-2h11V14.999z
		 M14,11.999H3v-4h5V8h1V7.999h5V11.999z M12.771,6.999L11.471,3H13V2.999h0.334l1.332,4H12.771z"/>
</g>
<g id="Layer_1">
</g>
</svg>
