<?xml version="1.0" encoding="iso-8859-1"?>
<!-- Generator: Adobe Illustrator 16.0.0, SVG Export Plug-In . SVG Version: 6.00 Build 0)  -->
<!DOCTYPE svg PUBLIC "-//W3C//DTD SVG 1.1//EN" "http://www.w3.org/Graphics/SVG/1.1/DTD/svg11.dtd">
<svg version="1.1" xmlns="http://www.w3.org/2000/svg" xmlns:xlink="http://www.w3.org/1999/xlink" x="0px" y="0px" width="16px"
	 height="16px" viewBox="0 0 16 16" style="enable-background:new 0 0 16 16;" xml:space="preserve">
<g id="_x38_-ecommerce_-_trolley_shop_cart_download" style="enable-background:new    ;">
	<path d="M7.163,4.146c-0.202,0.202-0.202,0.529,0,0.731l1.958,1.959c0.006,0.006,0.014,0.003,0.02,0.008
		C9.232,6.938,9.357,6.999,9.5,6.999c0.002,0,0.002-0.001,0.004-0.001C9.52,6.999,9.533,6.99,9.549,6.989
		C9.65,6.979,9.74,6.94,9.813,6.88c0.021-0.016,0.051-0.01,0.07-0.029l1.969-1.969c0.203-0.203,0.203-0.532,0-0.735
		c-0.203-0.202-0.531-0.202-0.734,0L10,5.265V0.499c0-0.276-0.225-0.5-0.5-0.5S9,0.223,9,0.499v4.753L7.894,4.146
		C7.692,3.944,7.365,3.944,7.163,4.146z M9,13.999c0,1.104,0.895,2,2,2s2-0.896,2-2s-0.895-2-2-2S9,12.895,9,13.999z M11,12.999
		c0.553,0,1,0.447,1,1c0,0.552-0.447,1-1,1s-1-0.448-1-1C10,13.446,10.447,12.999,11,12.999z M15.992,2.464
		c-0.002-0.024-0.008-0.047-0.014-0.071c-0.01-0.047-0.023-0.09-0.047-0.131c-0.006-0.01-0.012-0.018-0.018-0.026
		c-0.031-0.048-0.066-0.09-0.111-0.125c-0.01-0.007-0.018-0.012-0.027-0.018c-0.043-0.029-0.088-0.051-0.137-0.066
		c-0.014-0.004-0.021-0.013-0.035-0.016c-0.021-0.006-0.043-0.001-0.064-0.004c-0.014-0.001-0.025-0.008-0.039-0.008h-0.09
		c-0.008,0-0.014-0.001-0.02,0H11v1h3.801l-1.205,5.036L3,8.987V2.999h5v-1H3v-1h0.5c0.276,0,0.5-0.225,0.5-0.5
		c0-0.276-0.224-0.5-0.5-0.5h-3c-0.276,0-0.5,0.224-0.5,0.5c0,0.275,0.224,0.5,0.5,0.5H2v10.5c0,0.276,0.224,0.5,0.5,0.5H5h6h4
		c0.275,0,0.5-0.224,0.5-0.5s-0.225-0.5-0.5-0.5H3V9.955l10.873-0.979c0.008,0.002,0.014,0.009,0.023,0.011
		c0.283,0.073,0.576-0.09,0.652-0.365l1.432-5.979c0.008-0.025,0.002-0.051,0.006-0.076C15.99,2.543,16,2.522,16,2.499
		C16,2.486,15.994,2.476,15.992,2.464z M3,13.999c0,1.104,0.896,2,2,2s2-0.896,2-2s-0.896-2-2-2S3,12.895,3,13.999z M5,12.999
		c0.552,0,1,0.447,1,1c0,0.552-0.448,1-1,1s-1-0.448-1-1C4,13.446,4.448,12.999,5,12.999z"/>
</g>
<g id="Layer_1">
</g>
</svg>
