<?xml version="1.0" encoding="iso-8859-1"?>
<!-- Generator: Adobe Illustrator 16.0.0, SVG Export Plug-In . SVG Version: 6.00 Build 0)  -->
<!DOCTYPE svg PUBLIC "-//W3C//DTD SVG 1.1//EN" "http://www.w3.org/Graphics/SVG/1.1/DTD/svg11.dtd">
<svg version="1.1" xmlns="http://www.w3.org/2000/svg" xmlns:xlink="http://www.w3.org/1999/xlink" x="0px" y="0px" width="16px"
	 height="16px" viewBox="0 0 16 16" style="enable-background:new 0 0 16 16;" xml:space="preserve">
<g id="_x36_1-ecommerce_-_jewelry_diamond_ring" style="enable-background:new    ;">
	<path d="M10.5,1.999h-5v1h5V1.999z M9.143,5.999L12,2.499v-2l-1.715-0.5H5.714L4,0.499v2l2.857,3.5H9.143z M5,0.999h6v1.5l-2.4,2.5
		H7.4L5,2.499V0.999z M11.178,4.928L11,5.999h-0.027C12.197,6.911,13,8.356,13,9.999c0,2.762-2.238,5-5,5s-5-2.238-5-5
		c0-1.643,0.803-3.088,2.027-4H5L4.821,4.928C3.132,5.989,2,7.856,2,9.999c0,3.313,2.686,6,6,6c3.314,0,6-2.687,6-6
		C14,7.856,12.867,5.989,11.178,4.928z"/>
</g>
<g id="Layer_1">
</g>
</svg>
