<?xml version="1.0" encoding="iso-8859-1"?>
<!-- Generator: Adobe Illustrator 16.0.0, SVG Export Plug-In . SVG Version: 6.00 Build 0)  -->
<!DOCTYPE svg PUBLIC "-//W3C//DTD SVG 1.1//EN" "http://www.w3.org/Graphics/SVG/1.1/DTD/svg11.dtd">
<svg version="1.1" xmlns="http://www.w3.org/2000/svg" xmlns:xlink="http://www.w3.org/1999/xlink" x="0px" y="0px" width="16px"
	 height="16px" viewBox="0 0 16 16" style="enable-background:new 0 0 16 16;" xml:space="preserve">
<g id="_x34_8-goods_-_short" style="enable-background:new    ;">
	<path d="M14.992,12.339L11.355,3.37C11.307,3.193,11.166,3.071,11,3.026V3h-0.998L10,2.999H6C5.999,2.999,5.999,3,5.998,3H5v0.026
		C4.833,3.071,4.692,3.193,4.645,3.37l-3.637,8.969c-0.072,0.266,0.087,0.539,0.355,0.61l4.878,1.03
		c0.268,0.071,0.543-0.086,0.615-0.353L8,10.805l1.145,2.822c0.072,0.267,0.348,0.424,0.615,0.353l4.877-1.03
		C14.904,12.878,15.064,12.604,14.992,12.339z M13.408,12.244l-2.939,0.516c-0.268,0.071-0.543-0.087-0.615-0.352L8,8.217
		l-1.854,4.191c-0.072,0.265-0.347,0.423-0.615,0.352l-2.939-0.516c-0.268-0.071-0.426-0.345-0.355-0.61l2.494-5.635H6.5v-1H5.173
		L5.5,4h5l0.326,0.999H9.5v1h1.77l2.494,5.635C13.834,11.899,13.676,12.173,13.408,12.244z"/>
</g>
<g id="Layer_1">
</g>
</svg>
