<?xml version="1.0" encoding="iso-8859-1"?>
<!-- Generator: Adobe Illustrator 16.0.0, SVG Export Plug-In . SVG Version: 6.00 Build 0)  -->
<!DOCTYPE svg PUBLIC "-//W3C//DTD SVG 1.1//EN" "http://www.w3.org/Graphics/SVG/1.1/DTD/svg11.dtd">
<svg version="1.1" xmlns="http://www.w3.org/2000/svg" xmlns:xlink="http://www.w3.org/1999/xlink" x="0px" y="0px" width="16px"
	 height="16px" viewBox="0 0 16 16" style="enable-background:new 0 0 16 16;" xml:space="preserve">
<g id="_x35_9-ecommerce_-_suitcase" style="enable-background:new    ;">
	<path d="M10-0.001H6v1h4V-0.001z M12,2.999H4v1h8V2.999z M12,0.999h-1v1h1c0.553,0,1,0.447,1,1v10c0,0.552-0.447,1-1,1H4
		c-0.552,0-1-0.448-1-1v-10c0-0.553,0.448-1,1-1h1v-1H4c-1.104,0-2,0.896-2,2v10c0,1.104,0.896,2,2,2h1v1h1v-1h4v1h1v-1h1
		c1.105,0,2-0.896,2-2v-10C14,1.895,13.105,0.999,12,0.999z M4,4.999v1v6c0,0.552,0.448,1,1,1h6c0.553,0,1-0.448,1-1v-6v-1h-1H5H4z
		 M10.5,5.999H11v0.5v0.5v4.5c0,0.276-0.225,0.5-0.5,0.5h-5c-0.276,0-0.5-0.224-0.5-0.5v-4.5v-0.5v-0.5h0.5H10.5z"/>
</g>
<g id="Layer_1">
</g>
</svg>
