<?xml version="1.0" encoding="iso-8859-1"?>
<!-- Generator: Adobe Illustrator 16.0.0, SVG Export Plug-In . SVG Version: 6.00 Build 0)  -->
<!DOCTYPE svg PUBLIC "-//W3C//DTD SVG 1.1//EN" "http://www.w3.org/Graphics/SVG/1.1/DTD/svg11.dtd">
<svg version="1.1" xmlns="http://www.w3.org/2000/svg" xmlns:xlink="http://www.w3.org/1999/xlink" x="0px" y="0px" width="16px"
	 height="16px" viewBox="0 0 16 16" style="enable-background:new 0 0 16 16;" xml:space="preserve">
<g id="_x33_8-ecommerce_-_price_tag" style="enable-background:new    ;">
	<path d="M13.203,5.586c0.771-0.771,0.771-2.021,0-2.793s-2.023-0.771-2.795,0c-0.773,0.771-0.773,2.021,0,2.793
		C11.18,6.356,12.432,6.356,13.203,5.586z M11.105,3.491c0.387-0.386,1.012-0.386,1.398,0s0.387,1.011,0,1.396s-1.012,0.386-1.398,0
		C10.721,4.502,10.721,3.877,11.105,3.491z M8.311,0L2.018,6.287L1.671,6.633L0.273,8.029c-0.386,0.386-0.386,1.012,0,1.396
		l6.291,6.284c0.386,0.386,1.012,0.386,1.397,0l8.037-8.029L16,0H8.311z M7.612,14.663c-0.193,0.192-0.506,0.192-0.699,0
		L1.321,9.077c-0.193-0.193-0.193-0.505,0-0.698L2.37,7.331l6.29,6.284L7.612,14.663z M14.951,7.331l-5.592,5.586L3.069,6.634
		L8.66,1.047L15,1L14.951,7.331z"/>
</g>
<g id="Layer_1">
</g>
</svg>
