<?xml version="1.0" encoding="iso-8859-1"?>
<!-- Generator: Adobe Illustrator 16.0.0, SVG Export Plug-In . SVG Version: 6.00 Build 0)  -->
<!DOCTYPE svg PUBLIC "-//W3C//DTD SVG 1.1//EN" "http://www.w3.org/Graphics/SVG/1.1/DTD/svg11.dtd">
<svg version="1.1" xmlns="http://www.w3.org/2000/svg" xmlns:xlink="http://www.w3.org/1999/xlink" x="0px" y="0px" width="16px"
	 height="16px" viewBox="0 0 16 16" style="enable-background:new 0 0 16 16;" xml:space="preserve">
<g id="_x35_2-ecommerce_-_finance_coin_money_cash_poundsterling" style="enable-background:new    ;">
	<path d="M9.158,10.753c-0.573,0-0.86-0.416-1.515-0.416c-0.184,0-0.379,0.04-0.532,0.092c0.42-0.295,0.778-0.722,0.778-1.342
		c0-0.162-0.031-0.305-0.072-0.437h1.249V8.103H7.531C7.182,7.635,6.711,7.249,6.711,6.507c0-0.812,0.676-1.3,1.454-1.3
		c0.625,0,1.127,0.396,1.301,0.833l0.686-0.406C9.773,4.912,9.016,4.496,8.083,4.496c-1.239,0-2.294,0.873-2.294,2.001
		c0,0.741,0.42,1.179,0.789,1.605H5.503V8.65h1.475c0.092,0.184,0.154,0.386,0.154,0.61c0,0.608-0.481,1.168-1.352,1.543
		l0.297,0.641c0.43-0.224,0.86-0.407,1.208-0.407c0.769,0,0.912,0.468,1.833,0.468c0.646,0,1.098-0.203,1.383-0.478l-0.367-0.681
		C9.998,10.53,9.609,10.753,9.158,10.753z M8-0.001c-4.418,0-8,3.581-8,8c0,4.418,3.582,8,8,8c4.418,0,8-3.582,8-8
		C16,3.58,12.418-0.001,8-0.001z M8,14.999c-3.866,0-7-3.135-7-7c0-3.866,3.134-7,7-7c3.865,0,7,3.134,7,7
		C15,11.864,11.865,14.999,8,14.999z"/>
</g>
<g id="Layer_1">
</g>
</svg>
