<?xml version="1.0" encoding="iso-8859-1"?>
<!-- Generator: Adobe Illustrator 16.0.0, SVG Export Plug-In . SVG Version: 6.00 Build 0)  -->
<!DOCTYPE svg PUBLIC "-//W3C//DTD SVG 1.1//EN" "http://www.w3.org/Graphics/SVG/1.1/DTD/svg11.dtd">
<svg version="1.1" xmlns="http://www.w3.org/2000/svg" xmlns:xlink="http://www.w3.org/1999/xlink" x="0px" y="0px" width="16px"
	 height="16px" viewBox="0 0 16 16" style="enable-background:new 0 0 16 16;" xml:space="preserve">
<g id="_x34_9-goods_-_jeans" style="enable-background:new    ;">
	<path d="M14.992,14.339L11.355,0.37C11.307,0.192,11.166,0.071,11,0.026V0h-0.998c0,0,0-0.001-0.002-0.001H6
		C5.999-0.001,5.999,0,5.997,0H5v0.026C4.833,0.071,4.692,0.192,4.645,0.37L1.008,14.339c-0.072,0.266,0.087,0.538,0.355,0.609
		l3.878,1.031c0.268,0.071,0.543-0.086,0.615-0.352L8,7.39l2.145,8.238c0.072,0.266,0.348,0.423,0.615,0.352l3.877-1.031
		C14.904,14.877,15.064,14.604,14.992,14.339z M13.408,14.244l-1.939,0.516c-0.268,0.071-0.543-0.086-0.615-0.352L8.031,3.499H7.969
		L5.146,14.408c-0.072,0.266-0.347,0.423-0.615,0.352l-1.939-0.516c-0.268-0.071-0.426-0.344-0.354-0.609L4.99,2.999H6.5v-1H5.249
		L5.5,1h5l0.252,0.999H9.5v1h1.51l2.754,10.636C13.834,13.9,13.676,14.173,13.408,14.244z"/>
</g>
<g id="Layer_1">
</g>
</svg>
