<?xml version="1.0" encoding="iso-8859-1"?>
<!-- Generator: Adobe Illustrator 16.0.0, SVG Export Plug-In . SVG Version: 6.00 Build 0)  -->
<!DOCTYPE svg PUBLIC "-//W3C//DTD SVG 1.1//EN" "http://www.w3.org/Graphics/SVG/1.1/DTD/svg11.dtd">
<svg version="1.1" xmlns="http://www.w3.org/2000/svg" xmlns:xlink="http://www.w3.org/1999/xlink" x="0px" y="0px" width="16px"
	 height="16px" viewBox="0 0 16 16" style="enable-background:new 0 0 16 16;" xml:space="preserve">
<g id="_x32_4-ecommerce_-_safe_deposit" style="enable-background:new    ;">
	<path d="M1,7H0v1.999h1V7z M14-0.001H2c-1.104,0-2,0.896-2,2V5h1V1.999C1,1.447,1.448,1,2,1h12c0.553,0,1,0.447,1,0.999V14
		c0,0.552-0.447,1-1,1H2c-0.552,0-1-0.448-1-1v-3H0v3c0,1.104,0.896,1.999,2,1.999h12c1.105,0,2-0.895,2-1.999V1.999
		C16,0.895,15.105-0.001,14-0.001z M8,11.999c2.209,0,4-1.791,4-3.999c0-2.21-1.791-4-4-4S4,5.79,4,8
		C4,10.208,5.791,11.999,8,11.999z M8,5c1.656,0,3,1.343,3,3c0,1.656-1.344,3-3,3c-1.657,0-3-1.344-3-3C5,6.343,6.343,5,8,5z M13,14
		c0.553,0,1-0.448,1-1.001V3c0-0.553-0.447-1.001-1-1.001H3C2.448,1.999,2,2.447,2,3v9.999C2,13.552,2.448,14,3,14H13z M3,3.5
		C3,3.224,3.224,3,3.5,3h9C12.775,3,13,3.224,13,3.5v8.999c0,0.277-0.225,0.5-0.5,0.5h-9c-0.276,0-0.5-0.223-0.5-0.5V3.5z"/>
</g>
<g id="Layer_1">
</g>
</svg>
