<?xml version="1.0" encoding="iso-8859-1"?>
<!-- Generator: Adobe Illustrator 16.0.0, SVG Export Plug-In . SVG Version: 6.00 Build 0)  -->
<!DOCTYPE svg PUBLIC "-//W3C//DTD SVG 1.1//EN" "http://www.w3.org/Graphics/SVG/1.1/DTD/svg11.dtd">
<svg version="1.1" xmlns="http://www.w3.org/2000/svg" xmlns:xlink="http://www.w3.org/1999/xlink" x="0px" y="0px" width="16px"
	 height="16px" viewBox="0 0 16 16" style="enable-background:new 0 0 16 16;" xml:space="preserve">
<g id="_x34_0-ecommerce_-_price_tag" style="enable-background:new    ;">
	<path d="M5.741,11.454l0.708,0.707l3.54-3.536L9.279,7.919L5.741,11.454z M7.865,6.505l-3.54,3.535l0.708,0.707l3.54-3.535
		L7.865,6.505z M15.299,0.698L8.311,0L0.273,8.029c-0.386,0.386-0.386,1.012,0,1.396l6.291,6.284c0.386,0.386,1.012,0.386,1.398,0
		l8.037-8.029L15.299,0.698z M7.612,14.663c-0.193,0.192-0.506,0.192-0.699,0L1.321,9.077c-0.193-0.193-0.193-0.505,0-0.698
		L8.66,1.047l5.942,0.35l0.35,5.935L7.612,14.663z M10.408,2.793c-0.773,0.771-0.773,2.021,0,2.793c0.771,0.771,2.023,0.771,2.795,0
		c0.771-0.771,0.771-2.021,0-2.793S11.18,2.021,10.408,2.793z M12.504,4.888c-0.387,0.386-1.012,0.386-1.398,0
		c-0.385-0.386-0.385-1.011,0-1.396c0.387-0.386,1.012-0.386,1.398,0S12.891,4.502,12.504,4.888z"/>
</g>
<g id="Layer_1">
</g>
</svg>
