<?xml version="1.0" encoding="iso-8859-1"?>
<!-- Generator: Adobe Illustrator 16.0.0, SVG Export Plug-In . SVG Version: 6.00 Build 0)  -->
<!DOCTYPE svg PUBLIC "-//W3C//DTD SVG 1.1//EN" "http://www.w3.org/Graphics/SVG/1.1/DTD/svg11.dtd">
<svg version="1.1" xmlns="http://www.w3.org/2000/svg" xmlns:xlink="http://www.w3.org/1999/xlink" x="0px" y="0px" width="16px"
	 height="16px" viewBox="0 0 16 16" style="enable-background:new 0 0 16 16;" xml:space="preserve">
<g id="_x32_6-ecommerce_-_money_cash_finance" style="enable-background:new    ;">
	<path d="M13,9.999v-7c0-0.552-0.447-1-1-1H1c-0.552,0-1,0.448-1,1v7c0,0.552,0.448,1,1,1h11C12.553,10.999,13,10.551,13,9.999z
		 M11.5,9.999h-10c-0.276,0-0.5-0.224-0.5-0.5v-6c0-0.276,0.224-0.5,0.5-0.5h10c0.275,0,0.5,0.224,0.5,0.5v6
		C12,9.775,11.775,9.999,11.5,9.999z M15,4.999h-1v1h0.5c0.275,0,0.5,0.224,0.5,0.5v6c0,0.276-0.225,0.5-0.5,0.5h-10
		c-0.276,0-0.5-0.224-0.5-0.5v-0.5H3v1c0,0.553,0.448,1,1,1h11c0.553,0,1-0.447,1-1v-7C16,5.446,15.553,4.999,15,4.999z M6.5,3.999
		c-1.381,0-2.5,1.119-2.5,2.5s1.119,2.5,2.5,2.5S9,7.88,9,6.499S7.881,3.999,6.5,3.999z M6.5,7.999c-0.829,0-1.5-0.672-1.5-1.5
		s0.671-1.5,1.5-1.5c0.828,0,1.5,0.672,1.5,1.5S7.328,7.999,6.5,7.999z"/>
</g>
<g id="Layer_1">
</g>
</svg>
