<?xml version="1.0" encoding="iso-8859-1"?>
<!-- Generator: Adobe Illustrator 16.0.0, SVG Export Plug-In . SVG Version: 6.00 Build 0)  -->
<!DOCTYPE svg PUBLIC "-//W3C//DTD SVG 1.1//EN" "http://www.w3.org/Graphics/SVG/1.1/DTD/svg11.dtd">
<svg version="1.1" xmlns="http://www.w3.org/2000/svg" xmlns:xlink="http://www.w3.org/1999/xlink" x="0px" y="0px" width="16px"
	 height="16px" viewBox="0 0 16 16" style="enable-background:new 0 0 16 16;" xml:space="preserve">
<g id="_x35_-ecommerce_-_trolley_shop_cart_download" style="enable-background:new    ;">
	<g>
		<path d="M7.163,7.146c-0.202,0.202-0.202,0.529,0,0.731l1.958,1.959c0.006,0.006,0.014,0.003,0.02,0.008
			C9.232,9.938,9.357,9.999,9.5,9.999c0.002,0,0.002-0.001,0.004-0.001C9.52,9.999,9.531,9.99,9.547,9.989
			c0.102-0.01,0.193-0.049,0.268-0.11c0.02-0.015,0.049-0.009,0.068-0.028l1.969-1.969c0.203-0.203,0.203-0.532,0-0.735
			s-0.531-0.203-0.734,0L10,8.264V3.499c0-0.276-0.225-0.5-0.5-0.5S9,3.223,9,3.499v4.753L7.894,7.146
			C7.692,6.944,7.365,6.944,7.163,7.146z"/>
		<circle cx="7" cy="14.999" r="1"/>
		<circle cx="12" cy="14.999" r="1"/>
		<path d="M15.986,5.571C15.988,5.547,16,5.524,16,5.499c0-0.075-0.02-0.146-0.051-0.21c-0.016-0.037-0.037-0.061-0.061-0.092
			c-0.053-0.068-0.117-0.126-0.197-0.159c-0.016-0.006-0.02-0.023-0.035-0.027c-0.051-0.015-0.102-0.014-0.15-0.01
			C15.504,5.001,15.502,5,15.5,5h-0.01c-0.01,0-0.018-0.002-0.025,0H11v0.999h3.889l-1.768,6H6.5c-0.033,0-0.062,0.013-0.092,0.019
			L5.005,5.999H8V5H4.772L3.979,1.601C3.987,1.566,4,1.535,4,1.5c0-0.249-0.184-0.445-0.421-0.485C3.554,1.009,3.53,1.002,3.503,1
			C3.502,1,3.501,0.999,3.5,0.999h-3C0.224,0.999,0,1.224,0,1.5c0,0.275,0.224,0.499,0.5,0.499h2.597l2.479,10.638
			c0.054,0.21,0.229,0.347,0.425,0.361V13h0.5h0.704H13.5c0.002,0,0.002-0.001,0.004-0.001c0.025-0.002,0.049-0.009,0.074-0.015
			C13.814,12.945,14,12.748,14,12.499c0-0.025-0.012-0.047-0.014-0.071l2.006-6.808C15.996,5.603,15.982,5.588,15.986,5.571z"/>
	</g>
</g>
<g id="Layer_1">
</g>
</svg>
