<?xml version="1.0" encoding="iso-8859-1"?>
<!-- Generator: Adobe Illustrator 16.0.0, SVG Export Plug-In . SVG Version: 6.00 Build 0)  -->
<!DOCTYPE svg PUBLIC "-//W3C//DTD SVG 1.1//EN" "http://www.w3.org/Graphics/SVG/1.1/DTD/svg11.dtd">
<svg version="1.1" xmlns="http://www.w3.org/2000/svg" xmlns:xlink="http://www.w3.org/1999/xlink" x="0px" y="0px" width="16px"
	 height="16px" viewBox="0 0 16 16" style="enable-background:new 0 0 16 16;" xml:space="preserve">
<g id="_x32_7-ecommerce_-_money_cash_coins_finance" style="enable-background:new    ;">
	<path d="M14,3.999c0-1.657-2.686-3-6-3c-3.314,0-6,1.343-6,3c0,0.171,0,8.999,0,8.999s0,0,0,0.001v0.548
		c0.479,1.418,3.029,2.452,6,2.452s5.521-1.034,6-2.452C14,13.547,14,4.17,14,3.999z M13,12.999c0,1.104-2.238,2-5,2
		c-2.761,0-5-0.896-5-2v-1.346c1.074,0.811,2.91,1.346,5,1.346s3.926-0.536,5-1.346V12.999z M13,9.999c0,1.104-2.238,2-5,2
		c-2.761,0-5-0.896-5-2V8.653c1.074,0.811,2.91,1.346,5,1.346s3.926-0.535,5-1.346V9.999z M13,6.999c0,1.104-2.238,2-5,2
		c-2.761,0-5-0.896-5-2V5.653c1.074,0.811,2.91,1.346,5,1.346s3.926-0.535,5-1.346V6.999z M8,5.999c-2.762,0-5-0.896-5-2
		s2.238-2,5-2s5,0.896,5,2S10.762,5.999,8,5.999z"/>
</g>
<g id="Layer_1">
</g>
</svg>
