<?xml version="1.0" encoding="iso-8859-1"?>
<!-- Generator: Adobe Illustrator 16.0.0, SVG Export Plug-In . SVG Version: 6.00 Build 0)  -->
<!DOCTYPE svg PUBLIC "-//W3C//DTD SVG 1.1//EN" "http://www.w3.org/Graphics/SVG/1.1/DTD/svg11.dtd">
<svg version="1.1" xmlns="http://www.w3.org/2000/svg" xmlns:xlink="http://www.w3.org/1999/xlink" x="0px" y="0px" width="16px"
	 height="16px" viewBox="0 0 16 16" style="enable-background:new 0 0 16 16;" xml:space="preserve">
<g id="_x35_1-ecommerce_-_finance_coin_money_cash_yen" style="enable-background:new    ;">
	<g>
		<path d="M8-0.001c-4.418,0-8,3.581-8,8c0,4.418,3.582,8,8,8c4.418,0,8-3.582,8-8C16,3.58,12.418-0.001,8-0.001z M8,14.999
			c-3.866,0-7-3.135-7-7c0-3.866,3.134-7,7-7c3.865,0,7,3.134,7,7C15,11.864,11.865,14.999,8,14.999z"/>
		<polygon points="10.113,5.001 8.49,7.658 7.5,7.658 5.888,5.001 4.999,5.001 7.005,8.499 5.505,8.499 5.505,8.999 7.505,8.999 
			7.505,9.999 5.505,9.999 5.505,10.499 7.505,10.499 7.505,12.499 8.505,12.499 8.505,10.499 10.506,10.499 10.506,9.999 
			8.505,9.999 8.505,8.999 10.506,8.999 10.506,8.499 9.006,8.499 11.002,5.001 		"/>
	</g>
</g>
<g id="Layer_1">
</g>
</svg>
