<?xml version="1.0" encoding="iso-8859-1"?>
<!-- Generator: Adobe Illustrator 16.0.0, SVG Export Plug-In . SVG Version: 6.00 Build 0)  -->
<!DOCTYPE svg PUBLIC "-//W3C//DTD SVG 1.1//EN" "http://www.w3.org/Graphics/SVG/1.1/DTD/svg11.dtd">
<svg version="1.1" xmlns="http://www.w3.org/2000/svg" xmlns:xlink="http://www.w3.org/1999/xlink" x="0px" y="0px" width="16px"
	 height="16px" viewBox="0 0 16 16" style="enable-background:new 0 0 16 16;" xml:space="preserve">
<g id="_x35_4-ecommerce_-_finance_coin_money_cash_dollar" style="enable-background:new    ;">
	<path d="M8.165,7.495V5.233C8.779,5.316,9.35,5.576,9.787,6.032L10.336,5.4C9.799,4.871,9.074,4.519,8.165,4.445V3.491H7.496v0.943
		c-1.316,0.094-2.27,0.851-2.27,1.919c0,1.276,1.151,1.629,2.27,1.919v2.521C6.629,10.7,5.96,10.285,5.544,9.818l-0.548,0.664
		c0.548,0.591,1.393,1.026,2.5,1.089v0.923h0.669v-0.923c1.699-0.114,2.335-1.089,2.335-2.022C10.5,8.189,9.295,7.796,8.165,7.495z
		 M7.496,7.328C6.75,7.121,6.169,6.872,6.169,6.302c0-0.602,0.548-1.037,1.327-1.089V7.328z M8.165,10.804V8.438
		C8.932,8.656,9.557,8.937,9.557,9.61C9.557,10.108,9.207,10.7,8.165,10.804z M8-0.001c-4.418,0-8,3.581-8,8c0,4.418,3.582,8,8,8
		c4.418,0,8-3.582,8-8C16,3.58,12.418-0.001,8-0.001z M8,14.999c-3.866,0-7-3.135-7-7c0-3.866,3.134-7,7-7c3.865,0,7,3.134,7,7
		C15,11.864,11.865,14.999,8,14.999z"/>
</g>
<g id="Layer_1">
</g>
</svg>
