<?xml version="1.0" encoding="iso-8859-1"?>
<!-- Generator: Adobe Illustrator 16.0.0, SVG Export Plug-In . SVG Version: 6.00 Build 0)  -->
<!DOCTYPE svg PUBLIC "-//W3C//DTD SVG 1.1//EN" "http://www.w3.org/Graphics/SVG/1.1/DTD/svg11.dtd">
<svg version="1.1" xmlns="http://www.w3.org/2000/svg" xmlns:xlink="http://www.w3.org/1999/xlink" x="0px" y="0px" width="16px"
	 height="16px" viewBox="0 0 16 16" style="enable-background:new 0 0 16 16;" xml:space="preserve">
<g id="_x35_5-goods_-_fashion_bowtie" style="enable-background:new    ;">
	<path d="M14.5,3.999l-3.775,2.266C10.541,6.103,10.287,5.999,10,5.999H6c-0.287,0-0.542,0.104-0.725,0.266L1.5,3.999
		c-0.829,0-1.5,0.671-1.5,1.5v6c0,0.828,0.671,1.5,1.5,1.5l3.775-2.266C5.458,10.896,5.712,10.999,6,10.999h4
		c0.287,0,0.543-0.104,0.725-0.266l3.775,2.266c0.828,0,1.5-0.672,1.5-1.5v-6C16,4.67,15.328,3.999,14.5,3.999z M5,7.999H3.5
		c-0.276,0-0.5,0.224-0.5,0.5s0.224,0.499,0.5,0.499H5v1.001l-4,2v-7l4,2.333V7.999z M10,9.624c0,0.207-0.225,0.375-0.5,0.375h-3
		C6.224,9.999,6,9.831,6,9.624v-2.25c0-0.207,0.224-0.375,0.5-0.375h3c0.275,0,0.5,0.168,0.5,0.375V9.624z M15,11.999l-4-2V8.998
		h1.5c0.275,0,0.5-0.223,0.5-0.499s-0.225-0.5-0.5-0.5H11V7.332l4-2.333V11.999z"/>
</g>
<g id="Layer_1">
</g>
</svg>
