<?xml version="1.0" encoding="iso-8859-1"?>
<!-- Generator: Adobe Illustrator 16.0.0, SVG Export Plug-In . SVG Version: 6.00 Build 0)  -->
<!DOCTYPE svg PUBLIC "-//W3C//DTD SVG 1.1//EN" "http://www.w3.org/Graphics/SVG/1.1/DTD/svg11.dtd">
<svg version="1.1" xmlns="http://www.w3.org/2000/svg" xmlns:xlink="http://www.w3.org/1999/xlink" x="0px" y="0px" width="16px"
	 height="16px" viewBox="0 0 16 16" style="enable-background:new 0 0 16 16;" xml:space="preserve">
<g id="_x34_3-goods_-_shirt" style="enable-background:new    ;">
	<path d="M15,2h-2V0.999c0-0.553-0.447-1-1-1H5c-0.552,0-1,0.447-1,1V2H2C1.448,2,1,2.946,1,3.499v11.5c0,0.553,0.448,1,1,1h13
		c0.553,0,1-0.447,1-1V3C16,2.447,15.553,2,15,2z M5,2.177l2.715,2.715L5.5,5.999c-0.276,0-0.5-0.224-0.5-0.5V2.177z M8,14.999H2.5
		c-0.276,0-0.5-0.225-0.5-0.5v-10.5C2,3.723,2,3,3,3h1v2.999c0,0.552,0.448,1,1,1l3-1.285V14.999z M5.306,1.127
		C5.283,1.104,5.25,1.11,5.224,1.093C5.304,1.038,5.396,0.999,5.5,0.999h6c0.107,0,0.203,0.041,0.285,0.1
		c-0.033,0.021-0.076,0.015-0.104,0.044l-3.18,3.18L5.306,1.127z M12,2.175v3.324c0,0.276-0.225,0.5-0.5,0.5L9.283,4.891L12,2.175z
		 M15,14.499c0,0.275-0.225,0.5-0.5,0.5H9V5.712l3,1.287c0.553,0,1-0.448,1-1V3h1c1,0,1,0.723,1,0.999V14.499z M10,9.999h4v-1h-4
		V9.999z"/>
</g>
<g id="Layer_1">
</g>
</svg>
