<?xml version="1.0" encoding="iso-8859-1"?>
<!-- Generator: Adobe Illustrator 16.0.0, SVG Export Plug-In . SVG Version: 6.00 Build 0)  -->
<!DOCTYPE svg PUBLIC "-//W3C//DTD SVG 1.1//EN" "http://www.w3.org/Graphics/SVG/1.1/DTD/svg11.dtd">
<svg version="1.1" xmlns="http://www.w3.org/2000/svg" xmlns:xlink="http://www.w3.org/1999/xlink" x="0px" y="0px" width="16px"
	 height="16px" viewBox="0 0 16 16" style="enable-background:new 0 0 16 16;" xml:space="preserve">
<g id="_x31_6-ecommerce_-_box_packaging_pack_goodies" style="enable-background:new    ;">
	<path d="M14.941,5.709c0.07-0.146,0.078-0.318-0.014-0.469l-2.424-4.996c-0.09-0.15-0.248-0.213-0.418-0.228
		C12.057,0.011,12.031-0.001,12-0.001H9H7H4c-0.031,0-0.058,0.012-0.087,0.018C3.745,0.031,3.586,0.094,3.495,0.244L1.072,5.24
		c-0.091,0.15-0.084,0.322-0.014,0.469C1.03,5.802,1,5.896,1,5.999v8.999c0,0.553,0.448,1.001,1,1.001h12c0.553,0,1-0.448,1-1.001
		V5.999C15,5.896,14.971,5.802,14.941,5.709z M11.689,0.999l1.939,4H10H9.834l-0.668-4H11.689z M8,0.999l1,4H7L8,0.999z M7,5.999h2
		v3.999H7V5.999z M4.311,0.999h2.522l-0.667,4H6H2.371L4.311,0.999z M14,14.499c0,0.275-0.225,0.499-0.5,0.499h-11
		c-0.276,0-0.5-0.224-0.5-0.499v-8c0-0.276,0.224-0.5,0.5-0.5H6v5h4v-5h3.5c0.275,0,0.5,0.224,0.5,0.5V14.499z M6,13.999h1v-1H6
		V13.999z M3,13.999h2v-1H3V13.999z"/>
</g>
<g id="Layer_1">
</g>
</svg>
