<?xml version="1.0" encoding="iso-8859-1"?>
<!-- Generator: Adobe Illustrator 16.0.0, SVG Export Plug-In . SVG Version: 6.00 Build 0)  -->
<!DOCTYPE svg PUBLIC "-//W3C//DTD SVG 1.1//EN" "http://www.w3.org/Graphics/SVG/1.1/DTD/svg11.dtd">
<svg version="1.1" xmlns="http://www.w3.org/2000/svg" xmlns:xlink="http://www.w3.org/1999/xlink" x="0px" y="0px" width="16px"
	 height="16px" viewBox="0 0 16 16" style="enable-background:new 0 0 16 16;" xml:space="preserve">
<g id="_x31_5-ecomerce_-_gift_wishlist" style="enable-background:new    ;">
	<path style="fill-rule:evenodd;clip-rule:evenodd;" d="M11.723,3C11.895,2.705,12,2.366,12,2c0-1.105-0.896-2-2-2
		C9.398,0,8.867,0.271,8.5,0.689C8.133,0.271,7.601,0,7,0C5.895,0,5,0.895,5,2c0,0.366,0.105,0.705,0.277,1H1v3h1v3.999v1V16h6h1h6
		v-5.001v-1V6h1V3H11.723z M10,1.001c0.553,0,1,0.448,1,1c0,0.553-0.447,1-1,1s-1-0.447-1-1C9,1.449,9.447,1.001,10,1.001z M7,1.001
		c0.552,0,1,0.448,1,1c0,0.553-0.448,1-1,1c-0.553,0-1-0.447-1-1C6,1.449,6.448,1.001,7,1.001z M8,15H3v-4.001h5V15z M8,9.999H3V6h5
		V9.999z M14,15H9v-4.001h5V15z M14,9.999H9V6h5V9.999z M15,5H2V4h13V5z"/>
</g>
<g id="Layer_1">
</g>
</svg>
