<?xml version="1.0" encoding="iso-8859-1"?>
<!-- Generator: Adobe Illustrator 16.0.0, SVG Export Plug-In . SVG Version: 6.00 Build 0)  -->
<!DOCTYPE svg PUBLIC "-//W3C//DTD SVG 1.1//EN" "http://www.w3.org/Graphics/SVG/1.1/DTD/svg11.dtd">
<svg version="1.1" xmlns="http://www.w3.org/2000/svg" xmlns:xlink="http://www.w3.org/1999/xlink" x="0px" y="0px" width="16px"
	 height="16px" viewBox="0 0 16 16" style="enable-background:new 0 0 16 16;" xml:space="preserve">
<g id="_x31_9-ecommerce_-_upload_digital_item" style="enable-background:new    ;">
	<path d="M8.87,4.13C8.84,4.101,8.797,4.106,8.764,4.086c-0.048-0.03-0.099-0.051-0.155-0.064c-0.01-0.002-0.019,0.002-0.028,0
		C8.41,3.982,8.232,3.997,8.099,4.13L5.13,7.085c-0.205,0.203-0.205,0.534,0,0.738c0.205,0.204,0.537,0.204,0.742,0L8,5.706V13.5
		C8,13.776,8.224,14,8.5,14C8.776,14,9,13.776,9,13.5V5.737l2.096,2.086c0.205,0.204,0.537,0.204,0.742,0s0.205-0.535,0-0.738
		L8.87,4.13z M12.5,2h-8C4.224,2,4,2.224,4,2.5c0,0.275,0.224,0.499,0.5,0.499h8c0.275,0,0.5-0.224,0.5-0.499
		C13,2.224,12.775,2,12.5,2z M13,0H4C2.343,0,1,1.343,1,2.999V13c0,1.656,1.343,3,3,3h9c1.656,0,3-1.344,3-3V2.999
		C16,1.343,14.656,0,13,0z M15,13c0,1.104-0.895,2-2,2H4c-1.104,0-2-0.896-2-2V2.999C2,1.896,2.896,1,4,1h9c1.105,0,2,0.896,2,1.999
		V13z"/>
</g>
<g id="Layer_1">
</g>
</svg>
