<?xml version="1.0" encoding="iso-8859-1"?>
<!-- Generator: Adobe Illustrator 16.0.0, SVG Export Plug-In . SVG Version: 6.00 Build 0)  -->
<!DOCTYPE svg PUBLIC "-//W3C//DTD SVG 1.1//EN" "http://www.w3.org/Graphics/SVG/1.1/DTD/svg11.dtd">
<svg version="1.1" xmlns="http://www.w3.org/2000/svg" xmlns:xlink="http://www.w3.org/1999/xlink" x="0px" y="0px" width="16px"
	 height="16px" viewBox="0 0 16 16" style="enable-background:new 0 0 16 16;" xml:space="preserve">
<g id="_x37_-ecommerce_-_trolley_shop_cart_fill" style="enable-background:new    ;">
	<path d="M9,13.999c0,1.104,0.895,2,2,2s2-0.896,2-2s-0.895-2-2-2S9,12.895,9,13.999z M11,12.999c0.553,0,1,0.447,1,1
		c0,0.552-0.447,1-1,1s-1-0.448-1-1C10,13.446,10.447,12.999,11,12.999z M3,13.999c0,1.104,0.896,2,2,2s2-0.896,2-2s-0.896-2-2-2
		S3,12.895,3,13.999z M5,12.999c0.552,0,1,0.447,1,1c0,0.552-0.448,1-1,1s-1-0.448-1-1C4,13.446,4.448,12.999,5,12.999z
		 M15.992,2.464c-0.002-0.024-0.008-0.047-0.014-0.071c-0.01-0.047-0.023-0.09-0.047-0.131c-0.006-0.01-0.012-0.018-0.018-0.026
		c-0.031-0.048-0.066-0.09-0.111-0.125c-0.01-0.007-0.018-0.012-0.027-0.018c-0.043-0.029-0.088-0.051-0.137-0.066
		c-0.014-0.004-0.021-0.013-0.035-0.016c-0.021-0.006-0.043-0.001-0.064-0.004c-0.014-0.001-0.025-0.008-0.039-0.008h-0.09
		c-0.008,0-0.014-0.001-0.02,0h-2.857L9.641,0.298c-0.389-0.402-1.019-0.403-1.407,0L5.883,1.999H3v-1h0.5
		c0.276,0,0.5-0.225,0.5-0.5c0-0.276-0.224-0.5-0.5-0.5h-3c-0.276,0-0.5,0.224-0.5,0.5c0,0.275,0.224,0.5,0.5,0.5H2v10.5
		c0,0.276,0.224,0.5,0.5,0.5H5h6h4c0.275,0,0.5-0.224,0.5-0.5s-0.225-0.5-0.5-0.5H3V9.955l10.873-0.979
		c0.008,0.002,0.014,0.009,0.023,0.011c0.283,0.073,0.576-0.09,0.652-0.365l1.432-5.979c0.008-0.025,0.002-0.051,0.006-0.076
		C15.99,2.543,16,2.522,16,2.499C16,2.486,15.994,2.476,15.992,2.464z M8.937,1.028l1.651,0.971H7.491L8.937,1.028z M13.596,8.035
		L3,8.987V2.999h1.5L4.5,3H6l0.001-0.001h6.29l0.014,0.008l0.006-0.008h2.49L13.596,8.035z"/>
</g>
<g id="Layer_1">
</g>
</svg>
