<?xml version="1.0" encoding="iso-8859-1"?>
<!-- Generator: Adobe Illustrator 16.0.0, SVG Export Plug-In . SVG Version: 6.00 Build 0)  -->
<!DOCTYPE svg PUBLIC "-//W3C//DTD SVG 1.1//EN" "http://www.w3.org/Graphics/SVG/1.1/DTD/svg11.dtd">
<svg version="1.1" xmlns="http://www.w3.org/2000/svg" xmlns:xlink="http://www.w3.org/1999/xlink" x="0px" y="0px" width="16px"
	 height="16px" viewBox="0 0 16 16" style="enable-background:new 0 0 16 16;" xml:space="preserve">
<g id="_x31_4-ecommerce-_credit_card_mastercard" style="enable-background:new    ;">
	<path d="M14,1.998H2c-1.104,0-2,0.896-2,2.001v9c0,1.104,0.896,2,2,2h12c1.105,0,2-0.896,2-2v-9C16,2.895,15.105,1.998,14,1.998z
		 M15,12.999c0,0.552-0.447,1-1,1H2c-0.552,0-1-0.448-1-1v-9c0-0.553,0.448-1,1-1h12c0.553,0,1,0.447,1,1V12.999z M9.5,3.999
		c-0.529,0-1.029,0.108-1.5,0.275C7.529,4.107,7.029,3.999,6.5,3.999c-2.485,0-4.5,2.015-4.5,4.5c0,2.484,2.015,4.5,4.5,4.5
		c0.529,0,1.029-0.108,1.5-0.275c0.471,0.167,0.971,0.275,1.5,0.275c2.484,0,4.5-2.016,4.5-4.5C14,6.014,11.984,3.999,9.5,3.999z
		 M6.5,11.999c-1.933,0-3.5-1.567-3.5-3.5c0-1.934,1.567-3.5,3.5-3.5c0.062,0,0.12,0.015,0.182,0.018C5.664,5.842,5,7.087,5,8.499
		s0.664,2.656,1.681,3.481C6.62,11.983,6.562,11.999,6.5,11.999z M9.5,11.999c-1.933,0-3.5-1.567-3.5-3.5c0-1.934,1.567-3.5,3.5-3.5
		c1.934,0,3.5,1.566,3.5,3.5C13,10.432,11.434,11.999,9.5,11.999z"/>
</g>
<g id="Layer_1">
</g>
</svg>
