<?xml version="1.0" encoding="iso-8859-1"?>
<!-- Generator: Adobe Illustrator 16.0.0, SVG Export Plug-In . SVG Version: 6.00 Build 0)  -->
<!DOCTYPE svg PUBLIC "-//W3C//DTD SVG 1.1//EN" "http://www.w3.org/Graphics/SVG/1.1/DTD/svg11.dtd">
<svg version="1.1" xmlns="http://www.w3.org/2000/svg" xmlns:xlink="http://www.w3.org/1999/xlink" x="0px" y="0px" width="16px"
	 height="16px" viewBox="0 0 16 16" style="enable-background:new 0 0 16 16;" xml:space="preserve">
<g id="_x33_2-ecommerce_-_price_tag_add" style="enable-background:new    ;">
	<path d="M8.001-0.001L2,4.499v10.499c0,0.553,0.488,1.001,1.091,1.001h4.91v-1.001H3.564c-0.306,0-0.555-0.224-0.555-0.499V4.998
		l4.992-4l4.993,4v4h1.008V4.499L8.001-0.001z M10.986,9.998h-0.979v2.001H7.99v1h2.018v1.999h0.979v-1.999h2.016v-1h-2.016V9.998z
		 M9.988,4.998c0-1.104-0.891-1.999-1.987-1.999c-1.098,0-1.987,0.896-1.987,1.999c0,1.105,0.89,2.001,1.987,2.001
		C9.098,6.999,9.988,6.104,9.988,4.998z M6.993,4.998c0-0.552,0.452-1,1.009-1c0.557,0,1.008,0.448,1.008,1c0,0.553-0.452,1-1.008,1
		C7.444,5.998,6.993,5.551,6.993,4.998z"/>
</g>
<g id="Layer_1">
</g>
</svg>
