<?xml version="1.0" encoding="iso-8859-1"?>
<!-- Generator: Adobe Illustrator 16.0.0, SVG Export Plug-In . SVG Version: 6.00 Build 0)  -->
<!DOCTYPE svg PUBLIC "-//W3C//DTD SVG 1.1//EN" "http://www.w3.org/Graphics/SVG/1.1/DTD/svg11.dtd">
<svg version="1.1" xmlns="http://www.w3.org/2000/svg" xmlns:xlink="http://www.w3.org/1999/xlink" x="0px" y="0px" width="16px"
	 height="16px" viewBox="0 0 16 16" style="enable-background:new 0 0 16 16;" xml:space="preserve">
<g id="_x32_9-ecommerce_-_wallet_money_cash_finance" style="enable-background:new    ;">
	<path style="fill-rule:evenodd;clip-rule:evenodd;" d="M15,4h-2.006V3.272V3V1.732C12.994,0.776,12.26,0,11.354,0H1.64
		C0.812,0,0.133,0.652,0.023,1.495H0v0.238v1.54V5v0.005V15c0,0.553,0.447,1,1,1h14c0.551,0,1-0.447,1-1V5C16,4.447,15.551,4,15,4z
		 M1,3V2.995V1.5C1,1.224,1.224,1,1.5,1h10C11.775,1,12,1.224,12,1.5v1.495V3v0.995H1V3z M15,14.5c0,0.277-0.225,0.5-0.5,0.5h-13
		C1.224,15,1,14.777,1,14.5v-9C1,5.224,1.224,5,1.5,5h13C14.775,5,15,5.224,15,5.5V14.5z M12.492,7.992c-0.828,0-1.5,0.672-1.5,1.5
		s0.672,1.5,1.5,1.5s1.5-0.672,1.5-1.5S13.32,7.992,12.492,7.992z M12.5,10.002c-0.277,0-0.5-0.225-0.5-0.5s0.223-0.5,0.5-0.5
		c0.275,0,0.5,0.225,0.5,0.5S12.775,10.002,12.5,10.002z"/>
</g>
<g id="Layer_1">
</g>
</svg>
