<?xml version="1.0" encoding="iso-8859-1"?>
<!-- Generator: Adobe Illustrator 16.0.0, SVG Export Plug-In . SVG Version: 6.00 Build 0)  -->
<!DOCTYPE svg PUBLIC "-//W3C//DTD SVG 1.1//EN" "http://www.w3.org/Graphics/SVG/1.1/DTD/svg11.dtd">
<svg version="1.1" xmlns="http://www.w3.org/2000/svg" xmlns:xlink="http://www.w3.org/1999/xlink" x="0px" y="0px" width="16px"
	 height="16px" viewBox="0 0 16 16" style="enable-background:new 0 0 16 16;" xml:space="preserve">
<g id="_x31_1-ecommerce_-_market_bag_shop" style="enable-background:new    ;">
	<path d="M13,1.999h-2.051c-0.23-1.141-1.24-2-2.45-2h-1c-1.209,0-2.218,0.859-2.45,2H3c-0.552,0-1,0.447-1,0.999v12.001
		c0,0.552,0.448,1,1,1h10c0.553,0,1-0.448,1-1V2.998C14,2.446,13.553,1.999,13,1.999z M7.5,0.999h1c0.651,0,1.192,0.42,1.399,1
		H6.101C6.308,1.419,6.849,0.999,7.5,0.999z M13,14.499c0,0.276-0.225,0.5-0.5,0.5h-9c-0.276,0-0.5-0.224-0.5-0.5v-1.5h10V14.499z
		 M13,11.999H3v-8.5c0-0.276,0.224-0.501,0.5-0.501H5v3.001h1V2.998h4v3.001h1V2.998h1.5c0.275,0,0.5,0.225,0.5,0.501V11.999z"/>
</g>
<g id="Layer_1">
</g>
</svg>
