<?xml version="1.0" encoding="iso-8859-1"?>
<!-- Generator: Adobe Illustrator 16.0.0, SVG Export Plug-In . SVG Version: 6.00 Build 0)  -->
<!DOCTYPE svg PUBLIC "-//W3C//DTD SVG 1.1//EN" "http://www.w3.org/Graphics/SVG/1.1/DTD/svg11.dtd">
<svg version="1.1" xmlns="http://www.w3.org/2000/svg" xmlns:xlink="http://www.w3.org/1999/xlink" x="0px" y="0px" width="16px"
	 height="16px" viewBox="0 0 16 16" style="enable-background:new 0 0 16 16;" xml:space="preserve">
<g id="_x33_0-ecommerce_-_wallet_money_cash_finance" style="enable-background:new    ;">
	<path d="M15,3.999v-3c0-0.553-0.447-1-1-1l-12,4c-0.552,0-1,0.447-1,1v10c0,0.552,0.448,1,1,1h12h1c0.553,0,1-0.448,1-1v-3v-3v-4
		C16,4.446,15.553,3.999,15,3.999z M13.5,0.999c0.275,0,0.5,0.224,0.5,0.5v2.5H5.25L13.5,0.999z M15,10.999h-2v-1h2V10.999z
		 M15,8.999h-3v3h3v2.5c0,0.276-0.225,0.5-0.5,0.5h-12c-0.276,0-0.5-0.224-0.5-0.5v-9c0-0.276,0.224-0.5,0.5-0.5h12
		c0.275,0,0.5,0.224,0.5,0.5V8.999z"/>
</g>
<g id="Layer_1">
</g>
</svg>
