<?xml version="1.0" encoding="iso-8859-1"?>
<!-- Generator: Adobe Illustrator 16.0.0, SVG Export Plug-In . SVG Version: 6.00 Build 0)  -->
<!DOCTYPE svg PUBLIC "-//W3C//DTD SVG 1.1//EN" "http://www.w3.org/Graphics/SVG/1.1/DTD/svg11.dtd">
<svg version="1.1" xmlns="http://www.w3.org/2000/svg" xmlns:xlink="http://www.w3.org/1999/xlink" x="0px" y="0px" width="16px"
	 height="16px" viewBox="0 0 16 16" style="enable-background:new 0 0 16 16;" xml:space="preserve">
<g id="_x34_-ecommerce_-_shop_cart_fill" style="enable-background:new    ;">
	<g id="_x34_-ecommerce_-_shop_cart_fill_1_">
		<g>
			<path d="M8,14.999c-0.552,0-1,0.448-1,1C7,16.552,7.447,17,8,17s1-0.448,1-1.001C9,15.447,8.552,14.999,8,14.999z M16.985,6.571
				c0.003-0.024,0.014-0.046,0.014-0.071c0-0.076-0.02-0.146-0.05-0.211c-0.016-0.037-0.037-0.06-0.062-0.092
				c-0.053-0.068-0.117-0.126-0.198-0.159c-0.014-0.006-0.019-0.023-0.033-0.027c-0.051-0.015-0.101-0.013-0.15-0.01
				c-0.002,0-0.004-0.002-0.007-0.002h-0.012c-0.008,0.001-0.016-0.001-0.022,0h-1.771L11.64,3.298
				c-0.388-0.402-1.019-0.403-1.406,0L7.508,5.999H5.771L4.979,2.601C4.986,2.566,5,2.535,5,2.499c0-0.248-0.184-0.444-0.421-0.483
				C4.553,2.009,4.529,2.003,4.503,2C4.502,2,4.5,2,4.5,2h-3C1.223,2,1,2.224,1,2.499C1,2.775,1.223,3,1.5,3h2.597l2.479,10.637
				c0.068,0.265,0.328,0.423,0.581,0.352c0.038-0.011,0.054-0.051,0.087-0.07c0.076,0.047,0.161,0.081,0.257,0.081h7
				c0.002,0,0.003,0,0.004,0c0.026-0.003,0.051-0.009,0.076-0.016c0.236-0.039,0.42-0.236,0.42-0.483
				c0-0.025-0.011-0.048-0.014-0.071l2.006-6.809C16.995,6.604,16.982,6.589,16.985,6.571z M10.937,4.027l2.229,1.972H8.988
				L10.937,4.027z M14.12,12.999H7.5c-0.033,0-0.062,0.013-0.092,0.02l-1.403-6.02H6.5H8h6.295l0.009,0.008l0.008-0.008h1.576
				L14.12,12.999z M12.999,14.999c-0.552,0-1,0.448-1,1c0,0.553,0.448,1.001,1,1.001c0.553,0,1-0.448,1-1.001
				C13.999,15.447,13.552,14.999,12.999,14.999z"/>
		</g>
	</g>
</g>
<g id="Layer_1">
</g>
</svg>
