<?xml version="1.0" encoding="iso-8859-1"?>
<!-- Generator: Adobe Illustrator 16.0.0, SVG Export Plug-In . SVG Version: 6.00 Build 0)  -->
<!DOCTYPE svg PUBLIC "-//W3C//DTD SVG 1.1//EN" "http://www.w3.org/Graphics/SVG/1.1/DTD/svg11.dtd">
<svg version="1.1" xmlns="http://www.w3.org/2000/svg" xmlns:xlink="http://www.w3.org/1999/xlink" x="0px" y="0px" width="16px"
	 height="16px" viewBox="0 0 16 16" style="enable-background:new 0 0 16 16;" xml:space="preserve">
<g id="_x32_-ecommerce_-_basket_shopping_cart" style="enable-background:new    ;">
	<path d="M15.5,4.999H15h-2.496l1.195-2H15v-1l-2,0.155l-1.699,2.845H4.7L3,2.154L1,1.999v1h1.3l1.195,2H1H0.5
		c-0.276,0-0.5,0.224-0.5,0.5s0.224,0.5,0.5,0.5h0.6l0.9,9h3h1h4h1h3l0.9-9h0.6c0.275,0,0.5-0.224,0.5-0.5S15.775,4.999,15.5,4.999z
		 M5,13.999H3l-0.25-2H5V13.999z M5,10.999H2.625l-0.25-2H5V10.999z M5,7.999H2.25l-0.25-2h3V7.999z M10,13.999H6v-2h4V13.999z
		 M10,10.999H6v-2h4V10.999z M10,7.999H6v-2h4V7.999z M13,13.999h-2v-2h2.25L13,13.999z M13.375,10.999H11v-2h2.625L13.375,10.999z
		 M13.75,7.999H11v-2h3L13.75,7.999z"/>
</g>
<g id="Layer_1">
</g>
</svg>
