<?xml version="1.0" encoding="iso-8859-1"?>
<!-- Generator: Adobe Illustrator 16.0.0, SVG Export Plug-In . SVG Version: 6.00 Build 0)  -->
<!DOCTYPE svg PUBLIC "-//W3C//DTD SVG 1.1//EN" "http://www.w3.org/Graphics/SVG/1.1/DTD/svg11.dtd">
<svg version="1.1" xmlns="http://www.w3.org/2000/svg" xmlns:xlink="http://www.w3.org/1999/xlink" x="0px" y="0px" width="16px"
	 height="16px" viewBox="0 0 16 16" style="enable-background:new 0 0 16 16;" xml:space="preserve">
<g id="_x36_-ecommerce_-_trolley_shop_cart" style="enable-background:new    ;">
	<path d="M9,13.999c0,1.104,0.895,2,2,2s2-0.896,2-2s-0.895-2-2-2S9,12.895,9,13.999z M11,12.998c0.553,0,1,0.448,1,1.001
		c0,0.552-0.447,1-1,1s-1-0.448-1-1C10,13.446,10.447,12.998,11,12.998z M15.992,2.464c-0.002-0.024-0.008-0.047-0.014-0.071
		c-0.01-0.047-0.023-0.091-0.047-0.132c-0.006-0.009-0.012-0.016-0.018-0.024c-0.029-0.049-0.066-0.091-0.113-0.126
		c-0.008-0.007-0.016-0.012-0.023-0.018c-0.043-0.029-0.088-0.052-0.139-0.066c-0.014-0.004-0.021-0.013-0.035-0.016
		c-0.021-0.006-0.043-0.002-0.064-0.005c-0.014-0.001-0.025-0.007-0.039-0.007h-0.09c-0.008,0-0.014-0.001-0.02,0H3v-1h0.5
		c0.276,0,0.5-0.225,0.5-0.5c0-0.276-0.224-0.5-0.5-0.5h-3c-0.276,0-0.5,0.224-0.5,0.5c0,0.275,0.224,0.5,0.5,0.5H2v10.5
		c0,0.275,0.224,0.5,0.5,0.5H5h6h4c0.275,0,0.5-0.225,0.5-0.5c0-0.276-0.225-0.5-0.5-0.5H3V9.954c0,0,10.887-0.969,10.896-0.967
		c0.283,0.073,0.576-0.09,0.652-0.365l1.432-5.979c0.008-0.025,0.002-0.051,0.006-0.076C15.99,2.543,16,2.522,16,2.499
		C16,2.486,15.994,2.476,15.992,2.464z M13.596,8.034L3,8.987V2.999h11.801L13.596,8.034z M3,13.999c0,1.104,0.896,2,2,2
		s2-0.896,2-2s-0.896-2-2-2S3,12.895,3,13.999z M5,12.998c0.552,0,1,0.448,1,1.001c0,0.552-0.448,1-1,1s-1-0.448-1-1
		C4,13.446,4.448,12.998,5,12.998z"/>
</g>
<g id="Layer_1">
</g>
</svg>
