<?xml version="1.0" encoding="iso-8859-1"?>
<!-- Generator: Adobe Illustrator 16.0.0, SVG Export Plug-In . SVG Version: 6.00 Build 0)  -->
<!DOCTYPE svg PUBLIC "-//W3C//DTD SVG 1.1//EN" "http://www.w3.org/Graphics/SVG/1.1/DTD/svg11.dtd">
<svg version="1.1" xmlns="http://www.w3.org/2000/svg" xmlns:xlink="http://www.w3.org/1999/xlink" x="0px" y="0px" width="16px"
	 height="16px" viewBox="0 0 16 16" style="enable-background:new 0 0 16 16;" xml:space="preserve">
<g id="_x33_6-ecommerce_-_price_tag" style="enable-background:new    ;">
	<path d="M3.069,9.426l3.495,3.491l0.699-0.698l-3.495-3.49L3.069,9.426z M13.412,5.42c0.785-0.783,0.785-2.054,0-2.837
		c-0.783-0.783-2.055-0.783-2.84,0c-0.783,0.783-0.783,2.054,0,2.837C11.357,6.204,12.629,6.204,13.412,5.42z M11.299,3.276
		c0.393-0.392,1.027-0.392,1.42,0s0.393,1.027,0,1.419s-1.027,0.392-1.42,0S10.906,3.668,11.299,3.276z M8.311,0L0.273,8.029
		c-0.386,0.386-0.386,1.012,0,1.396l6.291,6.284c0.386,0.386,1.012,0.386,1.397,0l8.037-8.029L16,0H8.311z M14.951,7.331
		l-7.339,7.332c-0.193,0.192-0.506,0.192-0.699,0L1.321,9.077c-0.193-0.193-0.193-0.505,0-0.698L8.66,1.047L15,1L14.951,7.331z"/>
</g>
<g id="Layer_1">
</g>
</svg>
