<?xml version="1.0" encoding="iso-8859-1"?>
<!-- Generator: Adobe Illustrator 16.0.0, SVG Export Plug-In . SVG Version: 6.00 Build 0)  -->
<!DOCTYPE svg PUBLIC "-//W3C//DTD SVG 1.1//EN" "http://www.w3.org/Graphics/SVG/1.1/DTD/svg11.dtd">
<svg version="1.1" xmlns="http://www.w3.org/2000/svg" xmlns:xlink="http://www.w3.org/1999/xlink" x="0px" y="0px" width="16px"
	 height="16px" viewBox="0 0 16 16" style="enable-background:new 0 0 16 16;" xml:space="preserve">
<g id="_x35_3-ecommerce_-_finance_coin_money_cash_euro" style="enable-background:new    ;">
	<path d="M8-0.001c-4.418,0-8,3.581-8,8c0,4.418,3.582,8,8,8c4.418,0,8-3.582,8-8C16,3.58,12.418-0.001,8-0.001z M8,14.999
		c-3.866,0-7-3.135-7-7c0-3.866,3.134-7,7-7c3.865,0,7,3.134,7,7C15,11.864,11.865,14.999,8,14.999z M10.855,5.999h1.191
		c-0.629-1.185-1.861-2-3.297-2c-1.435,0-2.667,0.815-3.297,2H4.5c-0.276,0-0.5,0.224-0.5,0.5c0,0.275,0.224,0.5,0.5,0.5h0.576
		C5.026,7.241,5,7.492,5,7.749c0,0.086,0.02,0.166,0.025,0.25H4.5c-0.276,0-0.5,0.224-0.5,0.5s0.224,0.5,0.5,0.5h0.729
		c0.517,1.453,1.89,2.5,3.52,2.5c1.223,0,2.299-0.595,2.983-1.5h-1.408c-0.447,0.313-0.988,0.5-1.575,0.5
		c-1.065,0-1.979-0.613-2.436-1.5H9c0.276,0,0.5-0.224,0.5-0.5s-0.225-0.5-0.5-0.5H6.025C6.018,7.915,6,7.835,6,7.749
		c0-0.262,0.048-0.51,0.117-0.75H9c0.276,0,0.5-0.225,0.5-0.5c0-0.276-0.225-0.5-0.5-0.5H6.645c0.504-0.606,1.255-1,2.105-1
		C9.6,4.999,10.352,5.393,10.855,5.999z"/>
</g>
<g id="Layer_1">
</g>
</svg>
