<?xml version="1.0" encoding="iso-8859-1"?>
<!-- Generator: Adobe Illustrator 16.0.0, SVG Export Plug-In . SVG Version: 6.00 Build 0)  -->
<!DOCTYPE svg PUBLIC "-//W3C//DTD SVG 1.1//EN" "http://www.w3.org/Graphics/SVG/1.1/DTD/svg11.dtd">
<svg version="1.1" xmlns="http://www.w3.org/2000/svg" xmlns:xlink="http://www.w3.org/1999/xlink" x="0px" y="0px" width="16px"
	 height="16px" viewBox="0 0 16 16" style="enable-background:new 0 0 16 16;" xml:space="preserve">
<g id="_x34_4-goods_-_women_bag" style="enable-background:new    ;">
	<path d="M15,7.999c0-1.104-0.895-2-2-2h-0.039c-0.199-3.353-2.332-6-4.961-6c-2.63,0-4.762,2.647-4.961,6H3c-1.104,0-2,0.896-2,2
		l0.014,0.087C1.008,8.131,1,8.175,1,8.222l0.385,2.197c0.006,0.005,0.014,0.011,0.021,0.017L2,13.999c0,1.104,0.896,2,2,2h8
		c1.105,0,2-0.896,2-2l0.594-3.563c0.006-0.006,0.014-0.012,0.021-0.017L15,8.222c0-0.047-0.008-0.092-0.014-0.136L15,7.999z
		 M8,0.998c2.084,0,3.777,2.202,3.963,5.001H4.037C4.223,3.2,5.915,0.998,8,0.998z M13,13.999c0,0.553-0.447,1-1,1H4
		c-0.552,0-1-0.447-1-1l-0.452-2.711c1.429,0.93,3.342,1.71,5.452,1.71s4.023-0.78,5.451-1.71L13,13.999z M13.641,10.15
		c-1.271,1.09-3.322,1.898-5.641,1.898S3.63,11.24,2.358,10.15L2,7.999c0-0.553,0.448-1,1-1h10c0.553,0,1,0.447,1,1L13.641,10.15z
		 M8,7.999c-0.552,0-1,0.447-1,1c0,0.552,0.448,1,1,1s1-0.448,1-1C9,8.446,8.552,7.999,8,7.999z"/>
</g>
<g id="Layer_1">
</g>
</svg>
