<?xml version="1.0" encoding="iso-8859-1"?>
<!-- Generator: Adobe Illustrator 16.0.0, SVG Export Plug-In . SVG Version: 6.00 Build 0)  -->
<!DOCTYPE svg PUBLIC "-//W3C//DTD SVG 1.1//EN" "http://www.w3.org/Graphics/SVG/1.1/DTD/svg11.dtd">
<svg version="1.1" xmlns="http://www.w3.org/2000/svg" xmlns:xlink="http://www.w3.org/1999/xlink" x="0px" y="0px" width="16px"
	 height="16px" viewBox="0 0 16 16" style="enable-background:new 0 0 16 16;" xml:space="preserve">
<g id="_x33_3-ecommerce_-_price_tag_minus_delete" style="enable-background:new    ;">
	<path d="M7.99,12.999h5.012v-1H7.99V12.999z M9.988,4.998c0-1.104-0.891-1.999-1.987-1.999c-1.098,0-1.987,0.896-1.987,1.999
		c0,1.105,0.89,2.001,1.987,2.001C9.098,6.999,9.988,6.104,9.988,4.998z M6.993,4.998c0-0.552,0.452-1,1.009-1
		c0.557,0,1.008,0.448,1.008,1c0,0.553-0.452,1-1.008,1C7.444,5.998,6.993,5.551,6.993,4.998z M8.001-0.001L2,4.499v10.499
		c0,0.553,0.488,1.001,1.091,1.001h4.911v-1.001H3.564c-0.306,0-0.555-0.224-0.555-0.499V4.998l4.992-4l4.993,4v4.001h1.008v-4.5
		L8.001-0.001z"/>
</g>
<g id="Layer_1">
</g>
</svg>
