<?xml version="1.0" encoding="iso-8859-1"?>
<!-- Generator: Adobe Illustrator 16.0.0, SVG Export Plug-In . SVG Version: 6.00 Build 0)  -->
<!DOCTYPE svg PUBLIC "-//W3C//DTD SVG 1.1//EN" "http://www.w3.org/Graphics/SVG/1.1/DTD/svg11.dtd">
<svg version="1.1" xmlns="http://www.w3.org/2000/svg" xmlns:xlink="http://www.w3.org/1999/xlink" x="0px" y="0px" width="16px"
	 height="16px" viewBox="0 0 16 16" style="enable-background:new 0 0 16 16;" xml:space="preserve">
<g id="_x32_5-ecommerce_-_money_cash_finance" style="enable-background:new    ;">
	<path d="M5.888,5.934c0-0.329,0.294-0.56,0.669-0.56c0.557,0,0.982,0.408,0.982,0.408l0.351-0.69c0,0-0.375-0.415-1.101-0.48V4.006
		H6.251v0.618C5.556,4.742,5.074,5.269,5.074,5.947c0,1.414,2.115,1.335,2.115,2.124c0,0.382-0.307,0.566-0.645,0.566
		c-0.626,0-1.107-0.494-1.107-0.494L4.999,8.782c0,0,0.444,0.52,1.252,0.618v0.605h0.538V9.4c0.763-0.104,1.208-0.678,1.208-1.349
		C7.997,6.578,5.888,6.717,5.888,5.934z M13,10.999v-8c0-0.552-0.447-1-1-1H1c-0.552,0-1,0.448-1,1v8c0,0.552,0.448,1,1,1h11
		C12.553,11.999,13,11.551,13,10.999z M11.5,10.999h-10c-0.276,0-0.5-0.224-0.5-0.5v-7c0-0.276,0.224-0.5,0.5-0.5h10
		c0.275,0,0.5,0.224,0.5,0.5v7C12,10.775,11.775,10.999,11.5,10.999z M15,4.999L14,5v0.999h0.5c0.275,0,0.5,0.224,0.5,0.5v7
		c0,0.275-0.225,0.5-0.5,0.5h-10c-0.276,0-0.5-0.225-0.5-0.5v-0.5H3v1c0,0.552,0.448,1,1,1h11c0.553,0,1-0.448,1-1v-8
		C16,5.446,15.553,4.999,15,4.999z"/>
</g>
<g id="Layer_1">
</g>
</svg>
