<?xml version="1.0" encoding="iso-8859-1"?>
<!-- Generator: Adobe Illustrator 16.0.0, SVG Export Plug-In . SVG Version: 6.00 Build 0)  -->
<!DOCTYPE svg PUBLIC "-//W3C//DTD SVG 1.1//EN" "http://www.w3.org/Graphics/SVG/1.1/DTD/svg11.dtd">
<svg version="1.1" xmlns="http://www.w3.org/2000/svg" xmlns:xlink="http://www.w3.org/1999/xlink" x="0px" y="0px" width="16px"
	 height="16px" viewBox="0 0 16 16" style="enable-background:new 0 0 16 16;" xml:space="preserve">
<g id="_x36_5-ecommerce_-_bill_payment_receipt" style="enable-background:new    ;">
	<path d="M10,6.999h2v-1h-2V6.999z M10,8.999h2v-1h-2V8.999z M10,10.999h2v-1h-2V10.999z M12,2.999H4v1h8V2.999z M8,5.999H4v1h4
		V5.999z M1-0.001v16h1l2-1.5l1.988,1.5L8,14.499l2,1.5l2-1.5l2,1.5h1v-16H1z M14,14.999l-2-1.5l-2,1.5l-2-1.5l-2,1.5l-2-1.5l-2,1.5
		V0.998h12V14.999z M8,9.999H4v1h4V9.999z M8,7.999H4v1h4V7.999z"/>
</g>
<g id="Layer_1">
</g>
</svg>
