<?xml version="1.0" encoding="iso-8859-1"?>
<!-- Generator: Adobe Illustrator 16.0.0, SVG Export Plug-In . SVG Version: 6.00 Build 0)  -->
<!DOCTYPE svg PUBLIC "-//W3C//DTD SVG 1.1//EN" "http://www.w3.org/Graphics/SVG/1.1/DTD/svg11.dtd">
<svg version="1.1" xmlns="http://www.w3.org/2000/svg" xmlns:xlink="http://www.w3.org/1999/xlink" x="0px" y="0px" width="16px"
	 height="16px" viewBox="0 0 16 16" style="enable-background:new 0 0 16 16;" xml:space="preserve">
<g id="_x33_1-ecommerce_-_price_tag" style="enable-background:new    ;">
	<path d="M8.5-0.001L3,4.499v10.499c0,0.553,0.448,1.001,1,1.001h9c0.553,0,1-0.448,1-1.001V4.499L8.5-0.001z M13,14.499
		c0,0.275-0.225,0.499-0.5,0.499h-8c-0.276,0-0.5-0.224-0.5-0.499V4.998l4.5-4l4.5,4V14.499z M6.5,4.998
		c0,1.105,0.896,2.001,2,2.001c1.106,0,2-0.896,2-2.001c0-1.104-0.895-1.999-2-1.999C7.396,2.999,6.5,3.895,6.5,4.998z M9.5,4.998
		c0,0.553-0.447,1-1,1c-0.552,0-1-0.447-1-1c0-0.552,0.448-1,1-1C9.053,3.998,9.5,4.446,9.5,4.998z"/>
</g>
<g id="Layer_1">
</g>
</svg>
