<?xml version="1.0" encoding="iso-8859-1"?>
<!-- Generator: Adobe Illustrator 16.0.0, SVG Export Plug-In . SVG Version: 6.00 Build 0)  -->
<!DOCTYPE svg PUBLIC "-//W3C//DTD SVG 1.1//EN" "http://www.w3.org/Graphics/SVG/1.1/DTD/svg11.dtd">
<svg version="1.1" xmlns="http://www.w3.org/2000/svg" xmlns:xlink="http://www.w3.org/1999/xlink" x="0px" y="0px" width="16px"
	 height="16px" viewBox="0 0 16 16" style="enable-background:new 0 0 16 16;" xml:space="preserve">
<g id="_x34_7-goods_-_t_shirt" style="enable-background:new    ;">
	<path d="M11,1.999c0,0-0.5,2.5-3,2.5s-3-2.5-3-2.5l-5,2.5l1,4l3-0.5v6.999h4h4V7.999l3,0.5l1-4L11,1.999z M14.32,7.372L11,6.999v1
		v6H8H5v-6v-1L1.679,7.372L1.223,5.005l3.245-1.622C5.038,4.42,6.145,5.498,8,5.498s2.963-1.078,3.533-2.115l3.244,1.622
		L14.32,7.372z"/>
</g>
<g id="Layer_1">
</g>
</svg>
