<?xml version="1.0" encoding="iso-8859-1"?>
<!-- Generator: Adobe Illustrator 16.0.0, SVG Export Plug-In . SVG Version: 6.00 Build 0)  -->
<!DOCTYPE svg PUBLIC "-//W3C//DTD SVG 1.1//EN" "http://www.w3.org/Graphics/SVG/1.1/DTD/svg11.dtd">
<svg version="1.1" xmlns="http://www.w3.org/2000/svg" xmlns:xlink="http://www.w3.org/1999/xlink" x="0px" y="0px" width="16px"
	 height="16px" viewBox="0 0 16 16" style="enable-background:new 0 0 16 16;" xml:space="preserve">
<g id="_x31_3-ecommerce-_credit_card_discover" style="enable-background:new    ;">
	<path d="M14,1.998H2c-1.104,0-2,0.896-2,2.001v9c0,1.104,0.896,2,2,2h12c1.104,0,2-0.896,2-2v-9C16,2.895,15.104,1.998,14,1.998z
		 M15,12.999c0,0.552-0.447,1-1,1h-2.752L15,10.248V12.999z M15,8.75l-5.248,5.249H2c-0.552,0-1-0.448-1-1v-9c0-0.553,0.448-1,1-1
		h12c0.553,0,1,0.447,1,1V8.75z M8,4.999c-1.657,0-3,1.343-3,2.999c0,1.657,1.343,3,3,3c1.656,0,3-1.343,3-3
		C11,6.342,9.656,4.999,8,4.999z M8,9.998c-1.104,0-2-0.895-2-2c0-1.104,0.896-2,2-2c1.104,0,2,0.896,2,2
		C10,9.104,9.104,9.998,8,9.998z"/>
</g>
<g id="Layer_1">
</g>
</svg>
