<?xml version="1.0" encoding="iso-8859-1"?>
<!-- Generator: Adobe Illustrator 16.0.0, SVG Export Plug-In . SVG Version: 6.00 Build 0)  -->
<!DOCTYPE svg PUBLIC "-//W3C//DTD SVG 1.1//EN" "http://www.w3.org/Graphics/SVG/1.1/DTD/svg11.dtd">
<svg version="1.1" xmlns="http://www.w3.org/2000/svg" xmlns:xlink="http://www.w3.org/1999/xlink" x="0px" y="0px" width="16px"
	 height="16px" viewBox="0 0 16 16" style="enable-background:new 0 0 16 16;" xml:space="preserve">
<g id="_x32_3-ecommerce-_credit_card" style="enable-background:new    ;">
	<path d="M6,10.998H2v1.001h4V10.998z M10,10.998H7v1.001h3V10.998z M0,7.999v4.999c0,1.105,0.896,2.001,2,2.001h12
		c1.105,0,2-0.896,2-2.001V7.999V6.998H0V7.999z M1,7.999h14v4.999c0,0.553-0.447,1.001-1,1.001H2c-0.552,0-1-0.448-1-1.001V7.999z
		 M14,0.998H2c-1.104,0-2,0.896-2,2.001v0.999v1.001h16V3.998V2.999C16,1.895,15.105,0.998,14,0.998z M15,3.998H1V2.999
		c0-0.553,0.448-1.001,1-1.001h12c0.553,0,1,0.448,1,1.001V3.998z"/>
</g>
<g id="Layer_1">
</g>
</svg>
