<?xml version="1.0" encoding="iso-8859-1"?>
<!-- Generator: Adobe Illustrator 16.0.0, SVG Export Plug-In . SVG Version: 6.00 Build 0)  -->
<!DOCTYPE svg PUBLIC "-//W3C//DTD SVG 1.1//EN" "http://www.w3.org/Graphics/SVG/1.1/DTD/svg11.dtd">
<svg version="1.1" xmlns="http://www.w3.org/2000/svg" xmlns:xlink="http://www.w3.org/1999/xlink" x="0px" y="0px" width="16px"
	 height="16px" viewBox="0 0 16 16" style="enable-background:new 0 0 16 16;" xml:space="preserve">
<g id="_x33_-ecommerce_-_shop_cart" style="enable-background:new    ;">
	<g>
		<circle cx="7" cy="15" r="1"/>
		<path d="M16,5.5c0-0.076-0.02-0.146-0.051-0.211c-0.016-0.037-0.037-0.06-0.061-0.092c-0.053-0.068-0.117-0.126-0.199-0.159
			c-0.014-0.006-0.018-0.023-0.033-0.027c-0.051-0.015-0.102-0.013-0.15-0.01c-0.002,0-0.004-0.002-0.006-0.002h-0.012
			c-0.008,0.001-0.016-0.001-0.023,0H4.772L3.979,1.601c0.007-0.034-0.164-0.546-0.401-0.585C3.553,1.009,3.529,1.003,3.503,1
			C3.502,1,3.501,1,3.5,1h-3C0.224,1,0,1.224,0,1.499C0,1.775,0.224,2,0.5,2h2.597l2.479,10.637c0.055,0.215,0.238,0.353,0.44,0.36
			v0.002H6.5h1.407H13.5c0.002,0,0.002,0,0.004,0c0.025-0.003,0.051-0.009,0.076-0.016c0.236-0.039,0.408-0.531,0.406-0.555
			l2.006-6.809c0.004-0.017-0.01-0.031-0.006-0.049C15.988,5.547,16,5.525,16,5.5z M13.121,11.999c0,0-6.683,0.013-6.713,0.02
			l-1.403-6.02h9.884L13.121,11.999z"/>
		<circle cx="12" cy="15" r="1"/>
	</g>
</g>
<g id="Layer_1">
</g>
</svg>
