<?xml version="1.0" encoding="iso-8859-1"?>
<!-- Generator: Adobe Illustrator 16.0.0, SVG Export Plug-In . SVG Version: 6.00 Build 0)  -->
<!DOCTYPE svg PUBLIC "-//W3C//DTD SVG 1.1//EN" "http://www.w3.org/Graphics/SVG/1.1/DTD/svg11.dtd">
<svg version="1.1" xmlns="http://www.w3.org/2000/svg" xmlns:xlink="http://www.w3.org/1999/xlink" x="0px" y="0px" width="16px"
	 height="16px" viewBox="0 0 16 16" style="enable-background:new 0 0 16 16;" xml:space="preserve">
<g id="_x35_8-ecommerce_-_hanger" style="enable-background:new    ;">
	<path d="M9.199,6.745C10.258,6.282,11,5.229,11,3.999c0-1.657-1.344-3-3-3c-1.657,0-3,1.343-3,3c0,0.171,0.018,0.337,0.046,0.5
		h1.025C6.029,4.338,6,4.173,6,3.999c0-1.104,0.896-2.001,2-2.001c1.105,0,2,0.896,2,2.001s-0.895,2-2,2v1l6.5,7
		c-0.008-0.001,1.188,1-1,1h-11c-2.196,0-0.991-0.974-1-1l4.875-4.5H4.821L0,13.999c0,0.553,0.448,1.999,1,1.999h14
		c0.553,0,1-1.446,1-1.999L9.199,6.745z"/>
</g>
<g id="Layer_1">
</g>
</svg>
