<?xml version="1.0" encoding="iso-8859-1"?>
<!-- Generator: Adobe Illustrator 16.0.0, SVG Export Plug-In . SVG Version: 6.00 Build 0)  -->
<!DOCTYPE svg PUBLIC "-//W3C//DTD SVG 1.1//EN" "http://www.w3.org/Graphics/SVG/1.1/DTD/svg11.dtd">
<svg version="1.1" xmlns="http://www.w3.org/2000/svg" xmlns:xlink="http://www.w3.org/1999/xlink" x="0px" y="0px" width="16px"
	 height="16px" viewBox="0 0 16 16" style="enable-background:new 0 0 16 16;" xml:space="preserve">
<g id="_x33_5-ecommerce_-_price_tag_cross" style="enable-background:new    ;">
	<path d="M13.178,11.003L11.619,12.7l-1.557-1.697l-0.779,0.748l1.604,1.747l-1.604,1.748l0.779,0.749l1.557-1.698l1.559,1.698
		l0.777-0.749l-1.602-1.748l1.602-1.747L13.178,11.003z M9.988,4.998c0-1.104-0.891-1.999-1.987-1.999
		c-1.098,0-1.987,0.895-1.987,1.999s0.89,2.001,1.987,2.001C9.098,6.999,9.988,6.103,9.988,4.998z M8.001,5.999
		c-0.557,0-1.009-0.448-1.009-1.001c0-0.552,0.452-1,1.009-1c0.557,0,1.008,0.448,1.008,1C9.01,5.551,8.558,5.999,8.001,5.999z
		 M8.001-0.001L2,4.499v10.499c0,0.553,0.488,1,1.091,1h4.91v-1H3.564c-0.306,0-0.555-0.224-0.555-0.5v-9.5l4.992-4l4.993,4v4h1.008
		V4.499L8.001-0.001z"/>
</g>
<g id="Layer_1">
</g>
</svg>
