<?xml version="1.0" encoding="iso-8859-1"?>
<!-- Generator: Adobe Illustrator 16.0.0, SVG Export Plug-In . SVG Version: 6.00 Build 0)  -->
<!DOCTYPE svg PUBLIC "-//W3C//DTD SVG 1.1//EN" "http://www.w3.org/Graphics/SVG/1.1/DTD/svg11.dtd">
<svg version="1.1" xmlns="http://www.w3.org/2000/svg" xmlns:xlink="http://www.w3.org/1999/xlink" x="0px" y="0px" width="16px"
	 height="16px" viewBox="0 0 16 16" style="enable-background:new 0 0 16 16;" xml:space="preserve">
<g id="_x31_0-ecommerce_-_trolley_shop_cart" style="enable-background:new    ;">
	<path d="M5,13.998c-0.552,0-1,0.448-1,1.001c0,0.552,0.448,1,1,1s1-0.448,1-1C6,14.446,5.552,13.998,5,13.998z M12,13.998
		c-0.553,0-1,0.448-1,1.001c0,0.552,0.447,1,1,1s1-0.448,1-1C13,14.446,12.553,13.998,12,13.998z M15,9.998c0.553,0,1-0.447,1-0.999
		V0.998c0-0.552-0.447-0.999-1-0.999H3H0v0.999h2v3.501v4.5v4h14v-1H3V9.998H15z M3,1.499c0-0.276,0.224-0.501,0.5-0.501h11
		c0.275,0,0.5,0.225,0.5,0.501v7c0,0.276-0.225,0.5-0.5,0.5h-11c-0.276,0-0.5-0.224-0.5-0.5V1.499z"/>
</g>
<g id="Layer_1">
</g>
</svg>
