<?xml version="1.0" encoding="iso-8859-1"?>
<!-- Generator: Adobe Illustrator 16.0.0, SVG Export Plug-In . SVG Version: 6.00 Build 0)  -->
<!DOCTYPE svg PUBLIC "-//W3C//DTD SVG 1.1//EN" "http://www.w3.org/Graphics/SVG/1.1/DTD/svg11.dtd">
<svg version="1.1" xmlns="http://www.w3.org/2000/svg" xmlns:xlink="http://www.w3.org/1999/xlink" x="0px" y="0px" width="16px"
	 height="16px" viewBox="0 0 16 16" style="enable-background:new 0 0 16 16;" xml:space="preserve">
<g id="_x36_0-ecommerce_-_suitcase" style="enable-background:new    ;">
	<path d="M12,0.999h-1v1h1c0.553,0,1,0.447,1,1v10c0,0.552-0.447,1-1,1H4c-0.552,0-1-0.448-1-1v-10c0-0.553,0.448-1,1-1h1v-1H4
		c-1.104,0-2,0.896-2,2v10c0,1.104,0.896,2,2,2h1v1h1v-1h4v1h1v-1h1c1.105,0,2-0.896,2-2v-10C14,1.895,13.105,0.999,12,0.999z
		 M5,10.999h6v-1H5V10.999z M11,6.999H5v0.999h6V6.999z M11,3.999H5v1h6V3.999z M10-0.001H6v1h4V-0.001z"/>
</g>
<g id="Layer_1">
</g>
</svg>
