<?xml version="1.0" encoding="iso-8859-1"?>
<!-- Generator: Adobe Illustrator 16.0.0, SVG Export Plug-In . SVG Version: 6.00 Build 0)  -->
<!DOCTYPE svg PUBLIC "-//W3C//DTD SVG 1.1//EN" "http://www.w3.org/Graphics/SVG/1.1/DTD/svg11.dtd">
<svg version="1.1" xmlns="http://www.w3.org/2000/svg" xmlns:xlink="http://www.w3.org/1999/xlink" x="0px" y="0px" width="16px"
	 height="16px" viewBox="0 0 16 16" style="enable-background:new 0 0 16 16;" xml:space="preserve">
<g id="_x34_2-goods_-_shirt" style="enable-background:new    ;">
	<path d="M15,1.999h-2.625c-0.779-1.19-2.213-2-3.875-2c-1.661,0-3.096,0.81-3.875,2H2c-0.552,0-1,0.464-1,1.037v11.926
		c0,0.573,0.448,1.037,1,1.037h13c0.553,0,1-0.464,1-1.037V3.036C16,2.463,15.553,1.999,15,1.999z M8,14.999H2.5
		c-0.276,0-0.5-0.234-0.5-0.522V3.521c0-0.288,0.224-0.521,0.5-0.521h1.659C4.065,3.32,4,3.651,4,3.999C4,6.056,5.753,7.73,8,7.954
		V14.999z M5,3.999c0-1.657,1.567-3,3.5-3c1.934,0,3.5,1.343,3.5,3c0,1.656-1.566,3-3.5,3C6.567,6.999,5,5.655,5,3.999z M15,14.477
		c0,0.288-0.225,0.522-0.5,0.522H9V7.954c2.247-0.224,4-1.898,4-3.955c0-0.348-0.066-0.679-0.158-1H14.5
		c0.275,0,0.5,0.233,0.5,0.521V14.477z M10,9.999h4v-1h-4V9.999z"/>
</g>
<g id="Layer_1">
</g>
</svg>
