<?xml version="1.0" encoding="iso-8859-1"?>
<!-- Generator: Adobe Illustrator 16.0.0, SVG Export Plug-In . SVG Version: 6.00 Build 0)  -->
<!DOCTYPE svg PUBLIC "-//W3C//DTD SVG 1.1//EN" "http://www.w3.org/Graphics/SVG/1.1/DTD/svg11.dtd">
<svg version="1.1" xmlns="http://www.w3.org/2000/svg" xmlns:xlink="http://www.w3.org/1999/xlink" x="0px" y="0px" width="16px"
	 height="16px" viewBox="0 0 16 16" style="enable-background:new 0 0 16 16;" xml:space="preserve">
<g id="_x36_3-ecommerce_-_bill_payment_receipt" style="enable-background:new    ;">
	<path d="M13.9-0.001l-1.959,2l-1.924-2l-2.063,2l-1.988-2l-2.068,2l-1.848-2H1v16h14v-16H13.9z M14,14.999H2v-14l2.027,2l1.934-2
		l1.992,2l2.066-2l1.973,2l2.008-2V14.999z M8.165,8.994V6.733C8.779,6.816,9.35,7.076,9.787,7.532l0.549-0.633
		C9.799,6.37,9.074,6.018,8.165,5.945V4.991H7.496v0.944c-1.316,0.093-2.27,0.85-2.27,1.918c0,1.276,1.151,1.629,2.27,1.919v2.521
		C6.629,12.2,5.96,11.785,5.544,11.318l-0.548,0.664c0.548,0.591,1.393,1.026,2.5,1.089v0.923h0.669v-0.923
		c1.701-0.114,2.335-1.089,2.335-2.022C10.5,9.689,9.295,9.296,8.165,8.994z M7.496,8.829C6.75,8.621,6.169,8.373,6.169,7.802
		c0-0.602,0.548-1.037,1.327-1.089V8.829z M8.165,12.304V9.938c0.768,0.218,1.392,0.498,1.392,1.172
		C9.557,11.608,9.207,12.2,8.165,12.304z"/>
</g>
<g id="Layer_1">
</g>
</svg>
