<?xml version="1.0" encoding="iso-8859-1"?>
<!-- Generator: Adobe Illustrator 16.0.0, SVG Export Plug-In . SVG Version: 6.00 Build 0)  -->
<!DOCTYPE svg PUBLIC "-//W3C//DTD SVG 1.1//EN" "http://www.w3.org/Graphics/SVG/1.1/DTD/svg11.dtd">
<svg version="1.1" xmlns="http://www.w3.org/2000/svg" xmlns:xlink="http://www.w3.org/1999/xlink" x="0px" y="0px" width="16px"
	 height="16px" viewBox="0 0 16 16" style="enable-background:new 0 0 16 16;" xml:space="preserve">
<g id="_x33_7-ecommerce_-_price_tag" style="enable-background:new    ;">
	<path d="M6,13.998h5v-0.999H6V13.998z M8.5-0.001L3,4.362V14.99c0,0.557,0.448,1.009,1,1.009h9c0.553,0,1-0.452,1-1.009V4.362
		L8.5-0.001z M13,14.487c0,0.277-0.225,0.503-0.5,0.503h-8c-0.276,0-0.5-0.226-0.5-0.503V4.869l4.5-3.871L13,4.869V14.487z M6,6.498
		c0,1.381,1.119,2.501,2.5,2.501c1.381,0,2.5-1.12,2.5-2.501c0-1.38-1.119-2.5-2.5-2.5C7.119,3.998,6,5.118,6,6.498z M10,6.498
		c0,0.829-0.672,1.5-1.5,1.5c-0.828,0-1.5-0.671-1.5-1.5s0.671-1.5,1.5-1.5C9.328,4.998,10,5.669,10,6.498z"/>
</g>
<g id="Layer_1">
</g>
</svg>
