<?xml version="1.0" encoding="iso-8859-1"?>
<!-- Generator: Adobe Illustrator 16.0.0, SVG Export Plug-In . SVG Version: 6.00 Build 0)  -->
<!DOCTYPE svg PUBLIC "-//W3C//DTD SVG 1.1//EN" "http://www.w3.org/Graphics/SVG/1.1/DTD/svg11.dtd">
<svg version="1.1" xmlns="http://www.w3.org/2000/svg" xmlns:xlink="http://www.w3.org/1999/xlink" x="0px" y="0px" width="16px"
	 height="16px" viewBox="0 0 16 16" style="enable-background:new 0 0 16 16;" xml:space="preserve">
<g id="_x35_0-ecommerce_-_tracking_track_payment_activity" style="enable-background:new    ;">
	<path d="M15.5,8.999h-15c-0.007,0-0.012,0.003-0.019,0.004c0,0-0.001,0-0.001,0c-0.122,0.005-0.232,0.053-0.316,0.13
		c-0.006,0.006-0.015,0.003-0.02,0.009C0.138,9.147,0.14,9.156,0.135,9.161C0.058,9.245,0.009,9.355,0.004,9.478
		c0,0,0,0.001,0,0.002C0.003,9.485,0,9.491,0,9.498c0,0.18,0.101,0.33,0.244,0.418l4.952,4.938c0.187,0.187,0.489,0.187,0.676,0
		c0.187-0.186,0.187-0.487,0-0.673L1.676,9.996H15.5c0.275,0,0.5-0.223,0.5-0.498C16,9.222,15.775,8.999,15.5,8.999z M0.5,6.999h15
		c0.006,0,0.012-0.004,0.018-0.004c0.002,0,0.002,0,0.002,0c0.123-0.006,0.232-0.054,0.316-0.132
		c0.006-0.005,0.016-0.002,0.021-0.008c0.004-0.005,0.002-0.014,0.008-0.02c0.076-0.084,0.125-0.194,0.131-0.316
		c0-0.001,0-0.002,0-0.002C15.996,6.511,16,6.505,16,6.499c0-0.181-0.1-0.331-0.244-0.419l-4.951-4.953
		c-0.188-0.186-0.49-0.186-0.676,0c-0.188,0.187-0.188,0.489,0,0.676l4.195,4.196H0.5c-0.276,0-0.5,0.224-0.5,0.5
		S0.224,6.999,0.5,6.999z"/>
</g>
<g id="Layer_1">
</g>
</svg>
