<?xml version="1.0" encoding="iso-8859-1"?>
<!-- Generator: Adobe Illustrator 16.0.0, SVG Export Plug-In . SVG Version: 6.00 Build 0)  -->
<!DOCTYPE svg PUBLIC "-//W3C//DTD SVG 1.1//EN" "http://www.w3.org/Graphics/SVG/1.1/DTD/svg11.dtd">
<svg version="1.1" xmlns="http://www.w3.org/2000/svg" xmlns:xlink="http://www.w3.org/1999/xlink" x="0px" y="0px" width="16px"
	 height="16px" viewBox="0 0 16 16" style="enable-background:new 0 0 16 16;" xml:space="preserve">
<g id="_x38_-editorial_-_pencil" style="enable-background:new    ;">
	<path d="M8-0.001c-1.657,0-2,1.344-2,3v1v1v1v6.5c0,1.657,2,3.5,2,3.5s2-1.843,2-3.5v-6.5v-1v-1v-1C10,1.343,9.656-0.001,8-0.001z
		 M9,12.499c0,1.105-1,2-1,2s-1-0.895-1-2v-6.5h2V12.499z M9,4.999H7v-1h2V4.999z M9,2.999H7c0-1.104-0.104-2,1-2
		C9.105,0.999,9,1.895,9,2.999z"/>
</g>
<g id="Layer_1">
</g>
</svg>
