<?xml version="1.0" encoding="iso-8859-1"?>
<!-- Generator: Adobe Illustrator 16.0.0, SVG Export Plug-In . SVG Version: 6.00 Build 0)  -->
<!DOCTYPE svg PUBLIC "-//W3C//DTD SVG 1.1//EN" "http://www.w3.org/Graphics/SVG/1.1/DTD/svg11.dtd">
<svg version="1.1" xmlns="http://www.w3.org/2000/svg" xmlns:xlink="http://www.w3.org/1999/xlink" x="0px" y="0px" width="16px"
	 height="16px" viewBox="0 0 16 16" style="enable-background:new 0 0 16 16;" xml:space="preserve">
<g id="_x32_1-editorial_-_brush" style="enable-background:new    ;">
	<path d="M15.699,3.396c0.391-0.389,0.391-1.019,0-1.407l-0.703-0.704c-0.391-0.389-1.021-0.389-1.41,0L8.155,6.71L7.45,7.414
		L6.041,8.821c-0.06,0.06-0.093,0.133-0.135,0.202C5.121,8.871,4.057,8.959,3,9.979c-1.671,1.614,1,3.493-2,4.989
		c0,0,5.852,0.482,7-1.995c0.308-0.665,0.217-1.353,0.007-1.942c0.049-0.034,0.104-0.055,0.147-0.098L15.699,3.396z M13.939,2.341
		c0.193-0.194,0.51-0.194,0.703,0c0.195,0.194,0.195,0.51,0,0.704L9.564,8.117L8.859,7.414L13.939,2.341z M7,12.973
		c-0.749,1.121-4,0.997-4,0.997c1-0.997-0.275-2.22,1-3.491c0.731-0.73,1.341-0.863,1.776-0.812c0.03,0.205,0.106,0.404,0.264,0.562
		l0.705,0.704c0.134,0.134,0.299,0.204,0.471,0.246C7.389,11.701,7.427,12.333,7,12.973z M7.802,9.877
		c-0.195,0.194-0.51,0.194-0.705,0c-0.195-0.194-0.195-0.51,0-0.704l1.057-1.056l0.704,0.704L7.802,9.877z"/>
</g>
<g id="Layer_1">
</g>
</svg>
