<?xml version="1.0" encoding="iso-8859-1"?>
<!-- Generator: Adobe Illustrator 16.0.0, SVG Export Plug-In . SVG Version: 6.00 Build 0)  -->
<!DOCTYPE svg PUBLIC "-//W3C//DTD SVG 1.1//EN" "http://www.w3.org/Graphics/SVG/1.1/DTD/svg11.dtd">
<svg version="1.1" xmlns="http://www.w3.org/2000/svg" xmlns:xlink="http://www.w3.org/1999/xlink" x="0px" y="0px" width="16px"
	 height="16px" viewBox="0 0 16 16" style="enable-background:new 0 0 16 16;" xml:space="preserve">
<g id="_x31_2-editorial_-_descending" style="enable-background:new    ;">
	<path d="M15.5,13.999H8.492c-0.276,0-0.5,0.225-0.5,0.5c0,0.276,0.224,0.5,0.5,0.5H15.5c0.275,0,0.5-0.224,0.5-0.5
		C16,14.224,15.775,13.999,15.5,13.999z M9.494,2.999H15.5c0.275,0,0.5-0.224,0.5-0.5S15.775,2,15.5,2H9.494
		C9.217,2,8.993,2.223,8.993,2.499S9.217,2.999,9.494,2.999z M9.836,5.856c0.199-0.199,0.199-0.523,0-0.723L5.855,1.157
		c-0.001-0.001-0.004,0-0.005-0.002C5.758,1.06,5.631,0.999,5.489,0.999c-0.143,0-0.27,0.061-0.361,0.156
		C5.127,1.157,5.125,1.156,5.123,1.157l-3.98,3.977c-0.2,0.199-0.2,0.523,0,0.723c0.2,0.2,0.524,0.2,0.724,0l3.122-3.118v11.761
		c0,0.276,0.224,0.5,0.501,0.5c0.276,0,0.5-0.224,0.5-0.5V2.738l3.122,3.118C9.311,6.057,9.635,6.057,9.836,5.856z M15.5,10.999
		H8.492c-0.276,0-0.5,0.224-0.5,0.5S8.215,12,8.492,12H15.5c0.275,0,0.5-0.225,0.5-0.501S15.775,10.999,15.5,10.999z M15.5,4.999
		h-4.004c-0.277,0-0.502,0.225-0.502,0.5C10.994,5.775,11.219,6,11.496,6H15.5C15.775,6,16,5.775,16,5.499
		C16,5.224,15.775,4.999,15.5,4.999z M15.5,7.999H8.492c-0.276,0-0.5,0.225-0.5,0.5c0,0.276,0.224,0.5,0.5,0.5H15.5
		c0.275,0,0.5-0.224,0.5-0.5C16,8.224,15.775,7.999,15.5,7.999z"/>
</g>
<g id="Layer_1">
</g>
</svg>
