<?xml version="1.0" encoding="iso-8859-1"?>
<!-- Generator: Adobe Illustrator 16.0.0, SVG Export Plug-In . SVG Version: 6.00 Build 0)  -->
<!DOCTYPE svg PUBLIC "-//W3C//DTD SVG 1.1//EN" "http://www.w3.org/Graphics/SVG/1.1/DTD/svg11.dtd">
<svg version="1.1" xmlns="http://www.w3.org/2000/svg" xmlns:xlink="http://www.w3.org/1999/xlink" x="0px" y="0px" width="16px"
	 height="16px" viewBox="0 0 16 16" style="enable-background:new 0 0 16 16;" xml:space="preserve">
<g id="_x31_-editorial_-_left_align" style="enable-background:new    ;">
	<path d="M0.5,4h13C13.775,4,14,3.776,14,3.5S13.775,3,13.5,3h-13C0.224,3,0,3.224,0,3.5S0.224,4,0.5,4z M0.5,7.999h9
		c0.275,0,0.5-0.223,0.5-0.499S9.775,6.999,9.5,6.999h-9C0.224,6.999,0,7.224,0,7.5S0.224,7.999,0.5,7.999z M8,15H0.5
		C0.224,15,0,15.224,0,15.5S0.224,16,0.5,16H8c0.276,0,0.5-0.224,0.5-0.5S8.276,15,8,15z M13.5,10.999h-13
		c-0.276,0-0.5,0.225-0.5,0.5C0,11.776,0.224,12,0.5,12h13c0.275,0,0.5-0.224,0.5-0.501C14,11.224,13.775,10.999,13.5,10.999z"/>
</g>
<g id="Layer_1">
</g>
</svg>
