<?xml version="1.0" encoding="iso-8859-1"?>
<!-- Generator: Adobe Illustrator 16.0.0, SVG Export Plug-In . SVG Version: 6.00 Build 0)  -->
<!DOCTYPE svg PUBLIC "-//W3C//DTD SVG 1.1//EN" "http://www.w3.org/Graphics/SVG/1.1/DTD/svg11.dtd">
<svg version="1.1" xmlns="http://www.w3.org/2000/svg" xmlns:xlink="http://www.w3.org/1999/xlink" x="0px" y="0px" width="16px"
	 height="16px" viewBox="0 0 16 16" style="enable-background:new 0 0 16 16;" xml:space="preserve">
<g id="_x32_3-editorial_-_redo" style="enable-background:new    ;">
	<path d="M16,5.999h-2.502C12.52,3.651,10.203,2,7.5,2C3.91,2,1,4.909,1,8.499C1,12.09,3.91,15,7.5,15c1.84,0,3.492-0.771,4.676-2
		h-1.527c-0.893,0.626-1.975,0.999-3.148,0.999c-3.038,0-5.5-2.462-5.5-5.5c0-3.037,2.462-5.5,5.5-5.5c2.133,0,3.961,1.227,4.873,3
		H11l1.988,2.387C12.99,8.425,13.5,8.999,13.5,8.999s0.492-0.559,0.49-0.589L16,5.999z"/>
</g>
<g id="Layer_1">
</g>
</svg>
