<?xml version="1.0" encoding="iso-8859-1"?>
<!-- Generator: Adobe Illustrator 16.0.0, SVG Export Plug-In . SVG Version: 6.00 Build 0)  -->
<!DOCTYPE svg PUBLIC "-//W3C//DTD SVG 1.1//EN" "http://www.w3.org/Graphics/SVG/1.1/DTD/svg11.dtd">
<svg version="1.1" xmlns="http://www.w3.org/2000/svg" xmlns:xlink="http://www.w3.org/1999/xlink" x="0px" y="0px" width="16px"
	 height="16px" viewBox="0 0 16 16" style="enable-background:new 0 0 16 16;" xml:space="preserve">
<g id="_x33_-editorial_-_right_align" style="enable-background:new    ;">
	<path d="M13.621,15H6.054c-0.278,0-0.504,0.224-0.504,0.5S5.775,16,6.054,16h7.567c0.279,0,0.504-0.224,0.504-0.5
		S13.9,15,13.621,15z M0.504,4h13.117c0.279,0,0.504-0.224,0.504-0.5S13.9,3,13.621,3H0.504C0.226,3,0,3.224,0,3.5S0.226,4,0.504,4z
		 M13.621,6.999H4.541c-0.279,0-0.505,0.225-0.505,0.501s0.226,0.499,0.505,0.499h9.081c0.279,0,0.504-0.223,0.504-0.499
		S13.9,6.999,13.621,6.999z M13.621,10.999H0.504c-0.279,0-0.504,0.225-0.504,0.5C0,11.776,0.226,12,0.504,12h13.117
		c0.279,0,0.504-0.224,0.504-0.501C14.125,11.224,13.9,10.999,13.621,10.999z"/>
</g>
<g id="Layer_1">
</g>
</svg>
