<?xml version="1.0" encoding="iso-8859-1"?>
<!-- Generator: Adobe Illustrator 16.0.0, SVG Export Plug-In . SVG Version: 6.00 Build 0)  -->
<!DOCTYPE svg PUBLIC "-//W3C//DTD SVG 1.1//EN" "http://www.w3.org/Graphics/SVG/1.1/DTD/svg11.dtd">
<svg version="1.1" xmlns="http://www.w3.org/2000/svg" xmlns:xlink="http://www.w3.org/1999/xlink" x="0px" y="0px" width="16px"
	 height="16px" viewBox="0 0 16 16" style="enable-background:new 0 0 16 16;" xml:space="preserve">
<g id="_x32_2-editorial_-_undo" style="enable-background:new    ;">
	<path d="M9.5,2C6.803,2,4.531,3.658,3.555,6H1l2.5,3L6,6H4.63C5.534,4.222,7.366,2.999,9.5,2.999c3.037,0,5.5,2.463,5.5,5.5
		c0,3.038-2.463,5.5-5.5,5.5c-1.173,0-2.255-0.373-3.148-0.999H4.825c1.183,1.229,2.835,2,4.675,2c3.59,0,6.5-2.91,6.5-6.501
		C16,4.909,13.09,2,9.5,2z"/>
</g>
<g id="Layer_1">
</g>
</svg>
