<?xml version="1.0" encoding="iso-8859-1"?>
<!-- Generator: Adobe Illustrator 16.0.0, SVG Export Plug-In . SVG Version: 6.00 Build 0)  -->
<!DOCTYPE svg PUBLIC "-//W3C//DTD SVG 1.1//EN" "http://www.w3.org/Graphics/SVG/1.1/DTD/svg11.dtd">
<svg version="1.1" xmlns="http://www.w3.org/2000/svg" xmlns:xlink="http://www.w3.org/1999/xlink" x="0px" y="0px" width="16px"
	 height="16px" viewBox="0 0 16 16" style="enable-background:new 0 0 16 16;" xml:space="preserve">
<g id="_x31_7-editorial_-_trash_can" style="enable-background:new    ;">
	<path d="M15.5,1.999H14h-3v-1.5c0-0.276-0.225-0.5-0.5-0.5h-4c-0.276,0-0.5,0.224-0.5,0.5v1.5H3H1.5c-0.276,0-0.5,0.224-0.5,0.5
		c0,0.275,0.224,0.5,0.5,0.5H2v12c0,0.552,0.448,1,1,1h11c0.553,0,1-0.448,1-1v-12h0.5c0.275,0,0.5-0.225,0.5-0.5
		C16,2.223,15.775,1.999,15.5,1.999z M7,0.999h3v1H7V0.999z M14,3.499v11c0,0.275-0.225,0.5-0.5,0.5h-10c-0.276,0-0.5-0.225-0.5-0.5
		V3.998V3.499v-0.5h0.5h10H14C14,2.999,14,3.388,14,3.499z"/>
</g>
<g id="Layer_1">
</g>
</svg>
