<?xml version="1.0" encoding="iso-8859-1"?>
<!-- Generator: Adobe Illustrator 16.0.0, SVG Export Plug-In . SVG Version: 6.00 Build 0)  -->
<!DOCTYPE svg PUBLIC "-//W3C//DTD SVG 1.1//EN" "http://www.w3.org/Graphics/SVG/1.1/DTD/svg11.dtd">
<svg version="1.1" xmlns="http://www.w3.org/2000/svg" xmlns:xlink="http://www.w3.org/1999/xlink" x="0px" y="0px" width="16px"
	 height="16px" viewBox="0 0 16 16" style="enable-background:new 0 0 16 16;" xml:space="preserve">
<g id="_x35_-editorial_-_pencil" style="enable-background:new    ;">
	<path d="M12.693,0.327c-1.23-0.684-2.803-0.278-3.514,0.905l-0.409,0.68L8.409,2.517L4.036,9.8
		C3.974,9.903,3.94,9.997,3.902,10.093L3.291,11.1l-0.026-0.015l-0.004,0.063l-0.246,0.404l0.213,0.117l-0.239,3.832l0.891,0.495
		l3.354-2.13l0.235,0.129l1.542-2.538l-0.023-0.014l4.646-7.738C14.344,2.522,13.924,1.01,12.693,0.327z M3.949,14.893l0.17-2.733
		l2.218,1.217L3.949,14.893z M7.343,12.207L4.67,10.724l4.629-7.712l2.674,1.484L7.343,12.207z M12.744,3.211l-0.258,0.428
		L9.813,2.155l0.258-0.429c0.426-0.71,1.371-0.953,2.107-0.543C12.916,1.593,13.17,2.501,12.744,3.211z"/>
</g>
<g id="Layer_1">
</g>
</svg>
