<?xml version="1.0" encoding="iso-8859-1"?>
<!-- Generator: Adobe Illustrator 16.0.0, SVG Export Plug-In . SVG Version: 6.00 Build 0)  -->
<!DOCTYPE svg PUBLIC "-//W3C//DTD SVG 1.1//EN" "http://www.w3.org/Graphics/SVG/1.1/DTD/svg11.dtd">
<svg version="1.1" xmlns="http://www.w3.org/2000/svg" xmlns:xlink="http://www.w3.org/1999/xlink" x="0px" y="0px" width="16px"
	 height="16px" viewBox="0 0 16 16" style="enable-background:new 0 0 16 16;" xml:space="preserve">
<g id="_x37_-editorial_-_pencil" style="enable-background:new    ;">
	<path d="M12.969,0.302c-1.529-0.835-2.561,0.163-3.443,1.608L8.994,2.782L8.46,3.654l-0.256,0.42l-4.803,7.864
		c-0.882,1.444-0.019,4.059-0.019,4.059s2.826-0.601,3.708-2.046l6.124-10.027C14.098,2.479,14.496,1.135,12.969,0.302z
		 M6.169,13.448c-0.588,0.963-1.987,1.24-1.987,1.24s-0.446-1.284,0.143-2.247l4.527-7.412l1.844,1.007L6.169,13.448z M11.229,5.164
		L9.383,4.157l0.533-0.872l1.844,1.007L11.229,5.164z M12.293,3.42L12.293,3.42l-1.846-1.006c0.59-0.964,0.969-1.797,1.988-1.241
		C13.455,1.729,12.881,2.457,12.293,3.42z"/>
</g>
<g id="Layer_1">
</g>
</svg>
