<?xml version="1.0" encoding="iso-8859-1"?>
<!-- Generator: Adobe Illustrator 16.0.0, SVG Export Plug-In . SVG Version: 6.00 Build 0)  -->
<!DOCTYPE svg PUBLIC "-//W3C//DTD SVG 1.1//EN" "http://www.w3.org/Graphics/SVG/1.1/DTD/svg11.dtd">
<svg version="1.1" xmlns="http://www.w3.org/2000/svg" xmlns:xlink="http://www.w3.org/1999/xlink" x="0px" y="0px" width="16px"
	 height="16px" viewBox="0 0 16 16" style="enable-background:new 0 0 16 16;" xml:space="preserve">
<g id="_x31_1-editorial_-_ascending" style="enable-background:new    ;">
	<path d="M9.828,10.142c-0.199-0.199-0.523-0.199-0.725,0L5.979,13.26V1.499c0-0.275-0.224-0.5-0.501-0.5s-0.501,0.225-0.501,0.5
		V13.26l-3.125-3.118c-0.2-0.199-0.524-0.199-0.725,0c-0.2,0.2-0.2,0.523,0,0.723l3.984,3.977c0.001,0.001,0.004,0.001,0.005,0.002
		c0.091,0.096,0.218,0.156,0.361,0.156s0.27-0.061,0.361-0.156c0.001-0.001,0.004-0.001,0.005-0.002l3.984-3.977
		C10.029,10.665,10.029,10.342,9.828,10.142z M15.498,12.999H9.486c-0.277,0-0.5,0.224-0.5,0.5s0.223,0.5,0.5,0.5h6.012
		c0.277,0,0.502-0.224,0.502-0.5S15.775,12.999,15.498,12.999z M8.484,1.999h7.014c0.277,0,0.502-0.224,0.502-0.5
		c0-0.275-0.225-0.5-0.502-0.5H8.484c-0.276,0-0.5,0.225-0.5,0.5C7.983,1.775,8.208,1.999,8.484,1.999z M15.498,6.999H8.484
		c-0.276,0-0.5,0.224-0.5,0.5s0.224,0.5,0.5,0.5h7.014c0.277,0,0.502-0.224,0.502-0.5S15.775,6.999,15.498,6.999z M15.498,9.999
		H11.49c-0.277,0-0.5,0.225-0.5,0.5c0,0.276,0.223,0.5,0.5,0.5h4.008c0.277,0,0.502-0.224,0.502-0.5
		C16,10.224,15.775,9.999,15.498,9.999z M15.498,3.999H8.484c-0.276,0-0.5,0.224-0.5,0.5s0.224,0.5,0.5,0.5h7.014
		c0.277,0,0.502-0.224,0.502-0.5S15.775,3.999,15.498,3.999z"/>
</g>
<g id="Layer_1">
</g>
</svg>
