<?xml version="1.0" encoding="iso-8859-1"?>
<!-- Generator: Adobe Illustrator 16.0.0, SVG Export Plug-In . SVG Version: 6.00 Build 0)  -->
<!DOCTYPE svg PUBLIC "-//W3C//DTD SVG 1.1//EN" "http://www.w3.org/Graphics/SVG/1.1/DTD/svg11.dtd">
<svg version="1.1" xmlns="http://www.w3.org/2000/svg" xmlns:xlink="http://www.w3.org/1999/xlink" x="0px" y="0px" width="16px"
	 height="16px" viewBox="0 0 16 16" style="enable-background:new 0 0 16 16;" xml:space="preserve">
<g id="_x31_6-editorial_-_trash_can" style="enable-background:new    ;">
	<path d="M14,1.999h-3v-1.5c0-0.276-0.225-0.5-0.5-0.5h-4c-0.276,0-0.5,0.224-0.5,0.5v1.5H3c-0.552,0-1,0.447-1,1v1
		c0,0.553,0.448,1,1,1v10c0,0.553,0.448,1,1,1h9c0.553,0,1-0.447,1-1v-10c0.553,0,1-0.447,1-1v-1C15,2.446,14.553,1.999,14,1.999z
		 M7,0.999h3v1H7V0.999z M13,5.499v0.5v8.5c0,0.276-0.225,0.5-0.5,0.5h-8c-0.276,0-0.5-0.224-0.5-0.5v-8.5v-0.5v-0.5h0.5h8H13V5.499
		z M13.5,3.999H13H4H3.5c-0.276,0-0.5-0.224-0.5-0.5s0.224-0.5,0.5-0.5h3h4h3c0.275,0,0.5,0.224,0.5,0.5S13.775,3.999,13.5,3.999z
		 M6,13.999h1v-7H6V13.999z M10,13.999h1v-7h-1V13.999z M8,13.999h1v-7H8V13.999z"/>
</g>
<g id="Layer_1">
</g>
</svg>
