<?xml version="1.0" encoding="iso-8859-1"?>
<!-- Generator: Adobe Illustrator 16.0.0, SVG Export Plug-In . SVG Version: 6.00 Build 0)  -->
<!DOCTYPE svg PUBLIC "-//W3C//DTD SVG 1.1//EN" "http://www.w3.org/Graphics/SVG/1.1/DTD/svg11.dtd">
<svg version="1.1" xmlns="http://www.w3.org/2000/svg" xmlns:xlink="http://www.w3.org/1999/xlink" x="0px" y="0px" width="16px"
	 height="16px" viewBox="0 0 16 16" style="enable-background:new 0 0 16 16;" xml:space="preserve">
<g id="_x32_-building_-_building_office" style="enable-background:new    ;">
	<path d="M7,1.999H5v2h2V1.999z M4,7.999H2v2h2V7.999z M7,4.999H5v2h2V4.999z M2,12.999h2v-2H2V12.999z M5,12.999h2v-2H5V12.999z
		 M1,1.499c0-0.276,0.224-0.5,0.5-0.5h6c0.276,0,0.5,0.224,0.5,0.5v12.5h1v-13c0-0.553-0.447-1-1-1H1c-0.552,0-1,0.447-1,1v13h1
		V1.499z M7,7.999H5v2h2V7.999z M4,1.999H2v2h2V1.999z M12,10.999h2V8.998h-2V10.999z M15,0.999h-4c-0.553,0-1,0.447-1,1v12h1v-11.5
		c0-0.276,0.225-0.5,0.5-0.5h3c0.275,0,0.5,0.224,0.5,0.5v11.5h1v-12C16,1.446,15.553,0.999,15,0.999z M14,2.999h-2v2h2V2.999z
		 M15.5,14.999h-15c-0.276,0-0.5,0.224-0.5,0.5s0.224,0.5,0.5,0.5h15c0.275,0,0.5-0.224,0.5-0.5S15.775,14.999,15.5,14.999z
		 M12,7.999h2v-2h-2V7.999z M4,4.999H2v2h2V4.999z"/>
</g>
<g id="Layer_1">
</g>
</svg>
