<?xml version="1.0" encoding="iso-8859-1"?>
<!-- Generator: Adobe Illustrator 16.0.0, SVG Export Plug-In . SVG Version: 6.00 Build 0)  -->
<!DOCTYPE svg PUBLIC "-//W3C//DTD SVG 1.1//EN" "http://www.w3.org/Graphics/SVG/1.1/DTD/svg11.dtd">
<svg version="1.1" xmlns="http://www.w3.org/2000/svg" xmlns:xlink="http://www.w3.org/1999/xlink" x="0px" y="0px" width="16px"
	 height="16px" viewBox="0 0 16 16" style="enable-background:new 0 0 16 16;" xml:space="preserve">
<g id="_x31_8-interior_-_sofa_chair" style="enable-background:new    ;">
	<path style="fill-rule:evenodd;clip-rule:evenodd;" d="M15,9c0-0.738-0.404-1.376-1-1.722V4.001v-1V3c0-1.657-1.344-2.999-3-2.999
		H8V0H7v0.001H4C2.343,0.001,1,1.343,1,3v0.001v1v3.276C0.405,7.624,0,8.262,0,9c0,0.205,0.04,0.398,0.097,0.584
		C0.038,9.712,0,9.851,0,10v2c0,0.553,0.447,1,1,1v2h1v-2h5h1h5v2h1v-2c0.551,0,1-0.447,1-1v-2c0-0.149-0.037-0.288-0.096-0.416
		C14.961,9.398,15,9.205,15,9z M2,8c0.552,0,1,0.448,1,1c0,0.553-0.448,1-1,1c-0.553,0-1-0.447-1-1C1,8.448,1.447,8,2,8z M7,12H1.5
		C1.224,12,1,11.776,1,11.5v-0.777C1.295,10.895,1.634,11,2,11c0.738,0,1.376-0.404,1.723-1H7V12z M7,9H4c0-1.104-0.896-2-2-2V6.222
		V4.001V4V3.001c0-1.105,0.896-2,2-2h3V6h1V1.001h3c1.104,0,2,0.895,2,2V4v0.001v2.221V7c-1.105,0-2,0.896-2,2H8H7z M14,11.5
		c0,0.276-0.225,0.5-0.5,0.5H8v-2h3.277c0.346,0.596,0.984,1,1.723,1c0.367,0,0.705-0.105,1-0.277V11.5z M13,10
		c-0.553,0-1-0.447-1-1c0-0.552,0.447-1,1-1c0.551,0,1,0.448,1,1C14,9.553,13.551,10,13,10z"/>
</g>
<g id="Layer_1">
</g>
</svg>
