<?xml version="1.0" encoding="iso-8859-1"?>
<!-- Generator: Adobe Illustrator 16.0.0, SVG Export Plug-In . SVG Version: 6.00 Build 0)  -->
<!DOCTYPE svg PUBLIC "-//W3C//DTD SVG 1.1//EN" "http://www.w3.org/Graphics/SVG/1.1/DTD/svg11.dtd">
<svg version="1.1" xmlns="http://www.w3.org/2000/svg" xmlns:xlink="http://www.w3.org/1999/xlink" x="0px" y="0px" width="16px"
	 height="16px" viewBox="0 0 16 16" style="enable-background:new 0 0 16 16;" xml:space="preserve">
<g id="_x31_4-interior_-_bed" style="enable-background:new    ;">
	<path d="M15.777,10.999l-1.777-8v-2c0-0.552-0.447-1-1-1H3c-0.552,0-1,0.448-1,1v2l-1.778,8H0v4h1v1h1v-1h12v1h1v-1h1v-4H15.777z
		 M3,1.499c0-0.276,0.224-0.5,0.5-0.5h9c0.275,0,0.5,0.224,0.5,0.5v1c0,0.276-0.225,0.5-0.5,0.5H11v-0.5c0-0.276-0.225-0.5-0.5-0.5
		h-5c-0.276,0-0.5,0.224-0.5,0.5v0.5H3.5c-0.276,0-0.5-0.224-0.5-0.5V1.499z M10,2.999v1H6v-1H10z M3,3.999h2v0.5
		c0,0.276,0.224,0.5,0.5,0.5h5c0.275,0,0.5-0.224,0.5-0.5v-0.5h2l0.857,3H2.143L3,3.999z M15,13.999h-1H2H1v-2h14V13.999z M1,10.999
		L1.857,8h12.286L15,10.999H1z"/>
</g>
<g id="Layer_1">
</g>
</svg>
