<?xml version="1.0" encoding="iso-8859-1"?>
<!-- Generator: Adobe Illustrator 16.0.0, SVG Export Plug-In . SVG Version: 6.00 Build 0)  -->
<!DOCTYPE svg PUBLIC "-//W3C//DTD SVG 1.1//EN" "http://www.w3.org/Graphics/SVG/1.1/DTD/svg11.dtd">
<svg version="1.1" xmlns="http://www.w3.org/2000/svg" xmlns:xlink="http://www.w3.org/1999/xlink" x="0px" y="0px" width="16px"
	 height="16px" viewBox="0 0 16 16" style="enable-background:new 0 0 16 16;" xml:space="preserve">
<g id="_x33_0-environment_-_flower" style="enable-background:new    ;">
	<path style="fill-rule:evenodd;clip-rule:evenodd;" d="M12.533,6.749c-0.566-0.979-1.535-1.567-2.574-1.706
		C9.734,3.329,8.281,2,6.505,2C4.733,2,3.284,3.321,3.052,5.029C2.606,5.087,2.165,5.23,1.751,5.469
		C0.077,6.435-0.497,8.575,0.47,10.25c0.215,0.373,0.496,0.682,0.809,0.939c-0.39,0.965-0.362,2.089,0.199,3.061
		c0.967,1.673,3.108,2.247,4.782,1.28c0.086-0.05,0.157-0.115,0.238-0.171c0.569,0.4,1.259,0.64,2.008,0.64
		c1.932,0,3.5-1.566,3.5-3.5c0-0.469-0.096-0.914-0.264-1.322C13.023,10.105,13.395,8.244,12.533,6.749z M10.361,10.839
		c0.396,0.442,0.645,1.02,0.645,1.66c0,1.381-1.119,2.5-2.5,2.5c-0.822,0-1.544-0.401-2-1.014c-0.456,0.612-1.179,1.014-2,1.014
		c-1.381,0-2.5-1.119-2.5-2.5c0-0.641,0.248-1.218,0.644-1.66c-0.957-0.351-1.644-1.262-1.644-2.34C1.005,7.118,2.124,6,3.505,6
		c0.198,0,0.388,0.028,0.572,0.072C4.034,5.887,4.005,5.697,4.005,5.499c0-1.381,1.12-2.5,2.5-2.5s2.5,1.119,2.5,2.5
		c0,0.198-0.029,0.388-0.073,0.573C9.117,6.028,9.307,6,9.506,6c1.381,0,2.5,1.118,2.5,2.499
		C12.006,9.577,11.318,10.488,10.361,10.839z M6.505,6.999c-1.381,0-2.5,1.119-2.5,2.5s1.12,2.5,2.5,2.5s2.5-1.119,2.5-2.5
		S7.886,6.999,6.505,6.999z M6.505,10.999c-0.828,0-1.5-0.672-1.5-1.5s0.672-1.5,1.5-1.5s1.5,0.672,1.5,1.5
		S7.333,10.999,6.505,10.999z"/>
</g>
<g id="Layer_1">
</g>
</svg>
