<?xml version="1.0" encoding="iso-8859-1"?>
<!-- Generator: Adobe Illustrator 16.0.0, SVG Export Plug-In . SVG Version: 6.00 Build 0)  -->
<!DOCTYPE svg PUBLIC "-//W3C//DTD SVG 1.1//EN" "http://www.w3.org/Graphics/SVG/1.1/DTD/svg11.dtd">
<svg version="1.1" xmlns="http://www.w3.org/2000/svg" xmlns:xlink="http://www.w3.org/1999/xlink" x="0px" y="0px" width="16px"
	 height="16px" viewBox="0 0 16 16" style="enable-background:new 0 0 16 16;" xml:space="preserve">
<g id="_x32_2-interior_-_drawer" style="enable-background:new    ;">
	<path d="M9,3.999H7V5h2V3.999z M13,1.999H3v5h10V1.999z M12,5.999H4v-3h8V5.999z M13,7.999H3v5h10V7.999z M12,11.999H4v-3h8V11.999
		z M15-0.001h-2H3H1H0V1h1v0.999v9v2c0,0.932,0.639,1.707,1.5,1.93v1.07h1v-1h9v1h1v-1.07c0.861-0.223,1.5-0.998,1.5-1.93v-2v-9V1h1
		v-1.001H15z M14,10.999v2c0,0.553-0.447,1-1,1h-0.5h-9H3c-0.552,0-1-0.447-1-1v-2V1h12V10.999z M9,9.999H7v1h2V9.999z"/>
</g>
<g id="Layer_1">
</g>
</svg>
