<?xml version="1.0" encoding="iso-8859-1"?>
<!-- Generator: Adobe Illustrator 16.0.0, SVG Export Plug-In . SVG Version: 6.00 Build 0)  -->
<!DOCTYPE svg PUBLIC "-//W3C//DTD SVG 1.1//EN" "http://www.w3.org/Graphics/SVG/1.1/DTD/svg11.dtd">
<svg version="1.1" xmlns="http://www.w3.org/2000/svg" xmlns:xlink="http://www.w3.org/1999/xlink" x="0px" y="0px" width="16px"
	 height="16px" viewBox="0 0 16 16" style="enable-background:new 0 0 16 16;" xml:space="preserve">
<g id="_x37_-building_-_house_live" style="enable-background:new    ;">
	<path d="M2.994,10.999h2.994v-3H2.994V10.999z M3.992,8.998H4.99v1.001H3.992V8.998z M15.83,6.123L8.359,0.138
		C8.255,0.034,8.12-0.01,7.984-0.005C7.849-0.01,7.713,0.034,7.609,0.138L0.139,6.123c-0.199,0.199-0.199,0.521,0,0.721
		s0.521,0.199,0.719,0l0.14-0.112v8.268c0,0.553,0.447,1,0.998,1h4.99h4.99h1.996c0.551,0,0.998-0.447,0.998-1V6.731l0.141,0.112
		c0.197,0.199,0.52,0.199,0.719,0S16.029,6.322,15.83,6.123z M10.979,14.999H7.984V8.998h2.994V14.999z M13.973,14.499
		c0,0.275-0.223,0.5-0.5,0.5h-1.496v-7h-4.99v7H2.495c-0.276,0-0.499-0.225-0.499-0.5v-8.5l5.988-4.864l5.988,4.864V14.499z"/>
</g>
<g id="Layer_1">
</g>
</svg>
