<?xml version="1.0" encoding="iso-8859-1"?>
<!-- Generator: Adobe Illustrator 16.0.0, SVG Export Plug-In . SVG Version: 6.00 Build 0)  -->
<!DOCTYPE svg PUBLIC "-//W3C//DTD SVG 1.1//EN" "http://www.w3.org/Graphics/SVG/1.1/DTD/svg11.dtd">
<svg version="1.1" xmlns="http://www.w3.org/2000/svg" xmlns:xlink="http://www.w3.org/1999/xlink" x="0px" y="0px" width="16px"
	 height="16px" viewBox="0 0 16 16" style="enable-background:new 0 0 16 16;" xml:space="preserve">
<g id="_x32_1-interior_-_drawer" style="enable-background:new    ;">
	<path d="M0-0.001V1h1v11.999c0,0.932,0.639,1.707,1.5,1.93v1.07h1v-1h9v1h1v-1.07c0.861-0.223,1.5-0.998,1.5-1.93V1h1v-1.001H0z
		 M14,12.999c0,0.553-0.447,1-1,1H3c-0.552,0-1-0.447-1-1v-4h12V12.999z M14,7.999H2V5h12V7.999z M14,3.999H2V1h12V3.999z M10,1.999
		H6v1h4V1.999z M10,9.999H6v1h4V9.999z M10,5.999H6v1h4V5.999z"/>
</g>
<g id="Layer_1">
</g>
</svg>
