<?xml version="1.0" encoding="iso-8859-1"?>
<!-- Generator: Adobe Illustrator 16.0.0, SVG Export Plug-In . SVG Version: 6.00 Build 0)  -->
<!DOCTYPE svg PUBLIC "-//W3C//DTD SVG 1.1//EN" "http://www.w3.org/Graphics/SVG/1.1/DTD/svg11.dtd">
<svg version="1.1" xmlns="http://www.w3.org/2000/svg" xmlns:xlink="http://www.w3.org/1999/xlink" x="0px" y="0px" width="16px"
	 height="16px" viewBox="0 0 16 16" style="enable-background:new 0 0 16 16;" xml:space="preserve">
<g id="_x32_3-interior_-_desk_table" style="enable-background:new    ;">
	<path d="M5,8.999h7v-1H5V8.999z M7,11.999H5v1h2V11.999z M10-0.001H7c-2.209,0-4,1.791-4,4v6v6h5h1h5v-6v-6
		C14,1.79,12.209-0.001,10-0.001z M8,14.999H4v-4h4V14.999z M13,14.999H9v-4h4V14.999z M13,9.499c0,0.171-0.023,0.337-0.051,0.5H9H8
		H4.05C4.023,9.836,4,9.67,4,9.499v-5.5C4,2.343,5.343,1,7,1h3c1.656,0,3,1.343,3,2.999V9.499z M12,11.999h-2v1h2V11.999z"/>
</g>
<g id="Layer_1">
</g>
</svg>
