<?xml version="1.0" encoding="iso-8859-1"?>
<!-- Generator: Adobe Illustrator 16.0.0, SVG Export Plug-In . SVG Version: 6.00 Build 0)  -->
<!DOCTYPE svg PUBLIC "-//W3C//DTD SVG 1.1//EN" "http://www.w3.org/Graphics/SVG/1.1/DTD/svg11.dtd">
<svg version="1.1" xmlns="http://www.w3.org/2000/svg" xmlns:xlink="http://www.w3.org/1999/xlink" x="0px" y="0px" width="16px"
	 height="16px" viewBox="0 0 16 16" style="enable-background:new 0 0 16 16;" xml:space="preserve">
<g id="_x34_-building_-_office_apartment" style="enable-background:new    ;">
	<path d="M12,5.999h-1v1h1V5.999z M9,3.999H8v1h1V3.999z M12,7.999h-1v1h1V7.999z M15-0.001H2v1h13V-0.001z M12,3.999h-1v1h1V3.999z
		 M9,7.999H8v1h1V7.999z M6,7.999H5v1h1V7.999z M9,5.999H8v1h1V5.999z M14,14.999v-13H3v13H1v1h2h11h2v-1H14z M10,14.999H7v-3h3
		V14.999z M13,14.999h-2v-4H6v4H4v-12h9V14.999z M6,3.999H5v1h1V3.999z M6,5.999H5v1h1V5.999z"/>
</g>
<g id="Layer_1">
</g>
</svg>
