<?xml version="1.0" encoding="iso-8859-1"?>
<!-- Generator: Adobe Illustrator 16.0.0, SVG Export Plug-In . SVG Version: 6.00 Build 0)  -->
<!DOCTYPE svg PUBLIC "-//W3C//DTD SVG 1.1//EN" "http://www.w3.org/Graphics/SVG/1.1/DTD/svg11.dtd">
<svg version="1.1" xmlns="http://www.w3.org/2000/svg" xmlns:xlink="http://www.w3.org/1999/xlink" x="0px" y="0px" width="16px"
	 height="16px" viewBox="0 0 16 16" style="enable-background:new 0 0 16 16;" xml:space="preserve">
<g id="_x32_4-interior_-_corner_lamp" style="enable-background:new    ;">
	<path d="M10,11.999v-3h6v-1c0-4.418-3.582-8-8-8c-4.418,0-8,3.582-8,8v1h7v6H5v1h2h1h3v-1H8v-6h1v3H10z M8,1
		c3.166,0,5.811,2.114,6.674,4.999H1.325C2.19,3.114,4.834,1,8,1z M1,7.999c0-0.342,0.053-0.67,0.101-1h13.798
		c0.049,0.33,0.102,0.658,0.102,1H1z"/>
</g>
<g id="Layer_1">
</g>
</svg>
