<?xml version="1.0" encoding="iso-8859-1"?>
<!-- Generator: Adobe Illustrator 16.0.0, SVG Export Plug-In . SVG Version: 6.00 Build 0)  -->
<!DOCTYPE svg PUBLIC "-//W3C//DTD SVG 1.1//EN" "http://www.w3.org/Graphics/SVG/1.1/DTD/svg11.dtd">
<svg version="1.1" xmlns="http://www.w3.org/2000/svg" xmlns:xlink="http://www.w3.org/1999/xlink" x="0px" y="0px" width="16px"
	 height="16px" viewBox="0 0 16 16" style="enable-background:new 0 0 16 16;" xml:space="preserve">
<g id="_x33_6-environment_-_sign_direction_street" style="enable-background:new    ;">
	<path d="M14,7.999h-3.5v-1H13v-5h-2.5v-1c0-0.553-0.447-1-1-1h-3c-0.552,0-1,0.447-1,1v1H2l-2,2.5l2,2.5h3.5v1H3v5h2.5v2
		c0,0.553,0.448,1,1,1h3c0.553,0,1-0.447,1-1v-2H14l2-2.5L14,7.999z M6.5,1.499c0-0.276,0.224-0.5,0.5-0.5h2
		c0.276,0,0.5,0.224,0.5,0.5v0.5h-3V1.499z M2.5,5.999L1,4.499l1.5-1.501H12v3.001H2.5z M9.5,6.999v1h-3v-1H9.5z M9.5,14.499
		c0,0.275-0.225,0.5-0.5,0.5H7c-0.276,0-0.5-0.225-0.5-0.5v-1.5h3V14.499z M13.5,11.999H4v-3h9.5l1.5,1.5L13.5,11.999z"/>
</g>
<g id="Layer_1">
</g>
</svg>
