<?xml version="1.0" encoding="iso-8859-1"?>
<!-- Generator: Adobe Illustrator 16.0.0, SVG Export Plug-In . SVG Version: 6.00 Build 0)  -->
<!DOCTYPE svg PUBLIC "-//W3C//DTD SVG 1.1//EN" "http://www.w3.org/Graphics/SVG/1.1/DTD/svg11.dtd">
<svg version="1.1" xmlns="http://www.w3.org/2000/svg" xmlns:xlink="http://www.w3.org/1999/xlink" x="0px" y="0px" width="16px"
	 height="16px" viewBox="0 0 16 16" style="enable-background:new 0 0 16 16;" xml:space="preserve">
<g id="_x33_-building_-_apartment" style="enable-background:new    ;">
	<path d="M3,5.999H2v1h1V5.999z M3,11.999H2v1h1V11.999z M3,8.998H2v1.001h1V8.998z M10,2.999H6v1h4V2.999z M10,8.998H6v1.001h4
		V8.998z M12,2.999v-3H4v3H0v12v0.5v0.5h4h2h1h2h1h2h4v-0.5v-0.5v-12H12z M4,14.999H1v-11h3V14.999z M9,14.999H7v-2h2V14.999z
		 M11,2.999v12h-1v-2v-1H9H7H6v1v2H5v-12v-2h6V2.999z M15,14.999h-3v-11h3V14.999z M14,11.999h-1v1h1V11.999z M14,5.999h-1v1h1
		V5.999z M10,5.999H6v1h4V5.999z M14,8.998h-1v1.001h1V8.998z"/>
</g>
<g id="Layer_1">
</g>
</svg>
