<?xml version="1.0" encoding="iso-8859-1"?>
<!-- Generator: Adobe Illustrator 16.0.0, SVG Export Plug-In . SVG Version: 6.00 Build 0)  -->
<!DOCTYPE svg PUBLIC "-//W3C//DTD SVG 1.1//EN" "http://www.w3.org/Graphics/SVG/1.1/DTD/svg11.dtd">
<svg version="1.1" xmlns="http://www.w3.org/2000/svg" xmlns:xlink="http://www.w3.org/1999/xlink" x="0px" y="0px" width="16px"
	 height="16px" viewBox="0 0 16 16" style="enable-background:new 0 0 16 16;" xml:space="preserve">
<g id="_x33_8-environment_-_mountain_sun" style="enable-background:new    ;">
	<path d="M11.5,7.499l-3.5,4.5l-3.5-6.5L0,15.999h16L11.5,7.499z M4.5,7.499l3.5,6l3.5-4.5l3,6h-13L4.5,7.499z M12,5.999
		c1.656,0,3-1.344,3-3c0-1.657-1.344-3-3-3s-3,1.343-3,3C9,4.655,10.344,5.999,12,5.999z M12,0.999c1.105,0,2,0.896,2,2
		s-0.895,2-2,2s-2-0.896-2-2S10.895,0.999,12,0.999z"/>
	<g>
		<path style="fill:none;" d="M17.943,7.008c-0.786-1.362-2.257-2.068-3.727-1.967c-0.584-1.486-2.023-2.542-3.717-2.542
			c-1.689,0-3.126,1.05-3.713,2.53c-0.77-0.057-1.564,0.107-2.284,0.522c-1.904,1.1-2.557,3.535-1.457,5.439
			c0.297,0.515,0.698,0.93,1.153,1.252c-0.44,0.643-0.7,1.419-0.7,2.257c0,2.209,1.791,4.001,4,4.001c1.202,0,2.267-0.541,3-1.38
			c0.733,0.839,1.799,1.38,3,1.38c2.209,0,4-1.792,4-4.001c0-0.844-0.265-1.624-0.71-2.27C18.445,11.053,18.979,8.802,17.943,7.008z
			 M16.5,14c0,0.098-0.021,0.188-0.028,0.284c0.005,0.073,0.028,0.141,0.028,0.215c0,1.657-1.344,3-3,3
			c-0.094,0-0.183-0.014-0.273-0.021C13.15,17.482,13.077,17.5,13,17.5c-1.206,0-2.269-0.609-2.897-1.537
			c-0.513,0.914-1.48,1.536-2.603,1.536c-1.657,0-3-1.343-3-3c0-1.086,0.583-2.029,1.448-2.556C4.555,11.684,3.5,10.467,3.5,9
			c0-1.657,1.343-3.001,3-3.001c0.364,0,0.708,0.075,1.031,0.193C7.686,4.682,8.947,3.5,10.5,3.5c1.551,0,2.813,1.182,2.969,2.692
			c0.323-0.119,0.667-0.193,1.031-0.193c1.656,0,3,1.344,3,3.001c0,1.242-0.761,2.298-1.838,2.752C16.177,12.362,16.5,13.14,16.5,14
			z M10.5,7.499c-1.658,0-3,1.344-3,3c0,1.657,1.343,3,3,3c1.656,0,3-1.343,3-3C13.5,8.843,12.156,7.499,10.5,7.499z M10.5,12.5
			c-1.105,0-2-0.896-2-2.001S9.395,8.5,10.5,8.5c1.104,0,2,0.895,2,1.999S11.604,12.5,10.5,12.5z"/>
	</g>
</g>
<g id="Layer_1">
</g>
</svg>
