<?xml version="1.0" encoding="iso-8859-1"?>
<!-- Generator: Adobe Illustrator 16.0.0, SVG Export Plug-In . SVG Version: 6.00 Build 0)  -->
<!DOCTYPE svg PUBLIC "-//W3C//DTD SVG 1.1//EN" "http://www.w3.org/Graphics/SVG/1.1/DTD/svg11.dtd">
<svg version="1.1" xmlns="http://www.w3.org/2000/svg" xmlns:xlink="http://www.w3.org/1999/xlink" x="0px" y="0px" width="16px"
	 height="16px" viewBox="0 0 16 16" style="enable-background:new 0 0 16 16;" xml:space="preserve">
<g id="_x32_8-environment_-_plant" style="enable-background:new    ;">
	<g id="_x32_8-environment_-_plant_1_">
		<g>
			<path d="M13.999,4.999c-0.359,0-0.699,0.074-1.019,0.189c0.003-0.063,0.019-0.124,0.019-0.189c0-2.209-1.79-4-4-4
				c-2.209,0-4,1.791-4,4c-1.657,0-3,1.344-3,3c0,1.305,0.837,2.403,2,2.816v0.184h5v1H5l1,5h7l1-5h-4v-1h4c1.657,0,3-1.343,3-3
				C16.999,6.343,15.656,4.999,13.999,4.999z M12.999,12.999l-1,3H7l-1-3h3h1H12.999z M13.999,9.999c-0.366,0-2.212,0-2.212,0H9.999
				H9H7.216H5c-1.104,0-2-0.895-2-2c0-1.104,0.896-2,2-2h2.185C6.863,5.647,6.477,5.355,6.019,5.188C6.015,5.125,6,5.064,6,4.999
				c0-1.656,1.343-3,3-3s3,1.344,3,3c0,0.326-0.064,0.634-0.16,0.927c-0.021,0.022-0.035,0.051-0.056,0.073l1.216,0.277
				c0.296-0.172,0.634-0.277,1-0.277c1.105,0,2,0.896,2,2C15.999,9.104,15.104,9.999,13.999,9.999z"/>
		</g>
	</g>
</g>
<g id="Layer_1">
</g>
</svg>
