<?xml version="1.0" encoding="iso-8859-1"?>
<!-- Generator: Adobe Illustrator 16.0.0, SVG Export Plug-In . SVG Version: 6.00 Build 0)  -->
<!DOCTYPE svg PUBLIC "-//W3C//DTD SVG 1.1//EN" "http://www.w3.org/Graphics/SVG/1.1/DTD/svg11.dtd">
<svg version="1.1" xmlns="http://www.w3.org/2000/svg" xmlns:xlink="http://www.w3.org/1999/xlink" x="0px" y="0px" width="16px"
	 height="16px" viewBox="0 0 16 16" style="enable-background:new 0 0 16 16;" xml:space="preserve">
<g id="_x31_5-interior_-_sofa_chair" style="enable-background:new    ;">
	<path d="M6.752,6.995L8.25,5.498l1.499,1.497l0.748-0.749L8.999,4.749l1.498-1.497L9.748,2.503L8.25,4L6.752,2.503L6.004,3.252
		l1.497,1.497L6.004,6.246L6.752,6.995z M16,7.499c0-1.209-0.859-2.218-2-2.449V4.999c0-2.761-2.238-5-5-5H7c-2.762,0-5,2.239-5,5
		V5.05C0.859,5.281,0,6.29,0,7.499c0,0.863,0.438,1.625,1.104,2.074C1.041,9.703,1,9.845,1,9.999v2v1v1c0,0.553,0.448,1,1,1h0.5v1h1
		v-1H7h2h3.5v1h1v-1H14c0.553,0,1-0.447,1-1v-1v-1v-2c0-0.154-0.041-0.296-0.104-0.426C15.563,9.124,16,8.362,16,7.499z M3,4.999
		c0-2.209,1.791-4,4-4h2c2.209,0,4,1.791,4,4V5.05c-1.141,0.231-2,1.24-2,2.449c0,0.285,0.059,0.554,0.145,0.809
		C10.195,8.137,9.111,7.999,8,7.999c-1.104,0-2.191,0.14-3.146,0.313C4.942,8.056,5,7.785,5,7.499C5,6.29,4.141,5.281,3,5.05V4.999z
		 M1,7.499c0-0.828,0.671-1.5,1.5-1.5S4,6.671,4,7.499s-0.671,1.5-1.5,1.5S1,8.327,1,7.499z M14,13.499c0,0.276-0.225,0.5-0.5,0.5
		h-1h-9h-1c-0.276,0-0.5-0.224-0.5-0.5v-0.5h12V13.499z M14,11.999H2v-1.5c0-0.276,0.224-0.5,0.5-0.5
		c0.502,0,0.967-0.151,1.359-0.405C4.917,9.315,6.45,8.999,8,8.999c1.551,0,3.082,0.316,4.139,0.594
		c0.393,0.255,0.859,0.406,1.361,0.406c0.275,0,0.5,0.224,0.5,0.5V11.999z M13.5,8.999c-0.828,0-1.5-0.672-1.5-1.5
		s0.672-1.5,1.5-1.5s1.5,0.672,1.5,1.5S14.328,8.999,13.5,8.999z"/>
</g>
<g id="Layer_1">
</g>
</svg>
