<?xml version="1.0" encoding="iso-8859-1"?>
<!-- Generator: Adobe Illustrator 16.0.0, SVG Export Plug-In . SVG Version: 6.00 Build 0)  -->
<!DOCTYPE svg PUBLIC "-//W3C//DTD SVG 1.1//EN" "http://www.w3.org/Graphics/SVG/1.1/DTD/svg11.dtd">
<svg version="1.1" xmlns="http://www.w3.org/2000/svg" xmlns:xlink="http://www.w3.org/1999/xlink" x="0px" y="0px" width="16px"
	 height="16px" viewBox="0 0 16 16" style="enable-background:new 0 0 16 16;" xml:space="preserve">
<g id="_x33_4-environment_-_tree" style="enable-background:new    ;">
	<path d="M9,12.939c2.799-0.303,5-3.053,5-6.44c0-3.59-2.463-6.5-5.5-6.5c-3.037,0-5.5,2.91-5.5,6.5c0,3.387,2.201,6.138,5,6.44
		v2.06H3v1h11v-1H9V12.939z M8,7.247L5.744,4.991L4.992,5.743L8,8.751v3.187c-2.247-0.308-4-2.61-4-5.438c0-3.038,2.015-5.5,4.5-5.5
		s4.5,2.462,4.5,5.5c0,2.828-1.754,5.131-4,5.438V8.745l2.993-2.992l-0.746-0.746L9,7.253V2.999H8V7.247z"/>
</g>
<g id="Layer_1">
</g>
</svg>
