<?xml version="1.0" encoding="iso-8859-1"?>
<!-- Generator: Adobe Illustrator 16.0.0, SVG Export Plug-In . SVG Version: 6.00 Build 0)  -->
<!DOCTYPE svg PUBLIC "-//W3C//DTD SVG 1.1//EN" "http://www.w3.org/Graphics/SVG/1.1/DTD/svg11.dtd">
<svg version="1.1" xmlns="http://www.w3.org/2000/svg" xmlns:xlink="http://www.w3.org/1999/xlink" x="0px" y="0px" width="16px"
	 height="16px" viewBox="0 0 16 16" style="enable-background:new 0 0 16 16;" xml:space="preserve">
<g id="_x31_-building_-_office_apartment" style="enable-background:new    ;">
	<path d="M12,1.999H9v3h3V1.999z M11,3.999h-1v-1h1V3.999z M8,1.999H5v3h3V1.999z M7,3.999H6v-1h1V3.999z M14,14.999v-15H3v15H1v1
		h15v-1H14z M10,14.999H7v-4h3V14.999z M13,14.999h-2v-5H6v5H4v-14h9V14.999z M12,5.999H9v3h3V5.999z M11,7.999h-1v-1h1V7.999z
		 M8,5.999H5v3h3V5.999z M7,7.999H6v-1h1V7.999z"/>
</g>
<g id="Layer_1">
</g>
</svg>
