<?xml version="1.0" encoding="iso-8859-1"?>
<!-- Generator: Adobe Illustrator 16.0.0, SVG Export Plug-In . SVG Version: 6.00 Build 0)  -->
<!DOCTYPE svg PUBLIC "-//W3C//DTD SVG 1.1//EN" "http://www.w3.org/Graphics/SVG/1.1/DTD/svg11.dtd">
<svg version="1.1" xmlns="http://www.w3.org/2000/svg" xmlns:xlink="http://www.w3.org/1999/xlink" x="0px" y="0px" width="16px"
	 height="16px" viewBox="0 0 16 16" style="enable-background:new 0 0 16 16;" xml:space="preserve">
<g id="_x33_1-object_-_no_smoke" style="enable-background:new    ;">
	<path d="M4,0.999H3v5h1V0.999z M2,2.999H1v3h1V2.999z M0,12.999h1v-5H0V12.999z M3,8.999h2.928l0.687-1H2.5
		c-0.276,0-0.5,0.224-0.5,0.5v4c0,0.276,0.224,0.5,0.5,0.5h0.68l0.687-1H3V8.999z M15.5,7.999H13h-1h-0.523l-0.688,1H12v3H8.728
		l-0.687,1H12h1h2.5c0.275,0,0.5-0.224,0.5-0.5v-4C16,8.223,15.775,7.999,15.5,7.999z M15,11.999h-2v-3h2V11.999z M11.066,5
		l-7.075,9.493l0.942,0.505l7.074-9.493L11.066,5z"/>
</g>
<g id="Layer_1">
</g>
</svg>
