<?xml version="1.0" encoding="iso-8859-1"?>
<!-- Generator: Adobe Illustrator 16.0.0, SVG Export Plug-In . SVG Version: 6.00 Build 0)  -->
<!DOCTYPE svg PUBLIC "-//W3C//DTD SVG 1.1//EN" "http://www.w3.org/Graphics/SVG/1.1/DTD/svg11.dtd">
<svg version="1.1" xmlns="http://www.w3.org/2000/svg" xmlns:xlink="http://www.w3.org/1999/xlink" x="0px" y="0px" width="16px"
	 height="16px" viewBox="0 0 16 16" style="enable-background:new 0 0 16 16;" xml:space="preserve">
<g id="_x33_2-object_-_smoke" style="enable-background:new    ;">
	<path d="M4,1.999H3v5h1V1.999z M0,13.999h1v-5H0V13.999z M2,3.999H1v3h1V3.999z M15.5,8.999H13h-1H2.5c-0.276,0-0.5,0.224-0.5,0.5
		v4c0,0.276,0.224,0.5,0.5,0.5H12h1h2.5c0.275,0,0.5-0.224,0.5-0.5v-4C16,9.223,15.775,8.999,15.5,8.999z M12,12.999H3v-3h9V12.999z
		 M15,12.999h-2v-3h2V12.999z"/>
</g>
<g id="Layer_1">
</g>
</svg>
