<?xml version="1.0" encoding="iso-8859-1"?>
<!-- Generator: Adobe Illustrator 16.0.0, SVG Export Plug-In . SVG Version: 6.00 Build 0)  -->
<!DOCTYPE svg PUBLIC "-//W3C//DTD SVG 1.1//EN" "http://www.w3.org/Graphics/SVG/1.1/DTD/svg11.dtd">
<svg version="1.1" xmlns="http://www.w3.org/2000/svg" xmlns:xlink="http://www.w3.org/1999/xlink" x="0px" y="0px" width="16px"
	 height="16px" viewBox="0 0 16 16" style="enable-background:new 0 0 16 16;" xml:space="preserve">
<g id="_x38_-building_-_house_live" style="enable-background:new    ;">
	<path style="fill-rule:evenodd;clip-rule:evenodd;" d="M3.004,10.011h2.994V9.01H3.004V10.011z M15.84,6.135L8.37,0.149
		c-0.104-0.104-0.24-0.15-0.375-0.146C7.859-0.001,7.723,0.046,7.62,0.149L0.148,6.135c-0.198,0.199-0.198,0.521,0,0.721
		s0.521,0.199,0.719,0l0.141-0.113v8.268c0,0.553,0.446,1,0.998,1h11.977c0.551,0,0.998-0.447,0.998-1V6.744l0.139,0.111
		c0.199,0.199,0.521,0.199,0.721,0C16.037,6.656,16.037,6.334,15.84,6.135z M10.988,15.011H7.995v-5h2.994V15.011z M13.982,14.511
		c0,0.275-0.225,0.5-0.5,0.5h-1.496V9.01h-4.99v6.001H2.505c-0.275,0-0.499-0.225-0.499-0.5V5.943l5.988-4.797l5.989,4.798V14.511z
		 M5.998,6.01c0,1.105,0.901,2.001,2.012,2.001c1.111,0,2.011-0.896,2.011-2.001c0-1.104-0.9-1.999-2.011-1.999
		C6.899,4.011,5.998,4.906,5.998,6.01z M8.01,5.011c0.559,0,1.013,0.448,1.013,0.999c0,0.553-0.455,1.001-1.013,1.001
		c-0.561,0-1.014-0.448-1.014-1.001C6.997,5.459,7.45,5.011,8.01,5.011z M3.004,12.011h2.994v-1H3.004V12.011z"/>
</g>
<g id="Layer_1">
</g>
</svg>
