<?xml version="1.0" encoding="iso-8859-1"?>
<!-- Generator: Adobe Illustrator 16.0.0, SVG Export Plug-In . SVG Version: 6.00 Build 0)  -->
<!DOCTYPE svg PUBLIC "-//W3C//DTD SVG 1.1//EN" "http://www.w3.org/Graphics/SVG/1.1/DTD/svg11.dtd">
<svg version="1.1" xmlns="http://www.w3.org/2000/svg" xmlns:xlink="http://www.w3.org/1999/xlink" x="0px" y="0px" width="16px"
	 height="16px" viewBox="0 0 16 16" style="enable-background:new 0 0 16 16;" xml:space="preserve">
<g id="_x32_0-interior_-_interior_home__cabinets" style="enable-background:new    ;">
	<path d="M6,8.999h1v-3H6V8.999z M15.5-0.001H9H8H1.5c-0.276,0-0.5,0.224-0.5,0.5v11.5v1v2.5c0,0.276,0.224,0.5,0.5,0.5h14
		c0.275,0,0.5-0.224,0.5-0.5v-2.5v-1v-11.5C16,0.223,15.775-0.001,15.5-0.001z M2,1.499c0-0.276,0.224-0.5,0.5-0.5H8v11H2V1.499z
		 M15,14.499c0,0.276-0.225,0.5-0.5,0.5h-12c-0.276,0-0.5-0.224-0.5-0.5v-1.5h6h1h6V14.499z M15,11.999H9v-11h5.5
		c0.275,0,0.5,0.224,0.5,0.5V11.999z M10,8.999h1v-3h-1V8.999z"/>
</g>
<g id="Layer_1">
</g>
</svg>
