<?xml version="1.0" encoding="iso-8859-1"?>
<!-- Generator: Adobe Illustrator 16.0.0, SVG Export Plug-In . SVG Version: 6.00 Build 0)  -->
<!DOCTYPE svg PUBLIC "-//W3C//DTD SVG 1.1//EN" "http://www.w3.org/Graphics/SVG/1.1/DTD/svg11.dtd">
<svg version="1.1" xmlns="http://www.w3.org/2000/svg" xmlns:xlink="http://www.w3.org/1999/xlink" x="0px" y="0px" width="16px"
	 height="16px" viewBox="0 0 16 16" style="enable-background:new 0 0 16 16;" xml:space="preserve">
<g id="_x31_9-interior_-_sofa_chair" style="enable-background:new    ;">
	<path style="fill-rule:evenodd;clip-rule:evenodd;" d="M15,10c0-0.738-0.404-1.376-1-1.723V4c0-1.656-1.344-2.999-3-2.999h-1
		c-1.045,0-1.962,0.535-2.5,1.345C6.963,1.536,6.044,1.001,5,1.001H4C2.343,1.001,1,2.344,1,4v4.277C0.405,8.624,0,9.262,0,10
		c0,0.204,0.04,0.398,0.097,0.584C0.038,10.712,0,10.851,0,11v2c0,0.553,0.447,1,1,1v2h1v-2h11v2h1v-2c0.551,0,1-0.447,1-1v-2
		c0-0.149-0.037-0.288-0.096-0.416C14.961,10.398,15,10.205,15,10z M2,9c0.552,0,1,0.448,1,1c0,0.553-0.448,1-1,1
		c-0.553,0-1-0.447-1-1C1,9.448,1.447,9,2,9z M7,13H1.5C1.224,13,1,12.776,1,12.5v-0.777C1.295,11.895,1.634,12,2,12
		c0.738,0,1.376-0.404,1.723-1H7V13z M7,10H4c0-1.104-0.896-2-2-2V4c0-1.104,0.896-2,2-2h1c1.104,0,2,0.896,2,2V10z M8,4
		c0-1.104,0.895-2,2-2h1c1.104,0,2,0.896,2,2v4c-1.105,0-2,0.896-2,2H8V4z M14,12.5c0,0.276-0.225,0.5-0.5,0.5H8v-2h3.277
		c0.346,0.596,0.984,1,1.723,1c0.367,0,0.705-0.105,1-0.277V12.5z M13,11c-0.553,0-1-0.447-1-1c0-0.552,0.447-1,1-1
		c0.551,0,1,0.448,1,1C14,10.553,13.551,11,13,11z M11,5h-1v1h1V5z M4,6h1V5H4V6z"/>
</g>
<g id="Layer_1">
</g>
</svg>
