<?xml version="1.0" encoding="iso-8859-1"?>
<!-- Generator: Adobe Illustrator 16.0.0, SVG Export Plug-In . SVG Version: 6.00 Build 0)  -->
<!DOCTYPE svg PUBLIC "-//W3C//DTD SVG 1.1//EN" "http://www.w3.org/Graphics/SVG/1.1/DTD/svg11.dtd">
<svg version="1.1" xmlns="http://www.w3.org/2000/svg" xmlns:xlink="http://www.w3.org/1999/xlink" x="0px" y="0px" width="16px"
	 height="16px" viewBox="0 0 16 16" style="enable-background:new 0 0 16 16;" xml:space="preserve">
<g id="_x35_-building_-_museum" style="enable-background:new    ;">
	<path d="M14,8.499v5c0,0.276,0.225,0.5,0.5,0.5s0.5-0.224,0.5-0.5v-5c0-0.276-0.225-0.5-0.5-0.5S14,8.223,14,8.499z M12,8.499v5
		c0,0.276,0.225,0.5,0.5,0.5s0.5-0.224,0.5-0.5v-5c0-0.276-0.225-0.5-0.5-0.5S12,8.223,12,8.499z M8.5,2.999
		c1.209,0,2.219,0.859,2.45,2h1C11.729,3.47,10.527,2.267,9,2.045V0.499c0-0.276-0.224-0.5-0.5-0.5c-0.275,0-0.5,0.224-0.5,0.5
		v1.546C6.473,2.267,5.271,3.47,5.05,4.999h1C6.282,3.858,7.291,2.999,8.5,2.999z M1.5,6.999h14c0.275,0,0.5-0.224,0.5-0.5
		s-0.225-0.5-0.5-0.5h-14c-0.276,0-0.5,0.224-0.5,0.5S1.224,6.999,1.5,6.999z M9,8.499v5c0,0.276,0.225,0.5,0.5,0.5
		s0.5-0.224,0.5-0.5v-5c0-0.276-0.225-0.5-0.5-0.5S9,8.223,9,8.499z M7,8.499v5c0,0.276,0.224,0.5,0.5,0.5
		c0.276,0,0.5-0.224,0.5-0.5v-5c0-0.276-0.224-0.5-0.5-0.5C7.224,7.999,7,8.223,7,8.499z M2,8.499v5c0,0.276,0.224,0.5,0.5,0.5
		c0.276,0,0.5-0.224,0.5-0.5v-5c0-0.276-0.224-0.5-0.5-0.5C2.224,7.999,2,8.223,2,8.499z M15.5,14.999h-14
		c-0.276,0-0.5,0.224-0.5,0.5s0.224,0.5,0.5,0.5h14c0.275,0,0.5-0.224,0.5-0.5S15.775,14.999,15.5,14.999z M4,8.499v5
		c0,0.276,0.224,0.5,0.5,0.5c0.276,0,0.5-0.224,0.5-0.5v-5c0-0.276-0.224-0.5-0.5-0.5C4.224,7.999,4,8.223,4,8.499z"/>
</g>
<g id="Layer_1">
</g>
</svg>
