<?xml version="1.0" encoding="iso-8859-1"?>
<!-- Generator: Adobe Illustrator 16.0.0, SVG Export Plug-In . SVG Version: 6.00 Build 0)  -->
<!DOCTYPE svg PUBLIC "-//W3C//DTD SVG 1.1//EN" "http://www.w3.org/Graphics/SVG/1.1/DTD/svg11.dtd">
<svg version="1.1" xmlns="http://www.w3.org/2000/svg" xmlns:xlink="http://www.w3.org/1999/xlink" x="0px" y="0px" width="16px"
	 height="16px" viewBox="0 0 16 16" style="enable-background:new 0 0 16 16;" xml:space="preserve">
<g id="_x33_5-environment_-_leaf_green" style="enable-background:new    ;">
	<path d="M8.5-0.001c-1.738,0-5.5,4.081-5.5,8.5c0,4.418,3.761,7.5,5.5,7.5c1.739,0,5.5-3.082,5.5-7.5
		C14,4.08,10.238-0.001,8.5-0.001z M9,14.897v-2.127l2.258-1.339c0.234-0.139,0.313-0.443,0.18-0.683
		c-0.135-0.239-0.434-0.321-0.666-0.184L9,11.616v-0.6c0-0.001,0-0.001,0-0.002V8.271l2.258-1.339
		c0.234-0.138,0.313-0.443,0.18-0.683c-0.135-0.239-0.434-0.321-0.666-0.183L9,7.116V5.499c0-0.276-0.224-0.5-0.5-0.5
		c-0.275,0-0.5,0.224-0.5,0.5v4.313L6.826,8.634C6.639,8.446,6.333,8.448,6.144,8.639S5.952,9.136,6.139,9.323L8,11.189v3.708
		c-1.471-0.508-4-2.965-4-6.398c0-3.866,3.209-7.5,4.5-7.5c1.292,0,4.5,3.634,4.5,7.5C13,11.933,10.471,14.39,9,14.897z"/>
</g>
<g id="Layer_1">
</g>
</svg>
