<?xml version="1.0" encoding="iso-8859-1"?>
<!-- Generator: Adobe Illustrator 16.0.0, SVG Export Plug-In . SVG Version: 6.00 Build 0)  -->
<!DOCTYPE svg PUBLIC "-//W3C//DTD SVG 1.1//EN" "http://www.w3.org/Graphics/SVG/1.1/DTD/svg11.dtd">
<svg version="1.1" xmlns="http://www.w3.org/2000/svg" xmlns:xlink="http://www.w3.org/1999/xlink" x="0px" y="0px" width="16px"
	 height="16px" viewBox="0 0 16 16" style="enable-background:new 0 0 16 16;" xml:space="preserve">
<g id="_x33_3-environment_-_leaf_green" style="enable-background:new    ;">
	<path d="M3.487,4.113C1.47,6.088,1.483,8.881,3.043,11.104c-1.164,1.577-1.919,3.044-1.919,3.044
		c-0.195,0.19-0.193,0.503,0.005,0.696s0.516,0.196,0.711,0.005c0,0,0.724-1.424,1.852-2.966c0.074,0.079,0.131,0.165,0.209,0.241
		c2.373,2.325,5.84,2.697,8.18,0.407c2.471-2.42,2.914-11.273,2.914-11.273S6.664,1.002,3.487,4.113z M11.363,11.831
		c-1.764,1.728-4.25,2.059-6.757-0.397c-0.117-0.114-0.197-0.228-0.301-0.342c0.333-0.408,0.682-0.811,1.059-1.181
		c2.225-2.182,4.542-2.966,4.542-2.966c0.195-0.191,0.193-0.503-0.004-0.697C9.703,6.055,9.385,6.053,9.189,6.243
		c0,0-2.272,0.741-4.477,2.902c-0.371,0.363-0.715,0.76-1.045,1.16C2.259,8.247,2.709,6.277,4.203,4.814
		c3.177-3.111,9.792-2.639,9.792-2.639S13.482,9.756,11.363,11.831z"/>
</g>
<g id="Layer_1">
</g>
</svg>
