<?xml version="1.0" encoding="iso-8859-1"?>
<!-- Generator: Adobe Illustrator 16.0.0, SVG Export Plug-In . SVG Version: 6.00 Build 0)  -->
<!DOCTYPE svg PUBLIC "-//W3C//DTD SVG 1.1//EN" "http://www.w3.org/Graphics/SVG/1.1/DTD/svg11.dtd">
<svg version="1.1" xmlns="http://www.w3.org/2000/svg" xmlns:xlink="http://www.w3.org/1999/xlink" x="0px" y="0px" width="16px"
	 height="16px" viewBox="0 0 16 16" style="enable-background:new 0 0 16 16;" xml:space="preserve">
<g id="_x32_6-interior_-_lamp_bulb" style="enable-background:new    ;">
	<path d="M8,0.999c-3.314,0-6,2.687-6,6c0,2.216,1.214,4.129,3,5.168v2.832h6v-2.832c1.785-1.039,3-2.952,3-5.168
		C14,3.686,11.314,0.999,8,0.999z M10,13.999H6v-1h2h1h1V13.999z M10,11.577V12H9H8H6v-0.423c-1.765-0.771-3-2.528-3-4.578
		c0-2.761,2.238-5,5-5s5,2.239,5,5C13,9.049,11.764,10.806,10,11.577z"/>
</g>
<g id="Layer_1">
</g>
</svg>
