<?xml version="1.0" encoding="iso-8859-1"?>
<!-- Generator: Adobe Illustrator 16.0.0, SVG Export Plug-In . SVG Version: 6.00 Build 0)  -->
<!DOCTYPE svg PUBLIC "-//W3C//DTD SVG 1.1//EN" "http://www.w3.org/Graphics/SVG/1.1/DTD/svg11.dtd">
<svg version="1.1" xmlns="http://www.w3.org/2000/svg" xmlns:xlink="http://www.w3.org/1999/xlink" x="0px" y="0px" width="16px"
	 height="16px" viewBox="0 0 16 16" style="enable-background:new 0 0 16 16;" xml:space="preserve">
<g id="_x32_7-environment_-_flower" style="enable-background:new    ;">
	<path d="M14.66,3.747c-0.693-1.195-2.23-1.604-3.432-0.914c-0.1,0.057-0.186,0.128-0.275,0.196
		c0.037-0.171,0.061-0.348,0.061-0.529c0-1.381-1.125-2.501-2.514-2.501c-1.388,0-2.513,1.12-2.513,2.501
		c0,0.182,0.022,0.358,0.059,0.529C5.957,2.961,5.871,2.89,5.77,2.832C4.568,2.141,3.031,2.551,2.337,3.746
		C1.643,4.942,2.055,6.472,3.257,7.162c0.264,0.151,0.544,0.24,0.828,0.289c-1.078,0.727-1.432,2.161-0.771,3.301
		c0.691,1.191,2.224,1.601,3.422,0.912c0.821-0.472,1.261-1.336,1.241-2.217c0.007,0.001,0.014,0.001,0.021,0.002V16h1.004V9.688
		c0.063,0.794,0.504,1.545,1.252,1.974c1.207,0.69,2.748,0.28,3.443-0.916c0.662-1.137,0.313-2.566-0.76-3.299
		c0.275-0.051,0.547-0.138,0.803-0.284C14.943,6.473,15.355,4.943,14.66,3.747z M8.5,1c0.833,0,1.508,0.671,1.508,1.5
		c0,0.477-0.238,0.883-0.586,1.157C9.129,3.563,8.824,3.499,8.5,3.499c-0.323,0-0.629,0.064-0.921,0.158
		C7.23,3.383,6.992,2.977,6.992,2.5C6.992,1.671,7.667,1,8.5,1z M3.76,6.296c-0.721-0.414-0.968-1.332-0.552-2.05
		c0.416-0.717,1.338-0.963,2.06-0.549c0.435,0.25,0.671,0.687,0.719,1.148c-0.241,0.361-0.395,0.781-0.459,1.23
		C5.055,6.515,4.348,6.634,3.76,6.296z M6.235,10.801c-0.719,0.412-1.638,0.168-2.053-0.548c-0.415-0.715-0.169-1.63,0.55-2.042
		c0.39-0.224,0.832-0.24,1.227-0.107c0.235,0.368,0.546,0.68,0.915,0.916C7.107,9.684,6.871,10.436,6.235,10.801z M9.002,9.559
		V9.449C9.006,9.448,9.01,9.448,9.014,9.448C9.014,9.485,9.002,9.521,9.002,9.559z M8.5,8.503c-1.112,0-2.014-0.897-2.014-2.003
		c0-1.107,0.902-2.004,2.014-2.004s2.014,0.896,2.014,2.004C10.514,7.605,9.611,8.503,8.5,8.503z M12.828,10.247
		c-0.42,0.717-1.346,0.963-2.07,0.549c-0.635-0.362-0.875-1.104-0.652-1.766c0.385-0.241,0.707-0.565,0.947-0.949
		c0.395-0.126,0.834-0.104,1.221,0.117C12.998,8.611,13.246,9.529,12.828,10.247z M13.238,6.297
		c-0.588,0.337-1.293,0.219-1.766-0.217c-0.064-0.452-0.219-0.874-0.461-1.237c0.049-0.461,0.285-0.895,0.719-1.145
		c0.721-0.414,1.643-0.168,2.061,0.55C14.207,4.966,13.959,5.883,13.238,6.297z"/>
</g>
<g id="Layer_1">
</g>
</svg>
