<?xml version="1.0" encoding="iso-8859-1"?>
<!-- Generator: Adobe Illustrator 16.0.0, SVG Export Plug-In . SVG Version: 6.00 Build 0)  -->
<!DOCTYPE svg PUBLIC "-//W3C//DTD SVG 1.1//EN" "http://www.w3.org/Graphics/SVG/1.1/DTD/svg11.dtd">
<svg version="1.1" xmlns="http://www.w3.org/2000/svg" xmlns:xlink="http://www.w3.org/1999/xlink" x="0px" y="0px" width="16px"
	 height="16px" viewBox="0 0 16 16" style="enable-background:new 0 0 16 16;" xml:space="preserve">
<g id="_x32_9-environment_-_flower" style="enable-background:new    ;">
	<path style="fill-rule:evenodd;clip-rule:evenodd;" d="M7.988,4.999c-1.658,0-3,1.344-3,3c0,1.594,1.246,2.884,2.816,2.981
		c0.002,0.007,0.007,0.013,0.01,0.02h0.35c0.003-0.007,0.008-0.013,0.01-0.02c1.568-0.098,2.816-1.388,2.816-2.981
		C10.988,6.343,9.645,4.999,7.988,4.999z M7.988,10c-1.105,0-2-0.896-2-2.001S6.882,6,7.988,6c1.104,0,2,0.895,2,1.999
		S9.092,10,7.988,10z M15.432,4.508c-0.787-1.362-2.258-2.068-3.727-1.967c-0.584-1.486-2.023-2.542-3.717-2.542
		c-1.689,0-3.126,1.05-3.713,2.53C3.505,2.472,2.71,2.636,1.991,3.051C0.087,4.15-0.565,6.586,0.534,8.49
		c0.297,0.515,0.698,0.93,1.153,1.252c-0.44,0.643-0.7,1.419-0.7,2.257c0,2.209,1.791,4.001,4,4.001c1.202,0,2.267-0.541,3-1.38
		c0.733,0.839,1.799,1.38,3,1.38c2.209,0,4-1.792,4-4.001c0-0.844-0.266-1.624-0.711-2.27C15.934,8.553,16.467,6.302,15.432,4.508z
		 M10.988,14.999c-1.305,0-2.404-0.837-2.817-1.999H7.804c-0.414,1.162-1.512,1.999-2.816,1.999c-1.657,0-3-1.343-3-3
		c0-1.086,0.583-2.029,1.448-2.556C2.042,9.184,0.987,7.967,0.987,6.5c0-1.657,1.343-3.001,3-3.001c0.364,0,0.708,0.075,1.031,0.193
		C5.174,2.182,6.435,1,7.988,1c1.551,0,2.813,1.182,2.969,2.692c0.322-0.119,0.666-0.193,1.031-0.193c1.656,0,3,1.344,3,3.001
		c0,1.467-1.057,2.684-2.449,2.943c0.865,0.526,1.449,1.47,1.449,2.556C13.988,13.656,12.645,14.999,10.988,14.999z"/>
</g>
<g id="Layer_1">
</g>
</svg>
