<?xml version="1.0" encoding="iso-8859-1"?>
<!-- Generator: Adobe Illustrator 16.0.0, SVG Export Plug-In . SVG Version: 6.00 Build 0)  -->
<!DOCTYPE svg PUBLIC "-//W3C//DTD SVG 1.1//EN" "http://www.w3.org/Graphics/SVG/1.1/DTD/svg11.dtd">
<svg version="1.1" xmlns="http://www.w3.org/2000/svg" xmlns:xlink="http://www.w3.org/1999/xlink" x="0px" y="0px" width="16px"
	 height="16px" viewBox="0 0 16 16" style="enable-background:new 0 0 16 16;" xml:space="preserve">
<g id="_x31_29-interface_-_arrow_bottom" style="enable-background:new    ;">
	<path d="M12.162,6.153L7.996,9.836L3.853,6.131C3.66,5.937,3.345,5.936,3.15,6.129C2.956,6.322,2.955,6.637,3.148,6.831
		l4.481,4.008c0.004,0.004,0.002,0.011,0.006,0.016C7.734,10.953,7.863,11,7.992,10.999c0.129,0.002,0.258-0.044,0.357-0.143
		c0.005-0.004,0.003-0.011,0.007-0.016l4.505-3.982c0.195-0.194,0.195-0.508,0.002-0.703C12.67,5.961,12.355,5.96,12.162,6.153z
		 M14-0.001H2c-1.104,0-2,0.896-2,2v12c0,1.104,0.896,2,2,2h12c1.105,0,2-0.896,2-2v-12C16,0.895,15.105-0.001,14-0.001z M15,13.999
		c0,0.552-0.447,1-1,1H2c-0.552,0-1-0.448-1-1v-12c0-0.553,0.448-1,1-1h12c0.553,0,1,0.447,1,1V13.999z"/>
</g>
<g id="Layer_1">
</g>
</svg>
