<?xml version="1.0" encoding="iso-8859-1"?>
<!-- Generator: Adobe Illustrator 16.0.0, SVG Export Plug-In . SVG Version: 6.00 Build 0)  -->
<!DOCTYPE svg PUBLIC "-//W3C//DTD SVG 1.1//EN" "http://www.w3.org/Graphics/SVG/1.1/DTD/svg11.dtd">
<svg version="1.1" xmlns="http://www.w3.org/2000/svg" xmlns:xlink="http://www.w3.org/1999/xlink" x="0px" y="0px" width="16px"
	 height="16px" viewBox="0 0 16 16" style="enable-background:new 0 0 16 16;" xml:space="preserve">
<g id="_x31_31-interface_-_list_row_layout" style="enable-background:new    ;">
	<path d="M15,5.999H1c-0.552,0-1,0.447-1,1v2c0,0.552,0.448,1,1,1h14c0.553,0,1-0.448,1-1v-2C16,6.446,15.553,5.999,15,5.999z
		 M15,8.499c0,0.276-0.225,0.5-0.5,0.5h-13c-0.276,0-0.5-0.224-0.5-0.5v-1c0-0.276,0.224-0.5,0.5-0.5h13c0.275,0,0.5,0.224,0.5,0.5
		V8.499z M15,10.999H1c-0.552,0-1,0.447-1,1v2c0,0.552,0.448,1,1,1h14c0.553,0,1-0.448,1-1v-2C16,11.446,15.553,10.999,15,10.999z
		 M15,13.499c0,0.276-0.225,0.5-0.5,0.5h-13c-0.276,0-0.5-0.224-0.5-0.5v-1c0-0.276,0.224-0.5,0.5-0.5h13c0.275,0,0.5,0.224,0.5,0.5
		V13.499z M15,0.999H1c-0.552,0-1,0.448-1,1v2c0,0.553,0.448,1,1,1h14c0.553,0,1-0.447,1-1v-2C16,1.447,15.553,0.999,15,0.999z
		 M15,3.499c0,0.276-0.225,0.5-0.5,0.5h-13c-0.276,0-0.5-0.224-0.5-0.5v-1c0-0.276,0.224-0.5,0.5-0.5h13c0.275,0,0.5,0.224,0.5,0.5
		V3.499z"/>
</g>
<g id="Layer_1">
</g>
</svg>
