<?xml version="1.0" encoding="iso-8859-1"?>
<!-- Generator: Adobe Illustrator 16.0.0, SVG Export Plug-In . SVG Version: 6.00 Build 0)  -->
<!DOCTYPE svg PUBLIC "-//W3C//DTD SVG 1.1//EN" "http://www.w3.org/Graphics/SVG/1.1/DTD/svg11.dtd">
<svg version="1.1" xmlns="http://www.w3.org/2000/svg" xmlns:xlink="http://www.w3.org/1999/xlink" x="0px" y="0px" width="16px"
	 height="16px" viewBox="0 0 16 16" style="enable-background:new 0 0 16 16;" xml:space="preserve">
<g id="_x38_0-interface_-_house_home" style="enable-background:new    ;">
	<path d="M15.842,8.129L8.354,0.141c-0.1-0.1-0.23-0.147-0.362-0.146C7.861-0.007,7.73,0.041,7.63,0.141L0.142,8.129
		c-0.197,0.197-0.197,0.517,0,0.713c0.197,0.197,0.516,0.197,0.712,0L3,6.553V7v8.499c0,0.276,0.224,0.5,0.5,0.5h9
		c0.275,0,0.5-0.224,0.5-0.5V7l0,0V6.57l2.131,2.271c0.195,0.197,0.516,0.197,0.711,0C16.039,8.646,16.039,8.326,15.842,8.129z
		 M12,14.999H4V7V5.999V5.486l3.992-4.259L12,5.503v0.491c0,0.002,0,0.003,0,0.005V14.999z"/>
</g>
<g id="Layer_1">
</g>
</svg>
