<?xml version="1.0" encoding="iso-8859-1"?>
<!-- Generator: Adobe Illustrator 16.0.0, SVG Export Plug-In . SVG Version: 6.00 Build 0)  -->
<!DOCTYPE svg PUBLIC "-//W3C//DTD SVG 1.1//EN" "http://www.w3.org/Graphics/SVG/1.1/DTD/svg11.dtd">
<svg version="1.1" xmlns="http://www.w3.org/2000/svg" xmlns:xlink="http://www.w3.org/1999/xlink" x="0px" y="0px" width="16px"
	 height="16px" viewBox="0 0 16 16" style="enable-background:new 0 0 16 16;" xml:space="preserve">
<g id="_x39_4-interface_-_calendar_time_date" style="enable-background:new    ;">
	<path d="M9,6.999H7v2h2V6.999z M12.5,10.999h-2v2h2V10.999z M12.5,6.999h-2v2h2V6.999z M5.5,10.999h-2v2h2V10.999z M15-0.001h-1H1
		c-0.276,0-0.5,0.224-0.5,0.5v15c0,0.275,0.224,0.5,0.5,0.5h14c0.275,0,0.5-0.225,0.5-0.5v-15C15.5,0.223,15.275-0.001,15-0.001z
		 M14.5,14.999h-13v-11h13V14.999z M14.5,2.999h-13v-2h13V2.999z M5.5,6.999h-2v2h2V6.999z M9,10.999H7v2h2V10.999z"/>
</g>
<g id="Layer_1">
</g>
</svg>
