<?xml version="1.0" encoding="iso-8859-1"?>
<!-- Generator: Adobe Illustrator 16.0.0, SVG Export Plug-In . SVG Version: 6.00 Build 0)  -->
<!DOCTYPE svg PUBLIC "-//W3C//DTD SVG 1.1//EN" "http://www.w3.org/Graphics/SVG/1.1/DTD/svg11.dtd">
<svg version="1.1" xmlns="http://www.w3.org/2000/svg" xmlns:xlink="http://www.w3.org/1999/xlink" x="0px" y="0px" width="16px"
	 height="16px" viewBox="0 0 16 16" style="enable-background:new 0 0 16 16;" xml:space="preserve">
<g id="_x37_8-interface_-_open_incoming_link_download" style="enable-background:new    ;">
	<path d="M8.208,11.884c0.074,0.059,0.159,0.101,0.26,0.107c0.009,0,0.016,0.006,0.024,0.006c0.003,0,0.005,0.002,0.007,0.002
		c0.003,0,0.006-0.002,0.008-0.002c0.007,0,0.011-0.003,0.017-0.003c0.119-0.006,0.227-0.053,0.309-0.128
		c0.008-0.006,0.018-0.003,0.024-0.01s2.5-2.524,2.5-2.524c0.191-0.19,0.191-0.5,0-0.69s-0.5-0.19-0.691,0L9,10.309v-9.81
		c0-0.276-0.224-0.5-0.5-0.5c-0.275,0-0.5,0.224-0.5,0.5v9.81L6.333,8.642c-0.19-0.19-0.5-0.19-0.69,0c-0.19,0.19-0.19,0.5,0,0.69
		C5.643,9.332,8.189,11.869,8.208,11.884z M14,3.999h-1.5v1h1c0.275,0,0.5,0.224,0.5,0.5v9c0,0.275-0.225,0.5-0.5,0.5h-10
		c-0.276,0-0.5-0.225-0.5-0.5v-9c0-0.276,0.224-0.5,0.5-0.5h1v-1H3c-0.552,0-1,0.447-1,1v10c0,0.552,0.448,1,1,1h11
		c0.553,0,1-0.448,1-1v-10C15,4.446,14.553,3.999,14,3.999z"/>
</g>
<g id="Layer_1">
</g>
</svg>
