<?xml version="1.0" encoding="iso-8859-1"?>
<!-- Generator: Adobe Illustrator 16.0.0, SVG Export Plug-In . SVG Version: 6.00 Build 0)  -->
<!DOCTYPE svg PUBLIC "-//W3C//DTD SVG 1.1//EN" "http://www.w3.org/Graphics/SVG/1.1/DTD/svg11.dtd">
<svg version="1.1" xmlns="http://www.w3.org/2000/svg" xmlns:xlink="http://www.w3.org/1999/xlink" x="0px" y="0px" width="16px"
	 height="16px" viewBox="0 0 16 16" style="enable-background:new 0 0 16 16;" xml:space="preserve">
<g id="_x38_8-interface_-_refresh" style="enable-background:new    ;">
	<path d="M0.276,5.946C0.271,5.964,1.325,5.999,1.325,5.999h4.172c0.276,0,0.5-0.225,0.5-0.501s-0.224-0.501-0.5-0.501H1.7
		C2.827,2.64,5.213,0.999,8,0.999c3.523,0,6.41,2.612,6.898,6h1.033c-0.494-3.945-3.854-7-7.932-7c-3.023,0-5.639,1.686-6.999,4.161
		V0.501c0-0.275-0.224-0.5-0.5-0.5S0,0.226,0,0.501v4.957C0,5.472-0.007,5.483-0.007,5.498c0,0.024,0.016,0.043,0.02,0.066
		C0.02,5.626,0.036,5.683,0.063,5.735c0.011,0.02,0.022,0.036,0.036,0.054C0.146,5.854,0.204,5.909,0.276,5.946z M15.988,10.434
		c-0.008-0.062-0.023-0.119-0.051-0.172c-0.012-0.019-0.023-0.035-0.037-0.053c-0.047-0.066-0.104-0.121-0.176-0.158
		c0.004-0.017-1.051-0.052-1.051-0.052h-4.172c-0.275,0-0.5,0.224-0.5,0.501c0,0.276,0.225,0.5,0.5,0.5h3.797
		c-1.125,2.357-3.512,3.999-6.299,3.999c-3.523,0-6.41-2.612-6.899-6H0.069c0.493,3.945,3.852,7,7.931,7
		c3.023,0,5.639-1.687,6.998-4.161v3.659c0,0.276,0.225,0.5,0.502,0.5c0.275,0,0.5-0.224,0.5-0.5v-4.958
		c0-0.014,0.008-0.025,0.008-0.039C16.008,10.475,15.992,10.457,15.988,10.434z"/>
</g>
<g id="Layer_1">
</g>
</svg>
