<?xml version="1.0" encoding="iso-8859-1"?>
<!-- Generator: Adobe Illustrator 16.0.0, SVG Export Plug-In . SVG Version: 6.00 Build 0)  -->
<!DOCTYPE svg PUBLIC "-//W3C//DTD SVG 1.1//EN" "http://www.w3.org/Graphics/SVG/1.1/DTD/svg11.dtd">
<svg version="1.1" xmlns="http://www.w3.org/2000/svg" xmlns:xlink="http://www.w3.org/1999/xlink" x="0px" y="0px" width="16px"
	 height="16px" viewBox="0 0 16 16" style="enable-background:new 0 0 16 16;" xml:space="preserve">
<g id="_x33_-interface_-_arrow_left" style="enable-background:new    ;">
	<path d="M14.5,7.984H2.775L7.357,3.83c0.19-0.19,0.19-0.498,0-0.689c-0.191-0.189-0.5-0.189-0.69,0c0,0-5.46,4.957-5.468,4.963
		C1.182,8.117,1.158,8.111,1.143,8.127C1.124,8.146,1.129,8.175,1.114,8.195C1.057,8.268,1.017,8.351,1.009,8.448
		c0,0.01-0.008,0.018-0.007,0.028C1.002,8.479,1,8.48,1,8.483s0.001,0.005,0.001,0.008c0,0.006,0.003,0.011,0.003,0.017
		c0.006,0.119,0.053,0.225,0.128,0.308c0.006,0.007,0.003,0.018,0.01,0.024C1.149,8.846,1.16,8.844,1.167,8.85
		c0.006,0.006,0.018,0.004,0.024,0.01l5.476,4.966c0.19,0.19,0.5,0.19,0.69,0c0.19-0.19,0.19-0.498,0-0.688L2.775,8.981H14.5
		c0.275,0,0.5-0.223,0.5-0.498S14.775,7.984,14.5,7.984z"/>
</g>
<g id="Layer_1">
</g>
</svg>
