<?xml version="1.0" encoding="iso-8859-1"?>
<!-- Generator: Adobe Illustrator 16.0.0, SVG Export Plug-In . SVG Version: 6.00 Build 0)  -->
<!DOCTYPE svg PUBLIC "-//W3C//DTD SVG 1.1//EN" "http://www.w3.org/Graphics/SVG/1.1/DTD/svg11.dtd">
<svg version="1.1" xmlns="http://www.w3.org/2000/svg" xmlns:xlink="http://www.w3.org/1999/xlink" x="0px" y="0px" width="16px"
	 height="16px" viewBox="0 0 16 16" style="enable-background:new 0 0 16 16;" xml:space="preserve">
<g id="_x31_02-interface_-__sidebar_hamburger" style="enable-background:new    ;">
	<path d="M4.5,5.999c-0.276,0-0.5,0.224-0.5,0.5v3c0,0.275,0.224,0.5,0.5,0.5c0.276,0,0.5-0.225,0.5-0.5v-3
		C5,6.223,4.776,5.999,4.5,5.999z M7.5,4.999c-0.276,0-0.5,0.224-0.5,0.5v5c0,0.276,0.224,0.5,0.5,0.5c0.276,0,0.5-0.224,0.5-0.5v-5
		C8,5.223,7.776,4.999,7.5,4.999z M10.5,3.999c-0.275,0-0.5,0.224-0.5,0.5v7c0,0.276,0.225,0.5,0.5,0.5s0.5-0.224,0.5-0.5v-7
		C11,4.223,10.775,3.999,10.5,3.999z M14-0.001H2c-1.104,0-2,0.896-2,2v11.999c0,1.105,0.896,2.001,2,2.001h12
		c1.105,0,2-0.896,2-2.001V1.999C16,0.895,15.105-0.001,14-0.001z M15,13.998c0,0.553-0.447,1.001-1,1.001H2
		c-0.552,0-1-0.448-1-1.001V1.999c0-0.552,0.448-1,1-1h12c0.553,0,1,0.448,1,1V13.998z"/>
</g>
<g id="Layer_1">
</g>
</svg>
