<?xml version="1.0" encoding="iso-8859-1"?>
<!-- Generator: Adobe Illustrator 16.0.0, SVG Export Plug-In . SVG Version: 6.00 Build 0)  -->
<!DOCTYPE svg PUBLIC "-//W3C//DTD SVG 1.1//EN" "http://www.w3.org/Graphics/SVG/1.1/DTD/svg11.dtd">
<svg version="1.1" xmlns="http://www.w3.org/2000/svg" xmlns:xlink="http://www.w3.org/1999/xlink" x="0px" y="0px" width="16px"
	 height="16px" viewBox="0 0 16 16" style="enable-background:new 0 0 16 16;" xml:space="preserve">
<g id="_x31_2-interface_-_support_help_life_safer" style="enable-background:new    ;">
	<path style="fill-rule:evenodd;clip-rule:evenodd;" d="M8,0C3.582,0,0,3.582,0,8s3.582,8,8,8c4.417,0,8-3.582,8-8S12.418,0,8,0z
		 M8,1c1.626,0,3.119,0.56,4.306,1.49L10.35,4.776C9.689,4.293,8.881,4,8,4C7.119,4,6.312,4.293,5.65,4.776L3.692,2.49
		C4.881,1.56,6.374,1,8,1z M11,8c0,1.656-1.344,3-3,3c-1.657,0-3-1.344-3-3c0-1.657,1.343-3,3-3C9.656,5,11,6.343,11,8z M1,8
		c0-1.878,0.743-3.579,1.947-4.836l1.977,2.308C4.355,6.163,4,7.036,4,8c0,1.103,0.447,2.102,1.169,2.825l-1.95,2.277
		C1.856,11.825,1,10.015,1,8z M8,15c-1.49,0-2.868-0.469-4.003-1.262l1.976-2.308C6.57,11.784,7.257,12,8,12
		s1.431-0.216,2.027-0.569l1.975,2.308C10.867,14.531,9.49,15,8,15z M12.781,13.103l-1.949-2.277C11.553,10.102,12,9.104,12,8
		c0-0.965-0.355-1.837-0.924-2.528l1.977-2.308C14.258,4.421,15,6.122,15,8C15,10.015,14.145,11.826,12.781,13.103z"/>
</g>
<g id="Layer_1">
</g>
</svg>
