<?xml version="1.0" encoding="iso-8859-1"?>
<!-- Generator: Adobe Illustrator 16.0.0, SVG Export Plug-In . SVG Version: 6.00 Build 0)  -->
<!DOCTYPE svg PUBLIC "-//W3C//DTD SVG 1.1//EN" "http://www.w3.org/Graphics/SVG/1.1/DTD/svg11.dtd">
<svg version="1.1" xmlns="http://www.w3.org/2000/svg" xmlns:xlink="http://www.w3.org/1999/xlink" x="0px" y="0px" width="16px"
	 height="16px" viewBox="0 0 16 16" style="enable-background:new 0 0 16 16;" xml:space="preserve">
<g id="_x37_2-interface_-_fullscreen" style="enable-background:new    ;">
	<path d="M0,2v3.999h1V2c0-0.554,0.448-1.001,1-1.001h4v-1H2C0.896-0.001,0,0.895,0,2z M1,13.999v-4H0v4c0,1.104,0.896,2,2,2h4v-1H2
		C1.448,14.999,1,14.551,1,13.999z M15,13.999c0,0.552-0.447,1-1,1h-4v1h4c1.105,0,2-0.896,2-2v-4h-1V13.999z M14-0.001h-4v1h4
		c0.553,0,1,0.447,1,1.001v3.999h1V2C16,0.895,15.105-0.001,14-0.001z"/>
</g>
<g id="Layer_1">
</g>
</svg>
