<?xml version="1.0" encoding="iso-8859-1"?>
<!-- Generator: Adobe Illustrator 16.0.0, SVG Export Plug-In . SVG Version: 6.00 Build 0)  -->
<!DOCTYPE svg PUBLIC "-//W3C//DTD SVG 1.1//EN" "http://www.w3.org/Graphics/SVG/1.1/DTD/svg11.dtd">
<svg version="1.1" xmlns="http://www.w3.org/2000/svg" xmlns:xlink="http://www.w3.org/1999/xlink" x="0px" y="0px" width="16px"
	 height="16px" viewBox="0 0 16 16" style="enable-background:new 0 0 16 16;" xml:space="preserve">
<g id="_x33_8-interface_-_crop" style="enable-background:new    ;">
	<path d="M15.5,12.998H14V2.999c0-0.143-0.061-0.402-0.156-0.622l0.502-0.525c0.197-0.196,0.197-0.517,0-0.714s-0.516-0.197-0.713,0
		l-0.824,0.861H3v-1.5c0-0.276-0.224-0.5-0.5-0.5c-0.276,0-0.5,0.224-0.5,0.5v1.5H0.5c-0.276,0-0.5,0.224-0.5,0.5
		c0,0.275,0.224,0.5,0.5,0.5H2v10.494v0.006c0,0.275,0.224,0.499,0.5,0.499h0.004h0H13v1.5c0,0.276,0.225,0.501,0.5,0.501
		s0.5-0.225,0.5-0.501v-1.5h1.5c0.275,0,0.5-0.224,0.5-0.499C16,13.223,15.775,12.998,15.5,12.998z M3,2.999h8.852L3,12.246V2.999z
		 M13,12.998H3.676L13,3.258V12.998z"/>
</g>
<g id="Layer_1">
</g>
</svg>
