<?xml version="1.0" encoding="iso-8859-1"?>
<!-- Generator: Adobe Illustrator 16.0.0, SVG Export Plug-In . SVG Version: 6.00 Build 0)  -->
<!DOCTYPE svg PUBLIC "-//W3C//DTD SVG 1.1//EN" "http://www.w3.org/Graphics/SVG/1.1/DTD/svg11.dtd">
<svg version="1.1" xmlns="http://www.w3.org/2000/svg" xmlns:xlink="http://www.w3.org/1999/xlink" x="0px" y="0px" width="16px"
	 height="16px" viewBox="0 0 16 16" style="enable-background:new 0 0 16 16;" xml:space="preserve">
<g id="_x38_4-interface_-_download_cloud" style="enable-background:new    ;">
	<path d="M11.166,11.985L9,14.222V7.192c0-0.285-0.224-0.517-0.5-0.517C8.224,6.676,8,6.907,8,7.192v7.029l-2.167-2.236
		c-0.19-0.197-0.5-0.197-0.69,0c-0.19,0.196-0.19,0.516,0,0.712l2.983,3.079c0.004,0.005,0.003,0.014,0.008,0.019
		c0.006,0.007,0.003,0.018,0.01,0.024c0.006,0.006,0.016,0.003,0.022,0.01c0.083,0.078,0.19,0.126,0.311,0.133
		c0.006,0,0.01,0.003,0.016,0.003c0.003,0,0.006,0.002,0.008,0.002c0.003,0,0.005-0.002,0.008-0.002
		c0.009,0,0.015-0.006,0.023-0.006c0.101-0.008,0.187-0.051,0.261-0.112c0.021-0.015,0.048-0.009,0.065-0.027
		c0.013-0.013,0.008-0.032,0.019-0.046c0.004-0.005,0.01-0.007,0.013-0.012l2.969-3.064c0.191-0.196,0.191-0.516,0-0.712
		C11.666,11.788,11.357,11.788,11.166,11.985z M12.26,4.212C11.672,2.352,9.998,0.999,8,0.999c-2.174,0-3.988,1.591-4.408,3.707
		C1.542,5.14,0,7.013,0,9.257c0,2.389,1.753,4.333,4,4.594v-1.033c-1.694-0.252-3-1.742-3-3.561c0-1.995,1.567-3.612,3.5-3.612
		c0-1.996,1.567-3.613,3.5-3.613c1.77,0,3.215,1.358,3.451,3.118C13.428,5.259,15,6.933,15,8.999c0,1.481-0.814,2.75-2,3.396v1.154
		c1.756-0.721,3-2.481,3-4.55C16,6.649,14.396,4.69,12.26,4.212z"/>
</g>
<g id="Layer_1">
</g>
</svg>
