<?xml version="1.0" encoding="iso-8859-1"?>
<!-- Generator: Adobe Illustrator 16.0.0, SVG Export Plug-In . SVG Version: 6.00 Build 0)  -->
<!DOCTYPE svg PUBLIC "-//W3C//DTD SVG 1.1//EN" "http://www.w3.org/Graphics/SVG/1.1/DTD/svg11.dtd">
<svg version="1.1" xmlns="http://www.w3.org/2000/svg" xmlns:xlink="http://www.w3.org/1999/xlink" x="0px" y="0px" width="16px"
	 height="16px" viewBox="0 0 16 16" style="enable-background:new 0 0 16 16;" xml:space="preserve">
<g id="_x31_1-interface_-_support_help_life_safer" style="enable-background:new    ;">
	<path d="M8-0.001c-4.418,0-8,3.582-8,8s3.582,8,8,8c4.418,0,8-3.582,8-8S12.418-0.001,8-0.001z M10,1.324
		C12.248,1.998,14.014,3.759,14.689,6h-3.236C11.102,5.402,10.602,4.903,10,4.554V1.324z M11,7.999c0,1.657-1.344,3-3,3
		c-1.657,0-3-1.343-3-3s1.343-3,3-3C9.656,4.999,11,6.342,11,7.999z M7,1.1c0.329-0.048,0.657-0.101,1-0.101
		c0.342,0,0.67,0.053,1,0.101v3.041C8.678,4.057,8.347,3.999,8,3.999c-0.348,0-0.679,0.058-1,0.142V1.1z M6,1.324v3.229
		C5.399,4.903,4.897,5.402,4.546,6H1.31C1.986,3.759,3.752,1.998,6,1.324z M1,7.999c0-0.341,0.036-0.673,0.083-1h3.053
		C4.052,7.318,4,7.651,4,7.999c0,0.347,0.052,0.681,0.136,1H1.083C1.036,8.672,1,8.34,1,7.999z M6,14.674
		C3.752,14,1.987,12.239,1.31,9.999h3.236C4.898,10.596,5.399,11.095,6,11.444V14.674z M9,14.898c-0.329,0.048-0.657,0.101-1,0.101
		c-0.343,0-0.671-0.053-1-0.101v-3.041c0.321,0.084,0.652,0.142,1,0.142c0.347,0,0.678-0.058,1-0.142V14.898z M10,14.674v-3.229
		c0.6-0.35,1.102-0.849,1.453-1.445h3.236C14.014,12.239,12.248,14,10,14.674z M11.863,8.999C11.947,8.68,12,8.346,12,7.999
		c0-0.348-0.053-0.681-0.137-1h3.053C14.965,7.326,15,7.658,15,7.999s-0.035,0.673-0.084,1H11.863z"/>
</g>
<g id="Layer_1">
</g>
</svg>
