<?xml version="1.0" encoding="iso-8859-1"?>
<!-- Generator: Adobe Illustrator 16.0.0, SVG Export Plug-In . SVG Version: 6.00 Build 0)  -->
<!DOCTYPE svg PUBLIC "-//W3C//DTD SVG 1.1//EN" "http://www.w3.org/Graphics/SVG/1.1/DTD/svg11.dtd">
<svg version="1.1" xmlns="http://www.w3.org/2000/svg" xmlns:xlink="http://www.w3.org/1999/xlink" x="0px" y="0px" width="16px"
	 height="16px" viewBox="0 0 16 16" style="enable-background:new 0 0 16 16;" xml:space="preserve">
<g id="_x36_7-interface_-_2_arrows_enlarge" style="enable-background:new    ;">
	<path d="M6.143,9.124l-5.145,5.145v-3.79c0-0.275-0.224-0.499-0.499-0.499C0.223,9.979,0,10.203,0,10.479v4.99
		c0,0.008,0.004,0.014,0.004,0.021c0.005,0.121,0.053,0.23,0.13,0.313c0.005,0.006,0.003,0.016,0.009,0.021s0.015,0.003,0.021,0.009
		c0.083,0.076,0.193,0.124,0.314,0.13c0.007,0,0.013,0.004,0.021,0.004h0h4.99c0.275,0,0.499-0.224,0.499-0.499
		S5.765,14.97,5.489,14.97H1.699l5.145-5.145c0.193-0.193,0.193-0.507,0-0.701C6.65,8.932,6.336,8.932,6.143,9.124z M15.965,0.478
		c-0.006-0.122-0.053-0.23-0.131-0.314c-0.006-0.006-0.002-0.016-0.008-0.021s-0.016-0.003-0.021-0.009
		c-0.084-0.076-0.191-0.124-0.313-0.129c-0.008-0.001-0.014-0.005-0.023-0.005h-4.99c-0.275,0-0.498,0.224-0.498,0.499
		s0.223,0.499,0.498,0.499h3.791L9.125,6.142c-0.193,0.193-0.193,0.508,0,0.701c0.193,0.193,0.508,0.193,0.701,0l5.145-5.145v3.79
		c0,0.275,0.223,0.499,0.5,0.499c0.275,0,0.498-0.224,0.498-0.499v-4.99C15.969,0.49,15.965,0.484,15.965,0.478z"/>
</g>
<g id="Layer_1">
</g>
</svg>
