<?xml version="1.0" encoding="iso-8859-1"?>
<!-- Generator: Adobe Illustrator 16.0.0, SVG Export Plug-In . SVG Version: 6.00 Build 0)  -->
<!DOCTYPE svg PUBLIC "-//W3C//DTD SVG 1.1//EN" "http://www.w3.org/Graphics/SVG/1.1/DTD/svg11.dtd">
<svg version="1.1" xmlns="http://www.w3.org/2000/svg" xmlns:xlink="http://www.w3.org/1999/xlink" x="0px" y="0px" width="16px"
	 height="16px" viewBox="0 0 16 16" style="enable-background:new 0 0 16 16;" xml:space="preserve">
<g id="_x38_1-interface_-_branches_store_location" style="enable-background:new    ;">
	<path d="M13.098,2.998c0.289,0.403,0.518,0.85,0.68,1.332c0.744,0.486,1.252,1.404,1.252,2.469c0,1.571-2.441,5.688-2.441,5.688
		s-0.268-0.452-0.623-1.108c-0.154,0.281-0.309,0.559-0.463,0.831c0.6,1.042,1.08,1.79,1.08,1.79S16,8.668,16,6.634
		C16,4.79,14.74,3.268,13.098,2.998z M8,0.999c-2.762,0-5,2.239-5,5c0,2.762,5,10,5,10s5-7.238,5-10C13,3.238,10.762,0.999,8,0.999z
		 M4,6.166c0-2.301,1.791-4.167,4-4.167s4,1.866,4,4.167s-4,8.333-4,8.333S4,8.467,4,6.166z M3.412,12.486
		c0,0-2.442-4.116-2.442-5.688c0-1.064,0.509-1.982,1.253-2.469c0.161-0.482,0.392-0.929,0.679-1.332C1.259,3.268,0,4.79,0,6.634
		c0,2.034,3.418,7.365,3.418,7.365s0.479-0.748,1.08-1.79c-0.155-0.272-0.309-0.55-0.463-0.831
		C3.679,12.034,3.412,12.486,3.412,12.486z M8,3.999C6.896,3.999,6,4.895,6,6c0,1.104,0.896,2,2,2c1.105,0,2-0.896,2-2
		C10,4.895,9.105,3.999,8,3.999z M8,6.999C7.448,6.999,7,6.552,7,6c0-0.553,0.448-1,1-1s1,0.447,1,1C9,6.552,8.552,6.999,8,6.999z"
		/>
</g>
<g id="Layer_1">
</g>
</svg>
