<?xml version="1.0" encoding="iso-8859-1"?>
<!-- Generator: Adobe Illustrator 16.0.0, SVG Export Plug-In . SVG Version: 6.00 Build 0)  -->
<!DOCTYPE svg PUBLIC "-//W3C//DTD SVG 1.1//EN" "http://www.w3.org/Graphics/SVG/1.1/DTD/svg11.dtd">
<svg version="1.1" xmlns="http://www.w3.org/2000/svg" xmlns:xlink="http://www.w3.org/1999/xlink" x="0px" y="0px" width="16px"
	 height="16px" viewBox="0 0 16 16" style="enable-background:new 0 0 16 16;" xml:space="preserve">
<g id="_x38_7-interface_-_repeat_return_reverse" style="enable-background:new    ;">
	<path d="M15.811,8.146c-0.213-0.222-0.559-0.223-0.773-0.002L12,11.159V1c0-0.553-0.465-1-1.037-1H1.032
		C0.459,0-0.005,0.447-0.005,1v14c0,0.552,0.464,1,1.037,1h7.943v-1H1.472c-0.264,0-0.479-0.224-0.479-0.501V1.5
		c0-0.276,0.214-0.5,0.479-0.5h9.052c0.264,0,0.479,0.224,0.479,0.5l-0.006,9.708L7.919,8.149C7.705,7.929,7.356,7.928,7.141,8.146
		c-0.216,0.22-0.217,0.575-0.002,0.796L11.02,12.8c0.125,0.129,0.293,0.174,0.457,0.153c0.16,0.021,0.326-0.024,0.449-0.151
		l3.883-3.854C16.023,8.728,16.023,8.368,15.811,8.146z"/>
</g>
<g id="Layer_1">
</g>
</svg>
