<?xml version="1.0" encoding="iso-8859-1"?>
<!-- Generator: Adobe Illustrator 16.0.0, SVG Export Plug-In . SVG Version: 6.00 Build 0)  -->
<!DOCTYPE svg PUBLIC "-//W3C//DTD SVG 1.1//EN" "http://www.w3.org/Graphics/SVG/1.1/DTD/svg11.dtd">
<svg version="1.1" xmlns="http://www.w3.org/2000/svg" xmlns:xlink="http://www.w3.org/1999/xlink" x="0px" y="0px" width="16px"
	 height="16px" viewBox="0 0 16 16" style="enable-background:new 0 0 16 16;" xml:space="preserve">
<g id="_x31_35-interface_-_cross_delete" style="enable-background:new    ;">
	<path d="M10.816,7.991l3.887-3.885c0.389-0.39,0.389-1.022,0-1.413l-1.414-1.412c-0.389-0.391-1.021-0.391-1.412,0L7.992,5.166
		L4.107,1.281c-0.39-0.391-1.022-0.391-1.413,0L1.282,2.693c-0.39,0.391-0.39,1.023,0,1.413l3.885,3.885l-3.885,3.885
		c-0.39,0.39-0.39,1.022,0,1.412l1.413,1.413c0.39,0.391,1.022,0.391,1.413,0l3.885-3.885l3.885,3.885
		c0.391,0.391,1.023,0.391,1.412,0l1.414-1.413c0.389-0.39,0.389-1.022,0-1.412L10.816,7.991z M13.643,12.936l-0.707,0.706
		c-0.193,0.195-0.51,0.195-0.705,0L7.992,9.404l-4.238,4.237c-0.195,0.195-0.511,0.195-0.707,0l-0.706-0.706
		c-0.195-0.195-0.195-0.511,0-0.706L6.58,7.991L2.342,3.753c-0.195-0.194-0.195-0.511,0-0.706l0.706-0.706
		c0.195-0.195,0.511-0.195,0.707,0l4.238,4.237l4.238-4.237c0.195-0.195,0.512-0.195,0.705,0l0.707,0.706
		c0.195,0.195,0.195,0.512,0,0.706L9.404,7.991l4.238,4.238C13.838,12.425,13.838,12.74,13.643,12.936z"/>
</g>
<g id="Layer_1">
</g>
</svg>
