<?xml version="1.0" encoding="iso-8859-1"?>
<!-- Generator: Adobe Illustrator 16.0.0, SVG Export Plug-In . SVG Version: 6.00 Build 0)  -->
<!DOCTYPE svg PUBLIC "-//W3C//DTD SVG 1.1//EN" "http://www.w3.org/Graphics/SVG/1.1/DTD/svg11.dtd">
<svg version="1.1" xmlns="http://www.w3.org/2000/svg" xmlns:xlink="http://www.w3.org/1999/xlink" x="0px" y="0px" width="16px"
	 height="16px" viewBox="0 0 16 16" style="enable-background:new 0 0 16 16;" xml:space="preserve">
<g id="_x34_0-interface_-_3_dots_more" style="enable-background:new    ;">
	<path d="M2,5.999c-1.104,0-2,0.896-2,1.999c0,1.105,0.896,2.001,2,2.001s2-0.896,2-2.001C4,6.895,3.104,5.999,2,5.999z M2,8.999
		c-0.552,0-1-0.447-1-1.001c0-0.552,0.448-0.999,1-0.999s1,0.447,1,0.999C3,8.552,2.552,8.999,2,8.999z M8,5.999
		c-1.104,0-2,0.896-2,1.999c0,1.105,0.896,2.001,2,2.001c1.104,0,2-0.896,2-2.001C10,6.895,9.104,5.999,8,5.999z M8,8.999
		c-0.552,0-1-0.447-1-1.001c0-0.552,0.448-0.999,1-0.999s1,0.447,1,0.999C9,8.552,8.552,8.999,8,8.999z M14,5.999
		c-1.105,0-2,0.896-2,1.999c0,1.105,0.895,2.001,2,2.001c1.104,0,2-0.896,2-2.001C16,6.895,15.104,5.999,14,5.999z M14,8.999
		c-0.553,0-1-0.447-1-1.001c0-0.552,0.447-0.999,1-0.999s1,0.447,1,0.999C15,8.552,14.553,8.999,14,8.999z"/>
</g>
<g id="Layer_1">
</g>
</svg>
