<?xml version="1.0" encoding="iso-8859-1"?>
<!-- Generator: Adobe Illustrator 16.0.0, SVG Export Plug-In . SVG Version: 6.00 Build 0)  -->
<!DOCTYPE svg PUBLIC "-//W3C//DTD SVG 1.1//EN" "http://www.w3.org/Graphics/SVG/1.1/DTD/svg11.dtd">
<svg version="1.1" xmlns="http://www.w3.org/2000/svg" xmlns:xlink="http://www.w3.org/1999/xlink" x="0px" y="0px" width="16px"
	 height="16px" viewBox="0 0 16 16" style="enable-background:new 0 0 16 16;" xml:space="preserve">
<g id="_x31_09-interface_-__tick_done" style="enable-background:new    ;">
	<path d="M12.098,5.146L7.75,10.809L4.952,8.149c-0.218-0.201-0.571-0.201-0.789,0c-0.218,0.202-0.218,0.529,0,0.73
		c0,0,3.208,2.955,3.229,2.976c0.099,0.1,0.229,0.145,0.357,0.141C7.879,12,8.008,11.955,8.107,11.855
		c0.021-0.021,4.739-5.992,4.739-5.992c0.207-0.197,0.207-0.519,0-0.717C12.639,4.949,12.305,4.949,12.098,5.146z M14,0.998H3
		c-1.104,0-2,0.896-2,2.001v10.999c0,1.105,0.896,2.001,2,2.001h11c1.105,0,2-0.896,2-2.001V2.999C16,1.895,15.105,0.998,14,0.998z
		 M15,13.998c0,0.553-0.447,1.001-1,1.001H3c-0.552,0-1-0.448-1-1.001V2.999c0-0.552,0.448-1,1-1h11c0.553,0,1,0.448,1,1V13.998z"/>
</g>
<g id="Layer_1">
</g>
</svg>
