<?xml version="1.0" encoding="iso-8859-1"?>
<!-- Generator: Adobe Illustrator 16.0.0, SVG Export Plug-In . SVG Version: 6.00 Build 0)  -->
<!DOCTYPE svg PUBLIC "-//W3C//DTD SVG 1.1//EN" "http://www.w3.org/Graphics/SVG/1.1/DTD/svg11.dtd">
<svg version="1.1" xmlns="http://www.w3.org/2000/svg" xmlns:xlink="http://www.w3.org/1999/xlink" x="0px" y="0px" width="16px"
	 height="16px" viewBox="0 0 16 16" style="enable-background:new 0 0 16 16;" xml:space="preserve">
<g id="_x39_3-interface_-_backspace_back_arrow" style="enable-background:new    ;">
	<path d="M7.145,10.338c0.204,0.204,0.535,0.204,0.739,0L9,9.222l1.118,1.116c0.203,0.204,0.533,0.204,0.738,0
		c0.203-0.204,0.203-0.534,0-0.739L9.738,8.482l1.102-1.1c0.203-0.204,0.203-0.535,0-0.739c-0.205-0.204-0.535-0.204-0.74,0L9,7.744
		L7.9,6.644c-0.204-0.204-0.535-0.204-0.739,0s-0.204,0.535,0,0.739l1.1,1.1L7.145,9.599C6.94,9.804,6.94,10.134,7.145,10.338z
		 M15.5,2.999H4c0,0-4,4.5-4,5.5s4,5.5,4,5.5h11.5c0.275,0,0.5-0.224,0.5-0.5v-10C16,3.223,15.775,2.999,15.5,2.999z M15,12.999
		c0,0-10,0-10.5,0S1,8.499,1,8.499s3-4.5,3.5-4.5s10.5,0,10.5,0V12.999z"/>
</g>
<g id="Layer_1">
</g>
</svg>
