<?xml version="1.0" encoding="iso-8859-1"?>
<!-- Generator: Adobe Illustrator 16.0.0, SVG Export Plug-In . SVG Version: 6.00 Build 0)  -->
<!DOCTYPE svg PUBLIC "-//W3C//DTD SVG 1.1//EN" "http://www.w3.org/Graphics/SVG/1.1/DTD/svg11.dtd">
<svg version="1.1" xmlns="http://www.w3.org/2000/svg" xmlns:xlink="http://www.w3.org/1999/xlink" x="0px" y="0px" width="16px"
	 height="16px" viewBox="0 0 16 16" style="enable-background:new 0 0 16 16;" xml:space="preserve">
<g id="_x34_2-interface_-_arrow_right" style="enable-background:new    ;">
	<path d="M15.82,6.25L9.336,1.103C9.186,0.984,8.98,0.961,8.805,1.041C8.631,1.121,8.52,1.291,8.52,1.478L8.504,4.192
		C5.599,4.282,3.348,5.186,1.89,6.838c-2.374,2.688-1.844,6.593-1.819,6.755c0.037,0.237,0.217,0.411,0.463,0.411
		c0.005,0,0.011,0,0.017,0c0.253-0.008,0.413-0.198,0.434-0.441c0.017-0.18,0.515-4.521,7.52-4.517l0.016,2.776
		c0,0.187,0.111,0.357,0.286,0.438c0.174,0.08,0.381,0.056,0.532-0.063l6.482-5.197c0.117-0.092,0.184-0.229,0.184-0.375
		C16.004,6.479,15.936,6.342,15.82,6.25z M9.52,10.798V8.555c0-0.128-0.053-0.252-0.146-0.343C9.279,8.122,9.152,8.071,9.02,8.071
		l0,0c-5.004,0.003-6.916,1.637-8.008,3.081c0.16-1.157,0.626-2.551,1.641-3.689C4.001,5.95,6.175,5.152,9.02,5.152
		c0.277,0,0.5-0.217,0.5-0.483V2.495l5.195,4.132L9.52,10.798z"/>
</g>
<g id="Layer_1">
</g>
</svg>
