<?xml version="1.0" encoding="iso-8859-1"?>
<!-- Generator: Adobe Illustrator 16.0.0, SVG Export Plug-In . SVG Version: 6.00 Build 0)  -->
<!DOCTYPE svg PUBLIC "-//W3C//DTD SVG 1.1//EN" "http://www.w3.org/Graphics/SVG/1.1/DTD/svg11.dtd">
<svg version="1.1" xmlns="http://www.w3.org/2000/svg" xmlns:xlink="http://www.w3.org/1999/xlink" x="0px" y="0px" width="16px"
	 height="16px" viewBox="0 0 16 16" style="enable-background:new 0 0 16 16;" xml:space="preserve">
<g id="_x39_1-interface_-_window" style="enable-background:new    ;">
	<path d="M13.5,1.999h-13c-0.276,0-0.5,0.224-0.5,0.5v13c0,0.275,0.224,0.5,0.5,0.5h13c0.275,0,0.5-0.225,0.5-0.5v-13
		C14,2.223,13.775,1.999,13.5,1.999z M13,14.499c0,0.276-0.225,0.5-0.5,0.5h-11c-0.276,0-0.5-0.224-0.5-0.5v-11
		c0-0.276,0.224-0.5,0.5-0.5h11c0.275,0,0.5,0.224,0.5,0.5V14.499z M15.5-0.001h-13c-0.276,0-0.5,0.224-0.5,0.5s0.224,0.5,0.5,0.5
		H15v12.5c0,0.276,0.225,0.5,0.5,0.5s0.5-0.224,0.5-0.5v-13C16,0.223,15.775-0.001,15.5-0.001z"/>
</g>
<g id="Layer_1">
</g>
</svg>
