<?xml version="1.0" encoding="iso-8859-1"?>
<!-- Generator: Adobe Illustrator 16.0.0, SVG Export Plug-In . SVG Version: 6.00 Build 0)  -->
<!DOCTYPE svg PUBLIC "-//W3C//DTD SVG 1.1//EN" "http://www.w3.org/Graphics/SVG/1.1/DTD/svg11.dtd">
<svg version="1.1" xmlns="http://www.w3.org/2000/svg" xmlns:xlink="http://www.w3.org/1999/xlink" x="0px" y="0px" width="16px"
	 height="16px" viewBox="0 0 16 16" style="enable-background:new 0 0 16 16;" xml:space="preserve">
<g id="_x35_7-interface_-_favorite_star" style="enable-background:new    ;">
	<path d="M15.969,5.999c0-0.008-0.004-0.014-0.004-0.021c-0.006-0.123-0.053-0.232-0.131-0.316c-0.006-0.006-0.004-0.015-0.008-0.02
		c-0.006-0.005-0.014-0.003-0.02-0.008c-0.084-0.078-0.193-0.127-0.316-0.132c-0.008,0-0.014-0.004-0.02-0.004h-4.209L8.417,0.237
		c-0.005-0.009-0.015-0.014-0.02-0.022C8.378,0.188,8.355,0.167,8.332,0.144C8.307,0.12,8.284,0.097,8.256,0.079
		C8.248,0.073,8.243,0.064,8.234,0.06C8.215,0.05,8.195,0.049,8.176,0.041C8.144,0.027,8.113,0.016,8.079,0.009
		C8.046,0.003,8.016,0.003,7.984,0.003s-0.062,0-0.094,0.006C7.856,0.016,7.825,0.027,7.792,0.041
		C7.773,0.049,7.753,0.05,7.735,0.06c-0.009,0.005-0.014,0.014-0.022,0.02C7.685,0.097,7.662,0.12,7.638,0.144
		C7.614,0.166,7.59,0.188,7.572,0.216c-0.006,0.008-0.015,0.013-0.02,0.021L4.708,5.499H0.499h0c-0.007,0-0.013,0.004-0.02,0.004
		C0.356,5.508,0.246,5.557,0.162,5.635C0.156,5.64,0.148,5.638,0.143,5.643C0.138,5.647,0.14,5.656,0.135,5.662
		c-0.077,0.084-0.125,0.193-0.13,0.316C0.004,5.985,0,5.991,0,5.999c0,0.144,0.063,0.271,0.16,0.362l3.754,3.762l-1.411,5.228
		c-0.013,0.046-0.009,0.092-0.009,0.137c0,0.013-0.002,0.022-0.002,0.034c0.009,0.118,0.06,0.224,0.14,0.309
		c0.005,0.005,0.003,0.013,0.008,0.017c0.003,0.003,0.008,0.002,0.011,0.005c0.061,0.058,0.131,0.106,0.219,0.13
		c0.046,0.012,0.091,0.009,0.137,0.009c0,0,0.001,0,0.001,0c0.125-0.001,0.238-0.046,0.33-0.125c0.01-0.008,0.025-0.004,0.035-0.013
		l4.611-3.281l4.611,3.281c0.01,0.009,0.025,0.005,0.035,0.013c0.092,0.079,0.205,0.124,0.33,0.125l0,0
		c0.047,0,0.092,0.003,0.137-0.009c0.088-0.023,0.158-0.072,0.219-0.13c0.004-0.003,0.008-0.002,0.012-0.005
		c0.006-0.004,0.002-0.012,0.008-0.017c0.08-0.085,0.131-0.19,0.141-0.309c0-0.012-0.002-0.021-0.004-0.034
		c0.002-0.045,0.004-0.091-0.008-0.137l-1.41-5.228l3.754-3.762C15.906,6.271,15.969,6.143,15.969,5.999z M11.121,9.653
		c-0.004,0.005-0.002,0.012-0.006,0.017C11.031,9.761,10.98,9.875,10.979,10c0,0.004,0,0.006,0,0.01
		c0,0.046-0.004,0.091,0.008,0.138l1.121,4.149l-3.728-2.651c-0.108-0.101-0.252-0.136-0.395-0.126
		c-0.143-0.01-0.287,0.025-0.395,0.126l-3.728,2.651l1.12-4.149c0.013-0.047,0.009-0.092,0.009-0.138c0-0.004,0-0.006,0-0.01
		C4.987,9.875,4.938,9.761,4.854,9.67C4.85,9.665,4.852,9.658,4.847,9.653L1.699,6.499H4.99c0.031,0,0.058-0.013,0.087-0.018
		c0.025-0.005,0.044-0.006,0.068-0.014c0.1-0.033,0.181-0.097,0.242-0.181c0.009-0.013,0.027-0.013,0.035-0.026l2.562-4.739
		l2.563,4.739c0.008,0.014,0.025,0.014,0.035,0.026c0.061,0.084,0.141,0.147,0.242,0.181c0.023,0.008,0.043,0.009,0.066,0.014
		c0.029,0.005,0.057,0.018,0.088,0.018h3.291L11.121,9.653z"/>
</g>
<g id="Layer_1">
</g>
</svg>
