<?xml version="1.0" encoding="iso-8859-1"?>
<!-- Generator: Adobe Illustrator 16.0.0, SVG Export Plug-In . SVG Version: 6.00 Build 0)  -->
<!DOCTYPE svg PUBLIC "-//W3C//DTD SVG 1.1//EN" "http://www.w3.org/Graphics/SVG/1.1/DTD/svg11.dtd">
<svg version="1.1" xmlns="http://www.w3.org/2000/svg" xmlns:xlink="http://www.w3.org/1999/xlink" x="0px" y="0px" width="16px"
	 height="16px" viewBox="0 0 16 16" style="enable-background:new 0 0 16 16;" xml:space="preserve">
<g id="_x31_-interface_-_incoming_link" style="enable-background:new    ;">
	<path d="M13.973,14.499c0,0.276-0.223,0.5-0.498,0.5H2.497c-0.275,0-0.499-0.224-0.499-0.5v-11c0-0.276,0.223-0.5,0.499-0.5h6.486
		v-1H1.998C1.447,1.999,1,2.446,1,2.999v12c0,0.552,0.447,1,0.998,1h11.975c0.551,0,0.998-0.448,0.998-1v-7h-0.998V14.499z
		 M15.822,1.135c-0.191-0.189-0.502-0.188-0.691,0.003L7.013,9.302L6.989,5.5C6.988,5.24,6.763,5.03,6.485,5.031
		c-0.277,0.001-0.5,0.213-0.5,0.473l0.031,4.988c0,0.001,0,0.002,0,0.003s0,0.002,0,0.003v0.028c0,0.112,0.049,0.212,0.12,0.292
		c0.009,0.011,0.015,0.023,0.024,0.033c0.012,0.012,0.026,0.018,0.039,0.028c0.081,0.067,0.179,0.114,0.29,0.113h0.027
		c0.001,0,0.002,0.001,0.004,0.001c0.001,0,0.002-0.001,0.003-0.001l5.013-0.031c0.26-0.001,0.471-0.226,0.469-0.502
		s-0.213-0.5-0.473-0.499l-3.82,0.023l8.113-8.158C16.016,1.635,16.016,1.325,15.822,1.135z"/>
</g>
<g id="Layer_1">
</g>
</svg>
