<?xml version="1.0" encoding="iso-8859-1"?>
<!-- Generator: Adobe Illustrator 16.0.0, SVG Export Plug-In . SVG Version: 6.00 Build 0)  -->
<!DOCTYPE svg PUBLIC "-//W3C//DTD SVG 1.1//EN" "http://www.w3.org/Graphics/SVG/1.1/DTD/svg11.dtd">
<svg version="1.1" xmlns="http://www.w3.org/2000/svg" xmlns:xlink="http://www.w3.org/1999/xlink" x="0px" y="0px" width="16px"
	 height="16px" viewBox="0 0 16 16" style="enable-background:new 0 0 16 16;" xml:space="preserve">
<g id="_x33_9-interface_-_cmd_command" style="enable-background:new    ;">
	<path style="fill-rule:evenodd;clip-rule:evenodd;" d="M13,10h-2V6h2c1.656,0,3-1.344,3-3c0-1.657-1.344-3-3-3
		c-1.658,0-3,1.343-3,3v2H6V3c0-1.657-1.344-3-3-3C1.343,0,0,1.343,0,3c0,1.656,1.343,3,3,3h2v4H3c-1.657,0-3,1.343-3,2.999
		C0,14.656,1.343,16,3,16c1.656,0,3-1.343,3-3v-2.001h4V13c0.002,1.657,1.342,3,3,3c1.656,0,3-1.344,3-3.001
		C16,11.343,14.656,10,13,10z M11,3c0-1.105,0.895-2,2-2c1.104,0,2,0.895,2,2c0,1.104-0.896,2-2,2h-2V3z M5,12.999
		C5,14.104,4.104,15,3,15s-2-0.896-2-2.001c0-1.104,0.896-2,2-2h2V12.999z M5,5H3C1.896,5,1,4.104,1,3c0-1.105,0.896-2,2-2
		s2,0.895,2,2V5z M10,10H6V6h4V10z M13,15c-1.105,0-2-0.896-2-2.001v-2h2c1.104,0,2,0.896,2,2C15,14.104,14.104,15,13,15z"/>
</g>
<g id="Layer_1">
</g>
</svg>
