<?xml version="1.0" encoding="iso-8859-1"?>
<!-- Generator: Adobe Illustrator 16.0.0, SVG Export Plug-In . SVG Version: 6.00 Build 0)  -->
<!DOCTYPE svg PUBLIC "-//W3C//DTD SVG 1.1//EN" "http://www.w3.org/Graphics/SVG/1.1/DTD/svg11.dtd">
<svg version="1.1" xmlns="http://www.w3.org/2000/svg" xmlns:xlink="http://www.w3.org/1999/xlink" x="0px" y="0px" width="16px"
	 height="16px" viewBox="0 0 16 16" style="enable-background:new 0 0 16 16;" xml:space="preserve">
<g id="_x38_6-interface_-_power" style="enable-background:new    ;">
	<path d="M8.5,6.999c0.276,0,0.5-0.224,0.5-0.5v-6c0-0.276-0.224-0.5-0.5-0.5c-0.275,0-0.5,0.224-0.5,0.5v6
		C8,6.775,8.224,6.999,8.5,6.999z M11,1.435V2.5c2.348,0.98,4,3.296,4,5.999c0,3.59-2.91,6.5-6.5,6.5c-3.589,0-6.5-2.91-6.5-6.5
		C2,5.796,3.652,3.48,6,2.5V1.435C3.089,2.466,1,5.235,1,8.499c0,4.143,3.358,7.5,7.5,7.5c4.143,0,7.5-3.357,7.5-7.5
		C16,5.235,13.91,2.466,11,1.435z"/>
</g>
<g id="Layer_1">
</g>
</svg>
