<?xml version="1.0" encoding="iso-8859-1"?>
<!-- Generator: Adobe Illustrator 16.0.0, SVG Export Plug-In . SVG Version: 6.00 Build 0)  -->
<!DOCTYPE svg PUBLIC "-//W3C//DTD SVG 1.1//EN" "http://www.w3.org/Graphics/SVG/1.1/DTD/svg11.dtd">
<svg version="1.1" xmlns="http://www.w3.org/2000/svg" xmlns:xlink="http://www.w3.org/1999/xlink" x="0px" y="0px" width="16px"
	 height="16px" viewBox="0 0 16 16" style="enable-background:new 0 0 16 16;" xml:space="preserve">
<g id="_x37_7-interface_-_open_outgoing_link" style="enable-background:new    ;">
	<path d="M6.333,3.356L8,1.689v9.81c0,0.276,0.224,0.5,0.5,0.5c0.276,0,0.5-0.224,0.5-0.5v-9.81l1.667,1.667
		c0.191,0.19,0.5,0.19,0.691,0s0.191-0.5,0-0.69c0,0-2.517-2.528-2.524-2.534C8.75,0.057,8.643,0.01,8.524,0.004
		C8.518,0.004,8.513,0,8.508,0.001C8.505,0,8.502-0.001,8.5-0.001c-0.002,0-0.004,0.002-0.007,0.002
		c-0.009,0-0.015,0.005-0.022,0.006C8.369,0.014,8.283,0.055,8.208,0.114c-0.02,0.015-2.566,2.552-2.566,2.552
		c-0.19,0.19-0.19,0.5,0,0.69C5.833,3.547,6.143,3.547,6.333,3.356z M14,3.999h-1.5v1h1c0.275,0,0.5,0.224,0.5,0.5v9
		c0,0.275-0.225,0.5-0.5,0.5h-10c-0.276,0-0.5-0.225-0.5-0.5v-9c0-0.276,0.224-0.5,0.5-0.5h1v-1H3c-0.552,0-1,0.447-1,1v10
		c0,0.552,0.448,1,1,1h11c0.553,0,1-0.448,1-1v-10C15,4.446,14.553,3.999,14,3.999z"/>
</g>
<g id="Layer_1">
</g>
</svg>
