<?xml version="1.0" encoding="iso-8859-1"?>
<!-- Generator: Adobe Illustrator 16.0.0, SVG Export Plug-In . SVG Version: 6.00 Build 0)  -->
<!DOCTYPE svg PUBLIC "-//W3C//DTD SVG 1.1//EN" "http://www.w3.org/Graphics/SVG/1.1/DTD/svg11.dtd">
<svg version="1.1" xmlns="http://www.w3.org/2000/svg" xmlns:xlink="http://www.w3.org/1999/xlink" x="0px" y="0px" width="16px"
	 height="16px" viewBox="0 0 16 16" style="enable-background:new 0 0 16 16;" xml:space="preserve">
<g id="_x33_7-interface_-_bell_notification" style="enable-background:new    ;">
	<path d="M15,12.999c0,0-2-2.447-2-4.026c0-0.323,0-0.65,0-0.974c0-0.346,0-0.682,0-1c0-0.369,0-0.708,0-1c0-0.601,0-1,0-1
		c0-2.761-2.238-5-5-5s-5,2.239-5,5c0,0,0,0.399,0,1c0,0.292,0,0.631,0,1c0,0.318,0,0.654,0,1c0,0.313,0,0.63,0,0.943
		c0,1.59-2,4.057-2,4.057h4.585C5.55,13.164,5.5,13.323,5.5,13.499c0,1.381,1.119,2.5,2.5,2.5s2.5-1.119,2.5-2.5
		c0-0.176-0.049-0.335-0.086-0.5H15z M4,4.999c0-2.209,1.791-4,4-4s4,1.791,4,4c0,0,0,0.399,0,1H4C4,5.398,4,4.999,4,4.999z
		 M4,6.999h8c0,0.318,0,0.654,0,1H4C4,7.653,4,7.317,4,6.999z M8,14.999c-0.829,0-1.5-0.671-1.5-1.5c0-0.177,0.044-0.342,0.101-0.5
		h2.797c0.057,0.158,0.102,0.323,0.102,0.5C9.5,14.328,8.829,14.999,8,14.999z M3,11.999c0,0,0.972-1.432,0.996-3h8.006
		c0.012,1.568,0.998,3,0.998,3H3z"/>
</g>
<g id="Layer_1">
</g>
</svg>
