<?xml version="1.0" encoding="iso-8859-1"?>
<!-- Generator: Adobe Illustrator 16.0.0, SVG Export Plug-In . SVG Version: 6.00 Build 0)  -->
<!DOCTYPE svg PUBLIC "-//W3C//DTD SVG 1.1//EN" "http://www.w3.org/Graphics/SVG/1.1/DTD/svg11.dtd">
<svg version="1.1" xmlns="http://www.w3.org/2000/svg" xmlns:xlink="http://www.w3.org/1999/xlink" x="0px" y="0px" width="16px"
	 height="16px" viewBox="0 0 16 16" style="enable-background:new 0 0 16 16;" xml:space="preserve">
<g id="_x38_9-interface_-_timeback_back_undo" style="enable-background:new    ;">
	<path d="M8.5,2.999c-0.275,0-0.5,0.224-0.5,0.5v5c0,0.276,0.224,0.5,0.5,0.5h4c0.275,0,0.5-0.224,0.5-0.5s-0.225-0.5-0.5-0.5H9
		v-4.5C9,3.223,8.776,2.999,8.5,2.999z M8-0.001c-3.023,0-5.639,1.686-6.999,4.161V0.501c0-0.275-0.224-0.5-0.5-0.5S0,0.226,0,0.501
		v4.958c-0.001,0.014-0.008,0.025-0.008,0.039c0,0.024,0.016,0.042,0.02,0.065C0.02,5.626,0.035,5.683,0.063,5.735
		c0.011,0.02,0.022,0.035,0.036,0.054c0.046,0.065,0.104,0.12,0.177,0.157C0.271,5.964,0.27,5.981,0.265,5.999h1.06H3h2.498
		c0.276,0,0.5-0.225,0.5-0.501s-0.224-0.501-0.5-0.501H1.7C2.826,2.64,5.213,0.999,8,0.999c3.865,0,7,3.134,7,7s-3.135,7-7,7
		c-2.376,0-4.468-1.19-5.734-3.001H1.079c1.384,2.39,3.962,4.001,6.921,4.001c4.418,0,8-3.582,8-8C16,3.58,12.418-0.001,8-0.001z"/>
</g>
<g id="Layer_1">
</g>
</svg>
