<?xml version="1.0" encoding="iso-8859-1"?>
<!-- Generator: Adobe Illustrator 16.0.0, SVG Export Plug-In . SVG Version: 6.00 Build 0)  -->
<!DOCTYPE svg PUBLIC "-//W3C//DTD SVG 1.1//EN" "http://www.w3.org/Graphics/SVG/1.1/DTD/svg11.dtd">
<svg version="1.1" xmlns="http://www.w3.org/2000/svg" xmlns:xlink="http://www.w3.org/1999/xlink" x="0px" y="0px" width="16px"
	 height="16px" viewBox="0 0 16 16" style="enable-background:new 0 0 16 16;" xml:space="preserve">
<g id="_x36_-interface_-_arrow_bottom" style="enable-background:new    ;">
	<path d="M13.826,8.624c-0.189-0.189-0.498-0.189-0.688,0l-4.156,4.572V1.498c0-0.275-0.224-0.499-0.499-0.499
		S7.986,1.223,7.986,1.498v11.697L3.831,8.624c-0.19-0.189-0.498-0.189-0.688,0c-0.19,0.19-0.19,0.499,0,0.689l4.941,5.437
		c0.006,0.008,0.016,0.012,0.021,0.02c0.013,0.017,0.008,0.04,0.023,0.056c0.019,0.02,0.047,0.014,0.068,0.028
		c0.071,0.058,0.154,0.096,0.251,0.104c0.011,0,0.02,0.008,0.03,0.008c0.002,0,0.004,0.002,0.006,0.002
		c0.003,0,0.005-0.002,0.008-0.002c0.007,0,0.012-0.004,0.019-0.004c0.118-0.006,0.224-0.052,0.306-0.126
		c0.007-0.007,0.018-0.004,0.024-0.011s0.004-0.018,0.011-0.024c0.006-0.007,0.004-0.018,0.01-0.024l4.965-5.463
		C14.016,9.123,14.016,8.814,13.826,8.624z"/>
</g>
<g id="Layer_1">
</g>
</svg>
