<?xml version="1.0" encoding="iso-8859-1"?>
<!-- Generator: Adobe Illustrator 16.0.0, SVG Export Plug-In . SVG Version: 6.00 Build 0)  -->
<!DOCTYPE svg PUBLIC "-//W3C//DTD SVG 1.1//EN" "http://www.w3.org/Graphics/SVG/1.1/DTD/svg11.dtd">
<svg version="1.1" xmlns="http://www.w3.org/2000/svg" xmlns:xlink="http://www.w3.org/1999/xlink" x="0px" y="0px" width="16px"
	 height="16px" viewBox="0 0 16 16" style="enable-background:new 0 0 16 16;" xml:space="preserve">
<g id="_x34_-interface_-_arrow_top" style="enable-background:new    ;">
	<path d="M13.826,6.665L8.861,1.19C8.855,1.184,8.857,1.172,8.85,1.166C8.844,1.159,8.847,1.148,8.84,1.142
		c-0.006-0.007-0.017-0.004-0.023-0.01C8.735,1.057,8.628,1.01,8.509,1.004C8.503,1.004,8.499,1,8.492,1
		C8.489,1,8.487,0.999,8.484,0.999C8.482,0.999,8.48,1,8.477,1.001C8.467,1,8.459,1.008,8.449,1.008
		C8.351,1.016,8.268,1.056,8.196,1.113c-0.021,0.016-0.049,0.01-0.067,0.028C8.113,1.157,8.118,1.181,8.105,1.197
		C8.099,1.205,8.088,1.21,8.083,1.218l-4.94,5.447c-0.19,0.191-0.19,0.5,0,0.69c0.19,0.191,0.499,0.191,0.688,0l4.155-4.581v11.725
		c0,0.275,0.223,0.5,0.498,0.5s0.499-0.225,0.499-0.5V2.774l4.156,4.581c0.189,0.191,0.498,0.191,0.688,0
		C14.018,7.165,14.018,6.856,13.826,6.665z"/>
</g>
<g id="Layer_1">
</g>
</svg>
