<?xml version="1.0" encoding="iso-8859-1"?>
<!-- Generator: Adobe Illustrator 16.0.0, SVG Export Plug-In . SVG Version: 6.00 Build 0)  -->
<!DOCTYPE svg PUBLIC "-//W3C//DTD SVG 1.1//EN" "http://www.w3.org/Graphics/SVG/1.1/DTD/svg11.dtd">
<svg version="1.1" xmlns="http://www.w3.org/2000/svg" xmlns:xlink="http://www.w3.org/1999/xlink" x="0px" y="0px" width="16px"
	 height="16px" viewBox="0 0 16 16" style="enable-background:new 0 0 16 16;" xml:space="preserve">
<g id="_x31_30-interface_-_grid_thumb" style="enable-background:new    ;">
	<path d="M6,8.999H2c-0.552,0-1,0.447-1,1v4c0,0.552,0.448,1,1,1h4c0.552,0,1-0.448,1-1v-4C7,9.446,6.552,8.999,6,8.999z M6,13.499
		c0,0.276-0.224,0.5-0.5,0.5h-3c-0.276,0-0.5-0.224-0.5-0.5v-3c0-0.276,0.224-0.5,0.5-0.5h3c0.276,0,0.5,0.224,0.5,0.5V13.499z
		 M6,0.998H2c-0.552,0-1,0.448-1,1.001v4c0,0.552,0.448,1,1,1h4c0.552,0,1-0.448,1-1v-4C7,1.446,6.552,0.998,6,0.998z M6,5.499
		c0,0.275-0.224,0.5-0.5,0.5h-3c-0.276,0-0.5-0.225-0.5-0.5V2.498c0-0.275,0.224-0.499,0.5-0.499h3c0.276,0,0.5,0.224,0.5,0.499
		V5.499z M14,0.998h-4c-0.553,0-1,0.448-1,1.001v4c0,0.552,0.448,1,1,1h4c0.553,0,1-0.448,1-1v-4C15,1.446,14.553,0.998,14,0.998z
		 M14,5.499c0,0.275-0.225,0.5-0.5,0.5h-3c-0.275,0-0.5-0.225-0.5-0.5V2.498c0-0.275,0.225-0.499,0.5-0.499h3
		c0.275,0,0.5,0.224,0.5,0.499V5.499z M14,8.999h-4c-0.553,0-1,0.447-1,1v4c0,0.552,0.448,1,1,1h4c0.553,0,1-0.448,1-1v-4
		C15,9.446,14.553,8.999,14,8.999z M14,13.499c0,0.276-0.225,0.5-0.5,0.5h-3c-0.275,0-0.5-0.224-0.5-0.5v-3
		c0-0.276,0.225-0.5,0.5-0.5h3c0.275,0,0.5,0.224,0.5,0.5V13.499z"/>
</g>
<g id="Layer_1">
</g>
</svg>
