<?xml version="1.0" encoding="iso-8859-1"?>
<!-- Generator: Adobe Illustrator 16.0.0, SVG Export Plug-In . SVG Version: 6.00 Build 0)  -->
<!DOCTYPE svg PUBLIC "-//W3C//DTD SVG 1.1//EN" "http://www.w3.org/Graphics/SVG/1.1/DTD/svg11.dtd">
<svg version="1.1" xmlns="http://www.w3.org/2000/svg" xmlns:xlink="http://www.w3.org/1999/xlink" x="0px" y="0px" width="16px"
	 height="16px" viewBox="0 0 16 16" style="enable-background:new 0 0 16 16;" xml:space="preserve">
<g id="_x37_6-interface_-_login_enter" style="enable-background:new    ;">
	<path d="M9.143,12.165c-0.191,0.191-0.191,0.501,0,0.691c0.191,0.19,0.5,0.19,0.691,0c0,0,4.027-4.017,4.033-4.023
		c0.074-0.083,0.121-0.189,0.127-0.309c0-0.007,0.004-0.012,0.004-0.018C13.998,8.504,14,8.502,14,8.499s-0.002-0.005-0.002-0.007
		c0-0.01-0.006-0.017-0.006-0.025c-0.008-0.101-0.049-0.186-0.107-0.259c-0.016-0.021-4.051-4.066-4.051-4.066
		c-0.191-0.19-0.5-0.19-0.691,0c-0.191,0.19-0.191,0.5,0,0.69l3.168,3.167H0.5c-0.276,0-0.5,0.224-0.5,0.5s0.224,0.5,0.5,0.5h11.809
		L9.143,12.165z M15,0.999H3c-0.552,0-1,0.447-1,1v3h1v-2.5c0-0.276,0.224-0.5,0.5-0.5h11c0.275,0,0.5,0.224,0.5,0.5v12
		c0,0.275-0.225,0.5-0.5,0.5h-11c-0.276,0-0.5-0.225-0.5-0.5v-2.5H2v3c0,0.553,0.448,1,1,1h12c0.553,0,1-0.447,1-1v-13
		C16,1.446,15.553,0.999,15,0.999z"/>
</g>
<g id="Layer_1">
</g>
</svg>
