<?xml version="1.0" encoding="iso-8859-1"?>
<!-- Generator: Adobe Illustrator 16.0.0, SVG Export Plug-In . SVG Version: 6.00 Build 0)  -->
<!DOCTYPE svg PUBLIC "-//W3C//DTD SVG 1.1//EN" "http://www.w3.org/Graphics/SVG/1.1/DTD/svg11.dtd">
<svg version="1.1" xmlns="http://www.w3.org/2000/svg" xmlns:xlink="http://www.w3.org/1999/xlink" x="0px" y="0px" width="16px"
	 height="16px" viewBox="0 0 16 16" style="enable-background:new 0 0 16 16;" xml:space="preserve">
<g id="_x31_7-interface_-_long_arrow_left" style="enable-background:new    ;">
	<path d="M13.5,7.999H5.344l2.512-2.154c0.194-0.194,0.194-0.509,0-0.702c-0.194-0.194-0.508-0.194-0.702,0L3.675,8.126
		C3.671,8.129,3.667,8.131,3.663,8.134c-0.007,0.003-0.015,0.003-0.02,0.009C3.638,8.147,3.641,8.156,3.636,8.161
		C3.553,8.25,3.5,8.368,3.5,8.499s0.053,0.248,0.136,0.338c0.005,0.005,0.002,0.014,0.007,0.019c0.005,0.005,0.013,0.006,0.02,0.008
		c0.004,0.004,0.01,0.006,0.014,0.01l3.478,2.982c0.194,0.194,0.508,0.194,0.702,0s0.194-0.508,0-0.702L5.344,8.999H13.5
		c0.275,0,0.5-0.224,0.5-0.5S13.775,7.999,13.5,7.999z M8.5,0.999c-4.142,0-7.5,3.357-7.5,7.5s3.358,7.5,7.5,7.5
		c4.143,0,7.5-3.357,7.5-7.5S12.643,0.999,8.5,0.999z M8.5,14.999c-3.589,0-6.5-2.91-6.5-6.5s2.91-6.5,6.5-6.5
		c3.59,0,6.5,2.91,6.5,6.5S12.09,14.999,8.5,14.999z"/>
</g>
<g id="Layer_1">
</g>
</svg>
