<?xml version="1.0" encoding="iso-8859-1"?>
<!-- Generator: Adobe Illustrator 16.0.0, SVG Export Plug-In . SVG Version: 6.00 Build 0)  -->
<!DOCTYPE svg PUBLIC "-//W3C//DTD SVG 1.1//EN" "http://www.w3.org/Graphics/SVG/1.1/DTD/svg11.dtd">
<svg version="1.1" xmlns="http://www.w3.org/2000/svg" xmlns:xlink="http://www.w3.org/1999/xlink" x="0px" y="0px" width="16px"
	 height="16px" viewBox="0 0 16 16" style="enable-background:new 0 0 16 16;" xml:space="preserve">
<g id="_x34_7-interface_-_arrow_left_top" style="enable-background:new    ;">
	<path d="M13.197,10.603L9.684,7.09l2.41-2.41c0.381-0.381,0.256-0.782-0.277-0.894l-9.25-1.777C2.301,1.953,2.081,2.012,1.942,2.15
		C1.802,2.29,1.744,2.51,1.799,2.775l1.779,9.246c0.111,0.533,0.513,0.658,0.894,0.277l2.4-2.398l3.515,3.513
		c0.777,0.776,2.037,0.777,2.813,0.002C13.977,12.639,13.975,11.38,13.197,10.603z M12.496,12.711c-0.389,0.389-1.018,0.389-1.406,0
		L6.871,8.494l-2.502,2.501l-1.503-7.92l7.923,1.502L8.277,7.089l4.217,4.217C12.883,11.694,12.885,12.323,12.496,12.711z"/>
</g>
<g id="Layer_1">
</g>
</svg>
