<?xml version="1.0" encoding="iso-8859-1"?>
<!-- Generator: Adobe Illustrator 16.0.0, SVG Export Plug-In . SVG Version: 6.00 Build 0)  -->
<!DOCTYPE svg PUBLIC "-//W3C//DTD SVG 1.1//EN" "http://www.w3.org/Graphics/SVG/1.1/DTD/svg11.dtd">
<svg version="1.1" xmlns="http://www.w3.org/2000/svg" xmlns:xlink="http://www.w3.org/1999/xlink" x="0px" y="0px" width="16px"
	 height="16px" viewBox="0 0 16 16" style="enable-background:new 0 0 16 16;" xml:space="preserve">
<g id="_x38_5-interface_-_upload_cloud" style="enable-background:new    ;">
	<path d="M11.857,10.679c0.191-0.197,0.191-0.518,0-0.715L8.875,6.879C8.871,6.874,8.872,6.866,8.867,6.861
		c-0.006-0.008-0.003-0.019-0.01-0.025S8.84,6.832,8.833,6.826C8.75,6.749,8.645,6.701,8.527,6.694
		c-0.007,0-0.013-0.004-0.021-0.004c-0.002,0-0.004-0.002-0.007-0.002c-0.002,0-0.004,0.002-0.006,0.002
		c-0.011,0-0.019,0.007-0.028,0.007c-0.099,0.009-0.184,0.05-0.256,0.11c-0.021,0.016-0.049,0.01-0.066,0.028
		C8.13,6.849,8.135,6.868,8.125,6.882C8.121,6.887,8.116,6.889,8.112,6.893L5.143,9.964c-0.19,0.197-0.19,0.518,0,0.715
		c0.191,0.197,0.5,0.197,0.69,0L8,8.438v7.044c0,0.285,0.224,0.518,0.5,0.518c0.276,0,0.5-0.232,0.5-0.518V8.438l2.167,2.241
		C11.357,10.876,11.666,10.876,11.857,10.679z M12.26,4.219C11.672,2.354,9.998,0.999,8,0.999c-2.174,0-3.988,1.595-4.408,3.715
		C1.542,5.148,0,7.025,0,9.274c0,2.571,2.015,4.655,4.5,4.655c0.172,0,0.5,0,0.5,0h1v-1.034H4.5c-1.933,0-3.5-1.621-3.5-3.621
		c0-1.999,1.567-3.62,3.5-3.62c0-2,1.567-3.621,3.5-3.621c1.768,0,3.215,1.361,3.451,3.125C13.428,5.269,15,6.945,15,9.016
		c0,2.055-1.549,3.718-3.5,3.854L11,12.896v1.007c0.084,0.005,0.164,0.027,0.25,0.027c2.623,0,4.75-2.2,4.75-4.914
		C16,6.661,14.396,4.698,12.26,4.219z"/>
</g>
<g id="Layer_1">
</g>
</svg>
