<?xml version="1.0" encoding="iso-8859-1"?>
<!-- Generator: Adobe Illustrator 16.0.0, SVG Export Plug-In . SVG Version: 6.00 Build 0)  -->
<!DOCTYPE svg PUBLIC "-//W3C//DTD SVG 1.1//EN" "http://www.w3.org/Graphics/SVG/1.1/DTD/svg11.dtd">
<svg version="1.1" xmlns="http://www.w3.org/2000/svg" xmlns:xlink="http://www.w3.org/1999/xlink" x="0px" y="0px" width="16px"
	 height="16px" viewBox="0 0 16 16" style="enable-background:new 0 0 16 16;" xml:space="preserve">
<g id="_x38_2-interface_-_branches_store_location" style="enable-background:new    ;">
	<path d="M8,0.999c-2.762,0-5,2.238-5,5s5,10,5,10s5-7.238,5-10S10.762,0.999,8,0.999z M4,6.166c0-2.302,1.791-4.167,4-4.167
		s4,1.865,4,4.167c0,2.301-4,8.333-4,8.333S4,8.467,4,6.166z M3.412,12.486c0,0-2.442-4.117-2.442-5.688
		c0-1.064,0.509-1.982,1.253-2.469C2.384,3.848,2.614,3.4,2.901,2.998C1.259,3.268,0,4.79,0,6.634c0,2.034,3.418,7.365,3.418,7.365
		s0.479-0.748,1.08-1.79c-0.155-0.272-0.309-0.55-0.463-0.832C3.679,12.034,3.412,12.486,3.412,12.486z M13.098,2.998
		c0.289,0.402,0.518,0.85,0.68,1.332c0.744,0.486,1.252,1.404,1.252,2.469c0,1.57-2.441,5.688-2.441,5.688s-0.268-0.452-0.623-1.109
		c-0.154,0.282-0.309,0.56-0.463,0.832c0.6,1.042,1.08,1.79,1.08,1.79S16,8.668,16,6.634C16,4.79,14.74,3.268,13.098,2.998z"/>
</g>
<g id="Layer_1">
</g>
</svg>
