<?xml version="1.0" encoding="iso-8859-1"?>
<!-- Generator: Adobe Illustrator 16.0.0, SVG Export Plug-In . SVG Version: 6.00 Build 0)  -->
<!DOCTYPE svg PUBLIC "-//W3C//DTD SVG 1.1//EN" "http://www.w3.org/Graphics/SVG/1.1/DTD/svg11.dtd">
<svg version="1.1" xmlns="http://www.w3.org/2000/svg" xmlns:xlink="http://www.w3.org/1999/xlink" x="0px" y="0px" width="16px"
	 height="16px" viewBox="0 0 16 16" style="enable-background:new 0 0 16 16;" xml:space="preserve">
<g id="_x32_4-interface_-_tick_done" style="enable-background:new    ;">
	<path d="M12.178,6.113l-4.664,4.665L5.88,9.144c-0.203-0.203-0.533-0.203-0.736,0c-0.203,0.204-0.203,0.533,0,0.736l1.943,1.943
		c0.004,0.004,0.011,0.002,0.016,0.007c0.007,0.007,0.003,0.019,0.011,0.026c0.187,0.187,0.491,0.187,0.678,0l5.064-5.065
		c0.188-0.188,0.188-0.49,0-0.678C12.67,5.927,12.365,5.927,12.178,6.113z M8.5,0.999c-4.142,0-7.5,3.357-7.5,7.5
		c0,4.142,3.358,7.499,7.5,7.499c4.143,0,7.5-3.357,7.5-7.499C16,4.356,12.643,0.999,8.5,0.999z M8.5,14.999
		c-3.589,0-6.5-2.91-6.5-6.5c0-3.591,2.91-6.5,6.5-6.5c3.59,0,6.5,2.909,6.5,6.5C15,12.089,12.09,14.999,8.5,14.999z"/>
</g>
<g id="Layer_1">
</g>
</svg>
