<?xml version="1.0" encoding="iso-8859-1"?>
<!-- Generator: Adobe Illustrator 16.0.0, SVG Export Plug-In . SVG Version: 6.00 Build 0)  -->
<!DOCTYPE svg PUBLIC "-//W3C//DTD SVG 1.1//EN" "http://www.w3.org/Graphics/SVG/1.1/DTD/svg11.dtd">
<svg version="1.1" xmlns="http://www.w3.org/2000/svg" xmlns:xlink="http://www.w3.org/1999/xlink" x="0px" y="0px" width="16px"
	 height="16px" viewBox="0 0 16 16" style="enable-background:new 0 0 16 16;" xml:space="preserve">
<g id="_x39_-interface_-_arrow_right_bottom" style="enable-background:new    ;">
	<path d="M12.975,12.47V5.469c0-0.26-0.223-0.471-0.5-0.471s-0.502,0.211-0.502,0.471v5.812L3.833,3.14
		c-0.191-0.191-0.501-0.191-0.692,0c-0.191,0.191-0.191,0.501,0,0.692l8.141,8.14H5.47c-0.26,0-0.471,0.225-0.471,0.502
		c0,0.276,0.211,0.501,0.471,0.501h7c0.002,0,0.002,0.001,0.004,0.001s0.002-0.001,0.004-0.001h0.027
		c0.111,0,0.209-0.048,0.291-0.117c0.012-0.009,0.025-0.016,0.035-0.025c0.012-0.011,0.018-0.024,0.027-0.036
		c0.068-0.081,0.115-0.18,0.115-0.292v-0.027c0-0.001,0.002-0.002,0.002-0.003C12.977,12.472,12.975,12.471,12.975,12.47z"/>
</g>
<g id="Layer_1">
</g>
</svg>
