<?xml version="1.0" encoding="iso-8859-1"?>
<!-- Generator: Adobe Illustrator 16.0.0, SVG Export Plug-In . SVG Version: 6.00 Build 0)  -->
<!DOCTYPE svg PUBLIC "-//W3C//DTD SVG 1.1//EN" "http://www.w3.org/Graphics/SVG/1.1/DTD/svg11.dtd">
<svg version="1.1" xmlns="http://www.w3.org/2000/svg" xmlns:xlink="http://www.w3.org/1999/xlink" x="0px" y="0px" width="16px"
	 height="16px" viewBox="0 0 16 16" style="enable-background:new 0 0 16 16;" xml:space="preserve">
<g id="_x33_3-interface_-_search_tick_done" style="enable-background:new    ;">
	<path d="M9.197,4.142L5.324,7.809L3.774,6.142c-0.177-0.19-0.465-0.19-0.642,0c-0.177,0.191-0.177,0.5,0,0.69
		c0,0,1.839,2.003,1.859,2.023C5.083,8.954,5.204,9,5.324,8.997C5.443,9,5.564,8.954,5.656,8.855
		c0.02-0.021,4.182-4.023,4.182-4.023c0.178-0.191,0.178-0.5,0-0.69S9.373,3.951,9.197,4.142z M15.857,15.183L11.4,10.727
		c0.984-1.14,1.6-2.604,1.6-4.228c0-3.59-2.91-6.5-6.5-6.5S0,2.909,0,6.499s2.91,6.5,6.5,6.5c1.623,0,3.088-0.616,4.227-1.6
		l4.457,4.457c0.186,0.186,0.488,0.186,0.674,0C16.043,15.67,16.043,15.368,15.857,15.183z M6.5,11.999c-3.038,0-5.5-2.462-5.5-5.5
		c0-3.037,2.462-5.5,5.5-5.5c3.037,0,5.5,2.463,5.5,5.5C12,9.537,9.537,11.999,6.5,11.999z"/>
</g>
<g id="Layer_1">
</g>
</svg>
