<?xml version="1.0" encoding="iso-8859-1"?>
<!-- Generator: Adobe Illustrator 16.0.0, SVG Export Plug-In . SVG Version: 6.00 Build 0)  -->
<!DOCTYPE svg PUBLIC "-//W3C//DTD SVG 1.1//EN" "http://www.w3.org/Graphics/SVG/1.1/DTD/svg11.dtd">
<svg version="1.1" xmlns="http://www.w3.org/2000/svg" xmlns:xlink="http://www.w3.org/1999/xlink" x="0px" y="0px" width="16px"
	 height="16px" viewBox="0 0 16 16" style="enable-background:new 0 0 16 16;" xml:space="preserve">
<g id="_x36_0-interface_-_target_bulleye" style="enable-background:new    ;">
	<path d="M8,5.999c-1.104,0-2,0.895-2,2c0,1.104,0.896,2,2,2c1.104,0,2-0.896,2-2C10,6.894,9.104,5.999,8,5.999z M8,8.999
		c-0.552,0-1-0.448-1-1c0-0.553,0.448-1,1-1s1,0.447,1,1C9,8.551,8.552,8.999,8,8.999z M8-0.001c-4.418,0-8,3.581-8,8
		c0,4.418,3.582,8,8,8c4.418,0,8-3.582,8-8C16,3.58,12.418-0.001,8-0.001z M8,14.999c-3.866,0-7-3.134-7-7s3.134-7,7-7
		c3.865,0,7,3.134,7,7S11.865,14.999,8,14.999z M8,2.999c-2.762,0-5,2.238-5,5c0,2.761,2.238,5,5,5s5-2.239,5-5
		C13,5.237,10.762,2.999,8,2.999z M8,11.999c-2.209,0-4-1.791-4-4s1.791-4,4-4s4,1.791,4,4S10.209,11.999,8,11.999z"/>
</g>
<g id="Layer_1">
</g>
</svg>
