<?xml version="1.0" encoding="iso-8859-1"?>
<!-- Generator: Adobe Illustrator 16.0.0, SVG Export Plug-In . SVG Version: 6.00 Build 0)  -->
<!DOCTYPE svg PUBLIC "-//W3C//DTD SVG 1.1//EN" "http://www.w3.org/Graphics/SVG/1.1/DTD/svg11.dtd">
<svg version="1.1" xmlns="http://www.w3.org/2000/svg" xmlns:xlink="http://www.w3.org/1999/xlink" x="0px" y="0px" width="16px"
	 height="16px" viewBox="0 0 16 16" style="enable-background:new 0 0 16 16;" xml:space="preserve">
<g id="_x31_32-interface_-_plus_add" style="enable-background:new    ;">
	<path d="M15,5.999h-5v-5c0-0.552-0.447-1-1-1H7c-0.552,0-1,0.448-1,1v5H1c-0.552,0-1,0.447-1,1v2c0,0.552,0.448,1,1,1h5v5
		c0,0.552,0.448,1,1,1h2c0.553,0,1-0.448,1-1v-5h5c0.553,0,1-0.448,1-1v-2C16,6.446,15.553,5.999,15,5.999z M15,8.499
		c0,0.276-0.225,0.5-0.5,0.5H9v5.5c0,0.276-0.224,0.5-0.5,0.5h-1c-0.276,0-0.5-0.224-0.5-0.5v-5.5H1.5c-0.276,0-0.5-0.224-0.5-0.5
		v-1c0-0.276,0.224-0.5,0.5-0.5H7v-5.5c0-0.276,0.224-0.5,0.5-0.5h1c0.276,0,0.5,0.224,0.5,0.5v5.5h5.5c0.275,0,0.5,0.224,0.5,0.5
		V8.499z"/>
</g>
<g id="Layer_1">
</g>
</svg>
