<?xml version="1.0" encoding="iso-8859-1"?>
<!-- Generator: Adobe Illustrator 16.0.0, SVG Export Plug-In . SVG Version: 6.00 Build 0)  -->
<!DOCTYPE svg PUBLIC "-//W3C//DTD SVG 1.1//EN" "http://www.w3.org/Graphics/SVG/1.1/DTD/svg11.dtd">
<svg version="1.1" xmlns="http://www.w3.org/2000/svg" xmlns:xlink="http://www.w3.org/1999/xlink" x="0px" y="0px" width="16px"
	 height="16px" viewBox="0 0 16 16" style="enable-background:new 0 0 16 16;" xml:space="preserve">
<g id="_x32_3-interface_-_cross_cancel" style="enable-background:new    ;">
	<path d="M10.885,6.114c-0.184-0.183-0.492-0.173-0.688,0.022L8.5,7.822L6.805,6.137C6.608,5.941,6.301,5.932,6.117,6.114
		C5.933,6.297,5.943,6.604,6.139,6.798l1.696,1.687L6.139,10.17c-0.196,0.195-0.207,0.501-0.022,0.684
		c0.184,0.183,0.492,0.173,0.688-0.021L8.5,9.146l1.697,1.687c0.195,0.194,0.504,0.204,0.688,0.021s0.174-0.488-0.021-0.684
		L9.166,8.484l1.697-1.687C11.059,6.604,11.068,6.297,10.885,6.114z M8.5,0.999c-4.142,0-7.5,3.357-7.5,7.5
		c0,4.142,3.358,7.5,7.5,7.5c4.143,0,7.5-3.358,7.5-7.5C16,4.356,12.643,0.999,8.5,0.999z M8.5,14.999c-3.589,0-6.5-2.91-6.5-6.5
		s2.91-6.5,6.5-6.5c3.59,0,6.5,2.91,6.5,6.5S12.09,14.999,8.5,14.999z"/>
</g>
<g id="Layer_1">
</g>
</svg>
