<?xml version="1.0" encoding="iso-8859-1"?>
<!-- Generator: Adobe Illustrator 16.0.0, SVG Export Plug-In . SVG Version: 6.00 Build 0)  -->
<!DOCTYPE svg PUBLIC "-//W3C//DTD SVG 1.1//EN" "http://www.w3.org/Graphics/SVG/1.1/DTD/svg11.dtd">
<svg version="1.1" xmlns="http://www.w3.org/2000/svg" xmlns:xlink="http://www.w3.org/1999/xlink" x="0px" y="0px" width="16px"
	 height="16px" viewBox="0 0 16 16" style="enable-background:new 0 0 16 16;" xml:space="preserve">
<g id="_x31_27-interface_-_arrow_right" style="enable-background:new    ;">
	<path d="M10.842,7.658l-3.97-4.506c-0.193-0.194-0.506-0.195-0.7-0.001C5.978,3.344,5.977,3.658,6.169,3.853l3.67,4.166
		l-3.693,4.144c-0.194,0.193-0.195,0.507-0.002,0.702c0.193,0.194,0.506,0.195,0.7,0.002l3.995-4.481
		c0.004-0.004,0.012-0.002,0.016-0.006C10.955,8.28,11,8.151,11,8.022c0.002-0.13-0.043-0.259-0.143-0.357
		C10.854,7.66,10.848,7.662,10.842,7.658z M14-0.001H2c-1.104,0-2,0.896-2,2v12c0,1.104,0.896,2,2,2h12c1.105,0,2-0.896,2-2v-12
		C16,0.895,15.105-0.001,14-0.001z M15,13.999c0,0.552-0.447,1-1,1H2c-0.552,0-1-0.448-1-1v-12c0-0.553,0.448-1,1-1h12
		c0.553,0,1,0.447,1,1V13.999z"/>
</g>
<g id="Layer_1">
</g>
</svg>
