<?xml version="1.0" encoding="iso-8859-1"?>
<!-- Generator: Adobe Illustrator 16.0.0, SVG Export Plug-In . SVG Version: 6.00 Build 0)  -->
<!DOCTYPE svg PUBLIC "-//W3C//DTD SVG 1.1//EN" "http://www.w3.org/Graphics/SVG/1.1/DTD/svg11.dtd">
<svg version="1.1" xmlns="http://www.w3.org/2000/svg" xmlns:xlink="http://www.w3.org/1999/xlink" x="0px" y="0px" width="16px"
	 height="16px" viewBox="0 0 16 16" style="enable-background:new 0 0 16 16;" xml:space="preserve">
<g id="_x31_8-interface_-_long_arrow_top" style="enable-background:new    ;">
	<path d="M8.874,3.677c-0.004-0.004-0.006-0.01-0.01-0.015C8.862,3.656,8.861,3.648,8.856,3.644
		C8.851,3.638,8.843,3.641,8.837,3.636C8.749,3.553,8.631,3.5,8.5,3.5S8.25,3.553,8.161,3.636C8.156,3.641,8.148,3.638,8.143,3.644
		C8.137,3.648,8.137,3.655,8.135,3.662c-0.004,0.004-0.006,0.01-0.01,0.015L5.143,7.154c-0.194,0.193-0.194,0.508,0,0.702
		s0.508,0.194,0.703,0l2.154-2.512V13.5c0,0.275,0.224,0.499,0.5,0.499S9,13.775,9,13.5V5.344l2.155,2.513
		c0.193,0.194,0.508,0.194,0.701,0c0.195-0.194,0.195-0.509,0-0.702L8.874,3.677z M8.5,1C4.357,1,1,4.357,1,8.5
		C1,12.642,4.357,16,8.5,16c4.141,0,7.5-3.358,7.5-7.5C16,4.357,12.641,1,8.5,1z M8.5,15C4.91,15,2,12.089,2,8.5
		c0-3.59,2.91-6.501,6.5-6.501c3.59,0,6.5,2.911,6.5,6.501C15,12.089,12.09,15,8.5,15z"/>
</g>
<g id="Layer_1">
</g>
</svg>
