<?xml version="1.0" encoding="iso-8859-1"?>
<!-- Generator: Adobe Illustrator 16.0.0, SVG Export Plug-In . SVG Version: 6.00 Build 0)  -->
<!DOCTYPE svg PUBLIC "-//W3C//DTD SVG 1.1//EN" "http://www.w3.org/Graphics/SVG/1.1/DTD/svg11.dtd">
<svg version="1.1" xmlns="http://www.w3.org/2000/svg" xmlns:xlink="http://www.w3.org/1999/xlink" x="0px" y="0px" width="16px"
	 height="16px" viewBox="0 0 16 16" style="enable-background:new 0 0 16 16;" xml:space="preserve">
<g id="_x34_1-interface_-_arrow_left" style="enable-background:new    ;">
	<path d="M14.125,6.838C12.668,5.186,10.4,4.282,7.496,4.192V1.478c0-0.187-0.111-0.356-0.286-0.437S6.829,0.984,6.68,1.103
		L0.196,6.25C0.08,6.342,0.012,6.479,0.012,6.624c0,0.146,0.066,0.283,0.183,0.375l6.484,5.197c0.149,0.119,0.357,0.144,0.531,0.063
		c0.175-0.08,0.287-0.251,0.287-0.438V9.046c7.004-0.005,7.518,4.337,7.536,4.517c0.021,0.243,0.18,0.434,0.434,0.441
		c0.006,0,0.012,0,0.018,0c0.246,0,0.426-0.174,0.463-0.411C15.971,13.431,16.5,9.525,14.125,6.838z M6.997,8.071
		C6.997,8.071,6.996,8.071,6.997,8.071c-0.133,0-0.26,0.051-0.354,0.141C6.548,8.303,6.496,8.427,6.496,8.555v2.243L1.301,6.627
		l5.194-4.132v2.174c0,0.267,0.224,0.483,0.5,0.483c2.844,0,5.018,0.798,6.368,2.311c1.014,1.139,1.48,2.532,1.641,3.689
		C13.912,9.708,12,8.074,6.997,8.071z"/>
</g>
<g id="Layer_1">
</g>
</svg>
