<?xml version="1.0" encoding="iso-8859-1"?>
<!-- Generator: Adobe Illustrator 16.0.0, SVG Export Plug-In . SVG Version: 6.00 Build 0)  -->
<!DOCTYPE svg PUBLIC "-//W3C//DTD SVG 1.1//EN" "http://www.w3.org/Graphics/SVG/1.1/DTD/svg11.dtd">
<svg version="1.1" xmlns="http://www.w3.org/2000/svg" xmlns:xlink="http://www.w3.org/1999/xlink" x="0px" y="0px" width="16px"
	 height="16px" viewBox="0 0 16 16" style="enable-background:new 0 0 16 16;" xml:space="preserve">
<g id="_x34_3-interface_-_arrow_left" style="enable-background:new    ;">
	<path d="M14.023,6.01H9.021V2.584c0-0.541-0.376-0.738-0.834-0.438L0.338,7.454C0.109,7.604-0.006,7.802-0.006,8
		c0,0.197,0.115,0.396,0.344,0.545l7.849,5.309c0.458,0.3,0.834,0.103,0.834-0.438v-3.411h5.002c1.105,0,2.004-0.895,2.004-1.998
		C16.027,6.904,15.129,6.01,14.023,6.01z M14.023,9.006H8.019v3.556L1.311,8l6.708-4.563v3.571h6.004
		c0.553,0,1.002,0.447,1.002,0.998C15.025,8.559,14.576,9.006,14.023,9.006z"/>
</g>
<g id="Layer_1">
</g>
</svg>
