<?xml version="1.0" encoding="iso-8859-1"?>
<!-- Generator: Adobe Illustrator 16.0.0, SVG Export Plug-In . SVG Version: 6.00 Build 0)  -->
<!DOCTYPE svg PUBLIC "-//W3C//DTD SVG 1.1//EN" "http://www.w3.org/Graphics/SVG/1.1/DTD/svg11.dtd">
<svg version="1.1" xmlns="http://www.w3.org/2000/svg" xmlns:xlink="http://www.w3.org/1999/xlink" x="0px" y="0px" width="16px"
	 height="16px" viewBox="0 0 16 16" style="enable-background:new 0 0 16 16;" xml:space="preserve">
<g id="_x33_0-interface_-_clock_time" style="enable-background:new    ;">
	<path d="M8,7.82V3.499c0-0.276-0.224-0.5-0.5-0.5c-0.276,0-0.5,0.224-0.5,0.5v4.5C7,8.174,7.096,8.32,7.232,8.41l2.948,2.946
		c0.186,0.188,0.49,0.188,0.678,0s0.188-0.492,0-0.679L8,7.82z M8-0.001c-4.418,0-8,3.581-8,8c0,4.418,3.582,8,8,8
		c4.418,0,8-3.582,8-8C16,3.58,12.418-0.001,8-0.001z M8,14.999c-3.866,0-7-3.134-7-7s3.134-7.001,7-7.001c3.865,0,7,3.135,7,7.001
		S11.865,14.999,8,14.999z"/>
</g>
<g id="Layer_1">
</g>
</svg>
