<?xml version="1.0" encoding="iso-8859-1"?>
<!-- Generator: Adobe Illustrator 16.0.0, SVG Export Plug-In . SVG Version: 6.00 Build 0)  -->
<!DOCTYPE svg PUBLIC "-//W3C//DTD SVG 1.1//EN" "http://www.w3.org/Graphics/SVG/1.1/DTD/svg11.dtd">
<svg version="1.1" xmlns="http://www.w3.org/2000/svg" xmlns:xlink="http://www.w3.org/1999/xlink" x="0px" y="0px" width="16px"
	 height="16px" viewBox="0 0 16 16" style="enable-background:new 0 0 16 16;" xml:space="preserve">
<g id="_x31_00-interface_-_2_arrows_enlarge" style="enable-background:new    ;">
	<path d="M15.965,0.477c-0.006-0.121-0.053-0.23-0.131-0.314c-0.006-0.006-0.002-0.015-0.008-0.021
		c-0.006-0.005-0.016-0.003-0.021-0.008c-0.082-0.077-0.191-0.125-0.313-0.13c-0.008-0.001-0.014-0.005-0.023-0.005H9.48
		c-0.275,0-0.499,0.224-0.499,0.499S9.205,0.997,9.48,0.997h4.789L7.64,7.627c0,0,0,0,0,0l-6.642,6.642V9.48
		c0-0.275-0.224-0.499-0.499-0.499C0.223,8.981,0,9.205,0,9.48v5.988c0,0.008,0.004,0.014,0.004,0.021
		c0.005,0.121,0.053,0.23,0.13,0.313c0.005,0.006,0.003,0.016,0.009,0.021s0.015,0.003,0.021,0.008
		c0.083,0.077,0.192,0.125,0.314,0.131c0.007,0,0.013,0.004,0.021,0.004c0,0,0,0,0,0h5.988c0.275,0,0.499-0.224,0.499-0.499
		S6.763,14.97,6.487,14.97H1.699l6.63-6.63c0,0,0,0,0.001,0l6.641-6.642v4.788c0,0.275,0.223,0.499,0.498,0.499
		c0.277,0,0.5-0.224,0.5-0.499V0.498C15.969,0.49,15.965,0.484,15.965,0.477z"/>
</g>
<g id="Layer_1">
</g>
</svg>
