<?xml version="1.0" encoding="iso-8859-1"?>
<!-- Generator: Adobe Illustrator 16.0.0, SVG Export Plug-In . SVG Version: 6.00 Build 0)  -->
<!DOCTYPE svg PUBLIC "-//W3C//DTD SVG 1.1//EN" "http://www.w3.org/Graphics/SVG/1.1/DTD/svg11.dtd">
<svg version="1.1" xmlns="http://www.w3.org/2000/svg" xmlns:xlink="http://www.w3.org/1999/xlink" x="0px" y="0px" width="16px"
	 height="16px" viewBox="0 0 16 16" style="enable-background:new 0 0 16 16;" xml:space="preserve">
<g id="_x39_0-interface_-_reverse_back" style="enable-background:new    ;">
	<path d="M11.84,1h3.658c0.275,0,0.5-0.224,0.5-0.5c0-0.277-0.225-0.501-0.5-0.501h-4.959c-0.014-0.001-0.025-0.008-0.039-0.008
		c-0.023,0-0.041,0.016-0.063,0.02c-0.063,0.007-0.121,0.023-0.174,0.052c-0.02,0.011-0.035,0.021-0.053,0.035
		c-0.066,0.046-0.121,0.104-0.158,0.177C10.035,0.27,10,1.324,10,1.324l0,0v4.172c0,0.276,0.225,0.501,0.5,0.501
		c0.277,0,0.502-0.225,0.502-0.501V1.699C13.359,2.825,15,5.212,15,7.999c0,3.866-3.135,7-7,7c-3.866,0-7-3.134-7-7
		C1,4.476,3.612,1.589,7,1.1V0.067C3.055,0.561,0,3.92,0,7.999c0,4.418,3.582,8,8,8c4.418,0,8-3.582,8-8
		C16,4.976,14.314,2.359,11.84,1z"/>
</g>
<g id="Layer_1">
</g>
</svg>
