<?xml version="1.0" encoding="iso-8859-1"?>
<!-- Generator: Adobe Illustrator 16.0.0, SVG Export Plug-In . SVG Version: 6.00 Build 0)  -->
<!DOCTYPE svg PUBLIC "-//W3C//DTD SVG 1.1//EN" "http://www.w3.org/Graphics/SVG/1.1/DTD/svg11.dtd">
<svg version="1.1" xmlns="http://www.w3.org/2000/svg" xmlns:xlink="http://www.w3.org/1999/xlink" x="0px" y="0px" width="16px"
	 height="16px" viewBox="0 0 16 16" style="enable-background:new 0 0 16 16;" xml:space="preserve">
<g id="_x36_8-interface_-_2_arrows_downgrade" style="enable-background:new    ;">
	<path d="M15.857,0.143c-0.195-0.194-0.51-0.194-0.703,0L10,5.297V1.499c0-0.276-0.225-0.5-0.5-0.5S9,1.223,9,1.499v5h0
		c0,0.008,0.004,0.014,0.004,0.021c0.006,0.122,0.053,0.23,0.131,0.314c0.006,0.006,0.002,0.016,0.008,0.021
		s0.016,0.003,0.021,0.008c0.084,0.077,0.193,0.125,0.314,0.131c0.008,0,0.014,0.004,0.021,0.004h5c0.275,0,0.5-0.224,0.5-0.5
		s-0.225-0.5-0.5-0.5h-3.797l5.154-5.154C16.051,0.65,16.051,0.336,15.857,0.143z M6.865,9.162C6.86,9.156,6.862,9.147,6.856,9.143
		c-0.005-0.006-0.014-0.004-0.02-0.009C6.752,9.057,6.642,9.008,6.52,9.003c-0.007,0-0.012-0.004-0.019-0.004h0h-5
		c-0.276,0-0.5,0.224-0.5,0.5s0.224,0.5,0.5,0.5h3.797l-5.154,5.154c-0.194,0.194-0.194,0.509,0,0.702
		c0.194,0.194,0.508,0.194,0.703,0L6,10.701v3.798c0,0.276,0.224,0.5,0.5,0.5c0.276,0,0.5-0.224,0.5-0.5v-5
		c0-0.008-0.004-0.013-0.004-0.021C6.991,9.356,6.942,9.247,6.865,9.162z"/>
</g>
<g id="Layer_1">
</g>
</svg>
