<?xml version="1.0" encoding="iso-8859-1"?>
<!-- Generator: Adobe Illustrator 16.0.0, SVG Export Plug-In . SVG Version: 6.00 Build 0)  -->
<!DOCTYPE svg PUBLIC "-//W3C//DTD SVG 1.1//EN" "http://www.w3.org/Graphics/SVG/1.1/DTD/svg11.dtd">
<svg version="1.1" xmlns="http://www.w3.org/2000/svg" xmlns:xlink="http://www.w3.org/1999/xlink" x="0px" y="0px" width="16px"
	 height="16px" viewBox="0 0 16 16" style="enable-background:new 0 0 16 16;" xml:space="preserve">
<g id="_x38_-interface_-_arrow_right_top" style="enable-background:new    ;">
	<path d="M12.479,2.992h-6.98C5.223,2.992,5,3.217,5,3.493c0,0.277,0.223,0.501,0.499,0.501h5.783l-8.141,8.141
		c-0.191,0.191-0.191,0.501,0,0.692c0.191,0.19,0.501,0.19,0.692,0l8.14-8.141v5.783c0,0.275,0.225,0.498,0.502,0.498
		s0.5-0.223,0.5-0.498V3.505c0-0.001,0-0.001,0-0.002c0-0.004,0.002-0.007,0.002-0.01C12.977,3.217,12.754,2.992,12.479,2.992z"/>
</g>
<g id="Layer_1">
</g>
</svg>
