<?xml version="1.0" encoding="iso-8859-1"?>
<!-- Generator: Adobe Illustrator 16.0.0, SVG Export Plug-In . SVG Version: 6.00 Build 0)  -->
<!DOCTYPE svg PUBLIC "-//W3C//DTD SVG 1.1//EN" "http://www.w3.org/Graphics/SVG/1.1/DTD/svg11.dtd">
<svg version="1.1" xmlns="http://www.w3.org/2000/svg" xmlns:xlink="http://www.w3.org/1999/xlink" x="0px" y="0px" width="16px"
	 height="16px" viewBox="0 0 16 16" style="enable-background:new 0 0 16 16;" xml:space="preserve">
<g id="_x31_10-interface_-_cross_cancel" style="enable-background:new    ;">
	<path d="M11.857,5.142c-0.191-0.19-0.5-0.19-0.691,0L8.5,7.809L5.833,5.142c-0.19-0.19-0.5-0.19-0.69,0c-0.19,0.19-0.19,0.5,0,0.69
		L7.81,8.499l-2.667,2.667c-0.19,0.19-0.19,0.499,0,0.689c0.191,0.191,0.5,0.191,0.69,0L8.5,9.189l2.667,2.666
		c0.191,0.191,0.5,0.191,0.691,0c0.191-0.19,0.191-0.499,0-0.689L9.189,8.499l2.668-2.667C12.049,5.642,12.049,5.332,11.857,5.142z
		 M14,0.998H3c-1.104,0-2,0.896-2,2.001v10.999c0,1.105,0.896,2.001,2,2.001h11c1.105,0,2-0.896,2-2.001V2.999
		C16,1.895,15.105,0.998,14,0.998z M15,13.998c0,0.553-0.447,1.001-1,1.001H3c-0.552,0-1-0.448-1-1.001V2.999c0-0.552,0.448-1,1-1
		h11c0.553,0,1,0.448,1,1V13.998z"/>
</g>
<g id="Layer_1">
</g>
</svg>
