<?xml version="1.0" encoding="iso-8859-1"?>
<!-- Generator: Adobe Illustrator 16.0.0, SVG Export Plug-In . SVG Version: 6.00 Build 0)  -->
<!DOCTYPE svg PUBLIC "-//W3C//DTD SVG 1.1//EN" "http://www.w3.org/Graphics/SVG/1.1/DTD/svg11.dtd">
<svg version="1.1" xmlns="http://www.w3.org/2000/svg" xmlns:xlink="http://www.w3.org/1999/xlink" x="0px" y="0px" width="16px"
	 height="16px" viewBox="0 0 16 16" style="enable-background:new 0 0 16 16;" xml:space="preserve">
<g id="_x31_41-interface_-_fullscreen" style="enable-background:new    ;">
	<path d="M4.5,11.999c-0.276,0-0.5-0.224-0.5-0.5V10V8.999H0V10v2.999c0,1.657,1.343,3,3,3h3h1v-4H6H4.5z M6,14.999H3
		c-1.104,0-2-0.896-2-2V10h2v1.999c0,0.553,0.448,1,1,1h2V14.999z M13-0.001h-3H9v4h1h1.5c0.275,0,0.5,0.224,0.5,0.5V6v0.999h4V6
		V2.999C16,1.343,14.656-0.001,13-0.001z M15,6h-2V3.999c0-0.553-0.447-1-1-1h-2v-2h3c1.105,0,2,0.896,2,2V6z M12,10v1.499
		c0,0.276-0.225,0.5-0.5,0.5H10H9v4h1h3c1.656,0,3-1.343,3-3V10V8.999h-4V10z M13,11.999V10h2v2.999c0,1.104-0.895,2-2,2h-3v-2h2
		C12.553,12.999,13,12.552,13,11.999z M3-0.001c-1.657,0-3,1.344-3,3V6v0.999h4V6V4.499c0-0.276,0.224-0.5,0.5-0.5H6h1v-4H6H3z
		 M6,2.999H4c-0.552,0-1,0.447-1,1V6H1V2.999c0-1.104,0.896-2,2-2h3V2.999z"/>
</g>
<g id="Layer_1">
</g>
</svg>
