<?xml version="1.0" encoding="iso-8859-1"?>
<!-- Generator: Adobe Illustrator 16.0.0, SVG Export Plug-In . SVG Version: 6.00 Build 0)  -->
<!DOCTYPE svg PUBLIC "-//W3C//DTD SVG 1.1//EN" "http://www.w3.org/Graphics/SVG/1.1/DTD/svg11.dtd">
<svg version="1.1" xmlns="http://www.w3.org/2000/svg" xmlns:xlink="http://www.w3.org/1999/xlink" x="0px" y="0px" width="16px"
	 height="16px" viewBox="0 0 16 16" style="enable-background:new 0 0 16 16;" xml:space="preserve">
<g id="_x37_3-interface_-_fullscreen_widescreen" style="enable-background:new    ;">
	<path d="M0,2.999v2h1v-2C1,2.447,1.448,2,2,2h3V0.999H2C0.896,0.999,0,1.895,0,2.999z M1,12.999v-2H0v2c0,1.104,0.896,2,2,2h3v-1H2
		C1.448,13.999,1,13.552,1,12.999z M14,0.999h-3V2h3c0.553,0,1,0.447,1,0.999v2h1v-2C16,1.895,15.105,0.999,14,0.999z M15,12.999
		c0,0.553-0.447,1-1,1h-3v1h3c1.105,0,2-0.896,2-2v-2h-1V12.999z"/>
</g>
<g id="Layer_1">
</g>
</svg>
