<?xml version="1.0" encoding="iso-8859-1"?>
<!-- Generator: Adobe Illustrator 16.0.0, SVG Export Plug-In . SVG Version: 6.00 Build 0)  -->
<!DOCTYPE svg PUBLIC "-//W3C//DTD SVG 1.1//EN" "http://www.w3.org/Graphics/SVG/1.1/DTD/svg11.dtd">
<svg version="1.1" xmlns="http://www.w3.org/2000/svg" xmlns:xlink="http://www.w3.org/1999/xlink" x="0px" y="0px" width="16px"
	 height="16px" viewBox="0 0 16 16" style="enable-background:new 0 0 16 16;" xml:space="preserve">
<g id="_x31_40-layout_-_grid" style="enable-background:new    ;">
	<path d="M0,16h4v-4H0V16z M1,12.999h2V15H1V12.999z M0,9.999h4v-4H0V9.999z M1,6.999h2v2H1V6.999z M12-0.001V4h4v-4.001H12z
		 M15,2.999h-2V1h2V2.999z M6,9.999h4v-4H6V9.999z M7,6.999h2v2H7V6.999z M6,4h4v-4.001H6V4z M7,1h2v1.999H7V1z M12,16h4v-4h-4V16z
		 M13,12.999h2V15h-2V12.999z M6,16h4v-4H6V16z M7,12.999h2V15H7V12.999z M0,4h4v-4.001H0V4z M1,1h2v1.999H1V1z M12,9.999h4v-4h-4
		V9.999z M13,6.999h2v2h-2V6.999z"/>
</g>
<g id="Layer_1">
</g>
</svg>
