<?xml version="1.0" encoding="iso-8859-1"?>
<!-- Generator: Adobe Illustrator 16.0.0, SVG Export Plug-In . SVG Version: 6.00 Build 0)  -->
<!DOCTYPE svg PUBLIC "-//W3C//DTD SVG 1.1//EN" "http://www.w3.org/Graphics/SVG/1.1/DTD/svg11.dtd">
<svg version="1.1" xmlns="http://www.w3.org/2000/svg" xmlns:xlink="http://www.w3.org/1999/xlink" x="0px" y="0px" width="16px"
	 height="16px" viewBox="0 0 16 16" style="enable-background:new 0 0 16 16;" xml:space="preserve">
<g id="_x35_0-interface_-_arrow_left_bottom" style="enable-background:new    ;">
	<path d="M13.414,2.579c-0.777-0.775-2.037-0.774-2.816,0.002L7.079,6.095l-2.414-2.41C4.283,3.304,3.881,3.429,3.77,3.962
		l-1.781,9.246c-0.056,0.267,0.003,0.486,0.143,0.625c0.139,0.14,0.359,0.198,0.626,0.143l9.262-1.778
		c0.533-0.11,0.658-0.513,0.277-0.893l-2.404-2.4l3.52-3.513C14.191,4.614,14.191,3.355,13.414,2.579z M12.709,4.688L8.485,8.905
		l2.505,2.501l-7.933,1.503l1.505-7.921l2.516,2.513l4.223-4.217c0.391-0.389,1.02-0.389,1.408-0.001S13.098,4.301,12.709,4.688z"/>
</g>
<g id="Layer_1">
</g>
</svg>
