<?xml version="1.0" encoding="iso-8859-1"?>
<!-- Generator: Adobe Illustrator 16.0.0, SVG Export Plug-In . SVG Version: 6.00 Build 0)  -->
<!DOCTYPE svg PUBLIC "-//W3C//DTD SVG 1.1//EN" "http://www.w3.org/Graphics/SVG/1.1/DTD/svg11.dtd">
<svg version="1.1" xmlns="http://www.w3.org/2000/svg" xmlns:xlink="http://www.w3.org/1999/xlink" x="0px" y="0px" width="16px"
	 height="16px" viewBox="0 0 16 16" style="enable-background:new 0 0 16 16;" xml:space="preserve">
<g id="_x31_28-interface_-_arrow_top" style="enable-background:new    ;">
	<path d="M14-0.001H2c-1.104,0-2,0.896-2,2v12c0,1.104,0.896,2,2,2h12c1.105,0,2-0.896,2-2v-12C16,0.895,15.105-0.001,14-0.001z
		 M15,13.999c0,0.552-0.447,1-1,1H2c-0.552,0-1-0.448-1-1v-12c0-0.553,0.448-1,1-1h12c0.553,0,1,0.447,1,1V13.999z M8.34,5.156
		C8.336,5.151,8.338,5.145,8.333,5.141C8.235,5.043,8.106,4.997,7.977,4.999C7.848,4.998,7.719,5.044,7.621,5.144
		C7.616,5.147,7.618,5.154,7.614,5.158L3.133,9.153C2.939,9.348,2.94,9.661,3.135,9.854c0.195,0.191,0.509,0.191,0.703-0.003
		L7.98,6.158l4.167,3.671c0.193,0.192,0.508,0.191,0.701-0.003c0.193-0.193,0.193-0.507-0.002-0.699L8.34,5.156z"/>
</g>
<g id="Layer_1">
</g>
</svg>
