<?xml version="1.0" encoding="iso-8859-1"?>
<!-- Generator: Adobe Illustrator 16.0.0, SVG Export Plug-In . SVG Version: 6.00 Build 0)  -->
<!DOCTYPE svg PUBLIC "-//W3C//DTD SVG 1.1//EN" "http://www.w3.org/Graphics/SVG/1.1/DTD/svg11.dtd">
<svg version="1.1" xmlns="http://www.w3.org/2000/svg" xmlns:xlink="http://www.w3.org/1999/xlink" x="0px" y="0px" width="16px"
	 height="16px" viewBox="0 0 16 16" style="enable-background:new 0 0 16 16;" xml:space="preserve">
<g id="_x35_9-interface_-_target_lock" style="enable-background:new    ;">
	<path d="M8,0.999c-4.142,0-7.5,3.358-7.5,7.5c0,4.143,3.358,7.5,7.5,7.5c4.143,0,7.5-3.357,7.5-7.5
		C15.5,4.357,12.143,0.999,8,0.999z M8.5,14.949v-3.45c0-0.276-0.224-0.5-0.5-0.5c-0.276,0-0.5,0.224-0.5,0.5v3.45
		c-3.184-0.247-5.705-2.769-5.952-5.95H5c0.276,0,0.5-0.224,0.5-0.5s-0.224-0.5-0.5-0.5H1.548C1.795,4.817,4.316,2.296,7.5,2.05
		v3.449c0,0.276,0.224,0.5,0.5,0.5c0.276,0,0.5-0.224,0.5-0.5V2.05c3.184,0.246,5.706,2.768,5.952,5.949H11
		c-0.275,0-0.5,0.224-0.5,0.5s0.225,0.5,0.5,0.5h3.451C14.205,12.181,11.684,14.702,8.5,14.949z"/>
</g>
<g id="Layer_1">
</g>
</svg>
