<?xml version="1.0" encoding="iso-8859-1"?>
<!-- Generator: Adobe Illustrator 16.0.0, SVG Export Plug-In . SVG Version: 6.00 Build 0)  -->
<!DOCTYPE svg PUBLIC "-//W3C//DTD SVG 1.1//EN" "http://www.w3.org/Graphics/SVG/1.1/DTD/svg11.dtd">
<svg version="1.1" xmlns="http://www.w3.org/2000/svg" xmlns:xlink="http://www.w3.org/1999/xlink" x="0px" y="0px" width="16px"
	 height="16px" viewBox="0 0 16 16" style="enable-background:new 0 0 16 16;" xml:space="preserve">
<g id="_x31_06-layout_-_enlarge" style="enable-background:new    ;">
	<path d="M4.707,4H6c0.276,0,0.5-0.224,0.5-0.5c0-0.277-0.224-0.501-0.5-0.501H3.5C3.224,2.999,3,3.223,3,3.5v2.499
		c0,0.277,0.224,0.5,0.5,0.5S4,6.276,4,5.999V4.707l2.146,2.146C6.244,6.95,6.372,6.999,6.5,6.999S6.756,6.95,6.854,6.854
		c0.195-0.196,0.195-0.513,0-0.708L4.707,4z M6.146,9.146L4,11.292V10c0-0.276-0.224-0.501-0.5-0.501S3,9.724,3,10v2.499
		c0,0.276,0.224,0.5,0.5,0.5H6c0.276,0,0.5-0.224,0.5-0.5C6.5,12.224,6.276,12,6,12H4.707l2.146-2.147
		c0.195-0.195,0.195-0.512,0-0.707S6.342,8.95,6.146,9.146z M12.5,9.499C12.225,9.499,12,9.724,12,10v1.292L9.854,9.146
		c-0.195-0.195-0.512-0.195-0.707,0c-0.196,0.195-0.196,0.512,0,0.707L11.293,12H10c-0.275,0-0.5,0.224-0.5,0.499
		c0,0.276,0.225,0.5,0.5,0.5h2.5c0.275,0,0.5-0.224,0.5-0.5V10C13,9.724,12.775,9.499,12.5,9.499z M14-0.001H2c-1.103,0-2,0.897-2,2
		V14c0,1.103,0.897,2,2,2h12c1.104,0,2-0.897,2-2V1.999C16,0.896,15.104-0.001,14-0.001z M15,14c0,0.551-0.449,1-1,1H2
		c-0.552,0-1-0.449-1-1V1.999C1,1.448,1.448,1,2,1h12c0.551,0,1,0.448,1,0.999V14z M12.5,2.999H10c-0.275,0-0.5,0.224-0.5,0.501
		C9.5,3.776,9.725,4,10,4h1.293L9.146,6.146c-0.196,0.195-0.196,0.512,0,0.708C9.244,6.95,9.371,6.999,9.5,6.999
		c0.127,0,0.256-0.049,0.354-0.146L12,4.707v1.292c0,0.277,0.225,0.5,0.5,0.5s0.5-0.223,0.5-0.5V3.5
		C13,3.223,12.775,2.999,12.5,2.999z"/>
</g>
<g id="Layer_1">
</g>
</svg>
