<?xml version="1.0" encoding="iso-8859-1"?>
<!-- Generator: Adobe Illustrator 16.0.0, SVG Export Plug-In . SVG Version: 6.00 Build 0)  -->
<!DOCTYPE svg PUBLIC "-//W3C//DTD SVG 1.1//EN" "http://www.w3.org/Graphics/SVG/1.1/DTD/svg11.dtd">
<svg version="1.1" xmlns="http://www.w3.org/2000/svg" xmlns:xlink="http://www.w3.org/1999/xlink" x="0px" y="0px" width="16px"
	 height="16px" viewBox="0 0 16 16" style="enable-background:new 0 0 16 16;" xml:space="preserve">
<g id="_x38_3-interface_-_view_eye_watch" style="enable-background:new    ;">
	<path d="M8,2.499c-4.418,0-8,6-8,6s3.582,6,8,6c4.418,0,8-6,8-6S12.418,2.499,8,2.499z M8,13.499c-3.59,0-7-5-7-5s3.41-5,7-5
		s7,5,7,5S11.59,13.499,8,13.499z M8,4.499c-2.209,0-4,1.791-4,4s1.791,4,4,4s4-1.791,4-4S10.209,4.499,8,4.499z M8,11.499
		c-1.657,0-3-1.344-3-3s1.343-3,3-3c1.656,0,3,1.344,3,3S9.656,11.499,8,11.499z"/>
</g>
<g id="Layer_1">
</g>
</svg>
