<?xml version="1.0" encoding="iso-8859-1"?>
<!-- Generator: Adobe Illustrator 16.0.0, SVG Export Plug-In . SVG Version: 6.00 Build 0)  -->
<!DOCTYPE svg PUBLIC "-//W3C//DTD SVG 1.1//EN" "http://www.w3.org/Graphics/SVG/1.1/DTD/svg11.dtd">
<svg version="1.1" xmlns="http://www.w3.org/2000/svg" xmlns:xlink="http://www.w3.org/1999/xlink" x="0px" y="0px" width="16px"
	 height="16px" viewBox="0 0 16 16" style="enable-background:new 0 0 16 16;" xml:space="preserve">
<g id="_x36_9-interface_-_arrow_all" style="enable-background:new    ;">
	<path d="M15.979,15.415v-4.934c0-0.268-0.215-0.483-0.482-0.483s-0.482,0.216-0.482,0.483v3.831L8.7,7.999l6.314-6.313v3.83
		C15.014,5.784,15.229,6,15.496,6s0.482-0.216,0.482-0.483V0.586c0.004-0.021,0.01-0.042,0.014-0.063
		c0.002-0.037-0.008-0.065-0.014-0.103c-0.014-0.068-0.037-0.13-0.076-0.185c-0.02-0.031-0.014-0.07-0.041-0.098
		s-0.066-0.021-0.098-0.041c-0.055-0.038-0.115-0.063-0.186-0.076c-0.035-0.005-0.064-0.017-0.102-0.014
		c-0.021,0.004-0.041,0.009-0.063,0.013h-4.932c-0.268,0-0.484,0.217-0.484,0.483s0.217,0.482,0.484,0.482h3.83L8,7.299L1.686,0.985
		h3.832c0.267,0,0.483-0.216,0.483-0.482S5.785,0.02,5.518,0.02H0.582c-0.026-0.005-0.05-0.017-0.078-0.017
		c-0.137,0-0.259,0.058-0.347,0.148C0.156,0.152,0.155,0.152,0.154,0.153S0.153,0.155,0.152,0.156
		c-0.091,0.088-0.148,0.21-0.148,0.347c0,0.029,0.012,0.055,0.017,0.083v4.931C0.021,5.784,0.237,6,0.504,6
		c0.267,0,0.483-0.216,0.483-0.483V1.686L7.3,7.999l-6.313,6.313v-3.831c0-0.268-0.216-0.483-0.483-0.483
		c-0.267,0-0.483,0.216-0.483,0.483v4.931c-0.005,0.028-0.017,0.054-0.017,0.083c0,0.136,0.058,0.255,0.147,0.343
		c0.002,0.002,0.001,0.005,0.003,0.007c0.001,0.002,0.004,0.001,0.006,0.003c0.087,0.09,0.208,0.147,0.343,0.147
		c0.029,0,0.054-0.012,0.082-0.017h4.933c0.267,0,0.483-0.217,0.483-0.483s-0.216-0.482-0.483-0.482H1.687L8,8.699l6.314,6.313
		h-3.832c-0.268,0-0.484,0.216-0.484,0.482s0.217,0.483,0.484,0.483h4.932c0.027,0.005,0.053,0.017,0.082,0.017
		c0.137,0,0.258-0.058,0.346-0.148c0.002,0,0.004,0,0.004-0.001c0.002-0.001,0-0.003,0.002-0.004c0.09-0.088,0.148-0.21,0.148-0.347
		C15.996,15.467,15.984,15.442,15.979,15.415z"/>
</g>
<g id="Layer_1">
</g>
</svg>
