<?xml version="1.0" encoding="iso-8859-1"?>
<!-- Generator: Adobe Illustrator 16.0.0, SVG Export Plug-In . SVG Version: 6.00 Build 0)  -->
<!DOCTYPE svg PUBLIC "-//W3C//DTD SVG 1.1//EN" "http://www.w3.org/Graphics/SVG/1.1/DTD/svg11.dtd">
<svg version="1.1" xmlns="http://www.w3.org/2000/svg" xmlns:xlink="http://www.w3.org/1999/xlink" x="0px" y="0px" width="16px"
	 height="16px" viewBox="0 0 16 16" style="enable-background:new 0 0 16 16;" xml:space="preserve">
<g id="_x31_25-layout_-_wireframes" style="enable-background:new    ;">
	<path d="M2,13.999h5V8H2V13.999z M3,8.999h3v4H3V8.999z M2,6.999h12v-5H2V6.999z M3,2.999h10v3H3V2.999z M15-0.001H1
		c-0.552,0-1,0.448-1,1V15c0,0.552,0.448,0.999,1,0.999h14c0.553,0,1-0.447,1-0.999V0.999C16,0.447,15.553-0.001,15-0.001z
		 M15,14.499C15,14.775,14.775,15,14.5,15h-13C1.224,15,1,14.775,1,14.499v-13c0-0.276,0.224-0.5,0.5-0.5h13
		c0.275,0,0.5,0.224,0.5,0.5V14.499z M9,13.999h5V8H9V13.999z M10,8.999h3v4h-3V8.999z"/>
</g>
<g id="Layer_1">
</g>
</svg>
