<?xml version="1.0" encoding="iso-8859-1"?>
<!-- Generator: Adobe Illustrator 16.0.0, SVG Export Plug-In . SVG Version: 6.00 Build 0)  -->
<!DOCTYPE svg PUBLIC "-//W3C//DTD SVG 1.1//EN" "http://www.w3.org/Graphics/SVG/1.1/DTD/svg11.dtd">
<svg version="1.1" xmlns="http://www.w3.org/2000/svg" xmlns:xlink="http://www.w3.org/1999/xlink" x="0px" y="0px" width="16px"
	 height="16px" viewBox="0 0 16 16" style="enable-background:new 0 0 16 16;" xml:space="preserve">
<g id="_x34_5-interface_-_arrow_right" style="enable-background:new    ;">
	<path d="M15.666,7.454L7.833,2.146c-0.458-0.3-0.832-0.103-0.832,0.438V6.01H2.008c-1.104,0-2,0.895-2,1.997
		c0,1.104,0.896,1.998,2,1.998h4.993v3.411c0,0.54,0.375,0.737,0.832,0.438l7.833-5.309C15.895,8.396,16.01,8.197,16.01,8
		C16.01,7.802,15.895,7.604,15.666,7.454z M8,12.562V9.006H2.008c-0.552,0-1-0.447-1-0.999c0-0.551,0.447-0.998,1-0.998H8V3.438
		L14.695,8L8,12.562z"/>
</g>
<g id="Layer_1">
</g>
</svg>
