<?xml version="1.0" encoding="iso-8859-1"?>
<!-- Generator: Adobe Illustrator 16.0.0, SVG Export Plug-In . SVG Version: 6.00 Build 0)  -->
<!DOCTYPE svg PUBLIC "-//W3C//DTD SVG 1.1//EN" "http://www.w3.org/Graphics/SVG/1.1/DTD/svg11.dtd">
<svg version="1.1" xmlns="http://www.w3.org/2000/svg" xmlns:xlink="http://www.w3.org/1999/xlink" x="0px" y="0px" width="16px"
	 height="16px" viewBox="0 0 16 16" style="enable-background:new 0 0 16 16;" xml:space="preserve">
<g id="_x31_0-interface_-_arrow_left_bottom" style="enable-background:new    ;">
	<path d="M12.822,3.135c-0.191-0.19-0.5-0.188-0.691,0.003L4.025,11.3L3.999,5.5C3.998,5.24,3.772,5.03,3.496,5.031
		c-0.277,0.002-0.5,0.213-0.5,0.473l0.031,6.987c0,0.002,0,0.003,0,0.004s0,0.002,0,0.003l0,0.027c0,0.112,0.048,0.211,0.118,0.291
		c0.009,0.012,0.016,0.025,0.026,0.035c0.011,0.011,0.025,0.018,0.037,0.026c0.081,0.069,0.18,0.116,0.292,0.115h0.026
		c0.002,0,0.003,0.001,0.005,0.001s0.002-0.001,0.004-0.001l7-0.031c0.26-0.001,0.471-0.226,0.469-0.503
		c-0.002-0.276-0.213-0.499-0.473-0.498L4.72,11.987l8.106-8.162C13.016,3.635,13.016,3.325,12.822,3.135z"/>
</g>
<g id="Layer_1">
</g>
</svg>
