<?xml version="1.0" encoding="iso-8859-1"?>
<!-- Generator: Adobe Illustrator 16.0.0, SVG Export Plug-In . SVG Version: 6.00 Build 0)  -->
<!DOCTYPE svg PUBLIC "-//W3C//DTD SVG 1.1//EN" "http://www.w3.org/Graphics/SVG/1.1/DTD/svg11.dtd">
<svg version="1.1" xmlns="http://www.w3.org/2000/svg" xmlns:xlink="http://www.w3.org/1999/xlink" x="0px" y="0px" width="16px"
	 height="16px" viewBox="0 0 16 16" style="enable-background:new 0 0 16 16;" xml:space="preserve">
<g id="_x31_4-interface_-_arrow_top" style="enable-background:new    ;">
	<path d="M8.372,5.662C8.367,5.656,8.369,5.648,8.364,5.644c-0.098-0.1-0.228-0.146-0.356-0.145C7.878,5.497,7.75,5.543,7.65,5.642
		C7.645,5.646,7.647,5.655,7.643,5.66L3.638,9.64c-0.194,0.193-0.196,0.508-0.002,0.702s0.508,0.196,0.703,0.002l3.665-3.643
		l3.643,3.666c0.193,0.194,0.508,0.195,0.703,0.002c0.193-0.193,0.195-0.508,0.002-0.702L8.372,5.662z M8.025-0.001
		C3.606-0.015,0.014,3.556,0,7.974c-0.014,4.419,3.557,8.012,7.975,8.025c4.417,0.014,8.011-3.558,8.025-7.976
		S12.443,0.013,8.025-0.001z M7.978,14.999C4.112,14.987,0.988,11.844,1,7.978c0.012-3.866,3.156-6.99,7.022-6.979
		c3.865,0.012,6.99,3.155,6.978,7.021S11.844,15.011,7.978,14.999z"/>
</g>
<g id="Layer_1">
</g>
</svg>
