<?xml version="1.0" encoding="iso-8859-1"?>
<!-- Generator: Adobe Illustrator 16.0.0, SVG Export Plug-In . SVG Version: 6.00 Build 0)  -->
<!DOCTYPE svg PUBLIC "-//W3C//DTD SVG 1.1//EN" "http://www.w3.org/Graphics/SVG/1.1/DTD/svg11.dtd">
<svg version="1.1" xmlns="http://www.w3.org/2000/svg" xmlns:xlink="http://www.w3.org/1999/xlink" x="0px" y="0px" width="16px"
	 height="16px" viewBox="0 0 16 16" style="enable-background:new 0 0 16 16;" xml:space="preserve">
<g id="_x37_0-interface_-_arrow_all" style="enable-background:new    ;">
	<path d="M15.967,8.476c0-0.006-0.002-0.011-0.004-0.017C15.957,8.34,15.91,8.233,15.836,8.15c-0.006-0.007-2.029-2.02-2.029-2.02
		c-0.189-0.19-0.498-0.19-0.689,0c-0.189,0.19-0.189,0.499,0,0.689l1.164,1.164H8.983V2.686l1.166,1.165
		c0.189,0.19,0.498,0.19,0.688,0c0.191-0.19,0.191-0.499,0-0.689c0,0-1.973-1.972-1.977-1.976C8.848,1.173,8.794,1.129,8.774,1.114
		C8.701,1.056,8.617,1.016,8.518,1.008C8.508,1.007,8.5,1.001,8.491,1.001c-0.002,0-0.004-0.002-0.007-0.002
		c-0.002,0-0.004,0.002-0.007,0.002c-0.007,0-0.012,0.004-0.019,0.004C8.34,1.011,8.235,1.057,8.153,1.131
		C8.146,1.138,8.124,1.159,8.118,1.166C8.114,1.17,6.132,3.161,6.132,3.161c-0.19,0.19-0.19,0.499,0,0.689
		c0.19,0.19,0.499,0.19,0.689,0l1.165-1.165v5.299H2.687L3.851,6.82c0.19-0.19,0.19-0.499,0-0.689c-0.19-0.19-0.499-0.19-0.689,0
		c0,0-1.991,1.981-1.996,1.986C1.159,8.123,1.149,8.12,1.143,8.127C1.136,8.133,1.139,8.144,1.132,8.15
		C1.058,8.233,1.011,8.34,1.005,8.459c0,0.006-0.003,0.011-0.003,0.017C1.001,8.479,1,8.48,1,8.483S1.001,8.488,1.002,8.49
		c0,0.01,0.006,0.017,0.006,0.025c0.008,0.1,0.048,0.185,0.107,0.259C1.13,8.794,1.124,8.821,1.143,8.84
		c0.012,0.013,0.05,0.027,0.054,0.03l1.965,1.966c0.19,0.189,0.499,0.189,0.689,0c0.19-0.19,0.19-0.499,0-0.689L2.687,8.982h5.298
		v5.298l-1.165-1.163c-0.19-0.19-0.499-0.19-0.689,0c-0.19,0.189-0.19,0.498,0,0.688c0,0,2.013,2.023,2.02,2.029
		c0.082,0.075,0.189,0.122,0.308,0.128c0.007,0,0.011,0.004,0.018,0.004c0.002,0,0.005,0.001,0.007,0.001
		c0.003,0,0.005-0.002,0.008-0.002c0.009,0,0.016-0.006,0.024-0.006c0.1-0.007,0.185-0.048,0.259-0.107
		c0.021-0.015,2.061-2.047,2.061-2.047c0.191-0.19,0.191-0.499,0-0.688c-0.189-0.19-0.498-0.19-0.688,0l-1.166,1.164V8.982h5.298
		l-1.164,1.164c-0.189,0.19-0.189,0.499,0,0.689c0.191,0.189,0.5,0.189,0.689,0c0,0,2.033-2.042,2.047-2.063
		c0.059-0.073,0.1-0.158,0.107-0.257c0-0.01,0.006-0.017,0.006-0.026c0-0.002,0.002-0.004,0.002-0.007S15.967,8.479,15.967,8.476z"
		/>
</g>
<g id="Layer_1">
</g>
</svg>
