<?xml version="1.0" encoding="iso-8859-1"?>
<!-- Generator: Adobe Illustrator 16.0.0, SVG Export Plug-In . SVG Version: 6.00 Build 0)  -->
<!DOCTYPE svg PUBLIC "-//W3C//DTD SVG 1.1//EN" "http://www.w3.org/Graphics/SVG/1.1/DTD/svg11.dtd">
<svg version="1.1" xmlns="http://www.w3.org/2000/svg" xmlns:xlink="http://www.w3.org/1999/xlink" x="0px" y="0px" width="16px"
	 height="16px" viewBox="0 0 16 16" style="enable-background:new 0 0 16 16;" xml:space="preserve">
<g id="_x31_05-interface_-_resize_fullscreen" style="enable-background:new    ;">
	<path d="M6.654,8.643L3,12.297V9.499c0-0.276-0.224-0.5-0.5-0.5c-0.276,0-0.5,0.224-0.5,0.5v4c0,0.008,0.004,0.014,0.004,0.021
		c0.005,0.122,0.053,0.231,0.131,0.315c0.005,0.006,0.003,0.015,0.008,0.021c0.006,0.006,0.015,0.004,0.021,0.009
		c0.083,0.077,0.192,0.125,0.313,0.13c0.008,0,0.014,0.005,0.022,0.005h4c0.276,0,0.5-0.225,0.5-0.5c0-0.276-0.224-0.5-0.5-0.5
		H3.702l3.654-3.654c0.194-0.194,0.194-0.509,0-0.702C7.163,8.448,6.848,8.448,6.654,8.643z M13.865,2.162
		c-0.006-0.006-0.004-0.015-0.008-0.02c-0.006-0.006-0.014-0.003-0.02-0.008c-0.084-0.078-0.195-0.127-0.318-0.132
		c-0.006,0-0.012-0.004-0.02-0.004l0,0h-4c-0.275,0-0.5,0.224-0.5,0.5s0.225,0.5,0.5,0.5h2.799L8.643,6.653
		c-0.193,0.194-0.193,0.509,0,0.702c0.194,0.194,0.509,0.194,0.703,0L13,3.701v2.798c0,0.276,0.225,0.5,0.5,0.5s0.5-0.224,0.5-0.5
		v-4c0-0.008-0.004-0.014-0.004-0.021C13.99,2.356,13.943,2.246,13.865,2.162z M14-0.001H2c-1.104,0-2,0.896-2,2v12
		c0,1.104,0.896,2,2,2h12c1.105,0,2-0.896,2-2v-12C16,0.895,15.105-0.001,14-0.001z M15,13.999c0,0.552-0.447,1-1,1H2
		c-0.552,0-1-0.448-1-1v-12c0-0.552,0.448-1,1-1h12c0.553,0,1,0.448,1,1V13.999z"/>
</g>
<g id="Layer_1">
</g>
</svg>
