<?xml version="1.0" encoding="iso-8859-1"?>
<!-- Generator: Adobe Illustrator 16.0.0, SVG Export Plug-In . SVG Version: 6.00 Build 0)  -->
<!DOCTYPE svg PUBLIC "-//W3C//DTD SVG 1.1//EN" "http://www.w3.org/Graphics/SVG/1.1/DTD/svg11.dtd">
<svg version="1.1" xmlns="http://www.w3.org/2000/svg" xmlns:xlink="http://www.w3.org/1999/xlink" x="0px" y="0px" width="16px"
	 height="16px" viewBox="0 0 16 16" style="enable-background:new 0 0 16 16;" xml:space="preserve">
<g id="_x32_8-interface_-_clock_time" style="enable-background:new    ;">
	<path d="M12,8.004H8V3.999c0-0.276-0.224-0.5-0.5-0.5c-0.276,0-0.5,0.224-0.5,0.5v4.489c0,0.004-0.002,0.007-0.002,0.011
		c0,0.109,0.043,0.205,0.104,0.287C7.192,8.911,7.333,8.998,7.5,8.998c0.006,0,0.012-0.003,0.019-0.003H12
		c0.277,0,0.502-0.223,0.502-0.496C12.502,8.225,12.277,8.004,12,8.004z M8-0.001c-4.418,0-8,3.581-8,8c0,4.418,3.582,8,8,8
		c4.418,0,8-3.582,8-8C16,3.58,12.418-0.001,8-0.001z M8,14.999c-3.866,0-7-3.135-7-7c0-3.866,3.134-7,7-7c3.865,0,7,3.134,7,7
		C15,11.864,11.865,14.999,8,14.999z"/>
</g>
<g id="Layer_1">
</g>
</svg>
