<?xml version="1.0" encoding="iso-8859-1"?>
<!-- Generator: Adobe Illustrator 16.0.0, SVG Export Plug-In . SVG Version: 6.00 Build 0)  -->
<!DOCTYPE svg PUBLIC "-//W3C//DTD SVG 1.1//EN" "http://www.w3.org/Graphics/SVG/1.1/DTD/svg11.dtd">
<svg version="1.1" xmlns="http://www.w3.org/2000/svg" xmlns:xlink="http://www.w3.org/1999/xlink" x="0px" y="0px" width="16px"
	 height="16px" viewBox="0 0 16 16" style="enable-background:new 0 0 16 16;" xml:space="preserve">
<g id="_x32_7-interface_-_meter_dashboard" style="enable-background:new    ;">
	<path style="fill-rule:evenodd;clip-rule:evenodd;" d="M9.615,6.414C9.326,6.341,9.004,6.485,8.897,6.737l-1.385,3.264
		C7.508,10.001,7.504,10,7.5,10C6.672,10,6,10.671,6,11.5c0,0.828,0.672,1.499,1.5,1.499S9,12.328,9,11.5
		c0-0.439-0.192-0.831-0.493-1.105l1.44-3.393C10.053,6.75,9.904,6.487,9.615,6.414z M7.5,12.001c-0.277,0-0.5-0.224-0.5-0.5
		s0.223-0.5,0.5-0.5c0.275,0,0.5,0.224,0.5,0.5S7.776,12.001,7.5,12.001z M8,0C3.582,0,0,3.581,0,8s3.582,7.999,8,7.999
		c4.417,0,8-3.58,8-7.999S12.418,0,8,0z M8,15c-3.867,0-7-3.134-7-7s3.134-7,7-7c3.865,0,7,3.134,7,7S11.865,15,8,15z M8,3
		C5.238,3,3,5.238,3,8h1c0-2.209,1.791-4,4-4c2.208,0,4,1.791,4,4h1C13,5.238,10.762,3,8,3z"/>
</g>
<g id="Layer_1">
</g>
</svg>
