<?xml version="1.0" encoding="iso-8859-1"?>
<!-- Generator: Adobe Illustrator 16.0.0, SVG Export Plug-In . SVG Version: 6.00 Build 0)  -->
<!DOCTYPE svg PUBLIC "-//W3C//DTD SVG 1.1//EN" "http://www.w3.org/Graphics/SVG/1.1/DTD/svg11.dtd">
<svg version="1.1" xmlns="http://www.w3.org/2000/svg" xmlns:xlink="http://www.w3.org/1999/xlink" x="0px" y="0px" width="16px"
	 height="16px" viewBox="0 0 16 16" style="enable-background:new 0 0 16 16;" xml:space="preserve">
<g id="_x31_34-interface_-_tick_done" style="enable-background:new    ;">
	<path d="M14.855,4.081l-2.512-2.444c-0.199-0.193-0.52-0.193-0.717,0l-6.83,7.122L3.015,7.024c-0.198-0.192-0.52-0.192-0.718,0
		L0.145,9.12c-0.198,0.193-0.198,0.506,0,0.698l4.664,4.54c0.198,0.192,0.52,0.192,0.718,0l9.329-9.579
		C15.053,4.587,15.053,4.273,14.855,4.081z M5.158,13.301L1.221,9.47l1.435-1.397L4.45,9.818c0.198,0.193,0.52,0.193,0.718,0
		l6.83-7.122l1.791,1.743L5.158,13.301z"/>
</g>
<g id="Layer_1">
</g>
</svg>
