<?xml version="1.0" encoding="iso-8859-1"?>
<!-- Generator: Adobe Illustrator 16.0.0, SVG Export Plug-In . SVG Version: 6.00 Build 0)  -->
<!DOCTYPE svg PUBLIC "-//W3C//DTD SVG 1.1//EN" "http://www.w3.org/Graphics/SVG/1.1/DTD/svg11.dtd">
<svg version="1.1" xmlns="http://www.w3.org/2000/svg" xmlns:xlink="http://www.w3.org/1999/xlink" x="0px" y="0px" width="16px"
	 height="16px" viewBox="0 0 16 16" style="enable-background:new 0 0 16 16;" xml:space="preserve">
<g id="_x31_45-interface_-_keypad_number" style="enable-background:new    ;">
	<path style="fill-rule:evenodd;clip-rule:evenodd;" d="M2,10c-1.104,0-2,0.896-2,2s0.896,2,2,2s2-0.896,2-2S3.104,10,2,10z
		 M2,13.001c-0.552,0-1-0.447-1-1s0.448-1,1-1s1,0.447,1,1S2.552,13.001,2,13.001z M2,5C0.896,5,0,5.896,0,7s0.896,2,2,2
		s2-0.896,2-2S3.104,5,2,5z M2,8.001c-0.552,0-1-0.447-1-1s0.448-1,1-1s1,0.447,1,1S2.552,8.001,2,8.001z M14,4c1.104,0,2-0.896,2-2
		s-0.896-2-2-2c-1.105,0-2,0.896-2,2S12.895,4,14,4z M14,1.001c0.553,0,1,0.447,1,1s-0.447,1-1,1s-1-0.447-1-1
		S13.447,1.001,14,1.001z M14,5c-1.105,0-2,0.896-2,2s0.895,2,2,2c1.104,0,2-0.896,2-2S15.104,5,14,5z M14,8.001
		c-0.553,0-1-0.447-1-1s0.447-1,1-1s1,0.447,1,1S14.553,8.001,14,8.001z M8,5C6.895,5,6,5.896,6,7s0.895,2,2,2c1.103,0,2-0.896,2-2
		S9.104,5,8,5z M8,8.001c-0.553,0-1-0.447-1-1s0.447-1,1-1c0.552,0,1,0.447,1,1S8.552,8.001,8,8.001z M8,0C6.895,0,6,0.896,6,2
		s0.895,2,2,2c1.103,0,2-0.896,2-2S9.104,0,8,0z M8,3.001c-0.553,0-1-0.447-1-1s0.447-1,1-1c0.552,0,1,0.447,1,1
		S8.552,3.001,8,3.001z M8,10c-1.105,0-2,0.896-2,2s0.895,2,2,2c1.103,0,2-0.896,2-2S9.104,10,8,10z M8,13.001c-0.553,0-1-0.447-1-1
		s0.447-1,1-1c0.552,0,1,0.447,1,1S8.552,13.001,8,13.001z M14,10c-1.105,0-2,0.896-2,2s0.895,2,2,2c1.104,0,2-0.896,2-2
		S15.104,10,14,10z M14,13.001c-0.553,0-1-0.447-1-1s0.447-1,1-1s1,0.447,1,1S14.553,13.001,14,13.001z M2,0C0.896,0,0,0.896,0,2
		s0.896,2,2,2s2-0.896,2-2S3.104,0,2,0z M2,3.001c-0.552,0-1-0.447-1-1s0.448-1,1-1s1,0.447,1,1S2.552,3.001,2,3.001z"/>
</g>
<g id="Layer_1">
</g>
</svg>
