<?xml version="1.0" encoding="iso-8859-1"?>
<!-- Generator: Adobe Illustrator 16.0.0, SVG Export Plug-In . SVG Version: 6.00 Build 0)  -->
<!DOCTYPE svg PUBLIC "-//W3C//DTD SVG 1.1//EN" "http://www.w3.org/Graphics/SVG/1.1/DTD/svg11.dtd">
<svg version="1.1" xmlns="http://www.w3.org/2000/svg" xmlns:xlink="http://www.w3.org/1999/xlink" x="0px" y="0px" width="16px"
	 height="16px" viewBox="0 0 16 16" style="enable-background:new 0 0 16 16;" xml:space="preserve">
<g id="_x36_5-interface_-_arrow_horizontal" style="enable-background:new    ;">
	<path d="M15.967,8.476c0-0.006-0.004-0.011-0.004-0.018c-0.006-0.118-0.053-0.225-0.127-0.307c-0.006-0.007-0.004-0.017-0.01-0.023
		c-0.02-0.021-3.018-2.986-3.018-2.986c-0.191-0.19-0.5-0.19-0.689,0c-0.191,0.189-0.191,0.497,0,0.687l2.162,2.157H1.688
		L3.85,5.828c0.19-0.189,0.19-0.497,0-0.687c-0.19-0.19-0.499-0.19-0.689,0c0,0-2.998,2.966-3.018,2.986
		c-0.007,0.007-0.004,0.017-0.01,0.023C0.058,8.233,0.011,8.34,0.005,8.459c0,0.006-0.003,0.011-0.003,0.017
		C0.001,8.479,0,8.48,0,8.483S0.001,8.488,0.001,8.49c0,0.01,0.006,0.017,0.006,0.025c0.007,0.1,0.048,0.184,0.107,0.257
		C0.129,8.793,0.124,8.821,0.143,8.84c0.021,0.021,3.018,2.986,3.018,2.986c0.19,0.189,0.499,0.189,0.689,0
		c0.19-0.19,0.19-0.498,0-0.688L1.687,8.981h12.594l-2.162,2.156c-0.191,0.19-0.191,0.498,0,0.688c0.189,0.189,0.498,0.189,0.689,0
		c0,0,2.996-2.966,3.018-2.986c0.02-0.019,0.014-0.047,0.027-0.067c0.059-0.073,0.1-0.157,0.107-0.257
		c0-0.009,0.006-0.016,0.006-0.025c0-0.002,0.002-0.004,0.002-0.007S15.967,8.479,15.967,8.476z"/>
</g>
<g id="Layer_1">
</g>
</svg>
