<?xml version="1.0" encoding="iso-8859-1"?>
<!-- Generator: Adobe Illustrator 16.0.0, SVG Export Plug-In . SVG Version: 6.00 Build 0)  -->
<!DOCTYPE svg PUBLIC "-//W3C//DTD SVG 1.1//EN" "http://www.w3.org/Graphics/SVG/1.1/DTD/svg11.dtd">
<svg version="1.1" xmlns="http://www.w3.org/2000/svg" xmlns:xlink="http://www.w3.org/1999/xlink" x="0px" y="0px" width="16px"
	 height="16px" viewBox="0 0 16 16" style="enable-background:new 0 0 16 16;" xml:space="preserve">
<g id="_x37_9-interface_-_house_home" style="enable-background:new    ;">
	<path d="M8-0.001l-8,9h3v7h4v-0.5v-0.5v-2.5c0-0.276,0.224-0.5,0.5-0.5h1c0.276,0,0.5,0.224,0.5,0.5v2.5v0.5v0.5h4v-7h3L8-0.001z
		 M12,7.999v7h-2v-3c0-0.553-0.447-1-1-1H7c-0.552,0-1,0.447-1,1v3H4v-7H2l6-6.5l6,6.5H12z"/>
</g>
<g id="Layer_1">
</g>
</svg>
