<?xml version="1.0" encoding="iso-8859-1"?>
<!-- Generator: Adobe Illustrator 16.0.0, SVG Export Plug-In . SVG Version: 6.00 Build 0)  -->
<!DOCTYPE svg PUBLIC "-//W3C//DTD SVG 1.1//EN" "http://www.w3.org/Graphics/SVG/1.1/DTD/svg11.dtd">
<svg version="1.1" xmlns="http://www.w3.org/2000/svg" xmlns:xlink="http://www.w3.org/1999/xlink" x="0px" y="0px" width="16px"
	 height="16px" viewBox="0 0 16 16" style="enable-background:new 0 0 16 16;" xml:space="preserve">
<g id="_x31_6-interface_-_arrow_bottom" style="enable-background:new    ;">
	<path d="M8.025-0.001C3.606-0.015,0.014,3.556,0,7.974c-0.014,4.419,3.557,8.012,7.975,8.025c4.417,0.014,8.011-3.558,8.025-7.976
		S12.443,0.013,8.025-0.001z M7.979,14.999C4.112,14.987,0.988,11.844,1,7.978c0.012-3.866,3.156-6.99,7.022-6.979
		c3.865,0.012,6.99,3.155,6.978,7.021S11.844,15.011,7.979,14.999z M11.662,5.653L7.996,9.297L4.353,5.631
		C4.16,5.436,3.845,5.436,3.65,5.629C3.456,5.822,3.455,6.137,3.648,6.331l3.98,4.005c0.005,0.005,0.002,0.013,0.007,0.019
		c0.099,0.099,0.228,0.146,0.356,0.145c0.129,0.002,0.258-0.044,0.357-0.143c0.006-0.005,0.003-0.014,0.008-0.019l4.004-3.98
		c0.195-0.192,0.195-0.507,0.002-0.702C12.17,5.461,11.855,5.46,11.662,5.653z"/>
</g>
<g id="Layer_1">
</g>
</svg>
