<?xml version="1.0" encoding="iso-8859-1"?>
<!-- Generator: Adobe Illustrator 16.0.0, SVG Export Plug-In . SVG Version: 6.00 Build 0)  -->
<!DOCTYPE svg PUBLIC "-//W3C//DTD SVG 1.1//EN" "http://www.w3.org/Graphics/SVG/1.1/DTD/svg11.dtd">
<svg version="1.1" xmlns="http://www.w3.org/2000/svg" xmlns:xlink="http://www.w3.org/1999/xlink" x="0px" y="0px" width="16px"
	 height="16px" viewBox="0 0 16 16" style="enable-background:new 0 0 16 16;" xml:space="preserve">
<g id="_x34_9-interface_-_arrow_right_bottom" style="enable-background:new    ;">
	<path d="M14.42,13.208l-1.783-9.246c-0.111-0.533-0.514-0.658-0.896-0.277l-2.416,2.41L5.8,2.581
		C5.021,1.805,3.758,1.804,2.98,2.579C2.202,3.355,2.203,4.614,2.982,5.392l3.523,3.513l-2.406,2.4
		c-0.382,0.38-0.257,0.782,0.278,0.893l9.273,1.778c0.268,0.056,0.488-0.003,0.627-0.143C14.418,13.694,14.477,13.475,14.42,13.208z
		 M5.407,11.406l2.508-2.501L3.687,4.688c-0.39-0.388-0.39-1.018-0.001-1.405s1.021-0.388,1.41,0.001l4.229,4.217l2.52-2.513
		l1.508,7.921L5.407,11.406z"/>
</g>
<g id="Layer_1">
</g>
</svg>
