<?xml version="1.0" encoding="iso-8859-1"?>
<!-- Generator: Adobe Illustrator 16.0.0, SVG Export Plug-In . SVG Version: 6.00 Build 0)  -->
<!DOCTYPE svg PUBLIC "-//W3C//DTD SVG 1.1//EN" "http://www.w3.org/Graphics/SVG/1.1/DTD/svg11.dtd">
<svg version="1.1" xmlns="http://www.w3.org/2000/svg" xmlns:xlink="http://www.w3.org/1999/xlink" x="0px" y="0px" width="16px"
	 height="16px" viewBox="0 0 16 16" style="enable-background:new 0 0 16 16;" xml:space="preserve">
<g id="_x31_9-interface_-_long_arrow_right" style="enable-background:new    ;">
	<path d="M13.365,8.161c-0.006-0.005-0.004-0.014-0.008-0.019c-0.006-0.006-0.014-0.006-0.02-0.009
		c-0.004-0.003-0.01-0.005-0.014-0.008L9.846,5.143c-0.193-0.194-0.508-0.194-0.703,0c-0.193,0.193-0.193,0.508,0,0.702l2.514,2.154
		H3.5c-0.276,0-0.5,0.224-0.5,0.5s0.224,0.5,0.5,0.5h8.156l-2.514,2.154c-0.193,0.194-0.193,0.508,0,0.702
		c0.195,0.194,0.51,0.194,0.703,0l3.477-2.982c0.006-0.004,0.012-0.006,0.016-0.01c0.006-0.002,0.014-0.003,0.02-0.008
		c0.004-0.005,0.002-0.014,0.006-0.019C13.447,8.747,13.5,8.63,13.5,8.499S13.447,8.25,13.365,8.161z M8.5,0.999
		c-4.143,0-7.5,3.357-7.5,7.5s3.358,7.5,7.5,7.5c4.142,0,7.5-3.357,7.5-7.5S12.643,0.999,8.5,0.999z M8.5,14.999
		c-3.59,0-6.5-2.91-6.5-6.5s2.91-6.5,6.5-6.5c3.589,0,6.5,2.91,6.5,6.5S12.09,14.999,8.5,14.999z"/>
</g>
<g id="Layer_1">
</g>
</svg>
