<?xml version="1.0" encoding="iso-8859-1"?>
<!-- Generator: Adobe Illustrator 16.0.0, SVG Export Plug-In . SVG Version: 6.00 Build 0)  -->
<!DOCTYPE svg PUBLIC "-//W3C//DTD SVG 1.1//EN" "http://www.w3.org/Graphics/SVG/1.1/DTD/svg11.dtd">
<svg version="1.1" xmlns="http://www.w3.org/2000/svg" xmlns:xlink="http://www.w3.org/1999/xlink" x="0px" y="0px" width="16px"
	 height="16px" viewBox="0 0 16 16" style="enable-background:new 0 0 16 16;" xml:space="preserve">
<g id="_x35_6-interface_-_like_heart_love" style="enable-background:new    ;">
	<path d="M11.5-0.001c-1.5,0-3.5,2.58-3.5,2.58s-2-2.58-3.5-2.58C1.462-0.001,0,1.526,0,4.684C0,7.65,8,16.003,8,16.003
		s8-8.353,8-11.319C16,1.526,14.537-0.001,11.5-0.001z M1,4.822C1,2.158,1.842,1.03,4.5,1.03C5.289,1.03,8,3.611,8,3.611
		s2.711-2.581,3.5-2.581c2.658,0,3.5,1.128,3.5,3.792c0,2.503-7,9.632-7,9.632S1,7.325,1,4.822z"/>
</g>
<g id="Layer_1">
</g>
</svg>
