<?xml version="1.0" encoding="iso-8859-1"?>
<!-- Generator: Adobe Illustrator 16.0.0, SVG Export Plug-In . SVG Version: 6.00 Build 0)  -->
<!DOCTYPE svg PUBLIC "-//W3C//DTD SVG 1.1//EN" "http://www.w3.org/Graphics/SVG/1.1/DTD/svg11.dtd">
<svg version="1.1" xmlns="http://www.w3.org/2000/svg" xmlns:xlink="http://www.w3.org/1999/xlink" x="0px" y="0px" width="16px"
	 height="16px" viewBox="0 0 16 16" style="enable-background:new 0 0 16 16;" xml:space="preserve">
<g id="_x36_6-interface_-_arrow_vertical" style="enable-background:new    ;">
	<path d="M10.166,12.143L8,14.309V1.689l2.166,2.167c0.191,0.19,0.5,0.19,0.691,0s0.191-0.5,0-0.69c0,0-3.046-3.037-3.067-3.052
		C7.717,0.056,7.632,0.016,7.533,0.008c-0.01-0.001-0.017-0.007-0.026-0.007c-0.002,0-0.004-0.002-0.007-0.002
		S7.495,0.001,7.493,0.001c-0.007,0-0.012,0.003-0.019,0.004C7.356,0.011,7.25,0.057,7.168,0.131
		C7.161,0.138,4.143,3.166,4.143,3.166c-0.19,0.19-0.19,0.5,0,0.69c0.191,0.19,0.5,0.19,0.69,0L7,1.689v12.619l-2.167-2.166
		c-0.19-0.191-0.5-0.191-0.69,0c-0.19,0.19-0.19,0.499,0,0.689c0,0,3.017,3.028,3.023,3.034c0.083,0.075,0.189,0.121,0.309,0.128
		c0.006,0,0.011,0.003,0.018,0.003c0.002,0,0.004,0.002,0.007,0.002c0.002,0,0.004-0.002,0.007-0.002
		c0.009,0,0.017-0.006,0.026-0.006c0.1-0.008,0.185-0.049,0.258-0.107c0.021-0.015,3.066-3.052,3.066-3.052
		c0.191-0.19,0.191-0.499,0-0.689C10.666,11.951,10.357,11.951,10.166,12.143z"/>
</g>
<g id="Layer_1">
</g>
</svg>
