<?xml version="1.0" encoding="iso-8859-1"?>
<!-- Generator: Adobe Illustrator 16.0.0, SVG Export Plug-In . SVG Version: 6.00 Build 0)  -->
<!DOCTYPE svg PUBLIC "-//W3C//DTD SVG 1.1//EN" "http://www.w3.org/Graphics/SVG/1.1/DTD/svg11.dtd">
<svg version="1.1" xmlns="http://www.w3.org/2000/svg" xmlns:xlink="http://www.w3.org/1999/xlink" x="0px" y="0px" width="16px"
	 height="16px" viewBox="0 0 16 16" style="enable-background:new 0 0 16 16;" xml:space="preserve">
<g id="_x35_-interface_-_arrow_right" style="enable-background:new    ;">
	<path d="M14.967,8.477c0-0.011-0.006-0.019-0.008-0.028c-0.008-0.098-0.047-0.181-0.104-0.253c-0.016-0.021-0.01-0.05-0.029-0.068
		c-0.016-0.016-0.039-0.01-0.057-0.023c-0.008-0.006-0.012-0.016-0.02-0.021L9.314,3.141c-0.189-0.189-0.499-0.189-0.689,0
		c-0.19,0.191-0.19,0.499,0,0.689l4.572,4.154H1.499C1.223,7.984,1,8.208,1,8.483s0.223,0.498,0.499,0.498h11.698l-4.572,4.155
		c-0.19,0.19-0.19,0.498,0,0.688s0.5,0.19,0.689,0l5.463-4.966c0.008-0.006,0.018-0.004,0.025-0.01
		c0.006-0.006,0.018-0.004,0.023-0.01c0.008-0.007,0.004-0.018,0.01-0.024c0.074-0.083,0.121-0.188,0.127-0.308
		c0-0.006,0.004-0.011,0.004-0.017c0-0.003,0.002-0.005,0.002-0.008S14.967,8.479,14.967,8.477z"/>
</g>
<g id="Layer_1">
</g>
</svg>
