<?xml version="1.0" encoding="iso-8859-1"?>
<!-- Generator: Adobe Illustrator 16.0.0, SVG Export Plug-In . SVG Version: 6.00 Build 0)  -->
<!DOCTYPE svg PUBLIC "-//W3C//DTD SVG 1.1//EN" "http://www.w3.org/Graphics/SVG/1.1/DTD/svg11.dtd">
<svg version="1.1" xmlns="http://www.w3.org/2000/svg" xmlns:xlink="http://www.w3.org/1999/xlink" x="0px" y="0px" width="16px"
	 height="16px" viewBox="0 0 16 16" style="enable-background:new 0 0 16 16;" xml:space="preserve">
<g id="_x33_5-interface_-_search" style="enable-background:new    ;">
	<path d="M15.857,15.183L11.4,10.727c0.984-1.14,1.6-2.604,1.6-4.228c0-3.59-2.91-6.5-6.5-6.5S0,2.909,0,6.499s2.91,6.5,6.5,6.5
		c1.623,0,3.088-0.616,4.227-1.6l4.457,4.457c0.186,0.186,0.488,0.186,0.674,0C16.043,15.67,16.043,15.368,15.857,15.183z
		 M6.5,11.999c-3.038,0-5.5-2.462-5.5-5.5c0-3.037,2.462-5.5,5.5-5.5c3.037,0,5.5,2.463,5.5,5.5C12,9.537,9.537,11.999,6.5,11.999z"
		/>
</g>
<g id="Layer_1">
</g>
</svg>
