<?xml version="1.0" encoding="iso-8859-1"?>
<!-- Generator: Adobe Illustrator 16.0.0, SVG Export Plug-In . SVG Version: 6.00 Build 0)  -->
<!DOCTYPE svg PUBLIC "-//W3C//DTD SVG 1.1//EN" "http://www.w3.org/Graphics/SVG/1.1/DTD/svg11.dtd">
<svg version="1.1" xmlns="http://www.w3.org/2000/svg" xmlns:xlink="http://www.w3.org/1999/xlink" x="0px" y="0px" width="16px"
	 height="16px" viewBox="0 0 16 16" style="enable-background:new 0 0 16 16;" xml:space="preserve">
<g id="_x31_42-interface_-_widescreen" style="enable-background:new    ;">
	<path d="M4.5,10.999c-0.276,0-0.5-0.224-0.5-0.5v-0.5v-1H0v1v2c0,1.656,1.343,3,3,3h3h1v-4H6H4.5z M6,13.999H3
		c-1.104,0-2-0.896-2-2v-2h2v1c0,0.553,0.448,1,1,1h2V13.999z M13,0.999h-3H9v4h1h1.5c0.275,0,0.5,0.224,0.5,0.5v0.5v1h4v-1v-2
		C16,2.342,14.656,0.999,13,0.999z M15,5.999h-2v-1c0-0.553-0.447-1-1-1h-2v-2h3c1.105,0,2,0.896,2,2V5.999z M12,9.999v0.5
		c0,0.276-0.225,0.5-0.5,0.5H10H9v4h1h3c1.656,0,3-1.344,3-3v-2v-1h-4V9.999z M13,10.999v-1h2v2c0,1.104-0.895,2-2,2h-3v-2h2
		C12.553,11.999,13,11.552,13,10.999z M3,0.999c-1.657,0-3,1.343-3,3v2v1h4v-1v-0.5c0-0.276,0.224-0.5,0.5-0.5H6h1v-4H6H3z M6,3.999
		H4c-0.552,0-1,0.447-1,1v1H1v-2c0-1.104,0.896-2,2-2h3V3.999z"/>
</g>
<g id="Layer_1">
</g>
</svg>
