<?xml version="1.0" encoding="iso-8859-1"?>
<!-- Generator: Adobe Illustrator 16.0.0, SVG Export Plug-In . SVG Version: 6.00 Build 0)  -->
<!DOCTYPE svg PUBLIC "-//W3C//DTD SVG 1.1//EN" "http://www.w3.org/Graphics/SVG/1.1/DTD/svg11.dtd">
<svg version="1.1" xmlns="http://www.w3.org/2000/svg" xmlns:xlink="http://www.w3.org/1999/xlink" x="0px" y="0px" width="16px"
	 height="16px" viewBox="0 0 16 16" style="enable-background:new 0 0 16 16;" xml:space="preserve">
<g id="_x31_21-layout_-_third_horizontal" style="enable-background:new    ;">
	<path d="M14-0.001H2c-1.105,0-2,0.896-2,2v12c0,1.105,0.895,2,2,2h12c1.105,0,2-0.895,2-2v-12C16,0.895,15.105-0.001,14-0.001z
		 M15,13.999C15,14.552,14.553,15,14,15H2c-0.552,0-1-0.448-1-1.001v-3h14V13.999z M15,9.999H1v-4h14V9.999z M15,4.999H1v-3
		c0-0.552,0.448-1,1-1h12c0.553,0,1,0.448,1,1V4.999z"/>
</g>
<g id="Layer_1">
</g>
</svg>
