<?xml version="1.0" encoding="iso-8859-1"?>
<!-- Generator: Adobe Illustrator 16.0.0, SVG Export Plug-In . SVG Version: 6.00 Build 0)  -->
<!DOCTYPE svg PUBLIC "-//W3C//DTD SVG 1.1//EN" "http://www.w3.org/Graphics/SVG/1.1/DTD/svg11.dtd">
<svg version="1.1" xmlns="http://www.w3.org/2000/svg" xmlns:xlink="http://www.w3.org/1999/xlink" x="0px" y="0px" width="16px"
	 height="16px" viewBox="0 0 16 16" style="enable-background:new 0 0 16 16;" xml:space="preserve">
<g id="_x31_18-layout_-_right_sidebar_half_content" style="enable-background:new    ;">
	<path d="M14-0.001H2c-1.104,0-2,0.896-2,2v12c0,1.104,0.896,2,2,2h12c1.105,0,2-0.896,2-2v-12C16,0.895,15.105-0.001,14-0.001z
		 M11,14.999H2c-0.552,0-1-0.448-1-1v-5h10V14.999z M11,7.999H1v-6c0-0.552,0.448-1,1-1h9V7.999z M15,13.999c0,0.552-0.447,1-1,1h-2
		v-14h2c0.553,0,1,0.448,1,1V13.999z"/>
</g>
<g id="Layer_1">
</g>
</svg>
