<?xml version="1.0" encoding="iso-8859-1"?>
<!-- Generator: Adobe Illustrator 16.0.0, SVG Export Plug-In . SVG Version: 6.00 Build 0)  -->
<!DOCTYPE svg PUBLIC "-//W3C//DTD SVG 1.1//EN" "http://www.w3.org/Graphics/SVG/1.1/DTD/svg11.dtd">
<svg version="1.1" xmlns="http://www.w3.org/2000/svg" xmlns:xlink="http://www.w3.org/1999/xlink" x="0px" y="0px" width="16px"
	 height="16px" viewBox="0 0 16 16" style="enable-background:new 0 0 16 16;" xml:space="preserve">
<g id="_x31_26-interface_-_arrow_left" style="enable-background:new    ;">
	<path d="M6.159,8.003L9.83,3.837c0.193-0.194,0.191-0.509-0.002-0.702S9.32,2.942,9.129,3.137L5.157,7.643
		C5.153,7.647,5.146,7.646,5.142,7.649C5.044,7.748,4.998,7.877,5,8.007C4.999,8.136,5.045,8.265,5.144,8.362
		C5.148,8.367,5.155,8.365,5.16,8.369l3.995,4.481c0.195,0.193,0.508,0.192,0.701-0.003c0.191-0.194,0.191-0.509-0.002-0.702
		L6.159,8.003z M14-0.001H2c-1.104,0-2,0.896-2,2v12c0,1.104,0.896,2,2,2h12c1.105,0,2-0.896,2-2v-12
		C16,0.895,15.105-0.001,14-0.001z M15,13.999c0,0.552-0.447,1-1,1H2c-0.552,0-1-0.448-1-1v-12c0-0.553,0.448-1,1-1h12
		c0.553,0,1,0.447,1,1V13.999z"/>
</g>
<g id="Layer_1">
</g>
</svg>
