<?xml version="1.0" encoding="iso-8859-1"?>
<!-- Generator: Adobe Illustrator 16.0.0, SVG Export Plug-In . SVG Version: 6.00 Build 0)  -->
<!DOCTYPE svg PUBLIC "-//W3C//DTD SVG 1.1//EN" "http://www.w3.org/Graphics/SVG/1.1/DTD/svg11.dtd">
<svg version="1.1" xmlns="http://www.w3.org/2000/svg" xmlns:xlink="http://www.w3.org/1999/xlink" x="0px" y="0px" width="16px"
	 height="16px" viewBox="0 0 16 16" style="enable-background:new 0 0 16 16;" xml:space="preserve">
<g id="_x34_6-interface_-_arrow_bottom" style="enable-background:new    ;">
	<path d="M13.424,6.994h-3.416V1.999C10.008,0.895,9.111,0,8.006,0S6.005,0.895,6.005,1.999v4.995H2.574
		c-0.542,0-0.739,0.374-0.439,0.832l5.317,7.836c0.15,0.229,0.348,0.343,0.546,0.343s0.396-0.114,0.547-0.343l5.316-7.836
		C14.162,7.368,13.965,6.994,13.424,6.994z M7.999,14.691L3.429,7.994h3.577V1.999c0-0.552,0.448-1,1-1s1,0.448,1,1v5.995h3.563
		L7.999,14.691z"/>
</g>
<g id="Layer_1">
</g>
</svg>
