<?xml version="1.0" encoding="iso-8859-1"?>
<!-- Generator: Adobe Illustrator 16.0.0, SVG Export Plug-In . SVG Version: 6.00 Build 0)  -->
<!DOCTYPE svg PUBLIC "-//W3C//DTD SVG 1.1//EN" "http://www.w3.org/Graphics/SVG/1.1/DTD/svg11.dtd">
<svg version="1.1" xmlns="http://www.w3.org/2000/svg" xmlns:xlink="http://www.w3.org/1999/xlink" x="0px" y="0px" width="16px"
	 height="16px" viewBox="0 0 16 16" style="enable-background:new 0 0 16 16;" xml:space="preserve">
<g id="_x37_-interface_-_arrow_left_top" style="enable-background:new    ;">
	<path d="M12.83,12.157L4.663,3.981l5.929-0.026c0.264-0.001,0.475-0.217,0.475-0.482c-0.002-0.265-0.215-0.479-0.479-0.478
		L3.566,3.027C3.543,3.023,3.526,3.01,3.502,3.011C3.227,3.012,3.004,3.225,3.005,3.485v0.02c0,0.001,0,0.003,0,0.004
		s0,0.002,0,0.004l0.031,7.041c0.001,0.262,0.226,0.473,0.501,0.472s0.498-0.214,0.497-0.476L4.009,4.712l8.136,8.144
		c0.191,0.191,0.5,0.19,0.689-0.003C13.023,12.66,13.021,12.349,12.83,12.157z"/>
</g>
<g id="Layer_1">
</g>
</svg>
