<?xml version="1.0" encoding="iso-8859-1"?>
<!-- Generator: Adobe Illustrator 16.0.0, SVG Export Plug-In . SVG Version: 6.00 Build 0)  -->
<!DOCTYPE svg PUBLIC "-//W3C//DTD SVG 1.1//EN" "http://www.w3.org/Graphics/SVG/1.1/DTD/svg11.dtd">
<svg version="1.1" xmlns="http://www.w3.org/2000/svg" xmlns:xlink="http://www.w3.org/1999/xlink" x="0px" y="0px" width="16px"
	 height="16px" viewBox="0 0 16 16" style="enable-background:new 0 0 16 16;" xml:space="preserve">
<g id="_x32_6-interface_-_block_failed" style="enable-background:new    ;">
	<path d="M13.992,2.712l0.002-0.003l-0.045-0.046c-0.193-0.215-0.398-0.419-0.613-0.612l-0.047-0.047l-0.002,0.002
		C11.877,0.761,10.029-0.001,8-0.001c-4.418,0-8,3.581-8,8c0,2.029,0.762,3.877,2.007,5.287l-0.002,0.002l0.047,0.048
		c0.193,0.215,0.396,0.419,0.611,0.611l0.046,0.046l0.002-0.002C4.123,15.236,5.97,15.998,8,15.998c4.418,0,8-3.581,8-7.999
		C16,5.97,15.238,4.122,13.992,2.712z M1,7.999c0-3.866,3.134-7,7-7c1.752,0,3.336,0.667,4.563,1.731l-9.831,9.832
		C1.667,11.334,1,9.752,1,7.999z M8,14.999c-1.753,0-3.335-0.667-4.563-1.731l9.833-9.832C14.334,4.663,15,6.246,15,7.999
		C15,11.864,11.865,14.999,8,14.999z"/>
</g>
<g id="Layer_1">
</g>
</svg>
