<?xml version="1.0" encoding="iso-8859-1"?>
<!-- Generator: Adobe Illustrator 16.0.0, SVG Export Plug-In . SVG Version: 6.00 Build 0)  -->
<!DOCTYPE svg PUBLIC "-//W3C//DTD SVG 1.1//EN" "http://www.w3.org/Graphics/SVG/1.1/DTD/svg11.dtd">
<svg version="1.1" xmlns="http://www.w3.org/2000/svg" xmlns:xlink="http://www.w3.org/1999/xlink" x="0px" y="0px" width="16px"
	 height="16px" viewBox="0 0 16 16" style="enable-background:new 0 0 16 16;" xml:space="preserve">
<g id="_x32_5-interface_-_tick_done" style="enable-background:new    ;">
	<path d="M5.847,7.141c-0.193-0.192-0.507-0.192-0.7,0s-0.193,0.505,0,0.697l2.952,2.937c0.013,0.016,0.257,0.195,0.39,0.19
		c0.131,0.004,0.37-0.17,0.381-0.183l6.979-6.943c0.193-0.193,0.193-0.507,0-0.699c-0.193-0.193-0.508-0.193-0.703,0l-6.66,6.626
		L5.847,7.141z M14.947,7.558c0.01,0.148,0.045,0.29,0.045,0.441c0,3.866-3.133,7-6.998,7c-3.864,0-6.997-3.134-6.997-7
		s3.133-7,6.997-7c1.744,0,3.32,0.661,4.545,1.718l0.734-0.714C11.865,0.76,10.02-0.001,7.994-0.001C3.579-0.001,0,3.58,0,7.999
		c0,4.418,3.579,8,7.994,8c4.416,0,7.994-3.582,7.994-8c0-0.457-0.047-0.901-0.119-1.337L14.947,7.558z"/>
</g>
<g id="Layer_1">
</g>
</svg>
