<?xml version="1.0" encoding="iso-8859-1"?>
<!-- Generator: Adobe Illustrator 16.0.0, SVG Export Plug-In . SVG Version: 6.00 Build 0)  -->
<!DOCTYPE svg PUBLIC "-//W3C//DTD SVG 1.1//EN" "http://www.w3.org/Graphics/SVG/1.1/DTD/svg11.dtd">
<svg version="1.1" xmlns="http://www.w3.org/2000/svg" xmlns:xlink="http://www.w3.org/1999/xlink" x="0px" y="0px" width="16px"
	 height="16px" viewBox="0 0 16 16" style="enable-background:new 0 0 16 16;" xml:space="preserve">
<g id="_x37_5-interface_-_logout_exit" style="enable-background:new    ;">
	<path d="M7.984,14.499c0,0.275-0.224,0.5-0.499,0.5H1.497c-0.275,0-0.499-0.225-0.499-0.5v-12c0-0.276,0.224-0.5,0.499-0.5h6.487
		c0.276,0,0,0.224,0,0.5v1.5h0.998v-2c0-0.553-0.446-1-0.998-1H0.998C0.447,0.999,0,1.446,0,1.999v13c0,0.553,0.447,1,0.998,1h6.986
		c0.551,0,0.998-0.447,0.998-1v-2H7.984V14.499z M15.967,8.492c0-0.01-0.006-0.017-0.006-0.025
		c-0.008-0.101-0.049-0.186-0.107-0.259c-0.014-0.021-4.043-4.066-4.043-4.066c-0.191-0.19-0.5-0.19-0.689,0
		c-0.191,0.19-0.191,0.5,0,0.69l3.16,3.167H2.495c-0.276,0-0.499,0.224-0.499,0.5s0.223,0.5,0.499,0.5h11.786l-3.16,3.166
		c-0.191,0.191-0.191,0.501,0,0.691c0.189,0.19,0.498,0.19,0.689,0c0,0,4.02-4.017,4.025-4.023c0.074-0.083,0.121-0.189,0.127-0.309
		c0-0.007,0.004-0.012,0.004-0.018c0-0.003,0.002-0.005,0.002-0.008S15.967,8.494,15.967,8.492z"/>
</g>
<g id="Layer_1">
</g>
</svg>
