<?xml version="1.0" encoding="iso-8859-1"?>
<!-- Generator: Adobe Illustrator 16.0.0, SVG Export Plug-In . SVG Version: 6.00 Build 0)  -->
<!DOCTYPE svg PUBLIC "-//W3C//DTD SVG 1.1//EN" "http://www.w3.org/Graphics/SVG/1.1/DTD/svg11.dtd">
<svg version="1.1" xmlns="http://www.w3.org/2000/svg" xmlns:xlink="http://www.w3.org/1999/xlink" x="0px" y="0px" width="16px"
	 height="16px" viewBox="0 0 16 16" style="enable-background:new 0 0 16 16;" xml:space="preserve">
<g id="_x34_8-interface_-_arrow_right_top" style="enable-background:new    ;">
	<path d="M14.189,2.15c-0.139-0.139-0.359-0.198-0.627-0.143L4.297,3.781C3.763,3.892,3.638,4.294,4.02,4.675l2.417,2.413
		l-3.519,3.514c-0.778,0.776-0.778,2.037,0,2.813s2.04,0.776,2.818,0l3.52-3.514l2.406,2.402c0.381,0.381,0.785,0.257,0.895-0.276
		l1.775-9.251C14.389,2.51,14.33,2.29,14.189,2.15z M11.764,10.999L9.256,8.495l-4.225,4.216c-0.389,0.389-1.02,0.389-1.409,0
		c-0.389-0.388-0.389-1.018,0-1.406l4.224-4.217L5.327,4.572l7.937-1.497L11.764,10.999z"/>
</g>
<g id="Layer_1">
</g>
</svg>
