<?xml version="1.0" encoding="iso-8859-1"?>
<!-- Generator: Adobe Illustrator 16.0.0, SVG Export Plug-In . SVG Version: 6.00 Build 0)  -->
<!DOCTYPE svg PUBLIC "-//W3C//DTD SVG 1.1//EN" "http://www.w3.org/Graphics/SVG/1.1/DTD/svg11.dtd">
<svg version="1.1" xmlns="http://www.w3.org/2000/svg" xmlns:xlink="http://www.w3.org/1999/xlink" x="0px" y="0px" width="16px"
	 height="16px" viewBox="0 0 16 16" style="enable-background:new 0 0 16 16;" xml:space="preserve">
<g id="_x33_4-interface_-_search_cross_cancel" style="enable-background:new    ;">
	<path d="M8.857,4.127c-0.187-0.186-0.489-0.186-0.676,0L6.493,5.816L4.804,4.127c-0.187-0.186-0.489-0.186-0.675,0
		c-0.187,0.188-0.187,0.489,0,0.676l1.688,1.688L4.128,8.18c-0.187,0.188-0.187,0.489,0,0.676s0.489,0.187,0.675,0l1.689-1.688
		l1.688,1.688c0.187,0.187,0.489,0.187,0.676,0c0.186-0.187,0.186-0.488,0-0.676L7.168,6.491l1.689-1.688
		C9.043,4.616,9.043,4.314,8.857,4.127z M15.857,15.183L11.4,10.727c0.984-1.14,1.6-2.604,1.6-4.228c0-3.59-2.91-6.5-6.5-6.5
		S0,2.909,0,6.499s2.91,6.5,6.5,6.5c1.623,0,3.088-0.616,4.227-1.6l4.457,4.457c0.186,0.186,0.488,0.186,0.674,0
		C16.043,15.67,16.043,15.368,15.857,15.183z M6.5,11.999c-3.038,0-5.5-2.462-5.5-5.5c0-3.037,2.462-5.5,5.5-5.5
		c3.037,0,5.5,2.463,5.5,5.5C12,9.537,9.537,11.999,6.5,11.999z"/>
</g>
<g id="Layer_1">
</g>
</svg>
