<?xml version="1.0" encoding="iso-8859-1"?>
<!-- Generator: Adobe Illustrator 16.0.0, SVG Export Plug-In . SVG Version: 6.00 Build 0)  -->
<!DOCTYPE svg PUBLIC "-//W3C//DTD SVG 1.1//EN" "http://www.w3.org/Graphics/SVG/1.1/DTD/svg11.dtd">
<svg version="1.1" xmlns="http://www.w3.org/2000/svg" xmlns:xlink="http://www.w3.org/1999/xlink" x="0px" y="0px" width="16px"
	 height="16px" viewBox="0 0 16 16" style="enable-background:new 0 0 16 16;" xml:space="preserve">
<g id="_x31_44-interface_-_cone_street_warning" style="enable-background:new    ;">
	<path d="M15.5,14.999H14l-1.199-3L8-0.001l-4.8,12l-1.2,3H0.5c-0.276,0-0.5,0.224-0.5,0.5s0.224,0.5,0.5,0.5h15
		c0.275,0,0.5-0.224,0.5-0.5S15.775,14.999,15.5,14.999z M8,1.999l1.154,3H6.846L8,1.999z M6.5,5.898v0.101h3V5.898l0.424,1.101
		H6.077L6.5,5.898z M5.692,7.999h4.614l0.77,2H4.923L5.692,7.999z M4.539,10.999h6.922l0.385,1H4.154L4.539,10.999z M3,14.999
		l0.769-2h8.461l0.77,2H3z"/>
</g>
<g id="Layer_1">
</g>
</svg>
