<?xml version="1.0" encoding="iso-8859-1"?>
<!-- Generator: Adobe Illustrator 16.0.0, SVG Export Plug-In . SVG Version: 6.00 Build 0)  -->
<!DOCTYPE svg PUBLIC "-//W3C//DTD SVG 1.1//EN" "http://www.w3.org/Graphics/SVG/1.1/DTD/svg11.dtd">
<svg version="1.1" xmlns="http://www.w3.org/2000/svg" xmlns:xlink="http://www.w3.org/1999/xlink" x="0px" y="0px" width="16px"
	 height="16px" viewBox="0 0 16 16" style="enable-background:new 0 0 16 16;" xml:space="preserve">
<g id="_x32_9-interface_-_clock_time" style="enable-background:new    ;">
	<path d="M5.317,4.61c-0.195-0.195-0.512-0.195-0.707,0s-0.195,0.512,0,0.707l0.707,0.707c0.195,0.195,0.512,0.195,0.708,0
		c0.195-0.195,0.195-0.512,0-0.707L5.317,4.61z M11.682,6.024l0.707-0.707c0.195-0.196,0.195-0.512,0-0.707s-0.512-0.195-0.707,0
		l-0.707,0.707c-0.195,0.195-0.195,0.512,0,0.707S11.486,6.219,11.682,6.024z M8.5,11.999c-0.275,0-0.5,0.224-0.5,0.5v1
		c0,0.275,0.224,0.5,0.5,0.5c0.276,0,0.5-0.225,0.5-0.5v-1C9,12.223,8.776,11.999,8.5,11.999z M5,8.499c0-0.276-0.224-0.5-0.5-0.5
		h-1c-0.276,0-0.5,0.224-0.5,0.5s0.224,0.499,0.5,0.499h1C4.776,8.998,5,8.775,5,8.499z M5.317,10.974L4.61,11.681
		c-0.195,0.195-0.195,0.512,0,0.707s0.512,0.195,0.707,0l0.707-0.707c0.195-0.195,0.195-0.512,0-0.707
		C5.83,10.778,5.513,10.778,5.317,10.974z M13.5,7.999h-1c-0.275,0-0.5,0.224-0.5,0.5s0.225,0.499,0.5,0.499h1
		c0.275,0,0.5-0.223,0.5-0.499S13.775,7.999,13.5,7.999z M8.5,0.999c-4.142,0-7.5,3.357-7.5,7.5s3.358,7.5,7.5,7.5
		c4.143,0,7.5-3.357,7.5-7.5S12.643,0.999,8.5,0.999z M8.5,14.999c-3.589,0-6.5-2.91-6.5-6.5s2.91-6.5,6.5-6.5
		c3.59,0,6.5,2.91,6.5,6.5S12.09,14.999,8.5,14.999z M11.682,10.974c-0.195-0.195-0.512-0.195-0.707,0s-0.195,0.512,0,0.707
		l0.707,0.708c0.195,0.194,0.512,0.195,0.707,0s0.195-0.513,0-0.708L11.682,10.974z M8.5,2.999c-0.275,0-0.5,0.224-0.5,0.5v1
		c0,0.276,0.224,0.5,0.5,0.5c0.276,0,0.5-0.224,0.5-0.5v-1C9,3.223,8.776,2.999,8.5,2.999z"/>
</g>
<g id="Layer_1">
</g>
</svg>
