<?xml version="1.0" encoding="iso-8859-1"?>
<!-- Generator: Adobe Illustrator 16.0.0, SVG Export Plug-In . SVG Version: 6.00 Build 0)  -->
<!DOCTYPE svg PUBLIC "-//W3C//DTD SVG 1.1//EN" "http://www.w3.org/Graphics/SVG/1.1/DTD/svg11.dtd">
<svg version="1.1" xmlns="http://www.w3.org/2000/svg" xmlns:xlink="http://www.w3.org/1999/xlink" x="0px" y="0px" width="16px"
	 height="16px" viewBox="0 0 16 16" style="enable-background:new 0 0 16 16;" xml:space="preserve">
<g id="_x32_1-interface_-_plus_add" style="enable-background:new    ;">
	<path d="M11.477,8.011H8.988V5.521c0-0.287-0.218-0.521-0.488-0.521c-0.27,0-0.488,0.233-0.488,0.521v2.489H5.523
		c-0.288,0-0.521,0.218-0.521,0.488c0,0.27,0.233,0.488,0.521,0.488h2.488v2.488c0,0.287,0.219,0.521,0.488,0.521
		c0.271,0,0.488-0.234,0.488-0.521V8.987h2.489c0.287,0,0.521-0.219,0.521-0.488C11.998,8.229,11.764,8.011,11.477,8.011z
		 M8.5,0.999c-4.142,0-7.5,3.357-7.5,7.5s3.358,7.5,7.5,7.5c4.143,0,7.5-3.357,7.5-7.5S12.643,0.999,8.5,0.999z M8.5,14.999
		c-3.589,0-6.5-2.91-6.5-6.5s2.91-6.5,6.5-6.5c3.59,0,6.5,2.91,6.5,6.5S12.09,14.999,8.5,14.999z"/>
</g>
<g id="Layer_1">
</g>
</svg>
