<?xml version="1.0" encoding="iso-8859-1"?>
<!-- Generator: Adobe Illustrator 16.0.0, SVG Export Plug-In . SVG Version: 6.00 Build 0)  -->
<!DOCTYPE svg PUBLIC "-//W3C//DTD SVG 1.1//EN" "http://www.w3.org/Graphics/SVG/1.1/DTD/svg11.dtd">
<svg version="1.1" xmlns="http://www.w3.org/2000/svg" xmlns:xlink="http://www.w3.org/1999/xlink" x="0px" y="0px" width="16px"
	 height="16px" viewBox="0 0 16 16" style="enable-background:new 0 0 16 16;" xml:space="preserve">
<g id="_x31_01-interface_-_pixel_vector_point" style="enable-background:new    ;">
	<path d="M16,4.999v-5h-5v2H5v-2H0v5h2v6H0v5h5v-2h6v2h5v-5h-2v-6H16z M1,3.998v-3h3v3H1z M4,14.998H1v-2.999h3V14.998z M11,12.999
		H5v-2H3v-6h2v-2h6v2h2v6h-2V12.999z M15,11.999v2.999h-3v-2.999H15z M12,3.998v-3h3v3H12z"/>
</g>
<g id="Layer_1">
</g>
</svg>
