<?xml version="1.0" encoding="iso-8859-1"?>
<!-- Generator: Adobe Illustrator 16.0.0, SVG Export Plug-In . SVG Version: 6.00 Build 0)  -->
<!DOCTYPE svg PUBLIC "-//W3C//DTD SVG 1.1//EN" "http://www.w3.org/Graphics/SVG/1.1/DTD/svg11.dtd">
<svg version="1.1" xmlns="http://www.w3.org/2000/svg" xmlns:xlink="http://www.w3.org/1999/xlink" x="0px" y="0px" width="16px"
	 height="16px" viewBox="0 0 16 16" style="enable-background:new 0 0 16 16;" xml:space="preserve">
<g id="_x35_8-interface_-_favorite_star" style="enable-background:new    ;">
	<path d="M16,5.999l-5.5-0.5L8-0.001l-2.5,5.5L0,5.999l4.151,4.187L3,15.999l4.982-3.037l4.979,3.037l-1.117-5.817L16,5.999z
		 M8.503,12.108L7.983,11.79l-0.521,0.317L4.423,13.96l0.709-3.58l0.103-0.521L4.861,9.481L2.205,6.803L5.59,6.495l0.58-0.053
		l0.24-0.53L8,2.415l1.59,3.497l0.24,0.53l0.58,0.053l3.381,0.308l-2.656,2.674l-0.373,0.375l0.1,0.519l0.691,3.598L8.503,12.108z"
		/>
</g>
<g id="Layer_1">
</g>
</svg>
