<?xml version="1.0" encoding="iso-8859-1"?>
<!-- Generator: Adobe Illustrator 16.0.0, SVG Export Plug-In . SVG Version: 6.00 Build 0)  -->
<!DOCTYPE svg PUBLIC "-//W3C//DTD SVG 1.1//EN" "http://www.w3.org/Graphics/SVG/1.1/DTD/svg11.dtd">
<svg version="1.1" xmlns="http://www.w3.org/2000/svg" xmlns:xlink="http://www.w3.org/1999/xlink" x="0px" y="0px" width="16px"
	 height="16px" viewBox="0 0 16 16" style="enable-background:new 0 0 16 16;" xml:space="preserve">
<g id="_x31_43-interface_-_map_direction_gps" style="enable-background:new    ;">
	<path d="M15.986,0.396c-0.002-0.011,0-0.021-0.002-0.031c-0.006-0.021-0.021-0.036-0.029-0.056
		c-0.012-0.032-0.025-0.063-0.045-0.092c-0.02-0.027-0.041-0.05-0.064-0.073c-0.021-0.022-0.043-0.043-0.07-0.062
		c-0.029-0.02-0.061-0.033-0.094-0.047c-0.02-0.008-0.035-0.021-0.055-0.027c-0.01-0.003-0.02,0-0.029-0.002
		C15.564,0,15.531,0,15.496,0s-0.066-0.001-0.1,0.006c-0.01,0.002-0.02-0.001-0.029,0.002L0.411,5.709
		C0.275,5.736,0.163,5.814,0.089,5.927C0.077,5.944,0.064,5.959,0.055,5.978C0.043,6.002,0.037,6.028,0.029,6.054
		C0.015,6.097,0.004,6.14,0.002,6.186C0.002,6.19,0,6.193,0,6.198c0,0.009,0.004,0.016,0.005,0.024
		c0.001,0.039-0.003,0.078,0.008,0.118C0.018,6.36,0.032,6.375,0.04,6.394C0.041,6.396,0.042,6.398,0.043,6.4
		c0.08,0.188,0.259,0.306,0.46,0.306c0.002,0,0.004,0.001,0.006,0.001L7.934,8.06l1.352,7.425c0,0.002,0.002,0.004,0.002,0.006
		c0,0.201,0.117,0.381,0.307,0.461c0.002,0.001,0.002,0.002,0.004,0.002c0.02,0.008,0.035,0.021,0.055,0.027
		c0.041,0.012,0.08,0.008,0.121,0.009c0.008,0,0.014,0.004,0.021,0.004c0.004,0,0.006-0.002,0.01-0.002
		c0.049-0.002,0.094-0.013,0.139-0.028c0.023-0.007,0.047-0.013,0.07-0.023c0.02-0.011,0.035-0.024,0.055-0.037
		c0.111-0.073,0.188-0.185,0.215-0.32l5.701-14.956c0.004-0.01,0-0.021,0.002-0.03c0.008-0.032,0.006-0.065,0.006-0.1
		S15.992,0.429,15.986,0.396z M9.963,13.611L8.875,7.646c0-0.146-0.063-0.274-0.16-0.367C8.622,7.18,8.493,7.117,8.348,7.117
		L2.383,6.03l12.25-4.67L9.963,13.611z"/>
</g>
<g id="Layer_1">
</g>
</svg>
