<?xml version="1.0" encoding="iso-8859-1"?>
<!-- Generator: Adobe Illustrator 16.0.0, SVG Export Plug-In . SVG Version: 6.00 Build 0)  -->
<!DOCTYPE svg PUBLIC "-//W3C//DTD SVG 1.1//EN" "http://www.w3.org/Graphics/SVG/1.1/DTD/svg11.dtd">
<svg version="1.1" xmlns="http://www.w3.org/2000/svg" xmlns:xlink="http://www.w3.org/1999/xlink" x="0px" y="0px" width="16px"
	 height="16px" viewBox="0 0 16 16" style="enable-background:new 0 0 16 16;" xml:space="preserve">
<g id="_x33_6-interface_-_bell_notification" style="enable-background:new    ;">
	<path d="M14.301,8.203l0.146-0.539c0.221-0.809,0.377-1.387,0.377-1.387c0.725-2.659-0.879-5.392-3.578-6.104
		c-2.701-0.713-5.477,0.864-6.2,3.523c0,0-0.54,1.981-1.033,3.796c-0.417,1.532-3.019,3.391-3.019,3.391l5.764,1.521
		c-0.165,0.33-0.258,0.7-0.258,1.095c0,1.381,1.119,2.5,2.5,2.5c1.329,0,2.405-1.039,2.485-2.348l3.199,0.845
		c0,0-1.314-2.873-0.9-4.393C13.959,9.459,14.139,8.796,14.301,8.203z M9,14.999c-0.828,0-1.5-0.671-1.5-1.5
		c0-0.312,0.118-0.585,0.28-0.825l2.702,0.714c0.004,0.038,0.018,0.072,0.018,0.111C10.5,14.328,9.828,14.999,9,14.999z
		 M3.211,10.437c0,0,1.326-1.128,1.76-2.631l7.83,2.065c-0.4,1.513,0.189,3.146,0.189,3.146L3.211,10.437z M13.061,8.907
		L5.237,6.844C5.328,6.511,5.416,6.188,5.5,5.881l7.823,2.064C13.24,8.252,13.152,8.575,13.061,8.907z M13.586,6.982L5.762,4.918
		C5.919,4.34,6.023,3.955,6.023,3.955c0.579-2.127,2.799-3.389,4.961-2.819c2.16,0.57,3.441,2.757,2.863,4.884
		C13.848,6.02,13.742,6.403,13.586,6.982z"/>
</g>
<g id="Layer_1">
</g>
</svg>
