<?xml version="1.0" encoding="iso-8859-1"?>
<!-- Generator: Adobe Illustrator 16.0.0, SVG Export Plug-In . SVG Version: 6.00 Build 0)  -->
<!DOCTYPE svg PUBLIC "-//W3C//DTD SVG 1.1//EN" "http://www.w3.org/Graphics/SVG/1.1/DTD/svg11.dtd">
<svg version="1.1" xmlns="http://www.w3.org/2000/svg" xmlns:xlink="http://www.w3.org/1999/xlink" x="0px" y="0px" width="16px"
	 height="16px" viewBox="0 0 16 16" style="enable-background:new 0 0 16 16;" xml:space="preserve">
<g id="_x32_-interface_-_outcoming_link" style="enable-background:new    ;">
	<path d="M14,14.499c0,0.276-0.225,0.5-0.5,0.5h-11c-0.276,0-0.5-0.224-0.5-0.5v-11c0-0.276,0.224-0.5,0.5-0.5H9v-1H2
		c-0.552,0-1,0.447-1,1v12c0,0.552,0.448,1,1,1h12c0.553,0,1-0.448,1-1v-7h-1V14.499z M15.973,1.506c0-0.001,0-0.002,0-0.003
		s0-0.002,0-0.003V1.472c0-0.112-0.049-0.211-0.119-0.292c-0.01-0.011-0.016-0.023-0.025-0.034
		c-0.012-0.011-0.027-0.018-0.039-0.027c-0.08-0.067-0.18-0.114-0.291-0.113h-0.027c0,0-0.002-0.001-0.004-0.001l-0.002,0.001
		l-5.023,0.031C10.18,1.037,9.971,1.262,9.971,1.538c0.002,0.277,0.215,0.5,0.475,0.498l3.826-0.022l-8.128,8.158
		c-0.191,0.191-0.189,0.501,0.003,0.69c0.192,0.191,0.503,0.189,0.694-0.002l8.134-8.164l0.023,3.802
		c0.002,0.26,0.227,0.47,0.504,0.468c0.279-0.001,0.502-0.212,0.502-0.472L15.973,1.506z"/>
</g>
<g id="Layer_1">
</g>
</svg>
