<?xml version="1.0" encoding="iso-8859-1"?>
<!-- Generator: Adobe Illustrator 16.0.0, SVG Export Plug-In . SVG Version: 6.00 Build 0)  -->
<!DOCTYPE svg PUBLIC "-//W3C//DTD SVG 1.1//EN" "http://www.w3.org/Graphics/SVG/1.1/DTD/svg11.dtd">
<svg version="1.1" xmlns="http://www.w3.org/2000/svg" xmlns:xlink="http://www.w3.org/1999/xlink" x="0px" y="0px" width="16px"
	 height="16px" viewBox="0 0 16 16" style="enable-background:new 0 0 16 16;" xml:space="preserve">
<g id="_x33_1-food_-_fruit_grape" style="enable-background:new    ;">
	<path d="M16,4.998c0-1.656-1.344-3-3-3c-1.045,0-1.963,0.536-2.5,1.346c-0.449-0.677-1.166-1.154-2-1.295V0.998h1
		c0.275,0,0.5-0.224,0.5-0.499c0-0.277-0.225-0.501-0.5-0.501h-3C6.224-0.002,6,0.222,6,0.499c0,0.275,0.224,0.499,0.5,0.499h1
		v1.051c-0.833,0.141-1.551,0.618-2,1.295C4.963,2.534,4.045,1.998,3,1.998c-1.657,0-3,1.344-3,3c0,1.657,1.343,3,3,3
		c0.065,0,0.125-0.015,0.189-0.019C3.074,8.299,3,8.639,3,8.999c0,1.385,0.943,2.539,2.219,2.884C5.081,12.229,5,12.604,5,12.998
		c0,1.657,1.343,3,3,3c1.656,0,3-1.343,3-3c0-0.358-0.066-0.7-0.182-1.018c0.061,0.003,0.119,0.018,0.182,0.018
		c1.656,0,3-1.343,3-2.999c0-0.396-0.08-0.771-0.219-1.116C15.057,7.538,16,6.384,16,4.998z M8,2.998c1.105,0,2,0.896,2,2
		c0,1.104-0.895,2-2,2c-1.104,0-2-0.896-2-2C6,3.895,6.896,2.998,8,2.998z M3,6.998c-1.104,0-2-0.896-2-2c0-1.104,0.896-2,2-2
		s2,0.896,2,2C5,6.103,4.104,6.998,3,6.998z M4,8.999C4,7.964,4.789,7.123,5.795,7.02c0.485,0.529,1.156,0.875,1.911,0.949
		C7.889,8.271,8,8.62,8,8.999c0,1.104-0.896,2-2,2S4,10.103,4,8.999z M8,14.998c-1.104,0-2-0.896-2-2
		c0-0.378,0.111-0.728,0.293-1.029c0.756-0.074,1.426-0.42,1.912-0.95C9.211,11.123,10,11.964,10,12.998
		C10,14.103,9.105,14.998,8,14.998z M11,10.998c-1.105,0-2-0.896-2-1.999c0-1.105,0.895-2.001,2-2.001s2,0.896,2,2.001
		C13,10.103,12.105,10.998,11,10.998z M13.203,6.978c-0.484-0.529-1.154-0.875-1.91-0.949C11.111,5.727,11,5.377,11,4.998
		c0-1.104,0.895-2,2-2s2,0.896,2,2C15,6.033,14.211,6.874,13.203,6.978z"/>
</g>
<g id="Layer_1">
</g>
</svg>
