<?xml version="1.0" encoding="iso-8859-1"?>
<!-- Generator: Adobe Illustrator 16.0.0, SVG Export Plug-In . SVG Version: 6.00 Build 0)  -->
<!DOCTYPE svg PUBLIC "-//W3C//DTD SVG 1.1//EN" "http://www.w3.org/Graphics/SVG/1.1/DTD/svg11.dtd">
<svg version="1.1" xmlns="http://www.w3.org/2000/svg" xmlns:xlink="http://www.w3.org/1999/xlink" x="0px" y="0px" width="16px"
	 height="16px" viewBox="0 0 16 16" style="enable-background:new 0 0 16 16;" xml:space="preserve">
<g id="_x31_2-kitchen_-_fork_knife" style="enable-background:new    ;">
	<path d="M7,0.498v3c0,0.931-0.139,1.707-1,1.93v-5.43L5,0v5.499c-0.861-0.223-1-1.07-1-2.001v-3C4,0.324,4,0,4,0H3v0.498v3
		c0,1.486,0.583,2.711,2,2.95v9.55h1v-9.55c1.417-0.239,2-1.464,2-2.95v-3V0H7V0.498z M13.303,3.865
		C12.67,2.054,11.262,0.365,11,0.06v-0.062h-1v0.266H9.998L10,0.268v7.731v0.999v7h1v-7h3V8.733l0.002-0.001
		C14.002,8.732,14.117,6.201,13.303,3.865z M11,7.999V1.651c0.52,0.792,1.121,1.831,1.488,2.88c0.453,1.3,0.566,2.606,0.582,3.468
		H11z"/>
</g>
<g id="Layer_1">
</g>
</svg>
