<?xml version="1.0" encoding="iso-8859-1"?>
<!-- Generator: Adobe Illustrator 16.0.0, SVG Export Plug-In . SVG Version: 6.00 Build 0)  -->
<!DOCTYPE svg PUBLIC "-//W3C//DTD SVG 1.1//EN" "http://www.w3.org/Graphics/SVG/1.1/DTD/svg11.dtd">
<svg version="1.1" xmlns="http://www.w3.org/2000/svg" xmlns:xlink="http://www.w3.org/1999/xlink" x="0px" y="0px" width="16px"
	 height="16px" viewBox="0 0 16 16" style="enable-background:new 0 0 16 16;" xml:space="preserve">
<g id="_x32_1-food_-_hamburger" style="enable-background:new    ;">
	<path d="M2.101,8.998C2.045,8.672,2,8.341,2,7.999c0-3.314,2.686-6,6-6c3.314,0,6,2.686,6,6c0,0.342-0.045,0.673-0.102,0.999h1
		C14.947,8.669,15,8.341,15,7.999c0-3.866-3.135-7-7-7c-3.866,0-7,3.134-7,7c0,0.342,0.053,0.67,0.101,0.999H2.101z M15,8.999H1
		c-0.552,0-1,0.448-1,1v2c0,0.553,0.448,1,1,1h0.333l0.667,2c0,0.553,0.448,1,1,1h10c0.553,0,1-0.447,1-1l0.666-2H15
		c0.553,0,1-0.447,1-1v-2C16,9.447,15.553,8.999,15,8.999z M13,14.499c0,0.276-0.225,0.5-0.5,0.5h-9c-0.276,0-0.5-0.224-0.5-0.5
		l-0.75-1.5h11.5L13,14.499z M15,11.499c0,0.276-0.225,0.5-0.5,0.5h-13c-0.276,0-0.5-0.224-0.5-0.5v-1c0-0.276,0.224-0.5,0.5-0.5h13
		c0.275,0,0.5,0.224,0.5,0.5V11.499z"/>
</g>
<g id="Layer_1">
</g>
</svg>
