<?xml version="1.0" encoding="iso-8859-1"?>
<!-- Generator: Adobe Illustrator 16.0.0, SVG Export Plug-In . SVG Version: 6.00 Build 0)  -->
<!DOCTYPE svg PUBLIC "-//W3C//DTD SVG 1.1//EN" "http://www.w3.org/Graphics/SVG/1.1/DTD/svg11.dtd">
<svg version="1.1" xmlns="http://www.w3.org/2000/svg" xmlns:xlink="http://www.w3.org/1999/xlink" x="0px" y="0px" width="16px"
	 height="16px" viewBox="0 0 16 16" style="enable-background:new 0 0 16 16;" xml:space="preserve">
<g id="_x39_-kitchen_-_fire_flame_heat" style="enable-background:new    ;">
	<path d="M5,10.499c0,1.933,1.567,3.499,3.5,3.499c1.934,0,3.5-1.566,3.5-3.499c0-1.934-3.5-5.501-3.5-5.501S5,8.565,5,10.499z
		 M8.5,12.999c-1.38,0-2.5-1.12-2.5-2.5c0-1.381,2.5-4,2.5-4s2.5,2.619,2.5,4C11,11.879,9.881,12.999,8.5,12.999z M8.5-0.002
		c0,0-6.5,5.91-6.5,9.5c0,3.591,2.91,6.501,6.5,6.501c3.59,0,6.5-2.91,6.5-6.501C15,5.908,8.5-0.002,8.5-0.002z M8.5,14.998
		c-3.037,0-5.5-2.462-5.5-5.5c0-3.037,5.5-8,5.5-8s5.5,4.963,5.5,8C14,12.536,11.537,14.998,8.5,14.998z"/>
</g>
<g id="Layer_1">
</g>
</svg>
