<?xml version="1.0" encoding="iso-8859-1"?>
<!-- Generator: Adobe Illustrator 16.0.0, SVG Export Plug-In . SVG Version: 6.00 Build 0)  -->
<!DOCTYPE svg PUBLIC "-//W3C//DTD SVG 1.1//EN" "http://www.w3.org/Graphics/SVG/1.1/DTD/svg11.dtd">
<svg version="1.1" xmlns="http://www.w3.org/2000/svg" xmlns:xlink="http://www.w3.org/1999/xlink" x="0px" y="0px" width="16px"
	 height="16px" viewBox="0 0 16 16" style="enable-background:new 0 0 16 16;" xml:space="preserve">
<g id="_x32_4-food_-_onigiri" style="enable-background:new    ;">
	<path d="M13.984,10.999C13.984,6.581,12.406,3,8,3c-4.407,0-5.984,3.581-5.984,7.999c0,0-0.431,2.615,4.794,2.961
		c0.063,0.013,0.123,0.039,0.19,0.039h0.973C7.983,13.999,7.99,14,8,14c0,0,0.002,0,0.003,0c0.01,0,0.017-0.001,0.026-0.001H9
		c0.067,0,0.124-0.025,0.186-0.038C14.416,13.618,13.984,10.999,13.984,10.999z M12.684,11.829
		c-0.303,0.328-1.021,0.822-2.684,1.049v-1.879c0-0.553-0.447-1-1-1H7c-0.552,0-1,0.447-1,1v1.878
		c-1.662-0.227-2.381-0.721-2.684-1.049c-0.288-0.312-0.313-0.59-0.313-0.677l0.009-0.027v-0.125c0-4.645,1.678-7,4.987-7
		c3.309,0,4.986,2.355,4.986,7l-0.016,0.045C12.971,11.044,12.977,11.511,12.684,11.829z"/>
</g>
<g id="Layer_1">
</g>
</svg>
