<?xml version="1.0" encoding="iso-8859-1"?>
<!-- Generator: Adobe Illustrator 16.0.0, SVG Export Plug-In . SVG Version: 6.00 Build 0)  -->
<!DOCTYPE svg PUBLIC "-//W3C//DTD SVG 1.1//EN" "http://www.w3.org/Graphics/SVG/1.1/DTD/svg11.dtd">
<svg version="1.1" xmlns="http://www.w3.org/2000/svg" xmlns:xlink="http://www.w3.org/1999/xlink" x="0px" y="0px" width="16px"
	 height="16px" viewBox="0 0 16 16" style="enable-background:new 0 0 16 16;" xml:space="preserve">
<g id="_x32_7-food_-_bowl_soup" style="enable-background:new    ;">
	<path style="fill-rule:evenodd;clip-rule:evenodd;" d="M16,7.001C16,5.343,12.418,4,8,4C3.582,4,0,5.343,0,7.001
		c0,0.108,0.017,0.215,0.047,0.32C0.026,7.546,0,7.77,0,8c0,4.418,3.582,8,8,8c4.417,0,8-3.582,8-8c0-0.23-0.025-0.454-0.047-0.679
		C15.982,7.216,16,7.109,16,7.001z M8,15c-3.709,0-6.736-2.886-6.977-6.534C2.394,9.381,5.002,10,8,10
		c2.998,0,5.607-0.619,6.976-1.534C14.736,12.114,11.709,15,8,15z M8,9C4.134,9,1,8.104,1,7.001C1,5.895,4.134,5,8,5
		c3.865,0,7,0.895,7,2.001C15,8.104,11.865,9,8,9z"/>
</g>
<g id="Layer_1">
</g>
</svg>
