<?xml version="1.0" encoding="iso-8859-1"?>
<!-- Generator: Adobe Illustrator 16.0.0, SVG Export Plug-In . SVG Version: 6.00 Build 0)  -->
<!DOCTYPE svg PUBLIC "-//W3C//DTD SVG 1.1//EN" "http://www.w3.org/Graphics/SVG/1.1/DTD/svg11.dtd">
<svg version="1.1" xmlns="http://www.w3.org/2000/svg" xmlns:xlink="http://www.w3.org/1999/xlink" x="0px" y="0px" width="16px"
	 height="16px" viewBox="0 0 16 16" style="enable-background:new 0 0 16 16;" xml:space="preserve">
<g id="_x31_6-kitchen_-_jam" style="enable-background:new    ;">
	<path style="fill-rule:evenodd;clip-rule:evenodd;" d="M10.643,0.827c-0.678-0.414-1.615-0.69-2.798-0.783C7.568,0.018,7.288,0,7,0
		S6.432,0.018,6.156,0.044C4.973,0.136,4.035,0.413,3.357,0.827C1.927,1.558,1,2.706,1,4c0,0.817,0.369,1.576,1,2.209V13
		c0,1.658,1.687,3,5,3c3.312,0,5-1.342,5-3V6.208C12.631,5.576,13,4.817,13,4C13,2.706,12.074,1.558,10.643,0.827z M7,1
		c2.761,0,4,0.896,4,2S9.762,5,7,5C4.238,5,3,4.105,3,3S4.238,1,7,1z M7,15c-2.762,0-4-0.895-4-2V6.975C4.062,7.61,5.461,8,7,8
		v5.002c0,0,2.457,0.303,4-0.287V13C11,14.105,9.762,15,7,15z M11,11.77c-1.27,0.518-3,0.232-3,0.232V7.937
		c1.14-0.13,2.173-0.468,3-0.962V11.77z M7,7C4.238,7,2,5.657,2,4c0-0.15,0.038-0.293,0.073-0.437C2.419,4.95,4.072,6,7,6
		c2.927,0,4.58-1.05,4.927-2.438C11.963,3.707,12,3.85,12,4C12,5.657,9.762,7,7,7z"/>
</g>
<g id="Layer_1">
</g>
</svg>
