<?xml version="1.0" encoding="iso-8859-1"?>
<!-- Generator: Adobe Illustrator 16.0.0, SVG Export Plug-In . SVG Version: 6.00 Build 0)  -->
<!DOCTYPE svg PUBLIC "-//W3C//DTD SVG 1.1//EN" "http://www.w3.org/Graphics/SVG/1.1/DTD/svg11.dtd">
<svg version="1.1" xmlns="http://www.w3.org/2000/svg" xmlns:xlink="http://www.w3.org/1999/xlink" x="0px" y="0px" width="16px"
	 height="16px" viewBox="0 0 16 16" style="enable-background:new 0 0 16 16;" xml:space="preserve">
<g id="_x32_2-food_-_hamburger" style="enable-background:new    ;">
	<path style="fill-rule:evenodd;clip-rule:evenodd;" d="M8,0C3.582,0,0,3.582,0,8v7c0,0.553,0.448,1,1,1h14c0.553,0,1-0.447,1-1V8
		C16,3.582,12.418,0,8,0z M1.034,7.333C1.37,3.78,4.359,1,8,1c3.64,0,6.63,2.78,6.966,6.333C14.986,7.386,15,8,15,8H1
		C1,8,1.015,7.385,1.034,7.333z M15,14.5c0,0.275-0.225,0.5-0.5,0.5h-13C1.224,15,1,14.775,1,14.5V12h14V14.5z M1,11V9h14v2H1z"/>
</g>
<g id="Layer_1">
</g>
</svg>
