<?xml version="1.0" encoding="iso-8859-1"?>
<!-- Generator: Adobe Illustrator 16.0.0, SVG Export Plug-In . SVG Version: 6.00 Build 0)  -->
<!DOCTYPE svg PUBLIC "-//W3C//DTD SVG 1.1//EN" "http://www.w3.org/Graphics/SVG/1.1/DTD/svg11.dtd">
<svg version="1.1" xmlns="http://www.w3.org/2000/svg" xmlns:xlink="http://www.w3.org/1999/xlink" x="0px" y="0px" width="16px"
	 height="16px" viewBox="0 0 16 16" style="enable-background:new 0 0 16 16;" xml:space="preserve">
<g id="_x34_1-beverage_-_milk_bottle" style="enable-background:new    ;">
	<path style="fill-rule:evenodd;clip-rule:evenodd;" d="M10,6.002V3c0.553,0,1-0.672,1-1.5C11,0.671,10.553,0,10,0H6
		C5.448,0,5,0.671,5,1.5C5,2.328,5.448,3,6,3v3.002c0,0-2,0.5-2,1v6c0,1.147,0,1.998,0,1.998h0.05C4.022,15.08,4,15.162,4,15.251
		c0,0.414,0.335,0.75,0.75,0.75h6.5c0.414,0,0.75-0.336,0.75-0.75c0-0.089-0.021-0.171-0.051-0.25H12c0,0,0-0.851,0-1.998v-6
		C12,6.502,10,6.002,10,6.002z M6.5,1.001h3c0.275,0,0.5,0.224,0.5,0.5c0,0.276-0.225,0.5-0.5,0.5h-3c-0.277,0-0.5-0.224-0.5-0.5
		C6,1.225,6.223,1.001,6.5,1.001z M11,13.501v1c0,0.276-0.225,0.5-0.5,0.5h-5c-0.276,0-0.5-0.224-0.5-0.5v-1c0,0,0-0.196,0-0.498h6
		C11,13.305,11,13.501,11,13.501z M11,12.003H5v-2h6V12.003z M11,9.003H5V8.001c0-1,2-0.998,2-0.998V3.001h2v4.001
		c0,0,2-0.002,2,0.998V9.003z"/>
</g>
<g id="Layer_1">
</g>
</svg>
