<?xml version="1.0" encoding="iso-8859-1"?>
<!-- Generator: Adobe Illustrator 16.0.0, SVG Export Plug-In . SVG Version: 6.00 Build 0)  -->
<!DOCTYPE svg PUBLIC "-//W3C//DTD SVG 1.1//EN" "http://www.w3.org/Graphics/SVG/1.1/DTD/svg11.dtd">
<svg version="1.1" xmlns="http://www.w3.org/2000/svg" xmlns:xlink="http://www.w3.org/1999/xlink" x="0px" y="0px" width="16px"
	 height="16px" viewBox="0 0 16 16" style="enable-background:new 0 0 16 16;" xml:space="preserve">
<g id="_x36_1-beverage_-_glass" style="enable-background:new    ;">
	<path d="M14,3.999c0-2-1-4.001-1-4.001H4c0,0-1,2.001-1,4.001c0,3.911,2.197,5.62,5,5.965v5.035H6c-0.276,0-0.5,0.224-0.5,0.499
		c0,0.276,0.224,0.5,0.5,0.5h2h1h2c0.275,0,0.5-0.224,0.5-0.5c0-0.275-0.225-0.499-0.5-0.499H9V9.964C11.803,9.619,14,7.91,14,3.999
		z M4.552,0.999h7.896c0.074,0.44,0.469,0.921,0.539,2.514c-1,1-2.496,2.477-4.487,0.486c-2-2-4.5,0-4.5,0
		C4,1.999,4.472,1.482,4.552,0.999z M8.5,9.062c-2.292,0-4.107-1.198-4.432-4.113C4.462,4.66,6.684,3.183,8.5,4.999
		c1.977,1.976,3.461,0.536,4.461-0.463C12.766,7.748,10.896,9.062,8.5,9.062z"/>
</g>
<g id="Layer_1">
</g>
</svg>
