<?xml version="1.0" encoding="iso-8859-1"?>
<!-- Generator: Adobe Illustrator 16.0.0, SVG Export Plug-In . SVG Version: 6.00 Build 0)  -->
<!DOCTYPE svg PUBLIC "-//W3C//DTD SVG 1.1//EN" "http://www.w3.org/Graphics/SVG/1.1/DTD/svg11.dtd">
<svg version="1.1" xmlns="http://www.w3.org/2000/svg" xmlns:xlink="http://www.w3.org/1999/xlink" x="0px" y="0px" width="16px"
	 height="16px" viewBox="0 0 16 16" style="enable-background:new 0 0 16 16;" xml:space="preserve">
<g id="_x33_4-food_-_fruit_cherry" style="enable-background:new    ;">
	<path d="M12.121,7.011c-0.508-0.617-1.15-1.479-1.684-2.452C9.871,3.524,9.365,1.832,9.135,0.998H10.5c0.275,0,0.5-0.223,0.5-0.499
		c0-0.275-0.225-0.501-0.5-0.501h-5C5.224-0.002,5,0.224,5,0.499c0,0.276,0.224,0.499,0.5,0.499h1.688
		C6.671,1.832,5.629,3.524,5.063,4.559c-0.646,1.18-1.082,2.561-1.326,3.467C1.653,8.163,0,9.88,0,11.999c0,2.209,1.791,4,4,4
		s4-1.791,4-4c0-1.946-1.39-3.563-3.23-3.923c0.244-0.774,0.652-1.935,1.237-3.122C6.447,4.059,7.35,2.75,8.051,1.779
		C8.473,2.75,9.053,4.059,9.494,4.954c0.576,1.171,1.145,1.825,1.529,2.179C9.289,7.57,8,9.128,8,10.999c0,2.209,1.791,4,4,4
		s4-1.791,4-4C16,8.831,14.273,7.077,12.121,7.011z M7,11.999c0,1.656-1.343,3-3,3s-3-1.344-3-3c0-1.657,1.343-3,3-3
		S7,10.342,7,11.999z M12,13.999c-1.656,0-3-1.343-3-3s1.344-3,3-3s3,1.343,3,3S13.656,13.999,12,13.999z"/>
</g>
<g id="Layer_1">
</g>
</svg>
