<?xml version="1.0" encoding="iso-8859-1"?>
<!-- Generator: Adobe Illustrator 16.0.0, SVG Export Plug-In . SVG Version: 6.00 Build 0)  -->
<!DOCTYPE svg PUBLIC "-//W3C//DTD SVG 1.1//EN" "http://www.w3.org/Graphics/SVG/1.1/DTD/svg11.dtd">
<svg version="1.1" xmlns="http://www.w3.org/2000/svg" xmlns:xlink="http://www.w3.org/1999/xlink" x="0px" y="0px" width="16px"
	 height="16px" viewBox="0 0 16 16" style="enable-background:new 0 0 16 16;" xml:space="preserve">
<g id="_x36_2-beverage_-_glass" style="enable-background:new    ;">
	<path d="M14,3.999c0-2-1-4.001-1-4.001H4c0,0-1,2.001-1,4.001c0,3.911,2.197,5.62,5,5.965v5.035H6c-0.276,0-0.5,0.224-0.5,0.499
		c0,0.276,0.224,0.5,0.5,0.5h2h1h2c0.275,0,0.5-0.224,0.5-0.5c0-0.275-0.225-0.499-0.5-0.499H9V9.964C11.803,9.619,14,7.91,14,3.999
		z M8.5,9.062C5.969,9.062,4,7.623,4,3.999c0-2,0.472-2.517,0.552-3h7.896c0.08,0.483,0.553,1,0.553,3
		C13,7.623,11.031,9.062,8.5,9.062z"/>
</g>
<g id="Layer_1">
</g>
</svg>
