<?xml version="1.0" encoding="iso-8859-1"?>
<!-- Generator: Adobe Illustrator 16.0.0, SVG Export Plug-In . SVG Version: 6.00 Build 0)  -->
<!DOCTYPE svg PUBLIC "-//W3C//DTD SVG 1.1//EN" "http://www.w3.org/Graphics/SVG/1.1/DTD/svg11.dtd">
<svg version="1.1" xmlns="http://www.w3.org/2000/svg" xmlns:xlink="http://www.w3.org/1999/xlink" x="0px" y="0px" width="16px"
	 height="16px" viewBox="0 0 16 16" style="enable-background:new 0 0 16 16;" xml:space="preserve">
<g id="_x36_7-beverage_-_tea_cup" style="enable-background:new    ;">
	<path d="M15,6.999h-2c-0.018,0-0.031,0.009-0.049,0.01c0-0.003-0.002-0.007-0.002-0.01H13v-1H0v1h0.05C0.037,7.167,0,7.327,0,7.498
		c0,4.501,2.91,6.5,6.5,6.5c2.631,0,4.891-0.812,5.914-3.21c0.166,0.123,0.363,0.211,0.586,0.211h2c0.553,0,1-0.448,1-1v-2
		C16,7.446,15.553,6.999,15,6.999z M6.5,12.999c-2.62,0-4.804-1.126-5.356-4.001h10.747C11.387,12.228,9.166,12.999,6.5,12.999z
		 M11.982,7.999H1.041C1.03,7.828,1,7.679,1,7.498c0-0.171,0.035-0.332,0.05-0.499h10.899C11.965,7.166,12,7.327,12,7.498
		C12,7.674,11.99,7.834,11.982,7.999z M15,8.998v0.5v0.501h-0.5h-1H13V9.498v-0.5v-0.5c0-0.275,0.225-0.499,0.5-0.499h1
		c0.275,0,0.5,0.224,0.5,0.499V8.998z M10,1.999H9v3h1V1.999z M7,0.999H6v4h1V0.999z M4,1.999H3v3h1V1.999z M11.5,14.999h-10
		c-0.276,0-0.5,0.224-0.5,0.5c0,0.275,0.224,0.499,0.5,0.499h10c0.275,0,0.5-0.224,0.5-0.499C12,15.223,11.775,14.999,11.5,14.999z"
		/>
</g>
<g id="Layer_1">
</g>
</svg>
