<?xml version="1.0" encoding="iso-8859-1"?>
<!-- Generator: Adobe Illustrator 16.0.0, SVG Export Plug-In . SVG Version: 6.00 Build 0)  -->
<!DOCTYPE svg PUBLIC "-//W3C//DTD SVG 1.1//EN" "http://www.w3.org/Graphics/SVG/1.1/DTD/svg11.dtd">
<svg version="1.1" xmlns="http://www.w3.org/2000/svg" xmlns:xlink="http://www.w3.org/1999/xlink" x="0px" y="0px" width="16px"
	 height="16px" viewBox="0 0 16 16" style="enable-background:new 0 0 16 16;" xml:space="preserve">
<g id="_x35_1-beverage_-_classic_cocktail" style="enable-background:new    ;">
	<path d="M13-0.001c-1.305,0-2.404,0.838-2.816,2.001H4.198L2.851-0.008L2.004,0.509L3.003,2H1v1.053L7,11v3.999H5.5
		c-0.276,0-0.5,0.224-0.5,0.5s0.224,0.5,0.5,0.5h4c0.275,0,0.5-0.224,0.5-0.5s-0.225-0.5-0.5-0.5H8V11l3.908-5.213
		C12.248,5.92,12.613,5.999,13,5.999c1.656,0,3-1.343,3-3S14.656-0.001,13-0.001z M7.5,10H7.498L2.213,3h1.459l3.269,4.881
		l0.866-0.5L4.869,3h7.881L7.5,10z M13,4.999c-0.158,0-0.309-0.022-0.457-0.057L14,3V2h-2.723C11.623,1.404,12.262,0.999,13,0.999
		c1.105,0,2,0.896,2,2C15,4.104,14.105,4.999,13,4.999z"/>
</g>
<g id="Layer_1">
</g>
</svg>
