<?xml version="1.0" encoding="iso-8859-1"?>
<!-- Generator: Adobe Illustrator 16.0.0, SVG Export Plug-In . SVG Version: 6.00 Build 0)  -->
<!DOCTYPE svg PUBLIC "-//W3C//DTD SVG 1.1//EN" "http://www.w3.org/Graphics/SVG/1.1/DTD/svg11.dtd">
<svg version="1.1" xmlns="http://www.w3.org/2000/svg" xmlns:xlink="http://www.w3.org/1999/xlink" x="0px" y="0px" width="16px"
	 height="16px" viewBox="0 0 16 16" style="enable-background:new 0 0 16 16;" xml:space="preserve">
<g id="_x34_7-beverage_-_wine_bottle" style="enable-background:new    ;">
	<path d="M11,8c0-1.5-1-2-1-2V0L8-0.001L6,0v1.999v1V6c0,0-1,0.5-1,2c0,0.5,0,7.999,0,7.999h3h3C11,15.999,11,8.5,11,8z M7,1h2
		v0.999H7V1z M9,14.999L9,14.999H8L7,15v-0.001H6c0,0,0-6.5,0-7C6,6.999,7,7,7,7V2.999h2V7c0,0,1-0.001,1,0.999c0,0.5,0,7,0,7H9z"/>
</g>
<g id="Layer_1">
</g>
</svg>
