<?xml version="1.0" encoding="iso-8859-1"?>
<!-- Generator: Adobe Illustrator 16.0.0, SVG Export Plug-In . SVG Version: 6.00 Build 0)  -->
<!DOCTYPE svg PUBLIC "-//W3C//DTD SVG 1.1//EN" "http://www.w3.org/Graphics/SVG/1.1/DTD/svg11.dtd">
<svg version="1.1" xmlns="http://www.w3.org/2000/svg" xmlns:xlink="http://www.w3.org/1999/xlink" x="0px" y="0px" width="16px"
	 height="16px" viewBox="0 0 16 16" style="enable-background:new 0 0 16 16;" xml:space="preserve">
<g id="_x37_1-food_-_chicken_drumstick" style="enable-background:new    ;">
	<path d="M13.971,2.024c-1.256-1.254-3.311-1.618-5.369,0.435C7.141,3.917,6.269,6.014,6.325,7.562L4.413,9.47
		C3.626,8.686,2.354,8.684,1.57,9.466c-0.784,0.781-0.782,2.051,0.004,2.836c0.431,0.429,1.004,0.602,1.566,0.562
		c-0.039,0.557,0.134,1.124,0.563,1.551c0.786,0.78,2.059,0.782,2.842,0.004s0.782-2.041-0.004-2.821c0,0-0.001,0-0.001,0
		l1.943-1.938c1.558,0.041,3.646-0.813,5.091-2.255C15.633,5.351,15.229,3.278,13.971,2.024z M5.613,11.106
		C5.613,11.106,5.612,11.106,5.613,11.106L5.117,11.6l0.666,0.665c0.209,0.184,0.347,0.444,0.348,0.743
		c0.002,0.552-0.445,0.998-0.999,0.996c-0.553-0.002-1.003-0.451-1.005-1.003c-0.001-0.27,0.108-0.512,0.281-0.691L3.69,11.593
		c-0.182,0.177-0.428,0.287-0.701,0.288c-0.557,0.001-1.007-0.448-1.005-1.003c0.001-0.556,0.454-1.007,1.01-1.008
		c0.316-0.001,0.587,0.153,0.771,0.381l0.642,0.641l0.715-0.714h0l1.483-1.479C6.684,8.844,6.76,8.992,6.874,9.105
		C6.999,9.23,7.159,9.317,7.323,9.4L5.613,11.106z M12.75,6.82c-1.684,1.682-4.262,2.484-5.16,1.587
		C6.691,7.509,7.511,4.962,9.193,3.28c1.684-1.682,3.174-1.443,4.072-0.545S14.432,5.139,12.75,6.82z"/>
</g>
<g id="Layer_1">
</g>
</svg>
