<?xml version="1.0" encoding="iso-8859-1"?>
<!-- Generator: Adobe Illustrator 16.0.0, SVG Export Plug-In . SVG Version: 6.00 Build 0)  -->
<!DOCTYPE svg PUBLIC "-//W3C//DTD SVG 1.1//EN" "http://www.w3.org/Graphics/SVG/1.1/DTD/svg11.dtd">
<svg version="1.1" xmlns="http://www.w3.org/2000/svg" xmlns:xlink="http://www.w3.org/1999/xlink" x="0px" y="0px" width="16px"
	 height="16px" viewBox="0 0 16 16" style="enable-background:new 0 0 16 16;" xml:space="preserve">
<g id="_x34_4-beverage_-_chinese_tea_green_tea" style="enable-background:new    ;">
	<path d="M6.5,4.998c0.276,0,0.5-0.224,0.5-0.5V2.499c0-0.276-0.224-0.501-0.5-0.501C6.224,1.998,6,2.223,6,2.499v1.999
		C6,4.774,6.224,4.998,6.5,4.998z M10.5,4.998c0.275,0,0.5-0.224,0.5-0.5V2.499c0-0.276-0.225-0.501-0.5-0.501S10,2.223,10,2.499
		v1.999C10,4.774,10.225,4.998,10.5,4.998z M8.5,4.998c0.276,0,0.5-0.224,0.5-0.5v-3c0-0.275-0.224-0.5-0.5-0.5
		c-0.275,0-0.5,0.225-0.5,0.5v3C8,4.774,8.224,4.998,8.5,4.998z M4,5.998v1v3c0,2.209,1.291,4,3.5,4h2c2.209,0,3.5-1.791,3.5-4v-3
		v-1H4z M12,9.998c0,1.657-0.844,3-2.5,3h-2c-1.657,0-2.5-1.343-2.5-3v-1h7V9.998z M12,7.999H5V6.998h7V7.999z M4,14.191v1.039
		c1.305,0.483,2.843,0.768,4.5,0.768s3.196-0.284,4.5-0.768v-1.039c-1.254,0.505-2.809,0.807-4.5,0.807
		C6.809,14.998,5.254,14.696,4,14.191z"/>
</g>
<g id="Layer_1">
</g>
</svg>
