<?xml version="1.0" encoding="iso-8859-1"?>
<!-- Generator: Adobe Illustrator 16.0.0, SVG Export Plug-In . SVG Version: 6.00 Build 0)  -->
<!DOCTYPE svg PUBLIC "-//W3C//DTD SVG 1.1//EN" "http://www.w3.org/Graphics/SVG/1.1/DTD/svg11.dtd">
<svg version="1.1" xmlns="http://www.w3.org/2000/svg" xmlns:xlink="http://www.w3.org/1999/xlink" x="0px" y="0px" width="16px"
	 height="16px" viewBox="0 0 16 16" style="enable-background:new 0 0 16 16;" xml:space="preserve">
<g id="_x31_3-kitchen_-_spoon_fork" style="enable-background:new    ;">
	<path d="M11.5,0.003C9.566,0.003,8,1.794,8,4.002c0,2.013,1.307,3.662,3,3.94v8.057h1V7.942c1.693-0.278,3-1.928,3-3.94
		C15,1.794,13.434,0.003,11.5,0.003z M11.5,7.005c-1.381,0-2.5-1.344-2.5-3.003c0-1.658,1.12-3.003,2.5-3.003S14,2.344,14,4.002
		C14,5.661,12.881,7.005,11.5,7.005z M5,3.986H4V0.004H3v3.982H2V0.004H1v3.982v1.027v0.892c0,1.157,0.896,2.096,2,2.096v7.998h1
		V8.001c1.104,0,2-0.938,2-2.096V5.014V3.986V0.004H5V3.986z M5,5.945c0,0.585-0.448,1.06-1,1.06H3c-0.552,0-1-0.475-1-1.06V5.014h3
		V5.945z"/>
</g>
<g id="Layer_1">
</g>
</svg>
