<?xml version="1.0" encoding="iso-8859-1"?>
<!-- Generator: Adobe Illustrator 16.0.0, SVG Export Plug-In . SVG Version: 6.00 Build 0)  -->
<!DOCTYPE svg PUBLIC "-//W3C//DTD SVG 1.1//EN" "http://www.w3.org/Graphics/SVG/1.1/DTD/svg11.dtd">
<svg version="1.1" xmlns="http://www.w3.org/2000/svg" xmlns:xlink="http://www.w3.org/1999/xlink" x="0px" y="0px" width="16px"
	 height="16px" viewBox="0 0 16 16" style="enable-background:new 0 0 16 16;" xml:space="preserve">
<g id="_x33_-kitchen_-_grill" style="enable-background:new    ;">
	<path d="M9,0.004H8v2.987h1V0.004z M12,1h-1v1.991h1V1z M6,1H5v1.991h1V1z M15,6.01c0-0.432,0-2.022,0-2.022H1c0,0,0,1.591,0,2.022
		c0,2.763,1.614,5.13,3.938,6.269l-1.934,3.201l0.894,0.518l2.016-3.338C6.577,12.867,7.269,13.012,8,13.012
		c0.732,0,1.424-0.145,2.086-0.353l2.016,3.338l0.895-0.518l-1.936-3.201C13.385,11.14,15,8.772,15,6.01z M8,12.002
		c-3.314,0-6-2.688-6-6.006C2,5.66,1.941,5.318,2,5h12c0.059,0.318,0,0.66,0,0.996C14,9.313,11.314,12.002,8,12.002z"/>
</g>
<g id="Layer_1">
</g>
</svg>
