<?xml version="1.0" encoding="iso-8859-1"?>
<!-- Generator: Adobe Illustrator 16.0.0, SVG Export Plug-In . SVG Version: 6.00 Build 0)  -->
<!DOCTYPE svg PUBLIC "-//W3C//DTD SVG 1.1//EN" "http://www.w3.org/Graphics/SVG/1.1/DTD/svg11.dtd">
<svg version="1.1" xmlns="http://www.w3.org/2000/svg" xmlns:xlink="http://www.w3.org/1999/xlink" x="0px" y="0px" width="16px"
	 height="16px" viewBox="0 0 16 16" style="enable-background:new 0 0 16 16;" xml:space="preserve">
<g id="_x36_0-beverage_-_coffee_cup" style="enable-background:new    ;">
	<path d="M10.479,13.999H3.494c-0.275,0-0.499,0.224-0.499,0.5s0.223,0.5,0.499,0.5h6.984c0.275,0,0.5-0.224,0.5-0.5
		S10.754,13.999,10.479,13.999z M14.969,3.999H12.73c0.166-1.179,0.242-2,0.242-2H6.986H1c0,0,0.998,11,3.991,11h1.995h1.996
		c1.149,0,2-1.623,2.62-3.62C15.375,8.61,14.969,3.999,14.969,3.999z M8.483,11.999H6.986H5.49c-1.282,0-2.166-2.376-2.725-4.688
		c0.694-0.444,2.618-1.42,4.222,0.188c1.834,1.838,3.246,0.72,4.236-0.249C10.664,9.58,9.777,11.999,8.483,11.999z M11.477,6.097
		V5.999c-0.998,0.999-2.495,2.5-4.49,0.5c-1.805-1.81-4.013-0.35-4.418-0.054C2.177,4.598,1.998,2.999,1.998,2.999h4.989h4.988
		C11.975,2.999,11.816,4.402,11.477,6.097z M11.863,8.465c0.309-1.173,0.541-2.395,0.715-3.466h1.393
		C13.971,4.999,13.969,8.12,11.863,8.465z"/>
</g>
<g id="Layer_1">
</g>
</svg>
