<?xml version="1.0" encoding="iso-8859-1"?>
<!-- Generator: Adobe Illustrator 16.0.0, SVG Export Plug-In . SVG Version: 6.00 Build 0)  -->
<!DOCTYPE svg PUBLIC "-//W3C//DTD SVG 1.1//EN" "http://www.w3.org/Graphics/SVG/1.1/DTD/svg11.dtd">
<svg version="1.1" xmlns="http://www.w3.org/2000/svg" xmlns:xlink="http://www.w3.org/1999/xlink" x="0px" y="0px" width="16px"
	 height="16px" viewBox="0 0 16 16" style="enable-background:new 0 0 16 16;" xml:space="preserve">
<g id="_x35_6-beverage_-_coffee_cup" style="enable-background:new    ;">
	<path d="M4.5,0.999h7c0.275,0,0.5-0.225,0.5-0.501c0-0.275-0.225-0.5-0.5-0.5h-7c-0.276,0-0.5,0.225-0.5,0.5
		C4,0.774,4.224,0.999,4.5,0.999z M13,1.998H3c-0.552,0-1,0.597-1,1.333v1.334c0,0.736,0.448,1.333,1,1.333v0.001v3.999v1.001v3.959
		c0,0.575,0.448,1.04,1,1.04h8c0.553,0,1-0.465,1-1.04v-3.959V9.998V5.999V5.998c0.553,0,1-0.597,1-1.333V3.331
		C14,2.595,13.553,1.998,13,1.998z M12,14.521c0,0.264-0.225,0.478-0.5,0.478h-7c-0.276,0-0.5-0.214-0.5-0.478v-3.521h1
		c0,1.657,1.343,3,3,3c1.656,0,3-1.343,3-3h1V14.521z M6,10.998c0-1.104,0.896-1.999,2-1.999c1.105,0,2,0.896,2,1.999
		c0,1.105-0.895,2.001-2,2.001C6.896,12.999,6,12.104,6,10.998z M12,9.998h-1.184C10.402,8.836,9.305,7.999,8,7.999
		c-1.304,0-2.403,0.837-2.816,1.999H4V5.999h8V9.998z M12.5,4.997h-9c-0.276,0-0.5-0.448-0.5-1c0-0.553,0.224-1,0.5-1h9
		c0.275,0,0.5,0.447,0.5,1C13,4.549,12.775,4.997,12.5,4.997z"/>
</g>
<g id="Layer_1">
</g>
</svg>
