<?xml version="1.0" encoding="iso-8859-1"?>
<!-- Generator: Adobe Illustrator 16.0.0, SVG Export Plug-In . SVG Version: 6.00 Build 0)  -->
<!DOCTYPE svg PUBLIC "-//W3C//DTD SVG 1.1//EN" "http://www.w3.org/Graphics/SVG/1.1/DTD/svg11.dtd">
<svg version="1.1" xmlns="http://www.w3.org/2000/svg" xmlns:xlink="http://www.w3.org/1999/xlink" x="0px" y="0px" width="16px"
	 height="16px" viewBox="0 0 16 16" style="enable-background:new 0 0 16 16;" xml:space="preserve">
<g id="_x36_5-beverage_-_water_glass" style="enable-background:new    ;">
	<path d="M8-0.002c-3.314,0-5,1.344-5,3c0,0,0,0,0,0.001v10c0,1.656,1.686,2.999,5,2.999c3.314,0,5-1.343,5-2.999v-10
		c0-0.001,0-0.001,0-0.001C13,1.342,11.314-0.002,8-0.002z M12,12.999c0,1.104-1.238,2-4,2s-4-0.896-4-2V4.911
		C4.825,5.57,6.149,5.998,8,5.998c1.852,0,3.174-0.428,4-1.087V12.999z M8,4.998c-2.762,0-4-0.896-4-2c0-1.105,1.238-2,4-2
		s4,0.895,4,2C12,4.103,10.762,4.998,8,4.998z"/>
</g>
<g id="Layer_1">
</g>
</svg>
