<?xml version="1.0" encoding="iso-8859-1"?>
<!-- Generator: Adobe Illustrator 16.0.0, SVG Export Plug-In . SVG Version: 6.00 Build 0)  -->
<!DOCTYPE svg PUBLIC "-//W3C//DTD SVG 1.1//EN" "http://www.w3.org/Graphics/SVG/1.1/DTD/svg11.dtd">
<svg version="1.1" xmlns="http://www.w3.org/2000/svg" xmlns:xlink="http://www.w3.org/1999/xlink" x="0px" y="0px" width="16px"
	 height="16px" viewBox="0 0 16 16" style="enable-background:new 0 0 16 16;" xml:space="preserve">
<g id="_x34_2-beverage_-_milk_bottle" style="enable-background:new    ;">
	<path style="fill-rule:evenodd;clip-rule:evenodd;" d="M12,7.003c0-0.5-2-1-2-1V3c0.553,0,1-0.672,1-1.5C11,0.671,10.553,0,10,0H6
		C5.448,0,5,0.671,5,1.5C5,2.329,5.448,3,6,3v3.002c0,0-2,0.5-2,1c0,0.5,0,7.998,0,7.998h0.05C4.022,15.08,4,15.162,4,15.251
		c0,0.414,0.336,0.75,0.75,0.75h6.5c0.414,0,0.75-0.336,0.75-0.75c0-0.089-0.021-0.171-0.051-0.25H12C12,15.001,12,7.503,12,7.003z
		 M6.5,1.001h3c0.275,0,0.5,0.224,0.5,0.5s-0.225,0.5-0.5,0.5H9v0.001H7V2.001H6.5c-0.277,0-0.5-0.224-0.5-0.5
		S6.223,1.001,6.5,1.001z M11,12.501c0,0.59,0,1,0,1v1c0,0.276-0.225,0.5-0.5,0.5h-5c-0.276,0-0.5-0.224-0.5-0.5v-1c0,0,0-0.41,0-1
		v-4.5c0-1,2-0.998,2-0.998v-4h2v4c0,0,2,0,2,1V12.501z"/>
</g>
<g id="Layer_1">
</g>
</svg>
