<?xml version="1.0" encoding="iso-8859-1"?>
<!-- Generator: Adobe Illustrator 16.0.0, SVG Export Plug-In . SVG Version: 6.00 Build 0)  -->
<!DOCTYPE svg PUBLIC "-//W3C//DTD SVG 1.1//EN" "http://www.w3.org/Graphics/SVG/1.1/DTD/svg11.dtd">
<svg version="1.1" xmlns="http://www.w3.org/2000/svg" xmlns:xlink="http://www.w3.org/1999/xlink" x="0px" y="0px" width="16px"
	 height="16px" viewBox="0 0 16 16" style="enable-background:new 0 0 16 16;" xml:space="preserve">
<g id="_x34_9-beverage_-_glass" style="enable-background:new    ;">
	<path d="M14.5,4.999H13v-2c0-1.104-0.895-2-2-2H3c-1.104,0-2,0.896-2,2v10c0,1.104,0.896,2,2,2h8c1.105,0,2-0.896,2-2v-1h1.5
		c0.828,0,1.5-0.671,1.5-1.5v-4C16,5.671,15.328,4.999,14.5,4.999z M12,12.999c0,0.553-0.447,1-1,1H3c-0.552,0-1-0.447-1-1v-10
		c0-0.552,0.448-1,1-1h8c0.553,0,1,0.448,1,1V12.999z M15,10.499c0,0.276-0.225,0.5-0.5,0.5H13v-5h1.5c0.275,0,0.5,0.225,0.5,0.5
		V10.499z"/>
</g>
<g id="Layer_1">
</g>
</svg>
