<?xml version="1.0" encoding="iso-8859-1"?>
<!-- Generator: Adobe Illustrator 16.0.0, SVG Export Plug-In . SVG Version: 6.00 Build 0)  -->
<!DOCTYPE svg PUBLIC "-//W3C//DTD SVG 1.1//EN" "http://www.w3.org/Graphics/SVG/1.1/DTD/svg11.dtd">
<svg version="1.1" xmlns="http://www.w3.org/2000/svg" xmlns:xlink="http://www.w3.org/1999/xlink" x="0px" y="0px" width="16px"
	 height="16px" viewBox="0 0 16 16" style="enable-background:new 0 0 16 16;" xml:space="preserve">
<g id="_x37_0-kitchen_-_spatula" style="enable-background:new    ;">
	<path d="M11,2h-1v4.999h1V2z M9,2H8v4.999h1V2z M7,2H6v4.999h1V2z M12.5-0.001h-8c-0.276,0-0.5,0.225-0.5,0.5v8
		c0,0.276,0.224,0.5,0.5,0.5H8V12H7v4h1h1h1v-4H9V8.999h3.5c0.275,0,0.5-0.224,0.5-0.5v-8C13,0.224,12.775-0.001,12.5-0.001z
		 M9,14.999H8V13h1V14.999z M12,7.999H9H8H5v-7h7V7.999z"/>
</g>
<g id="Layer_1">
</g>
</svg>
