<?xml version="1.0" encoding="iso-8859-1"?>
<!-- Generator: Adobe Illustrator 16.0.0, SVG Export Plug-In . SVG Version: 6.00 Build 0)  -->
<!DOCTYPE svg PUBLIC "-//W3C//DTD SVG 1.1//EN" "http://www.w3.org/Graphics/SVG/1.1/DTD/svg11.dtd">
<svg version="1.1" xmlns="http://www.w3.org/2000/svg" xmlns:xlink="http://www.w3.org/1999/xlink" x="0px" y="0px" width="16px"
	 height="16px" viewBox="0 0 16 16" style="enable-background:new 0 0 16 16;" xml:space="preserve">
<g id="_x33_5-food_-_fruit_cherry" style="enable-background:new    ;">
	<path d="M12.432,8.042c-0.533-0.905-1.344-2.297-1.994-3.483c-0.512-0.935-0.973-1.965-1.229-2.56H10.5
		c0.275,0,0.5-0.225,0.5-0.501c0-0.275-0.225-0.499-0.5-0.499h-5C5.224,0.999,5,1.223,5,1.498c0,0.276,0.224,0.501,0.5,0.501h1.522
		c-0.551,0.595-1.447,1.625-1.959,2.56c-0.646,1.18-1.082,2.561-1.326,3.466C1.653,8.163,0,9.88,0,11.999c0,2.209,1.791,4,4,4
		s4-1.791,4-4c0-1.946-1.39-3.563-3.23-3.923c0.244-0.774,0.652-1.935,1.237-3.122C6.447,4.059,7.35,3.073,8.051,2.381
		c0.422,0.692,1.001,1.678,1.443,2.573c0.691,1.407,1.373,2.542,1.736,3.122C9.391,8.436,8,10.053,8,11.999c0,2.209,1.791,4,4,4
		s4-1.791,4-4C16,9.938,14.436,8.26,12.432,8.042z M7,11.999c0,1.656-1.343,3-3,3s-3-1.344-3-3c0-1.657,1.343-3,3-3
		S7,10.342,7,11.999z M12,14.999c-1.656,0-3-1.344-3-3c0-1.657,1.344-3,3-3s3,1.343,3,3C15,13.655,13.656,14.999,12,14.999z"/>
</g>
<g id="Layer_1">
</g>
</svg>
