<?xml version="1.0" encoding="iso-8859-1"?>
<!-- Generator: Adobe Illustrator 16.0.0, SVG Export Plug-In . SVG Version: 6.00 Build 0)  -->
<!DOCTYPE svg PUBLIC "-//W3C//DTD SVG 1.1//EN" "http://www.w3.org/Graphics/SVG/1.1/DTD/svg11.dtd">
<svg version="1.1" xmlns="http://www.w3.org/2000/svg" xmlns:xlink="http://www.w3.org/1999/xlink" x="0px" y="0px" width="16px"
	 height="16px" viewBox="0 0 16 16" style="enable-background:new 0 0 16 16;" xml:space="preserve">
<g id="_x32_-kitchen_-_fridge" style="enable-background:new    ;">
	<path d="M6,8.999H5v1.999h1V8.999z M5,5.999h1v-2H5V5.999z M13-0.001H4c-0.552,0-1,0.448-1,1v13.999c0,0.553,0.448,1.001,1,1.001h9
		c0.553,0,1-0.448,1-1.001V0.999C14,0.447,13.553-0.001,13-0.001z M13,14.499c0,0.276-0.225,0.499-0.5,0.499h-8
		c-0.276,0-0.5-0.223-0.5-0.499v-6.5h9V14.499z M13,6.998H4V1.499c0-0.276,0.224-0.5,0.5-0.5h8c0.275,0,0.5,0.224,0.5,0.5V6.998z"/>
</g>
<g id="Layer_1">
</g>
</svg>
