<?xml version="1.0" encoding="iso-8859-1"?>
<!-- Generator: Adobe Illustrator 16.0.0, SVG Export Plug-In . SVG Version: 6.00 Build 0)  -->
<!DOCTYPE svg PUBLIC "-//W3C//DTD SVG 1.1//EN" "http://www.w3.org/Graphics/SVG/1.1/DTD/svg11.dtd">
<svg version="1.1" xmlns="http://www.w3.org/2000/svg" xmlns:xlink="http://www.w3.org/1999/xlink" x="0px" y="0px" width="16px"
	 height="16px" viewBox="0 0 16 16" style="enable-background:new 0 0 16 16;" xml:space="preserve">
<g id="_x32_0-kitchen_-_water_drop" style="enable-background:new    ;">
	<path d="M8,0.998c0,0-5,5.687-5,9c0,3.314,2.238,6.001,5,6.001s5-2.687,5-6.001C13,6.685,8,0.998,8,0.998z M8,14.998
		c-2.209,0-4-2.238-4-5c0-2.761,4-7.499,4-7.499s4,4.738,4,7.499C12,12.76,10.209,14.998,8,14.998z M5.5,9.499
		c0-0.058,0.006-0.113,0.008-0.171C5.188,9.806,5,10.381,5,10.999c0,1.656,1.343,3,3,3c0.619,0,1.193-0.188,1.67-0.509
		c-0.057,0.002-0.113,0.009-0.17,0.009C7.291,13.499,5.5,11.708,5.5,9.499z"/>
</g>
<g id="Layer_1">
</g>
</svg>
