<?xml version="1.0" encoding="iso-8859-1"?>
<!-- Generator: Adobe Illustrator 16.0.0, SVG Export Plug-In . SVG Version: 6.00 Build 0)  -->
<!DOCTYPE svg PUBLIC "-//W3C//DTD SVG 1.1//EN" "http://www.w3.org/Graphics/SVG/1.1/DTD/svg11.dtd">
<svg version="1.1" xmlns="http://www.w3.org/2000/svg" xmlns:xlink="http://www.w3.org/1999/xlink" x="0px" y="0px" width="16px"
	 height="16px" viewBox="0 0 16 16" style="enable-background:new 0 0 16 16;" xml:space="preserve">
<g id="_x35_4-beverage_-_tea_cup" style="enable-background:new    ;">
	<path d="M13,3.998h-0.123c-0.467-2.278-2.461-4-4.877-4s-4.411,1.722-4.877,4H3c-0.552,0-1,0.513-1,1.144v1.714
		c0,0.631,0.448,1.143,1,1.143h0.125l0.875,7c0,0.553,0.448,1,1,1h6c0.553,0,1-0.447,1-1l0.875-7H13c0.553,0,1-0.512,1-1.143V5.142
		C14,4.511,13.553,3.998,13,3.998z M8,0.999c1.861,0,3.41,1.277,3.855,2.999H4.145C4.59,2.276,6.139,0.999,8,0.999z M11,14.499
		c0,0.275-0.225,0.499-0.5,0.499h-5c-0.276,0-0.5-0.224-0.5-0.499L4.071,7.998h7.856L11,14.499z M13,6.331
		c0,0.369-0.225,0.667-0.5,0.667h-9C3.224,6.998,3,6.7,3,6.331V5.665c0-0.368,0.224-0.667,0.5-0.667h9c0.275,0,0.5,0.299,0.5,0.667
		V6.331z M10,9.998H6v3.001h4V9.998z M9,11.999H7v-1.001h2V11.999z"/>
</g>
<g id="Layer_1">
</g>
</svg>
