<?xml version="1.0" encoding="iso-8859-1"?>
<!-- Generator: Adobe Illustrator 16.0.0, SVG Export Plug-In . SVG Version: 6.00 Build 0)  -->
<!DOCTYPE svg PUBLIC "-//W3C//DTD SVG 1.1//EN" "http://www.w3.org/Graphics/SVG/1.1/DTD/svg11.dtd">
<svg version="1.1" xmlns="http://www.w3.org/2000/svg" xmlns:xlink="http://www.w3.org/1999/xlink" x="0px" y="0px" width="16px"
	 height="16px" viewBox="0 0 16 16" style="enable-background:new 0 0 16 16;" xml:space="preserve">
<g id="_x37_-kitchen_-_pepper_salt" style="enable-background:new    ;">
	<path d="M12,0.999H9v-1H7v1H4c-1.104,0-2,0.896-2,2c0,0.932,0.639,1.706,1.5,1.93V6c0,0.551,0.448,0.999,1,0.999H5v2
		c-0.552,0-1,0.448-1,1v4v1v1h1h6h1v-1v-1v-4c0-0.552-0.447-1-1-1v-2h0.5c0.553,0,1-0.448,1-0.999V4.929
		c0.861-0.224,1.5-0.998,1.5-1.93C14,1.895,13.105,0.999,12,0.999z M11,13.999v1H5v-1v-3.5c0-0.275,0.224-0.5,0.5-0.5h5
		c0.275,0,0.5,0.225,0.5,0.5V13.999z M6,8.999v-2h4v2H6z M11.5,5.499C11.5,5.775,11.275,6,11,6H5C4.724,6,4.5,5.775,4.5,5.499v-0.5
		h7V5.499z M12,3.999H4c-0.552,0-1-0.447-1-1C3,2.447,3.448,2,4,2h3h2h3c0.553,0,1,0.447,1,0.999C13,3.552,12.553,3.999,12,3.999z"
		/>
</g>
<g id="Layer_1">
</g>
</svg>
