<?xml version="1.0" encoding="iso-8859-1"?>
<!-- Generator: Adobe Illustrator 16.0.0, SVG Export Plug-In . SVG Version: 6.00 Build 0)  -->
<!DOCTYPE svg PUBLIC "-//W3C//DTD SVG 1.1//EN" "http://www.w3.org/Graphics/SVG/1.1/DTD/svg11.dtd">
<svg version="1.1" xmlns="http://www.w3.org/2000/svg" xmlns:xlink="http://www.w3.org/1999/xlink" x="0px" y="0px" width="16px"
	 height="16px" viewBox="0 0 16 16" style="enable-background:new 0 0 16 16;" xml:space="preserve">
<g id="_x33_2-food_-_fruit_melon" style="enable-background:new    ;">
	<path d="M15.008,12.286L7.726,5.004L7.723,4.993L7.716,4.994l-3.991-3.99l-0.36,0.36L3.343,1.342C1.896,2.789,1,4.789,1,6.998
		c0,4.419,3.582,8.001,8,8.001c2.028,0,3.872-0.76,5.282-2.002l0.008,0.008l0.168-0.167c0.064-0.062,0.137-0.118,0.199-0.183
		l-0.008-0.009L15.008,12.286z M9,13.999c-3.866,0-7-3.135-7-7.001c0-1.749,0.665-3.329,1.726-4.557l2.79,2.79l-3.51,0.694
		l0.28,1.069l4.17-0.824l0.812,0.812l-3.263,3.264l0.749,0.749l3.263-3.264L9.5,8.216v4.783h1l0.006-3.778l3.051,3.052
		C12.33,13.334,10.75,13.999,9,13.999z"/>
</g>
<g id="Layer_1">
</g>
</svg>
