<?xml version="1.0" encoding="iso-8859-1"?>
<!-- Generator: Adobe Illustrator 16.0.0, SVG Export Plug-In . SVG Version: 6.00 Build 0)  -->
<!DOCTYPE svg PUBLIC "-//W3C//DTD SVG 1.1//EN" "http://www.w3.org/Graphics/SVG/1.1/DTD/svg11.dtd">
<svg version="1.1" xmlns="http://www.w3.org/2000/svg" xmlns:xlink="http://www.w3.org/1999/xlink" x="0px" y="0px" width="16px"
	 height="16px" viewBox="0 0 16 16" style="enable-background:new 0 0 16 16;" xml:space="preserve">
<g id="_x32_5-food_-_bowl_noodle_chopstick" style="enable-background:new    ;">
	<path style="fill-rule:evenodd;clip-rule:evenodd;" d="M10.691,7.001l3.875-3.452c0.205-0.184,0.225-0.5,0.041-0.706
		c-0.184-0.207-0.5-0.225-0.707-0.041L9.188,7.001H10.691z M15.5,8H15H1H0.5H0c0,4.418,3.582,8,8,8c4.417,0,8-3.582,8-8H15.5z M8,15
		c-2.376,0-4.469-1.188-5.731-2.998H13.73C12.469,13.813,10.377,15,8,15z M14.313,11H1.689C1.393,10.377,1.181,9.707,1.08,9h13.842
		C14.82,9.707,14.607,10.377,14.313,11z M11.939,1.742c0.139-0.235,0.057-0.536-0.182-0.672c-0.24-0.136-0.545-0.056-0.684,0.179
		L7.686,7.001h1.157L11.939,1.742z"/>
</g>
<g id="Layer_1">
</g>
</svg>
