<?xml version="1.0" encoding="iso-8859-1"?>
<!-- Generator: Adobe Illustrator 16.0.0, SVG Export Plug-In . SVG Version: 6.00 Build 0)  -->
<!DOCTYPE svg PUBLIC "-//W3C//DTD SVG 1.1//EN" "http://www.w3.org/Graphics/SVG/1.1/DTD/svg11.dtd">
<svg version="1.1" xmlns="http://www.w3.org/2000/svg" xmlns:xlink="http://www.w3.org/1999/xlink" x="0px" y="0px" width="16px"
	 height="16px" viewBox="0 0 16 16" style="enable-background:new 0 0 16 16;" xml:space="preserve">
<g id="_x32_6-food_-_bowl_noodle_chopstick" style="enable-background:new    ;">
	<path style="fill-rule:evenodd;clip-rule:evenodd;" d="M10.689,5.998l3.877-3.452c0.205-0.184,0.225-0.5,0.041-0.706
		s-0.5-0.225-0.707-0.041L9.188,5.998H10.689z M0,6.998c0,2.959,1.61,5.539,4,6.921l0.162,0.078c0.292,0.16,0.589,0.313,0.902,0.437
		C5.036,14.536,5,14.637,5,14.748c0,0.689,0.559,1.25,1.25,1.25h3.5c0.689,0,1.25-0.561,1.25-1.25c0-0.111-0.035-0.212-0.063-0.314
		c0.313-0.124,0.609-0.276,0.9-0.437L12,13.919c2.391-1.383,4-3.962,4-6.921H0z M10,14.997H6v-1h4V14.997z M11.559,12.998H4.441
		c-1.778-1.057-3.055-2.864-3.362-5h13.842C14.613,10.134,13.336,11.941,11.559,12.998z M11.939,0.739
		c0.139-0.235,0.057-0.536-0.182-0.672c-0.24-0.136-0.545-0.056-0.684,0.179L7.686,5.998h1.156L11.939,0.739z"/>
</g>
<g id="Layer_1">
</g>
</svg>
