<?xml version="1.0" encoding="iso-8859-1"?>
<!-- Generator: Adobe Illustrator 16.0.0, SVG Export Plug-In . SVG Version: 6.00 Build 0)  -->
<!DOCTYPE svg PUBLIC "-//W3C//DTD SVG 1.1//EN" "http://www.w3.org/Graphics/SVG/1.1/DTD/svg11.dtd">
<svg version="1.1" xmlns="http://www.w3.org/2000/svg" xmlns:xlink="http://www.w3.org/1999/xlink" x="0px" y="0px" width="16px"
	 height="16px" viewBox="0 0 16 16" style="enable-background:new 0 0 16 16;" xml:space="preserve">
<g id="_x35_8-beverage_-_coffee_cup" style="enable-background:new    ;">
	<path d="M14.969,4.999H12.73c0.168-1.184,0.242-2,0.242-2H6.986H1c0,0,0.998,11,3.991,11h1.995h1.996
		c1.149,0,2.002-1.623,2.622-3.62C15.375,9.608,14.969,4.999,14.969,4.999z M8.483,12.999H6.986H5.49
		c-2.494,0-3.492-9.001-3.492-9.001h4.989h4.988C11.975,3.998,10.979,12.999,8.483,12.999z M11.863,9.464
		c0.309-1.168,0.543-2.396,0.717-3.465h1.391C13.971,5.999,13.969,9.119,11.863,9.464z"/>
</g>
<g id="Layer_1">
</g>
</svg>
