<?xml version="1.0" encoding="iso-8859-1"?>
<!-- Generator: Adobe Illustrator 16.0.0, SVG Export Plug-In . SVG Version: 6.00 Build 0)  -->
<!DOCTYPE svg PUBLIC "-//W3C//DTD SVG 1.1//EN" "http://www.w3.org/Graphics/SVG/1.1/DTD/svg11.dtd">
<svg version="1.1" xmlns="http://www.w3.org/2000/svg" xmlns:xlink="http://www.w3.org/1999/xlink" x="0px" y="0px" width="16px"
	 height="16px" viewBox="0 0 16 16" style="enable-background:new 0 0 16 16;" xml:space="preserve">
<g id="_x38_-kitchen_-_tissue_paper" style="enable-background:new    ;">
	<path style="fill-rule:evenodd;clip-rule:evenodd;" d="M11.992,0H4.006C1.801,0,0.013,2.239,0.013,5c0,0,0,0.001,0,0.001H0v2h0.014
		V16h8.985v-5h2.992c0.002,0,0.002,0,0.002,0c2.207,0,3.994-2.463,3.994-5.5C15.986,2.462,14.199,0,11.992,0z M8,15H1.013V5.034
		c0-0.011-0.002-0.022-0.002-0.034c0-2.209,1.342-4,2.995-4C4.01,1,4.013,1.001,4.017,1.001l2.365,0C6.381,1,6.38,1,6.38,1h3.321
		C8.674,1.995,8,3.638,8,5.5C8,5.669,8,15,8,15z M11.992,10c0,0,0,0-0.002,0H11v0.002H9V10H8.995l0.037-4.999
		C9.199,2.754,10.451,1,11.992,1c1.654,0,2.996,2.015,2.996,4.5C14.988,7.986,13.646,10,11.992,10z M12.492,3
		C11.686,3,11.031,4.068,11,5.403v0.194C11.031,6.931,11.686,8,12.492,8c0.826,0,1.498-1.119,1.498-2.5
		C13.99,4.119,13.318,3,12.492,3z M12.492,7c-0.275,0-0.5-0.671-0.5-1.5c0-0.828,0.225-1.5,0.5-1.5s0.5,0.672,0.5,1.5
		C12.992,6.329,12.768,7,12.492,7z"/>
</g>
<g id="Layer_1">
</g>
</svg>
