<?xml version="1.0" encoding="iso-8859-1"?>
<!-- Generator: Adobe Illustrator 16.0.0, SVG Export Plug-In . SVG Version: 6.00 Build 0)  -->
<!DOCTYPE svg PUBLIC "-//W3C//DTD SVG 1.1//EN" "http://www.w3.org/Graphics/SVG/1.1/DTD/svg11.dtd">
<svg version="1.1" xmlns="http://www.w3.org/2000/svg" xmlns:xlink="http://www.w3.org/1999/xlink" x="0px" y="0px" width="16px"
	 height="16px" viewBox="0 0 16 16" style="enable-background:new 0 0 16 16;" xml:space="preserve">
<g id="_x36_6-beverage_-_cup_with_straw" style="enable-background:new    ;">
	<path d="M14.5,1.999H5.918L4.835,0.004L4.004,0.515L4.81,1.999H1.5c-0.276,0-0.5,0.225-0.5,0.5v3c0,0.276,0.224,0.5,0.5,0.5h1.591
		l0.909,10h8l0.908-10H14.5c0.275,0,0.5-0.224,0.5-0.5v-3C15,2.224,14.775,1.999,14.5,1.999z M2,4.999v-2h3.353L6,4.192v0.807H2z
		 M11,15H5L4.1,5.999H6v7h1v-7h4.9L11,15z M14,4.999H7V4H6.971l0.025-0.016L6.461,2.999H14V4.999z"/>
</g>
<g id="Layer_1">
</g>
</svg>
