<?xml version="1.0" encoding="iso-8859-1"?>
<!-- Generator: Adobe Illustrator 16.0.0, SVG Export Plug-In . SVG Version: 6.00 Build 0)  -->
<!DOCTYPE svg PUBLIC "-//W3C//DTD SVG 1.1//EN" "http://www.w3.org/Graphics/SVG/1.1/DTD/svg11.dtd">
<svg version="1.1" xmlns="http://www.w3.org/2000/svg" xmlns:xlink="http://www.w3.org/1999/xlink" x="0px" y="0px" width="16px"
	 height="16px" viewBox="0 0 16 16" style="enable-background:new 0 0 16 16;" xml:space="preserve">
<g id="_x35_9-beverage_-_tea_cup" style="enable-background:new    ;">
	<path d="M12.5,13.999h-12c-0.276,0-0.5,0.224-0.5,0.5s0.224,0.5,0.5,0.5h12c0.275,0,0.5-0.224,0.5-0.5S12.775,13.999,12.5,13.999z
		 M13,3.05V2.999v-1H0v1v5c0,2.762,2.238,5,5,5h3c2.053,0,3.814-1.239,4.586-3.009C14.479,9.944,16,8.402,16,6.499
		C16,4.737,14.693,3.294,13,3.05z M12,7.999c0,2.209-1.791,4-4,4H5c-2.209,0-4-1.791-4-4v-5h11V7.999z M12.906,8.958
		C12.967,8.647,13,8.327,13,7.999V4.05c1.141,0.231,2,1.239,2,2.449C15,7.741,14.092,8.763,12.906,8.958z"/>
</g>
<g id="Layer_1">
</g>
</svg>
