<?xml version="1.0" encoding="iso-8859-1"?>
<!-- Generator: Adobe Illustrator 16.0.0, SVG Export Plug-In . SVG Version: 6.00 Build 0)  -->
<!DOCTYPE svg PUBLIC "-//W3C//DTD SVG 1.1//EN" "http://www.w3.org/Graphics/SVG/1.1/DTD/svg11.dtd">
<svg version="1.1" xmlns="http://www.w3.org/2000/svg" xmlns:xlink="http://www.w3.org/1999/xlink" x="0px" y="0px" width="16px"
	 height="16px" viewBox="0 0 16 16" style="enable-background:new 0 0 16 16;" xml:space="preserve">
<g id="_x32_3-food_-_onigiri" style="enable-background:new    ;">
	<path d="M16.014,11.181C16.014,5.558,13.9,0.999,8,0.999c-5.901,0-8.014,4.559-8.014,10.182c0,0-0.512,3.03,5.536,3.688
		c0.142,0.076,0.296,0.131,0.469,0.131H8c0.001,0,0.003,0,0.004,0h2.003c0.172,0,0.326-0.055,0.469-0.13
		C16.525,14.214,16.014,11.181,16.014,11.181z M10.008,13.499c0,0.276-0.225,0.5-0.502,0.5H6.494c-0.277,0-0.502-0.224-0.502-0.5v-2
		c0-0.275,0.225-0.5,0.502-0.5h3.012c0.277,0,0.502,0.225,0.502,0.5V13.499z M14.635,12.292c-0.395,0.467-1.361,1.163-3.623,1.504
		v-2.797c0-0.553-0.449-1-1.004-1H5.992c-0.555,0-1.004,0.447-1.004,1v2.794c-2.195-0.332-3.167-0.998-3.573-1.447
		c-0.433-0.478-0.44-0.909-0.436-1.005l0.012-0.04v-0.12C0.991,6.992,2.207,2,8,2c5.792,0,7.009,4.992,7.009,9.181v0.087
		l0.014,0.085C15.025,11.356,15.053,11.797,14.635,12.292z"/>
</g>
<g id="Layer_1">
</g>
</svg>
