<?xml version="1.0" encoding="iso-8859-1"?>
<!-- Generator: Adobe Illustrator 16.0.0, SVG Export Plug-In . SVG Version: 6.00 Build 0)  -->
<!DOCTYPE svg PUBLIC "-//W3C//DTD SVG 1.1//EN" "http://www.w3.org/Graphics/SVG/1.1/DTD/svg11.dtd">
<svg version="1.1" xmlns="http://www.w3.org/2000/svg" xmlns:xlink="http://www.w3.org/1999/xlink" x="0px" y="0px" width="16px"
	 height="16px" viewBox="0 0 16 16" style="enable-background:new 0 0 16 16;" xml:space="preserve">
<g id="_x36_4-beverage_-_glass" style="enable-background:new    ;">
	<path d="M3-0.002v1.001c0,0,0,0.419,0,1.499C3,6.41,5.197,9.619,8,9.964v5.035H6c-0.276,0-0.5,0.224-0.5,0.499
		c0,0.276,0.224,0.5,0.5,0.5h2h1h2c0.275,0,0.5-0.224,0.5-0.5c0-0.275-0.225-0.499-0.5-0.499H9V9.964c2.803-0.345,5-3.554,5-7.466
		c0-0.573,0-1.5,0-1.5v-1H3z M13,2.498c0,3.625-1.969,6.563-4.5,6.563C5.969,9.062,4,6.123,4,2.498c0-0.519-0.028-1.016,0.052-1.5
		h8.896C13.027,1.482,13,1.979,13,2.498z"/>
</g>
<g id="Layer_1">
</g>
</svg>
