<?xml version="1.0" encoding="iso-8859-1"?>
<!-- Generator: Adobe Illustrator 16.0.0, SVG Export Plug-In . SVG Version: 6.00 Build 0)  -->
<!DOCTYPE svg PUBLIC "-//W3C//DTD SVG 1.1//EN" "http://www.w3.org/Graphics/SVG/1.1/DTD/svg11.dtd">
<svg version="1.1" xmlns="http://www.w3.org/2000/svg" xmlns:xlink="http://www.w3.org/1999/xlink" x="0px" y="0px" width="16px"
	 height="16px" viewBox="0 0 16 16" style="enable-background:new 0 0 16 16;" xml:space="preserve">
<g id="_x33_0-food_-_chinese_box_food" style="enable-background:new    ;">
	<path d="M3.589,1.006C3.317,0.96,3.058,1.146,3.01,1.423L2,6.129L0.989,1.423C0.942,1.146,0.683,0.96,0.411,1.006
		s-0.453,0.307-0.405,0.582l1.485,6.914l-1.485,6.922c-0.048,0.276,0.134,0.537,0.405,0.583c0.271,0.045,0.531-0.141,0.578-0.417
		l1.012-4.714l1.009,4.698c0.048,0.276,0.307,0.463,0.579,0.417c0.271-0.046,0.453-0.307,0.405-0.582L2.51,8.502l1.484-6.913
		C4.042,1.313,3.86,1.052,3.589,1.006z M16,4.09l-1-3.182c0-0.503-0.447-0.91-1-0.91H7c-0.552,0-1,0.407-1,0.91L5,4.09
		c0,0.164,0.061,0.31,0.145,0.443C5.061,4.686,5,4.854,5,5.042l1,9.913c0,0.576,0.448,1.044,1,1.044h7c0.553,0,1-0.468,1-1.044
		l1-9.913c0-0.188-0.061-0.356-0.145-0.509C15.939,4.399,16,4.254,16,4.09z M14,14.472c0,0.291-0.225,0.526-0.5,0.526h-6
		c-0.276,0-0.5-0.235-0.5-0.526l-0.165-1.474h7.329L14,14.472z M14.277,11.998H6.724l-0.224-2h8L14.277,11.998z M14.611,8.998H6.388
		L6,5.524c0-0.29,0.223-0.525,0.499-0.525h8.003C14.777,4.999,15,5.234,15,5.524L14.611,8.998z M14.5,3.998h-8
		C6.224,3.998,6,3.807,6,3.57l1-2.144C7,1.19,7.224,0.999,7.5,0.999h6c0.275,0,0.5,0.191,0.5,0.428l1,2.144
		C15,3.807,14.775,3.998,14.5,3.998z"/>
</g>
<g id="Layer_1">
</g>
</svg>
