<?xml version="1.0" encoding="iso-8859-1"?>
<!-- Generator: Adobe Illustrator 16.0.0, SVG Export Plug-In . SVG Version: 6.00 Build 0)  -->
<!DOCTYPE svg PUBLIC "-//W3C//DTD SVG 1.1//EN" "http://www.w3.org/Graphics/SVG/1.1/DTD/svg11.dtd">
<svg version="1.1" xmlns="http://www.w3.org/2000/svg" xmlns:xlink="http://www.w3.org/1999/xlink" x="0px" y="0px" width="16px"
	 height="16px" viewBox="0 0 16 16" style="enable-background:new 0 0 16 16;" xml:space="preserve">
<g id="_x33_8-food_-_ice_cream_dessert" style="enable-background:new    ;">
	<path d="M15,4.5C15,3.119,13.881,2,12.5,2c-0.273,0-0.531,0.055-0.775,0.135C11.191,0.881,9.949,0,8.5,0
		C7.051,0,5.808,0.881,5.276,2.135C5.03,2.055,4.773,2,4.5,2C3.119,2,2,3.119,2,4.5C2,4.671,2.018,4.838,2.05,5v0.999
		C2.038,6.167,2,6.328,2,6.499c0,3.419,2.648,6.19,6,6.45v2.05H6v1h2h1h2v-1H9v-2.05c3.352-0.26,6-3.031,6-6.45
		c0-0.171-0.037-0.332-0.051-0.5V5C14.982,4.838,15,4.671,15,4.5z M8.5,1c1.079,0,1.989,0.687,2.34,1.644
		C10.328,3.102,10,3.76,10,4.5c0,0.173,0.023,0.338,0.061,0.5H6.94C6.976,4.838,7,4.673,7,4.5c0-0.74-0.328-1.398-0.84-1.856
		C6.511,1.687,7.421,1,8.5,1z M4.5,3C5.329,3,6,3.672,6,4.5C6,4.677,5.956,4.842,5.899,5H3.233H3.101C3.044,4.842,3,4.677,3,4.5
		C3,3.672,3.671,3,4.5,3z M8.5,11.999c-3.037,0-5.5-2.463-5.5-5.5c0-0.171,0.035-0.333,0.05-0.5h10.899
		C13.965,6.166,14,6.328,14,6.499C14,9.536,11.537,11.999,8.5,11.999z M13.898,5h-0.131h-2.666C11.045,4.842,11,4.677,11,4.5
		C11,3.672,11.672,3,12.5,3S14,3.672,14,4.5C14,4.677,13.955,4.842,13.898,5z"/>
</g>
<g id="Layer_1">
</g>
</svg>
