<?xml version="1.0" encoding="iso-8859-1"?>
<!-- Generator: Adobe Illustrator 16.0.0, SVG Export Plug-In . SVG Version: 6.00 Build 0)  -->
<!DOCTYPE svg PUBLIC "-//W3C//DTD SVG 1.1//EN" "http://www.w3.org/Graphics/SVG/1.1/DTD/svg11.dtd">
<svg version="1.1" xmlns="http://www.w3.org/2000/svg" xmlns:xlink="http://www.w3.org/1999/xlink" x="0px" y="0px" width="16px"
	 height="16px" viewBox="0 0 16 16" style="enable-background:new 0 0 16 16;" xml:space="preserve">
<g id="_x35_-kitchen_-_hood_food" style="enable-background:new    ;">
	<path d="M15.986,11.498c0-3.973-2.811-7.216-6.957-7.475V3H10.5C10.775,3,11,2.776,11,2.5S10.775,2,10.5,2h-4
		C6.224,2,6,2.224,6,2.5S6.224,3,6.5,3h1.47v1.023c-4.146,0.259-6.956,3.502-6.956,7.475c0,0.169,0,0.501,0,0.501v0.999h14.973
		v-0.999C15.986,11.999,15.986,11.667,15.986,11.498z M14.898,11.999H2.101c-0.013-0.166-0.027-0.332-0.027-0.501
		c0-3.59,2.618-6.499,6.425-6.499c3.809,0,6.426,2.909,6.426,6.499C14.926,11.667,14.912,11.833,14.898,11.999z M15.455,13.999
		H1.544c-0.293,0-0.53,0.224-0.53,0.5c0,0.275,0.237,0.5,0.53,0.5h13.911c0.293,0,0.531-0.225,0.531-0.5
		C15.986,14.223,15.748,13.999,15.455,13.999z"/>
</g>
<g id="Layer_1">
</g>
</svg>
