<?xml version="1.0" encoding="iso-8859-1"?>
<!-- Generator: Adobe Illustrator 16.0.0, SVG Export Plug-In . SVG Version: 6.00 Build 0)  -->
<!DOCTYPE svg PUBLIC "-//W3C//DTD SVG 1.1//EN" "http://www.w3.org/Graphics/SVG/1.1/DTD/svg11.dtd">
<svg version="1.1" xmlns="http://www.w3.org/2000/svg" xmlns:xlink="http://www.w3.org/1999/xlink" x="0px" y="0px" width="16px"
	 height="16px" viewBox="0 0 16 16" style="enable-background:new 0 0 16 16;" xml:space="preserve">
<g id="_x36_9-food_-_white_bread" style="enable-background:new    ;">
	<path d="M12,1L12,1L4,0.999V1C2.343,1,1,2.422,1,4.381c0,1.541,0.837,2.271,2,2.516v7.547C3,15.303,3.671,16,4.5,16h7
		c0.828,0,1.5-0.697,1.5-1.557V6.898c1.162-0.24,2-0.959,2-2.501C15,2.439,13.656,1,12,1z M12,5.979v8.02C12,14.552,11.553,15,11,15
		H5c-0.552,0-1-0.448-1-1.001v-8.02c-1.141-0.1-2-0.571-2-1.715C2,2.959,3,2,4,2h0.999C4.999,2,5,2,5,2h6c0,0,0,0,0.002,0H12
		c1,0,2,0.959,2,2.265C14,5.408,13.141,5.88,12,5.979z"/>
</g>
<g id="Layer_1">
</g>
</svg>
