<?xml version="1.0" encoding="iso-8859-1"?>
<!-- Generator: Adobe Illustrator 16.0.0, SVG Export Plug-In . SVG Version: 6.00 Build 0)  -->
<!DOCTYPE svg PUBLIC "-//W3C//DTD SVG 1.1//EN" "http://www.w3.org/Graphics/SVG/1.1/DTD/svg11.dtd">
<svg version="1.1" xmlns="http://www.w3.org/2000/svg" xmlns:xlink="http://www.w3.org/1999/xlink" x="0px" y="0px" width="16px"
	 height="16px" viewBox="0 0 16 16" style="enable-background:new 0 0 16 16;" xml:space="preserve">
<g id="_x31_4-kitchen_-_fork_knife" style="enable-background:new    ;">
	<path d="M13.303,3.865C12.658,2.025,11.229,0.325,11,0.06v-0.062h-1v0.266L9.998,0.265L10,0.268v7.731v1v7h1v-7h3V8.734
		l0.002-0.001C14.002,8.733,14.117,6.201,13.303,3.865z M11,7.999V1.653c0.52,0.791,1.121,1.829,1.488,2.879
		c0.455,1.303,0.564,2.605,0.58,3.467H11z M7,3.998H6v-4H5v4H4v-4H3v4v1.001v0.999c0,1.105,0.896,2.001,2,2.001v8h1v-8
		c1.104,0,2-0.896,2-2.001V4.999V3.998v-4H7V3.998z M7,5.998c0,0.553-0.448,1.001-1,1.001H5c-0.552,0-1-0.448-1-1.001V4.999h3V5.998
		z"/>
</g>
<g id="Layer_1">
</g>
</svg>
