<?xml version="1.0" encoding="iso-8859-1"?>
<!-- Generator: Adobe Illustrator 16.0.0, SVG Export Plug-In . SVG Version: 6.00 Build 0)  -->
<!DOCTYPE svg PUBLIC "-//W3C//DTD SVG 1.1//EN" "http://www.w3.org/Graphics/SVG/1.1/DTD/svg11.dtd">
<svg version="1.1" xmlns="http://www.w3.org/2000/svg" xmlns:xlink="http://www.w3.org/1999/xlink" x="0px" y="0px" width="16px"
	 height="16px" viewBox="0 0 16 16" style="enable-background:new 0 0 16 16;" xml:space="preserve">
<g id="_x31_-kitchen_-_oven__x2F__microwave" style="enable-background:new    ;">
	<path d="M13.5,6.998h-1c-0.275,0-0.5,0.224-0.5,0.5s0.225,0.5,0.5,0.5h1c0.275,0,0.5-0.224,0.5-0.5S13.775,6.998,13.5,6.998z
		 M10,3.998H3c-0.552,0-1,0.448-1,1v6c0,0.553,0.448,1,1,1h7c0.553,0,1-0.447,1-1v-6C11,4.446,10.553,3.998,10,3.998z M10,10.499
		c0,0.275-0.225,0.499-0.5,0.499h-6c-0.276,0-0.5-0.224-0.5-0.499V5.498c0-0.275,0.224-0.5,0.5-0.5h6c0.275,0,0.5,0.225,0.5,0.5
		V10.499z M13.5,4.998h-1c-0.275,0-0.5,0.224-0.5,0.5s0.225,0.5,0.5,0.5h1c0.275,0,0.5-0.224,0.5-0.5S13.775,4.998,13.5,4.998z
		 M15,1.998H1c-0.552,0-1,0.448-1,1v10.001c0,0.552,0.448,0.999,1,0.999h14c0.553,0,1-0.447,1-0.999V2.998
		C16,2.446,15.553,1.998,15,1.998z M15,12.498c0,0.276-0.225,0.501-0.5,0.501h-13c-0.276,0-0.5-0.225-0.5-0.501V3.499
		c0-0.277,0.224-0.501,0.5-0.501h13c0.275,0,0.5,0.224,0.5,0.501V12.498z"/>
</g>
<g id="Layer_1">
</g>
</svg>
