<?xml version="1.0" encoding="iso-8859-1"?>
<!-- Generator: Adobe Illustrator 16.0.0, SVG Export Plug-In . SVG Version: 6.00 Build 0)  -->
<!DOCTYPE svg PUBLIC "-//W3C//DTD SVG 1.1//EN" "http://www.w3.org/Graphics/SVG/1.1/DTD/svg11.dtd">
<svg version="1.1" xmlns="http://www.w3.org/2000/svg" xmlns:xlink="http://www.w3.org/1999/xlink" x="0px" y="0px" width="16px"
	 height="16px" viewBox="0 0 16 16" style="enable-background:new 0 0 16 16;" xml:space="preserve">
<g id="_x35_0-beverage_-_water_glass" style="enable-background:new    ;">
	<path d="M13,4.498c0-1.232-1.354-2.251-4-2.456V0.999h3v-1.001H8v1.001v0.999c-3.314,0-5,1.12-5,2.5C3,4.521,3.009,4.54,3.01,4.563
		H3v8.437c0,1.656,1.686,3,5,3c3.314,0,5-1.344,5-3V4.531h-0.006C12.994,4.52,13,4.51,13,4.498z M12,12.999
		c0,1.104-1.238,1.999-4,1.999s-4-0.896-4-1.999V6.093c0.825,0.549,2.149,0.905,4,0.905c1.852,0,3.174-0.356,4-0.905V12.999z
		 M8,5.999c-2.762,0-4-0.672-4-1.501C4,3.67,5.238,2.999,8,2.999v1.999h1V3.033c2.061,0.145,3,0.745,3,1.465
		C12,5.327,10.762,5.999,8,5.999z"/>
</g>
<g id="Layer_1">
</g>
</svg>
