<?xml version="1.0" encoding="iso-8859-1"?>
<!-- Generator: Adobe Illustrator 16.0.0, SVG Export Plug-In . SVG Version: 6.00 Build 0)  -->
<!DOCTYPE svg PUBLIC "-//W3C//DTD SVG 1.1//EN" "http://www.w3.org/Graphics/SVG/1.1/DTD/svg11.dtd">
<svg version="1.1" xmlns="http://www.w3.org/2000/svg" xmlns:xlink="http://www.w3.org/1999/xlink" x="0px" y="0px" width="16px"
	 height="16px" viewBox="0 0 16 16" style="enable-background:new 0 0 16 16;" xml:space="preserve">
<g id="_x33_6-food_-_ice_cream_dessert" style="enable-background:new    ;">
	<path d="M11-0.001H6c-1.104,0-2,0.896-2,2v8c0,1.104,0.896,2,2,2h1v3c0,0.553,0.448,1,1,1h1c0.553,0,1-0.447,1-1v-3h1
		c1.105,0,2-0.896,2-2v-8C13,0.895,12.105-0.001,11-0.001z M9,14.499c0,0.276-0.224,0.5-0.5,0.5c-0.275,0-0.5-0.224-0.5-0.5v-2.5h1
		V14.499z M12,9.999c0,0.553-0.447,1-1,1H6c-0.552,0-1-0.447-1-1v-8c0-0.552,0.448-1,1-1h5c0.553,0,1,0.448,1,1V9.999z"/>
</g>
<g id="Layer_1">
</g>
</svg>
