<?xml version="1.0" encoding="iso-8859-1"?>
<!-- Generator: Adobe Illustrator 16.0.0, SVG Export Plug-In . SVG Version: 6.00 Build 0)  -->
<!DOCTYPE svg PUBLIC "-//W3C//DTD SVG 1.1//EN" "http://www.w3.org/Graphics/SVG/1.1/DTD/svg11.dtd">
<svg version="1.1" xmlns="http://www.w3.org/2000/svg" xmlns:xlink="http://www.w3.org/1999/xlink" x="0px" y="0px" width="16px"
	 height="16px" viewBox="0 0 16 16" style="enable-background:new 0 0 16 16;" xml:space="preserve">
<g id="_x33_3-food_-_fruit_apple" style="enable-background:new    ;">
	<path d="M7.75,3.93c0.239,0.139,0.544,0.057,0.683-0.185c0,0-0.01-0.732,0.485-1.472c0.505-0.755,1.515-1.517,1.515-1.517
		c0.137-0.241,0.055-0.549-0.184-0.688S9.705,0.013,9.566,0.254c0,0-0.998,0.743-1.497,1.489C7.569,2.492,7.567,3.242,7.567,3.242
		C7.429,3.482,7.511,3.79,7.75,3.93z M11.1,4C9.764,4,8.811,4.999,8,4.999C7.188,4.999,6.236,4,4.901,4C2.747,4,1,5.79,1,7.999
		c0,2.21,1.845,8,4,8c2,0,2-0.972,3-0.972c1,0,1,0.972,3,0.972c2.154,0,4-5.79,4-8C15,5.79,13.254,4,11.1,4z M11,14.999
		c-0.932,0-0.912-0.243-1.42-0.501C9.146,14.277,8.654,14.027,8,14.027s-1.146,0.25-1.58,0.471C5.912,14.756,5.932,14.999,5,14.999
		c-0.958,0-3-4.317-3-7c0-1.654,1.301-3,2.901-3c0.514,0,0.984,0.236,1.483,0.486C6.887,5.738,7.408,6,8,6
		c0.591,0,1.111-0.262,1.615-0.515c0.498-0.25,0.971-0.486,1.484-0.486c1.6,0,2.9,1.346,2.9,3C14,10.682,11.957,14.999,11,14.999z"
		/>
</g>
<g id="Layer_1">
</g>
</svg>
