<?xml version="1.0" encoding="iso-8859-1"?>
<!-- Generator: Adobe Illustrator 16.0.0, SVG Export Plug-In . SVG Version: 6.00 Build 0)  -->
<!DOCTYPE svg PUBLIC "-//W3C//DTD SVG 1.1//EN" "http://www.w3.org/Graphics/SVG/1.1/DTD/svg11.dtd">
<svg version="1.1" xmlns="http://www.w3.org/2000/svg" xmlns:xlink="http://www.w3.org/1999/xlink" x="0px" y="0px" width="16px"
	 height="16px" viewBox="0 0 16 16" style="enable-background:new 0 0 16 16;" xml:space="preserve">
<g id="_x31_1-kitchen_-_spoon_fork" style="enable-background:new    ;">
	<path d="M11.5-0.002C9.566-0.002,8,2.014,8,4.499c0,2.266,1.305,4.136,3,4.448v7.051h1V8.947c1.695-0.313,3-2.183,3-4.448
		C15,2.014,13.434-0.002,11.5-0.002z M11.5,7.999c-1.381,0-2.5-1.567-2.5-3.5c0-1.934,1.12-3.5,2.5-3.5s2.5,1.566,2.5,3.5
		C14,6.432,12.881,7.999,11.5,7.999z M5,0.498v3c0,0.931-0.139,1.707-1,1.93v-5.43H3v5.43c-0.861-0.223-1-0.999-1-1.93v-3V0H1v0.498
		v3c0,1.486,0.583,2.711,2,2.95v9.55h1v-9.55c1.417-0.239,2-1.464,2-2.95v-3V0H5V0.498z"/>
</g>
<g id="Layer_1">
</g>
</svg>
