<?xml version="1.0" encoding="iso-8859-1"?>
<!-- Generator: Adobe Illustrator 16.0.0, SVG Export Plug-In . SVG Version: 6.00 Build 0)  -->
<!DOCTYPE svg PUBLIC "-//W3C//DTD SVG 1.1//EN" "http://www.w3.org/Graphics/SVG/1.1/DTD/svg11.dtd">
<svg version="1.1" xmlns="http://www.w3.org/2000/svg" xmlns:xlink="http://www.w3.org/1999/xlink" x="0px" y="0px" width="16px"
	 height="16px" viewBox="0 0 16 16" style="enable-background:new 0 0 16 16;" xml:space="preserve">
<g id="_x34_3-beverage_-_chinese_tea_green_tea" style="enable-background:new    ;">
	<path d="M8.5,4.998c0.276,0,0.5-0.224,0.5-0.5v-3c0-0.275-0.224-0.5-0.5-0.5c-0.275,0-0.5,0.225-0.5,0.5v3
		C8,4.774,8.224,4.998,8.5,4.998z M10.5,4.998c0.275,0,0.5-0.224,0.5-0.5V2.499c0-0.276-0.225-0.501-0.5-0.501S10,2.223,10,2.499
		v1.999C10,4.774,10.225,4.998,10.5,4.998z M6.5,4.998c0.276,0,0.5-0.224,0.5-0.5V2.499c0-0.276-0.224-0.501-0.5-0.501
		C6.224,1.998,6,2.223,6,2.499v1.999C6,4.774,6.224,4.998,6.5,4.998z M13.5,14.998h-10c-0.276,0-0.5,0.225-0.5,0.5
		c0,0.276,0.224,0.5,0.5,0.5h10c0.275,0,0.5-0.224,0.5-0.5C14,15.223,13.775,14.998,13.5,14.998z M7.5,13.998h2
		c2.209,0,3.5-1.791,3.5-4v-3v-1H4v1v3C4,12.207,5.291,13.998,7.5,13.998z M5,6.998h7v1.001H5V6.998z M5,8.998h7v1
		c0,1.657-0.844,3-2.5,3h-2c-1.657,0-2.5-1.343-2.5-3V8.998z"/>
</g>
<g id="Layer_1">
</g>
</svg>
