<?xml version="1.0" encoding="iso-8859-1"?>
<!-- Generator: Adobe Illustrator 16.0.0, SVG Export Plug-In . SVG Version: 6.00 Build 0)  -->
<!DOCTYPE svg PUBLIC "-//W3C//DTD SVG 1.1//EN" "http://www.w3.org/Graphics/SVG/1.1/DTD/svg11.dtd">
<svg version="1.1" xmlns="http://www.w3.org/2000/svg" xmlns:xlink="http://www.w3.org/1999/xlink" x="0px" y="0px" width="16px"
	 height="16px" viewBox="0 0 16 16" style="enable-background:new 0 0 16 16;" xml:space="preserve">
<g id="_x31_0-kitchen_-_fire_flame_heat" style="enable-background:new    ;">
	<path d="M14.086,6.3c-0.795-1.33-0.654-2.267-0.648-2.301c0.033-0.184-0.037-0.37-0.184-0.485S12.91,3.373,12.74,3.45
		c-0.043,0.02-1.059,0.489-1.451,1.867c-0.1,0.348-0.164,0.705-0.205,1.042c-0.146-0.245-0.281-0.49-0.379-0.701
		c-1.072-2.321-0.566-5.046-0.563-5.073c0.033-0.171-0.025-0.348-0.152-0.465C9.861,0.003,9.684-0.04,9.514,0.009
		c-0.131,0.037-3.188,0.969-3.912,4.86C5.338,6.286,5.5,7.668,5.712,8.586c-0.313-0.212-0.59-0.519-0.864-0.95
		C4.44,6.992,4.131,5.833,4.128,5.821C4.076,5.624,3.91,5.479,3.708,5.452C3.504,5.431,3.309,5.526,3.209,5.704
		C3.16,5.79,2.014,7.854,2.014,9.77c0,3.609,2.674,6.229,6.444,6.229c3.798,0,6.554-2.619,6.554-6.229
		C15.012,8.278,14.805,7.499,14.086,6.3z M8.458,14.995c-3.191,0-5.444-2.197-5.444-5.226c0-0.854,0.283-1.776,0.557-2.47
		C3.694,7.603,3.84,7.914,4.003,8.172c0.911,1.438,2.318,1.806,2.38,1.821c0.182,0.043,0.37-0.019,0.493-0.157
		c0.122-0.14,0.157-0.337,0.091-0.51C6.958,9.305,6.19,7.179,6.585,5.053c0.406-2.186,1.671-3.26,2.495-3.74
		C8.998,2.41,8.984,4.316,9.797,6.079c0.393,0.85,1.281,2.111,1.32,2.164c0.129,0.184,0.363,0.258,0.574,0.183
		s0.348-0.281,0.332-0.505c0-0.013-0.078-1.262,0.227-2.328c0.068-0.237,0.16-0.434,0.26-0.594c0.098,0.497,0.303,1.121,0.719,1.816
		c0.623,1.04,0.783,1.647,0.783,2.954C14.012,12.798,11.676,14.995,8.458,14.995z"/>
</g>
<g id="Layer_1">
</g>
</svg>
