<?xml version="1.0" encoding="iso-8859-1"?>
<!-- Generator: Adobe Illustrator 16.0.0, SVG Export Plug-In . SVG Version: 6.00 Build 0)  -->
<!DOCTYPE svg PUBLIC "-//W3C//DTD SVG 1.1//EN" "http://www.w3.org/Graphics/SVG/1.1/DTD/svg11.dtd">
<svg version="1.1" xmlns="http://www.w3.org/2000/svg" xmlns:xlink="http://www.w3.org/1999/xlink" x="0px" y="0px" width="16px"
	 height="16px" viewBox="0 0 16 16" style="enable-background:new 0 0 16 16;" xml:space="preserve">
<g id="_x31_8-kitchen_-_green_leaf_mint" style="enable-background:new    ;">
	<path d="M14.984,1.013c0,0-14.918-1.049-13.922,14.002c0,0,4.82,0.148,8.79-2.522l0.072-0.049
		C12.785,10.489,15.186,7.058,14.984,1.013z M12.838,1.974c-1.484,0.733-2.893,1.818-4.193,3.025L8.618,4.994L8.612,5.029
		c-0.637,0.593-1.256,1.205-1.83,1.838l-1.11-2.24C8.118,2.509,11.186,2.053,12.838,1.974z M4.921,5.358L6.07,7.677
		c-0.688,0.806-1.313,1.605-1.867,2.355l-0.065,0.087c-0.93,1.266-1.648,2.374-2.089,3.087C2.213,9.513,3.379,7.03,4.921,5.358z
		 M2.835,14.028c0.559-1.021,1.152-1.975,1.763-2.861l4.279,1.079C6.56,13.62,4.073,13.956,2.835,14.028z M9.982,11.49l-4.751-1.199
		c1.225-1.665,2.492-3.066,3.67-4.225l4.355,0.799C12.52,8.953,11.328,10.439,9.982,11.49z M13.539,5.897l-3.74-0.687
		C12.166,3.047,13.98,1.986,14,1.975c0.012,0.001,0.025,0.002,0.025,0.002C14.025,3.468,13.84,4.753,13.539,5.897z"/>
</g>
<g id="Layer_1">
</g>
</svg>
