<?xml version="1.0" encoding="iso-8859-1"?>
<!-- Generator: Adobe Illustrator 16.0.0, SVG Export Plug-In . SVG Version: 6.00 Build 0)  -->
<!DOCTYPE svg PUBLIC "-//W3C//DTD SVG 1.1//EN" "http://www.w3.org/Graphics/SVG/1.1/DTD/svg11.dtd">
<svg version="1.1" xmlns="http://www.w3.org/2000/svg" xmlns:xlink="http://www.w3.org/1999/xlink" x="0px" y="0px" width="16px"
	 height="16px" viewBox="0 0 16 16" style="enable-background:new 0 0 16 16;" xml:space="preserve">
<g id="_x34_0-beverage_-_water_glass" style="enable-background:new    ;">
	<path d="M13,0.999H3c-0.552,0-1,0.447-1,1l1,12.999c0,0.553,0.448,1.001,1,1.001h8c0.553,0,1-0.448,1-1.001l1-12.999
		C14,1.446,13.553,0.999,13,0.999z M12,14.499c0,0.275-0.225,0.499-0.5,0.499h-7c-0.276,0-0.5-0.224-0.5-0.499L3,2.498
		c0-0.276,0.224-0.499,0.5-0.499h9c0.275,0,0.5,0.223,0.5,0.499L12,14.499z"/>
</g>
<g id="Layer_1">
</g>
</svg>
