<?xml version="1.0" encoding="iso-8859-1"?>
<!-- Generator: Adobe Illustrator 16.0.0, SVG Export Plug-In . SVG Version: 6.00 Build 0)  -->
<!DOCTYPE svg PUBLIC "-//W3C//DTD SVG 1.1//EN" "http://www.w3.org/Graphics/SVG/1.1/DTD/svg11.dtd">
<svg version="1.1" xmlns="http://www.w3.org/2000/svg" xmlns:xlink="http://www.w3.org/1999/xlink" x="0px" y="0px" width="16px"
	 height="16px" viewBox="0 0 16 16" style="enable-background:new 0 0 16 16;" xml:space="preserve">
<g id="_x34_8-beverage_-_cup_beer_drink" style="enable-background:new    ;">
	<path d="M3,11.999h1v-8H3V11.999z M6,11.999h1v-8H6V11.999z M14,3.999C13.998,3.999,13.996,4,13.994,4H13V0.999
		c0-0.553-0.447-1-1-1H1c-0.552,0-1,0.447-1,1v13.999c0,0.553,0.448,1.001,1,1.001h11c0.553,0,1-0.448,1-1.001V11h1v-0.001
		c1.105,0,2-0.836,2-1.867V5.865C16,4.834,15.105,3.999,14,3.999z M12,5.865v3.267v5.367c0,0.276-0.225,0.499-0.5,0.499h-10
		c-0.276,0-0.5-0.223-0.5-0.499v-13c0-0.276,0.224-0.5,0.5-0.5h10c0.275,0,0.5,0.224,0.5,0.5V5.865z M15,9.09
		c0,0.502-0.447,0.909-1,0.909h-1v-5h1c0.553,0,1,0.407,1,0.909V9.09z M9,11.999h1v-8H9V11.999z"/>
</g>
<g id="Layer_1">
</g>
</svg>
