<?xml version="1.0" encoding="iso-8859-1"?>
<!-- Generator: Adobe Illustrator 16.0.0, SVG Export Plug-In . SVG Version: 6.00 Build 0)  -->
<!DOCTYPE svg PUBLIC "-//W3C//DTD SVG 1.1//EN" "http://www.w3.org/Graphics/SVG/1.1/DTD/svg11.dtd">
<svg version="1.1" xmlns="http://www.w3.org/2000/svg" xmlns:xlink="http://www.w3.org/1999/xlink" x="0px" y="0px" width="16px"
	 height="16px" viewBox="0 0 16 16" style="enable-background:new 0 0 16 16;" xml:space="preserve">
<g id="_x31_9-kitchen_-_recipe_book" style="enable-background:new    ;">
	<path d="M11.5,6.999h-3c-0.275,0-0.5,0.224-0.5,0.5s0.224,0.5,0.5,0.5h3c0.275,0,0.5-0.224,0.5-0.5S11.775,6.999,11.5,6.999z
		 M11.5,3.999h-3c-0.275,0-0.5,0.224-0.5,0.5s0.224,0.5,0.5,0.5h3c0.275,0,0.5-0.224,0.5-0.5S11.775,3.999,11.5,3.999z M14-0.001H3
		c-0.552,0-1,0.447-1,1v14c0,0.552,0.448,1,1,1h11c0.553,0,1-0.448,1-1v-14C15,0.446,14.553-0.001,14-0.001z M5,14.999H3.5
		c-0.276,0-0.5-0.224-0.5-0.5v-13c0-0.276,0.224-0.5,0.5-0.5H5V14.999z M14,14.499c0,0.276-0.225,0.5-0.5,0.5H6v-14h7.5
		c0.275,0,0.5,0.224,0.5,0.5V14.499z"/>
</g>
<g id="Layer_1">
</g>
</svg>
