<?xml version="1.0" encoding="iso-8859-1"?>
<!-- Generator: Adobe Illustrator 16.0.0, SVG Export Plug-In . SVG Version: 6.00 Build 0)  -->
<!DOCTYPE svg PUBLIC "-//W3C//DTD SVG 1.1//EN" "http://www.w3.org/Graphics/SVG/1.1/DTD/svg11.dtd">
<svg version="1.1" xmlns="http://www.w3.org/2000/svg" xmlns:xlink="http://www.w3.org/1999/xlink" x="0px" y="0px" width="16px"
	 height="16px" viewBox="0 0 16 16" style="enable-background:new 0 0 16 16;" xml:space="preserve">
<g id="_x34_-kitchen_-_hood_food" style="enable-background:new    ;">
	<path d="M15.455,13.998H0.544c-0.293,0-0.53,0.225-0.53,0.501c0,0.275,0.237,0.499,0.53,0.499h14.911
		c0.293,0,0.531-0.224,0.531-0.499C15.986,14.223,15.748,13.998,15.455,13.998z M9.996,4.247V3.332c0-1.289-0.893-2.333-1.996-2.333
		c-1.103,0-1.997,1.044-1.997,2.333v0.916c-3.696,0.911-5.989,4.26-5.989,7.251c0-0.147,0,1.5,0,1.5h15.973c0,0,0-1.647,0-1.5
		C15.986,8.508,13.693,5.159,9.996,4.247z M7.001,3.249c0-0.69,0.447-1.25,0.999-1.25s0.999,0.56,0.999,1.25v0.813
		C8.673,4.024,8.342,4,8,4S7.326,4.024,7.001,4.063V3.249z M14.988,11.998H1.012c0,0,0-0.255,0-0.333C1.012,8.556,3.752,5,8,5
		c4.248,0,6.988,3.556,6.988,6.665C14.988,11.743,14.988,11.998,14.988,11.998z"/>
</g>
<g id="Layer_1">
</g>
</svg>
