<?xml version="1.0" encoding="iso-8859-1"?>
<!-- Generator: Adobe Illustrator 16.0.0, SVG Export Plug-In . SVG Version: 6.00 Build 0)  -->
<!DOCTYPE svg PUBLIC "-//W3C//DTD SVG 1.1//EN" "http://www.w3.org/Graphics/SVG/1.1/DTD/svg11.dtd">
<svg version="1.1" xmlns="http://www.w3.org/2000/svg" xmlns:xlink="http://www.w3.org/1999/xlink" x="0px" y="0px" width="16px"
	 height="16px" viewBox="0 0 16 16" style="enable-background:new 0 0 16 16;" xml:space="preserve">
<g id="_x33_9-food_-_ice_cream_dessert" style="enable-background:new    ;">
	<path d="M15,7.499c0-1.407-0.836-2.612-2.033-3.168C12.977,4.22,13,4.113,13,3.999c0-2.209-1.791-4-4-4c-2.208,0-4,1.791-4,4
		c0,0.018,0.005,0.033,0.005,0.05C3.309,4.291,2,5.735,2,7.499c0,0.171,0.026,0.335,0.05,0.5H2l7,8l6-8h-0.051
		C14.973,7.834,15,7.67,15,7.499z M9,0.999c1.657,0,3,1.343,3,3c0,0.018-0.004,0.033-0.006,0.05c-0.162-0.023-0.324-0.05-0.494-0.05
		c-1.285,0-2.396,0.701-3.005,1.733C7.97,4.844,7.073,4.206,6.005,4.05C6.005,4.033,6,4.017,6,3.999C6,2.342,7.343,0.999,9,0.999z
		 M3,7.499c0-1.381,1.119-2.5,2.5-2.5S8,6.118,8,7.499c0,0.171-0.018,0.339-0.05,0.5H3.05C3.018,7.838,3,7.67,3,7.499z M9,14.499
		l-5-5.5h9L9,14.499z M13.949,7.999H9.051C9.018,7.838,9,7.67,9,7.499c0-1.381,1.12-2.5,2.5-2.5s2.5,1.119,2.5,2.5
		C14,7.67,13.982,7.838,13.949,7.999z"/>
</g>
<g id="Layer_1">
</g>
</svg>
