<?xml version="1.0" encoding="iso-8859-1"?>
<!-- Generator: Adobe Illustrator 16.0.0, SVG Export Plug-In . SVG Version: 6.00 Build 0)  -->
<!DOCTYPE svg PUBLIC "-//W3C//DTD SVG 1.1//EN" "http://www.w3.org/Graphics/SVG/1.1/DTD/svg11.dtd">
<svg version="1.1" xmlns="http://www.w3.org/2000/svg" xmlns:xlink="http://www.w3.org/1999/xlink" x="0px" y="0px" width="16px"
	 height="16px" viewBox="0 0 16 16" style="enable-background:new 0 0 16 16;" xml:space="preserve">
<g id="_x32_-logo_-_Musio" style="enable-background:new    ;">
	<path d="M14.063,3.061c-1.734-0.355-3.859,1.241-5.916,3.062c-1.904-1.647-3.88-3.125-5.573-3.125
		c-0.182,0-0.359,0.018-0.527,0.052C0.283,3.408-0.057,4.814,0.007,5.458v7.759c-0.015,0.202-0.06,1.305,0.613,2.068
		C1.038,15.759,1.625,16,2.367,16H13.6c0.742,0,1.33-0.24,1.746-0.715c0.672-0.763,0.639-1.684,0.625-1.887l0.033-1.399l0.008-6.547
		C16.076,4.777,15.75,3.409,14.063,3.061z M6.11,14.999c0.236-1.057,1.018-2,2.393-2c1.376,0,2.158,0.943,2.394,2H6.11z
		 M14.625,14.626C14.484,14.786,14.229,15,13.635,15h-1.732c-0.287-1.713-1.576-3.001-3.4-3.001c-1.826,0-3.11,1.288-3.397,3.001
		H2.426c-0.593,0-0.85-0.215-0.992-0.375c-0.422-0.479-0.368-1.301-0.365-1.336l0.002-0.036V5.408L1.067,5.358
		C1.066,5.347,0.977,4.3,2.306,4.03c0.104-0.021,0.213-0.032,0.327-0.032c1.432,0,3.401,1.558,5.139,3.082
		c0.985,0.864,2.821,2.475,4.731,2.475c0.945,0,1.781-0.383,2.498-1.143v5.023l0.002,0.036
		C15.01,13.582,15.029,14.165,14.625,14.626z M15.053,5.403l-0.008,1.235c0,0-1.576,1.916-2.58,1.916
		c-1.279,0-2.637-1.003-3.57-1.789c1.275-1.128,3.537-3.032,4.978-2.733C15.072,4.279,15.066,5.182,15.053,5.403z"/>
</g>
<g id="Layer_1">
</g>
</svg>
