<?xml version="1.0" encoding="iso-8859-1"?>
<!-- Generator: Adobe Illustrator 16.0.0, SVG Export Plug-In . SVG Version: 6.00 Build 0)  -->
<!DOCTYPE svg PUBLIC "-//W3C//DTD SVG 1.1//EN" "http://www.w3.org/Graphics/SVG/1.1/DTD/svg11.dtd">
<svg version="1.1" xmlns="http://www.w3.org/2000/svg" xmlns:xlink="http://www.w3.org/1999/xlink" x="0px" y="0px" width="16px"
	 height="16px" viewBox="0 0 16 16" style="enable-background:new 0 0 16 16;" xml:space="preserve">
<g id="_x31_1-logo_-_Amazon" style="enable-background:new    ;">
	<path style="fill-rule:evenodd;clip-rule:evenodd;" d="M11.963,12.422c-1.07,0.282-2.795,1.178-5.096,1.178
		c-0.875,0-3.656-1.002-5.39-2.037c-0.091-0.051-0.264-0.1-0.399,0.038c-0.101,0.103-0.159,0.344,0.043,0.516
		c1.626,1.521,3.723,2.864,5.769,2.887c2.045,0.022,4.799-1.414,5.291-1.841c0.104-0.082,0.174-0.21,0.174-0.344
		C12.352,12.581,12.164,12.422,11.963,12.422z M5.828,11.452c0.446,0,0.893-0.1,1.303-0.298c0.41-0.197,0.782-0.496,1.154-0.893
		c0,0.067,0.634,0.796,0.739,0.874c0.109,0.086,0.209,0.16,0.297,0.227c0.148,0.111,0.236,0.205,0.477,0
		c0.252-0.217,0.547-0.573,0.855-0.838c0.32-0.273,0.244-0.441,0.049-0.568c-0.412-0.267-0.525-0.844-0.525-1.871l-0.029-2.581
		c0-1.058-0.074-1.751-0.262-2.148C9.699,2.96,9.363,2.662,8.917,2.397C8.47,2.134,7.763,2.001,6.833,2.001
		c-1.005,0-1.787,0.231-2.308,0.628c-0.363,0.3-0.654,0.71-0.859,1.223c-0.241,0.6-0.18,0.736,0.188,0.814
		c0.299,0.063,0.706,0.15,1.013,0.216c0.377,0.08,0.496-0.084,0.592-0.293c0.105-0.228,0.221-0.396,0.37-0.506
		c0.186-0.165,0.484-0.23,0.856-0.23c0.559,0,0.931,0.099,1.117,0.297c0.223,0.198,0.297,0.234,0.297,0.697v0.266
		c-0.372,0.165-1.042,0.362-2.01,0.561C5.381,5.838,4.822,6.037,4.413,6.234c-0.373,0.231-0.671,0.79-0.894,1.187
		C3.333,7.817,3.221,8.28,3.221,8.775c0,0.794,0.224,1.421,0.708,1.95C4.375,11.222,5.008,11.452,5.828,11.452z M5.526,7.629
		c0.187-0.133,0.699-0.471,1.258-0.603c0.596-0.132,1.054-0.002,1.314-0.102v0.463c0,0.595,0,0.958-0.074,1.189
		C7.95,8.875,7.801,9.14,7.54,9.37C7.205,9.635,6.833,9.767,6.46,9.767c-0.334,0-0.632-0.099-0.819-0.364
		c-0.223-0.23-0.335-0.527-0.335-0.858C5.306,8.214,5.228,7.859,5.526,7.629z M13.977,11.11l-0.006-0.009
		c-0.012-0.013-0.154-0.239-0.998-0.243c-0.871,0.001-1.375,0.26-1.701,0.502c-0.266,0.205-0.184,0.453-0.074,0.541
		c0.094,0.079,1.57-0.111,1.805,0.001c0.006,0.002,0.01,0.004,0.012,0.006c-0.027-0.093,0.092,0.041-0.141,0.791
		c-0.084,0.277-0.188,0.555-0.256,0.738c-0.01,0.027-0.082,0.225,0.064,0.363c0.105,0.104,0.291,0.125,0.467-0.017
		C14.311,12.713,13.977,11.11,13.977,11.11z"/>
</g>
<g id="Layer_1">
</g>
</svg>
