<?xml version="1.0" encoding="iso-8859-1"?>
<!-- Generator: Adobe Illustrator 16.0.0, SVG Export Plug-In . SVG Version: 6.00 Build 0)  -->
<!DOCTYPE svg PUBLIC "-//W3C//DTD SVG 1.1//EN" "http://www.w3.org/Graphics/SVG/1.1/DTD/svg11.dtd">
<svg version="1.1" xmlns="http://www.w3.org/2000/svg" xmlns:xlink="http://www.w3.org/1999/xlink" x="0px" y="0px" width="16px"
	 height="16px" viewBox="0 0 16 16" style="enable-background:new 0 0 16 16;" xml:space="preserve">
<g id="_x37_-logo_-_Dropbox" style="enable-background:new    ;">
	<path style="fill-rule:evenodd;clip-rule:evenodd;" d="M8.5,9.499l3,2.5l4.5-3l-3.5-2L8.5,9.499z M11.5,0.999L8,3.499l4.5,3.5L16,4
		L11.5,0.999z M8.5,10.5H8l-3.5,2l-1.5-1v1l5,3.499l5-3.499v-0.668l-1.5,1.167L8.5,10.5z M0,4l3.5,2.499l4.5-3l-3.5-2.5L0,4z
		 M4.5,11.999l3.5-2.5l-4.5-3L0,8.999L4.5,11.999z"/>
</g>
<g id="Layer_1">
</g>
</svg>
