<?xml version="1.0" encoding="iso-8859-1"?>
<!-- Generator: Adobe Illustrator 16.0.0, SVG Export Plug-In . SVG Version: 6.00 Build 0)  -->
<!DOCTYPE svg PUBLIC "-//W3C//DTD SVG 1.1//EN" "http://www.w3.org/Graphics/SVG/1.1/DTD/svg11.dtd">
<svg version="1.1" xmlns="http://www.w3.org/2000/svg" xmlns:xlink="http://www.w3.org/1999/xlink" x="0px" y="0px" width="16px"
	 height="16px" viewBox="0 0 16 16" style="enable-background:new 0 0 16 16;" xml:space="preserve">
<g id="_x31_5-logo_-_Paypal" style="enable-background:new    ;">
	<path d="M13.166,3.746c-0.219-0.419-0.539-0.763-0.955-1.024c-0.428-0.265-0.93-0.449-1.51-0.558
		c-0.584-0.107-1.264-0.161-2.047-0.161H5.027c-0.375,0-0.748,0.297-0.833,0.663L1.743,13.34c-0.084,0.366,0.152,0.665,0.525,0.665
		H4.01c0.374,0,0.748-0.299,0.831-0.664l0.597-2.588c0.084-0.364,0.458-0.663,0.832-0.663h0.497c2.123,0,3.776-0.437,4.958-1.313
		c1.184-0.875,1.775-2.026,1.775-3.455C13.498,4.693,13.389,4.17,13.166,3.746z M10.199,5.596c0,0.709-0.264,1.256-0.785,1.64
		C8.945,7.578,8.303,7.761,7.502,7.797L6.791,7.813c-0.374,0-0.61-0.3-0.528-0.665l0.523-2.266c0.085-0.365,0.458-0.664,0.831-0.664
		h0.57c0.664,0,1.168,0.113,1.506,0.34C10.326,4.978,10.199,6.132,10.199,5.596z"/>
</g>
<g id="Layer_1">
</g>
</svg>
