<?xml version="1.0" encoding="iso-8859-1"?>
<!-- Generator: Adobe Illustrator 16.0.0, SVG Export Plug-In . SVG Version: 6.00 Build 0)  -->
<!DOCTYPE svg PUBLIC "-//W3C//DTD SVG 1.1//EN" "http://www.w3.org/Graphics/SVG/1.1/DTD/svg11.dtd">
<svg version="1.1" xmlns="http://www.w3.org/2000/svg" xmlns:xlink="http://www.w3.org/1999/xlink" x="0px" y="0px" width="16px"
	 height="16px" viewBox="0 0 16 16" style="enable-background:new 0 0 16 16;" xml:space="preserve">
<g id="_x31_6-logo_-_Evernote" style="enable-background:new    ;">
	<path d="M14.625,2.784c-0.119-0.64-0.502-0.954-0.848-1.078c-0.373-0.134-1.129-0.272-2.08-0.384
		C10.934,1.233,10.033,1.24,9.49,1.257C9.426,0.813,9.113,0.409,8.762,0.269c-0.933-0.373-2.375-0.283-2.746-0.18
		c-0.294,0.082-0.62,0.249-0.801,0.507c-0.122,0.172-0.2,0.393-0.201,0.701c0,0.174,0.005,0.585,0.009,0.95
		c0.004,0.366,0.009,0.694,0.009,0.696c0,0.326-0.267,0.592-0.596,0.592H2.924c-0.323,0-0.569,0.055-0.758,0.139
		C1.978,3.76,1.844,3.874,1.743,4.01c-0.202,0.27-0.237,0.602-0.236,0.941c0,0,0.003,0.277,0.07,0.813
		c0.056,0.415,0.509,3.316,0.94,4.198c0.167,0.343,0.278,0.486,0.606,0.638c0.731,0.311,2.4,0.656,3.183,0.756
		c0.781,0.099,1.271,0.308,1.563-0.301c0.001-0.002,0.059-0.151,0.138-0.371c0.254-0.764,0.289-1.44,0.289-1.931
		c0-0.05,0.073-0.053,0.073,0c0,0.346-0.066,1.57,0.865,1.898c0.369,0.129,1.131,0.245,1.906,0.336
		c0.701,0.079,1.209,0.354,1.209,2.139c0,1.086-0.23,1.235-1.43,1.235c-0.975,0-1.346,0.025-1.346-0.743
		c0-0.621,0.619-0.556,1.076-0.556c0.205,0,0.057-0.15,0.057-0.534c0-0.381,0.24-0.602,0.014-0.606
		c-1.586-0.044-2.518-0.002-2.518,1.966c0,1.786,0.688,2.118,2.938,2.118c1.764,0,2.385-0.058,3.113-2.301
		c0.145-0.442,0.492-1.794,0.703-4.063C15.09,8.208,14.83,3.877,14.625,2.784z M11.553,7.57c-0.219-0.008-0.428,0.007-0.623,0.037
		c0.055-0.44,0.238-0.981,0.887-0.959c0.719,0.024,0.82,0.699,0.822,1.156C12.336,7.671,11.961,7.585,11.553,7.57z M2.854,3.099
		C2.854,3.099,2.854,3.099,2.854,3.099h1.514c0.087,0,0.157-0.069,0.157-0.155c0,0-0.019-1.288-0.019-1.646V1.293
		c0-0.294,0.063-0.551,0.171-0.766l0.051-0.096c-0.005,0-0.011,0.003-0.017,0.009L1.771,3.336C1.765,3.34,1.762,3.347,1.76,3.353
		c0.061-0.029,0.144-0.07,0.156-0.076C2.171,3.162,2.482,3.099,2.854,3.099z"/>
</g>
<g id="Layer_1">
</g>
</svg>
