<?xml version="1.0" encoding="iso-8859-1"?>
<!-- Generator: Adobe Illustrator 16.0.0, SVG Export Plug-In . SVG Version: 6.00 Build 0)  -->
<!DOCTYPE svg PUBLIC "-//W3C//DTD SVG 1.1//EN" "http://www.w3.org/Graphics/SVG/1.1/DTD/svg11.dtd">
<svg version="1.1" xmlns="http://www.w3.org/2000/svg" xmlns:xlink="http://www.w3.org/1999/xlink" x="0px" y="0px" width="16px"
	 height="16px" viewBox="0 0 16 16" style="enable-background:new 0 0 16 16;" xml:space="preserve">
<g id="_x31_-logo_-_Zerply" style="enable-background:new    ;">
	<path d="M14.852,12.487c-0.539,0.475-1.127,0.679-1.84,0.679c-0.955,0-2.402-0.407-3.506-1.108
		c-1.178-0.746-2.723-1.492-4.023-1.515C6.44,9.345,7.936,8.124,9.334,6.678c0.516-0.519,3.605-3.798,4.145-4.385
		c0.393-0.43,0.59-0.949,0.59-1.469c0-0.203-0.025-0.385-0.076-0.565c-1.471,0.271-2.574,0.406-4.34,0.406
		c-1.937,0-3.335-0.226-4.146-0.678C4.943,0.665,4.38,1.569,4.38,2.066c0,0.634,0.662,1.152,2.305,1.152
		c0.54,0,1.422-0.021,2.649-0.112c-2.526,3.007-5.029,5.447-6.525,6.985C2.295,10.61,2,11.312,2,12.013
		c0,0.271,0.049,0.542,0.123,0.791c0.466-0.067,0.932-0.113,1.422-0.113c1.006,0,2.011,0.203,2.943,0.564
		c1.864,0.746,3.605,2.736,5.568,2.736c1.594,0,2.941-1.153,2.941-2.69C14.998,13.029,14.949,12.759,14.852,12.487z"/>
</g>
<g id="Layer_1">
</g>
</svg>
