<?xml version="1.0" encoding="iso-8859-1"?>
<!-- Generator: Adobe Illustrator 16.0.0, SVG Export Plug-In . SVG Version: 6.00 Build 0)  -->
<!DOCTYPE svg PUBLIC "-//W3C//DTD SVG 1.1//EN" "http://www.w3.org/Graphics/SVG/1.1/DTD/svg11.dtd">
<svg version="1.1" xmlns="http://www.w3.org/2000/svg" xmlns:xlink="http://www.w3.org/1999/xlink" x="0px" y="0px" width="16px"
	 height="16px" viewBox="0 0 16 16" style="enable-background:new 0 0 16 16;" xml:space="preserve">
<g id="_x39_-logo_-_Path" style="enable-background:new    ;">
	<path d="M12.168,0.79c0,0-6.804-2.615-10.824,1.737c-3.096,4.043,0.069,7.778,0.069,7.778l2.103-1.79c0,0-1.571-1.79-0.347-3.779
		C4.787,2.24,8.044,2.438,8.044,2.438s5.198-0.021,5.104,4.221c-0.576,3.822-4.874,2.585-4.874,2.585V4.449H5.364v8.441
		C4.95,14,3.904,13.564,3.123,12.802v2.497c0,0,1.571,1.127,3.281,0.53s1.895-1.967,1.895-1.967v-2.475c0,0,4.829,1.834,7.323-3.115
		C17.424,2.837,12.168,0.79,12.168,0.79z"/>
</g>
<g id="Layer_1">
</g>
</svg>
