<?xml version="1.0" encoding="iso-8859-1"?>
<!-- Generator: Adobe Illustrator 16.0.0, SVG Export Plug-In . SVG Version: 6.00 Build 0)  -->
<!DOCTYPE svg PUBLIC "-//W3C//DTD SVG 1.1//EN" "http://www.w3.org/Graphics/SVG/1.1/DTD/svg11.dtd">
<svg version="1.1" xmlns="http://www.w3.org/2000/svg" xmlns:xlink="http://www.w3.org/1999/xlink" x="0px" y="0px" width="16px"
	 height="16px" viewBox="0 0 16 16" style="enable-background:new 0 0 16 16;" xml:space="preserve">
<g id="_x31_7-logo_-_Rdio" style="enable-background:new    ;">
	<path style="fill-rule:evenodd;clip-rule:evenodd;" d="M16,5.499c-0.963,0-2.943-1.024-4.246-1.761
		c-0.219-0.188-0.447-0.363-0.689-0.524l-0.346-0.214C10.648,2.958,10.57,2.928,10.5,2.89v5.258c0,0.016,0,0.031,0,0.047
		l-0.189,0.805c-0.365,0.831-1.242,1.557-2.404,1.856c-1.759,0.453-3.479-0.234-3.841-1.535c-0.363-1.302,0.77-2.724,2.528-3.177
		C7.458,5.921,8.311,5.977,9,6.242V2.274C8.366,2.097,7.696,1.999,7,1.999c-3.5,0-7,3.5-7,6.5c0,3.5,4,6.5,7.5,6.5
		c3,0,6.5-3.499,6.5-6.5c0-0.353-0.039-0.696-0.098-1.033C15.012,6.732,16,5.499,16,5.499z"/>
</g>
<g id="Layer_1">
</g>
</svg>
