<?xml version="1.0" encoding="iso-8859-1"?>
<!-- Generator: Adobe Illustrator 16.0.0, SVG Export Plug-In . SVG Version: 6.00 Build 0)  -->
<!DOCTYPE svg PUBLIC "-//W3C//DTD SVG 1.1//EN" "http://www.w3.org/Graphics/SVG/1.1/DTD/svg11.dtd">
<svg version="1.1" xmlns="http://www.w3.org/2000/svg" xmlns:xlink="http://www.w3.org/1999/xlink" x="0px" y="0px" width="16px"
	 height="16px" viewBox="0 0 16 16" style="enable-background:new 0 0 16 16;" xml:space="preserve">
<g id="_x32_0-logo_-_Windows" style="enable-background:new    ;">
	<path style="fill-rule:evenodd;clip-rule:evenodd;" d="M12.609,3.731c-1.35-0.095-2.234-0.846-2.625-1.241L8.691,7.579
		C8.695,7.584,8.7,7.588,8.705,7.591c1.78,1.565,3.594,1.359,5.01,0.661c0-0.003,0-0.005,0-0.009c0.002,0.001,0.004,0,0.008-0.002
		l1.273-4.995C14.086,3.659,13.289,3.777,12.609,3.731z M7.779,6.927c0.262-1.011,1.04-4.043,1.303-5.067V1.856
		c0,0-0.969-0.588-1.638-0.749C7.188,1.051,6.023,0.703,3.878,1.729L2.59,6.711C4.351,5.869,5.792,5.584,7.779,6.927z M2.275,7.97
		l-1.279,5.046c1.736-0.824,3.209-1.116,5.163,0.211c0.263-1.013,1.156-4.479,1.325-5.139C5.436,6.462,2.825,7.67,2.275,7.97z
		 M8.389,8.721L7.113,13.76c-0.003-0.001,1.418,1.16,2.493,1.232c0.68,0.046,1.494-0.1,2.516-0.537l1.232-4.89
		C12.158,10,10.01,10.412,8.389,8.721z"/>
</g>
<g id="Layer_1">
</g>
</svg>
