<?xml version="1.0" encoding="iso-8859-1"?>
<!-- Generator: Adobe Illustrator 16.0.0, SVG Export Plug-In . SVG Version: 6.00 Build 0)  -->
<!DOCTYPE svg PUBLIC "-//W3C//DTD SVG 1.1//EN" "http://www.w3.org/Graphics/SVG/1.1/DTD/svg11.dtd">
<svg version="1.1" xmlns="http://www.w3.org/2000/svg" xmlns:xlink="http://www.w3.org/1999/xlink" x="0px" y="0px" width="16px"
	 height="16px" viewBox="0 0 16 16" style="enable-background:new 0 0 16 16;" xml:space="preserve">
<g id="_x31_3-logo_-_Picasa" style="enable-background:new    ;">
	<path style="fill-rule:evenodd;clip-rule:evenodd;" d="M10.811,2.236C9.889,1.768,8.842,1.499,7.729,1.499
		c-0.625,0-1.227,0.09-1.801,0.246l4.882,4.754V2.236z M5.162,1.999c-2.412,0.979-4.108,3.296-4.108,6
		c0,0.608,0.092,1.195,0.253,1.754l5.909-5.754L5.162,1.999z M5.162,13.999c0.791,0.321,1.657,0.5,2.567,0.5
		c2.575,0,4.806-1.421,5.919-3.499H5.162V13.999z M4.648,13.762V7.499l-3.081,3C2.17,11.907,3.268,13.061,4.648,13.762z
		 M11.324,2.527v7.972h2.568c0.33-0.77,0.514-1.614,0.514-2.5C14.406,5.699,13.176,3.683,11.324,2.527z"/>
</g>
<g id="Layer_1">
</g>
</svg>
