<?xml version="1.0" encoding="iso-8859-1"?>
<!-- Generator: Adobe Illustrator 16.0.0, SVG Export Plug-In . SVG Version: 6.00 Build 0)  -->
<!DOCTYPE svg PUBLIC "-//W3C//DTD SVG 1.1//EN" "http://www.w3.org/Graphics/SVG/1.1/DTD/svg11.dtd">
<svg version="1.1" xmlns="http://www.w3.org/2000/svg" xmlns:xlink="http://www.w3.org/1999/xlink" x="0px" y="0px" width="16px"
	 height="16px" viewBox="0 0 16 16" style="enable-background:new 0 0 16 16;" xml:space="preserve">
<g id="_x31_9-logo_-_Square" style="enable-background:new    ;">
	<path style="fill-rule:evenodd;clip-rule:evenodd;" d="M13,1H3C1.896,1,1,1.896,1,3v10c0,1.104,0.896,2,2,2h10c1.105,0,2-0.896,2-2
		V3C15,1.896,14.105,1,13,1z M12,11.11c0,0.491-0.398,0.89-0.889,0.89H4.889C4.398,12,4,11.602,4,11.11V4.889
		C4,4.397,4.398,4,4.889,4h6.223C11.602,4,12,4.397,12,4.889V11.11z M9.5,6h-3C6.224,6,6,6.224,6,6.5v3C6,9.776,6.224,10,6.5,10h3
		C9.775,10,10,9.776,10,9.5v-3C10,6.224,9.775,6,9.5,6z"/>
</g>
<g id="Layer_1">
</g>
</svg>
