<?xml version="1.0" encoding="iso-8859-1"?>
<!-- Generator: Adobe Illustrator 16.0.0, SVG Export Plug-In . SVG Version: 6.00 Build 0)  -->
<!DOCTYPE svg PUBLIC "-//W3C//DTD SVG 1.1//EN" "http://www.w3.org/Graphics/SVG/1.1/DTD/svg11.dtd">
<svg version="1.1" xmlns="http://www.w3.org/2000/svg" xmlns:xlink="http://www.w3.org/1999/xlink" x="0px" y="0px" width="16px"
	 height="16px" viewBox="0 0 16 16" style="enable-background:new 0 0 16 16;" xml:space="preserve">
<g id="_x31_8-logo_-_Squarespace" style="enable-background:new    ;">
	<path d="M2.522,9.048c0.301,0.308,0.79,0.308,1.091,0L8.52,4.035c0.603-0.615,1.58-0.615,2.181,0c0.301,0.308,0.789,0.308,1.092,0
		c0.301-0.308,0.301-0.807,0-1.113c-1.205-1.231-3.159-1.231-4.363,0L2.522,7.934C2.221,8.241,2.221,8.741,2.522,9.048z
		 M10.156,5.706c0.301-0.308,0.301-0.807,0-1.113c-0.301-0.309-0.789-0.309-1.09,0L4.158,9.605c-0.603,0.615-1.579,0.615-2.181,0
		c-0.603-0.615-0.603-1.613,0-2.229L6.79,2.461c-0.602-0.615-1.579-0.615-2.181,0L0.886,6.263c-1.205,1.231-1.205,3.226,0,4.456
		c1.205,1.231,3.157,1.231,4.362,0L10.156,5.706z M15.064,6.264c-1.205-1.231-3.158-1.231-4.363,0l-4.907,5.013
		c-0.301,0.308-0.301,0.806,0,1.114c0.301,0.308,0.79,0.308,1.09,0l4.909-5.014c0.602-0.615,1.578-0.615,2.18,0
		c0.604,0.615,0.604,1.613,0,2.229L9.16,14.521c0.602,0.615,1.578,0.615,2.182,0l3.723-3.803
		C16.268,9.488,16.268,7.494,15.064,6.264z M13.428,7.934c-0.301-0.307-0.789-0.307-1.09,0L7.43,12.947
		c-0.602,0.615-1.579,0.615-2.181,0c-0.301-0.308-0.79-0.308-1.09,0c-0.302,0.308-0.302,0.807,0,1.113
		c1.204,1.231,3.158,1.231,4.362,0l4.908-5.013C13.729,8.741,13.729,8.241,13.428,7.934z"/>
</g>
<g id="Layer_1">
</g>
</svg>
