<?xml version="1.0" encoding="iso-8859-1"?>
<!-- Generator: Adobe Illustrator 16.0.0, SVG Export Plug-In . SVG Version: 6.00 Build 0)  -->
<!DOCTYPE svg PUBLIC "-//W3C//DTD SVG 1.1//EN" "http://www.w3.org/Graphics/SVG/1.1/DTD/svg11.dtd">
<svg version="1.1" xmlns="http://www.w3.org/2000/svg" xmlns:xlink="http://www.w3.org/1999/xlink" x="0px" y="0px" width="16px"
	 height="16px" viewBox="0 0 16 16" style="enable-background:new 0 0 16 16;" xml:space="preserve">
<g id="_x31_8-gesture_-_one_click" style="enable-background:new    ;">
	<path d="M8,9h1V8H8V9z M9,6H8C6.896,6,6,6.896,6,8v5.498v1.06V16h2h1h2v-1.442v-1.06V8C11,6.896,10.105,6,9,6z M10,14v1H7v-1V8
		c0-0.553,0.448-1,1-1h1c0.553,0,1,0.447,1,1V14z M8.5,0C4.358,0,1,3.357,1,7.5c0,2.45,1.18,4.619,3,5.984v-1.32
		C2.774,10.982,2,9.337,2,7.5C2,3.91,4.91,1,8.5,1C12.09,1,15,3.91,15,7.5c0,1.837-0.773,3.482-2,4.664v1.32
		c1.82-1.365,3-3.534,3-5.984C16,3.357,12.643,0,8.5,0z"/>
</g>
<g id="Layer_1">
</g>
</svg>
