<?xml version="1.0" encoding="iso-8859-1"?>
<!-- Generator: Adobe Illustrator 16.0.0, SVG Export Plug-In . SVG Version: 6.00 Build 0)  -->
<!DOCTYPE svg PUBLIC "-//W3C//DTD SVG 1.1//EN" "http://www.w3.org/Graphics/SVG/1.1/DTD/svg11.dtd">
<svg version="1.1" xmlns="http://www.w3.org/2000/svg" xmlns:xlink="http://www.w3.org/1999/xlink" x="0px" y="0px" width="16px"
	 height="16px" viewBox="0 0 16 16" style="enable-background:new 0 0 16 16;" xml:space="preserve">
<g id="_x31_6-cursor_-_pointer_swipe_right" style="enable-background:new    ;">
	<path d="M1.5,3.975h2C3.776,3.975,4,3.75,4,3.474S3.776,2.973,3.5,2.973h-2C1.224,2.973,1,3.197,1,3.474S1.224,3.975,1.5,3.975z
		 M15.996,3.458c0-0.004-0.002-0.008-0.002-0.012c-0.006-0.117-0.053-0.223-0.125-0.305c-0.008-0.008-0.004-0.02-0.012-0.026
		s-0.018-0.004-0.025-0.011c-0.01-0.009-0.025-0.007-0.037-0.015L13.82,1.111c-0.188-0.188-0.49-0.188-0.678,0
		c-0.188,0.188-0.188,0.492,0,0.68l1.178,1.182H10.5c-0.275,0-0.5,0.225-0.5,0.501s0.225,0.501,0.5,0.501h3.822l-1.18,1.182
		c-0.188,0.188-0.188,0.492,0,0.68c0.188,0.188,0.49,0.188,0.678,0l1.947-1.95c0.01-0.007,0.016-0.02,0.027-0.027
		c0.018-0.015,0.045-0.009,0.063-0.026c0.02-0.02,0.014-0.048,0.029-0.069c0.057-0.071,0.094-0.152,0.102-0.248
		c0-0.01,0.008-0.018,0.008-0.027C15.996,3.482,16,3.479,16,3.474C16,3.468,15.998,3.464,15.996,3.458z M13,8.985L9,7.84V3.975
		c0-1.106-0.895-2.004-2-2.004c-1.104,0-2,0.897-2,2.004v6.113l-0.508-0.51c-0.801-0.802-2.099-0.802-2.9,0
		c-0.801,0.803-0.801,2.104,0,2.906l2.9,2.905c0.403,0.404,0.932,0.603,1.46,0.601C5.969,15.99,5.983,16,6,16h7
		c0.553,0,1-0.449,1-1.003v-5.01C14,9.434,13.553,8.985,13,8.985z M13,14.496c0,0.277-0.225,0.501-0.5,0.501h-6
		c-0.101,0-1.008-0.058-1.283-0.334l-2.899-2.905c-0.4-0.401-0.4-1.052,0-1.453c0.4-0.4,1.049-0.4,1.45,0L6,12.543V3.975
		c0-0.554,0.448-1.002,1-1.002s1,0.448,1,1.002v4.008c0,0.169,0,0.503,0,0.503l4.5,1.502c0.275,0,0.5,0.225,0.5,0.501V14.496z"/>
</g>
<g id="Layer_1">
</g>
</svg>
