<?xml version="1.0" encoding="iso-8859-1"?>
<!-- Generator: Adobe Illustrator 16.0.0, SVG Export Plug-In . SVG Version: 6.00 Build 0)  -->
<!DOCTYPE svg PUBLIC "-//W3C//DTD SVG 1.1//EN" "http://www.w3.org/Graphics/SVG/1.1/DTD/svg11.dtd">
<svg version="1.1" xmlns="http://www.w3.org/2000/svg" xmlns:xlink="http://www.w3.org/1999/xlink" x="0px" y="0px" width="16px"
	 height="16px" viewBox="0 0 16 16" style="enable-background:new 0 0 16 16;" xml:space="preserve">
<g id="_x34_-misc_-_dice_six" style="enable-background:new    ;">
	<path d="M5.5,3h-1C4.224,3,4,3.223,4,3.499V4.5c0,0.275,0.224,0.499,0.5,0.499h1C5.776,4.999,6,4.775,6,4.5V3.499
		C6,3.223,5.776,3,5.5,3z M5.5,7h-1C4.224,7,4,7.224,4,7.499V8.5c0,0.275,0.224,0.499,0.5,0.499h1C5.776,8.999,6,8.775,6,8.5V7.499
		C6,7.224,5.776,7,5.5,7z M5.5,11h-1C4.224,11,4,11.224,4,11.499v1C4,12.775,4.224,13,4.5,13h1C5.776,13,6,12.775,6,12.499v-1
		C6,11.224,5.776,11,5.5,11z M11.5,7h-1C10.225,7,10,7.224,10,7.499V8.5c0,0.275,0.225,0.499,0.5,0.499h1
		c0.275,0,0.5-0.224,0.5-0.499V7.499C12,7.224,11.775,7,11.5,7z M11.5,11h-1c-0.275,0-0.5,0.224-0.5,0.499v1
		C10,12.775,10.225,13,10.5,13h1c0.275,0,0.5-0.225,0.5-0.501v-1C12,11.224,11.775,11,11.5,11z M11.5,3h-1
		C10.225,3,10,3.223,10,3.499V4.5c0,0.275,0.225,0.499,0.5,0.499h1c0.275,0,0.5-0.224,0.5-0.499V3.499C12,3.223,11.775,3,11.5,3z
		 M15,0H1C0.448,0,0,0.447,0,0.999v14c0,0.553,0.448,1,1,1h14c0.553,0,1-0.447,1-1v-14C16,0.447,15.553,0,15,0z M15,14.499
		c0,0.276-0.225,0.5-0.5,0.5h-13c-0.276,0-0.5-0.224-0.5-0.5v-13c0-0.275,0.224-0.5,0.5-0.5h13c0.275,0,0.5,0.225,0.5,0.5V14.499z"
		/>
</g>
<g id="Layer_1">
</g>
</svg>
