<?xml version="1.0" encoding="iso-8859-1"?>
<!-- Generator: Adobe Illustrator 16.0.0, SVG Export Plug-In . SVG Version: 6.00 Build 0)  -->
<!DOCTYPE svg PUBLIC "-//W3C//DTD SVG 1.1//EN" "http://www.w3.org/Graphics/SVG/1.1/DTD/svg11.dtd">
<svg version="1.1" xmlns="http://www.w3.org/2000/svg" xmlns:xlink="http://www.w3.org/1999/xlink" x="0px" y="0px" width="16px"
	 height="16px" viewBox="0 0 16 16" style="enable-background:new 0 0 16 16;" xml:space="preserve">
<g id="_x31_7-cursor_-_pointer_swipe_left" style="enable-background:new    ;">
	<path d="M12.5,3.975h2c0.275,0,0.5-0.225,0.5-0.501s-0.225-0.501-0.5-0.501h-2c-0.275,0-0.5,0.225-0.5,0.501
		S12.225,3.975,12.5,3.975z M15,8.985L11,7.84V3.975c0-1.106-0.895-2.004-2-2.004c-1.104,0-2,0.897-2,2.004v6.113l-0.508-0.51
		c-0.801-0.802-2.099-0.802-2.9,0c-0.801,0.803-0.801,2.104,0,2.906l2.9,2.905c0.403,0.404,0.932,0.603,1.46,0.601
		C7.969,15.99,7.983,16,8,16h7c0.553,0,1-0.449,1-1.003v-5.01C16,9.434,15.553,8.985,15,8.985z M15,14.496
		c0,0.277-0.225,0.501-0.5,0.501h-6c-0.101,0-1.007-0.058-1.283-0.334l-2.899-2.905c-0.4-0.401-0.4-1.052,0-1.453
		c0.4-0.4,1.049-0.4,1.45,0L8,12.543V3.975c0-0.554,0.448-1.002,1-1.002c0.553,0,1,0.448,1,1.002v4.008
		c0,0.169,0.002,0.503,0.002,0.503L14.5,9.987c0.275,0,0.5,0.225,0.5,0.501V14.496z M2.857,5.156L1.679,3.975H5.5
		C5.776,3.975,6,3.75,6,3.474S5.776,2.973,5.5,2.973H1.679l1.179-1.182c0.188-0.188,0.188-0.492,0-0.68
		c-0.187-0.188-0.491-0.188-0.679,0L0.205,3.09c-0.01,0.008-0.026,0.006-0.036,0.015C0.161,3.111,0.149,3.108,0.143,3.115
		C0.135,3.122,0.138,3.134,0.131,3.142c-0.074,0.082-0.12,0.188-0.126,0.305c0,0.005-0.002,0.008-0.002,0.012
		C0.003,3.464,0,3.468,0,3.474c0,0.005,0.003,0.009,0.004,0.014c0,0.01,0.007,0.018,0.007,0.027C0.021,3.61,0.058,3.691,0.114,3.763
		c0.015,0.021,0.009,0.05,0.029,0.069C0.16,3.85,0.187,3.844,0.206,3.858c0.01,0.008,0.016,0.021,0.026,0.027l1.946,1.95
		c0.188,0.188,0.492,0.188,0.679,0C3.045,5.648,3.045,5.344,2.857,5.156z"/>
</g>
<g id="Layer_1">
</g>
</svg>
