<?xml version="1.0" encoding="iso-8859-1"?>
<!-- Generator: Adobe Illustrator 16.0.0, SVG Export Plug-In . SVG Version: 6.00 Build 0)  -->
<!DOCTYPE svg PUBLIC "-//W3C//DTD SVG 1.1//EN" "http://www.w3.org/Graphics/SVG/1.1/DTD/svg11.dtd">
<svg version="1.1" xmlns="http://www.w3.org/2000/svg" xmlns:xlink="http://www.w3.org/1999/xlink" x="0px" y="0px" width="16px"
	 height="16px" viewBox="0 0 16 16" style="enable-background:new 0 0 16 16;" xml:space="preserve">
<g id="_x31_9-gesture_-_double_click" style="enable-background:new    ;">
	<path d="M13,8v2.62c0.623-0.885,1-1.953,1-3.12C14,4.462,11.537,2,8.5,2C5.462,2,3,4.462,3,7.5c0,1.167,0.376,2.235,1,3.12V8
		c0,0,0-0.327,0-0.5C4,5.015,6.015,3,8.5,3S13,5.015,13,7.5C13,7.673,13,8,13,8z M8,9h1V8H8V9z M8.5,0C4.358,0,1,3.357,1,7.5
		c0,2.45,1.18,4.619,3,5.984v-1.32C2.774,10.982,2,9.337,2,7.5C2,3.91,4.91,1,8.5,1C12.09,1,15,3.91,15,7.5
		c0,1.837-0.773,3.482-2,4.664v1.32c1.82-1.365,3-3.534,3-5.984C16,3.357,12.643,0,8.5,0z M9,6H8C6.896,6,6,6.896,6,8v3.24v1.133
		v1.125v1.06V16h2h1h2v-1.442v-1.06v-1.125V11.24V8C11,6.896,10.105,6,9,6z M10,14v1H7v-1V8c0-0.553,0.448-1,1-1h1
		c0.553,0,1,0.447,1,1V14z"/>
</g>
<g id="Layer_1">
</g>
</svg>
