<?xml version="1.0" encoding="iso-8859-1"?>
<!-- Generator: Adobe Illustrator 16.0.0, SVG Export Plug-In . SVG Version: 6.00 Build 0)  -->
<!DOCTYPE svg PUBLIC "-//W3C//DTD SVG 1.1//EN" "http://www.w3.org/Graphics/SVG/1.1/DTD/svg11.dtd">
<svg version="1.1" xmlns="http://www.w3.org/2000/svg" xmlns:xlink="http://www.w3.org/1999/xlink" x="0px" y="0px" width="16px"
	 height="16px" viewBox="0 0 16 16" style="enable-background:new 0 0 16 16;" xml:space="preserve">
<g id="_x32_0-misc_-_crown_premium" style="enable-background:new    ;">
	<path d="M11.5,8L9.145,4.636C9.66,4.274,10,3.678,10,3c0-1.104-0.895-2-2-2C6.896,1,6,1.896,6,3c0,0.678,0.339,1.274,0.854,1.636
		L4.5,8L1,5v7v1v2h14v-2v-1V5L11.5,8z M8,2c0.552,0,1,0.447,1,1c0,0.552-0.447,1-1,1S7,3.552,7,3C7,2.447,7.448,2,8,2z M14,14H2v-1
		h12V14z M14,12H2V7.174l1.849,1.585l0.837,0.718l0.633-0.903l2.513-3.591C7.889,4.987,7.943,5,8,5s0.111-0.013,0.167-0.018
		l2.512,3.591l0.633,0.903l0.838-0.718L14,7.174V12z"/>
</g>
<g id="Layer_1">
</g>
</svg>
