<?xml version="1.0" encoding="iso-8859-1"?>
<!-- Generator: Adobe Illustrator 16.0.0, SVG Export Plug-In . SVG Version: 6.00 Build 0)  -->
<!DOCTYPE svg PUBLIC "-//W3C//DTD SVG 1.1//EN" "http://www.w3.org/Graphics/SVG/1.1/DTD/svg11.dtd">
<svg version="1.1" xmlns="http://www.w3.org/2000/svg" xmlns:xlink="http://www.w3.org/1999/xlink" x="0px" y="0px" width="16px"
	 height="16px" viewBox="0 0 16 16" style="enable-background:new 0 0 16 16;" xml:space="preserve">
<g id="_x31_3-misc_-_puzzle_piece" style="enable-background:new    ;">
	<path d="M15.645,7.153l-1.656-1.656c1.107-0.355,1.908-1.395,1.908-2.617c0-1.517-1.232-2.75-2.746-2.75
		c-1.223,0-2.26,0.803-2.615,1.909L8.832,0.332c-0.449-0.446-1.229-0.447-1.68,0.002l-2.327,2.33
		c-0.154,0.154-0.19,0.391-0.09,0.585C4.836,3.442,5.049,3.55,5.265,3.51c0.143-0.025,0.257-0.037,0.36-0.037
		c1.094,0,1.893,0.891,1.893,1.985c0,1.094-0.799,2.003-1.893,2.003c-1.093,0-1.983-0.909-1.983-2.003
		c0-0.104,0.012-0.218,0.037-0.361c0.038-0.215-0.067-0.43-0.26-0.53c-0.194-0.102-0.43-0.064-0.584,0.09L0.338,7.154
		c-0.46,0.463-0.46,1.217,0.001,1.681l6.814,6.819c0.224,0.225,0.522,0.348,0.839,0.348c0.317,0,0.615-0.123,0.84-0.348l6.812-6.82
		C16.105,8.371,16.105,7.617,15.645,7.153z M14.938,8.128l-6.811,6.818c-0.098,0.097-0.172,0.096-0.268,0.001L1.047,8.129
		C0.973,8.055,0.973,7.934,1.046,7.86L2.73,6.175c0.322,1.3,1.497,2.285,2.895,2.285c1.645,0,2.892-1.356,2.892-3.002
		c0-1.399-0.875-2.576-2.176-2.898l1.516-1.518C7.955,0.944,8.03,0.946,8.125,1.041l2.451,2.453
		c0.148,0.149,0.377,0.188,0.568,0.098s0.303-0.293,0.281-0.504l-0.012-0.09C11.41,2.959,11.402,2.92,11.402,2.88
		c0-0.966,0.785-1.75,1.748-1.75s1.748,0.784,1.748,1.75c0,0.964-0.785,1.748-1.748,1.748c-0.045,0-0.086-0.007-0.129-0.012
		l-0.076-0.01c-0.213-0.026-0.414,0.087-0.508,0.278c-0.092,0.191-0.053,0.421,0.098,0.572l2.402,2.402
		C15.012,7.934,15.012,8.054,14.938,8.128z"/>
</g>
<g id="Layer_1">
</g>
</svg>
