<?xml version="1.0" encoding="iso-8859-1"?>
<!-- Generator: Adobe Illustrator 16.0.0, SVG Export Plug-In . SVG Version: 6.00 Build 0)  -->
<!DOCTYPE svg PUBLIC "-//W3C//DTD SVG 1.1//EN" "http://www.w3.org/Graphics/SVG/1.1/DTD/svg11.dtd">
<svg version="1.1" xmlns="http://www.w3.org/2000/svg" xmlns:xlink="http://www.w3.org/1999/xlink" x="0px" y="0px" width="16px"
	 height="16px" viewBox="0 0 16 16" style="enable-background:new 0 0 16 16;" xml:space="preserve">
<g id="_x31_-misc_-_cube_polygon" style="enable-background:new    ;">
	<path d="M14.748,4.43L8.939,1.211c-0.655-0.317-0.175-0.356-0.914,0L2.263,4.43C1.947,4.745,2,5.853,2,5.999V11.5
		c0,0.552,0.649,0.655,1,1L8,16c0.186,0,0.814,0,1,0l5.5-3.5c0.447-0.271,0.5-0.448,0.5-1V5.999C15,5.855,15.066,4.747,14.748,4.43z
		 M8,15l-5.217-3.439V5.882L8,9.162V15z M14.299,11.62L9,15V9.162l5.299-3.354V11.62z M13.988,5.007L8.687,8.225
		C8.619,8.248,8.558,8.28,8.498,8.316C8.444,8.283,8.391,8.25,8.33,8.229L3,5l5.489-3.082L14,5L13.988,5.007z"/>
</g>
<g id="Layer_1">
</g>
</svg>
