<?xml version="1.0" encoding="iso-8859-1"?>
<!-- Generator: Adobe Illustrator 16.0.0, SVG Export Plug-In . SVG Version: 6.00 Build 0)  -->
<!DOCTYPE svg PUBLIC "-//W3C//DTD SVG 1.1//EN" "http://www.w3.org/Graphics/SVG/1.1/DTD/svg11.dtd">
<svg version="1.1" xmlns="http://www.w3.org/2000/svg" xmlns:xlink="http://www.w3.org/1999/xlink" x="0px" y="0px" width="16px"
	 height="16px" viewBox="0 0 16 16" style="enable-background:new 0 0 16 16;" xml:space="preserve">
<g id="_x32_-misc_-_sad_bad_mood" style="enable-background:new    ;">
	<path d="M5.5,7.999c0.552,0,1-0.448,1-1s-0.448-1-1-1s-1,0.448-1,1S4.948,7.999,5.5,7.999z M10.5,7.999c0.553,0,1-0.448,1-1
		s-0.447-1-1-1s-1,0.448-1,1S9.947,7.999,10.5,7.999z M8.25,8.999c-2.246,0-4.203,1.208-5.253,3h1.212c0.923-1.212,2.388-2,4.041-2
		c1.655,0,3.118,0.788,4.042,2h1.213C12.453,10.207,10.496,8.999,8.25,8.999z M8-0.001c-4.418,0-8,3.582-8,8s3.582,8,8,8
		c4.418,0,8-3.582,8-8S12.418-0.001,8-0.001z M8,14.999c-3.866,0-7-3.134-7-7c0-3.865,3.134-7,7-7c3.865,0,7,3.135,7,7
		C15,11.865,11.865,14.999,8,14.999z"/>
</g>
<g id="Layer_1">
</g>
</svg>
