<?xml version="1.0" encoding="iso-8859-1"?>
<!-- Generator: Adobe Illustrator 16.0.0, SVG Export Plug-In . SVG Version: 6.00 Build 0)  -->
<!DOCTYPE svg PUBLIC "-//W3C//DTD SVG 1.1//EN" "http://www.w3.org/Graphics/SVG/1.1/DTD/svg11.dtd">
<svg version="1.1" xmlns="http://www.w3.org/2000/svg" xmlns:xlink="http://www.w3.org/1999/xlink" x="0px" y="0px" width="16px"
	 height="16px" viewBox="0 0 16 16" style="enable-background:new 0 0 16 16;" xml:space="preserve">
<g id="_x31_5-cursor_-_normal_pointer" style="enable-background:new    ;">
	<path d="M14,8l-4-1.144V3c0-1.104-0.895-2-2-2C6.896,1,6,1.896,6,3v6.101L5.492,8.592c-0.801-0.8-2.099-0.8-2.9,0
		c-0.801,0.801-0.801,2.1,0,2.9l2.9,2.899c0.403,0.402,0.931,0.601,1.459,0.599C6.968,14.991,6.983,15,7,15h7c0.553,0,1-0.448,1-1V9
		C15,8.447,14.553,8,14,8z M14,13.5c0,0.275-0.225,0.5-0.5,0.5h-6c0,0-1.008-0.059-1.283-0.334l-2.899-2.899
		c-0.4-0.4-0.4-1.05,0-1.449c0.4-0.4,1.049-0.4,1.473,0.023l2.233,2.232L7,7V3c0-0.553,0.448-1,1-1s1,0.447,1,1v4
		c0,0.168,0.002,0.5,0.002,0.5L13.5,9C13.775,9,14,9.224,14,9.5V13.5z"/>
</g>
<g id="Layer_1">
</g>
</svg>
