<?xml version="1.0" encoding="iso-8859-1"?>
<!-- Generator: Adobe Illustrator 16.0.0, SVG Export Plug-In . SVG Version: 6.00 Build 0)  -->
<!DOCTYPE svg PUBLIC "-//W3C//DTD SVG 1.1//EN" "http://www.w3.org/Graphics/SVG/1.1/DTD/svg11.dtd">
<svg version="1.1" xmlns="http://www.w3.org/2000/svg" xmlns:xlink="http://www.w3.org/1999/xlink" x="0px" y="0px" width="16px"
	 height="16px" viewBox="0 0 16 16" style="enable-background:new 0 0 16 16;" xml:space="preserve">
<g id="_x31_4-misc_-_wifi_connection_internet" style="enable-background:new    ;">
	<path d="M4.374,7.987l0.739,0.715c0.855-0.449,1.836-0.707,2.881-0.707c1.057,0,2.049,0.265,2.913,0.726l0.75-0.718
		c-1.064-0.629-2.314-0.999-3.655-0.999C6.671,7.004,5.433,7.367,4.374,7.987z M6.67,10.211L8,11.499l1.344-1.284
		c-0.42-0.141-0.871-0.221-1.342-0.221C7.534,9.994,7.087,10.073,6.67,10.211z M15-0.001H1c-0.552,0-1,0.447-1,1v14
		c0,0.553,0.448,1,1,1h14c0.553,0,1-0.447,1-1v-14C16,0.446,15.553-0.001,15-0.001z M15,14.499c0,0.276-0.225,0.5-0.5,0.5h-13
		c-0.276,0-0.5-0.224-0.5-0.5v-13c0-0.275,0.224-0.5,0.5-0.5h13c0.275,0,0.5,0.225,0.5,0.5V14.499z M2.164,5.846l0.73,0.708
		c1.452-0.975,3.209-1.548,5.107-1.548c1.913,0,3.684,0.584,5.143,1.574l0.736-0.705c-1.652-1.175-3.68-1.876-5.879-1.876
		C5.819,3.999,3.807,4.688,2.164,5.846z"/>
</g>
<g id="Layer_1">
</g>
</svg>
