<?xml version="1.0" encoding="iso-8859-1"?>
<!-- Generator: Adobe Illustrator 16.0.0, SVG Export Plug-In . SVG Version: 6.00 Build 0)  -->
<!DOCTYPE svg PUBLIC "-//W3C//DTD SVG 1.1//EN" "http://www.w3.org/Graphics/SVG/1.1/DTD/svg11.dtd">
<svg version="1.1" xmlns="http://www.w3.org/2000/svg" xmlns:xlink="http://www.w3.org/1999/xlink" x="0px" y="0px" width="16px"
	 height="16px" viewBox="0 0 16 16" style="enable-background:new 0 0 16 16;" xml:space="preserve">
<g id="_x31_2-misc_-_female_gender" style="enable-background:new    ;">
	<path d="M14,5.499c0-3.037-2.463-5.5-5.5-5.5c-3.037,0-5.5,2.463-5.5,5.5c0,2.866,2.201,5.193,5,5.45V13H6
		c-0.276,0-0.5,0.223-0.5,0.499s0.224,0.5,0.5,0.5h2v1.5c0,0.276,0.224,0.5,0.5,0.5c0.276,0,0.5-0.224,0.5-0.5v-1.5h2
		c0.275,0,0.5-0.224,0.5-0.5S11.275,13,11,13H9v-2.051C11.799,10.692,14,8.365,14,5.499z M8.5,9.999c-2.485,0-4.5-2.015-4.5-4.5
		s2.015-4.5,4.5-4.5s4.5,2.015,4.5,4.5S10.984,9.999,8.5,9.999z"/>
</g>
<g id="Layer_1">
</g>
</svg>
