<?xml version="1.0" encoding="iso-8859-1"?>
<!-- Generator: Adobe Illustrator 16.0.0, SVG Export Plug-In . SVG Version: 6.00 Build 0)  -->
<!DOCTYPE svg PUBLIC "-//W3C//DTD SVG 1.1//EN" "http://www.w3.org/Graphics/SVG/1.1/DTD/svg11.dtd">
<svg version="1.1" xmlns="http://www.w3.org/2000/svg" xmlns:xlink="http://www.w3.org/1999/xlink" x="0px" y="0px" width="16px"
	 height="16px" viewBox="0 0 16 16" style="enable-background:new 0 0 16 16;" xml:space="preserve">
<g id="_x31_0-misc_-_globe" style="enable-background:new    ;">
	<path d="M15.008,6.467c0-2.638-1.367-5.029-3.654-6.399c-0.234-0.141-0.537-0.061-0.674,0.178
		c-0.137,0.237-0.059,0.544,0.174,0.685c1.986,1.188,3.172,3.258,3.172,5.537c0,3.787-2.703,6.536-6.426,6.536
		c-0.832,0-1.64-0.159-2.401-0.472c-0.251-0.104-0.538,0.02-0.64,0.275c-0.102,0.257,0.02,0.548,0.271,0.651
		c0.878,0.361,1.81,0.544,2.769,0.544c0.141,0,0.276-0.012,0.414-0.019v1.019H6.564c-0.288,0-0.521,0.224-0.521,0.499
		S6.277,16,6.564,16h3.941c0.287,0,0.521-0.224,0.521-0.499s-0.234-0.499-0.521-0.499H9.004v-1.123
		C12.553,13.266,15.008,10.34,15.008,6.467z M12.994,6.527c0-3.042-2.459-5.522-5.492-5.522c-3.035,0-5.494,2.48-5.494,5.522
		c0,3.041,2.459,5.491,5.494,5.491C10.535,12.019,12.994,9.568,12.994,6.527z M3.005,6.527c0-2.485,2.017-4.522,4.497-4.522
		c2.479,0,4.496,2.037,4.496,4.522c0,2.484-2.018,4.491-4.496,4.491C5.022,11.019,3.005,9.012,3.005,6.527z"/>
</g>
<g id="Layer_1">
</g>
</svg>
