<?xml version="1.0" encoding="iso-8859-1"?>
<!-- Generator: Adobe Illustrator 16.0.0, SVG Export Plug-In . SVG Version: 6.00 Build 0)  -->
<!DOCTYPE svg PUBLIC "-//W3C//DTD SVG 1.1//EN" "http://www.w3.org/Graphics/SVG/1.1/DTD/svg11.dtd">
<svg version="1.1" xmlns="http://www.w3.org/2000/svg" xmlns:xlink="http://www.w3.org/1999/xlink" x="0px" y="0px" width="16px"
	 height="16px" viewBox="0 0 16 16" style="enable-background:new 0 0 16 16;" xml:space="preserve">
<g id="_x31_1-misc_-_male_gender" style="enable-background:new    ;">
	<path d="M15.994,1.475c0-0.005-0.002-0.008-0.002-0.013c-0.008-0.109-0.053-0.208-0.123-0.286c-0.012-0.014-0.006-0.033-0.02-0.046
		c-0.018-0.019-0.047-0.013-0.066-0.027c-0.086-0.061-0.186-0.104-0.299-0.104h-4.129c-0.285,0-0.518,0.224-0.518,0.5
		s0.232,0.5,0.518,0.5h2.891L9.578,6.52C8.561,5.583,7.192,4.999,5.677,4.999C2.542,4.999,0,7.462,0,10.499
		c0,3.038,2.542,5.5,5.677,5.5c3.136,0,5.678-2.462,5.678-5.5c0-1.22-0.424-2.336-1.117-3.248l4.729-4.583v2.831
		c0,0.276,0.232,0.5,0.518,0.5S16,5.775,16,5.499v-4C16,1.49,15.996,1.483,15.994,1.475z M10.322,10.499c0,2.485-2.08,4.5-4.645,4.5
		s-4.645-2.015-4.645-4.5s2.08-4.5,4.645-4.5S10.322,8.014,10.322,10.499z"/>
</g>
<g id="Layer_1">
</g>
</svg>
