<?xml version="1.0" encoding="iso-8859-1"?>
<!-- Generator: Adobe Illustrator 16.0.0, SVG Export Plug-In . SVG Version: 6.00 Build 0)  -->
<!DOCTYPE svg PUBLIC "-//W3C//DTD SVG 1.1//EN" "http://www.w3.org/Graphics/SVG/1.1/DTD/svg11.dtd">
<svg version="1.1" xmlns="http://www.w3.org/2000/svg" xmlns:xlink="http://www.w3.org/1999/xlink" x="0px" y="0px" width="16px"
	 height="16px" viewBox="0 0 16 16" style="enable-background:new 0 0 16 16;" xml:space="preserve">
<g id="_x38_-misc_-_dice_two" style="enable-background:new    ;">
	<path d="M5.5,10h-1C4.224,10,4,10.223,4,10.5v0.999c0,0.276,0.224,0.5,0.5,0.5h1c0.276,0,0.5-0.224,0.5-0.5V10.5
		C6,10.223,5.776,10,5.5,10z M11.5,4h-1C10.225,4,10,4.224,10,4.499V5.5C10,5.775,10.225,6,10.5,6h1C11.775,6,12,5.775,12,5.5V4.499
		C12,4.224,11.775,4,11.5,4z M15,0H1C0.448,0,0,0.447,0,0.999v14c0,0.553,0.448,1,1,1h14c0.553,0,1-0.447,1-1v-14
		C16,0.447,15.553,0,15,0z M15,14.499c0,0.276-0.225,0.5-0.5,0.5h-13c-0.276,0-0.5-0.224-0.5-0.5v-13c0-0.275,0.224-0.5,0.5-0.5h13
		c0.275,0,0.5,0.225,0.5,0.5V14.499z"/>
</g>
<g id="Layer_1">
</g>
</svg>
