<?xml version="1.0" encoding="iso-8859-1"?>
<!-- Generator: Adobe Illustrator 16.0.0, SVG Export Plug-In . SVG Version: 6.00 Build 0)  -->
<!DOCTYPE svg PUBLIC "-//W3C//DTD SVG 1.1//EN" "http://www.w3.org/Graphics/SVG/1.1/DTD/svg11.dtd">
<svg version="1.1" xmlns="http://www.w3.org/2000/svg" xmlns:xlink="http://www.w3.org/1999/xlink" x="0px" y="0px" width="16px"
	 height="16px" viewBox="0 0 16 16" style="enable-background:new 0 0 16 16;" xml:space="preserve">
<g id="_x31_0-music_-_cd_disk_vynil" style="enable-background:new    ;">
	<path d="M8-0.001c-4.418,0-8,3.582-8,8s3.582,8,8,8c4.418,0,8-3.582,8-8S12.418-0.001,8-0.001z M2.72,3.442l2.84,2.834
		C5.376,6.538,5.232,6.831,5.138,7.146L1.217,6.349C1.482,5.255,2.011,4.269,2.72,3.442z M8,14.999c-3.866,0-7-3.134-7-7
		c0-0.22,0.045-0.427,0.064-0.642l3.952,0.804C5.102,9.74,6.398,10.999,8,10.999c0.532,0,1.025-0.145,1.457-0.389l2.914,2.837
		C11.176,14.415,9.66,14.999,8,14.999z M6,7.999c0-1.104,0.896-2,2-2c1.105,0,2,0.896,2,2s-0.895,2-2,2C6.896,9.999,6,9.104,6,7.999
		z M13.125,12.74l-2.869-2.793c0.254-0.298,0.457-0.639,0.582-1.02l3.928,0.779C14.475,10.857,13.902,11.894,13.125,12.74z
		 M10.992,7.919C10.947,6.3,9.629,4.999,8,4.999c-0.644,0-1.233,0.209-1.718,0.556L3.443,2.722C4.666,1.657,6.249,0.999,8,0.999
		c3.865,0,7,3.134,7,7c0,0.24-0.047,0.467-0.07,0.7L10.992,7.919z"/>
</g>
<g id="Layer_1">
</g>
</svg>
