<?xml version="1.0" encoding="iso-8859-1"?>
<!-- Generator: Adobe Illustrator 16.0.0, SVG Export Plug-In . SVG Version: 6.00 Build 0)  -->
<!DOCTYPE svg PUBLIC "-//W3C//DTD SVG 1.1//EN" "http://www.w3.org/Graphics/SVG/1.1/DTD/svg11.dtd">
<svg version="1.1" xmlns="http://www.w3.org/2000/svg" xmlns:xlink="http://www.w3.org/1999/xlink" x="0px" y="0px" width="16px"
	 height="16px" viewBox="0 0 16 16" style="enable-background:new 0 0 16 16;" xml:space="preserve">
<g id="_x33_2-music_-_previous_interface" style="enable-background:new    ;">
	<path d="M2.775,8.499l5.591-5.13c0.201-0.202,0.201-0.528,0-0.73c-0.201-0.201-0.527-0.201-0.729,0L1.67,8.113
		C1.665,8.12,1.667,8.13,1.661,8.137C1.659,8.138,1.656,8.138,1.654,8.139c-0.201,0.202-0.201,0.529,0,0.73l5.967,5.475
		c0.202,0.201,0.528,0.201,0.729,0c0.201-0.202,0.201-0.528,0-0.73L2.775,8.499z M8.776,8.499l4.585-4.13
		c0.201-0.201,0.201-0.528,0-0.729c-0.201-0.202-0.527-0.202-0.729,0L7.664,8.113C7.657,8.12,7.66,8.13,7.654,8.137
		C7.652,8.138,7.649,8.138,7.647,8.139c-0.201,0.202-0.201,0.529,0,0.73l4.968,4.475c0.201,0.201,0.529,0.201,0.73,0
		c0.201-0.202,0.201-0.529,0-0.73L8.776,8.499z"/>
</g>
<g id="Layer_1">
</g>
</svg>
