<?xml version="1.0" encoding="iso-8859-1"?>
<!-- Generator: Adobe Illustrator 16.0.0, SVG Export Plug-In . SVG Version: 6.00 Build 0)  -->
<!DOCTYPE svg PUBLIC "-//W3C//DTD SVG 1.1//EN" "http://www.w3.org/Graphics/SVG/1.1/DTD/svg11.dtd">
<svg version="1.1" xmlns="http://www.w3.org/2000/svg" xmlns:xlink="http://www.w3.org/1999/xlink" x="0px" y="0px" width="16px"
	 height="16px" viewBox="0 0 16 16" style="enable-background:new 0 0 16 16;" xml:space="preserve">
<g id="_x34_7-music_-_album_cover" style="enable-background:new    ;">
	<path style="fill-rule:evenodd;clip-rule:evenodd;" d="M1,16.001h14v-1H1V16.001z M15,0H1C0.447,0,0,0.448,0,1.001v12
		C0,13.553,0.447,14,1,14h14c0.553,0,1-0.447,1-0.999v-12C16,0.448,15.553,0,15,0z M15,12.501c0,0.276-0.225,0.5-0.5,0.5h-13
		c-0.276,0-0.5-0.224-0.5-0.5v-11c0-0.276,0.224-0.5,0.5-0.5h13c0.275,0,0.5,0.224,0.5,0.5V12.501z M13,2.003l-6.995,1.2l0,0.001
		L6,3.203v4.973C5.35,7.952,4.511,7.97,3.737,8.301c-1.32,0.563-2.049,1.781-1.627,2.72c0.421,0.939,1.832,1.243,3.152,0.68
		C6.583,11.137,7.422,9.937,7,8.997V3.885l5-0.886v4.136c-0.621-0.209-1.418-0.187-2.176,0.102C8.497,7.743,7.723,8.95,8.094,9.934
		c0.373,0.983,1.751,1.37,3.08,0.863c1.328-0.506,2.199-1.813,1.826-2.796V2.003z M4.993,10.724
		c-0.786,0.384-1.643,0.371-1.916-0.027c-0.272-0.399,0.145-1.034,0.93-1.419c0.787-0.384,1.644-0.372,1.916,0.027
		S5.778,10.339,4.993,10.724z M10.992,9.724c-0.785,0.384-1.643,0.371-1.916-0.027c-0.271-0.399,0.145-1.035,0.93-1.419
		c0.787-0.384,1.645-0.372,1.916,0.027S11.777,9.339,10.992,9.724z"/>
</g>
<g id="Layer_1">
</g>
</svg>
