<?xml version="1.0" encoding="iso-8859-1"?>
<!-- Generator: Adobe Illustrator 16.0.0, SVG Export Plug-In . SVG Version: 6.00 Build 0)  -->
<!DOCTYPE svg PUBLIC "-//W3C//DTD SVG 1.1//EN" "http://www.w3.org/Graphics/SVG/1.1/DTD/svg11.dtd">
<svg version="1.1" xmlns="http://www.w3.org/2000/svg" xmlns:xlink="http://www.w3.org/1999/xlink" x="0px" y="0px" width="16px"
	 height="16px" viewBox="0 0 16 16" style="enable-background:new 0 0 16 16;" xml:space="preserve">
<g id="_x33_1-music_-_previous_interface" style="enable-background:new    ;">
	<path d="M2.283,8.499l4.585-4.13c0.202-0.201,0.202-0.528,0-0.729c-0.201-0.202-0.527-0.202-0.729,0L1.171,8.113
		C1.165,8.12,1.168,8.13,1.162,8.137C1.16,8.138,1.157,8.138,1.155,8.139c-0.201,0.202-0.201,0.529,0,0.73l4.968,4.475
		c0.202,0.201,0.528,0.201,0.729,0c0.202-0.202,0.202-0.529,0-0.73L2.283,8.499z M8.269,8.499l5.59-5.13
		c0.203-0.202,0.203-0.528,0-0.73c-0.201-0.201-0.527-0.201-0.729,0L7.164,8.113C7.158,8.12,7.161,8.13,7.155,8.137
		C7.153,8.138,7.15,8.138,7.148,8.139c-0.201,0.202-0.201,0.529,0,0.73l5.967,5.475c0.201,0.201,0.527,0.201,0.729,0
		c0.201-0.202,0.201-0.528,0-0.73L8.269,8.499z"/>
</g>
<g id="Layer_1">
</g>
</svg>
