<?xml version="1.0" encoding="iso-8859-1"?>
<!-- Generator: Adobe Illustrator 16.0.0, SVG Export Plug-In . SVG Version: 6.00 Build 0)  -->
<!DOCTYPE svg PUBLIC "-//W3C//DTD SVG 1.1//EN" "http://www.w3.org/Graphics/SVG/1.1/DTD/svg11.dtd">
<svg version="1.1" xmlns="http://www.w3.org/2000/svg" xmlns:xlink="http://www.w3.org/1999/xlink" x="0px" y="0px" width="16px"
	 height="16px" viewBox="0 0 16 16" style="enable-background:new 0 0 16 16;" xml:space="preserve">
<g id="_x34_5-music_-_album_cover" style="enable-background:new    ;">
	<path d="M15-0.001H3C2.448-0.001,2,0.447,2,1H1C0.448,1,0,1.447,0,1.999v12c0,0.553,0.448,1,1,1h1c0,0.553,0.448,1,1,1h12
		c0.553,0,1-0.447,1-1V1C16,0.447,15.553-0.001,15-0.001z M2,13.999H1.5c-0.276,0-0.5-0.224-0.5-0.499V2.499
		c0-0.275,0.224-0.5,0.5-0.5H2V13.999z M15,14.5c0,0.275-0.225,0.499-0.5,0.499h-11c-0.276,0-0.5-0.224-0.5-0.499V1.499
		C3,1.224,3.224,1,3.5,1h11C14.775,1,15,1.224,15,1.499V14.5z M11,9.125c-0.684-0.24-1.605-0.151-2.454,0.313
		c-1.276,0.697-1.884,1.962-1.357,2.824c0.526,0.863,1.987,0.997,3.264,0.3c1.15-0.629,1.84-1.705,1.563-2.546L12,3.002h-1V9.125z
		 M9.992,11.722c-0.785,0.385-1.641,0.372-1.913-0.027c-0.272-0.398,0.144-1.033,0.928-1.418c0.785-0.384,1.641-0.372,1.912,0.027
		C11.193,10.703,10.777,11.338,9.992,11.722z"/>
</g>
<g id="Layer_1">
</g>
</svg>
