<?xml version="1.0" encoding="iso-8859-1"?>
<!-- Generator: Adobe Illustrator 16.0.0, SVG Export Plug-In . SVG Version: 6.00 Build 0)  -->
<!DOCTYPE svg PUBLIC "-//W3C//DTD SVG 1.1//EN" "http://www.w3.org/Graphics/SVG/1.1/DTD/svg11.dtd">
<svg version="1.1" xmlns="http://www.w3.org/2000/svg" xmlns:xlink="http://www.w3.org/1999/xlink" x="0px" y="0px" width="16px"
	 height="16px" viewBox="0 0 16 16" style="enable-background:new 0 0 16 16;" xml:space="preserve">
<g id="_x33_7-music_-_interface_repeat" style="enable-background:new    ;">
	<path d="M8,13.999c-2.514,0-4.611-1.696-5.267-4H4l-2-3l-2,3h1.691c0.679,2.863,3.238,5,6.309,5c2.299,0,4.307-1.199,5.463-3
		h-1.252C11.201,13.212,9.701,13.999,8,13.999z M14.309,6.999C13.629,4.136,11.07,2,8,2C5.702,2,3.693,3.199,2.538,4.999H3.79
		c1.009-1.212,2.51-2,4.21-2c2.514,0,4.609,1.697,5.268,4H12l2,3l2-3H14.309z"/>
</g>
<g id="Layer_1">
</g>
</svg>
