<?xml version="1.0" encoding="iso-8859-1"?>
<!-- Generator: Adobe Illustrator 16.0.0, SVG Export Plug-In . SVG Version: 6.00 Build 0)  -->
<!DOCTYPE svg PUBLIC "-//W3C//DTD SVG 1.1//EN" "http://www.w3.org/Graphics/SVG/1.1/DTD/svg11.dtd">
<svg version="1.1" xmlns="http://www.w3.org/2000/svg" xmlns:xlink="http://www.w3.org/1999/xlink" x="0px" y="0px" width="16px"
	 height="16px" viewBox="0 0 16 16" style="enable-background:new 0 0 16 16;" xml:space="preserve">
<g id="_x35_0-music_-_song_note_playlist" style="enable-background:new    ;">
	<path d="M2.5,5h9C11.775,5,12,4.776,12,4.5S11.775,4,11.5,4h-9C2.224,4,2,4.224,2,4.5S2.224,5,2.5,5z M2.5,8h6
		C8.776,8,9,7.776,9,7.5S8.776,7,8.5,7h-6C2.224,7,2,7.224,2,7.5S2.224,8,2.5,8z M2.5,2h9C11.775,2,12,1.775,12,1.5
		C12,1.224,11.775,1,11.5,1h-9C2.224,1,2,1.224,2,1.5C2,1.775,2.224,2,2.5,2z M5.5,10h-3C2.224,10,2,10.224,2,10.5
		C2,10.775,2.224,11,2.5,11h3C5.776,11,6,10.775,6,10.5C6,10.224,5.776,10,5.5,10z M14,0.999v7.555
		c-1.096-0.782-2.896-0.748-4.523,0.221c-2.041,1.217-3.013,3.422-2.172,4.927s3.178,1.739,5.219,0.522
		c1.543-0.92,2.473-2.404,2.471-3.725H15v-9.5H14z M11.982,13.302c-1.566,0.959-3.278,0.929-3.82-0.067
		c-0.543-0.996,0.287-2.58,1.855-3.538c1.566-0.959,3.277-0.928,3.82,0.067C14.381,10.76,13.551,12.344,11.982,13.302z"/>
</g>
<g id="Layer_1">
</g>
</svg>
