<?xml version="1.0" encoding="iso-8859-1"?>
<!-- Generator: Adobe Illustrator 16.0.0, SVG Export Plug-In . SVG Version: 6.00 Build 0)  -->
<!DOCTYPE svg PUBLIC "-//W3C//DTD SVG 1.1//EN" "http://www.w3.org/Graphics/SVG/1.1/DTD/svg11.dtd">
<svg version="1.1" xmlns="http://www.w3.org/2000/svg" xmlns:xlink="http://www.w3.org/1999/xlink" x="0px" y="0px" width="16px"
	 height="16px" viewBox="0 0 16 16" style="enable-background:new 0 0 16 16;" xml:space="preserve">
<g id="_x31_9-music_-_equalizer_interface" style="enable-background:new    ;">
	<path d="M11,2.999c0-0.552-0.447-1-1-1H9v-1H8v1H7c-0.552,0-1,0.448-1,1v3c0,0.553,0.448,1,1,1h1v8h1v-8h1c0.553,0,1-0.447,1-1
		V2.999z M10,5.499c0,0.276-0.225,0.5-0.5,0.5h-2c-0.276,0-0.5-0.224-0.5-0.5v-2c0-0.275,0.224-0.5,0.5-0.5h2
		c0.275,0,0.5,0.225,0.5,0.5V5.499z M5,6.999H4v-6H3v6H2c-0.552,0-1,0.448-1,1v3c0,0.553,0.448,1,1,1h1v3h1v-3h1
		c0.552,0,1-0.447,1-1v-3C6,7.447,5.552,6.999,5,6.999z M5,10.499c0,0.276-0.224,0.5-0.5,0.5h-2c-0.276,0-0.5-0.224-0.5-0.5v-2
		c0-0.276,0.224-0.5,0.5-0.5h2c0.276,0,0.5,0.224,0.5,0.5V10.499z M15,8.999h-1v-8h-1v8h-1c-0.553,0-1,0.448-1,1v3
		c0,0.553,0.447,1,1,1h1v1h1v-1h1c0.553,0,1-0.447,1-1v-3C16,9.447,15.553,8.999,15,8.999z M15,12.499c0,0.276-0.225,0.5-0.5,0.5h-2
		c-0.275,0-0.5-0.224-0.5-0.5v-2c0-0.275,0.225-0.5,0.5-0.5h2c0.275,0,0.5,0.225,0.5,0.5V12.499z"/>
</g>
<g id="Layer_1">
</g>
</svg>
