<?xml version="1.0" encoding="iso-8859-1"?>
<!-- Generator: Adobe Illustrator 16.0.0, SVG Export Plug-In . SVG Version: 6.00 Build 0)  -->
<!DOCTYPE svg PUBLIC "-//W3C//DTD SVG 1.1//EN" "http://www.w3.org/Graphics/SVG/1.1/DTD/svg11.dtd">
<svg version="1.1" xmlns="http://www.w3.org/2000/svg" xmlns:xlink="http://www.w3.org/1999/xlink" x="0px" y="0px" width="16px"
	 height="16px" viewBox="0 0 16 16" style="enable-background:new 0 0 16 16;" xml:space="preserve">
<g id="_x34_1-music_-_song_note" style="enable-background:new    ;">
	<path d="M10,0.998L10,0.998L9.693,0.999L9.691,0.998L9.689,0.999H9v0.69L8.999,1.69L9,1.691v7.862
		C7.904,8.771,6.103,8.806,4.476,9.774c-2.041,1.217-3.013,3.422-2.171,4.927c0.842,1.505,3.178,1.739,5.219,0.522
		c1.542-0.92,2.472-2.404,2.47-3.725H10V2.223l3.309,2.54l0.693-0.692L10,0.998z M6.983,14.303
		c-1.567,0.958-3.278,0.928-3.821-0.068s0.288-2.58,1.855-3.538c1.567-0.959,3.277-0.928,3.82,0.068
		C9.381,11.76,8.55,13.344,6.983,14.303z"/>
</g>
<g id="Layer_1">
</g>
</svg>
