<?xml version="1.0" encoding="iso-8859-1"?>
<!-- Generator: Adobe Illustrator 16.0.0, SVG Export Plug-In . SVG Version: 6.00 Build 0)  -->
<!DOCTYPE svg PUBLIC "-//W3C//DTD SVG 1.1//EN" "http://www.w3.org/Graphics/SVG/1.1/DTD/svg11.dtd">
<svg version="1.1" xmlns="http://www.w3.org/2000/svg" xmlns:xlink="http://www.w3.org/1999/xlink" x="0px" y="0px" width="16px"
	 height="16px" viewBox="0 0 16 16" style="enable-background:new 0 0 16 16;" xml:space="preserve">
<g id="_x33_6-music_-_interface_shuffle" style="enable-background:new    ;">
	<path style="fill-rule:evenodd;clip-rule:evenodd;" d="M12,14.015H8.453l-1.064-1.916l-0.51,0.883L8,15.001h1l-0.001-0.004H12V16
		l3-1.495l-3-1.494V14.015z M4.613,8.903l0.51-0.882L4,6.001H3l0,0.001H0v1.012h3.563L4.613,8.903z M12,7.014V8l3-1.495L12,5.01
		v0.992H9l0-0.001H8l-4.453,8.014H0v0.982h3.002L3,15.001h1l4.438-7.987H12z"/>
</g>
<g id="Layer_1">
</g>
</svg>
