<?xml version="1.0" encoding="iso-8859-1"?>
<!-- Generator: Adobe Illustrator 16.0.0, SVG Export Plug-In . SVG Version: 6.00 Build 0)  -->
<!DOCTYPE svg PUBLIC "-//W3C//DTD SVG 1.1//EN" "http://www.w3.org/Graphics/SVG/1.1/DTD/svg11.dtd">
<svg version="1.1" xmlns="http://www.w3.org/2000/svg" xmlns:xlink="http://www.w3.org/1999/xlink" x="0px" y="0px" width="16px"
	 height="16px" viewBox="0 0 16 16" style="enable-background:new 0 0 16 16;" xml:space="preserve">
<g id="_x33_-music_-_headset_headphone" style="enable-background:new    ;">
	<path d="M14.945,6.499c-0.262-3.628-3.252-6.5-6.945-6.5c-3.694,0-6.684,2.872-6.945,6.5H0v1.5v1.5v3c0,0.828,0.671,1.5,1.5,1.5h2
		c0.828,0,1.5-0.672,1.5-1.5v-3v-3H3.502c-0.001,0-0.001,0-0.002,0H2.05c0.258-3.076,2.807-5.5,5.95-5.5s5.691,2.424,5.949,5.5H12.5
		c-0.002,0-0.002,0-0.002,0H11v1.499c0,0,0,0,0,0.001v4.5c0,0.828,0.672,1.5,1.5,1.5H13v2h1v-2h0.5c0.828,0,1.5-0.672,1.5-1.5v-3v-3
		H14.945z M4,7.5v1.999v3c0,0.276-0.224,0.5-0.5,0.5h-2c-0.276,0-0.5-0.224-0.5-0.5v-3V7.5H4z M15,9.499v3
		c0,0.276-0.225,0.5-0.5,0.5h-2c-0.275,0-0.5-0.224-0.5-0.5v-3V7.5h3V9.499z"/>
</g>
<g id="Layer_1">
</g>
</svg>
