<?xml version="1.0" encoding="iso-8859-1"?>
<!-- Generator: Adobe Illustrator 16.0.0, SVG Export Plug-In . SVG Version: 6.00 Build 0)  -->
<!DOCTYPE svg PUBLIC "-//W3C//DTD SVG 1.1//EN" "http://www.w3.org/Graphics/SVG/1.1/DTD/svg11.dtd">
<svg version="1.1" xmlns="http://www.w3.org/2000/svg" xmlns:xlink="http://www.w3.org/1999/xlink" x="0px" y="0px" width="16px"
	 height="16px" viewBox="0 0 16 16" style="enable-background:new 0 0 16 16;" xml:space="preserve">
<g id="_x34_-music_-_mic" style="enable-background:new    ;">
	<path d="M12.24,3.048C11.633,1.279,9.975-0.001,8-0.001s-3.633,1.28-4.24,3.049C3.327,3.157,3,3.532,3,3.999v1
		c0,0.472,0.333,0.849,0.773,0.954c0.261,0.741,0.689,1.403,1.269,1.913C5.023,7.91,6,14.999,6,14.999c0,0.553,0.448,1,1,1h2
		c0.553,0,1-0.447,1-1c0,0,0.977-7.089,0.959-7.133c0.578-0.51,1.008-1.172,1.268-1.913C12.666,5.848,13,5.471,13,4.999v-1
		C13,3.532,12.672,3.157,12.24,3.048z M8,0.999c1.395,0,2.588,0.821,3.15,2H4.85C5.413,1.82,6.606,0.999,8,0.999z M9,14.499
		c0,0.276-0.224,0.5-0.5,0.5h-1c-0.276,0-0.5-0.224-0.5-0.5L6.002,8.512C6.606,8.813,7.278,8.999,8,8.999
		c0.721,0,1.393-0.186,1.998-0.487L9,14.499z M8,7.999c-1.394,0-2.587-0.82-3.15-2h6.301C10.588,7.179,9.395,7.999,8,7.999z
		 M11.5,4.999h-7c-0.276,0-0.5-0.224-0.5-0.5s0.224-0.5,0.5-0.5h7c0.275,0,0.5,0.224,0.5,0.5S11.775,4.999,11.5,4.999z"/>
</g>
<g id="Layer_1">
</g>
</svg>
