<?xml version="1.0" encoding="iso-8859-1"?>
<!-- Generator: Adobe Illustrator 16.0.0, SVG Export Plug-In . SVG Version: 6.00 Build 0)  -->
<!DOCTYPE svg PUBLIC "-//W3C//DTD SVG 1.1//EN" "http://www.w3.org/Graphics/SVG/1.1/DTD/svg11.dtd">
<svg version="1.1" xmlns="http://www.w3.org/2000/svg" xmlns:xlink="http://www.w3.org/1999/xlink" x="0px" y="0px" width="16px"
	 height="16px" viewBox="0 0 16 16" style="enable-background:new 0 0 16 16;" xml:space="preserve">
<g id="_x32_-music_-_headset_headphone" style="enable-background:new    ;">
	<path d="M14.984,7.268C14.988,7.178,15,7.09,15,6.999c0-3.866-3.135-7-7-7c-3.866,0-7,3.134-7,7C1,7.09,1.012,7.178,1.016,7.268
		C0.412,7.612,0,8.254,0,8.999v3c0,1.104,0.896,2,2,2h1c0.196,0,0.383-0.037,0.562-0.09c0.142,0.056,0.287,0.09,0.438,0.09
		c1.104,0,2-1.566,2-3.499c0-1.934-0.896-3.501-2-3.501c-0.151,0-0.296,0.035-0.438,0.09C3.383,7.036,3.196,6.999,3,6.999H2
		c0-3.313,2.686-6,6-6c3.314,0,6,2.687,6,6h-1c-0.197,0-0.383,0.037-0.563,0.09C12.297,7.034,12.15,6.999,12,6.999
		c-1.105,0-2,1.567-2,3.501c0,1.933,0.895,3.499,2,3.499c0.15,0,0.297-0.034,0.438-0.09c0.18,0.053,0.365,0.09,0.563,0.09v2h1v-2
		c1.105,0,2-0.896,2-2v-3C16,8.254,15.588,7.612,14.984,7.268z M4,7.999c0.552,0,1,1.12,1,2.501c0,1.38-0.448,2.499-1,2.499
		S3,11.88,3,10.5C3,9.119,3.448,7.999,4,7.999z M2.603,7.999C2.232,8.635,2,9.519,2,10.5c0,0.98,0.232,1.864,0.604,2.499H2
		c-0.552,0-1-0.447-1-1v-3c0-0.552,0.448-1,1-1H2.603z M12,12.999c-0.553,0-1-1.119-1-2.499c0-1.381,0.447-2.501,1-2.501
		s1,1.12,1,2.501C13,11.88,12.553,12.999,12,12.999z M15,11.999c0,0.553-0.447,1-1,1h-0.604C13.768,12.364,14,11.48,14,10.5
		c0-0.981-0.232-1.865-0.604-2.501H14c0.553,0,1,0.448,1,1V11.999z"/>
</g>
<g id="Layer_1">
</g>
</svg>
