<?xml version="1.0" encoding="iso-8859-1"?>
<!-- Generator: Adobe Illustrator 16.0.0, SVG Export Plug-In . SVG Version: 6.00 Build 0)  -->
<!DOCTYPE svg PUBLIC "-//W3C//DTD SVG 1.1//EN" "http://www.w3.org/Graphics/SVG/1.1/DTD/svg11.dtd">
<svg version="1.1" xmlns="http://www.w3.org/2000/svg" xmlns:xlink="http://www.w3.org/1999/xlink" x="0px" y="0px" width="16px"
	 height="16px" viewBox="0 0 16 16" style="enable-background:new 0 0 16 16;" xml:space="preserve">
<g id="_x38_-music_-_interface__record" style="enable-background:new    ;">
	<path d="M8-0.001c-4.418,0-8,3.582-8,8s3.582,8,8,8c4.418,0,8-3.582,8-8S12.418-0.001,8-0.001z M8,14.999c-3.866,0-7-3.134-7-7
		s3.134-7,7-7c3.865,0,7,3.134,7,7S11.865,14.999,8,14.999z M8,6.499c-0.829,0-1.5,0.672-1.5,1.5s0.671,1.5,1.5,1.5
		s1.5-0.672,1.5-1.5S8.829,6.499,8,6.499z"/>
</g>
<g id="Layer_1">
</g>
</svg>
