<?xml version="1.0" encoding="iso-8859-1"?>
<!-- Generator: Adobe Illustrator 16.0.0, SVG Export Plug-In . SVG Version: 6.00 Build 0)  -->
<!DOCTYPE svg PUBLIC "-//W3C//DTD SVG 1.1//EN" "http://www.w3.org/Graphics/SVG/1.1/DTD/svg11.dtd">
<svg version="1.1" xmlns="http://www.w3.org/2000/svg" xmlns:xlink="http://www.w3.org/1999/xlink" x="0px" y="0px" width="16px"
	 height="16px" viewBox="0 0 16 16" style="enable-background:new 0 0 16 16;" xml:space="preserve">
<g id="_x34_4-music_-_song_note" style="enable-background:new    ;">
	<path style="fill-rule:evenodd;clip-rule:evenodd;" d="M15.992,1.001V0.922L5.999,2.998v7.381c-0.968-0.58-2.474-0.512-3.834,0.282
		c-1.786,1.043-2.636,2.934-1.9,4.223c0.736,1.291,2.781,1.49,4.567,0.449c1.409-0.822,2.22-2.169,2.146-3.336h0.021V6.891
		l7.999-1.697v3.186c-0.967-0.58-2.475-0.512-3.834,0.282c-1.785,1.043-2.636,2.934-1.9,4.223c0.738,1.291,2.781,1.49,4.568,0.449
		c1.408-0.822,2.219-2.169,2.145-3.336h0.021v-9L15.992,1.001z M4.318,14.44c-1.306,0.766-2.732,0.74-3.184-0.055
		c-0.453-0.797,0.239-2.064,1.545-2.832c1.306-0.766,2.732-0.742,3.184,0.055S5.624,13.673,4.318,14.44z M13.316,12.438
		c-1.305,0.768-2.73,0.742-3.184-0.055c-0.453-0.795,0.24-2.063,1.545-2.83c1.307-0.766,2.732-0.742,3.186,0.055
		C15.314,10.405,14.623,11.673,13.316,12.438z M6.999,5.791v-1.9l7.999-1.697v1.952L6.999,5.791z"/>
</g>
<g id="Layer_1">
</g>
</svg>
