<?xml version="1.0" encoding="iso-8859-1"?>
<!-- Generator: Adobe Illustrator 16.0.0, SVG Export Plug-In . SVG Version: 6.00 Build 0)  -->
<!DOCTYPE svg PUBLIC "-//W3C//DTD SVG 1.1//EN" "http://www.w3.org/Graphics/SVG/1.1/DTD/svg11.dtd">
<svg version="1.1" xmlns="http://www.w3.org/2000/svg" xmlns:xlink="http://www.w3.org/1999/xlink" x="0px" y="0px" width="16px"
	 height="16px" viewBox="0 0 16 16" style="enable-background:new 0 0 16 16;" xml:space="preserve">
<g id="_x33_9-music_-_interface_repeat" style="enable-background:new    ;">
	<path d="M10.896,3.388c0.154-0.162,0.209-0.282,0.209-0.282h0.014c0,0-0.006,0.169-0.006,0.339v2.776h-1.041v0.782h2.932V6.221
		h-1.039V1.999h-0.764L9.998,3.204l0.514,0.564L10.896,3.388z M14.895,5.25c-0.096,0.365-0.252,0.702-0.467,0.999
		C14.783,6.743,15,7.344,15,8c0,1.656-1.344,2.999-3,2.999H7V12l2.5,2.999l0.5-1L8.333,12H12c2.209,0,4-1.792,4-4
		C16,6.932,15.576,5.968,14.895,5.25z M1,8c0-1.657,1.343-3.001,3-3.001h4v-1L5.5,1L5,1.999l1.667,2H4C1.791,3.999,0,5.79,0,8
		c0,2.208,1.791,4,4,4h1v-1.001H4C2.343,10.999,1,9.656,1,8z"/>
</g>
<g id="Layer_1">
</g>
</svg>
