<?xml version="1.0" encoding="iso-8859-1"?>
<!-- Generator: Adobe Illustrator 16.0.0, SVG Export Plug-In . SVG Version: 6.00 Build 0)  -->
<!DOCTYPE svg PUBLIC "-//W3C//DTD SVG 1.1//EN" "http://www.w3.org/Graphics/SVG/1.1/DTD/svg11.dtd">
<svg version="1.1" xmlns="http://www.w3.org/2000/svg" xmlns:xlink="http://www.w3.org/1999/xlink" x="0px" y="0px" width="16px"
	 height="16px" viewBox="0 0 16 16" style="enable-background:new 0 0 16 16;" xml:space="preserve">
<g id="_x33_3-music_-_next_interface" style="enable-background:new    ;">
	<path d="M8.368,8.139C8.366,8.138,8.363,8.138,8.361,8.137C8.355,8.13,8.358,8.12,8.351,8.113L2.384,2.639
		c-0.201-0.201-0.528-0.201-0.729,0c-0.201,0.202-0.201,0.528,0,0.73l5.591,5.13l-5.575,5.114c-0.201,0.202-0.201,0.528,0,0.73
		c0.201,0.201,0.528,0.201,0.729,0l5.967-5.475C8.569,8.668,8.569,8.341,8.368,8.139z M14.361,8.139
		c-0.002-0.001-0.006-0.001-0.008-0.002c-0.006-0.007-0.002-0.017-0.01-0.023L9.375,3.64c-0.201-0.202-0.527-0.202-0.728,0
		c-0.201,0.201-0.201,0.528,0,0.729l4.585,4.13l-4.57,4.114c-0.201,0.201-0.201,0.528,0,0.73c0.201,0.201,0.529,0.201,0.73,0
		l4.969-4.475C14.563,8.668,14.563,8.341,14.361,8.139z"/>
</g>
<g id="Layer_1">
</g>
</svg>
