<?xml version="1.0" encoding="iso-8859-1"?>
<!-- Generator: Adobe Illustrator 16.0.0, SVG Export Plug-In . SVG Version: 6.00 Build 0)  -->
<!DOCTYPE svg PUBLIC "-//W3C//DTD SVG 1.1//EN" "http://www.w3.org/Graphics/SVG/1.1/DTD/svg11.dtd">
<svg version="1.1" xmlns="http://www.w3.org/2000/svg" xmlns:xlink="http://www.w3.org/1999/xlink" x="0px" y="0px" width="16px"
	 height="16px" viewBox="0 0 16 16" style="enable-background:new 0 0 16 16;" xml:space="preserve">
<g id="_x31_8-volume_-_high_interface" style="enable-background:new    ;">
	<path d="M13,7.999c0-1.762-1.307-3.205-3-3.449v1c1.141,0.231,2,1.24,2,2.449c0,1.21-0.859,2.218-2,2.45v1
		C11.693,11.204,13,9.761,13,7.999z M10,1.101V2.1c2.836,0.479,5,2.929,5,5.899c0,2.972-2.164,5.421-5,5.899v1
		c3.389-0.489,6-3.376,6-6.899S13.389,1.589,10,1.101z M2,4.999c-0.552,0-1,0.448-1,1v4c0,0.553,0.448,1,1,1h2l5,3v-12l-5,3H2z
		 M8,12.5L4,9.999H3.5h-1c-0.276,0-0.5-0.224-0.5-0.5v-3c0-0.275,0.224-0.5,0.5-0.5h1H4l4-2.5V12.5z"/>
</g>
<g id="Layer_1">
</g>
</svg>
