<?xml version="1.0" encoding="iso-8859-1"?>
<!-- Generator: Adobe Illustrator 16.0.0, SVG Export Plug-In . SVG Version: 6.00 Build 0)  -->
<!DOCTYPE svg PUBLIC "-//W3C//DTD SVG 1.1//EN" "http://www.w3.org/Graphics/SVG/1.1/DTD/svg11.dtd">
<svg version="1.1" xmlns="http://www.w3.org/2000/svg" xmlns:xlink="http://www.w3.org/1999/xlink" x="0px" y="0px" width="16px"
	 height="16px" viewBox="0 0 16 16" style="enable-background:new 0 0 16 16;" xml:space="preserve">
<g id="_x35_-music_-_mic" style="enable-background:new    ;">
	<path d="M8.5-0.001c-3.037,0-5.5,2.463-5.5,5.5c0,2.038,1.122,3.797,2.769,4.747L6.5,14.999c0,0.553,0.448,1,1,1h2
		c0.553,0,1-0.447,1-1l0.73-4.753C12.879,9.296,14,7.537,14,5.499C14,2.462,11.537-0.001,8.5-0.001z M8.5,0.999
		c1.958,0,3.606,1.256,4.225,3H4.275C4.896,2.255,6.543,0.999,8.5,0.999z M9.5,14.499c0,0.276-0.225,0.5-0.5,0.5H8
		c-0.276,0-0.5-0.224-0.5-0.5l-0.689-3.793c0.535,0.174,1.096,0.292,1.689,0.292c0.594,0,1.155-0.118,1.69-0.292L9.5,14.499z
		 M8.5,9.999c-1.956,0-3.604-1.256-4.224-3h8.449C12.104,8.743,10.457,9.999,8.5,9.999z M4.05,5.999C4.032,5.833,4,5.67,4,5.499
		s0.032-0.334,0.05-0.5h8.899C12.969,5.165,13,5.328,13,5.499s-0.031,0.334-0.051,0.5H4.05z"/>
</g>
<g id="Layer_1">
</g>
</svg>
