<?xml version="1.0" encoding="iso-8859-1"?>
<!-- Generator: Adobe Illustrator 16.0.0, SVG Export Plug-In . SVG Version: 6.00 Build 0)  -->
<!DOCTYPE svg PUBLIC "-//W3C//DTD SVG 1.1//EN" "http://www.w3.org/Graphics/SVG/1.1/DTD/svg11.dtd">
<svg version="1.1" xmlns="http://www.w3.org/2000/svg" xmlns:xlink="http://www.w3.org/1999/xlink" x="0px" y="0px" width="16px"
	 height="16px" viewBox="0 0 16 16" style="enable-background:new 0 0 16 16;" xml:space="preserve">
<g id="_x31_-music-_radio" style="enable-background:new    ;">
	<path style="fill-rule:evenodd;clip-rule:evenodd;" d="M13.01,7.008h1V6.009h-1V7.008z M6.509,5.008c-2.485,0-4.5,2.016-4.5,4.5
		c0,2.485,2.015,4.5,4.5,4.5c2.485,0,4.501-2.015,4.501-4.5C11.01,7.023,8.994,5.008,6.509,5.008z M6.509,6.009
		c0.952,0,1.813,0.383,2.444,0.999H4.065C4.696,6.392,5.557,6.009,6.509,6.009z M6.509,13.009c-0.953,0-1.814-0.383-2.445-1.001
		h4.891C8.323,12.626,7.461,13.009,6.509,13.009z M9.66,11.008H3.358c-0.148-0.311-0.236-0.649-0.29-1h6.881
		C9.895,10.358,9.809,10.697,9.66,11.008z M3.068,9.008c0.054-0.351,0.142-0.69,0.291-1H9.66c0.148,0.31,0.234,0.649,0.289,1H3.068z
		 M14.01,3.009h-0.986L0.632,0.017C0.364-0.053,0.089,0.102,0.017,0.361C-0.055,0.622,0.104,0.89,0.372,0.959l8.788,2.05H2.009
		c-1.104,0-2,0.895-2,1.999v9c0,1.104,0.896,2.001,2,2.001H14.01c1.104,0,2-0.896,2-2.001v-9C16.01,3.903,15.113,3.009,14.01,3.009z
		 M15.01,14.008c0,0.553-0.449,1-1,1H2.009c-0.552,0-1-0.447-1-1v-9c0-0.552,0.448-1,1-1H14.01c0.551,0,1,0.448,1,1V14.008z
		 M13.01,9.008h1v-1h-1V9.008z"/>
</g>
<g id="Layer_1">
</g>
</svg>
