<?xml version="1.0" encoding="iso-8859-1"?>
<!-- Generator: Adobe Illustrator 16.0.0, SVG Export Plug-In . SVG Version: 6.00 Build 0)  -->
<!DOCTYPE svg PUBLIC "-//W3C//DTD SVG 1.1//EN" "http://www.w3.org/Graphics/SVG/1.1/DTD/svg11.dtd">
<svg version="1.1" xmlns="http://www.w3.org/2000/svg" xmlns:xlink="http://www.w3.org/1999/xlink" x="0px" y="0px" width="16px"
	 height="16px" viewBox="0 0 16 16" style="enable-background:new 0 0 16 16;" xml:space="preserve">
<g id="_x34_6-music_-_album_cover" style="enable-background:new    ;">
	<path d="M1,15.999h14v-1H1V15.999z M15-0.001H1C0.448-0.001,0,0.447,0,1v11.999c0,0.553,0.448,1,1,1h14c0.553,0,1-0.447,1-1V1
		C16,0.447,15.553-0.001,15-0.001z M15,12.499c0,0.277-0.225,0.5-0.5,0.5h-13c-0.276,0-0.5-0.223-0.5-0.5v-11C1,1.224,1.224,1,1.5,1
		h13C14.775,1,15,1.224,15,1.499V12.499z M9,8.125c-0.683-0.24-1.605-0.151-2.453,0.312c-1.276,0.697-1.884,1.963-1.358,2.825
		c0.526,0.863,1.988,0.997,3.264,0.3c1.151-0.628,1.75-1.716,1.473-2.557H10V2.002H9V8.125z M7.992,10.723
		c-0.785,0.384-1.641,0.372-1.913-0.028c-0.271-0.398,0.144-1.033,0.929-1.418C7.792,8.893,8.649,8.904,8.92,9.304
		C9.193,9.703,8.777,10.338,7.992,10.723z"/>
</g>
<g id="Layer_1">
</g>
</svg>
