<?xml version="1.0" encoding="iso-8859-1"?>
<!-- Generator: Adobe Illustrator 16.0.0, SVG Export Plug-In . SVG Version: 6.00 Build 0)  -->
<!DOCTYPE svg PUBLIC "-//W3C//DTD SVG 1.1//EN" "http://www.w3.org/Graphics/SVG/1.1/DTD/svg11.dtd">
<svg version="1.1" xmlns="http://www.w3.org/2000/svg" xmlns:xlink="http://www.w3.org/1999/xlink" x="0px" y="0px" width="16px"
	 height="16px" viewBox="0 0 16 16" style="enable-background:new 0 0 16 16;" xml:space="preserve">
<g id="_x36_-audio_-_speaker" style="enable-background:new    ;">
	<path d="M3,1.999H2v1h1V1.999z M2,13.999h1v-1H2V13.999z M13,13.999h1v-1h-1V13.999z M8,4.999c-1.657,0-3,1.344-3,3
		c0,1.657,1.343,3,3,3c1.656,0,3-1.343,3-3C11,6.343,9.656,4.999,8,4.999z M8,9.999c-1.104,0-2-0.896-2-2s0.896-2,2-2
		c1.105,0,2,0.896,2,2S9.105,9.999,8,9.999z M13,2.999h1v-1h-1V2.999z M15-0.001H1c-0.552,0-1,0.448-1,1v14c0,0.553,0.448,1,1,1h14
		c0.553,0,1-0.447,1-1v-14C16,0.447,15.553-0.001,15-0.001z M15,14.499c0,0.276-0.225,0.5-0.5,0.5h-13c-0.276,0-0.5-0.224-0.5-0.5
		v-13c0-0.275,0.224-0.5,0.5-0.5h13c0.275,0,0.5,0.225,0.5,0.5V14.499z M8,1.999c-3.314,0-6,2.687-6,6c0,3.314,2.686,6,6,6
		c3.314,0,6-2.686,6-6C14,4.686,11.314,1.999,8,1.999z M8,12.999c-2.762,0-5-2.238-5-5c0-2.761,2.238-5,5-5s5,2.239,5,5
		C13,10.761,10.762,12.999,8,12.999z"/>
</g>
<g id="Layer_1">
</g>
</svg>
