<?xml version="1.0" encoding="iso-8859-1"?>
<!-- Generator: Adobe Illustrator 16.0.0, SVG Export Plug-In . SVG Version: 6.00 Build 0)  -->
<!DOCTYPE svg PUBLIC "-//W3C//DTD SVG 1.1//EN" "http://www.w3.org/Graphics/SVG/1.1/DTD/svg11.dtd">
<svg version="1.1" xmlns="http://www.w3.org/2000/svg" xmlns:xlink="http://www.w3.org/1999/xlink" x="0px" y="0px" width="16px"
	 height="16px" viewBox="0 0 16 16" style="enable-background:new 0 0 16 16;" xml:space="preserve">
<g id="_x31_7-volume_-_medium_interface" style="enable-background:new    ;">
	<path d="M3,4.999c-0.552,0-1,0.448-1,1v4c0,0.553,0.448,1,1,1h2l5,3v-12l-5,3H3z M9,12.5L5,9.999H4.5h-1
		c-0.276,0-0.5-0.224-0.5-0.5v-3c0-0.275,0.224-0.5,0.5-0.5h1H5l4-2.5V12.5z M11,4.55v1c1.141,0.231,2,1.24,2,2.449
		c0,1.21-0.859,2.218-2,2.45v1c1.693-0.245,3-1.688,3-3.45S12.693,4.794,11,4.55z"/>
</g>
<g id="Layer_1">
</g>
</svg>
