<?xml version="1.0" encoding="iso-8859-1"?>
<!-- Generator: Adobe Illustrator 16.0.0, SVG Export Plug-In . SVG Version: 6.00 Build 0)  -->
<!DOCTYPE svg PUBLIC "-//W3C//DTD SVG 1.1//EN" "http://www.w3.org/Graphics/SVG/1.1/DTD/svg11.dtd">
<svg version="1.1" xmlns="http://www.w3.org/2000/svg" xmlns:xlink="http://www.w3.org/1999/xlink" x="0px" y="0px" width="16px"
	 height="16px" viewBox="0 0 16 16" style="enable-background:new 0 0 16 16;" xml:space="preserve">
<g id="_x32_0-music_-_equalizer_interface" style="enable-background:new    ;">
	<path d="M9,2.05V0.999H8V2.05C6.859,2.281,6,3.29,6,4.499c0,1.21,0.859,2.218,2,2.45v8.05h1v-8.05c1.141-0.232,2-1.24,2-2.45
		C11,3.29,10.141,2.281,9,2.05z M8.5,5.999c-0.828,0-1.5-0.671-1.5-1.5c0-0.828,0.671-1.5,1.5-1.5c0.829,0,1.5,0.672,1.5,1.5
		C10,5.328,9.328,5.999,8.5,5.999z M14,9.05V0.999h-1V9.05c-1.141,0.231-2,1.24-2,2.449c0,1.21,0.859,2.218,2,2.45v1.05h1v-1.05
		c1.141-0.232,2-1.24,2-2.45C16,10.29,15.141,9.281,14,9.05z M13.5,12.999c-0.828,0-1.5-0.671-1.5-1.5c0-0.828,0.672-1.5,1.5-1.5
		s1.5,0.672,1.5,1.5C15,12.328,14.328,12.999,13.5,12.999z M4,7.05V0.999H3V7.05C1.859,7.281,1,8.29,1,9.499
		c0,1.21,0.859,2.218,2,2.45v3.05h1v-3.05c1.141-0.232,2-1.24,2-2.45C6,8.29,5.141,7.281,4,7.05z M3.5,10.999
		c-0.829,0-1.5-0.671-1.5-1.5c0-0.828,0.671-1.5,1.5-1.5S5,8.671,5,9.499C5,10.328,4.329,10.999,3.5,10.999z"/>
</g>
<g id="Layer_1">
</g>
</svg>
