<?xml version="1.0" encoding="iso-8859-1"?>
<!-- Generator: Adobe Illustrator 16.0.0, SVG Export Plug-In . SVG Version: 6.00 Build 0)  -->
<!DOCTYPE svg PUBLIC "-//W3C//DTD SVG 1.1//EN" "http://www.w3.org/Graphics/SVG/1.1/DTD/svg11.dtd">
<svg version="1.1" xmlns="http://www.w3.org/2000/svg" xmlns:xlink="http://www.w3.org/1999/xlink" x="0px" y="0px" width="16px"
	 height="16px" viewBox="0 0 16 16" style="enable-background:new 0 0 16 16;" xml:space="preserve">
<g id="_x34_8-music_-_album_cover" style="enable-background:new    ;">
	<path d="M12,1.078V0.999c0-0.552-0.447-1-1-1H1c-0.552,0-1,0.448-1,1v14c0,0.553,0.448,1,1,1h10c0.553,0,1-0.447,1-1V14.92
		c2.389-1.384,4-3.961,4-6.921C16,5.04,14.389,2.462,12,1.078z M11,14.499c0,0.276-0.225,0.5-0.5,0.5h-9c-0.276,0-0.5-0.224-0.5-0.5
		v-13c0-0.275,0.224-0.5,0.5-0.5h9c0.275,0,0.5,0.225,0.5,0.5v4c-1.656,0-3,1.344-3,3c0,1.657,1.344,3,3,3V14.499z M12,13.732
		v-2.233v-0.184v-0.816h-1c-1.105,0-2-0.896-2-2s0.895-2,2-2h1V5.683V5.499V2.266c1.811,1.266,3,3.357,3,5.733
		S13.811,12.467,12,13.732z"/>
</g>
<g id="Layer_1">
</g>
</svg>
