<?xml version="1.0" encoding="iso-8859-1"?>
<!-- Generator: Adobe Illustrator 16.0.0, SVG Export Plug-In . SVG Version: 6.00 Build 0)  -->
<!DOCTYPE svg PUBLIC "-//W3C//DTD SVG 1.1//EN" "http://www.w3.org/Graphics/SVG/1.1/DTD/svg11.dtd">
<svg version="1.1" xmlns="http://www.w3.org/2000/svg" xmlns:xlink="http://www.w3.org/1999/xlink" x="0px" y="0px" width="16px"
	 height="16px" viewBox="0 0 16 16" style="enable-background:new 0 0 16 16;" xml:space="preserve">
<g id="_x31_5-volume_-_mute_interface" style="enable-background:new    ;">
	<path d="M1.998,4.999C1.447,4.999,1,5.447,1,5.999v4c0,0.553,0.447,1,0.998,1h1.996l4.989,3v-12l-4.989,3H1.998z M7.985,12.5
		L3.994,9.999H3.495H2.497c-0.276,0-0.499-0.224-0.499-0.5v-3c0-0.275,0.223-0.5,0.499-0.5h0.998h0.499l3.992-2.5V12.5z
		 M15.828,10.129l-2.143-2.146l2.127-2.13c0.195-0.197,0.195-0.516,0-0.713c-0.197-0.197-0.516-0.197-0.711,0l-2.127,2.13
		l-2.125-2.13c-0.197-0.197-0.516-0.197-0.711,0c-0.197,0.197-0.197,0.516,0,0.713l2.125,2.13l-2.141,2.146
		c-0.197,0.197-0.197,0.517,0,0.713c0.195,0.197,0.514,0.197,0.711,0l2.141-2.146l2.143,2.146c0.195,0.197,0.514,0.197,0.711,0
		C16.023,10.646,16.023,10.326,15.828,10.129z"/>
</g>
<g id="Layer_1">
</g>
</svg>
