<?xml version="1.0" encoding="iso-8859-1"?>
<!-- Generator: Adobe Illustrator 16.0.0, SVG Export Plug-In . SVG Version: 6.00 Build 0)  -->
<!DOCTYPE svg PUBLIC "-//W3C//DTD SVG 1.1//EN" "http://www.w3.org/Graphics/SVG/1.1/DTD/svg11.dtd">
<svg version="1.1" xmlns="http://www.w3.org/2000/svg" xmlns:xlink="http://www.w3.org/1999/xlink" x="0px" y="0px" width="16px"
	 height="16px" viewBox="0 0 16 16" style="enable-background:new 0 0 16 16;" xml:space="preserve">
<g id="_x37_-music_-_audio_speaker" style="enable-background:new    ;">
	<path d="M12,11.499c0-1.933-1.566-3.5-3.5-3.5c-1.933,0-3.5,1.567-3.5,3.5s1.567,3.5,3.5,3.5C10.434,14.999,12,13.432,12,11.499z
		 M8.5,13.999c-1.38,0-2.5-1.119-2.5-2.5s1.119-2.5,2.5-2.5c1.381,0,2.5,1.119,2.5,2.5S9.881,13.999,8.5,13.999z M13.916-0.001
		H3.083C2.485-0.001,2,0.447,2,0.999v14c0,0.552,0.485,1,1.083,1h10.833c0.6,0,1.084-0.448,1.084-1v-14
		C15,0.447,14.516-0.001,13.916-0.001z M14,14.499c0,0.276-0.246,0.5-0.551,0.5H8.5H3.55c-0.304,0-0.55-0.224-0.55-0.5v-13
		c0-0.275,0.246-0.5,0.55-0.5h9.899c0.305,0,0.551,0.225,0.551,0.5V14.499z M8.5,1.999c-1.38,0-2.5,1.119-2.5,2.5s1.119,2.5,2.5,2.5
		c1.381,0,2.5-1.119,2.5-2.5S9.881,1.999,8.5,1.999z M8.5,5.999c-0.828,0-1.5-0.671-1.5-1.5c0-0.828,0.671-1.5,1.5-1.5
		c0.829,0,1.5,0.672,1.5,1.5C10,5.328,9.328,5.999,8.5,5.999z"/>
</g>
<g id="Layer_1">
</g>
</svg>
