<?xml version="1.0" encoding="iso-8859-1"?>
<!-- Generator: Adobe Illustrator 16.0.0, SVG Export Plug-In . SVG Version: 6.00 Build 0)  -->
<!DOCTYPE svg PUBLIC "-//W3C//DTD SVG 1.1//EN" "http://www.w3.org/Graphics/SVG/1.1/DTD/svg11.dtd">
<svg version="1.1" xmlns="http://www.w3.org/2000/svg" xmlns:xlink="http://www.w3.org/1999/xlink" x="0px" y="0px" width="16px"
	 height="16px" viewBox="0 0 16 16" style="enable-background:new 0 0 16 16;" xml:space="preserve">
<g id="_x34_3-music_-_song_note" style="enable-background:new    ;">
	<path style="fill-rule:evenodd;clip-rule:evenodd;" d="M5.998,2.998v7.381C5.03,9.8,3.524,9.868,2.165,10.662
		c-1.786,1.043-2.636,2.934-1.9,4.223c0.736,1.29,2.781,1.49,4.567,0.448c1.408-0.822,2.22-2.169,2.146-3.335h0.021V3.891l8-1.697
		v6.185c-0.967-0.58-2.475-0.511-3.834,0.283c-1.785,1.043-2.636,2.934-1.9,4.223c0.736,1.29,2.781,1.49,4.568,0.448
		c1.408-0.822,2.221-2.169,2.145-3.336h0.021v-9L5.998,2.998z M4.317,14.44c-1.306,0.766-2.732,0.741-3.184-0.055
		c-0.453-0.797,0.239-2.064,1.545-2.831s2.732-0.742,3.184,0.055C6.315,12.406,5.623,13.674,4.317,14.44z M13.316,12.439
		c-1.305,0.768-2.73,0.742-3.184-0.055c-0.453-0.796,0.24-2.063,1.545-2.83c1.307-0.767,2.732-0.742,3.186,0.055
		C15.314,10.406,14.623,11.674,13.316,12.439z"/>
</g>
<g id="Layer_1">
</g>
</svg>
