<?xml version="1.0" encoding="iso-8859-1"?>
<!-- Generator: Adobe Illustrator 16.0.0, SVG Export Plug-In . SVG Version: 6.00 Build 0)  -->
<!DOCTYPE svg PUBLIC "-//W3C//DTD SVG 1.1//EN" "http://www.w3.org/Graphics/SVG/1.1/DTD/svg11.dtd">
<svg version="1.1" xmlns="http://www.w3.org/2000/svg" xmlns:xlink="http://www.w3.org/1999/xlink" x="0px" y="0px" width="16px"
	 height="16px" viewBox="0 0 16 16" style="enable-background:new 0 0 16 16;" xml:space="preserve">
<g id="_x39_-setting_-_knob_switch_option" style="enable-background:new    ;">
	<path d="M12,2.998H4c-2.209,0-4,1.792-4,4v2.001c0,2.209,1.791,4,4,4h8c2.209,0,4-1.791,4-4V6.998C16,4.79,14.209,2.998,12,2.998z
		 M15,8.999c0,1.657-1.344,2.999-3,2.999H4c-1.657,0-3-1.342-3-2.999V6.998c0-1.656,1.343-2.999,3-2.999h8c1.656,0,3,1.343,3,2.999
		V8.999z M11,4.999c-1.656,0-3,1.343-3,2.999c0,1.657,1.344,3,3,3s3-1.343,3-3C14,6.342,12.656,4.999,11,4.999z M11,9.998
		c-1.105,0-2-0.895-2-2c0-1.104,0.895-1.999,2-1.999c1.104,0,2,0.895,2,1.999C13,9.104,12.104,9.998,11,9.998z"/>
</g>
<g id="Layer_1">
</g>
</svg>
