<?xml version="1.0" encoding="iso-8859-1"?>
<!-- Generator: Adobe Illustrator 16.0.0, SVG Export Plug-In . SVG Version: 6.00 Build 0)  -->
<!DOCTYPE svg PUBLIC "-//W3C//DTD SVG 1.1//EN" "http://www.w3.org/Graphics/SVG/1.1/DTD/svg11.dtd">
<svg version="1.1" xmlns="http://www.w3.org/2000/svg" xmlns:xlink="http://www.w3.org/1999/xlink" x="0px" y="0px" width="16px"
	 height="16px" viewBox="0 0 16 16" style="enable-background:new 0 0 16 16;" xml:space="preserve">
<g id="_x38_-setting_-_knob_switch_option" style="enable-background:new    ;">
	<path d="M5,4.998c-1.657,0-3,1.344-3,3c0,1.657,1.343,3,3,3s3-1.343,3-3C8,6.342,6.657,4.998,5,4.998z M5,9.998
		c-1.104,0-2-0.895-2-2c0-1.104,0.896-1.999,2-1.999s2,0.895,2,1.999C7,9.104,6.104,9.998,5,9.998z M12,2.998H4
		c-2.209,0-4,1.792-4,4v2.001c0,2.209,1.791,3.999,4,3.999h8c2.209,0,4-1.79,4-3.999V6.998C16,4.79,14.209,2.998,12,2.998z
		 M15,8.999c0,1.656-1.344,2.999-3,2.999H4c-1.657,0-3-1.343-3-2.999V6.998c0-1.656,1.343-3,3-3h8c1.656,0,3,1.344,3,3V8.999z"/>
</g>
<g id="Layer_1">
</g>
</svg>
