<?xml version="1.0" encoding="iso-8859-1"?>
<!-- Generator: Adobe Illustrator 16.0.0, SVG Export Plug-In . SVG Version: 6.00 Build 0)  -->
<!DOCTYPE svg PUBLIC "-//W3C//DTD SVG 1.1//EN" "http://www.w3.org/Graphics/SVG/1.1/DTD/svg11.dtd">
<svg version="1.1" xmlns="http://www.w3.org/2000/svg" xmlns:xlink="http://www.w3.org/1999/xlink" x="0px" y="0px" width="16px"
	 height="16px" viewBox="0 0 16 16" style="enable-background:new 0 0 16 16;" xml:space="preserve">
<g id="_x31_1-setting_-_plane_airplane" style="enable-background:new    ;">
	<path d="M15.67,0.328c-0.193-0.192-0.58-0.339-1.055-0.339c-0.592,0-1.318,0.228-1.967,0.878L9.352,4.171
		C7.494,4.054,2.737,3.738,2.619,3.734C2.598,3.733,2.572,3.732,2.543,3.732c-0.161,0-0.438,0.031-0.753,0.292
		C1.419,4.332,0.646,5.06,0.646,5.06C0.46,5.247,0.366,5.479,0.388,5.697c0.014,0.132,0.085,0.372,0.408,0.498
		c0.196,0.078,3.317,1.247,4.759,1.779l-1.969,2.034C3.5,10.011,3.391,10.012,3.27,10.012c-0.6,0-1.531-0.02-1.904-0.02
		c-0.049,0-0.089,0-0.117,0.001C1.135,9.997,0.901,9.94,0.281,10.46l-0.044,0.041c-0.186,0.187-0.229,0.372-0.233,0.495
		C0,11.122,0.033,11.305,0.216,11.451c0.109,0.089,1.516,0.991,2.669,1.689c0.276,0.451,1.549,2.478,1.616,2.588
		c0.097,0.164,0.255,0.258,0.445,0.264c0.005,0,0.01,0,0.016,0c0.184,0,0.374-0.092,0.559-0.272
		c0.524-0.614,0.452-0.868,0.455-0.976c0.008-0.335-0.006-1.756,0.006-2.319l2.045-1.97c0.522,1.438,1.665,4.533,1.741,4.73
		c0.127,0.323,0.367,0.395,0.498,0.407c0.021,0.003,0.045,0.004,0.066,0.004c0.197,0,0.402-0.093,0.57-0.262
		c0,0,0.723-0.77,1.031-1.145c0.309-0.374,0.295-0.694,0.289-0.845c-0.002-0.104-0.291-4.844-0.398-6.695l3.297-3.304
		C16.291,2.175,16.104,0.763,15.67,0.328z M14.412,2.636L11.115,5.94l-0.318,0.318l0.025,0.45c0.055,0.94,0.156,2.626,0.244,4.071
		c0.078,1.286,0.15,2.501,0.156,2.604c0.002,0.071,0.004,0.088-0.063,0.168c-0.148,0.18-0.424,0.484-0.656,0.737
		c-0.361-0.973-1.117-3.028-1.537-4.179L8.43,8.631L7.318,9.745l-2.044,1.97L4.989,12L4.98,12.403
		c-0.007,0.321-0.005,0.898-0.004,1.407c0.001,0.321,0.001,0.602,0,0.785c0.02,0.033,0.042,0.068,0.061,0.099
		c0.007-0.012-0.066-0.021-0.062-0.03c0-0.017,0-0.049,0-0.068c-0.026-0.041-0.051-0.081-0.079-0.126
		C4.484,13.812,3.914,12.9,3.74,12.616l-0.127-0.209l-0.208-0.126c-0.735-0.445-1.54-0.952-2.057-1.285H1.333
		c-0.012,0.006-0.026-0.048-0.044-0.037c0.017,0.011,0.041,0.025,0.058,0.037h0.019c0.162,0,0.429,0.003,0.728,0.008
		c0.392,0.006,0.836,0.012,1.176,0.012c0.13,0,0.246-0.001,0.339-0.003l0.402-0.009l0.284-0.285l1.969-2.035l1.108-1.109
		L5.901,7.032C4.796,6.624,2.679,5.833,1.689,5.46c0.254-0.234,0.56-0.513,0.739-0.661c0.05-0.041,0.088-0.063,0.115-0.063
		l0.035,0.001c0.111,0.006,1.482,0.096,2.809,0.182c1.408,0.093,2.998,0.196,3.9,0.254l0.451,0.028l0.32-0.32l3.297-3.304
		c0.508-0.508,1.008-0.584,1.26-0.584c0.164,0,0.279,0.03,0.338,0.053C15.025,1.238,15.121,1.926,14.412,2.636z"/>
</g>
<g id="Layer_1">
</g>
</svg>
