<?xml version="1.0" encoding="iso-8859-1"?>
<!-- Generator: Adobe Illustrator 16.0.0, SVG Export Plug-In . SVG Version: 6.00 Build 0)  -->
<!DOCTYPE svg PUBLIC "-//W3C//DTD SVG 1.1//EN" "http://www.w3.org/Graphics/SVG/1.1/DTD/svg11.dtd">
<svg version="1.1" xmlns="http://www.w3.org/2000/svg" xmlns:xlink="http://www.w3.org/1999/xlink" x="0px" y="0px" width="16px"
	 height="16px" viewBox="0 0 16 16" style="enable-background:new 0 0 16 16;" xml:space="preserve">
<g id="_x36_-setting_-_setting_equalizer" style="enable-background:new    ;">
	<path d="M14.5-0.001h-13c-0.829,0-1.5,0.671-1.5,1.5v13c0,0.828,0.671,1.5,1.5,1.5h13c0.828,0,1.5-0.672,1.5-1.5v-13
		C16,0.67,15.328-0.001,14.5-0.001z M15,14.499c0,0.275-0.225,0.5-0.5,0.5h-13c-0.276,0-0.5-0.225-0.5-0.5v-13
		c0-0.276,0.224-0.5,0.5-0.5h13c0.275,0,0.5,0.224,0.5,0.5V14.499z M12.545,4.999H7.95c-0.232-1.142-1.24-2-2.45-2
		C4.119,2.999,3,4.118,3,5.498c0,0,0,0,0,0.001C3,6.88,4.12,7.998,5.5,7.998c1.209,0,2.218-0.858,2.449-1.999h4.596
		c0.252,0,0.455-0.225,0.455-0.5C13,5.223,12.797,4.999,12.545,4.999z M5.5,6.998c-0.829,0-1.5-0.671-1.5-1.5
		c0-0.828,0.671-1.5,1.5-1.5c0.828,0,1.5,0.672,1.5,1.5C7,6.327,6.328,6.998,5.5,6.998z M10.5,8.999c-1.209,0-2.218,0.858-2.45,2
		H3.455c-0.251,0-0.455,0.224-0.455,0.5c0,0.275,0.204,0.5,0.455,0.5H8.05c0.232,1.141,1.241,1.999,2.45,1.999
		c1.381,0,2.498-1.118,2.5-2.498c0-0.001,0-0.001,0-0.001c0-0.001,0-0.001,0-0.001C13,10.118,11.881,8.999,10.5,8.999z M10.5,12.998
		c-0.828,0-1.5-0.671-1.5-1.5c0-0.828,0.672-1.5,1.5-1.5s1.5,0.672,1.5,1.5C12,12.327,11.328,12.998,10.5,12.998z"/>
</g>
<g id="Layer_1">
</g>
</svg>
