<?xml version="1.0" encoding="iso-8859-1"?>
<!-- Generator: Adobe Illustrator 16.0.0, SVG Export Plug-In . SVG Version: 6.00 Build 0)  -->
<!DOCTYPE svg PUBLIC "-//W3C//DTD SVG 1.1//EN" "http://www.w3.org/Graphics/SVG/1.1/DTD/svg11.dtd">
<svg version="1.1" xmlns="http://www.w3.org/2000/svg" xmlns:xlink="http://www.w3.org/1999/xlink" x="0px" y="0px" width="16px"
	 height="16px" viewBox="0 0 16 16" style="enable-background:new 0 0 16 16;" xml:space="preserve">
<g id="_x31_3-setting_-_personal_hotspot" style="enable-background:new    ;">
	<path d="M3,2.999h6c1.104,0,2,0.895,2,2v3c0,1.104-0.896,2-2,2H6v1h3c1.657,0,3-1.344,3-3v-3c0-1.657-1.344-3-3-3H3
		c-1.657,0-3,1.343-3,3v3c0,1.656,1.343,3,3,3v-1c-1.104,0-2-0.896-2-2v-3C1,3.894,1.896,2.999,3,2.999z M13,5.999v1
		c1.104,0,2,0.896,2,2v3c0,1.104-0.896,2-2,2H7c-1.104,0-2-0.896-2-2v-3c0-1.104,0.896-2,2-2h3v-1H7c-1.657,0-3,1.343-3,3v3
		c0,1.657,1.343,3,3,3h6c1.656,0,3-1.343,3-3v-3C16,7.342,14.656,5.999,13,5.999z"/>
</g>
<g id="Layer_1">
</g>
</svg>
