<?xml version="1.0" encoding="iso-8859-1"?>
<!-- Generator: Adobe Illustrator 16.0.0, SVG Export Plug-In . SVG Version: 6.00 Build 0)  -->
<!DOCTYPE svg PUBLIC "-//W3C//DTD SVG 1.1//EN" "http://www.w3.org/Graphics/SVG/1.1/DTD/svg11.dtd">
<svg version="1.1" xmlns="http://www.w3.org/2000/svg" xmlns:xlink="http://www.w3.org/1999/xlink" x="0px" y="0px" width="16px"
	 height="16px" viewBox="0 0 16 16" style="enable-background:new 0 0 16 16;" xml:space="preserve">
<g id="_x31_-setting_-_wrench" style="enable-background:new    ;">
	<path d="M14.545,3.584L12.604,5.52L10.82,5.164l-0.355-1.775l1.941-1.936c-1.684-0.798-3.754-0.52-5.148,0.87
		C6.001,3.575,5.654,5.375,6.181,6.948l-4.624,4.608c-0.787,0.784-0.787,2.057,0,2.842c0.787,0.784,2.063,0.784,2.851,0l4.624-4.609
		c1.578,0.524,3.385,0.179,4.641-1.073C15.066,7.326,15.346,5.263,14.545,3.584z M12.959,8.006c-1.127,1.124-2.824,1.312-4.16,0.595
		l-5.105,5.087c-0.394,0.393-1.031,0.393-1.425,0c-0.394-0.393-0.394-1.028,0-1.421L7.374,7.18C6.654,5.848,6.842,4.158,7.971,3.033
		c0.678-0.676,1.564-1.016,2.455-1.025L9.752,2.679V5.52l0.713,0.71h2.852l0.672-0.671C13.979,6.445,13.639,7.329,12.959,8.006z"/>
</g>
<g id="Layer_1">
</g>
</svg>
