<?xml version="1.0" encoding="iso-8859-1"?>
<!-- Generator: Adobe Illustrator 16.0.0, SVG Export Plug-In . SVG Version: 6.00 Build 0)  -->
<!DOCTYPE svg PUBLIC "-//W3C//DTD SVG 1.1//EN" "http://www.w3.org/Graphics/SVG/1.1/DTD/svg11.dtd">
<svg version="1.1" xmlns="http://www.w3.org/2000/svg" xmlns:xlink="http://www.w3.org/1999/xlink" x="0px" y="0px" width="16px"
	 height="16px" viewBox="0 0 16 16" style="enable-background:new 0 0 16 16;" xml:space="preserve">
<g id="_x32_-setting_-_wrench" style="enable-background:new    ;">
	<path d="M11.643,3.971c0.025-0.008,0.049-0.013,0.07-0.023l0.045-0.015c0.027-0.016,0.045-0.041,0.068-0.061
		c0.014-0.012,0.027-0.022,0.039-0.035c0.031-0.034,0.055-0.071,0.074-0.111c0.01-0.019,0.02-0.035,0.025-0.054
		c0.016-0.042,0.023-0.085,0.027-0.13C11.992,3.527,12,3.515,12,3.5v-3c0-0.276-0.225-0.501-0.5-0.501S11,0.224,11,0.5v2.656
		L8.5,3.981L6,3.156V0.5c0-0.276-0.224-0.501-0.5-0.501S5,0.224,5,0.5v3c0,0.015,0.007,0.027,0.009,0.042
		C5.012,3.587,5.02,3.63,5.035,3.672C5.042,3.69,5.051,3.707,5.06,3.726c0.021,0.04,0.044,0.077,0.075,0.111
		C5.147,3.85,5.161,3.86,5.174,3.872c0.023,0.02,0.04,0.045,0.067,0.061l0.045,0.015c0.022,0.011,0.046,0.016,0.071,0.023L8,4.843
		v6.313l-2.643,0.872c-0.024,0.008-0.048,0.013-0.071,0.023l-0.045,0.015c-0.027,0.016-0.044,0.041-0.066,0.061
		c-0.014,0.012-0.027,0.022-0.04,0.036c-0.031,0.033-0.055,0.07-0.075,0.11c-0.009,0.019-0.019,0.035-0.026,0.055
		c-0.015,0.042-0.022,0.084-0.026,0.129C5.007,12.472,5,12.484,5,12.499V15.5C5,15.775,5.224,16,5.5,16S6,15.775,6,15.5v-2.657
		l2.5-0.825l2.5,0.825V15.5c0,0.275,0.225,0.5,0.5,0.5s0.5-0.225,0.5-0.5v-3.001c0-0.015-0.008-0.027-0.008-0.042
		c-0.004-0.045-0.012-0.087-0.027-0.129c-0.006-0.02-0.016-0.036-0.025-0.055c-0.02-0.04-0.043-0.077-0.074-0.11
		c-0.012-0.014-0.025-0.024-0.039-0.036c-0.023-0.02-0.041-0.045-0.068-0.061l-0.045-0.015c-0.021-0.011-0.045-0.016-0.07-0.023
		L9,11.156V4.843L11.643,3.971z"/>
</g>
<g id="Layer_1">
</g>
</svg>
