<?xml version="1.0" encoding="iso-8859-1"?>
<!-- Generator: Adobe Illustrator 16.0.0, SVG Export Plug-In . SVG Version: 6.00 Build 0)  -->
<!DOCTYPE svg PUBLIC "-//W3C//DTD SVG 1.1//EN" "http://www.w3.org/Graphics/SVG/1.1/DTD/svg11.dtd">
<svg version="1.1" xmlns="http://www.w3.org/2000/svg" xmlns:xlink="http://www.w3.org/1999/xlink" x="0px" y="0px" width="16px"
	 height="16px" viewBox="0 0 16 16" style="enable-background:new 0 0 16 16;" xml:space="preserve">
<g id="_x31_0-setting_-_component_performance_tech" style="enable-background:new    ;">
	<path d="M16,3.999v-1h-2v-1h-1v-2h-1v2h-2v-2H9v2H7v-2H6v2H4v-2H3v2H2v1H0v1h2v2H0v1h2v2H0v1h2v2H0v1h2v1h1v2h1v-2h2v2h1v-2h2v2h1
		v-2h2v2h1v-2h1v-1h2v-1h-2v-2h2v-1h-2v-2h2v-1h-2v-2H16z M13,3.999v2v1v2v1v2v1h-1h-2H9H7H6H4H3v-1v-2v-1v-2v-1v-2v-1h1h2h1h2h1h2
		h1V3.999z"/>
</g>
<g id="Layer_1">
</g>
</svg>
