<?xml version="1.0" encoding="iso-8859-1"?>
<!-- Generator: Adobe Illustrator 16.0.0, SVG Export Plug-In . SVG Version: 6.00 Build 0)  -->
<!DOCTYPE svg PUBLIC "-//W3C//DTD SVG 1.1//EN" "http://www.w3.org/Graphics/SVG/1.1/DTD/svg11.dtd">
<svg version="1.1" xmlns="http://www.w3.org/2000/svg" xmlns:xlink="http://www.w3.org/1999/xlink" x="0px" y="0px" width="16px"
	 height="16px" viewBox="0 0 16 16" style="enable-background:new 0 0 16 16;" xml:space="preserve">
<g id="_x34_-setting_-_gear" style="enable-background:new    ;">
	<path d="M16,7.998c0-1.05-0.813-1.901-1.842-1.983c-0.109-0.343-0.244-0.67-0.408-0.985c0.66-0.786,0.646-1.948-0.094-2.688
		c-0.738-0.739-1.9-0.754-2.686-0.094C10.654,2.085,10.326,1.95,9.984,1.84C9.9,0.811,9.051-0.001,8-0.001
		c-1.05,0-1.901,0.812-1.984,1.841C5.673,1.95,5.345,2.085,5.03,2.248c-0.786-0.66-1.948-0.646-2.687,0.094S1.589,4.243,2.249,5.029
		C2.086,5.345,1.952,5.672,1.841,6.015C0.812,6.097,0,6.948,0,7.998c0,1.051,0.812,1.901,1.841,1.984
		c0.111,0.343,0.245,0.671,0.409,0.986c-0.661,0.785-0.646,1.947,0.093,2.687c0.74,0.739,1.901,0.754,2.687,0.094
		c0.315,0.163,0.643,0.298,0.986,0.408C6.098,15.187,6.95,15.999,8,15.999c1.051,0,1.902-0.813,1.984-1.842
		c0.342-0.11,0.67-0.245,0.986-0.408c0.785,0.66,1.947,0.646,2.686-0.094c0.74-0.739,0.754-1.901,0.094-2.687
		c0.164-0.315,0.299-0.644,0.408-0.986C15.188,9.899,16,9.049,16,7.998z M13.408,8.999c-0.143,0.773-0.457,1.483-0.887,2.106
		l0.428,0.429c0.391,0.391,0.391,1.023,0,1.414s-1.023,0.391-1.414,0l-0.432-0.432C10.48,12.944,9.771,13.256,9,13.397v0.601
		c0,0.553-0.447,1.001-1,1.001s-1-0.448-1-1.001v-0.601c-0.772-0.142-1.481-0.453-2.104-0.881l-0.431,0.432
		c-0.391,0.391-1.024,0.391-1.414,0c-0.391-0.391-0.391-1.023,0-1.414l0.429-0.429c-0.431-0.623-0.744-1.333-0.887-2.106H2
		c-0.552,0-1-0.448-1-1.001c0-0.552,0.448-0.999,1-0.999h0.592c0.143-0.774,0.457-1.484,0.887-2.107L3.05,4.463
		c-0.391-0.391-0.391-1.023,0-1.414c0.39-0.391,1.023-0.391,1.414,0L4.896,3.48C5.519,3.053,6.228,2.741,7,2.6V1.999
		c0-0.553,0.448-1,1-1s1,0.447,1,1V2.6c0.772,0.142,1.481,0.454,2.104,0.881l0.432-0.432c0.391-0.391,1.023-0.391,1.414,0
		s0.391,1.023,0,1.414l-0.428,0.429c0.43,0.623,0.744,1.333,0.887,2.107H14c0.553,0,1,0.447,1,0.999c0,0.553-0.447,1.001-1,1.001
		H13.408z M8,4.999c-1.657,0-3,1.343-3,2.999c0,1.657,1.343,3.001,3,3.001c1.656,0,3-1.344,3-3.001C11,6.342,9.656,4.999,8,4.999z
		 M8,9.998c-1.104,0-2-0.895-2-2c0-1.104,0.896-1.999,2-1.999c1.104,0,2,0.896,2,1.999C10,9.104,9.104,9.998,8,9.998z"/>
</g>
<g id="Layer_1">
</g>
</svg>
