<?xml version="1.0" encoding="iso-8859-1"?>
<!-- Generator: Adobe Illustrator 16.0.0, SVG Export Plug-In . SVG Version: 6.00 Build 0)  -->
<!DOCTYPE svg PUBLIC "-//W3C//DTD SVG 1.1//EN" "http://www.w3.org/Graphics/SVG/1.1/DTD/svg11.dtd">
<svg version="1.1" xmlns="http://www.w3.org/2000/svg" xmlns:xlink="http://www.w3.org/1999/xlink" x="0px" y="0px" width="16px"
	 height="16px" viewBox="0 0 16 16" style="enable-background:new 0 0 16 16;" xml:space="preserve">
<g id="_x33_-setting_-_gear" style="enable-background:new    ;">
	<path d="M15.07,9.751l-2.104-1.215c0.02-0.178,0.041-0.354,0.041-0.538c0-0.182-0.021-0.358-0.041-0.535l2.105-1.215
		c0.479-0.276,0.584-0.988,0.236-1.591l-0.76-1.315c-0.348-0.603-1.018-0.867-1.496-0.591l-2.115,1.222
		c-0.287-0.209-0.59-0.398-0.918-0.543V1c0-0.553-0.564-1.001-1.26-1.001H7.241C6.545-0.001,5.981,0.447,5.981,1v2.43
		C5.652,3.574,5.35,3.764,5.062,3.973L2.947,2.751C2.469,2.476,1.799,2.739,1.451,3.342L0.692,4.657
		C0.344,5.26,0.45,5.972,0.928,6.248l2.104,1.215c-0.019,0.177-0.04,0.354-0.04,0.535c0,0.184,0.021,0.36,0.041,0.538L0.929,9.751
		c-0.478,0.276-0.584,0.988-0.236,1.591l0.759,1.315c0.348,0.603,1.018,0.866,1.496,0.591l2.117-1.223
		c0.287,0.209,0.589,0.397,0.917,0.542V15c0,0.552,0.563,1,1.259,1h1.519c0.696,0,1.26-0.448,1.26-1v-2.433
		c0.328-0.145,0.629-0.333,0.916-0.542l2.117,1.223c0.479,0.275,1.148,0.012,1.496-0.591l0.758-1.315
		C15.656,10.739,15.549,10.027,15.07,9.751z M14.184,11.288l-0.244,0.423c-0.205,0.355-0.564,0.532-0.805,0.394l-2.293-1.323
		c-0.504,0.512-1.137,0.896-1.854,1.08V14.5c0,0.275-0.333,0.5-0.744,0.5H7.756c-0.411,0-0.744-0.225-0.744-0.5v-2.639
		c-0.718-0.185-1.351-0.568-1.855-1.08l-2.292,1.323c-0.239,0.139-0.6-0.038-0.805-0.394l-0.244-0.423
		c-0.205-0.355-0.178-0.756,0.062-0.894l2.288-1.321c-0.097-0.343-0.161-0.7-0.161-1.074s0.064-0.73,0.161-1.073L1.876,5.604
		C1.637,5.467,1.61,5.066,1.815,4.711L2.06,4.288c0.205-0.355,0.565-0.532,0.805-0.394l2.292,1.323
		C5.66,4.706,6.293,4.32,7.012,4.137V1.499C7.012,1.224,7.345,1,7.756,1h0.488c0.411,0,0.744,0.224,0.744,0.499v2.638
		c0.719,0.184,1.352,0.569,1.856,1.081l2.291-1.323c0.24-0.139,0.6,0.038,0.807,0.394l0.242,0.423
		c0.207,0.355,0.18,0.756-0.061,0.894l-2.289,1.321c0.098,0.343,0.162,0.699,0.162,1.073s-0.064,0.731-0.162,1.074l2.289,1.321
		C14.361,10.532,14.389,10.933,14.184,11.288z M8,5.999c-1.107,0-2.004,0.896-2.004,2s0.897,2,2.004,2c1.107,0,2.004-0.896,2.004-2
		S9.107,5.999,8,5.999z M9,9H7V7h0.995C7.997,7,7.998,6.999,8,6.999C8.001,6.999,8.003,7,8.005,7H9V9z"/>
</g>
<g id="Layer_1">
</g>
</svg>
