<?xml version="1.0" encoding="iso-8859-1"?>
<!-- Generator: Adobe Illustrator 16.0.0, SVG Export Plug-In . SVG Version: 6.00 Build 0)  -->
<!DOCTYPE svg PUBLIC "-//W3C//DTD SVG 1.1//EN" "http://www.w3.org/Graphics/SVG/1.1/DTD/svg11.dtd">
<svg version="1.1" xmlns="http://www.w3.org/2000/svg" xmlns:xlink="http://www.w3.org/1999/xlink" x="0px" y="0px" width="16px"
	 height="16px" viewBox="0 0 16 16" style="enable-background:new 0 0 16 16;" xml:space="preserve">
<g id="_x31_2-setting_-_notification" style="enable-background:new    ;">
	<path d="M12.5,6.999c1.934,0,3.5-1.567,3.5-3.5c0-1.934-1.566-3.501-3.5-3.501S9,1.565,9,3.499C9,5.432,10.566,6.999,12.5,6.999z
		 M12.5,0.999c1.381,0,2.5,1.119,2.5,2.5c0,1.38-1.119,2.5-2.5,2.5s-2.5-1.12-2.5-2.5C10,2.118,11.119,0.999,12.5,0.999z M14,12.999
		c0,1.104-0.896,2-2,2H3c-1.104,0-2-0.896-2-2v-9c0-1.104,0.896-2,2-2h5v-1H3c-1.657,0-3,1.343-3,3v9c0,1.656,1.343,3,3,3h9
		c1.656,0,3-1.344,3-3v-5h-1V12.999z"/>
</g>
<g id="Layer_1">
</g>
</svg>
