<?xml version="1.0" encoding="iso-8859-1"?>
<!-- Generator: Adobe Illustrator 16.0.0, SVG Export Plug-In . SVG Version: 6.00 Build 0)  -->
<!DOCTYPE svg PUBLIC "-//W3C//DTD SVG 1.1//EN" "http://www.w3.org/Graphics/SVG/1.1/DTD/svg11.dtd">
<svg version="1.1" xmlns="http://www.w3.org/2000/svg" xmlns:xlink="http://www.w3.org/1999/xlink" x="0px" y="0px" width="16px"
	 height="16px" viewBox="0 0 16 16" style="enable-background:new 0 0 16 16;" xml:space="preserve">
<g id="_x35_-setting_-_gear" style="enable-background:new    ;">
	<path d="M8,5.498c-1.381,0-2.5,1.12-2.5,2.5c0,1.381,1.119,2.501,2.5,2.501s2.5-1.12,2.5-2.501C10.5,6.618,9.381,5.498,8,5.498z
		 M8,9.499c-0.829,0-1.5-0.672-1.5-1.501c0-0.828,0.671-1.5,1.5-1.5s1.5,0.672,1.5,1.5C9.5,8.827,8.829,9.499,8,9.499z M15,6.498
		l-1.279-0.213c-0.117-0.394-0.271-0.767-0.463-1.121l0.752-1.055c0.391-0.391,0.391-1.023,0-1.414l-0.707-0.707
		c-0.391-0.391-1.023-0.391-1.414,0l-1.055,0.753C10.48,2.55,10.105,2.395,9.713,2.277L9.5,0.999c0-0.553-0.447-1-1-1h-1
		c-0.552,0-1,0.447-1,1L6.287,2.277C5.894,2.395,5.52,2.55,5.165,2.741L4.111,1.988c-0.391-0.391-1.024-0.391-1.414,0L1.989,2.695
		c-0.39,0.391-0.39,1.023,0,1.414l0.753,1.055C2.551,5.519,2.396,5.892,2.278,6.285L1,6.498c-0.552,0-1,0.448-1,1.001v0.999
		c0,0.553,0.448,1.001,1,1.001l1.278,0.213c0.118,0.394,0.272,0.767,0.464,1.122l-0.753,1.054c-0.39,0.391-0.39,1.023,0,1.414
		l0.708,0.707c0.39,0.391,1.023,0.391,1.414,0l1.054-0.753c0.355,0.192,0.729,0.347,1.122,0.464L6.5,14.999c0,0.552,0.448,1,1,1h1
		c0.553,0,1-0.448,1-1l0.213-1.279c0.393-0.117,0.768-0.271,1.121-0.464l1.055,0.753c0.391,0.391,1.023,0.391,1.414,0l0.707-0.707
		c0.391-0.391,0.391-1.023,0-1.414l-0.752-1.054c0.191-0.355,0.346-0.729,0.463-1.122L15,9.499c0.553,0,1-0.448,1-1.001V7.499
		C16,6.946,15.553,6.498,15,6.498z M14.5,8.498L12.93,8.76c-0.125,0.81-0.443,1.553-0.906,2.184l0.926,1.298
		c0.195,0.195,0.195,0.512,0,0.707s-0.512,0.195-0.707,0l-1.299-0.928c-0.631,0.46-1.373,0.776-2.181,0.901L8.5,14.499
		c0,0.275-0.224,0.5-0.5,0.5c-0.276,0-0.5-0.225-0.5-0.5l-0.263-1.577c-0.808-0.125-1.55-0.441-2.18-0.901l-1.299,0.928
		c-0.195,0.195-0.512,0.195-0.707,0s-0.195-0.512,0-0.707l0.927-1.298C3.514,10.313,3.194,9.569,3.07,8.76L1.5,8.498
		c-0.276,0-0.5-0.224-0.5-0.5c0-0.275,0.224-0.499,0.5-0.499l1.57-0.262c0.125-0.81,0.444-1.553,0.907-2.184L3.05,3.756
		c-0.195-0.195-0.195-0.512,0-0.707s0.512-0.195,0.707,0l1.299,0.928c0.63-0.46,1.373-0.776,2.181-0.901L7.5,1.498
		c0-0.275,0.224-0.499,0.5-0.499c0.276,0,0.5,0.224,0.5,0.499l0.263,1.577c0.808,0.125,1.55,0.441,2.181,0.901l1.299-0.928
		c0.195-0.195,0.512-0.195,0.707,0s0.195,0.512,0,0.707l-0.928,1.298c0.465,0.631,0.783,1.374,0.908,2.184l1.57,0.262
		c0.275,0,0.5,0.224,0.5,0.499C15,8.274,14.775,8.498,14.5,8.498z"/>
</g>
<g id="Layer_1">
</g>
</svg>
