<?xml version="1.0" encoding="iso-8859-1"?>
<!-- Generator: Adobe Illustrator 16.0.0, SVG Export Plug-In . SVG Version: 6.00 Build 0)  -->
<!DOCTYPE svg PUBLIC "-//W3C//DTD SVG 1.1//EN" "http://www.w3.org/Graphics/SVG/1.1/DTD/svg11.dtd">
<svg version="1.1" xmlns="http://www.w3.org/2000/svg" xmlns:xlink="http://www.w3.org/1999/xlink" x="0px" y="0px" width="16px"
	 height="16px" viewBox="0 0 16 16" style="enable-background:new 0 0 16 16;" xml:space="preserve">
<g id="_x33_3-sport_-_champion_praise_reward_gold_winner" style="enable-background:new    ;">
	<path d="M13.998,1.011L9.98-0.005L8.642,3.862l0.506,1.709l1.566-4.368l2.008,0.508l-2.498,6.965C9.807,8.395,9.33,8.19,8.82,8.084
		L7.026,2.919l0.005-0.002L6.02-0.005L2.002,1.011l2.927,8.454C4.357,10.156,4,11.031,4,11.999c0,2.209,1.791,4,4,4s4-1.791,4-4
		c0-0.968-0.357-1.843-0.93-2.534L13.998,1.011z M3.277,1.711l2.009-0.508l2.447,6.822c-0.72,0.049-1.392,0.271-1.958,0.65
		L3.277,1.711z M8,14.999c-1.657,0-3-1.343-3-3s1.343-3,3-3c1.656,0,3,1.343,3,3S9.656,14.999,8,14.999z"/>
</g>
<g id="Layer_1">
</g>
</svg>
