<?xml version="1.0" encoding="iso-8859-1"?>
<!-- Generator: Adobe Illustrator 16.0.0, SVG Export Plug-In . SVG Version: 6.00 Build 0)  -->
<!DOCTYPE svg PUBLIC "-//W3C//DTD SVG 1.1//EN" "http://www.w3.org/Graphics/SVG/1.1/DTD/svg11.dtd">
<svg version="1.1" xmlns="http://www.w3.org/2000/svg" xmlns:xlink="http://www.w3.org/1999/xlink" x="0px" y="0px" width="16px"
	 height="16px" viewBox="0 0 16 16" style="enable-background:new 0 0 16 16;" xml:space="preserve">
<g id="_x32_0-sport_-_champion_praise_reward_gold_winner" style="enable-background:new    ;">
	<path d="M10.715,1.203l2.008,0.508l-2.158,6.017c0.316,0.19,0.613,0.407,0.879,0.66l2.555-7.377L9.98-0.005L8.642,3.862
		l0.506,1.709L10.715,1.203z M5.435,7.728L3.277,1.711l2.009-0.508l2.101,5.857C7.59,7.035,7.79,6.999,8,6.999
		s0.468,0.007,0.468,0.007L6.02-0.005L2.002,1.011l2.554,7.377C4.822,8.135,5.119,7.918,5.435,7.728z M8,7.999c-2.209,0-4,1.791-4,4
		s1.791,4,4,4s4-1.791,4-4S10.209,7.999,8,7.999z M8,14.999c-1.657,0-3-1.343-3-3s1.343-3,3-3c1.656,0,3,1.343,3,3
		S9.656,14.999,8,14.999z"/>
</g>
<g id="Layer_1">
</g>
</svg>
