<?xml version="1.0" encoding="iso-8859-1"?>
<!-- Generator: Adobe Illustrator 16.0.0, SVG Export Plug-In . SVG Version: 6.00 Build 0)  -->
<!DOCTYPE svg PUBLIC "-//W3C//DTD SVG 1.1//EN" "http://www.w3.org/Graphics/SVG/1.1/DTD/svg11.dtd">
<svg version="1.1" xmlns="http://www.w3.org/2000/svg" xmlns:xlink="http://www.w3.org/1999/xlink" x="0px" y="0px" width="16px"
	 height="16px" viewBox="0 0 16 16" style="enable-background:new 0 0 16 16;" xml:space="preserve">
<g id="_x31_3-sport_-_trophy_reward_winner_cup" style="enable-background:new    ;">
	<path d="M15,1.999h-2v-2H4v2H2c-0.552,0-1,0.447-1,0.999l1,4c0,0.553,0.448,1.001,1,1.001h1.275C4.841,9.59,6.267,10.755,8,10.949
		v4.05H6v1h5v-1H9v-4.05c1.735-0.194,3.161-1.358,3.725-2.95H14c0.553,0,1-0.448,1-1.001l1-4C16,2.446,15.553,1.999,15,1.999z
		 M3.5,6.998C3.224,6.998,3,6.775,3,6.499l-1-3c0-0.276,0.224-0.501,0.5-0.501H4v1.001V6.5c0,0.171,0.032,0.333,0.05,0.498H3.5z
		 M12,4.499V6.5c0,1.933-1.566,3.5-3.5,3.5C6.567,10,5,8.433,5,6.5V4.999v-4h7V4.499z M14,6.499c0,0.276-0.225,0.499-0.5,0.499
		h-0.551C12.969,6.833,13,6.671,13,6.5V3.999V2.998h1.5c0.275,0,0.5,0.225,0.5,0.501L14,6.499z"/>
</g>
<g id="Layer_1">
</g>
</svg>
