<?xml version="1.0" encoding="iso-8859-1"?>
<!-- Generator: Adobe Illustrator 16.0.0, SVG Export Plug-In . SVG Version: 6.00 Build 0)  -->
<!DOCTYPE svg PUBLIC "-//W3C//DTD SVG 1.1//EN" "http://www.w3.org/Graphics/SVG/1.1/DTD/svg11.dtd">
<svg version="1.1" xmlns="http://www.w3.org/2000/svg" xmlns:xlink="http://www.w3.org/1999/xlink" x="0px" y="0px" width="16px"
	 height="16px" viewBox="0 0 16 16" style="enable-background:new 0 0 16 16;" xml:space="preserve">
<g id="_x34_-sport_-_baseball" style="enable-background:new    ;">
	<path d="M4.156,5.698c0.526,0.37,1.11,0.662,1.727,0.881l0.265-0.996C5.703,5.419,5.276,5.218,4.887,4.96L4.156,5.698z
		 M6.633,9.649l0.258,0.965C7.251,10.546,7.62,10.499,8,10.499c0.382,0,0.751,0.048,1.113,0.116L9.369,9.65
		C8.924,9.561,8.47,9.499,8,9.499S7.077,9.561,6.633,9.649z M3.988,10.768l0.716,0.72c0.382-0.251,0.8-0.447,1.235-0.607L5.68,9.908
		C5.075,10.122,4.503,10.406,3.988,10.768z M10.357,5.582l0.262,0.996c0.617-0.219,1.199-0.51,1.725-0.88l-0.73-0.737
		C11.225,5.218,10.799,5.418,10.357,5.582z M8.25,5.974c-0.388,0-0.763-0.048-1.131-0.118L6.855,6.845
		C7.308,6.936,7.771,6.999,8.25,6.999c0.48,0,0.944-0.063,1.397-0.155L9.385,5.854C9.016,5.925,8.64,5.974,8.25,5.974z
		 M14.477,3.316c0.008-0.016-0.154-0.232-0.244-0.328C12.766,1.167,10.52-0.001,8-0.001c-4.418,0-8,3.581-8,8c0,4.418,3.582,8,8,8
		c4.418,0,8-3.582,8-8C16,6.248,15.432,4.634,14.477,3.316z M13.539,12.234c-0.227-0.294-0.473-0.57-0.742-0.824l-0.707,0.708
		c0.291,0.271,0.547,0.575,0.777,0.898c-1.26,1.223-2.973,1.982-4.867,1.982s-3.607-0.76-4.867-1.982
		c0.23-0.323,0.486-0.628,0.776-0.898L3.204,11.41c-0.27,0.254-0.517,0.53-0.743,0.824C1.558,11.056,1,9.599,1,7.999
		c0-1.554,0.523-2.976,1.379-4.137C2.668,4.286,2.985,4.689,3.356,5.04l0.72-0.726c-0.397-0.373-0.721-0.813-1.007-1.28
		C4.333,1.777,6.075,0.999,8,0.999c2.088,0,3.941,0.933,5.223,2.382c-0.236,0.337-0.5,0.652-0.799,0.934l0.721,0.727
		c0.266-0.252,0.512-0.526,0.736-0.816C14.582,5.315,15,6.605,15,7.999C15,9.599,14.441,11.056,13.539,12.234z M10.064,10.882
		c0.434,0.16,0.852,0.355,1.23,0.605l0.717-0.72c-0.516-0.361-1.086-0.645-1.689-0.858L10.064,10.882z"/>
</g>
<g id="Layer_1">
</g>
</svg>
