<?xml version="1.0" encoding="iso-8859-1"?>
<!-- Generator: Adobe Illustrator 16.0.0, SVG Export Plug-In . SVG Version: 6.00 Build 0)  -->
<!DOCTYPE svg PUBLIC "-//W3C//DTD SVG 1.1//EN" "http://www.w3.org/Graphics/SVG/1.1/DTD/svg11.dtd">
<svg version="1.1" xmlns="http://www.w3.org/2000/svg" xmlns:xlink="http://www.w3.org/1999/xlink" x="0px" y="0px" width="16px"
	 height="16px" viewBox="0 0 16 16" style="enable-background:new 0 0 16 16;" xml:space="preserve">
<g id="_x31_2-sport_-_timer_time_schedule" style="enable-background:new    ;">
	<path d="M8-0.002c-4.418,0-8,3.583-8,8.001s3.582,8,8,8c4.418,0,8-3.582,8-8S12.418-0.002,8-0.002z M8,14.999c-3.866,0-7-3.134-7-7
		s3.134-7,7-7c3.865,0,7,3.134,7,7S11.865,14.999,8,14.999z M6.268,7.081C5.716,8.011,6.043,9.199,7,9.736
		c0.957,0.536,2.18,0.218,2.732-0.712S11,3.003,11,3.003S6.82,6.151,6.268,7.081z M7.134,7.566C7.652,6.695,10.25,4.266,10,4.687
		c0,0-0.617,2.98-1.134,3.853C8.616,8.96,8.337,9.364,7.5,8.895C6.634,8.408,6.884,7.988,7.134,7.566z"/>
</g>
<g id="Layer_1">
</g>
</svg>
