<?xml version="1.0" encoding="iso-8859-1"?>
<!-- Generator: Adobe Illustrator 16.0.0, SVG Export Plug-In . SVG Version: 6.00 Build 0)  -->
<!DOCTYPE svg PUBLIC "-//W3C//DTD SVG 1.1//EN" "http://www.w3.org/Graphics/SVG/1.1/DTD/svg11.dtd">
<svg version="1.1" xmlns="http://www.w3.org/2000/svg" xmlns:xlink="http://www.w3.org/1999/xlink" x="0px" y="0px" width="16px"
	 height="16px" viewBox="0 0 16 16" style="enable-background:new 0 0 16 16;" xml:space="preserve">
<g id="_x32_7-medicine_-_lab" style="enable-background:new    ;">
	<g>
		<path d="M9.754,2.068c0.57,0.143,1.158-0.179,1.313-0.72c0.154-0.54-0.184-1.095-0.752-1.237C9.744-0.032,9.156,0.29,9.002,0.83
			C8.847,1.371,9.184,1.925,9.754,2.068z"/>
		<path d="M13.604,4.083L7.41,2.528c-0.285-0.071-0.579,0.09-0.656,0.359C6.677,3.158,6.845,3.436,7.13,3.507l0.516,0.13
			l-1.12,3.914c0,0-3.486,3.051-5.026,4.644c-0.729,0.754-0.729,0.754,0.413,1.04c2.491,0.625,8.379,2.104,10.733,2.694
			c0.461,0.115,0.996,0.25,0.742-0.854c-0.496-2.149-1.701-6.228-1.701-6.228l1.119-3.915l-1.031-0.259l-1.119,3.915
			c0,0,0.227,0.737,0.51,1.7L6.142,9.027C6.935,8.336,7.559,7.81,7.559,7.81l1.119-3.914l1.548,0.389l0.082,0.021l1.467,0.368
			l1.031,0.259v0l0.516,0.129c0.285,0.071,0.58-0.09,0.656-0.359C14.057,4.432,13.887,4.154,13.604,4.083z M11.49,11.419
			c0.242,0.861,0.48,1.758,0.629,2.437c0.205,0.943-0.242,0.832-0.625,0.735c-1.961-0.492-5.836-1.465-7.912-1.986
			c-0.952-0.239-0.952-0.239-0.338-0.888C3.74,11.191,4.486,10.5,5.222,9.842L11.49,11.419z"/>
		<path d="M14.205,0.039c-0.568-0.143-1.156,0.179-1.311,0.72c-0.154,0.54,0.182,1.095,0.752,1.237
			c0.57,0.144,1.156-0.179,1.313-0.719C15.113,0.736,14.775,0.183,14.205,0.039z"/>
	</g>
</g>
<g id="Layer_1">
</g>
</svg>
