<?xml version="1.0" encoding="iso-8859-1"?>
<!-- Generator: Adobe Illustrator 16.0.0, SVG Export Plug-In . SVG Version: 6.00 Build 0)  -->
<!DOCTYPE svg PUBLIC "-//W3C//DTD SVG 1.1//EN" "http://www.w3.org/Graphics/SVG/1.1/DTD/svg11.dtd">
<svg version="1.1" xmlns="http://www.w3.org/2000/svg" xmlns:xlink="http://www.w3.org/1999/xlink" x="0px" y="0px" width="16px"
	 height="16px" viewBox="0 0 16 16" style="enable-background:new 0 0 16 16;" xml:space="preserve">
<g id="_x37_-sport_-_bottle_water_container" style="enable-background:new    ;">
	<path d="M6.5,0.999h3c0.275,0,0.5-0.225,0.5-0.501c0-0.275-0.225-0.499-0.5-0.499h-3C6.224-0.001,6,0.223,6,0.498
		C6,0.774,6.224,0.999,6.5,0.999z M11,4.776V4.222c0-1.228-0.895-2.223-2-2.223H7c-1.104,0-2,0.995-2,2.223v0.555
		c0,0.82,0.405,1.529,1,1.914V9.26c-0.595,0.326-1,0.927-1,1.621v3.235c0,1.04,0.896,1.883,2,1.883h2c1.106,0,2-0.843,2-1.883
		v-3.235c0-0.694-0.404-1.295-1-1.621V6.69C10.596,6.306,11,5.597,11,4.776z M10,14.076c0,0.51-0.447,0.923-1,0.923H7
		c-0.552,0-1-0.413-1-0.923v-3.154c0-0.51,0.448-0.923,1-0.923h2c0.553,0,1,0.413,1,0.923V14.076z M7,8.998v-2h2v2H7z M9.063,5.999
		H6.938C6.416,5.958,6,5.444,6,4.802V4.196c0-0.67,0.448-1.213,1-1.213h2c0.553,0,1,0.543,1,1.213v0.605
		C10,5.444,9.584,5.958,9.063,5.999z"/>
</g>
<g id="Layer_1">
</g>
</svg>
