<?xml version="1.0" encoding="iso-8859-1"?>
<!-- Generator: Adobe Illustrator 16.0.0, SVG Export Plug-In . SVG Version: 6.00 Build 0)  -->
<!DOCTYPE svg PUBLIC "-//W3C//DTD SVG 1.1//EN" "http://www.w3.org/Graphics/SVG/1.1/DTD/svg11.dtd">
<svg version="1.1" xmlns="http://www.w3.org/2000/svg" xmlns:xlink="http://www.w3.org/1999/xlink" x="0px" y="0px" width="16px"
	 height="16px" viewBox="0 0 16 16" style="enable-background:new 0 0 16 16;" xml:space="preserve">
<g id="_x32_6-sport_-_stadium_game" style="enable-background:new    ;">
	<path d="M14-0.001H4c-1.657,0-3,1.343-3,3v10c0,1.656,1.343,3,3,3h9c1.656,0,3-1.344,3-3v-10C16,1.342,15.656-0.001,14-0.001z
		 M2,5.018c1.509-0.214,3.488-0.898,3.488,2.981S3.509,11.195,2,10.98V5.018z M8,14.999H4c-1.104,0-2-0.896-2-2v-1.071
		c1.997,0.109,4.5,0.52,4.5-3.929S3.997,3.962,2,4.071V2.999c0-1.104,0.896-2,2-2h4V14.999z M15,10.98
		c-1.51,0.215-3.488,0.898-3.488-2.981S13.49,4.804,15,5.018V10.98z M15,2.999v1.072c-1.996-0.109-4.5-0.521-4.5,3.928
		s2.504,4.038,4.5,3.929v1.071c0,1.104-0.895,2-2,2H9v-14h5C15.104,0.999,15,1.895,15,2.999z"/>
</g>
<g id="Layer_1">
</g>
</svg>
