<?xml version="1.0" encoding="iso-8859-1"?>
<!-- Generator: Adobe Illustrator 16.0.0, SVG Export Plug-In . SVG Version: 6.00 Build 0)  -->
<!DOCTYPE svg PUBLIC "-//W3C//DTD SVG 1.1//EN" "http://www.w3.org/Graphics/SVG/1.1/DTD/svg11.dtd">
<svg version="1.1" xmlns="http://www.w3.org/2000/svg" xmlns:xlink="http://www.w3.org/1999/xlink" x="0px" y="0px" width="16px"
	 height="16px" viewBox="0 0 16 16" style="enable-background:new 0 0 16 16;" xml:space="preserve">
<g id="_x31_6-sport_-_reward_badge" style="enable-background:new    ;">
	<path d="M12.301,6.529l0.729-6.53H4.003L4.73,6.523c-1.055,1.002-1.72,2.408-1.72,3.978c0,3.035,2.463,5.497,5.502,5.497
		c3.039,0,5.501-2.462,5.501-5.497C14.014,8.936,13.352,7.53,12.301,6.529z M9.99,0.999h2.035l-0.688,4.807
		C10.92,5.554,10.467,5.353,9.99,5.215V0.999z M8.013,0.999h0.974v4.038C8.83,5.023,8.673,5.003,8.512,5.003
		c-0.17,0-0.334,0.021-0.499,0.036V0.999z M7.01,0.999v4.223c-0.466,0.138-0.907,0.335-1.316,0.58L5.006,0.999H7.01z M8.512,14.993
		c-2.479,0-4.498-2.016-4.498-4.492c0-2.478,2.018-4.494,4.498-4.494c2.48,0,4.498,2.017,4.498,4.494
		C13.01,12.978,10.992,14.993,8.512,14.993z"/>
</g>
<g id="Layer_1">
</g>
</svg>
