<?xml version="1.0" encoding="iso-8859-1"?>
<!-- Generator: Adobe Illustrator 16.0.0, SVG Export Plug-In . SVG Version: 6.00 Build 0)  -->
<!DOCTYPE svg PUBLIC "-//W3C//DTD SVG 1.1//EN" "http://www.w3.org/Graphics/SVG/1.1/DTD/svg11.dtd">
<svg version="1.1" xmlns="http://www.w3.org/2000/svg" xmlns:xlink="http://www.w3.org/1999/xlink" x="0px" y="0px" width="16px"
	 height="16px" viewBox="0 0 16 16" style="enable-background:new 0 0 16 16;" xml:space="preserve">
<g id="_x38_-sport_-_cards" style="enable-background:new    ;">
	<path d="M10.5,1.999h-7c-0.829,0-1.5,0.671-1.5,1.5v11c0,0.828,0.671,1.5,1.5,1.5h7c0.828,0,1.5-0.672,1.5-1.5v-11
		C12,2.67,11.328,1.999,10.5,1.999z M11,14.499c0,0.276-0.225,0.5-0.5,0.5h-7c-0.276,0-0.5-0.224-0.5-0.5v-11
		c0-0.276,0.224-0.5,0.5-0.5h7c0.275,0,0.5,0.224,0.5,0.5V14.499z M13.5-0.001h-7c-0.651,0-1.192,0.42-1.399,1H6.5H13h0.5
		c0.275,0,0.5,0.224,0.5,0.5v11c0,0.276-0.225,0.5-0.5,0.5H13v1h0.5c0.828,0,1.5-0.672,1.5-1.5v-11
		C15,0.671,14.328-0.001,13.5-0.001z"/>
</g>
<g id="Layer_1">
</g>
</svg>
