<?xml version="1.0" encoding="iso-8859-1"?>
<!-- Generator: Adobe Illustrator 16.0.0, SVG Export Plug-In . SVG Version: 6.00 Build 0)  -->
<!DOCTYPE svg PUBLIC "-//W3C//DTD SVG 1.1//EN" "http://www.w3.org/Graphics/SVG/1.1/DTD/svg11.dtd">
<svg version="1.1" xmlns="http://www.w3.org/2000/svg" xmlns:xlink="http://www.w3.org/1999/xlink" x="0px" y="0px" width="16px"
	 height="16px" viewBox="0 0 16 16" style="enable-background:new 0 0 16 16;" xml:space="preserve">
<g id="_x33_-sport_-_basketball" style="enable-background:new    ;">
	<path d="M16,7.998c0-0.318-0.023-0.631-0.061-0.939c-0.008-0.001-0.018-0.001-0.027-0.002c-0.195-1.651-0.908-3.132-1.945-4.318
		l-0.703-0.709C12.082,0.977,10.6,0.254,8.94,0.06c0-0.001,0-0.001,0-0.001c-0.001,0-0.003,0-0.004,0
		C8.635,0.023,8.331,0.001,8.02,0C8.013,0,8.006-0.001,8-0.001c-0.027,0-0.052,0.003-0.079,0.004
		C5.923,0.022,4.106,0.78,2.715,2.008L2.71,2.004L2.618,2.097C2.435,2.264,2.26,2.438,2.093,2.622L2.005,2.71l0.004,0.004
		C0.781,4.105,0.023,5.922,0.004,7.92C0.003,7.946,0,7.973,0,7.999C0,8,0,8,0,8.001c0,0.317,0.024,0.63,0.06,0.938
		c0.194,1.66,0.917,3.143,1.97,4.325l0.709,0.702c1.187,1.037,2.668,1.749,4.319,1.945c0.001,0.009,0,0.019,0.002,0.028
		c0.309,0.035,0.621,0.06,0.94,0.06c2.029,0,3.877-0.762,5.287-2.008l0.002,0.003l0.047-0.047c0.217-0.194,0.42-0.398,0.613-0.614
		l0.045-0.045l-0.002-0.002C15.238,11.876,16,10.028,16,7.998C16,7.998,16,7.998,16,7.998z M14.908,7.003
		c-1.994,0.023-3.805,0.78-5.193,2.006l-1.009-1.01l4.552-4.552C14.113,4.432,14.713,5.646,14.908,7.003z M8.995,1.1
		c1.357,0.194,2.57,0.791,3.556,1.643L8,7.294L6.99,6.283C8.213,4.897,8.97,3.089,8.995,1.1z M8,0.999
		c0,1.753-0.667,3.335-1.731,4.563L3.437,2.73C4.665,1.666,6.247,0.999,8,0.999z M2.731,3.436l2.832,2.832
		C4.335,7.332,2.752,7.999,1,7.999C1,6.246,1.667,4.664,2.731,3.436z M1.1,8.994c1.99-0.025,3.798-0.781,5.185-2.005l1.01,1.01
		L2.743,12.55C1.892,11.564,1.295,10.351,1.1,8.994z M7.004,14.907c-1.357-0.196-2.571-0.795-3.557-1.65L8,8.704l1.01,1.01
		C7.784,11.103,7.027,12.914,7.004,14.907z M8,14.999c0-1.753,0.667-3.335,1.73-4.563l2.832,2.832
		C11.336,14.332,9.752,14.999,8,14.999z M13.268,12.563l-2.83-2.832C11.664,8.666,13.248,7.999,15,7.999
		C15,9.752,14.334,11.334,13.268,12.563z"/>
</g>
<g id="Layer_1">
</g>
</svg>
