<?xml version="1.0" encoding="iso-8859-1"?>
<!-- Generator: Adobe Illustrator 16.0.0, SVG Export Plug-In . SVG Version: 6.00 Build 0)  -->
<!DOCTYPE svg PUBLIC "-//W3C//DTD SVG 1.1//EN" "http://www.w3.org/Graphics/SVG/1.1/DTD/svg11.dtd">
<svg version="1.1" xmlns="http://www.w3.org/2000/svg" xmlns:xlink="http://www.w3.org/1999/xlink" x="0px" y="0px" width="16px"
	 height="16px" viewBox="0 0 16 16" style="enable-background:new 0 0 16 16;" xml:space="preserve">
<g id="_x32_5-sport_-_stadium_game" style="enable-background:new    ;">
	<path d="M14,1.999H4c-1.657,0-3,1.344-3,3v6c0,1.657,1.343,3,3,3h9c1.656,0,3-1.343,3-3v-6C16,3.343,15.656,1.999,14,1.999z
		 M2,6.01c1.415-0.249,2.999-1.085,2.988,1.989S3.41,10.238,2,9.989V6.01z M8,12.999H4c-1.104,0-2-0.896-2-2v-0.067
		c1.928,0.139,4,0.751,4-2.933S3.928,4.928,2,5.066V4.999c0-1.104,0.896-2,2-2h4V12.999z M15,9.948
		c-1.41,0.244-2.977,1.062-2.988-1.949C12.002,4.987,13.586,5.807,15,6.05V9.948z M15,4.999v0.127c-1.928-0.136-4-0.735-4,2.873
		s2.072,3.009,4,2.873v0.127c0,1.104-0.895,2-2,2H9v-10h5C15.105,2.999,15,3.895,15,4.999z"/>
</g>
<g id="Layer_1">
</g>
</svg>
