<?xml version="1.0" encoding="iso-8859-1"?>
<!-- Generator: Adobe Illustrator 16.0.0, SVG Export Plug-In . SVG Version: 6.00 Build 0)  -->
<!DOCTYPE svg PUBLIC "-//W3C//DTD SVG 1.1//EN" "http://www.w3.org/Graphics/SVG/1.1/DTD/svg11.dtd">
<svg version="1.1" xmlns="http://www.w3.org/2000/svg" xmlns:xlink="http://www.w3.org/1999/xlink" x="0px" y="0px" width="16px"
	 height="16px" viewBox="0 0 16 16" style="enable-background:new 0 0 16 16;" xml:space="preserve">
<g id="_x31_-sport_-_tennisball" style="enable-background:new    ;">
	<path d="M12,1.071C8.173-1.138,3.281,0.173,1.072,3.999S0.174,12.718,4,14.928c3.827,2.209,8.719,0.897,10.928-2.929
		S15.826,3.28,12,1.071z M7.228,1.063C8.662,0.902,10.154,1.16,11.5,1.937c1.346,0.777,2.316,1.941,2.893,3.264
		c-1.773,1.651-3.482,2.129-5.375,1.037C7.126,5.145,6.684,3.425,7.228,1.063z M8.773,14.935c-1.434,0.162-2.927-0.097-4.273-0.873
		c-1.346-0.777-2.315-1.941-2.893-3.264C3.38,9.146,5.091,8.669,6.982,9.762C8.875,10.854,9.316,12.574,8.773,14.935z
		 M14.063,11.499c-0.988,1.712-2.594,2.839-4.371,3.282c0.506-2.657-0.051-4.681-2.191-5.916C5.36,7.63,3.33,8.159,1.281,9.926
		C0.776,8.164,0.949,6.211,1.938,4.499c0.988-1.712,2.593-2.838,4.371-3.281C5.804,3.874,6.36,5.897,8.5,7.133
		s4.169,0.706,6.218-1.061C15.225,7.834,15.051,9.787,14.063,11.499z"/>
</g>
<g id="Layer_1">
</g>
</svg>
