<?xml version="1.0" encoding="iso-8859-1"?>
<!-- Generator: Adobe Illustrator 16.0.0, SVG Export Plug-In . SVG Version: 6.00 Build 0)  -->
<!DOCTYPE svg PUBLIC "-//W3C//DTD SVG 1.1//EN" "http://www.w3.org/Graphics/SVG/1.1/DTD/svg11.dtd">
<svg version="1.1" xmlns="http://www.w3.org/2000/svg" xmlns:xlink="http://www.w3.org/1999/xlink" x="0px" y="0px" width="16px"
	 height="16px" viewBox="0 0 16 16" style="enable-background:new 0 0 16 16;" xml:space="preserve">
<g id="_x31_9-sport_-_champion_praise_reward_gold_winner" style="enable-background:new    ;">
	<path d="M13.998,1.011L9.98-0.005L8.642,3.862l0.506,1.709l1.566-4.368l2.008,0.508l-1.863,5.195
		c-0.766-0.536-1.688-0.854-2.684-0.89L8,5.716L6.02-0.005L2.002,1.011l2.301,6.647C3.501,8.545,3,9.709,3,10.999
		c0,2.762,2.238,5,5,5s5-2.238,5-5c0-1.29-0.502-2.454-1.303-3.341L13.998,1.011z M3.277,1.711l2.009-0.508l1.755,4.893
		c-0.697,0.136-1.339,0.417-1.9,0.811L3.277,1.711z M12,10.999c0,2.209-1.791,4-4,4s-4-1.791-4-4s1.791-4,4-4S12,8.79,12,10.999z
		 M6.5,8.999v1h1v3h1v-3v-1h-1H6.5z"/>
</g>
<g id="Layer_1">
</g>
</svg>
