<?xml version="1.0" encoding="iso-8859-1"?>
<!-- Generator: Adobe Illustrator 16.0.0, SVG Export Plug-In . SVG Version: 6.00 Build 0)  -->
<!DOCTYPE svg PUBLIC "-//W3C//DTD SVG 1.1//EN" "http://www.w3.org/Graphics/SVG/1.1/DTD/svg11.dtd">
<svg version="1.1" xmlns="http://www.w3.org/2000/svg" xmlns:xlink="http://www.w3.org/1999/xlink" x="0px" y="0px" width="16px"
	 height="16px" viewBox="0 0 16 16" style="enable-background:new 0 0 16 16;" xml:space="preserve">
<g id="_x32_3-fitness_-_dumbell" style="enable-background:new    ;">
	<path d="M10.5,7.999h-5c-0.276,0-0.5,0.224-0.5,0.5c0,0.275,0.224,0.5,0.5,0.5h5c0.275,0,0.5-0.225,0.5-0.5
		C11,8.223,10.775,7.999,10.5,7.999z M4.5,4.999c-0.276,0-0.5,0.224-0.5,0.5v6c0,0.276,0.224,0.5,0.5,0.5c0.276,0,0.5-0.224,0.5-0.5
		v-3v-3C5,5.223,4.776,4.999,4.5,4.999z M0.5,6.999c-0.276,0-0.5,0.224-0.5,0.5v2c0,0.276,0.224,0.5,0.5,0.5
		c0.276,0,0.5-0.224,0.5-0.5v-2C1,7.223,0.776,6.999,0.5,6.999z M2.5,5.999c-0.276,0-0.5,0.224-0.5,0.5v4c0,0.275,0.224,0.5,0.5,0.5
		c0.276,0,0.5-0.225,0.5-0.5v-4C3,6.223,2.776,5.999,2.5,5.999z M15.5,6.999c-0.275,0-0.5,0.224-0.5,0.5v2
		c0,0.276,0.225,0.5,0.5,0.5s0.5-0.224,0.5-0.5v-2C16,7.223,15.775,6.999,15.5,6.999z M13.5,5.999c-0.275,0-0.5,0.224-0.5,0.5v4
		c0,0.275,0.225,0.5,0.5,0.5s0.5-0.225,0.5-0.5v-4C14,6.223,13.775,5.999,13.5,5.999z M11.5,4.999c-0.275,0-0.5,0.224-0.5,0.5v3v3
		c0,0.276,0.225,0.5,0.5,0.5s0.5-0.224,0.5-0.5v-6C12,5.223,11.775,4.999,11.5,4.999z"/>
</g>
<g id="Layer_1">
</g>
</svg>
