<?xml version="1.0" encoding="iso-8859-1"?>
<!-- Generator: Adobe Illustrator 16.0.0, SVG Export Plug-In . SVG Version: 6.00 Build 0)  -->
<!DOCTYPE svg PUBLIC "-//W3C//DTD SVG 1.1//EN" "http://www.w3.org/Graphics/SVG/1.1/DTD/svg11.dtd">
<svg version="1.1" xmlns="http://www.w3.org/2000/svg" xmlns:xlink="http://www.w3.org/1999/xlink" x="0px" y="0px" width="16px"
	 height="16px" viewBox="0 0 16 16" style="enable-background:new 0 0 16 16;" xml:space="preserve">
<g id="_x31_8-sport_-_reward_badge" style="enable-background:new    ;">
	<path d="M8,2C5.799,2,4.016,3.791,4.016,6S5.799,10,8,10c2.201,0,3.984-1.791,3.984-4S10.201,2,8,2z M8,9
		C6.35,9,5.012,7.656,5.012,6C5.012,4.343,6.35,3,8,3s2.988,1.343,2.988,3C10.988,7.656,9.65,9,8,9z M15.924,13.123l-2.502-4.645
		c0.344-0.758,0.547-1.593,0.547-2.48c0-3.312-2.674-5.996-5.973-5.996c-3.299,0-5.974,2.685-5.974,5.996
		c0,0.903,0.213,1.752,0.57,2.521l-2.514,4.603c-0.094,0.172-0.079,0.385,0.04,0.542c0.118,0.156,0.318,0.23,0.509,0.186l2.5-0.576
		l0.855,2.393c0.066,0.187,0.236,0.315,0.432,0.33c0.012,0,0.024,0.001,0.037,0.001c0.183,0,0.352-0.1,0.439-0.263l2.055-3.845
		c0.342,0.062,0.691,0.106,1.051,0.106c0.348,0,0.685-0.045,1.016-0.103l2.1,3.844c0.09,0.161,0.256,0.26,0.438,0.26
		c0.014,0,0.025-0.001,0.039-0.001c0.195-0.016,0.363-0.145,0.43-0.33l0.855-2.393l2.5,0.576c0.191,0.046,0.391-0.028,0.508-0.185
		C16,13.508,16.016,13.296,15.924,13.123z M4.541,14.27l-0.626-1.752c-0.085-0.238-0.334-0.377-0.58-0.318l-1.849,0.426L3.181,9.52
		c0.693,0.954,1.656,1.685,2.78,2.095L4.541,14.27z M8.004,10.993c-2.748,0-4.984-2.241-4.984-4.995s2.236-4.995,4.984-4.995
		c2.748,0,4.984,2.241,4.984,4.995S10.752,10.993,8.004,10.993z M12.666,12.199c-0.248-0.059-0.496,0.08-0.58,0.318l-0.631,1.765
		l-1.453-2.658c1.148-0.413,2.131-1.156,2.832-2.133l1.689,3.136L12.666,12.199z"/>
</g>
<g id="Layer_1">
</g>
</svg>
