<?xml version="1.0" encoding="iso-8859-1"?>
<!-- Generator: Adobe Illustrator 16.0.0, SVG Export Plug-In . SVG Version: 6.00 Build 0)  -->
<!DOCTYPE svg PUBLIC "-//W3C//DTD SVG 1.1//EN" "http://www.w3.org/Graphics/SVG/1.1/DTD/svg11.dtd">
<svg version="1.1" xmlns="http://www.w3.org/2000/svg" xmlns:xlink="http://www.w3.org/1999/xlink" x="0px" y="0px" width="16px"
	 height="16px" viewBox="0 0 16 16" style="enable-background:new 0 0 16 16;" xml:space="preserve">
<g id="_x36_-sport_-_mic_speaker" style="enable-background:new    ;">
	<path d="M10.883,12.999c1.17,0,2.117-0.896,2.117-2v-9c0-1.104-0.947-2-2.117-2H6.118C4.948-0.001,4,0.895,4,1.999v9
		c0,1.104,0.948,2,2.118,2h1.588v2H4.529c-0.292,0-0.529,0.224-0.529,0.5s0.237,0.5,0.529,0.5h7.412c0.293,0,0.529-0.224,0.529-0.5
		s-0.236-0.5-0.529-0.5H8.764v-2H10.883z M6.118,11.999c-0.585,0-1.059-0.448-1.059-1v-1h1.588c0.292,0,0.529-0.225,0.529-0.5
		c0-0.276-0.237-0.5-0.529-0.5H5.059v-2h1.588c0.292,0,0.529-0.225,0.529-0.5c0-0.276-0.237-0.5-0.529-0.5H5.059v-2h1.588
		c0.292,0,0.529-0.225,0.529-0.5c0-0.276-0.237-0.5-0.529-0.5H5.059v-1c0-0.552,0.474-1,1.059-1h4.765c0.584,0,1.059,0.448,1.059,1
		v1h-1.588c-0.293,0-0.529,0.224-0.529,0.5c0,0.275,0.236,0.5,0.529,0.5h1.588v2h-1.588c-0.293,0-0.529,0.224-0.529,0.5
		c0,0.275,0.236,0.5,0.529,0.5h1.588v2h-1.588c-0.293,0-0.529,0.224-0.529,0.5c0,0.275,0.236,0.5,0.529,0.5h1.588v1
		c0,0.552-0.475,1-1.059,1H6.118z"/>
</g>
<g id="Layer_1">
</g>
</svg>
