<?xml version="1.0" encoding="iso-8859-1"?>
<!-- Generator: Adobe Illustrator 16.0.0, SVG Export Plug-In . SVG Version: 6.00 Build 0)  -->
<!DOCTYPE svg PUBLIC "-//W3C//DTD SVG 1.1//EN" "http://www.w3.org/Graphics/SVG/1.1/DTD/svg11.dtd">
<svg version="1.1" xmlns="http://www.w3.org/2000/svg" xmlns:xlink="http://www.w3.org/1999/xlink" x="0px" y="0px" width="16px"
	 height="16px" viewBox="0 0 16 16" style="enable-background:new 0 0 16 16;" xml:space="preserve">
<g id="_x31_4-sport_-_trophy_reward_winner_cup" style="enable-background:new    ;">
	<path d="M12.518,14.997H4.459c-0.278,0-0.502,0.225-0.502,0.501s0.224,0.5,0.502,0.5h8.059c0.277,0,0.502-0.224,0.502-0.5
		S12.795,14.997,12.518,14.997z M15.932,2.4c-0.047-0.232-0.252-0.399-0.49-0.399h-2.426V0.502c0-0.276-0.225-0.5-0.5-0.5H4.515
		c-0.276,0-0.5,0.223-0.5,0.499v1.5H1.571c-0.238,0-0.444,0.167-0.492,0.399C1.065,2.473,0.728,4.225,1.706,5.418
		c0.589,0.719,1.501,1.584,2.71,1.584c0.024,0,0.045-0.011,0.069-0.014c0.662,1.584,1.972,2.71,3.507,2.94v3.085H6.484
		c-0.273,0-0.496,0.224-0.496,0.5s0.223,0.5,0.496,0.5h4.006c0.275,0,0.498-0.224,0.498-0.5s-0.223-0.5-0.498-0.5H8.997V9.944
		c1.582-0.184,2.906-1.324,3.564-2.949c0.012,0,0.023,0.007,0.035,0.007c1.209,0,2.121-0.865,2.711-1.584
		C16.283,4.225,15.947,2.473,15.932,2.4z M2.487,4.79C2.042,4.251,1.998,3.455,2.02,3.001h1.995v1.688
		c0,0.447,0.062,0.874,0.152,1.288C3.404,5.856,2.838,5.217,2.487,4.79z M12.016,4.688c0,2.393-1.477,4.372-3.455,4.372
		c-1.979,0-3.546-1.979-3.546-4.372V1.002h7V4.688z M14.525,4.79c-0.348,0.422-0.904,1.054-1.654,1.184
		c0.086-0.414,0.145-0.839,0.145-1.286V3.001h1.977C15.014,3.456,14.971,4.251,14.525,4.79z"/>
</g>
<g id="Layer_1">
</g>
</svg>
