<?xml version="1.0" encoding="iso-8859-1"?>
<!-- Generator: Adobe Illustrator 16.0.0, SVG Export Plug-In . SVG Version: 6.00 Build 0)  -->
<!DOCTYPE svg PUBLIC "-//W3C//DTD SVG 1.1//EN" "http://www.w3.org/Graphics/SVG/1.1/DTD/svg11.dtd">
<svg version="1.1" xmlns="http://www.w3.org/2000/svg" xmlns:xlink="http://www.w3.org/1999/xlink" x="0px" y="0px" width="16px"
	 height="16px" viewBox="0 0 16 16" style="enable-background:new 0 0 16 16;" xml:space="preserve">
<g id="_x32_4-fitness_-_dumbell" style="enable-background:new    ;">
	<path d="M15,5.999h-1c0-0.552-0.447-1-1-1h-1c-0.553,0-1,0.448-1,1v2H5v-2c0-0.552-0.448-1-1-1H3c-0.552,0-1,0.448-1,1H1
		c-0.552,0-1,0.448-1,1v3c0,0.553,0.448,1,1,1h1c0,0.552,0.448,1,1,1h1c0.552,0,1-0.448,1-1v-2h6v2c0,0.552,0.447,1,1,1h1
		c0.553,0,1-0.448,1-1h1c0.553,0,1-0.447,1-1v-3C16,6.447,15.553,5.999,15,5.999z M2,7.499v2v0.5H1v-0.5v-2v-0.5h1V7.499z M4,10.499
		c0,0.276-0.224,0.5-0.5,0.5c-0.276,0-0.5-0.224-0.5-0.5v-0.5v-3v-0.5c0-0.276,0.224-0.5,0.5-0.5c0.276,0,0.5,0.224,0.5,0.5V10.499z
		 M13,6.999v3v0.5c0,0.276-0.225,0.5-0.5,0.5s-0.5-0.224-0.5-0.5v-4c0-0.276,0.225-0.5,0.5-0.5s0.5,0.224,0.5,0.5V6.999z M15,7.499
		v2v0.5h-1v-0.5v-2v-0.5h1V7.499z"/>
</g>
<g id="Layer_1">
</g>
</svg>
