<?xml version="1.0" encoding="iso-8859-1"?>
<!-- Generator: Adobe Illustrator 16.0.0, SVG Export Plug-In . SVG Version: 6.00 Build 0)  -->
<!DOCTYPE svg PUBLIC "-//W3C//DTD SVG 1.1//EN" "http://www.w3.org/Graphics/SVG/1.1/DTD/svg11.dtd">
<svg version="1.1" xmlns="http://www.w3.org/2000/svg" xmlns:xlink="http://www.w3.org/1999/xlink" x="0px" y="0px" width="16px"
	 height="16px" viewBox="0 0 16 16" style="enable-background:new 0 0 16 16;" xml:space="preserve">
<g id="_x39_-sport_-_tv_show_live_game" style="enable-background:new    ;">
	<path d="M12,4.999H4c-1.104,0-2,0.896-2,2v5c0,1.104,0.896,2,2,2h8c1.105,0,2-0.896,2-2v-5C14,5.895,13.105,4.999,12,4.999z
		 M13,11.999c0,0.552-0.447,1-1,1H4c-0.552,0-1-0.448-1-1v-5c0-0.553,0.448-1,1-1h8c0.553,0,1,0.447,1,1V11.999z M13,2.999H9.865
		l2.475-2.116c0.203-0.204,0.203-0.535,0-0.739c-0.205-0.204-0.535-0.204-0.74,0L8.262,2.999H7.738L4.4,0.144
		c-0.204-0.204-0.535-0.204-0.739,0s-0.204,0.535,0,0.739l2.474,2.116H3c-1.657,0-3,1.343-3,3v7c0,1.657,1.343,3,3,3h10
		c1.656,0,3-1.343,3-3v-7C16,4.342,14.656,2.999,13,2.999z M15,12.999c0,1.104-0.895,2-2,2H3c-1.104,0-2-0.896-2-2v-7
		c0-1.104,0.896-2,2-2h10c1.105,0,2,0.896,2,2V12.999z"/>
</g>
<g id="Layer_1">
</g>
</svg>
