<?xml version="1.0" encoding="iso-8859-1"?>
<!-- Generator: Adobe Illustrator 16.0.0, SVG Export Plug-In . SVG Version: 6.00 Build 0)  -->
<!DOCTYPE svg PUBLIC "-//W3C//DTD SVG 1.1//EN" "http://www.w3.org/Graphics/SVG/1.1/DTD/svg11.dtd">
<svg version="1.1" xmlns="http://www.w3.org/2000/svg" xmlns:xlink="http://www.w3.org/1999/xlink" x="0px" y="0px" width="16px"
	 height="16px" viewBox="0 0 16 16" style="enable-background:new 0 0 16 16;" xml:space="preserve">
<g id="_x31_5-sport_-_reward_badge" style="enable-background:new    ;">
	<path d="M7.011,7.999v1h1.003v4h1.003v-5H8.014H7.011z M12.301,6.529l0.729-6.53H4.003L4.73,6.523
		c-1.055,1.002-1.72,2.408-1.72,3.978c0,3.035,2.463,5.497,5.502,5.497c3.039,0,5.501-2.462,5.501-5.497
		C14.014,8.936,13.352,7.53,12.301,6.529z M10.014,0.999h2.012l-0.688,4.807c-0.412-0.247-0.855-0.446-1.324-0.585V0.999z
		 M8.013,0.999H9.01v4.04C8.845,5.023,8.681,5.003,8.512,5.003c-0.17,0-0.334,0.021-0.499,0.036V0.999z M7.01,0.999v4.223
		c-0.466,0.138-0.907,0.335-1.316,0.58L5.006,0.999H7.01z M8.512,14.993c-2.479,0-4.498-2.016-4.498-4.492
		c0-2.478,2.018-4.494,4.498-4.494c2.48,0,4.498,2.017,4.498,4.494C13.01,12.978,10.992,14.993,8.512,14.993z"/>
</g>
<g id="Layer_1">
</g>
</svg>
