<?xml version="1.0" encoding="iso-8859-1"?>
<!-- Generator: Adobe Illustrator 16.0.0, SVG Export Plug-In . SVG Version: 6.00 Build 0)  -->
<!DOCTYPE svg PUBLIC "-//W3C//DTD SVG 1.1//EN" "http://www.w3.org/Graphics/SVG/1.1/DTD/svg11.dtd">
<svg version="1.1" xmlns="http://www.w3.org/2000/svg" xmlns:xlink="http://www.w3.org/1999/xlink" x="0px" y="0px" width="16px"
	 height="16px" viewBox="0 0 16 16" style="enable-background:new 0 0 16 16;" xml:space="preserve">
<g id="_x32_1-sport_-_flag_warn" style="enable-background:new    ;">
	<path d="M10,0.999c-4.942-2.196-9,0-9,0v0.5v0.5v3v1v2.5v1v6c0,0.275,0.224,0.5,0.5,0.5c0.276,0,0.5-0.225,0.5-0.5V9.195
		c1.499-0.361,4.527-0.739,8,0.804c4.5,2,6-1,6-1v-4v-1v-4C16-0.001,14.5,2.999,10,0.999z M15,8.999c0,0-2,1.5-5.5,0
		C6.105,7.544,3.385,7.844,2,8.18V5.589c1.499-0.509,4.527-1.133,8,0.41c2.52,1.12,4.098,0.672,5,0.061V8.999z M15,5.06
		c-0.902,0.611-2.48,1.06-5-0.061C6.527,3.456,3.499,4.08,2,4.589V1.561c1.385-0.484,4.105-1.017,7.5,0.438c3.5,1.5,5.5,0,5.5,0
		V5.06z"/>
</g>
<g id="Layer_1">
</g>
</svg>
