<?xml version="1.0" encoding="iso-8859-1"?>
<!-- Generator: Adobe Illustrator 16.0.0, SVG Export Plug-In . SVG Version: 6.00 Build 0)  -->
<!DOCTYPE svg PUBLIC "-//W3C//DTD SVG 1.1//EN" "http://www.w3.org/Graphics/SVG/1.1/DTD/svg11.dtd">
<svg version="1.1" xmlns="http://www.w3.org/2000/svg" xmlns:xlink="http://www.w3.org/1999/xlink" x="0px" y="0px" width="16px"
	 height="16px" viewBox="0 0 16 16" style="enable-background:new 0 0 16 16;" xml:space="preserve">
<g id="_x32_-sport_-_basketball" style="enable-background:new    ;">
	<path d="M8-0.001c-2.536,0-4.792,1.184-6.258,3.024c0,0.001-0.001,0.002-0.001,0.002c-0.246,0.31-0.468,0.638-0.666,0.981
		c0,0,0,0.001,0,0.001C0.395,5.184,0,6.544,0,7.999c0,4.418,3.582,8,8,8c4.418,0,8-3.582,8-8C16,3.58,12.418-0.001,8-0.001z
		 M9.955,1.311c2.285,0.668,4.074,2.457,4.746,4.732C14.469,6.021,14.238,5.999,14,5.999c-1.377,0-2.672,0.348-3.803,0.96
		c-0.371-0.396-0.76-0.775-1.18-1.121C9.643,4.698,10,3.391,10,1.999C10,1.766,9.977,1.538,9.955,1.311z M8,0.999
		c0.318,0,0.622,0.053,0.928,0.094C8.968,1.391,9,1.69,9,1.999c0,1.153-0.306,2.225-0.8,3.185C6.674,4.13,4.898,3.411,2.976,3.14
		C4.249,1.823,6.025,0.999,8,0.999z M1,7.999c0-1.468,0.455-2.827,1.227-3.952C4.254,4.222,6.12,4.939,7.694,6.046
		C6.425,7.828,4.354,8.999,2,8.999c-0.309,0-0.609-0.032-0.907-0.072C1.052,8.62,1,8.316,1,7.999z M1.312,9.955
		C1.539,9.976,1.767,9.999,2,9.999c2.676,0,5.038-1.318,6.491-3.336C8.796,6.922,9.082,7.201,9.359,7.49
		C7.329,8.941,6,11.313,6,13.999c0,0.237,0.023,0.469,0.044,0.7C3.769,14.028,1.98,12.238,1.312,9.955z M8,14.999
		c-0.316,0-0.623-0.037-0.927-0.078C7.032,14.618,7,14.313,7,13.999c0-2.386,1.199-4.487,3.021-5.751
		c1.18,1.477,2.004,3.253,2.316,5.205C11.143,14.405,9.648,14.999,8,14.999z M13.209,12.635c-0.396-1.818-1.211-3.467-2.322-4.875
		C11.828,7.289,12.875,6.999,14,6.999c0.314,0,0.619,0.032,0.922,0.073C14.963,7.376,15,7.683,15,7.999
		C15,9.785,14.311,11.397,13.209,12.635z"/>
</g>
<g id="Layer_1">
</g>
</svg>
