<?xml version="1.0" encoding="iso-8859-1"?>
<!-- Generator: Adobe Illustrator 16.0.0, SVG Export Plug-In . SVG Version: 6.00 Build 0)  -->
<!DOCTYPE svg PUBLIC "-//W3C//DTD SVG 1.1//EN" "http://www.w3.org/Graphics/SVG/1.1/DTD/svg11.dtd">
<svg version="1.1" xmlns="http://www.w3.org/2000/svg" xmlns:xlink="http://www.w3.org/1999/xlink" x="0px" y="0px" width="16px"
	 height="16px" viewBox="0 0 16 16" style="enable-background:new 0 0 16 16;" xml:space="preserve">
<g id="_x32_8-medicine_-_lab" style="enable-background:new    ;">
	<path d="M11,1.999c0.553,0,1-0.447,1-1c0-0.552-0.447-1-1-1s-1,0.448-1,1C10,1.552,10.447,1.999,11,1.999z M8,3
		c0.552,0,1-0.448,1-1.001c0-0.552-0.447-1-1-1s-1,0.448-1,1C7,2.552,7.448,3,8,3z M13.777,15.008C12.773,13.076,11,8.999,11,8.999
		v-4h0.5c0.275,0,0.5-0.224,0.5-0.5c0-0.275-0.225-0.5-0.5-0.5h-6c-0.276,0-0.5,0.225-0.5,0.5c0,0.276,0.224,0.5,0.5,0.5H6v4
		c0,0-1.734,4.221-2.715,6.107C2.821,16,2.821,16,3.928,16c2.414,0,7.119,0,9.398,0C13.773,16,14.293,16,13.777,15.008z M7,8.999v-4
		h3v4c0,0,0.176,0.413,0.428,1H6.594C6.834,9.413,7,8.999,7,8.999z M11.938,14.999c-1.898,0-4.653,0-6.665,0
		c-0.922,0-0.922,0-0.535-0.765c0.41-0.812,0.978-2.126,1.442-3.235h4.684c0.471,1.071,1.039,2.334,1.451,3.149
		C12.744,14.999,12.311,14.999,11.938,14.999z"/>
</g>
<g id="Layer_1">
</g>
</svg>
