<?xml version="1.0" encoding="iso-8859-1"?>
<!-- Generator: Adobe Illustrator 16.0.0, SVG Export Plug-In . SVG Version: 6.00 Build 0)  -->
<!DOCTYPE svg PUBLIC "-//W3C//DTD SVG 1.1//EN" "http://www.w3.org/Graphics/SVG/1.1/DTD/svg11.dtd">
<svg version="1.1" xmlns="http://www.w3.org/2000/svg" xmlns:xlink="http://www.w3.org/1999/xlink" x="0px" y="0px" width="16px"
	 height="16px" viewBox="0 0 16 16" style="enable-background:new 0 0 16 16;" xml:space="preserve">
<g id="_x33_0-sport_-_medic_kit_help" style="enable-background:new    ;">
	<path d="M9,6.999H8v2H6v0.999h2v2.001h1V9.998h2V8.999H9V6.999z M14,2.999h-2v-2H5v2H3c-1.104,0-2,0.896-2,2v9c0,1.104,0.896,2,2,2
		h11c1.105,0,2-0.896,2-2v-9C16,3.895,15.105,2.999,14,2.999z M6,1.999h5v1H6V1.999z M15,13.999c0,0.552-0.447,1-1,1H3
		c-0.552,0-1-0.448-1-1v-9c0-0.553,0.448-1,1-1h2h7h2c0.553,0,1,0.447,1,1V13.999z"/>
</g>
<g id="Layer_1">
</g>
</svg>
