<?xml version="1.0" encoding="iso-8859-1"?>
<!-- Generator: Adobe Illustrator 16.0.0, SVG Export Plug-In . SVG Version: 6.00 Build 0)  -->
<!DOCTYPE svg PUBLIC "-//W3C//DTD SVG 1.1//EN" "http://www.w3.org/Graphics/SVG/1.1/DTD/svg11.dtd">
<svg version="1.1" xmlns="http://www.w3.org/2000/svg" xmlns:xlink="http://www.w3.org/1999/xlink" x="0px" y="0px" width="16px"
	 height="16px" viewBox="0 0 16 16" style="enable-background:new 0 0 16 16;" xml:space="preserve">
<g id="_x33_1-sport_-_wound_tape" style="enable-background:new    ;">
	<path d="M7.317,9.055l0.866,0.503l0.5-0.871L7.817,8.184L7.317,9.055z M9.049,10.061l0.865,0.503l0.5-0.871L9.549,9.189
		L9.049,10.061z M5.585,8.049l0.866,0.503l0.5-0.871L6.085,7.178L5.585,8.049z M12.75,0.595c-2.152-1.25-4.904-0.508-6.147,1.657
		l-0.25,0.436l-0.5,0.871l-3.25,5.662c-1.243,2.165-0.505,4.934,1.647,6.184s4.904,0.508,6.146-1.657l0.25-0.436l0.219-0.379
		l3.531-6.154C15.641,4.613,14.902,1.845,12.75,0.595z M9.531,13.244c-0.966,1.685-3.107,2.261-4.781,1.289
		c-1.674-0.973-2.248-3.126-1.281-4.81l0.25-0.436l6.063,3.521L9.531,13.244z M10.281,11.938L4.219,8.417l2.5-4.355l6.063,3.521
		L10.281,11.938z M13.531,6.275l-0.25,0.436L7.219,3.19l0.25-0.436c0.966-1.684,3.107-2.262,4.781-1.289
		C13.924,2.438,14.498,4.591,13.531,6.275z M7.451,6.81l0.5-0.871L7.085,5.436l-0.5,0.871L7.451,6.81z M9.684,6.944L8.817,6.441
		l-0.5,0.871l0.867,0.503L9.684,6.944z M11.414,7.95l-0.865-0.503l-0.5,0.871l0.865,0.503L11.414,7.95z"/>
</g>
<g id="Layer_1">
</g>
</svg>
