<?xml version="1.0" encoding="iso-8859-1"?>
<!-- Generator: Adobe Illustrator 16.0.0, SVG Export Plug-In . SVG Version: 6.00 Build 0)  -->
<!DOCTYPE svg PUBLIC "-//W3C//DTD SVG 1.1//EN" "http://www.w3.org/Graphics/SVG/1.1/DTD/svg11.dtd">
<svg version="1.1" xmlns="http://www.w3.org/2000/svg" xmlns:xlink="http://www.w3.org/1999/xlink" x="0px" y="0px" width="16px"
	 height="16px" viewBox="0 0 16 16" style="enable-background:new 0 0 16 16;" xml:space="preserve">
<g id="_x31_1-location_-_map_route" style="enable-background:new    ;">
	<path d="M8.5,5.998C8.224,5.998,8,6.223,8,6.499v5.5c0,0.275,0.224,0.5,0.5,0.5c0.276,0,0.5-0.225,0.5-0.5v-5.5
		C9,6.223,8.776,5.998,8.5,5.998z M4.5,4.498C4.224,4.498,4,4.723,4,4.999v6.5c0,0.275,0.224,0.5,0.5,0.5c0.276,0,0.5-0.225,0.5-0.5
		v-6.5C5,4.723,4.776,4.498,4.5,4.498z M12,10.499c0,0.275,0.225,0.499,0.5,0.499s0.5-0.224,0.5-0.499v-6.5
		c0-0.276-0.225-0.501-0.5-0.501S12,3.723,12,3.999V10.499z M12,0.999l-3.5,3l-4.5-2L0,3.987v12.012l4-2l4.5,0.999l3.5-1.999
		l4,1.999v-11.5L12,0.999z M15,13.498l-3-1.499l-3.5,2l-4.5-1l-3,1.5V4.498l3-1.5l4.5,2.001l3.5-3l3,2V13.498z"/>
</g>
<g id="Layer_1">
</g>
</svg>
