<?xml version="1.0" encoding="iso-8859-1"?>
<!-- Generator: Adobe Illustrator 16.0.0, SVG Export Plug-In . SVG Version: 6.00 Build 0)  -->
<!DOCTYPE svg PUBLIC "-//W3C//DTD SVG 1.1//EN" "http://www.w3.org/Graphics/SVG/1.1/DTD/svg11.dtd">
<svg version="1.1" xmlns="http://www.w3.org/2000/svg" xmlns:xlink="http://www.w3.org/1999/xlink" x="0px" y="0px" width="16px"
	 height="16px" viewBox="0 0 16 16" style="enable-background:new 0 0 16 16;" xml:space="preserve">
<g id="_x35_-location_-_pin_map" style="enable-background:new    ;">
	<path style="fill-rule:evenodd;clip-rule:evenodd;" d="M12.5,14.998H8.857c1.655-1.986,5.143-6.471,5.143-9c0-3.313-2.686-6-6-6
		c-3.314,0-6,2.687-6,6c0,2.529,3.488,7.014,5.144,9H3.5c-0.276,0-0.5,0.225-0.5,0.501c0,0.275,0.224,0.5,0.5,0.5h9
		c0.275,0,0.5-0.225,0.5-0.5C13,15.223,12.775,14.998,12.5,14.998z M8,0.998c2.762,0,5,2.267,5,5.063c0,2.796-5,8.438-5,8.438
		S3,8.857,3,6.062C3,3.265,5.238,0.998,8,0.998z"/>
</g>
<g id="Layer_1">
</g>
</svg>
