<?xml version="1.0" encoding="iso-8859-1"?>
<!-- Generator: Adobe Illustrator 16.0.0, SVG Export Plug-In . SVG Version: 6.00 Build 0)  -->
<!DOCTYPE svg PUBLIC "-//W3C//DTD SVG 1.1//EN" "http://www.w3.org/Graphics/SVG/1.1/DTD/svg11.dtd">
<svg version="1.1" xmlns="http://www.w3.org/2000/svg" xmlns:xlink="http://www.w3.org/1999/xlink" x="0px" y="0px" width="16px"
	 height="16px" viewBox="0 0 16 16" style="enable-background:new 0 0 16 16;" xml:space="preserve">
<g id="_x32_2-time_-_clock" style="enable-background:new    ;">
	<path d="M12.5,7.999H10c0-1.105-0.895-2.001-2-2.001V2.499c0-0.277-0.224-0.501-0.5-0.501C7.224,1.998,7,2.222,7,2.499v3.776
		C6.405,6.622,6,7.26,6,7.999c0,1.104,0.896,1.999,2,1.999c0.739,0,1.377-0.404,1.723-1H12.5c0.275,0,0.5-0.224,0.5-0.5
		C13,8.223,12.775,7.999,12.5,7.999z M8,8.998c-0.552,0-1-0.447-1-0.999c0-0.553,0.448-1,1-1s1,0.447,1,1
		C9,8.551,8.552,8.998,8,8.998z M8-0.001c-4.418,0-8,3.581-8,8c0,4.418,3.582,7.999,8,7.999c4.418,0,8-3.581,8-7.999
		C16,3.58,12.418-0.001,8-0.001z M8,14.998c-3.866,0-7-3.134-7-6.999c0-3.866,3.134-7.001,7-7.001c3.865,0,7,3.135,7,7.001
		C15,11.864,11.865,14.998,8,14.998z"/>
</g>
<g id="Layer_1">
</g>
</svg>
