<?xml version="1.0" encoding="iso-8859-1"?>
<!-- Generator: Adobe Illustrator 16.0.0, SVG Export Plug-In . SVG Version: 6.00 Build 0)  -->
<!DOCTYPE svg PUBLIC "-//W3C//DTD SVG 1.1//EN" "http://www.w3.org/Graphics/SVG/1.1/DTD/svg11.dtd">
<svg version="1.1" xmlns="http://www.w3.org/2000/svg" xmlns:xlink="http://www.w3.org/1999/xlink" x="0px" y="0px" width="16px"
	 height="16px" viewBox="0 0 16 16" style="enable-background:new 0 0 16 16;" xml:space="preserve">
<g id="_x31_5-time_-_clock_hour" style="enable-background:new    ;">
	<path d="M5,12h1v-1H5V12z M3,8.999h1v-1H3V8.999z M12,4h-1v1h1V4z M5,5h1V4H5V5z M8,13.999h1v-1H8V13.999z M9,2.999H8v4.999v1.001
		h1h4V7.998H9V2.999z M11,12h1v-1h-1V12z M8.5,0.998c-4.142,0-7.5,3.358-7.5,7.5c0,4.143,3.358,7.501,7.5,7.501
		c4.143,0,7.5-3.358,7.5-7.501C16,4.356,12.643,0.998,8.5,0.998z M8.5,14.999c-3.589,0-6.5-2.91-6.5-6.501
		c0-3.589,2.91-6.499,6.5-6.499c3.59,0,6.5,2.91,6.5,6.499C15,12.089,12.09,14.999,8.5,14.999z"/>
</g>
<g id="Layer_1">
</g>
</svg>
