<?xml version="1.0" encoding="iso-8859-1"?>
<!-- Generator: Adobe Illustrator 16.0.0, SVG Export Plug-In . SVG Version: 6.00 Build 0)  -->
<!DOCTYPE svg PUBLIC "-//W3C//DTD SVG 1.1//EN" "http://www.w3.org/Graphics/SVG/1.1/DTD/svg11.dtd">
<svg version="1.1" xmlns="http://www.w3.org/2000/svg" xmlns:xlink="http://www.w3.org/1999/xlink" x="0px" y="0px" width="16px"
	 height="16px" viewBox="0 0 16 16" style="enable-background:new 0 0 16 16;" xml:space="preserve">
<g id="_x33_-location_-_pin_map" style="enable-background:new    ;">
	<path d="M10.5,11.091v0.975c2.594,0.183,4.5,0.752,4.5,1.433c0,0.829-2.799,1.5-6.25,1.5c-3.451,0-6.25-0.671-6.25-1.5
		c0-0.637,1.664-1.178,4-1.396v-1.012C3.33,11.384,1,12.35,1,13.498c0,1.381,3.358,2.501,7.5,2.501c4.143,0,7.5-1.12,7.5-2.501
		C16,12.35,13.67,11.384,10.5,11.091z M8,8.948v4.55c0,0.277,0.224,0.5,0.5,0.5c0.276,0,0.5-0.223,0.5-0.5v-4.55
		c2.247-0.252,4-2.136,4-4.449c0-2.486-2.016-4.501-4.5-4.501S4,2.013,4,4.499C4,6.813,5.753,8.696,8,8.948z M8.5,0.998
		c1.934,0,3.5,1.567,3.5,3.501c0,1.933-1.566,3.499-3.5,3.499C6.567,7.998,5,6.432,5,4.499C5,2.565,6.567,0.998,8.5,0.998z"/>
</g>
<g id="Layer_1">
</g>
</svg>
