<?xml version="1.0" encoding="iso-8859-1"?>
<!-- Generator: Adobe Illustrator 16.0.0, SVG Export Plug-In . SVG Version: 6.00 Build 0)  -->
<!DOCTYPE svg PUBLIC "-//W3C//DTD SVG 1.1//EN" "http://www.w3.org/Graphics/SVG/1.1/DTD/svg11.dtd">
<svg version="1.1" xmlns="http://www.w3.org/2000/svg" xmlns:xlink="http://www.w3.org/1999/xlink" x="0px" y="0px" width="16px"
	 height="16px" viewBox="0 0 16 16" style="enable-background:new 0 0 16 16;" xml:space="preserve">
<g id="_x31_0-location_-_pin_map" style="enable-background:new    ;">
	<g>
		<g>
			<path style="fill-rule:evenodd;clip-rule:evenodd;" d="M9,1C5.686,1,3,3.687,3,7c0,3.314,6,10,6,10s6-6.686,6-10
				C15,3.687,12.313,1,9,1z M4,7.25C4,4.351,6.238,2,9,2c2.762,0,5,2.351,5,5.25S9,16,9,16S4,10.149,4,7.25z M9,4.001
				c-1.105,0-2,0.896-2,2s0.895,2,2,2c1.104,0,2-0.896,2-2S10.104,4.001,9,4.001z M9,7.001c-0.553,0-1-0.448-1-1
				C8,5.448,8.447,5,9,5c0.551,0,1,0.448,1,1.001C10,6.553,9.551,7.001,9,7.001z"/>
		</g>
	</g>
</g>
<g id="Layer_1">
</g>
</svg>
