<?xml version="1.0" encoding="iso-8859-1"?>
<!-- Generator: Adobe Illustrator 16.0.0, SVG Export Plug-In . SVG Version: 6.00 Build 0)  -->
<!DOCTYPE svg PUBLIC "-//W3C//DTD SVG 1.1//EN" "http://www.w3.org/Graphics/SVG/1.1/DTD/svg11.dtd">
<svg version="1.1" xmlns="http://www.w3.org/2000/svg" xmlns:xlink="http://www.w3.org/1999/xlink" x="0px" y="0px" width="16px"
	 height="16px" viewBox="0 0 16 16" style="enable-background:new 0 0 16 16;" xml:space="preserve">
<g id="_x32_8-time_-_calendar_date" style="enable-background:new    ;">
	<path d="M11.844,3.139c-0.027-0.025-0.051-0.055-0.086-0.074c-0.016-0.009-0.031-0.009-0.047-0.016
		c-0.02-0.009-0.039-0.013-0.059-0.02c-0.041-0.012-0.08-0.022-0.121-0.024c-0.012-0.001-0.02-0.006-0.031-0.006h-7
		C4.224,2.999,4,3.223,4,3.498c0,0.276,0.224,0.501,0.5,0.501h5.838C9.5,4.884,8.129,6.425,7.197,7.95
		C5.86,10.138,5.56,12.265,5.56,12.265C5.422,12.5,5.504,12.8,5.744,12.937c0.24,0.136,0.546,0.055,0.685-0.181
		c0,0,0.311-2.145,1.654-4.342c1.193-1.952,3.111-3.932,3.681-4.501c0.061-0.039,0.111-0.089,0.15-0.149
		c0.004-0.005,0.027-0.028,0.027-0.028c0.006-0.009,0.006-0.019,0.01-0.028c0.008-0.015,0.01-0.03,0.016-0.046
		c0.07-0.181,0.025-0.377-0.109-0.512C11.852,3.146,11.848,3.143,11.844,3.139z M15-0.001H1c-0.552,0-1,0.447-1,0.999v14
		c0,0.553,0.448,1.001,1,1.001h14c0.553,0,1-0.448,1-1.001v-14C16,0.446,15.553-0.001,15-0.001z M15,14.498
		c0,0.276-0.225,0.5-0.5,0.5h-13c-0.276,0-0.5-0.224-0.5-0.5V1.499c0-0.276,0.224-0.501,0.5-0.501h13c0.275,0,0.5,0.225,0.5,0.501
		V14.498z"/>
</g>
<g id="Layer_1">
</g>
</svg>
