<?xml version="1.0" encoding="iso-8859-1"?>
<!-- Generator: Adobe Illustrator 16.0.0, SVG Export Plug-In . SVG Version: 6.00 Build 0)  -->
<!DOCTYPE svg PUBLIC "-//W3C//DTD SVG 1.1//EN" "http://www.w3.org/Graphics/SVG/1.1/DTD/svg11.dtd">
<svg version="1.1" xmlns="http://www.w3.org/2000/svg" xmlns:xlink="http://www.w3.org/1999/xlink" x="0px" y="0px" width="16px"
	 height="16px" viewBox="0 0 16 16" style="enable-background:new 0 0 16 16;" xml:space="preserve">
<g id="_x33_0-time_-_watches" style="enable-background:new    ;">
	<path d="M5.671,10.622l0.707,0.707l0.707-0.707L6.377,9.915L5.671,10.622z M5.67,6.378l0.707,0.706l0.707-0.707L6.378,5.671
		L5.67,6.378z M5.999,8h-1v1h1V8z M11.328,6.38l-0.707-0.708L9.914,6.38l0.707,0.707L11.328,6.38z M10.998,8v1h1V8H10.998z
		 M8,11.998h1v-1H8V11.998z M11,3.625V0.998H6v2.627C4.226,4.538,3,6.366,3,8.498c0,2.133,1.226,3.961,3,4.873v2.627h5v-2.627
		c1.773-0.912,3-2.74,3-4.873C14,6.366,12.773,4.538,11,3.625z M7,1.998h3v1.233C9.52,3.095,9.023,2.998,8.5,2.998
		c-0.523,0-1.02,0.097-1.5,0.233V1.998z M10,14.998H7v-1.232c0.48,0.137,0.976,0.233,1.5,0.233c0.524,0,1.02-0.097,1.5-0.233V14.998
		z M8.5,12.998c-2.485,0-4.5-2.014-4.5-4.5c0-2.484,2.015-4.499,4.5-4.499S13,6.014,13,8.498C13,10.984,10.984,12.998,8.5,12.998z
		 M9.914,10.62l0.707,0.707l0.707-0.707l-0.707-0.707L9.914,10.62z M8,5.998h1V4.999H8V5.998z"/>
</g>
<g id="Layer_1">
</g>
</svg>
