<?xml version="1.0" encoding="iso-8859-1"?>
<!-- Generator: Adobe Illustrator 16.0.0, SVG Export Plug-In . SVG Version: 6.00 Build 0)  -->
<!DOCTYPE svg PUBLIC "-//W3C//DTD SVG 1.1//EN" "http://www.w3.org/Graphics/SVG/1.1/DTD/svg11.dtd">
<svg version="1.1" xmlns="http://www.w3.org/2000/svg" xmlns:xlink="http://www.w3.org/1999/xlink" x="0px" y="0px" width="16px"
	 height="16px" viewBox="0 0 16 16" style="enable-background:new 0 0 16 16;" xml:space="preserve">
<g id="_x31_4-time_-_clock_hour" style="enable-background:new    ;">
	<path d="M8,13.999h1v-1H8V13.999z M8,7.998H3v1.001h5h1v-7H8V7.998z M3.404,11.888l0.707,0.707l0.707-0.707l-0.707-0.707
		L3.404,11.888z M4.818,4.11L4.111,3.402L3.404,4.11l0.707,0.706L4.818,4.11z M8-0.002c-4.418,0-8,3.583-8,8
		c0,4.419,3.582,8.001,8,8.001c4.418,0,8-3.582,8-8.001C16,3.581,12.418-0.002,8-0.002z M8,14.999c-3.866,0-7-3.134-7-7.001
		c0-3.865,3.134-6.999,7-6.999c3.865,0,7,3.134,7,6.999C15,11.865,11.865,14.999,8,14.999z M13,6.999v1h1v-1H13z M11.494,11.247
		l0.754,0.754l0.754-0.754l-0.754-0.754L11.494,11.247z M11.248,2.996L10.494,3.75l0.754,0.755l0.754-0.755L11.248,2.996z"/>
</g>
<g id="Layer_1">
</g>
</svg>
