<?xml version="1.0" encoding="iso-8859-1"?>
<!-- Generator: Adobe Illustrator 16.0.0, SVG Export Plug-In . SVG Version: 6.00 Build 0)  -->
<!DOCTYPE svg PUBLIC "-//W3C//DTD SVG 1.1//EN" "http://www.w3.org/Graphics/SVG/1.1/DTD/svg11.dtd">
<svg version="1.1" xmlns="http://www.w3.org/2000/svg" xmlns:xlink="http://www.w3.org/1999/xlink" x="0px" y="0px" width="16px"
	 height="16px" viewBox="0 0 16 16" style="enable-background:new 0 0 16 16;" xml:space="preserve">
<g id="_x31_3-time_-_calendar_date" style="enable-background:new    ;">
	<path d="M13,10.999h-3v3h3V10.999z M12,12.999h-1v-1h1V12.999z M13,6.999h-3v3h3V6.999z M12,8.999h-1v-1h1V8.999z M14.5,0.999H11
		v-1.001h-1v1.001H5v-1.001H4v1.001H1c-0.552,0-1,0.447-1,1v2v1v10c0,0.553,0.448,1,1,1h13c0.553,0,1-0.447,1-1v-10v-1v-2
		C15,1.446,15.053,0.999,14.5,0.999z M14,14.499c0,0.276-0.225,0.5-0.5,0.5h-12c-0.276,0-0.5-0.224-0.5-0.5v-9.5h13V14.499z
		 M14,3.999H1v-1.5c0-0.276,0.224-0.5,0.5-0.5H4v1h1v-1h5v1h1v-1h2.5c0.275,0,0.5,0.224,0.5,0.5V3.999z M5,10.999H2v3h3V10.999z
		 M4,12.999H3v-1h1V12.999z M9,10.999H6v3h3V10.999z M8,12.999H7v-1h1V12.999z M5,6.999H2v3h3V6.999z M4,8.999H3v-1h1V8.999z
		 M9,6.999H6v3h3V6.999z M8,8.999H7v-1h1V8.999z"/>
</g>
<g id="Layer_1">
</g>
</svg>
