<?xml version="1.0" encoding="iso-8859-1"?>
<!-- Generator: Adobe Illustrator 16.0.0, SVG Export Plug-In . SVG Version: 6.00 Build 0)  -->
<!DOCTYPE svg PUBLIC "-//W3C//DTD SVG 1.1//EN" "http://www.w3.org/Graphics/SVG/1.1/DTD/svg11.dtd">
<svg version="1.1" xmlns="http://www.w3.org/2000/svg" xmlns:xlink="http://www.w3.org/1999/xlink" x="0px" y="0px" width="16px"
	 height="16px" viewBox="0 0 16 16" style="enable-background:new 0 0 16 16;" xml:space="preserve">
<g id="_x32_0-time_-_clock_time_alarm" style="enable-background:new    ;">
	<path d="M8,8.31V3.544c0-0.302-0.224-0.546-0.5-0.546C7.224,2.998,7,3.242,7,3.544v4.782C6.992,8.371,6.992,8.406,7,8.45v0.003
		c0,0.257,2.17,2.423,2.17,2.423c0.189,0.161,0.496,0.161,0.686,0c0.189-0.162,0.189-0.426,0-0.588L8,8.31z M1,2.498
		C1,1.67,1.671,0.999,2.5,0.999c0.074,0,0.137,0.031,0.208,0.042l0.817-0.818C3.212,0.081,2.866-0.002,2.5-0.002
		c-1.381,0-2.5,1.119-2.5,2.5C0,2.864,0.083,3.21,0.225,3.523l0.817-0.817C1.032,2.636,1,2.572,1,2.498z M8,0.999
		c-3.866,0-7,3.134-7,6.999c0,2.762,1.613,5.126,3.935,6.266L4.124,15.29c-0.18,0.227-0.073,0.518,0.238,0.649
		c0.311,0.131,0.709,0.053,0.888-0.175l0.841-1.063c0.61,0.174,1.243,0.297,1.909,0.297s1.299-0.123,1.91-0.297l0.84,1.063
		c0.18,0.228,0.576,0.306,0.889,0.175c0.311-0.132,0.418-0.423,0.238-0.649l-0.813-1.026C13.387,13.124,15,10.76,15,7.998
		C15,4.133,11.865,0.999,8,0.999z M8,13.998c-3.314,0-6-2.686-6-6c0-3.313,2.686-5.999,6-5.999c3.314,0,6,2.686,6,5.999
		C14,11.313,11.314,13.998,8,13.998z M13.5-0.002c-0.627,0-1.191,0.238-1.631,0.619l0.719,0.72c0.256-0.2,0.563-0.338,0.912-0.338
		c0.828,0,1.5,0.671,1.5,1.499c0,0.35-0.139,0.657-0.338,0.912l0.719,0.719C15.762,3.69,16,3.125,16,2.498
		C16,1.117,14.881-0.002,13.5-0.002z"/>
</g>
<g id="Layer_1">
</g>
</svg>
