<?xml version="1.0" encoding="iso-8859-1"?>
<!-- Generator: Adobe Illustrator 16.0.0, SVG Export Plug-In . SVG Version: 6.00 Build 0)  -->
<!DOCTYPE svg PUBLIC "-//W3C//DTD SVG 1.1//EN" "http://www.w3.org/Graphics/SVG/1.1/DTD/svg11.dtd">
<svg version="1.1" xmlns="http://www.w3.org/2000/svg" xmlns:xlink="http://www.w3.org/1999/xlink" x="0px" y="0px" width="16px"
	 height="16px" viewBox="0 0 16 16" style="enable-background:new 0 0 16 16;" xml:space="preserve">
<g id="_x32_5-time_-_stopwatch_timer" style="enable-background:new    ;">
	<path d="M9.5,9.998H9v-3.5c0-0.275-0.224-0.5-0.5-0.5c-0.275,0-0.5,0.225-0.5,0.5v3.5H7.5c-0.276,0-0.5,0.225-0.5,0.501v1
		c0,0.275,0.224,0.499,0.5,0.499h2c0.275,0,0.5-0.224,0.5-0.499v-1C10,10.223,9.775,9.998,9.5,9.998z M9,3.049v-1.05
		c0,0,0,0,0-0.001h1.5c0.275,0,0.5-0.224,0.5-0.5c0-0.275-0.225-0.499-0.5-0.499h-4C6.224,0.999,6,1.223,6,1.498
		c0,0.276,0.224,0.5,0.5,0.5H8c0,0.001,0,0.001,0,0.001v1.05c-3.352,0.26-6,3.031-6,6.45c0,3.589,2.91,6.5,6.5,6.5
		c3.59,0,6.5-2.911,6.5-6.5C15,6.08,12.352,3.309,9,3.049z M8.5,14.999c-3.037,0-5.5-2.463-5.5-5.5c0-3.038,2.462-5.5,5.5-5.5
		c3.038,0,5.5,2.462,5.5,5.5C14,12.536,11.537,14.999,8.5,14.999z"/>
</g>
<g id="Layer_1">
</g>
</svg>
