<?xml version="1.0" encoding="iso-8859-1"?>
<!-- Generator: Adobe Illustrator 16.0.0, SVG Export Plug-In . SVG Version: 6.00 Build 0)  -->
<!DOCTYPE svg PUBLIC "-//W3C//DTD SVG 1.1//EN" "http://www.w3.org/Graphics/SVG/1.1/DTD/svg11.dtd">
<svg version="1.1" xmlns="http://www.w3.org/2000/svg" xmlns:xlink="http://www.w3.org/1999/xlink" x="0px" y="0px" width="16px"
	 height="16px" viewBox="0 0 16 16" style="enable-background:new 0 0 16 16;" xml:space="preserve">
<g id="_x31_6-time_-_clock_hour" style="enable-background:new    ;">
	<path d="M8,2.999h1v-1H8V2.999z M3.998,4.5l0.503,0.503L5.004,4.5L4.501,3.997L3.998,4.5z M8,13.999h1v-1H8V13.999z M2,8.999h1v-1
		H2V8.999z M3.998,11.498l0.503,0.503l0.503-0.503l-0.503-0.503L3.998,11.498z M13,7.999v1h1v-1H13z M8-0.002c-4.418,0-8,3.583-8,8
		c0,4.419,3.582,8.001,8,8.001c4.418,0,8-3.582,8-8.001C16,3.581,12.418-0.002,8-0.002z M8,14.999c-3.866,0-7-3.134-7-7.001
		c0-3.865,3.134-6.999,7-6.999c3.865,0,7,3.134,7,6.999C15,11.865,11.865,14.999,8,14.999z M10.996,11.498l0.502,0.503l0.504-0.503
		l-0.504-0.503L10.996,11.498z M10.996,4.5l0.502,0.503L12.002,4.5l-0.504-0.503L10.996,4.5z"/>
</g>
<g id="Layer_1">
</g>
</svg>
