<?xml version="1.0" encoding="iso-8859-1"?>
<!-- Generator: Adobe Illustrator 16.0.0, SVG Export Plug-In . SVG Version: 6.00 Build 0)  -->
<!DOCTYPE svg PUBLIC "-//W3C//DTD SVG 1.1//EN" "http://www.w3.org/Graphics/SVG/1.1/DTD/svg11.dtd">
<svg version="1.1" xmlns="http://www.w3.org/2000/svg" xmlns:xlink="http://www.w3.org/1999/xlink" x="0px" y="0px" width="16px"
	 height="16px" viewBox="0 0 16 16" style="enable-background:new 0 0 16 16;" xml:space="preserve">
<g id="_x31_7-time_-_clock_hour" style="enable-background:new    ;">
	<path d="M8.5,4.999c-0.275,0-0.5,0.224-0.5,0.5v2.499H5.5C5.224,7.998,5,8.223,5,8.499c0,0.275,0.224,0.5,0.5,0.5h3
		c0.276,0,0.5-0.225,0.5-0.5v-3C9,5.223,8.776,4.999,8.5,4.999z M14-0.002H2c-1.104,0-2,0.896-2,2.001v12c0,1.104,0.896,2,2,2h12
		c1.105,0,2-0.896,2-2v-12C16,0.894,15.105-0.002,14-0.002z M15,7.998h-1.5c-0.275,0-0.5,0.225-0.5,0.501c0,0.275,0.225,0.5,0.5,0.5
		H15v5c0,0.077-0.027,0.145-0.043,0.217l-1.074-1.072c-0.203-0.204-0.533-0.204-0.738,0c-0.203,0.204-0.203,0.535,0,0.739
		l1.072,1.072c-0.072,0.017-0.141,0.044-0.217,0.044H9v-1.501c0-0.275-0.224-0.499-0.5-0.499c-0.275,0-0.5,0.224-0.5,0.499v1.501H2
		c-0.077,0-0.145-0.027-0.217-0.044l1.073-1.072c0.204-0.204,0.204-0.535,0-0.739c-0.204-0.204-0.535-0.204-0.739,0l-1.072,1.072
		C1.027,14.144,1,14.076,1,13.999v-5h1.5c0.276,0,0.5-0.225,0.5-0.5c0-0.276-0.224-0.501-0.5-0.501H1V1.999
		c0-0.077,0.027-0.146,0.044-0.218L2.1,2.838c0.204,0.204,0.535,0.204,0.739,0s0.204-0.535,0-0.739L1.783,1.043
		C1.855,1.026,1.923,0.999,2,0.999h6v1.5c0,0.276,0.224,0.5,0.5,0.5c0.276,0,0.5-0.224,0.5-0.5v-1.5h5
		c0.076,0,0.145,0.027,0.217,0.044L13.16,2.099c-0.203,0.204-0.203,0.535,0,0.739c0.205,0.204,0.535,0.204,0.74,0l1.055-1.057
		C14.973,1.854,15,1.922,15,1.999V7.998z"/>
</g>
<g id="Layer_1">
</g>
</svg>
