<?xml version="1.0" encoding="iso-8859-1"?>
<!-- Generator: Adobe Illustrator 16.0.0, SVG Export Plug-In . SVG Version: 6.00 Build 0)  -->
<!DOCTYPE svg PUBLIC "-//W3C//DTD SVG 1.1//EN" "http://www.w3.org/Graphics/SVG/1.1/DTD/svg11.dtd">
<svg version="1.1" xmlns="http://www.w3.org/2000/svg" xmlns:xlink="http://www.w3.org/1999/xlink" x="0px" y="0px" width="16px"
	 height="16px" viewBox="0 0 16 16" style="enable-background:new 0 0 16 16;" xml:space="preserve">
<g id="_x31_-location_-_compass_direction" style="enable-background:new    ;">
	<path d="M8-0.002c-4.418,0-8,3.582-8,8c0,4.419,3.582,8.001,8,8.001c4.418,0,8-3.582,8-8.001C16,3.58,12.418-0.002,8-0.002z
		 M8,14.998c-3.866,0-7-3.134-7-7c0-3.865,3.134-7,7-7c3.865,0,7,3.135,7,7C15,11.864,11.865,14.998,8,14.998z M4.007,12.006
		L9.33,9.34l2.662-5.335L6.669,6.672L4.007,12.006z M10.33,5.673L8.906,8.239l-1.14-1.141L10.33,5.673z M8.244,8.907l-2.573,1.432
		l1.428-2.575L8.244,8.907z"/>
</g>
<g id="Layer_1">
</g>
</svg>
