<?xml version="1.0" encoding="iso-8859-1"?>
<!-- Generator: Adobe Illustrator 16.0.0, SVG Export Plug-In . SVG Version: 6.00 Build 0)  -->
<!DOCTYPE svg PUBLIC "-//W3C//DTD SVG 1.1//EN" "http://www.w3.org/Graphics/SVG/1.1/DTD/svg11.dtd">
<svg version="1.1" xmlns="http://www.w3.org/2000/svg" xmlns:xlink="http://www.w3.org/1999/xlink" x="0px" y="0px" width="16px"
	 height="16px" viewBox="0 0 16 16" style="enable-background:new 0 0 16 16;" xml:space="preserve">
<g id="_x31_2-location_-_sign_direction_street" style="enable-background:new    ;">
	<path d="M12,2.999v-2c0-0.553-0.447-1-1-1H8c-0.552,0-1,0.447-1,1v2H4l-2,3.5l2,3.5h3v5c0,0.553,0.448,1,1,1h3c0.553,0,1-0.447,1-1
		v-5h3v-7H12z M8,1.499c0-0.276,0.224-0.5,0.5-0.5h2c0.275,0,0.5,0.224,0.5,0.5v1.5H8V1.499z M11,14.499c0,0.275-0.225,0.5-0.5,0.5
		h-2c-0.275,0-0.5-0.225-0.5-0.5v-4.5h3V14.499z M14,8.999H4.5L3,6.499l1.5-2.501H14V8.999z"/>
</g>
<g id="Layer_1">
</g>
</svg>
