<?xml version="1.0" encoding="iso-8859-1"?>
<!-- Generator: Adobe Illustrator 16.0.0, SVG Export Plug-In . SVG Version: 6.00 Build 0)  -->
<!DOCTYPE svg PUBLIC "-//W3C//DTD SVG 1.1//EN" "http://www.w3.org/Graphics/SVG/1.1/DTD/svg11.dtd">
<svg version="1.1" xmlns="http://www.w3.org/2000/svg" xmlns:xlink="http://www.w3.org/1999/xlink" x="0px" y="0px" width="16px"
	 height="16px" viewBox="0 0 16 16" style="enable-background:new 0 0 16 16;" xml:space="preserve">
<g id="_x39_-location_-_pin_map" style="enable-background:new    ;">
	<path style="fill-rule:evenodd;clip-rule:evenodd;" d="M3,10.999H2l-2,5h5v-1.001H1.5L3,10.999z M8,2.999c-1.105,0-2,0.896-2,2
		s0.895,2,2,2c1.103,0,2-0.896,2-2S9.104,2.999,8,2.999z M8,5.999c-0.553,0-1-0.448-1-1c0-0.553,0.447-1,1-1c0.551,0,1,0.447,1,1
		C9,5.551,8.551,5.999,8,5.999z M8-0.002c-3.314,0-6,2.687-6,6c0,3.314,6,10,6,10s6-6.686,6-10C14,2.685,11.313-0.002,8-0.002z
		 M3,6.248c0-2.899,2.238-5.25,5-5.25c2.761,0,5,2.351,5,5.25s-5,8.75-5,8.75S3,9.147,3,6.248z M14,10.999h-1l1.5,3.999H11v1.001h5
		L14,10.999z"/>
</g>
<g id="Layer_1">
</g>
</svg>
