<?xml version="1.0" encoding="iso-8859-1"?>
<!-- Generator: Adobe Illustrator 16.0.0, SVG Export Plug-In . SVG Version: 6.00 Build 0)  -->
<!DOCTYPE svg PUBLIC "-//W3C//DTD SVG 1.1//EN" "http://www.w3.org/Graphics/SVG/1.1/DTD/svg11.dtd">
<svg version="1.1" xmlns="http://www.w3.org/2000/svg" xmlns:xlink="http://www.w3.org/1999/xlink" x="0px" y="0px" width="16px"
	 height="16px" viewBox="0 0 16 16" style="enable-background:new 0 0 16 16;" xml:space="preserve">
<g id="_x31_8-time_-_timer" style="enable-background:new    ;">
	<path d="M8-0.002c-4.418,0-8,3.583-8,8c0,0.973,0.182,1.9,0.5,2.763v0.238h0.087c1.188,2.931,4.057,5,7.413,5
		c4.418,0,8-3.582,8-8.001C16,3.581,12.418-0.002,8-0.002z M8,14.999c-2.788,0-5.174-1.642-6.3-4h12.601
		C13.174,13.357,10.787,14.999,8,14.999z M8.62,9.999L9.98,4.601c0.068-0.258-0.084-0.523-0.344-0.593
		C9.379,3.938,9.113,4.092,9.043,4.351L7.62,9.999H1.325C1.134,9.361,1,8.698,1,7.998c0-3.865,3.134-6.999,7-6.999
		c3.865,0,7,3.134,7,6.999c0,0.7-0.135,1.363-0.326,2.001H8.62z"/>
</g>
<g id="Layer_1">
</g>
</svg>
