<?xml version="1.0" encoding="iso-8859-1"?>
<!-- Generator: Adobe Illustrator 16.0.0, SVG Export Plug-In . SVG Version: 6.00 Build 0)  -->
<!DOCTYPE svg PUBLIC "-//W3C//DTD SVG 1.1//EN" "http://www.w3.org/Graphics/SVG/1.1/DTD/svg11.dtd">
<svg version="1.1" xmlns="http://www.w3.org/2000/svg" xmlns:xlink="http://www.w3.org/1999/xlink" x="0px" y="0px" width="16px"
	 height="16px" viewBox="0 0 16 16" style="enable-background:new 0 0 16 16;" xml:space="preserve">
<g id="_x33_3-time_-_watches" style="enable-background:new    ;">
	<path d="M11,2.83v-2.831H5V2.83C3.214,3.87,2,5.783,2,7.998c0,2.216,1.214,4.129,3,5.168v2.833h6v-2.833
		c1.785-1.039,3-2.952,3-5.168C14,5.783,12.785,3.87,11,2.83z M6,0.998h4v1.367C9.371,2.143,8.705,1.998,8,1.998
		c-0.705,0-1.372,0.145-2,0.367V0.998z M10,14.998H6v-1.367c0.628,0.224,1.295,0.367,2,0.367c0.705,0,1.371-0.144,2-0.367V14.998z
		 M8,12.999c-2.762,0-5-2.239-5-5.001c0-2.761,2.238-4.999,5-4.999s5,2.238,5,4.999C13,10.76,10.762,12.999,8,12.999z"/>
</g>
<g id="Layer_1">
</g>
</svg>
