<?xml version="1.0" encoding="iso-8859-1"?>
<!-- Generator: Adobe Illustrator 16.0.0, SVG Export Plug-In . SVG Version: 6.00 Build 0)  -->
<!DOCTYPE svg PUBLIC "-//W3C//DTD SVG 1.1//EN" "http://www.w3.org/Graphics/SVG/1.1/DTD/svg11.dtd">
<svg version="1.1" xmlns="http://www.w3.org/2000/svg" xmlns:xlink="http://www.w3.org/1999/xlink" x="0px" y="0px" width="16px"
	 height="16px" viewBox="0 0 16 16" style="enable-background:new 0 0 16 16;" xml:space="preserve">
<g id="_x32_4-time_-_stopwatch_timer" style="enable-background:new    ;">
	<path d="M8.5,8.998c-0.275,0-0.5,0.224-0.5,0.5v4.001c0,0.275,0.224,0.499,0.5,0.499c0.276,0,0.5-0.224,0.5-0.499V9.498
		C9,9.222,8.776,8.998,8.5,8.998z M8.502,13.998H8.5v0.001C8.5,13.999,8.501,13.998,8.502,13.998z M9,3.049V1.998h1.5
		c0.275,0,0.5-0.224,0.5-0.5c0-0.275-0.225-0.5-0.5-0.5H8.502c-0.001,0-0.002,0-0.003,0c0,0-0.001,0-0.002,0H6.5
		c-0.276,0-0.5,0.225-0.5,0.5c0,0.276,0.224,0.5,0.5,0.5H8v1.051C4.648,3.309,2,6.08,2,9.498c0,3.59,2.91,6.5,6.5,6.5
		c3.59,0,6.5-2.91,6.5-6.5C15,6.08,12.352,3.309,9,3.049z M8.5,14.999c-3.037,0-5.5-2.463-5.5-5.501c0-3.037,2.462-5.499,5.5-5.499
		c3.038,0,5.5,2.462,5.5,5.499C14,12.536,11.537,14.999,8.5,14.999z M8.5,4.999v0.999c1.934,0,3.5,1.567,3.5,3.5
		c0,0.981-0.406,1.864-1.055,2.5H11v1.24c1.205-0.807,2-2.18,2-3.74C13,7.013,10.984,4.999,8.5,4.999z"/>
</g>
<g id="Layer_1">
</g>
</svg>
