<?xml version="1.0" encoding="iso-8859-1"?>
<!-- Generator: Adobe Illustrator 16.0.0, SVG Export Plug-In . SVG Version: 6.00 Build 0)  -->
<!DOCTYPE svg PUBLIC "-//W3C//DTD SVG 1.1//EN" "http://www.w3.org/Graphics/SVG/1.1/DTD/svg11.dtd">
<svg version="1.1" xmlns="http://www.w3.org/2000/svg" xmlns:xlink="http://www.w3.org/1999/xlink" x="0px" y="0px" width="16px"
	 height="16px" viewBox="0 0 16 16" style="enable-background:new 0 0 16 16;" xml:space="preserve">
<g id="_x32_1-time_-_clock_time_alarm" style="enable-background:new    ;">
	<path d="M1,2.511c0-0.828,0.671-1.499,1.5-1.499c0.232,0,0.446,0.063,0.643,0.157l0.725-0.746C3.474,0.165,3.005,0.013,2.5,0.013
		C1.119,0.013,0,1.131,0,2.511c0,0.532,0.169,1.023,0.454,1.429l0.729-0.75C1.075,2.983,1,2.759,1,2.511z M11.5,8.01H8V4.509
		C8,4.233,7.776,4.01,7.5,4.01C7.224,4.01,7,4.233,7,4.509v3.986c0,0.003-0.002,0.007-0.002,0.011c0,0.106,0.042,0.199,0.1,0.28
		C7.188,8.915,7.33,9.005,7.5,9.005c0.007,0,0.014-0.004,0.021-0.005H11.5c0.277,0,0.502-0.222,0.502-0.494
		C12.002,8.232,11.777,8.01,11.5,8.01z M8,1.012c-3.866,0-7,3.131-7,6.994c0,2.759,1.612,5.121,3.935,6.259L4.124,15.29
		c-0.18,0.228-0.073,0.518,0.238,0.648c0.311,0.132,0.709,0.054,0.888-0.173l0.841-1.063C6.702,14.876,7.333,14.999,8,14.999
		s1.299-0.123,1.908-0.297l0.842,1.063c0.18,0.227,0.576,0.305,0.889,0.173c0.311-0.131,0.418-0.421,0.238-0.648l-0.813-1.025
		C13.387,13.127,15,10.765,15,8.006C15,4.143,11.865,1.012,8,1.012z M8,14c-3.314,0-6-2.684-6-5.994s2.686-5.995,6-5.995
		c3.314,0,6,2.685,6,5.995S11.314,14,8,14z M13.5,0.013c-0.232,0-0.453,0.042-0.666,0.102l0.92,0.949
		c0.633,0.112,1.111,0.602,1.205,1.24l0.918,0.945C15.949,3.015,16,2.77,16,2.511C16,1.131,14.881,0.013,13.5,0.013z"/>
</g>
<g id="Layer_1">
</g>
</svg>
