<?xml version="1.0" encoding="iso-8859-1"?>
<!-- Generator: Adobe Illustrator 16.0.0, SVG Export Plug-In . SVG Version: 6.00 Build 0)  -->
<!DOCTYPE svg PUBLIC "-//W3C//DTD SVG 1.1//EN" "http://www.w3.org/Graphics/SVG/1.1/DTD/svg11.dtd">
<svg version="1.1" xmlns="http://www.w3.org/2000/svg" xmlns:xlink="http://www.w3.org/1999/xlink" x="0px" y="0px" width="16px"
	 height="16px" viewBox="0 0 16 16" style="enable-background:new 0 0 16 16;" xml:space="preserve">
<g id="_x36_-location_-_pin_map" style="enable-background:new    ;">
	<path d="M11.5,14.999H9.336C10.875,13.104,14,8.967,14,6.623c0-3.106-2.463-5.624-5.5-5.624C5.462,0.999,3,3.517,3,6.623
		c0,2.344,3.125,6.481,4.664,8.376H5.5c-0.276,0-0.5,0.224-0.5,0.5s0.224,0.5,0.5,0.5h6c0.275,0,0.5-0.224,0.5-0.5
		S11.775,14.999,11.5,14.999z M4,6.687c0-2.589,2.015-4.688,4.5-4.688S13,4.098,13,6.687s-4.5,7.812-4.5,7.812S4,9.275,4,6.687z
		 M8.5,4C7.119,4,6,5.119,6,6.499C6,7.88,7.119,9,8.5,9C9.881,9,11,7.88,11,6.499C11,5.119,9.881,4,8.5,4z M8.5,8
		C7.671,8,7,7.328,7,6.499C7,5.671,7.671,5,8.5,5C9.328,5,10,5.671,10,6.499C10,7.328,9.328,8,8.5,8z"/>
</g>
<g id="Layer_1">
</g>
</svg>
