<?xml version="1.0" encoding="iso-8859-1"?>
<!-- Generator: Adobe Illustrator 16.0.0, SVG Export Plug-In . SVG Version: 6.00 Build 0)  -->
<!DOCTYPE svg PUBLIC "-//W3C//DTD SVG 1.1//EN" "http://www.w3.org/Graphics/SVG/1.1/DTD/svg11.dtd">
<svg version="1.1" xmlns="http://www.w3.org/2000/svg" xmlns:xlink="http://www.w3.org/1999/xlink" x="0px" y="0px" width="16px"
	 height="16px" viewBox="0 0 16 16" style="enable-background:new 0 0 16 16;" xml:space="preserve">
<g id="_x34_-location_-_pin_map_tick" style="enable-background:new    ;">
	<path style="fill-rule:evenodd;clip-rule:evenodd;" d="M6.883,5.144c-0.204-0.204-0.535-0.204-0.739,0
		c-0.204,0.203-0.204,0.534,0,0.738L8.1,7.838c0.052,0.052,0.111,0.09,0.176,0.115c0.121,0.053,0.257,0.054,0.378,0.002
		C8.721,7.93,8.786,7.892,8.839,7.838c0.016-0.015,0.021-0.035,0.034-0.052l4.984-4.983c0.186-0.188,0.186-0.489,0-0.676
		c-0.188-0.187-0.49-0.187-0.676,0L8.524,6.784L6.883,5.144z M12.994,5.998C12.994,6.02,13,6.04,13,6.062c0,2.796-5,8.438-5,8.438
		S3,8.857,3,6.062c0-2.797,2.239-5.063,5-5.063c1.131,0,2.162,0.395,3,1.035V0.807c-0.883-0.512-1.906-0.809-3-0.809
		c-3.314,0-6,2.687-6,6c0,3.314,6,10,6,10s6-6.686,6-10H12.994z"/>
</g>
<g id="Layer_1">
</g>
</svg>
