<?xml version="1.0" encoding="iso-8859-1"?>
<!-- Generator: Adobe Illustrator 16.0.0, SVG Export Plug-In . SVG Version: 6.00 Build 0)  -->
<!DOCTYPE svg PUBLIC "-//W3C//DTD SVG 1.1//EN" "http://www.w3.org/Graphics/SVG/1.1/DTD/svg11.dtd">
<svg version="1.1" xmlns="http://www.w3.org/2000/svg" xmlns:xlink="http://www.w3.org/1999/xlink" x="0px" y="0px" width="16px"
	 height="16px" viewBox="0 0 16 16" style="enable-background:new 0 0 16 16;" xml:space="preserve">
<g id="_x32_3-time_-_speed_meter" style="enable-background:new    ;">
	<path d="M5.691,9.615l-3.379,3.379H1.501C1.224,12.994,1,13.219,1,13.495v1.002c0,0.277,0.224,0.501,0.501,0.501h1.002
		c0.277,0,0.501-0.224,0.501-0.501v-0.842l3.364-3.363c0.187-0.188,0.187-0.49,0-0.677C6.182,9.428,5.878,9.428,5.691,9.615z
		 M3.505,5.979c0.277,0,0.501-0.225,0.501-0.501V4.475c0-0.276-0.225-0.501-0.501-0.501S3.004,4.198,3.004,4.475v1.003
		C3.004,5.754,3.229,5.979,3.505,5.979z M8.76,7.102L8.136,7.726c-0.172,0.172-0.172,0.451,0,0.624c0.172,0.172,0.452,0.172,0.624,0
		l0.625-0.624c0.172-0.173,0.172-0.452,0-0.624C9.213,6.929,8.933,6.929,8.76,7.102z M11.523,11.991h-1.002
		c-0.277,0-0.502,0.225-0.502,0.502c0,0.276,0.225,0.501,0.502,0.501h1.002c0.277,0,0.502-0.225,0.502-0.501
		C12.025,12.216,11.801,11.991,11.523,11.991z M3.004,0.992v1.002c5.964,0.258,10.744,5.037,11,11h1.002
		C14.748,6.478,9.521,1.251,3.004,0.992z"/>
</g>
<g id="Layer_1">
</g>
</svg>
