<?xml version="1.0" encoding="iso-8859-1"?>
<!-- Generator: Adobe Illustrator 16.0.0, SVG Export Plug-In . SVG Version: 6.00 Build 0)  -->
<!DOCTYPE svg PUBLIC "-//W3C//DTD SVG 1.1//EN" "http://www.w3.org/Graphics/SVG/1.1/DTD/svg11.dtd">
<svg version="1.1" xmlns="http://www.w3.org/2000/svg" xmlns:xlink="http://www.w3.org/1999/xlink" x="0px" y="0px" width="16px"
	 height="16px" viewBox="0 0 16 16" style="enable-background:new 0 0 16 16;" xml:space="preserve">
<g id="_x32_-location_-_street_symbol" style="enable-background:new    ;">
	<path d="M8-0.002c0,0-3,4.001-8,1c0,0,0.5,11.5,8,15.001c7.5-3.501,8-15.001,8-15.001C11,3.999,8-0.002,8-0.002z M8,14.999
		c-3.56-2.076-5.352-6.08-6.227-9.001h12.454C13.352,8.919,11.561,12.923,8,14.999z M1.5,4.999V5.02C1.12,3.531,1,2.498,1,2.498
		c4,1.501,7-0.999,7-0.999s3,2.5,7,0.999c0,0-0.121,1.033-0.5,2.521V4.999H1.5z"/>
</g>
<g id="Layer_1">
</g>
</svg>
