<?xml version="1.0" encoding="iso-8859-1"?>
<!-- Generator: Adobe Illustrator 16.0.0, SVG Export Plug-In . SVG Version: 6.00 Build 0)  -->
<!DOCTYPE svg PUBLIC "-//W3C//DTD SVG 1.1//EN" "http://www.w3.org/Graphics/SVG/1.1/DTD/svg11.dtd">
<svg version="1.1" xmlns="http://www.w3.org/2000/svg" xmlns:xlink="http://www.w3.org/1999/xlink" x="0px" y="0px" width="16px"
	 height="16px" viewBox="0 0 16 16" style="enable-background:new 0 0 16 16;" xml:space="preserve">
<g id="_x37_-location_-_pin_map_add_plus" style="enable-background:new    ;">
	<path d="M10.5,5.999H9v-1.5c0-0.276-0.224-0.5-0.5-0.5c-0.275,0-0.5,0.224-0.5,0.5v1.5H6.5c-0.276,0-0.5,0.224-0.5,0.5
		c0,0.275,0.224,0.5,0.5,0.5H8v1.5c0,0.275,0.224,0.499,0.5,0.499c0.276,0,0.5-0.224,0.5-0.499v-1.5h1.5c0.275,0,0.5-0.225,0.5-0.5
		C11,6.223,10.775,5.999,10.5,5.999z M11.5,14.999H9.336C10.875,13.104,14,8.967,14,6.623c0-3.106-2.463-5.624-5.5-5.624
		C5.462,0.999,3,3.517,3,6.623c0,2.344,3.125,6.481,4.664,8.376H5.5c-0.276,0-0.5,0.224-0.5,0.5s0.224,0.5,0.5,0.5h6
		c0.275,0,0.5-0.224,0.5-0.5S11.775,14.999,11.5,14.999z M4,6.687c0-2.589,2.015-4.688,4.5-4.688S13,4.098,13,6.687
		s-4.5,7.812-4.5,7.812S4,9.275,4,6.687z"/>
</g>
<g id="Layer_1">
</g>
</svg>
