<?xml version="1.0" encoding="iso-8859-1"?>
<!-- Generator: Adobe Illustrator 16.0.0, SVG Export Plug-In . SVG Version: 6.00 Build 0)  -->
<!DOCTYPE svg PUBLIC "-//W3C//DTD SVG 1.1//EN" "http://www.w3.org/Graphics/SVG/1.1/DTD/svg11.dtd">
<svg version="1.1" xmlns="http://www.w3.org/2000/svg" xmlns:xlink="http://www.w3.org/1999/xlink" x="0px" y="0px" width="16px"
	 height="16px" viewBox="0 0 16 16" style="enable-background:new 0 0 16 16;" xml:space="preserve">
<g id="_x32_7-time_-_calendar_date" style="enable-background:new    ;">
	<path d="M6,6.999h3.633L6.56,12.265C6.422,12.5,6.504,12.8,6.744,12.937c0.24,0.135,0.546,0.055,0.685-0.181l3.513-6.02
		c0.006-0.01,0.006-0.021,0.01-0.03c0.008-0.015,0.01-0.029,0.016-0.044c0.07-0.181,0.027-0.378-0.109-0.513
		c-0.006-0.004-0.01-0.007-0.014-0.011c-0.027-0.026-0.051-0.055-0.086-0.074c-0.016-0.009-0.031-0.009-0.047-0.016
		c-0.02-0.009-0.039-0.013-0.059-0.02c-0.041-0.013-0.08-0.022-0.123-0.024c-0.01-0.001-0.02-0.006-0.029-0.006H6
		c-0.276,0-0.5,0.224-0.5,0.499C5.5,6.774,5.724,6.999,6,6.999z M15-0.002H1c-0.552,0-1,0.448-1,1v2v1.001v10.999
		c0,0.553,0.448,1.001,1,1.001h14c0.553,0,1-0.448,1-1.001V3.999V2.998v-2C16,0.446,15.553-0.002,15-0.002z M15,14.498
		c0,0.276-0.225,0.5-0.5,0.5h-13c-0.276,0-0.5-0.224-0.5-0.5V3.999h14V14.498z M15,2.998H1v-1.5c0-0.275,0.224-0.5,0.5-0.5h13
		c0.275,0,0.5,0.225,0.5,0.5V2.998z"/>
</g>
<g id="Layer_1">
</g>
</svg>
