<?xml version="1.0" encoding="iso-8859-1"?>
<!-- Generator: Adobe Illustrator 16.0.0, SVG Export Plug-In . SVG Version: 6.00 Build 0)  -->
<!DOCTYPE svg PUBLIC "-//W3C//DTD SVG 1.1//EN" "http://www.w3.org/Graphics/SVG/1.1/DTD/svg11.dtd">
<svg version="1.1" xmlns="http://www.w3.org/2000/svg" xmlns:xlink="http://www.w3.org/1999/xlink" x="0px" y="0px" width="16px"
	 height="16px" viewBox="0 0 16 16" style="enable-background:new 0 0 16 16;" xml:space="preserve">
<g id="_x32_6-time_-_stopwatch_timer" style="enable-background:new    ;">
	<path d="M8.5,11.998c-0.275,0-0.5,0.225-0.5,0.501v1c0,0.275,0.224,0.5,0.5,0.5c0.276,0,0.5-0.225,0.5-0.5v-1
		C9,12.223,8.776,11.998,8.5,11.998z M5.499,9h-1c-0.276,0-0.5,0.224-0.5,0.5c0,0.275,0.224,0.5,0.5,0.5h1
		c0.276,0,0.5-0.225,0.5-0.5C5.999,9.224,5.775,9,5.499,9z M6.5,0.998H8v1c0,0.276,0.224,0.501,0.5,0.501
		c0.276,0,0.5-0.225,0.5-0.501v-1h1.5c0.275,0,0.5-0.224,0.5-0.5c0-0.275-0.225-0.5-0.5-0.5h-4c-0.276,0-0.5,0.225-0.5,0.5
		C6,0.774,6.224,0.998,6.5,0.998z M12.498,9h-1c-0.275,0-0.5,0.224-0.5,0.5c0,0.275,0.225,0.5,0.5,0.5h1c0.277,0,0.5-0.225,0.5-0.5
		C12.998,9.224,12.775,9,12.498,9z M8.5,4.998c-0.275,0-0.5,0.225-0.5,0.5v1.001c0,0.275,0.224,0.5,0.5,0.5
		c0.276,0,0.5-0.225,0.5-0.5V5.498C9,5.223,8.776,4.998,8.5,4.998z M8.5,2.998c-3.589,0-6.5,2.911-6.5,6.5
		c0,3.59,2.91,6.501,6.5,6.501c3.59,0,6.5-2.911,6.5-6.501C15,5.909,12.09,2.998,8.5,2.998z M8.5,14.998c-3.037,0-5.5-2.462-5.5-5.5
		c0-3.037,2.462-5.499,5.5-5.499c3.038,0,5.5,2.462,5.5,5.499C14,12.536,11.537,14.998,8.5,14.998z"/>
</g>
<g id="Layer_1">
</g>
</svg>
