<?xml version="1.0" encoding="iso-8859-1"?>
<!-- Generator: Adobe Illustrator 16.0.0, SVG Export Plug-In . SVG Version: 6.00 Build 0)  -->
<!DOCTYPE svg PUBLIC "-//W3C//DTD SVG 1.1//EN" "http://www.w3.org/Graphics/SVG/1.1/DTD/svg11.dtd">
<svg version="1.1" xmlns="http://www.w3.org/2000/svg" xmlns:xlink="http://www.w3.org/1999/xlink" x="0px" y="0px" width="16px"
	 height="16px" viewBox="0 0 16 16" style="enable-background:new 0 0 16 16;" xml:space="preserve">
<g id="_x31_9-time_-_hour_glass" style="enable-background:new    ;">
	<path d="M13.5,14.999H12v-4.5c0-0.002,0-0.002,0-0.004c-0.002-0.024-0.01-0.049-0.016-0.073c-0.035-0.224-3.233-2.423-3.233-2.423
		s3.198-2.2,3.233-2.423C11.99,5.551,11.998,5.527,12,5.502c0-0.001,0-0.002,0-0.003v-4.5h1.5c0.275,0,0.5-0.224,0.5-0.5
		s-0.225-0.501-0.5-0.501h-11C2.224-0.002,2,0.223,2,0.499s0.224,0.5,0.5,0.5H4v4.5C4,5.5,4,5.501,4,5.502
		c0.002,0.025,0.009,0.049,0.015,0.074c0.036,0.223,3.233,2.423,3.233,2.423s-3.198,2.199-3.233,2.423
		C4.009,10.446,4.002,10.471,4,10.496c0,0.001,0,0.001,0,0.003v4.5H2.5c-0.276,0-0.5,0.224-0.5,0.499c0,0.276,0.224,0.501,0.5,0.501
		h11c0.275,0,0.5-0.225,0.5-0.501C14,15.223,13.775,14.999,13.5,14.999z M5,5.3V0.999h6V5.3L8,7.458L5,5.3z M11,14.999H5v-4.302
		l3-2.158l3,2.158V14.999z"/>
</g>
<g id="Layer_1">
</g>
</svg>
