<?xml version="1.0" encoding="iso-8859-1"?>
<!-- Generator: Adobe Illustrator 16.0.0, SVG Export Plug-In . SVG Version: 6.00 Build 0)  -->
<!DOCTYPE svg PUBLIC "-//W3C//DTD SVG 1.1//EN" "http://www.w3.org/Graphics/SVG/1.1/DTD/svg11.dtd">
<svg version="1.1" xmlns="http://www.w3.org/2000/svg" xmlns:xlink="http://www.w3.org/1999/xlink" x="0px" y="0px" width="16px"
	 height="16px" viewBox="0 0 16 16" style="enable-background:new 0 0 16 16;" xml:space="preserve">
<g id="_x32_9-time_-_clock" style="enable-background:new    ;">
	<path d="M15-0.002H1c-0.552,0-1,0.448-1,1v14c0,0.553,0.448,1.001,1,1.001h14c0.553,0,1-0.448,1-1.001v-14
		C16,0.446,15.553-0.002,15-0.002z M15,14.498c0,0.276-0.225,0.5-0.5,0.5h-13c-0.276,0-0.5-0.224-0.5-0.5v-13
		c0-0.275,0.224-0.5,0.5-0.5h13c0.275,0,0.5,0.225,0.5,0.5V14.498z M8.5,1.998C8.224,1.998,8,2.223,8,2.499v5.5H4.5
		C4.224,7.999,4,8.223,4,8.498c0,0.276,0.224,0.5,0.5,0.5h4c0.276,0,0.5-0.224,0.5-0.5V2.499C9,2.223,8.776,1.998,8.5,1.998z"/>
</g>
<g id="Layer_1">
</g>
</svg>
