<?xml version="1.0" encoding="iso-8859-1"?>
<!-- Generator: Adobe Illustrator 16.0.0, SVG Export Plug-In . SVG Version: 6.00 Build 0)  -->
<!DOCTYPE svg PUBLIC "-//W3C//DTD SVG 1.1//EN" "http://www.w3.org/Graphics/SVG/1.1/DTD/svg11.dtd">
<svg version="1.1" xmlns="http://www.w3.org/2000/svg" xmlns:xlink="http://www.w3.org/1999/xlink" x="0px" y="0px" width="16px"
	 height="16px" viewBox="0 0 16 16" style="enable-background:new 0 0 16 16;" xml:space="preserve">
<g id="_x32_5-tool_-_console_game_controller" style="enable-background:new    ;">
	<path d="M15,14.499c0-0.828-0.672-1.5-1.5-1.5H9V8.948c2.247-0.252,4-2.136,4-4.449c0-2.485-2.016-4.5-4.5-4.5S4,2.014,4,4.499
		c0,2.313,1.753,4.197,4,4.449v4.051H3.5c-0.829,0-1.5,0.672-1.5,1.5c0,0.177,0,0.5,0,0.5v1h1.5h10H15v-1
		C15,14.999,15,14.676,15,14.499z M5,4.499c0-1.933,1.567-3.5,3.5-3.5c1.934,0,3.5,1.567,3.5,3.5s-1.566,3.5-3.5,3.5
		C6.567,7.999,5,6.432,5,4.499z M14,14.999h-0.5h-10H3v-0.5c0-0.276,0.224-0.5,0.5-0.5h10c0.275,0,0.5,0.224,0.5,0.5V14.999z"/>
</g>
<g id="Layer_1">
</g>
</svg>
