<?xml version="1.0" encoding="iso-8859-1"?>
<!-- Generator: Adobe Illustrator 16.0.0, SVG Export Plug-In . SVG Version: 6.00 Build 0)  -->
<!DOCTYPE svg PUBLIC "-//W3C//DTD SVG 1.1//EN" "http://www.w3.org/Graphics/SVG/1.1/DTD/svg11.dtd">
<svg version="1.1" xmlns="http://www.w3.org/2000/svg" xmlns:xlink="http://www.w3.org/1999/xlink" x="0px" y="0px" width="16px"
	 height="16px" viewBox="0 0 16 16" style="enable-background:new 0 0 16 16;" xml:space="preserve">
<g id="_x32_9-tool_-_tv_television" style="enable-background:new    ;">
	<path d="M9,5.999H3c-0.552,0-1,0.447-1,0.999v6.001c0,0.552,0.448,0.999,1,0.999h6c0.553,0,1-0.447,1-0.999V6.998
		C10,6.446,9.553,5.999,9,5.999z M9,12.499c0,0.276-0.224,0.5-0.5,0.5h-5c-0.276,0-0.5-0.224-0.5-0.5v-5
		c0-0.276,0.224-0.501,0.5-0.501h5c0.276,0,0.5,0.225,0.5,0.501V12.499z M13.5,5.999h-2c-0.275,0-0.5,0.224-0.5,0.5
		s0.225,0.499,0.5,0.499h2c0.275,0,0.5-0.223,0.5-0.499S13.775,5.999,13.5,5.999z M14,3.999H9.234l2.117-2.108
		c0.203-0.204,0.203-0.535,0-0.739c-0.205-0.204-0.537-0.204-0.742,0L8.003,3.746l-2.6-2.609c-0.204-0.205-0.535-0.205-0.739,0
		c-0.204,0.204-0.204,0.536,0,0.741l2.112,2.121H2c-1.104,0-2,0.896-2,2v7.999c0,1.105,0.896,2.001,2,2.001h12
		c1.105,0,2-0.896,2-2.001V5.999C16,4.895,15.105,3.999,14,3.999z M15,13.998c0,0.553-0.447,1.001-1,1.001H2
		c-0.552,0-1-0.448-1-1.001V5.999c0-0.552,0.448-1,1-1h12c0.553,0,1,0.448,1,1V13.998z M13.5,7.999h-2c-0.275,0-0.5,0.224-0.5,0.5
		s0.225,0.5,0.5,0.5h2c0.275,0,0.5-0.224,0.5-0.5S13.775,7.999,13.5,7.999z M13,10.999h-1c-0.553,0-1,0.447-1,1v1
		c0,0.552,0.447,0.999,1,0.999h1c0.553,0,1-0.447,1-0.999v-1C14,11.446,13.553,10.999,13,10.999z M13,12.999h-1v-1h1V12.999z"/>
</g>
<g id="Layer_1">
</g>
</svg>
