<?xml version="1.0" encoding="iso-8859-1"?>
<!-- Generator: Adobe Illustrator 16.0.0, SVG Export Plug-In . SVG Version: 6.00 Build 0)  -->
<!DOCTYPE svg PUBLIC "-//W3C//DTD SVG 1.1//EN" "http://www.w3.org/Graphics/SVG/1.1/DTD/svg11.dtd">
<svg version="1.1" xmlns="http://www.w3.org/2000/svg" xmlns:xlink="http://www.w3.org/1999/xlink" x="0px" y="0px" width="16px"
	 height="16px" viewBox="0 0 16 16" style="enable-background:new 0 0 16 16;" xml:space="preserve">
<g id="_x34_8-tool_-_calculator" style="enable-background:new    ;">
	<path d="M11.5,12.999h2c0.275,0,0.5-0.225,0.5-0.5v-2c0-0.276-0.225-0.5-0.5-0.5h-2c-0.275,0-0.5,0.224-0.5,0.5v2
		C11,12.774,11.225,12.999,11.5,12.999z M12,10.998h1v1.001h-1V10.998z M11.5,8.999h2c0.275,0,0.5-0.225,0.5-0.5v-2
		c0-0.276-0.225-0.5-0.5-0.5h-2c-0.275,0-0.5,0.224-0.5,0.5v2C11,8.774,11.225,8.999,11.5,8.999z M12,6.999h1v1h-1V6.999z
		 M3.5,12.999h2c0.276,0,0.5-0.225,0.5-0.5v-2c0-0.276-0.224-0.5-0.5-0.5h-2c-0.276,0-0.5,0.224-0.5,0.5v2
		C3,12.774,3.224,12.999,3.5,12.999z M4,10.998h1v1.001H4V10.998z M7.5,8.999h2c0.275,0,0.5-0.225,0.5-0.5v-2
		c0-0.276-0.225-0.5-0.5-0.5h-2c-0.276,0-0.5,0.224-0.5,0.5v2C7,8.774,7.224,8.999,7.5,8.999z M8,6.999h1v1H8V6.999z M15-0.001H2
		c-0.552,0-1,0.447-1,1v14c0,0.552,0.448,1,1,1h13c0.553,0,1-0.448,1-1v-14C16,0.446,15.553-0.001,15-0.001z M15,14.498
		c0,0.277-0.225,0.501-0.5,0.501h-12c-0.276,0-0.5-0.224-0.5-0.501V3.999h13V14.498z M15,2.998H2V1.499c0-0.276,0.224-0.5,0.5-0.5
		h12c0.275,0,0.5,0.224,0.5,0.5V2.998z M3.5,8.999h2c0.276,0,0.5-0.225,0.5-0.5v-2c0-0.276-0.224-0.5-0.5-0.5h-2
		c-0.276,0-0.5,0.224-0.5,0.5v2C3,8.774,3.224,8.999,3.5,8.999z M4,6.999h1v1H4V6.999z M7.5,12.999h2c0.275,0,0.5-0.225,0.5-0.5v-2
		c0-0.276-0.225-0.5-0.5-0.5h-2c-0.276,0-0.5,0.224-0.5,0.5v2C7,12.774,7.224,12.999,7.5,12.999z M8,10.998h1v1.001H8V10.998z"/>
</g>
<g id="Layer_1">
</g>
</svg>
