<?xml version="1.0" encoding="iso-8859-1"?>
<!-- Generator: Adobe Illustrator 16.0.0, SVG Export Plug-In . SVG Version: 6.00 Build 0)  -->
<!DOCTYPE svg PUBLIC "-//W3C//DTD SVG 1.1//EN" "http://www.w3.org/Graphics/SVG/1.1/DTD/svg11.dtd">
<svg version="1.1" xmlns="http://www.w3.org/2000/svg" xmlns:xlink="http://www.w3.org/1999/xlink" x="0px" y="0px" width="16px"
	 height="16px" viewBox="0 0 16 16" style="enable-background:new 0 0 16 16;" xml:space="preserve">
<g id="_x32_4-tool_-_console_game_controller" style="enable-background:new    ;">
	<path d="M5,5.999H4v2H2v1h2v2h1v-2h2v-1H5V5.999z M12.309,5.998l-3.31,2.31l0.693,0.693l3.311-2.311L12.309,5.998z M11.5,4h-7
		C2.015,4,0,6.015,0,8.499c0,2.486,2.015,4.5,4.5,4.5h7c2.484,0,4.5-2.014,4.5-4.5C16,6.015,13.984,4,11.5,4z M11.5,12h-7
		C2.567,12,1,10.433,1,8.499C1,6.566,2.567,5,4.5,5h7C13.434,5,15,6.566,15,8.499C15,10.433,13.434,12,11.5,12z M13.309,7.998
		l-3.311,2.31L10.691,11l3.311-2.31L13.309,7.998z"/>
</g>
<g id="Layer_1">
</g>
</svg>
