<?xml version="1.0" encoding="iso-8859-1"?>
<!-- Generator: Adobe Illustrator 16.0.0, SVG Export Plug-In . SVG Version: 6.00 Build 0)  -->
<!DOCTYPE svg PUBLIC "-//W3C//DTD SVG 1.1//EN" "http://www.w3.org/Graphics/SVG/1.1/DTD/svg11.dtd">
<svg version="1.1" xmlns="http://www.w3.org/2000/svg" xmlns:xlink="http://www.w3.org/1999/xlink" x="0px" y="0px" width="16px"
	 height="16px" viewBox="0 0 16 16" style="enable-background:new 0 0 16 16;" xml:space="preserve">
<g id="_x34_2-tool_-_scissor" style="enable-background:new    ;">
	<path d="M14.746,13.064L7.848,7.995l6.902-5.072c0.252-0.139,0.338-0.445,0.191-0.685c-0.145-0.239-0.465-0.321-0.715-0.184
		l-7.23,5.314L4.755,5.723c0.845-0.412,1.43-1.248,1.43-2.224c0-1.381-1.161-2.5-2.592-2.5C2.161,0.999,1,2.118,1,3.499
		C1,4.817,2.061,5.886,3.403,5.98l2.741,2.015L3.39,10.019C2.055,10.12,1,11.186,1,12.499c0,1.381,1.161,2.5,2.593,2.5
		c1.432,0,2.592-1.119,2.592-2.5c0-0.978-0.588-1.815-1.436-2.227l2.247-1.651l7.227,5.311c0.25,0.139,0.57,0.057,0.717-0.183
		C15.084,13.51,14.998,13.203,14.746,13.064z M3.621,4.994C3.606,4.993,3.593,4.996,3.579,4.996
		C2.727,4.989,2.037,4.323,2.037,3.499c0-0.828,0.696-1.5,1.556-1.5c0.859,0,1.555,0.672,1.555,1.5
		C5.148,4.318,4.466,4.979,3.621,4.994z M5.148,12.499c0,0.828-0.696,1.5-1.555,1.5c-0.859,0-1.556-0.672-1.556-1.5
		s0.696-1.5,1.556-1.5C4.452,10.999,5.148,11.671,5.148,12.499z"/>
</g>
<g id="Layer_1">
</g>
</svg>
