<?xml version="1.0" encoding="iso-8859-1"?>
<!-- Generator: Adobe Illustrator 16.0.0, SVG Export Plug-In . SVG Version: 6.00 Build 0)  -->
<!DOCTYPE svg PUBLIC "-//W3C//DTD SVG 1.1//EN" "http://www.w3.org/Graphics/SVG/1.1/DTD/svg11.dtd">
<svg version="1.1" xmlns="http://www.w3.org/2000/svg" xmlns:xlink="http://www.w3.org/1999/xlink" x="0px" y="0px" width="16px"
	 height="16px" viewBox="0 0 16 16" style="enable-background:new 0 0 16 16;" xml:space="preserve">
<g id="_x31_9-tool_-_computer_monitor_mac" style="enable-background:new    ;">
	<path d="M15-0.001H1c-0.552,0-1,0.447-1,1v11c0,0.553,0.448,1,1,1h4v2H4v1h8v-1h-1v-2h4c0.553,0,1-0.447,1-1v-11
		C16,0.446,15.553-0.001,15-0.001z M10,14.999H6v-2h4V14.999z M15,11.499c0,0.276-0.225,0.5-0.5,0.5H11H5H1.5
		c-0.276,0-0.5-0.224-0.5-0.5v-1.5h14V11.499z M15,8.999H1v-7.5c0-0.276,0.224-0.5,0.5-0.5h13c0.275,0,0.5,0.224,0.5,0.5V8.999z"/>
</g>
<g id="Layer_1">
</g>
</svg>
