<?xml version="1.0" encoding="iso-8859-1"?>
<!-- Generator: Adobe Illustrator 16.0.0, SVG Export Plug-In . SVG Version: 6.00 Build 0)  -->
<!DOCTYPE svg PUBLIC "-//W3C//DTD SVG 1.1//EN" "http://www.w3.org/Graphics/SVG/1.1/DTD/svg11.dtd">
<svg version="1.1" xmlns="http://www.w3.org/2000/svg" xmlns:xlink="http://www.w3.org/1999/xlink" x="0px" y="0px" width="16px"
	 height="16px" viewBox="0 0 16 16" style="enable-background:new 0 0 16 16;" xml:space="preserve">
<g id="_x31_0-tool_-_console_gameboy" style="enable-background:new    ;">
	<path d="M2,6.999h1v-1H2V6.999z M2,8.998h1V7.999H2V8.998z M13,2.999H3c-1.657,0-3,1.343-3,3v5c0,1.657,1.343,3,3,3h10
		c1.656,0,3-1.343,3-3v-5C16,4.342,14.656,2.999,13,2.999z M15,10.999c0,1.104-0.895,2-2,2H3c-1.104,0-2-0.896-2-2v-5
		c0-1.104,0.896-2,2-2h10c1.105,0,2,0.896,2,2V10.999z M5,4.999H4v1v5v1h1h6h1v-1v-5v-1h-1H5z M11,10.999H5v-5h6V10.999z M13,6.999
		h1v-1h-1V6.999z M13,8.998h1V7.999h-1V8.998z"/>
</g>
<g id="Layer_1">
</g>
</svg>
