<?xml version="1.0" encoding="iso-8859-1"?>
<!-- Generator: Adobe Illustrator 16.0.0, SVG Export Plug-In . SVG Version: 6.00 Build 0)  -->
<!DOCTYPE svg PUBLIC "-//W3C//DTD SVG 1.1//EN" "http://www.w3.org/Graphics/SVG/1.1/DTD/svg11.dtd">
<svg version="1.1" xmlns="http://www.w3.org/2000/svg" xmlns:xlink="http://www.w3.org/1999/xlink" x="0px" y="0px" width="16px"
	 height="16px" viewBox="0 0 16 16" style="enable-background:new 0 0 16 16;" xml:space="preserve">
<g id="_x37_-tool_-_camera" style="enable-background:new    ;">
	<path d="M6,2.999v-2H0v2v1v12h16v-13H6z M1,1.999h4v1H1V1.999z M15,14.999H1v-11h5h9V14.999z M3,9.999c0,2.209,1.791,4,4,4
		s4-1.791,4-4s-1.791-4-4-4S3,7.79,3,9.999z M7,6.999c1.657,0,3,1.343,3,3c0,1.656-1.343,3-3,3s-3-1.344-3-3
		C4,8.342,5.343,6.999,7,6.999z M14,4.999h-3v1h3V4.999z"/>
</g>
<g id="Layer_1">
</g>
</svg>
