<?xml version="1.0" encoding="iso-8859-1"?>
<!-- Generator: Adobe Illustrator 16.0.0, SVG Export Plug-In . SVG Version: 6.00 Build 0)  -->
<!DOCTYPE svg PUBLIC "-//W3C//DTD SVG 1.1//EN" "http://www.w3.org/Graphics/SVG/1.1/DTD/svg11.dtd">
<svg version="1.1" xmlns="http://www.w3.org/2000/svg" xmlns:xlink="http://www.w3.org/1999/xlink" x="0px" y="0px" width="16px"
	 height="16px" viewBox="0 0 16 16" style="enable-background:new 0 0 16 16;" xml:space="preserve">
<g id="_x33_8-tool_-_medical_tape" style="enable-background:new    ;">
	<path d="M9.773,4.045L9.055,4.762l0.719,0.718l0.721-0.718L9.773,4.045z M11.213,4.045l0.719,0.717l0.719-0.717l-0.719-0.718
		L11.213,4.045z M14.088,2.609l-0.719-0.717c-1.191-1.189-3.123-1.189-4.314,0l-2.876,2.87V4.762L5.501,5.438L1.864,9.067
		c-1.191,1.188-1.191,3.116,0,4.306l0.719,0.717c1.191,1.188,3.123,1.188,4.314,0l3.909-3.9l0.406-0.404l2.875-2.87
		C15.281,5.726,15.281,3.799,14.088,2.609z M6.179,13.373c-0.794,0.792-2.083,0.792-2.877,0l-0.719-0.718
		c-0.794-0.793-0.794-2.078,0-2.87l3.596-3.588l3.595,3.588L6.179,13.373z M13.369,6.197l-2.877,2.87L6.898,5.479l2.875-2.87
		c0.795-0.792,2.082-0.792,2.877,0l0.719,0.718C14.164,4.12,14.164,5.405,13.369,6.197z M10.494,6.197l0.719,0.718l0.719-0.718
		l-0.719-0.718L10.494,6.197z"/>
</g>
<g id="Layer_1">
</g>
</svg>
