<?xml version="1.0" encoding="iso-8859-1"?>
<!-- Generator: Adobe Illustrator 16.0.0, SVG Export Plug-In . SVG Version: 6.00 Build 0)  -->
<!DOCTYPE svg PUBLIC "-//W3C//DTD SVG 1.1//EN" "http://www.w3.org/Graphics/SVG/1.1/DTD/svg11.dtd">
<svg version="1.1" xmlns="http://www.w3.org/2000/svg" xmlns:xlink="http://www.w3.org/1999/xlink" x="0px" y="0px" width="16px"
	 height="16px" viewBox="0 0 16 16" style="enable-background:new 0 0 16 16;" xml:space="preserve">
<g id="_x36_-tool_-_camera" style="enable-background:new    ;">
	<path d="M15,2.999h-2.5l-0.5-1c0,0-0.447-1-1-1H5c-0.552,0-1,1-1,1l-0.5,1H1c-0.552,0-1,0.447-1,1v10c0,0.552,0.448,1,1,1h14
		c0.553,0,1-0.448,1-1v-10C16,3.446,15.553,2.999,15,2.999z M15,13.499c0,0.275-0.225,0.5-0.5,0.5h-13c-0.276,0-0.5-0.225-0.5-0.5
		v-9c0-0.276,0.224-0.5,0.5-0.5h2.532C4.021,3.957,4.8,2.623,4.8,2.623s0.358-0.624,0.8-0.624h4.8c0.441,0,0.799,0.624,0.799,0.624
		s0.779,1.334,0.768,1.376H14.5c0.275,0,0.5,0.224,0.5,0.5V13.499z M8,4.999c-2.209,0-4,1.79-4,4c0,2.209,1.791,4,4,4s4-1.791,4-4
		C12,6.789,10.209,4.999,8,4.999z M8,11.999c-1.657,0-3-1.344-3-3c0-1.657,1.343-3.001,3-3.001c1.656,0,3,1.344,3,3.001
		C11,10.655,9.656,11.999,8,11.999z"/>
</g>
<g id="Layer_1">
</g>
</svg>
