<?xml version="1.0" encoding="iso-8859-1"?>
<!-- Generator: Adobe Illustrator 16.0.0, SVG Export Plug-In . SVG Version: 6.00 Build 0)  -->
<!DOCTYPE svg PUBLIC "-//W3C//DTD SVG 1.1//EN" "http://www.w3.org/Graphics/SVG/1.1/DTD/svg11.dtd">
<svg version="1.1" xmlns="http://www.w3.org/2000/svg" xmlns:xlink="http://www.w3.org/1999/xlink" x="0px" y="0px" width="16px"
	 height="16px" viewBox="0 0 16 16" style="enable-background:new 0 0 16 16;" xml:space="preserve">
<g id="_x32_-tool_-_magic_wand_interface" style="enable-background:new    ;">
	<path d="M9.006,9.95v3.043h1V9.948C9.674,9.997,9.338,9.997,9.006,9.95z M6.704,8.578l-6.701,6.701l0.717,0.717l4.021-4.021
		l2.679-2.679c-0.135-0.101-0.272-0.2-0.395-0.322C6.903,8.851,6.804,8.714,6.704,8.578z M6.051,5.993H3.006v0.999h3.043
		C6.002,6.66,6.002,6.325,6.051,5.993z M7.026,4.028c0.114-0.114,0.242-0.205,0.368-0.3L4.662,0.996L3.994,1.664l2.732,2.732
		C6.821,4.271,6.912,4.143,7.026,4.028z M11.971,8.974c-0.113,0.113-0.24,0.202-0.365,0.297l2.732,2.732l0.668-0.668l-2.732-2.732
		C12.178,8.729,12.086,8.858,11.971,8.974z M9.006,3.052c0.332-0.047,0.668-0.047,1,0.002v-3.061h-1V3.052z M12.945,5.993
		c0.049,0.332,0.049,0.667,0.002,0.999h3.059V5.993H12.945z M12.271,4.397l2.734-2.733l-0.668-0.668l-2.734,2.733
		c0.125,0.096,0.254,0.186,0.367,0.299C12.086,4.144,12.176,4.272,12.271,4.397z"/>
</g>
<g id="Layer_1">
</g>
</svg>
