<?xml version="1.0" encoding="iso-8859-1"?>
<!-- Generator: Adobe Illustrator 16.0.0, SVG Export Plug-In . SVG Version: 6.00 Build 0)  -->
<!DOCTYPE svg PUBLIC "-//W3C//DTD SVG 1.1//EN" "http://www.w3.org/Graphics/SVG/1.1/DTD/svg11.dtd">
<svg version="1.1" xmlns="http://www.w3.org/2000/svg" xmlns:xlink="http://www.w3.org/1999/xlink" x="0px" y="0px" width="16px"
	 height="16px" viewBox="0 0 16 16" style="enable-background:new 0 0 16 16;" xml:space="preserve">
<g id="_x31_3-tool_-_cell_phone_iphone_mobile" style="enable-background:new    ;">
	<path d="M8,13.998c0.552,0,1-0.447,1-0.999c0-0.553-0.447-1-1-1s-1,0.447-1,1C7,13.551,7.448,13.998,8,13.998z M11-0.001H5
		c-1.104,0-2,0.896-2,2v1v1v6v1v2.999c0,1.105,0.896,2.001,2,2.001h6c1.105,0,2-0.896,2-2.001v-2.999v-1v-6v-1v-1
		C13,0.895,12.105-0.001,11-0.001z M12,13.998c0,0.553-0.447,1.001-1,1.001H5c-0.552,0-1-0.448-1-1.001v-2.999h8V13.998z M12,9.999
		H4v-6h8V9.999z M12,2.999H4v-1c0-0.553,0.448-1,1-1h6c0.553,0,1,0.447,1,1V2.999z"/>
</g>
<g id="Layer_1">
</g>
</svg>
