<?xml version="1.0" encoding="iso-8859-1"?>
<!-- Generator: Adobe Illustrator 16.0.0, SVG Export Plug-In . SVG Version: 6.00 Build 0)  -->
<!DOCTYPE svg PUBLIC "-//W3C//DTD SVG 1.1//EN" "http://www.w3.org/Graphics/SVG/1.1/DTD/svg11.dtd">
<svg version="1.1" xmlns="http://www.w3.org/2000/svg" xmlns:xlink="http://www.w3.org/1999/xlink" x="0px" y="0px" width="16px"
	 height="16px" viewBox="0 0 16 16" style="enable-background:new 0 0 16 16;" xml:space="preserve">
<g id="_x33_2-tool_-_flashlight" style="enable-background:new    ;">
	<path d="M14,4.999h-1h-1c-0.738,0-1.377,0.405-1.723,1H8v-1H4v1H1c-0.552,0-1,0.448-1,1v3c0,0.553,0.448,1,1,1h9.277
		c0.346,0.596,0.984,1,1.723,1h1h1h2v-2v-3v-2H14z M5,5.999h2v1H5V5.999z M10,9.999H1.5c-0.276,0-0.5-0.224-0.5-0.5v-2
		c0-0.276,0.224-0.5,0.5-0.5H4v1h4v-1h2V9.999z M13,10.999h-1c-0.553,0-1-0.447-1-1v-3c0-0.552,0.447-1,1-1h1V10.999z M15,10.999h-1
		v-5h1V10.999z"/>
</g>
<g id="Layer_1">
</g>
</svg>
