<?xml version="1.0" encoding="iso-8859-1"?>
<!-- Generator: Adobe Illustrator 16.0.0, SVG Export Plug-In . SVG Version: 6.00 Build 0)  -->
<!DOCTYPE svg PUBLIC "-//W3C//DTD SVG 1.1//EN" "http://www.w3.org/Graphics/SVG/1.1/DTD/svg11.dtd">
<svg version="1.1" xmlns="http://www.w3.org/2000/svg" xmlns:xlink="http://www.w3.org/1999/xlink" x="0px" y="0px" width="16px"
	 height="16px" viewBox="0 0 16 16" style="enable-background:new 0 0 16 16;" xml:space="preserve">
<g id="_x31_7-tool_-_cell_phone_android_mobile" style="enable-background:new    ;">
	<path d="M8,11.999c-0.552,0-1,0.447-1,1c0,0.552,0.448,0.999,1,0.999s1-0.447,1-0.999C9,12.446,8.552,11.999,8,11.999z M9.5,1.999
		h-3c-0.276,0-0.5,0.224-0.5,0.5c0,0.275,0.224,0.5,0.5,0.5h3c0.275,0,0.5-0.225,0.5-0.5C10,2.223,9.775,1.999,9.5,1.999z M11-0.001
		H5c-1.657,0-3,1.343-3,3v10c0,1.656,1.343,3,3,3h6c1.656,0,3-1.344,3-3v-10C14,1.342,12.656-0.001,11-0.001z M13,13.499
		c0,0.828-0.672,1.5-1.5,1.5h-7c-0.829,0-1.5-0.672-1.5-1.5v-11c0-0.829,0.671-1.5,1.5-1.5h7c0.828,0,1.5,0.671,1.5,1.5V13.499z"/>
</g>
<g id="Layer_1">
</g>
</svg>
