<?xml version="1.0" encoding="iso-8859-1"?>
<!-- Generator: Adobe Illustrator 16.0.0, SVG Export Plug-In . SVG Version: 6.00 Build 0)  -->
<!DOCTYPE svg PUBLIC "-//W3C//DTD SVG 1.1//EN" "http://www.w3.org/Graphics/SVG/1.1/DTD/svg11.dtd">
<svg version="1.1" xmlns="http://www.w3.org/2000/svg" xmlns:xlink="http://www.w3.org/1999/xlink" x="0px" y="0px" width="16px"
	 height="16px" viewBox="0 0 16 16" style="enable-background:new 0 0 16 16;" xml:space="preserve">
<g id="_x34_3-tool_-_toothbrush" style="enable-background:new    ;">
	<path d="M11.5,5.999h-4c-0.276,0-0.5,0.224-0.5,0.5s0.224,0.5,0.5,0.5h4c0.275,0,0.5-0.224,0.5-0.5S11.775,5.999,11.5,5.999z
		 M5.5-0.001c-0.276,0-0.5,0.225-0.5,0.5v15c0,0.276,0.224,0.5,0.5,0.5s0.5-0.224,0.5-0.5v-15C6,0.224,5.776-0.001,5.5-0.001z
		 M7.5,0.999h4c0.275,0,0.5-0.224,0.5-0.5c0-0.275-0.225-0.5-0.5-0.5h-4c-0.276,0-0.5,0.225-0.5,0.5C7,0.775,7.224,0.999,7.5,0.999z
		 M11.5,1.999h-4c-0.276,0-0.5,0.224-0.5,0.5s0.224,0.5,0.5,0.5h4c0.275,0,0.5-0.224,0.5-0.5S11.775,1.999,11.5,1.999z M11.5,3.999
		h-4c-0.276,0-0.5,0.225-0.5,0.5c0,0.276,0.224,0.5,0.5,0.5h4c0.275,0,0.5-0.224,0.5-0.5C12,4.224,11.775,3.999,11.5,3.999z"/>
</g>
<g id="Layer_1">
</g>
</svg>
