<?xml version="1.0" encoding="iso-8859-1"?>
<!-- Generator: Adobe Illustrator 16.0.0, SVG Export Plug-In . SVG Version: 6.00 Build 0)  -->
<!DOCTYPE svg PUBLIC "-//W3C//DTD SVG 1.1//EN" "http://www.w3.org/Graphics/SVG/1.1/DTD/svg11.dtd">
<svg version="1.1" xmlns="http://www.w3.org/2000/svg" xmlns:xlink="http://www.w3.org/1999/xlink" x="0px" y="0px" width="16px"
	 height="16px" viewBox="0 0 16 16" style="enable-background:new 0 0 16 16;" xml:space="preserve">
<g id="_x31_4-tool_-_cell_phone_iphone_mobile_landscape" style="enable-background:new    ;">
	<path d="M3,8.999c0.552,0,1-0.448,1-1c0-0.553-0.448-1-1-1s-1,0.447-1,1C2,8.551,2.448,8.999,3,8.999z M14,2.999h-1h-1H6H5H2
		c-1.104,0-2,0.896-2,2v6c0,1.104,0.896,2,2,2h3h1h6h1h1c1.105,0,2-0.896,2-2v-6C16,3.895,15.105,2.999,14,2.999z M5,11.999H2
		c-0.552,0-1-0.448-1-1v-6c0-0.553,0.448-1,1-1h3V11.999z M12,11.999H6v-8h6V11.999z M15,10.999c0,0.552-0.447,1-1,1h-1v-8h1
		c0.553,0,1,0.447,1,1V10.999z"/>
</g>
<g id="Layer_1">
</g>
</svg>
