<?xml version="1.0" encoding="iso-8859-1"?>
<!-- Generator: Adobe Illustrator 16.0.0, SVG Export Plug-In . SVG Version: 6.00 Build 0)  -->
<!DOCTYPE svg PUBLIC "-//W3C//DTD SVG 1.1//EN" "http://www.w3.org/Graphics/SVG/1.1/DTD/svg11.dtd">
<svg version="1.1" xmlns="http://www.w3.org/2000/svg" xmlns:xlink="http://www.w3.org/1999/xlink" x="0px" y="0px" width="16px"
	 height="16px" viewBox="0 0 16 16" style="enable-background:new 0 0 16 16;" xml:space="preserve">
<g id="_x32_1-tool_-_magic_mouse" style="enable-background:new    ;">
	<path d="M8.505,3.999c-0.272,0-0.494,0.224-0.494,0.5v2c0,0.275,0.222,0.499,0.494,0.499C8.779,6.998,9,6.774,9,6.499v-2
		C9,4.223,8.779,3.999,8.505,3.999z M11,1.999H9v-1.5c0-0.276-0.221-0.5-0.494-0.5c-0.013,0-0.023,0.006-0.035,0.007
		C8.456,0.005,8.443-0.001,8.428-0.001H5.571C5.256-0.001,5,0.223,5,0.499c0,0.275,0.256,0.5,0.571,0.5h2.44v1H6
		c-1.657,0-3,1.343-3,3v7.999c0,1.657,1.343,3.001,3,3.001h5c1.656,0,3-1.344,3-3.001V4.999C14,3.342,12.656,1.999,11,1.999z
		 M13,12.998c0,1.105-0.895,2.001-2,2.001H6c-1.104,0-2-0.896-2-2.001V4.999c0-1.105,0.896-2,2-2h5c1.105,0,2,0.895,2,2V12.998z"/>
</g>
<g id="Layer_1">
</g>
</svg>
