<?xml version="1.0" encoding="iso-8859-1"?>
<!-- Generator: Adobe Illustrator 16.0.0, SVG Export Plug-In . SVG Version: 6.00 Build 0)  -->
<!DOCTYPE svg PUBLIC "-//W3C//DTD SVG 1.1//EN" "http://www.w3.org/Graphics/SVG/1.1/DTD/svg11.dtd">
<svg version="1.1" xmlns="http://www.w3.org/2000/svg" xmlns:xlink="http://www.w3.org/1999/xlink" x="0px" y="0px" width="16px"
	 height="16px" viewBox="0 0 16 16" style="enable-background:new 0 0 16 16;" xml:space="preserve">
<g id="_x32_8-tool_-_radio_audio" style="enable-background:new    ;">
	<path d="M5.5,8.999h-3c-0.276,0-0.5,0.224-0.5,0.5s0.224,0.5,0.5,0.5h3c0.276,0,0.5-0.224,0.5-0.5S5.776,8.999,5.5,8.999z
		 M5.5,10.999h-3c-0.276,0-0.5,0.224-0.5,0.5s0.224,0.5,0.5,0.5h3c0.276,0,0.5-0.224,0.5-0.5S5.776,10.999,5.5,10.999z M5.5,6.999
		h-3c-0.276,0-0.5,0.224-0.5,0.5s0.224,0.5,0.5,0.5h3c0.276,0,0.5-0.224,0.5-0.5S5.776,6.999,5.5,6.999z M10.5,5.998
		C8.567,5.998,7,7.565,7,9.499c0,1.933,1.567,3.499,3.5,3.499c1.934,0,3.5-1.566,3.5-3.499C14,7.565,12.434,5.998,10.5,5.998z
		 M10.5,11.999c-1.381,0-2.5-1.119-2.5-2.5s1.119-2.5,2.5-2.5s2.5,1.119,2.5,2.5S11.881,11.999,10.5,11.999z M15,3.999h-1.006
		L2.625,0.517C2.359,0.447,2.085,0.601,2.014,0.86C1.942,1.12,2.101,1.387,2.367,1.456l8.301,2.543H1c-0.552,0-1,0.448-1,1v9
		c0,0.552,0.448,1,1,1h14c0.553,0,1-0.448,1-1v-9C16,4.447,15.553,3.999,15,3.999z M15,13.499c0,0.275-0.225,0.5-0.5,0.5h-13
		c-0.276,0-0.5-0.225-0.5-0.5v-8c0-0.276,0.224-0.5,0.5-0.5h13c0.275,0,0.5,0.224,0.5,0.5V13.499z"/>
</g>
<g id="Layer_1">
</g>
</svg>
