<?xml version="1.0" encoding="iso-8859-1"?>
<!-- Generator: Adobe Illustrator 16.0.0, SVG Export Plug-In . SVG Version: 6.00 Build 0)  -->
<!DOCTYPE svg PUBLIC "-//W3C//DTD SVG 1.1//EN" "http://www.w3.org/Graphics/SVG/1.1/DTD/svg11.dtd">
<svg version="1.1" xmlns="http://www.w3.org/2000/svg" xmlns:xlink="http://www.w3.org/1999/xlink" x="0px" y="0px" width="16px"
	 height="16px" viewBox="0 0 16 16" style="enable-background:new 0 0 16 16;" xml:space="preserve">
<g id="_x32_7-tool_-_video_record" style="enable-background:new    ;">
	<path d="M15.5,6.999L12,9.187V8.999c0-0.607-0.275-1.145-0.703-1.511C12.313,6.875,13,5.771,13,4.499c0-1.933-1.566-3.5-3.5-3.5
		c-1.933,0-3.5,1.567-3.5,3.5c0,0.98,0.405,1.864,1.055,2.5H5.222C5.7,6.467,6,5.771,6,4.999c0-1.657-1.343-3-3-3s-3,1.343-3,3
		c0,0.904,0.408,1.705,1.041,2.255C0.423,7.595,0,8.244,0,8.999v4c0,1.104,0.896,2,2,2h8c1.105,0,2-0.896,2-2v-0.188l3.5,2.188
		c0.275,0,0.5-0.225,0.5-0.5v-7C16,7.223,15.775,6.999,15.5,6.999z M1,4.999c0-1.104,0.896-2,2-2s2,0.896,2,2s-0.896,2-2,2
		S1,6.104,1,4.999z M11,9.999v2v1c0,0.552-0.447,1-1,1H2c-0.552,0-1-0.448-1-1v-4c0-0.553,0.448-1,1-1h8c0.553,0,1,0.447,1,1V9.999z
		 M9.5,6.999c-1.38,0-2.5-1.119-2.5-2.5s1.12-2.5,2.5-2.5c1.381,0,2.5,1.119,2.5,2.5S10.881,6.999,9.5,6.999z M15,13.499l-3-1.5v-2
		l3-1.5V13.499z"/>
</g>
<g id="Layer_1">
</g>
</svg>
