<?xml version="1.0" encoding="iso-8859-1"?>
<!-- Generator: Adobe Illustrator 16.0.0, SVG Export Plug-In . SVG Version: 6.00 Build 0)  -->
<!DOCTYPE svg PUBLIC "-//W3C//DTD SVG 1.1//EN" "http://www.w3.org/Graphics/SVG/1.1/DTD/svg11.dtd">
<svg version="1.1" xmlns="http://www.w3.org/2000/svg" xmlns:xlink="http://www.w3.org/1999/xlink" x="0px" y="0px" width="16px"
	 height="16px" viewBox="0 0 16 16" style="enable-background:new 0 0 16 16;" xml:space="preserve">
<g id="_x32_3-tool_-_projector" style="enable-background:new    ;">
	<path d="M4.5,4.999c-1.381,0-2.5,1.119-2.5,2.5c0,1.38,1.119,2.5,2.5,2.5S7,8.879,7,7.499C7,6.118,5.881,4.999,4.5,4.999z
		 M4.5,8.999c-0.829,0-1.5-0.672-1.5-1.5c0-0.829,0.671-1.5,1.5-1.5c0.828,0,1.5,0.671,1.5,1.5C6,8.327,5.328,8.999,4.5,8.999z
		 M9,8.999h1v-3H9V8.999z M13,8.999h1v-3h-1V8.999z M15,2.999H1c-0.552,0-1,0.447-1,1v6v1v2.999h1v-1.999h14v1.999h1v-2.999v-1v-6
		C16,3.446,15.553,2.999,15,2.999z M15,9.999v0.5c0,0.276-0.225,0.5-0.5,0.5h-13c-0.276,0-0.5-0.224-0.5-0.5v-0.5v-5.5
		c0-0.276,0.224-0.5,0.5-0.5h13c0.275,0,0.5,0.224,0.5,0.5V9.999z M11,8.999h1v-3h-1V8.999z"/>
</g>
<g id="Layer_1">
</g>
</svg>
