<?xml version="1.0" encoding="iso-8859-1"?>
<!-- Generator: Adobe Illustrator 16.0.0, SVG Export Plug-In . SVG Version: 6.00 Build 0)  -->
<!DOCTYPE svg PUBLIC "-//W3C//DTD SVG 1.1//EN" "http://www.w3.org/Graphics/SVG/1.1/DTD/svg11.dtd">
<svg version="1.1" xmlns="http://www.w3.org/2000/svg" xmlns:xlink="http://www.w3.org/1999/xlink" x="0px" y="0px" width="16px"
	 height="16px" viewBox="0 0 16 16" style="enable-background:new 0 0 16 16;" xml:space="preserve">
<g id="_x33_4-tool_-_flashlight" style="enable-background:new    ;">
	<path d="M14,4.999h-1h-1c-0.738,0-1.377,0.405-1.723,1.001H8V4H4v2H1C0.448,6,0,6.447,0,6.999V10c0,0.552,0.448,1,1,1h9.277
		c0.346,0.595,0.984,0.999,1.723,0.999h1h1h2V10V6.999v-2H14z M5,4.999h2V6H5V4.999z M10,10H1.5C1.224,10,1,9.775,1,9.499v-2
		c0-0.275,0.224-0.5,0.5-0.5H4h4h2V10z M13,11h-1c-0.553,0-1-0.448-1-1V6.999C11,6.447,11.447,6,12,6h1V11z M15,11h-1V6h1V11z"/>
</g>
<g id="Layer_1">
</g>
</svg>
