<?xml version="1.0" encoding="iso-8859-1"?>
<!-- Generator: Adobe Illustrator 16.0.0, SVG Export Plug-In . SVG Version: 6.00 Build 0)  -->
<!DOCTYPE svg PUBLIC "-//W3C//DTD SVG 1.1//EN" "http://www.w3.org/Graphics/SVG/1.1/DTD/svg11.dtd">
<svg version="1.1" xmlns="http://www.w3.org/2000/svg" xmlns:xlink="http://www.w3.org/1999/xlink" x="0px" y="0px" width="16px"
	 height="16px" viewBox="0 0 16 16" style="enable-background:new 0 0 16 16;" xml:space="preserve">
<g id="_x32_2-tool_-_laptop" style="enable-background:new    ;">
	<path d="M2,9.999v-7.5C2,2.224,2.224,2,2.5,2h11C13.775,2,14,2.224,14,2.499v7.5V12h1V9.999V2c0-0.553-0.447-1-1-1H2
		C1.448,1,1,1.447,1,2v7.999V12h1V9.999z M12,12h1V9.999V3H3v6.999V12h1V9.999V4h8v5.999V12z M15.5,12.999h-15
		c-0.276,0-0.5,0.225-0.5,0.501v1.999C0,15.775,0.224,16,0.5,16h15c0.275,0,0.5-0.225,0.5-0.501V13.5
		C16,13.224,15.775,12.999,15.5,12.999z M15,14.999H1v-1h14V14.999z"/>
</g>
<g id="Layer_1">
</g>
</svg>
