<?xml version="1.0" encoding="iso-8859-1"?>
<!-- Generator: Adobe Illustrator 16.0.0, SVG Export Plug-In . SVG Version: 6.00 Build 0)  -->
<!DOCTYPE svg PUBLIC "-//W3C//DTD SVG 1.1//EN" "http://www.w3.org/Graphics/SVG/1.1/DTD/svg11.dtd">
<svg version="1.1" xmlns="http://www.w3.org/2000/svg" xmlns:xlink="http://www.w3.org/1999/xlink" x="0px" y="0px" width="16px"
	 height="16px" viewBox="0 0 16 16" style="enable-background:new 0 0 16 16;" xml:space="preserve">
<g id="_x33_5-tool_-_net" style="enable-background:new    ;">
	<path d="M15,0.999H2c-0.552,0-1,0.447-1,0.999v13c0,0.553,0.448,1,1,1h13c0.553,0,1-0.447,1-1v-13C16,1.446,15.553,0.999,15,0.999z
		 M4,14.998H2.5c-0.276,0-0.5-0.224-0.5-0.499v-1.5h2V14.998z M4,11.999H2v-3h2V11.999z M4,7.998H2V4.999h2V7.998z M4,3.999H2v-1.5
		c0-0.276,0.224-0.501,0.5-0.501H4V3.999z M8,14.998H5v-1.999h3V14.998z M8,11.999H5v-3h3V11.999z M8,7.998H5V4.999h3V7.998z
		 M8,3.999H5V1.998h3V3.999z M12,14.998H9v-1.999h3V14.998z M12,11.999H9v-3h3V11.999z M12,7.998H9V4.999h3V7.998z M12,3.999H9
		V1.998h3V3.999z M15,14.499c0,0.275-0.225,0.499-0.5,0.499H13v-1.999h2V14.499z M15,11.999h-2v-3h2V11.999z M15,7.998h-2V4.999h2
		V7.998z M15,3.999h-2V1.998h1.5c0.275,0,0.5,0.225,0.5,0.501V3.999z"/>
</g>
<g id="Layer_1">
</g>
</svg>
