<?xml version="1.0" encoding="iso-8859-1"?>
<!-- Generator: Adobe Illustrator 16.0.0, SVG Export Plug-In . SVG Version: 6.00 Build 0)  -->
<!DOCTYPE svg PUBLIC "-//W3C//DTD SVG 1.1//EN" "http://www.w3.org/Graphics/SVG/1.1/DTD/svg11.dtd">
<svg version="1.1" xmlns="http://www.w3.org/2000/svg" xmlns:xlink="http://www.w3.org/1999/xlink" x="0px" y="0px" width="16px"
	 height="16px" viewBox="0 0 16 16" style="enable-background:new 0 0 16 16;" xml:space="preserve">
<g id="_x33_1-tool_-_flashlight" style="enable-background:new    ;">
	<path d="M10,0H7H5v1.999v1V4c0,0.738,0.405,1.376,1,1.722v9.277c0,0.553,0.448,1,1,1h3c0.553,0,1-0.447,1-1v-3h1v-4h-1V5.722
		C11.596,5.376,12,4.738,12,4V2.999v-1V0H10z M10,14.499c0,0.276-0.225,0.5-0.5,0.5h-2c-0.276,0-0.5-0.224-0.5-0.5V6h3v1.999H9v4h1
		V14.499z M11,11h-1V8.999h1V11z M11,4c0,0.552-0.447,0.999-1,0.999H7C6.448,4.999,6,4.552,6,4V2.999h5V4z M11,1.999H6v-1h5V1.999z"
		/>
</g>
<g id="Layer_1">
</g>
</svg>
