<?xml version="1.0" encoding="iso-8859-1"?>
<!-- Generator: Adobe Illustrator 16.0.0, SVG Export Plug-In . SVG Version: 6.00 Build 0)  -->
<!DOCTYPE svg PUBLIC "-//W3C//DTD SVG 1.1//EN" "http://www.w3.org/Graphics/SVG/1.1/DTD/svg11.dtd">
<svg version="1.1" xmlns="http://www.w3.org/2000/svg" xmlns:xlink="http://www.w3.org/1999/xlink" x="0px" y="0px" width="16px"
	 height="16px" viewBox="0 0 16 16" style="enable-background:new 0 0 16 16;" xml:space="preserve">
<g id="_x35_-tool_-_camera" style="enable-background:new    ;">
	<path d="M14,2.999h-2c0-1.104-0.895-2-2-2H6c-1.104,0-2,0.896-2,2H2c-1.104,0-2,0.896-2,2v9c0,1.104,0.896,2,2,2h12
		c1.105,0,2-0.896,2-2v-9C16,3.895,15.105,2.999,14,2.999z M6,1.999h4c0.553,0,1,0.447,1,1H5C5,2.446,5.448,1.999,6,1.999z
		 M15,13.999c0,0.553-0.447,1-1,1H2c-0.552,0-1-0.447-1-1v-6h2v-1H1v-1h2v-1H1c0-0.553,0.448-1,1-1h12c0.553,0,1,0.447,1,1V13.999z
		 M8,5.999c-2.209,0-4,1.791-4,3.999c0,2.21,1.791,4.001,4,4.001c2.209,0,4-1.791,4-4.001C12,7.79,10.209,5.999,8,5.999z M8,12.999
		c-1.657,0-3-1.344-3-3.001s1.343-2.999,3-2.999c1.656,0,3,1.342,3,2.999S9.656,12.999,8,12.999z"/>
</g>
<g id="Layer_1">
</g>
</svg>
