<?xml version="1.0" encoding="iso-8859-1"?>
<!-- Generator: Adobe Illustrator 16.0.0, SVG Export Plug-In . SVG Version: 6.00 Build 0)  -->
<!DOCTYPE svg PUBLIC "-//W3C//DTD SVG 1.1//EN" "http://www.w3.org/Graphics/SVG/1.1/DTD/svg11.dtd">
<svg version="1.1" xmlns="http://www.w3.org/2000/svg" xmlns:xlink="http://www.w3.org/1999/xlink" x="0px" y="0px" width="16px"
	 height="16px" viewBox="0 0 16 16" style="enable-background:new 0 0 16 16;" xml:space="preserve">
<g id="_x34_0-tool_-_compass" style="enable-background:new    ;">
	<path d="M10.049,7.446c0.574-0.458,0.949-1.155,0.949-1.947c0-1.209-0.859-2.218-1.998-2.449V0.999H8.001V3.05
		C6.862,3.281,6.004,4.29,6.004,5.499c0,0.792,0.375,1.489,0.948,1.947l-2.069,3.364C3.536,9.915,2.505,8.583,2.032,6.999H0.997
		C1.5,8.943,2.729,10.58,4.363,11.658l-2.357,3.835l0.85,0.501l2.361-3.841c1.07,0.529,2.267,0.846,3.543,0.846
		c1.119,0,2.175-0.241,3.142-0.654l2.244,3.649l0.85-0.501L10.049,7.446z M8.5,3.999c0.828,0,1.498,0.672,1.498,1.5
		s-0.67,1.5-1.498,1.5c-0.827,0-1.498-0.672-1.498-1.5S7.674,3.999,8.5,3.999z M8.76,11.999c-1.084,0-2.103-0.261-3.02-0.698
		l2.092-3.403C8.046,7.957,8.268,7.999,8.5,7.999c0.233,0,0.454-0.042,0.667-0.102l2.207,3.589
		C10.566,11.812,9.688,11.999,8.76,11.999z"/>
</g>
<g id="Layer_1">
</g>
</svg>
