<?xml version="1.0" encoding="iso-8859-1"?>
<!-- Generator: Adobe Illustrator 16.0.0, SVG Export Plug-In . SVG Version: 6.00 Build 0)  -->
<!DOCTYPE svg PUBLIC "-//W3C//DTD SVG 1.1//EN" "http://www.w3.org/Graphics/SVG/1.1/DTD/svg11.dtd">
<svg version="1.1" xmlns="http://www.w3.org/2000/svg" xmlns:xlink="http://www.w3.org/1999/xlink" x="0px" y="0px" width="16px"
	 height="16px" viewBox="0 0 16 16" style="enable-background:new 0 0 16 16;" xml:space="preserve">
<g id="_x33_3-tool_-_flashlight" style="enable-background:new    ;">
	<path d="M10,7.999V5.722C10.596,5.376,11,4.738,11,4V2.999v-1V0H9H6H4v1.999v1V4c0,0.738,0.405,1.376,1,1.722v9.277
		c0,0.553,0.448,1,1,1h3c0.553,0,1-0.447,1-1v-3h2v-4H10z M5,0.999h5v1H5V0.999z M9,7.999v4v2.5c0,0.276-0.224,0.5-0.5,0.5h-2
		c-0.276,0-0.5-0.224-0.5-0.5V6h3V7.999z M9,4.999H6C5.448,4.999,5,4.552,5,4V2.999h5V4C10,4.552,9.553,4.999,9,4.999z M11,11h-1
		V8.999h1V11z"/>
</g>
<g id="Layer_1">
</g>
</svg>
