<?xml version="1.0" encoding="iso-8859-1"?>
<!-- Generator: Adobe Illustrator 16.0.0, SVG Export Plug-In . SVG Version: 6.00 Build 0)  -->
<!DOCTYPE svg PUBLIC "-//W3C//DTD SVG 1.1//EN" "http://www.w3.org/Graphics/SVG/1.1/DTD/svg11.dtd">
<svg version="1.1" xmlns="http://www.w3.org/2000/svg" xmlns:xlink="http://www.w3.org/1999/xlink" x="0px" y="0px" width="16px"
	 height="16px" viewBox="0 0 16 16" style="enable-background:new 0 0 16 16;" xml:space="preserve">
<g id="_x33_0-tool_-_umbrella" style="enable-background:new    ;">
	<path d="M8-0.001c-4.418,0-8,3.581-8,8v1h0.069h1.032H7v4c0,1.656,1.343,3,3,3c1.656,0,3-1.344,3-3h-1c0,1.104-0.895,2-2,2
		c-1.105,0-2-0.896-2-2v-4h6.898h1.033H16v-1C16,3.58,12.418-0.001,8-0.001z M1,7.999c0-3.866,3.134-7,7-7c3.865,0,7,3.134,7,7H1z"
		/>
</g>
<g id="Layer_1">
</g>
</svg>
