<?xml version="1.0" encoding="iso-8859-1"?>
<!-- Generator: Adobe Illustrator 16.0.0, SVG Export Plug-In . SVG Version: 6.00 Build 0)  -->
<!DOCTYPE svg PUBLIC "-//W3C//DTD SVG 1.1//EN" "http://www.w3.org/Graphics/SVG/1.1/DTD/svg11.dtd">
<svg version="1.1" xmlns="http://www.w3.org/2000/svg" xmlns:xlink="http://www.w3.org/1999/xlink" x="0px" y="0px" width="16px"
	 height="16px" viewBox="0 0 16 16" style="enable-background:new 0 0 16 16;" xml:space="preserve">
<g id="_x32_0-tool_-_computer_monitor" style="enable-background:new    ;">
	<path d="M15,0.999H2c-0.552,0-1,0.447-1,1v10c0,0.553,0.448,1,1,1h6v2H6.5c-0.276,0-0.5,0.224-0.5,0.5c0,0.275,0.224,0.5,0.5,0.5h4
		c0.275,0,0.5-0.225,0.5-0.5c0-0.276-0.225-0.5-0.5-0.5H9v-2h6c0.553,0,1-0.447,1-1v-10C16,1.446,15.553,0.999,15,0.999z M15,11.499
		c0,0.276-0.225,0.5-0.5,0.5H9H8H2.5c-0.276,0-0.5-0.224-0.5-0.5v-9c0-0.276,0.224-0.5,0.5-0.5h12c0.275,0,0.5,0.224,0.5,0.5V11.499
		z"/>
</g>
<g id="Layer_1">
</g>
</svg>
