<?xml version="1.0" encoding="iso-8859-1"?>
<!-- Generator: Adobe Illustrator 16.0.0, SVG Export Plug-In . SVG Version: 6.00 Build 0)  -->
<!DOCTYPE svg PUBLIC "-//W3C//DTD SVG 1.1//EN" "http://www.w3.org/Graphics/SVG/1.1/DTD/svg11.dtd">
<svg version="1.1" xmlns="http://www.w3.org/2000/svg" xmlns:xlink="http://www.w3.org/1999/xlink" x="0px" y="0px" width="16px"
	 height="16px" viewBox="0 0 16 16" style="enable-background:new 0 0 16 16;" xml:space="preserve">
<g id="_x31_8-tool__-_cell_phone_android_mobile_landscape" style="enable-background:new    ;">
	<path d="M13.5,5.999c-0.275,0-0.5,0.224-0.5,0.5v3c0,0.275,0.225,0.5,0.5,0.5s0.5-0.225,0.5-0.5v-3
		C14,6.223,13.775,5.999,13.5,5.999z M3,6.999c-0.552,0-1,0.447-1,1c0,0.552,0.448,1,1,1s1-0.448,1-1C4,7.446,3.552,6.999,3,6.999z
		 M13,1.999H3c-1.657,0-3,1.343-3,3v6c0,1.656,1.343,2.999,3,2.999h10c1.656,0,3-1.343,3-2.999v-6C16,3.342,14.656,1.999,13,1.999z
		 M15,11.499c0,0.828-0.672,1.5-1.5,1.5h-11c-0.829,0-1.5-0.672-1.5-1.5v-7c0-0.829,0.671-1.5,1.5-1.5h11c0.828,0,1.5,0.671,1.5,1.5
		V11.499z"/>
</g>
<g id="Layer_1">
</g>
</svg>
