<?xml version="1.0" encoding="iso-8859-1"?>
<!-- Generator: Adobe Illustrator 16.0.0, SVG Export Plug-In . SVG Version: 6.00 Build 0)  -->
<!DOCTYPE svg PUBLIC "-//W3C//DTD SVG 1.1//EN" "http://www.w3.org/Graphics/SVG/1.1/DTD/svg11.dtd">
<svg version="1.1" xmlns="http://www.w3.org/2000/svg" xmlns:xlink="http://www.w3.org/1999/xlink" x="0px" y="0px" width="16px"
	 height="16px" viewBox="0 0 16 16" style="enable-background:new 0 0 16 16;" xml:space="preserve">
<g id="_x33_6-tool_-_headphone" style="enable-background:new    ;">
	<path d="M16,8.999c0-4.419-3.582-8-8-8c-4.418,0-8,3.581-8,8c0,0.339,0,1.322,0,1.5v3c0,0.828,0.671,1.5,1.5,1.5h1
		c0.828,0,1.5-0.672,1.5-1.5v-3c0-0.828-0.672-1.5-1.5-1.5h-1c-0.174,0-0.335,0.044-0.49,0.099C1.009,9.064,1,9.033,1,8.999
		c0-3.866,3.134-7,7-7c3.865,0,7,3.134,7,7c0,0.034-0.01,0.065-0.01,0.099c-0.156-0.055-0.316-0.099-0.49-0.099h-1
		c-0.828,0-1.5,0.672-1.5,1.5v3c0,0.828,0.672,1.5,1.5,1.5h1c0.828,0,1.5-0.672,1.5-1.5v-3C16,10.321,16,9.338,16,8.999z M1.5,9.999
		h1c0.276,0,0.5,0.224,0.5,0.5v3c0,0.276-0.224,0.5-0.5,0.5h-1c-0.276,0-0.5-0.224-0.5-0.5v-3C1,10.223,1.224,9.999,1.5,9.999z
		 M15,13.499c0,0.276-0.225,0.5-0.5,0.5h-1c-0.275,0-0.5-0.224-0.5-0.5v-3c0-0.276,0.225-0.5,0.5-0.5h1c0.275,0,0.5,0.224,0.5,0.5
		V13.499z"/>
</g>
<g id="Layer_1">
</g>
</svg>
