<?xml version="1.0" encoding="iso-8859-1"?>
<!-- Generator: Adobe Illustrator 16.0.0, SVG Export Plug-In . SVG Version: 6.00 Build 0)  -->
<!DOCTYPE svg PUBLIC "-//W3C//DTD SVG 1.1//EN" "http://www.w3.org/Graphics/SVG/1.1/DTD/svg11.dtd">
<svg version="1.1" xmlns="http://www.w3.org/2000/svg" xmlns:xlink="http://www.w3.org/1999/xlink" x="0px" y="0px" width="16px"
	 height="16px" viewBox="0 0 16 16" style="enable-background:new 0 0 16 16;" xml:space="preserve">
<g id="_x34_5-tool_-_brush" style="enable-background:new    ;">
	<path d="M11.5,5.999c0.275,0,0.5-0.224,0.5-0.5C12,5.224,11.775,5,11.5,5H8V2.999h3.5c0.275,0,0.5-0.224,0.5-0.5
		c0-0.275-0.225-0.5-0.5-0.5H8c0-0.552-0.448-1-1-1H5c-0.552,0-1,0.448-1,1v13c0,0.553,0.448,1,1,1h2c0.552,0,1-0.447,1-1h3.5
		c0.275,0,0.5-0.224,0.5-0.5s-0.225-0.5-0.5-0.5H8v-2h3.5c0.275,0,0.5-0.224,0.5-0.5s-0.225-0.5-0.5-0.5H8v-2h3.5
		c0.275,0,0.5-0.224,0.5-0.5c0-0.275-0.225-0.5-0.5-0.5H8v-2H11.5z M7,14.499c0,0.276-0.224,0.5-0.5,0.5h-1
		c-0.276,0-0.5-0.224-0.5-0.5v-12c0-0.275,0.224-0.5,0.5-0.5h1c0.276,0,0.5,0.225,0.5,0.5V14.499z"/>
</g>
<g id="Layer_1">
</g>
</svg>
