<?xml version="1.0" encoding="iso-8859-1"?>
<!-- Generator: Adobe Illustrator 16.0.0, SVG Export Plug-In . SVG Version: 6.00 Build 0)  -->
<!DOCTYPE svg PUBLIC "-//W3C//DTD SVG 1.1//EN" "http://www.w3.org/Graphics/SVG/1.1/DTD/svg11.dtd">
<svg version="1.1" xmlns="http://www.w3.org/2000/svg" xmlns:xlink="http://www.w3.org/1999/xlink" x="0px" y="0px" width="16px"
	 height="16px" viewBox="0 0 16 16" style="enable-background:new 0 0 16 16;" xml:space="preserve">
<g id="_x38_-tool_-_camera" style="enable-background:new    ;">
	<path d="M15,1.999H7.399c-0.208-0.58-0.748-1-1.399-1H3.5c-0.651,0-1.191,0.42-1.399,1H1c-0.552,0-1,0.447-1,1v11
		c0,0.552,0.448,1,1,1h14c0.553,0,1-0.448,1-1v-11C16,2.446,15.553,1.999,15,1.999z M3.5,1.999H6c0.276,0,0.5,0.224,0.5,0.5
		c0,0.275-0.224,0.5-0.5,0.5H3.5c-0.276,0-0.5-0.225-0.5-0.5C3,2.223,3.224,1.999,3.5,1.999z M15,13.499c0,0.275-0.225,0.5-0.5,0.5
		h-13c-0.276,0-0.5-0.225-0.5-0.5V3.498c0-0.275,0.224-0.499,0.5-0.499h0.601c0.207,0.579,0.748,1,1.399,1H6
		c0.651,0,1.192-0.421,1.399-1H14.5c0.275,0,0.5,0.224,0.5,0.499V13.499z M8,4.999c-2.209,0-4,1.79-4,4c0,2.209,1.791,4,4,4
		s4-1.791,4-4C12,6.789,10.209,4.999,8,4.999z M8,11.999c-1.657,0-3-1.344-3-3c0-1.657,1.343-3,3-3c1.656,0,3,1.343,3,3
		C11,10.655,9.656,11.999,8,11.999z"/>
</g>
<g id="Layer_1">
</g>
</svg>
