<?xml version="1.0" encoding="iso-8859-1"?>
<!-- Generator: Adobe Illustrator 16.0.0, SVG Export Plug-In . SVG Version: 6.00 Build 0)  -->
<!DOCTYPE svg PUBLIC "-//W3C//DTD SVG 1.1//EN" "http://www.w3.org/Graphics/SVG/1.1/DTD/svg11.dtd">
<svg version="1.1" xmlns="http://www.w3.org/2000/svg" xmlns:xlink="http://www.w3.org/1999/xlink" x="0px" y="0px" width="16px"
	 height="16px" viewBox="0 0 16 16" style="enable-background:new 0 0 16 16;" xml:space="preserve">
<g id="_x34_7-tool_-_binoculars" style="enable-background:new    ;">
	<path d="M14,2.998v-2.999h-4v2.999H9v3.001H7V2.998H6v-2.999H2v2.999H1v13.001h6v-5h2v5h6V2.998H14z M3,0.999h2v1.999H3V0.999z
		 M6,14.999H2v-2.001h4V14.999z M6,11.999H2v-8h4V11.999z M9,9.998H7V6.999h2V9.998z M11,0.999h2v1.999h-2V0.999z M14,14.999h-4
		v-2.001h4V14.999z M14,11.999h-4v-8h4V11.999z"/>
</g>
<g id="Layer_1">
</g>
</svg>
