<?xml version="1.0" encoding="iso-8859-1"?>
<!-- Generator: Adobe Illustrator 16.0.0, SVG Export Plug-In . SVG Version: 6.00 Build 0)  -->
<!DOCTYPE svg PUBLIC "-//W3C//DTD SVG 1.1//EN" "http://www.w3.org/Graphics/SVG/1.1/DTD/svg11.dtd">
<svg version="1.1" xmlns="http://www.w3.org/2000/svg" xmlns:xlink="http://www.w3.org/1999/xlink" x="0px" y="0px" width="16px"
	 height="16px" viewBox="0 0 16 16" style="enable-background:new 0 0 16 16;" xml:space="preserve">
<g id="_x32_6-tool_-_game_console_gameboy" style="enable-background:new    ;">
	<path d="M10.004,13.52l0.914,0.486l2.08-2.518l-0.914-0.486L10.004,13.52z M7.004,13.52l0.914,0.486l2.08-2.518l-0.914-0.486
		L7.004,13.52z M5,10.999H4v1H3v1h1v1h1v-1h1v-1H5V10.999z M12,1.999H4c-0.552,0-1,0.447-1,1v6c0,0.552,0.448,1,1,1h8
		c0.553,0,1-0.448,1-1v-6C13,2.446,12.553,1.999,12,1.999z M12,8.499c0,0.276-0.225,0.5-0.5,0.5h-7c-0.276,0-0.5-0.224-0.5-0.5v-5
		c0-0.276,0.224-0.5,0.5-0.5h7c0.275,0,0.5,0.224,0.5,0.5V8.499z M14-0.001H2c-0.552,0-1,0.447-1,1v14c0,0.552,0.448,1,1,1h12
		c0.553,0,1-0.448,1-1v-14C15,0.446,14.553-0.001,14-0.001z M14,14.499c0,0.275-0.225,0.5-0.5,0.5h-11c-0.276,0-0.5-0.225-0.5-0.5
		v-13c0-0.276,0.224-0.5,0.5-0.5h11c0.275,0,0.5,0.224,0.5,0.5V14.499z"/>
</g>
<g id="Layer_1">
</g>
</svg>
