<?xml version="1.0" encoding="iso-8859-1"?>
<!-- Generator: Adobe Illustrator 16.0.0, SVG Export Plug-In . SVG Version: 6.00 Build 0)  -->
<!DOCTYPE svg PUBLIC "-//W3C//DTD SVG 1.1//EN" "http://www.w3.org/Graphics/SVG/1.1/DTD/svg11.dtd">
<svg version="1.1" xmlns="http://www.w3.org/2000/svg" xmlns:xlink="http://www.w3.org/1999/xlink" x="0px" y="0px" width="16px"
	 height="16px" viewBox="0 0 16 16" style="enable-background:new 0 0 16 16;" xml:space="preserve">
<g id="_x34_-tool_-_camera" style="enable-background:new    ;">
	<path d="M14,2.999h-1.5c0,0-1.396-3-2.5-3H6c-1.104,0-2.5,3-2.5,3H2c-1.104,0-2,0.895-2,2v9c0,1.104,0.896,2,2,2h12
		c1.104,0,2-0.896,2-2v-9C16,3.894,15.104,2.999,14,2.999z M6,0.999h4c0.553,0,1.5,2,1.5,2h-7C4.5,2.999,5.448,0.999,6,0.999z
		 M1,6.998h3.26c-0.206,0.307-0.359,0.646-0.484,1H1V6.998z M15,13.999c0,0.552-0.447,0.999-1,0.999H2c-0.552,0-1-0.447-1-0.999v-5
		h2.55C3.532,9.165,3.5,9.327,3.5,9.499c0,2.485,2.015,4.499,4.5,4.499c2.484,0,4.5-2.014,4.5-4.499c0-0.172-0.031-0.334-0.051-0.5
		H15V13.999z M4.5,9.499c0-1.934,1.567-3.501,3.5-3.501c1.934,0,3.5,1.567,3.5,3.501c0,1.933-1.566,3.5-3.5,3.5
		C6.067,12.999,4.5,11.432,4.5,9.499z M15,7.998h-2.775c-0.127-0.354-0.279-0.693-0.484-1H15V7.998z M15,5.998h-4.203
		C10.025,5.382,9.063,4.999,8,4.999c-1.063,0-2.026,0.383-2.796,0.999H1V4.999c0-0.553,0.448-1,1-1h12c0.553,0,1,0.447,1,1V5.998z"
		/>
</g>
<g id="Layer_1">
</g>
</svg>
