<?xml version="1.0" encoding="iso-8859-1"?>
<!-- Generator: Adobe Illustrator 16.0.0, SVG Export Plug-In . SVG Version: 6.00 Build 0)  -->
<!DOCTYPE svg PUBLIC "-//W3C//DTD SVG 1.1//EN" "http://www.w3.org/Graphics/SVG/1.1/DTD/svg11.dtd">
<svg version="1.1" xmlns="http://www.w3.org/2000/svg" xmlns:xlink="http://www.w3.org/1999/xlink" x="0px" y="0px" width="16px"
	 height="16px" viewBox="0 0 16 16" style="enable-background:new 0 0 16 16;" xml:space="preserve">
<g id="_x34_6-tool_-_paint_roller" style="enable-background:new    ;">
	<path d="M13.5-0.001h-11c-1.381,0-2.5,1.12-2.5,2.5c0,1.381,1.119,2.5,2.5,2.5H5v3.5c0,0.276,0.224,0.5,0.5,0.5H8v1
		c-0.552,0-1,0.448-1,1v4c0,0.553,0.448,1,1,1h1c0.553,0,1-0.447,1-1v-4c0-0.552-0.447-1-1-1v-1.5c0-0.275-0.224-0.5-0.5-0.5H6v-3
		h7.5c1.381,0,2.5-1.119,2.5-2.5C16,1.119,14.881-0.001,13.5-0.001z M8.5,10.999c0.276,0,0.5,0.224,0.5,0.5v3
		c0,0.276-0.224,0.5-0.5,0.5c-0.275,0-0.5-0.224-0.5-0.5v-3C8,11.223,8.224,10.999,8.5,10.999z M13.5,3.999h-11
		c-0.829,0-1.5-0.671-1.5-1.5c0-0.828,0.671-1.5,1.5-1.5h11c0.828,0,1.5,0.672,1.5,1.5C15,3.328,14.328,3.999,13.5,3.999z"/>
</g>
<g id="Layer_1">
</g>
</svg>
