<?xml version="1.0" encoding="iso-8859-1"?>
<!-- Generator: Adobe Illustrator 16.0.0, SVG Export Plug-In . SVG Version: 6.00 Build 0)  -->
<!DOCTYPE svg PUBLIC "-//W3C//DTD SVG 1.1//EN" "http://www.w3.org/Graphics/SVG/1.1/DTD/svg11.dtd">
<svg version="1.1" xmlns="http://www.w3.org/2000/svg" xmlns:xlink="http://www.w3.org/1999/xlink" x="0px" y="0px" width="16px"
	 height="16px" viewBox="0 0 16 16" style="enable-background:new 0 0 16 16;" xml:space="preserve">
<g id="_x33_-tool_-_magnets" style="enable-background:new    ;">
	<path d="M10,1.999v3v1v3c0,1.104-0.896,2-2,2c-1.104,0-2-0.896-2-2v-3v-1v-3H2v3v1v3c0,3.313,2.686,6,6,6c3.314,0,6-2.687,6-6v-3
		v-1v-3H10z M3,2.999h2v2H3V2.999z M13,8.999c0,2.762-2.238,5-5,5s-5-2.238-5-5v-3h2v3c0,1.657,1.343,3,3,3c1.656,0,3-1.343,3-3v-3
		h2V8.999z M13,4.999h-2v-2h2V4.999z"/>
</g>
<g id="Layer_1">
</g>
</svg>
