<?xml version="1.0" encoding="iso-8859-1"?>
<!-- Generator: Adobe Illustrator 16.0.0, SVG Export Plug-In . SVG Version: 6.00 Build 0)  -->
<!DOCTYPE svg PUBLIC "-//W3C//DTD SVG 1.1//EN" "http://www.w3.org/Graphics/SVG/1.1/DTD/svg11.dtd">
<svg version="1.1" xmlns="http://www.w3.org/2000/svg" xmlns:xlink="http://www.w3.org/1999/xlink" x="0px" y="0px" width="16px"
	 height="16px" viewBox="0 0 16 16" style="enable-background:new 0 0 16 16;" xml:space="preserve">
<g id="_x39_-tool_-_magnifier_magnificent" style="enable-background:new    ;">
	<path d="M7-0.001c-3.866,0-7,3.134-7,7s3.134,7,7,7c3.865,0,7-3.134,7-7S10.865-0.001,7-0.001z M7,12.999c-3.314,0-6-2.687-6-6
		s2.686-6,6-6c3.314,0,6,2.687,6,6S10.314,12.999,7,12.999z M15.842,15.117L13,12.277c-0.225,0.256-0.465,0.497-0.723,0.723
		l2.842,2.841c0.199,0.199,0.523,0.199,0.723,0C16.041,15.641,16.041,15.317,15.842,15.117z"/>
</g>
<g id="Layer_1">
</g>
</svg>
