<?xml version="1.0" encoding="iso-8859-1"?>
<!-- Generator: Adobe Illustrator 16.0.0, SVG Export Plug-In . SVG Version: 6.00 Build 0)  -->
<!DOCTYPE svg PUBLIC "-//W3C//DTD SVG 1.1//EN" "http://www.w3.org/Graphics/SVG/1.1/DTD/svg11.dtd">
<svg version="1.1" xmlns="http://www.w3.org/2000/svg" xmlns:xlink="http://www.w3.org/1999/xlink" x="0px" y="0px" width="16px"
	 height="16px" viewBox="0 0 16 16" style="enable-background:new 0 0 16 16;" xml:space="preserve">
<g id="_x31_5-tool_-_ipad_tablet_mobile" style="enable-background:new    ;">
	<path d="M8,13.998c0.552,0,1-0.447,1-0.999c0-0.553-0.447-1-1-1s-1,0.447-1,1C7,13.551,7.448,13.998,8,13.998z M13-0.001H3
		c-1.104,0-2,0.896-2,2v8v1v2.999c0,1.105,0.896,2.001,2,2.001h10c1.104,0,2-0.896,2-2.001v-2.999v-1v-8
		C15,0.895,14.104-0.001,13-0.001z M14,13.998c0,0.553-0.447,1.001-1,1.001H3c-0.552,0-1-0.448-1-1.001v-2.999h12V13.998z M14,9.999
		H2v-8c0-0.553,0.448-1,1-1h10c0.553,0,1,0.447,1,1V9.999z"/>
</g>
<g id="Layer_1">
</g>
</svg>
