<?xml version="1.0" encoding="iso-8859-1"?>
<!-- Generator: Adobe Illustrator 16.0.0, SVG Export Plug-In . SVG Version: 6.00 Build 0)  -->
<!DOCTYPE svg PUBLIC "-//W3C//DTD SVG 1.1//EN" "http://www.w3.org/Graphics/SVG/1.1/DTD/svg11.dtd">
<svg version="1.1" xmlns="http://www.w3.org/2000/svg" xmlns:xlink="http://www.w3.org/1999/xlink" x="0px" y="0px" width="16px"
	 height="16px" viewBox="0 0 16 16" style="enable-background:new 0 0 16 16;" xml:space="preserve">
<g id="_x31_-transportation_-_vehicle_car" style="enable-background:new    ;">
	<path d="M14.66,6.297L14,2.999c-0.5-1.5-1.344-3-3-3H5c-1.657,0-2.5,1.5-3,3L1.34,6.297C0.547,6.716,0,7.54,0,8.499
		c0,0.815,0.396,1.533,1,1.989v1.511c0,0.738,0.405,1.377,1,1.723v1.277c0,0.553,0.448,1,1,1h1c0.552,0,1-0.447,1-1V14h6v0.999
		c0,0.553,0.447,1,1,1h1c0.553,0,1-0.447,1-1v-1.277c0.596-0.346,1-0.984,1-1.723v-1.511c0.604-0.456,1-1.174,1-1.989
		C16,7.54,15.453,6.716,14.66,6.297z M3,2.999c0.5-1,0.896-2,2-2h6c1.104,0,1.5,1,2,2l0.602,3.011C13.568,6.009,13.535,6,13.5,6
		c-0.814,0-1.533,0.396-1.988,0.999H4.488C4.032,6.396,3.315,6,2.5,6C2.465,6,2.433,6.009,2.398,6.01L3,2.999z M1,8.499
		c0-0.828,0.671-1.5,1.5-1.5S4,7.671,4,8.499S3.329,10,2.5,10S1,9.327,1,8.499z M4,14.499c0,0.276-0.224,0.5-0.5,0.5
		c-0.276,0-0.5-0.224-0.5-0.5V14h1V14.499z M13,14.499c0,0.276-0.225,0.5-0.5,0.5s-0.5-0.224-0.5-0.5V14h1V14.499z M13,12.999H3
		c-0.552,0-1-0.447-1-1h12C14,12.552,13.553,12.999,13,12.999z M14,10.999h-0.5h-11H2v-0.05c0.162,0.032,0.329,0.05,0.5,0.05
		c1.381,0,2.5-1.119,2.5-2.5c0-0.171-0.018-0.338-0.05-0.5h6.101C11.018,8.161,11,8.328,11,8.499c0,1.381,1.119,2.5,2.5,2.5
		c0.172,0,0.338-0.018,0.5-0.05V10.999z M13.5,10C12.672,10,12,9.327,12,8.499s0.672-1.5,1.5-1.5s1.5,0.672,1.5,1.5
		S14.328,10,13.5,10z"/>
</g>
<g id="Layer_1">
</g>
</svg>
