<?xml version="1.0" encoding="iso-8859-1"?>
<!-- Generator: Adobe Illustrator 16.0.0, SVG Export Plug-In . SVG Version: 6.00 Build 0)  -->
<!DOCTYPE svg PUBLIC "-//W3C//DTD SVG 1.1//EN" "http://www.w3.org/Graphics/SVG/1.1/DTD/svg11.dtd">
<svg version="1.1" xmlns="http://www.w3.org/2000/svg" xmlns:xlink="http://www.w3.org/1999/xlink" x="0px" y="0px" width="16px"
	 height="16px" viewBox="0 0 16 16" style="enable-background:new 0 0 16 16;" xml:space="preserve">
<g id="_x36_-transportation_-_train" style="enable-background:new    ;">
	<path d="M6,2.999h4v-1H6V2.999z M0,14.999V16h16v-1.001H0z M15,12.999H1v1h14V12.999z M4,12h8c1.105,0,2-0.896,2-2.001V9V7.999V5
		V3.999v-3c0-0.552-0.447-1-1-1H3c-0.552,0-1,0.448-1,1v3V5v2.999V9v0.999C2,11.104,2.896,12,4,12z M5.723,10.999
		C5.895,10.704,6,10.365,6,9.999S5.895,9.295,5.723,9h4.555C10.105,9.295,10,9.633,10,9.999s0.105,0.705,0.277,1H5.723z M13,11h-2
		v-1c0-0.001,0-0.001,0-0.001V9h0.998C12,9,12,9,12,9s0,0,0.002,0H13V11z M3,1.499c0-0.275,0.224-0.5,0.5-0.5h9
		c0.275,0,0.5,0.225,0.5,0.5v2.5H3V1.499z M3,7.499V5h10v2.499v0.5h-0.5h-9H3V7.499z M3,10C3,9.999,3,9.999,3,10V9h0.999
		C3.999,9,4,9,4,9s0.001,0,0.001,0H5v2H3V10z"/>
</g>
<g id="Layer_1">
</g>
</svg>
