<?xml version="1.0" encoding="iso-8859-1"?>
<!-- Generator: Adobe Illustrator 16.0.0, SVG Export Plug-In . SVG Version: 6.00 Build 0)  -->
<!DOCTYPE svg PUBLIC "-//W3C//DTD SVG 1.1//EN" "http://www.w3.org/Graphics/SVG/1.1/DTD/svg11.dtd">
<svg version="1.1" xmlns="http://www.w3.org/2000/svg" xmlns:xlink="http://www.w3.org/1999/xlink" x="0px" y="0px" width="16px"
	 height="16px" viewBox="0 0 16 16" style="enable-background:new 0 0 16 16;" xml:space="preserve">
<g id="_x34_-transportation_-_vehicle_car" style="enable-background:new    ;">
	<path d="M12.5,8.999c-0.828,0-1.5,0.671-1.5,1.5c0,0.828,0.672,1.5,1.5,1.5s1.5-0.672,1.5-1.5C14,9.67,13.328,8.999,12.5,8.999z
		 M12.5,10.999c-0.275,0-0.5-0.224-0.5-0.5s0.225-0.5,0.5-0.5s0.5,0.224,0.5,0.5S12.775,10.999,12.5,10.999z M14.838,7.188L14,2.999
		c0-1.657-1.344-3-3-3H5c-1.657,0-3,1.343-3,3L1.162,7.188C0.478,7.506,0,8.194,0,8.999v3v2h1v1.5c0,0.276,0.224,0.5,0.5,0.5
		c0.276,0,0.5-0.224,0.5-0.5v-1.5h12v1.5c0,0.276,0.225,0.5,0.5,0.5s0.5-0.224,0.5-0.5v-1.5h1v-2v-3
		C16,8.194,15.521,7.506,14.838,7.188z M3,2.999c0-1.105,0.896-2,2-2h6c1.105,0,2,0.895,2,2l0.801,4H2.2L3,2.999z M15,11.999
		c0,0.552-0.447,1-1,1H2c-0.552,0-1-0.448-1-1v-3c0-0.553,0.448-1,1-1h12c0.553,0,1,0.447,1,1V11.999z M3.5,8.999
		c-0.829,0-1.5,0.671-1.5,1.5c0,0.828,0.671,1.5,1.5,1.5s1.5-0.672,1.5-1.5C5,9.67,4.329,8.999,3.5,8.999z M3.5,10.999
		c-0.276,0-0.5-0.224-0.5-0.5s0.224-0.5,0.5-0.5c0.276,0,0.5,0.224,0.5,0.5S3.776,10.999,3.5,10.999z"/>
</g>
<g id="Layer_1">
</g>
</svg>
