<?xml version="1.0" encoding="iso-8859-1"?>
<!-- Generator: Adobe Illustrator 16.0.0, SVG Export Plug-In . SVG Version: 6.00 Build 0)  -->
<!DOCTYPE svg PUBLIC "-//W3C//DTD SVG 1.1//EN" "http://www.w3.org/Graphics/SVG/1.1/DTD/svg11.dtd">
<svg version="1.1" xmlns="http://www.w3.org/2000/svg" xmlns:xlink="http://www.w3.org/1999/xlink" x="0px" y="0px" width="16px"
	 height="16px" viewBox="0 0 16 16" style="enable-background:new 0 0 16 16;" xml:space="preserve">
<g id="_x33_-transportation_-_vehicle_car" style="enable-background:new    ;">
	<path d="M3.5,8.999c-0.829,0-1.5,0.671-1.5,1.5c0,0.828,0.671,1.5,1.5,1.5s1.5-0.672,1.5-1.5C5,9.67,4.329,8.999,3.5,8.999z
		 M3.5,10.999c-0.276,0-0.5-0.224-0.5-0.5s0.224-0.5,0.5-0.5c0.276,0,0.5,0.224,0.5,0.5S3.776,10.999,3.5,10.999z M12.5,8.999
		c-0.828,0-1.5,0.671-1.5,1.5c0,0.828,0.672,1.5,1.5,1.5s1.5-0.672,1.5-1.5C14,9.67,13.328,8.999,12.5,8.999z M12.5,10.999
		c-0.275,0-0.5-0.224-0.5-0.5s0.225-0.5,0.5-0.5s0.5,0.224,0.5,0.5S12.775,10.999,12.5,10.999z M16,6.499v-1
		C16,5.223,15.775,5,15.5,5h-1c-0.033,0-0.064,0.013-0.096,0.019L14,2.999c0-1.657-1.344-3-3-3H5c-1.657,0-3,1.343-3,3l-0.404,2.02
		C1.564,5.013,1.534,5,1.5,5h-1C0.224,5,0,5.223,0,5.499v1c0,0.276,0.224,0.5,0.5,0.5h0.7L1.162,7.188C0.478,7.506,0,8.194,0,8.999
		v3v2h1v1C1,15.552,1.448,16,2,16h1c0.552,0,1-0.448,1-1.001v-1h8v1C12,15.552,12.447,16,13,16h1c0.553,0,1-0.448,1-1.001v-1h1v-2
		v-3c0-0.805-0.479-1.493-1.162-1.811l-0.037-0.189H15.5C15.775,6.999,16,6.775,16,6.499z M3,2.999c0-1.105,0.896-2,2-2h6
		c1.105,0,2,0.895,2,2l0.801,4H2.2L3,2.999z M3,14.499c0,0.276-0.224,0.5-0.5,0.5c-0.276,0-0.5-0.224-0.5-0.5v-0.5h1V14.499z
		 M14,14.499c0,0.276-0.225,0.5-0.5,0.5s-0.5-0.224-0.5-0.5v-0.5h1V14.499z M15,8.999v3c0,0.552-0.447,1-1,1H2c-0.552,0-1-0.448-1-1
		v-3c0-0.553,0.448-1,1-1h12C14.553,7.999,15,8.446,15,8.999z"/>
</g>
<g id="Layer_1">
</g>
</svg>
