<?xml version="1.0" encoding="iso-8859-1"?>
<!-- Generator: Adobe Illustrator 16.0.0, SVG Export Plug-In . SVG Version: 6.00 Build 0)  -->
<!DOCTYPE svg PUBLIC "-//W3C//DTD SVG 1.1//EN" "http://www.w3.org/Graphics/SVG/1.1/DTD/svg11.dtd">
<svg version="1.1" xmlns="http://www.w3.org/2000/svg" xmlns:xlink="http://www.w3.org/1999/xlink" x="0px" y="0px" width="16px"
	 height="16px" viewBox="0 0 16 16" style="enable-background:new 0 0 16 16;" xml:space="preserve">
<g id="_x35_-transportation_-_bus" style="enable-background:new    ;">
	<path d="M6,2.999h4v-1H6V2.999z M14-0.001H2c-0.552,0-1,0.448-1,1v3V5v4.999v1V12c0,0.737,0.405,1.376,1,1.722v1.777
		C2,15.775,2.224,16,2.5,16C2.776,16,3,15.775,3,15.499v-1.5h10v1.5C13,15.775,13.225,16,13.5,16s0.5-0.225,0.5-0.501v-1.777
		c0.596-0.346,1-0.984,1-1.722v-1.001v-1V5V3.999v-3C15,0.447,14.553-0.001,14-0.001z M3,12.999c-0.552,0-1-0.447-1-0.999
		c0-0.553,0.448-1.001,1-1.001S4,11.447,4,12C4,12.552,3.552,12.999,3,12.999z M11.277,12.999H4.723C4.895,12.704,5,12.365,5,12
		c0-0.366-0.105-0.705-0.277-1.001h6.555C11.105,11.295,11,11.634,11,12C11,12.365,11.105,12.704,11.277,12.999z M13,12.999
		c-0.553,0-1-0.447-1-0.999c0-0.553,0.447-1.001,1-1.001s1,0.448,1,1.001C14,12.552,13.553,12.999,13,12.999z M14,9.499v0.5h-0.5
		h-11H2v-0.5V5h12V9.499z M14,3.999H2v-2.5c0-0.275,0.224-0.5,0.5-0.5h11c0.275,0,0.5,0.225,0.5,0.5V3.999z"/>
</g>
<g id="Layer_1">
</g>
</svg>
