<?xml version="1.0" encoding="iso-8859-1"?>
<!-- Generator: Adobe Illustrator 16.0.0, SVG Export Plug-In . SVG Version: 6.00 Build 0)  -->
<!DOCTYPE svg PUBLIC "-//W3C//DTD SVG 1.1//EN" "http://www.w3.org/Graphics/SVG/1.1/DTD/svg11.dtd">
<svg version="1.1" xmlns="http://www.w3.org/2000/svg" xmlns:xlink="http://www.w3.org/1999/xlink" x="0px" y="0px" width="16px"
	 height="16px" viewBox="0 0 16 16" style="enable-background:new 0 0 16 16;" xml:space="preserve">
<g id="_x31_4-transportation_-_bus" style="enable-background:new    ;">
	<path d="M14-0.001H2C0.896-0.001,0,0.895,0,2v0.999v1v5v1V12c0,1.104,0.896,1.999,2,1.999h0.05c0.232,1.142,1.24,2,2.45,2
		s2.218-0.858,2.45-2h2.101c0.23,1.142,1.24,2,2.449,2s2.219-0.858,2.449-2H14c1.105,0,2-0.896,2-1.999V9.999v-1v-5v-1V2
		C16,0.895,15.105-0.001,14-0.001z M1,3.999h2v5H1V3.999z M4.5,14.999c-0.829,0-1.5-0.671-1.5-1.5C3,12.671,3.671,12,4.5,12
		C5.328,12,6,12.671,6,13.499C6,14.328,5.328,14.999,4.5,14.999z M11.5,14.999c-0.828,0-1.5-0.671-1.5-1.5
		C10,12.671,10.672,12,11.5,12s1.5,0.671,1.5,1.499C13,14.328,12.328,14.999,11.5,14.999z M15,12c0,0.552-0.447,0.999-1,0.999
		h-0.051c-0.232-1.141-1.24-2-2.449-2s-2.219,0.859-2.449,2H6.95c-0.232-1.141-1.24-2-2.45-2s-2.218,0.859-2.45,2H2
		c-0.552,0-1-0.447-1-0.999V9.999h2h1h3h1h3h1h3V12z M4,8.999v-5h3v5H4z M8,8.999v-5h3v5H8z M15,8.999h-3v-5h3V8.999z M15,2.999h-3
		h-1H8H7H4H3H1V2c0-0.553,0.448-1.001,1-1.001h12c0.553,0,1,0.448,1,1.001V2.999z"/>
</g>
<g id="Layer_1">
</g>
</svg>
