<?xml version="1.0" encoding="iso-8859-1"?>
<!-- Generator: Adobe Illustrator 16.0.0, SVG Export Plug-In . SVG Version: 6.00 Build 0)  -->
<!DOCTYPE svg PUBLIC "-//W3C//DTD SVG 1.1//EN" "http://www.w3.org/Graphics/SVG/1.1/DTD/svg11.dtd">
<svg version="1.1" xmlns="http://www.w3.org/2000/svg" xmlns:xlink="http://www.w3.org/1999/xlink" x="0px" y="0px" width="16px"
	 height="16px" viewBox="0 0 16 16" style="enable-background:new 0 0 16 16;" xml:space="preserve">
<g id="_x31_3-transportation_-_pick_up_truck" style="enable-background:new    ;">
	<path d="M15,4.492c0-0.276-0.225-0.5-0.5-0.5H11V3.043c0-0.576-0.447-1.044-1-1.044H1c-0.552,0-1,0.468-1,1.044v7.304
		c0,0.577,0.448,1.044,1,1.044h0.011C1.009,11.428,1,11.463,1,11.5c0,1.381,1.119,2.499,2.5,2.499S6,12.881,6,11.5
		c0-0.037-0.009-0.072-0.011-0.109h3.023C9.01,11.428,9,11.463,9,11.5c0,1.381,1.12,2.499,2.5,2.499S14,12.881,14,11.5
		c0-0.177-0.02-0.349-0.055-0.515H15.5c0.275,0,0.5-0.224,0.5-0.5L15,4.492z M11,5h3l0.402,2.007H11V5z M3.5,12.987
		c-0.829,0-1.5-0.666-1.5-1.487s0.671-1.487,1.5-1.487S5,10.679,5,11.5S4.329,12.987,3.5,12.987z M9.51,10.001
		c-0.004,0-0.006,0.002-0.01,0.002H5.491C5.035,9.397,4.317,9,3.5,9s-1.535,0.397-1.991,1.003H1.5c-0.276,0-0.5-0.224-0.5-0.499
		V3.511c0-0.275,0.224-0.499,0.5-0.499h8c0.275,0,0.5,0.224,0.5,0.499v3.496v0.982v1.515c0,0.004-0.002,0.006-0.002,0.009
		C9.814,9.653,9.65,9.816,9.51,10.001z M11.5,12.987c-0.828,0-1.5-0.666-1.5-1.487s0.672-1.487,1.5-1.487S13,10.679,13,11.5
		S12.328,12.987,11.5,12.987z M13.488,10c-0.457-0.604-1.174-1-1.988-1c-0.172,0-0.338,0.018-0.5,0.051V7.989h3.598L15,10H13.488z"
		/>
</g>
<g id="Layer_1">
</g>
</svg>
