<?xml version="1.0" encoding="iso-8859-1"?>
<!-- Generator: Adobe Illustrator 16.0.0, SVG Export Plug-In . SVG Version: 6.00 Build 0)  -->
<!DOCTYPE svg PUBLIC "-//W3C//DTD SVG 1.1//EN" "http://www.w3.org/Graphics/SVG/1.1/DTD/svg11.dtd">
<svg version="1.1" xmlns="http://www.w3.org/2000/svg" xmlns:xlink="http://www.w3.org/1999/xlink" x="0px" y="0px" width="16px"
	 height="16px" viewBox="0 0 16 16" style="enable-background:new 0 0 16 16;" xml:space="preserve">
<g id="_x31_0-transportation_-_bicycle" style="enable-background:new    ;">
	<path d="M12.5,7.999c-0.166,0-0.326,0.027-0.486,0.05l-1.465-5.673c-0.064-0.234-0.289-0.378-0.529-0.372
		C10.014,2.003,10.008,1.999,10,1.999H7.5c-0.276,0-0.5,0.225-0.5,0.5C7,2.775,7.224,3,7.5,3h2.111l0.26,1.011
		c-0.09,0.021-0.176,0.058-0.246,0.128L5.473,8.61c-0.166-0.113-0.345-0.208-0.53-0.293c-0.009-0.024,0.004-0.052-0.01-0.075
		L2.962,4.312C2.959,4.305,2.956,4.3,2.953,4.294l-0.02-0.04c-0.008-0.015-0.021-0.022-0.03-0.035
		C2.877,4.183,2.851,4.15,2.817,4.122C2.8,4.106,2.781,4.096,2.761,4.084C2.727,4.063,2.692,4.043,2.652,4.03
		C2.628,4.022,2.604,4.02,2.578,4.016C2.552,4.011,2.528,4,2.5,4h-2C0.224,4,0,4.224,0,4.5c0,0.275,0.224,0.499,0.5,0.499h1.688
		l1.512,3.016C3.633,8.011,3.568,7.999,3.5,7.999C1.567,7.999,0,9.566,0,11.5c0,1.933,1.567,3.499,3.5,3.499
		c1.762,0,3.205-1.306,3.45-3h2.101c0.244,1.694,1.688,3,3.449,3c1.934,0,3.5-1.566,3.5-3.499C16,9.566,14.434,7.999,12.5,7.999z
		 M3.5,11.999h2.45C5.718,13.141,4.709,14,3.5,14C2.119,14,1,12.88,1,11.5c0-1.381,1.119-2.501,2.5-2.501
		c1.209,0,2.218,0.859,2.45,2H3.5c-0.276,0-0.5,0.225-0.5,0.501C3,11.775,3.224,11.999,3.5,11.999z M6.955,10.999
		c-0.095-0.634-0.357-1.21-0.743-1.688l3.935-4.238l0.848,3.279c-1.029,0.494-1.748,1.479-1.922,2.646H6.955z M12.5,14
		c-1.381,0-2.5-1.12-2.5-2.5c0-1.381,1.119-2.501,2.5-2.501S15,10.119,15,11.5C15,12.88,13.881,14,12.5,14z"/>
</g>
<g id="Layer_1">
</g>
</svg>
