<?xml version="1.0" encoding="iso-8859-1"?>
<!-- Generator: Adobe Illustrator 16.0.0, SVG Export Plug-In . SVG Version: 6.00 Build 0)  -->
<!DOCTYPE svg PUBLIC "-//W3C//DTD SVG 1.1//EN" "http://www.w3.org/Graphics/SVG/1.1/DTD/svg11.dtd">
<svg version="1.1" xmlns="http://www.w3.org/2000/svg" xmlns:xlink="http://www.w3.org/1999/xlink" x="0px" y="0px" width="16px"
	 height="16px" viewBox="0 0 16 16" style="enable-background:new 0 0 16 16;" xml:space="preserve">
<g id="_x37_-transportation_-_ship" style="enable-background:new    ;">
	<path d="M12,7.345V2.999h-2v-2c0-0.553-0.447-1-1-1H8c-0.552,0-1,0.447-1,1v2H5v4.428L2,8.498l2,7.501h4V16l5-0.001l2-7.501
		L12,7.345z M8,1.499c0-0.276,0.224-0.5,0.5-0.5c0.276,0,0.5,0.224,0.5,0.5v1.5H8V1.499z M8,14.999H5l-2-6L8,7.18V14.999z M6,7.07
		V3.998h5V6.96L8.491,6.181L6,7.07z M12,14.999H9l0-7.818l5,1.818L12,14.999z"/>
</g>
<g id="Layer_1">
</g>
</svg>
