<?xml version="1.0" encoding="iso-8859-1"?>
<!-- Generator: Adobe Illustrator 16.0.0, SVG Export Plug-In . SVG Version: 6.00 Build 0)  -->
<!DOCTYPE svg PUBLIC "-//W3C//DTD SVG 1.1//EN" "http://www.w3.org/Graphics/SVG/1.1/DTD/svg11.dtd">
<svg version="1.1" xmlns="http://www.w3.org/2000/svg" xmlns:xlink="http://www.w3.org/1999/xlink" x="0px" y="0px" width="16px"
	 height="16px" viewBox="0 0 16 16" style="enable-background:new 0 0 16 16;" xml:space="preserve">
<g id="_x39_-transportation_-_bicycle" style="enable-background:new    ;">
	<path d="M12.553,7.005l-0.844-3.054C11.879,3.872,12,3.701,12,3.499C12,3.224,11.775,3,11.5,3h-0.391c-0.006-0.001-0.014,0-0.02,0
		H9.5C9.225,3,9,3.224,9,3.499C9,3.775,9.225,4,9.5,4h1.117l0.83,3H6V4.999h0.5C6.776,4.999,7,4.775,7,4.5C7,4.224,6.776,4,6.5,4h-2
		C4.224,4,4,4.224,4,4.5c0,0.275,0.224,0.499,0.5,0.499H5V7H3.5C1.567,7,0,8.566,0,10.5C0,12.433,1.567,14,3.5,14
		c1.762,0,3.205-1.307,3.45-3.001h2.101C9.295,12.693,10.738,14,12.5,14c1.934,0,3.5-1.567,3.5-3.5
		C16,8.585,14.461,7.034,12.553,7.005z M3.5,10.999h2.45C5.718,12.141,4.709,13,3.5,13C2.119,13,1,11.88,1,10.5
		c0-1.381,1.119-2.501,2.5-2.501c1.209,0,2.218,0.859,2.45,2.001H3.5C3.224,10,3,10.224,3,10.5C3,10.775,3.224,10.999,3.5,10.999z
		 M9.041,10H6.95C6.837,9.218,6.46,8.525,5.923,7.999h4.19C9.559,8.524,9.156,9.206,9.041,10z M12.5,13c-1.381,0-2.5-1.12-2.5-2.5
		c0-1.121,0.742-2.059,1.76-2.376l0.691,2.499c0.076,0.275,0.369,0.438,0.652,0.365c0.285-0.074,0.455-0.357,0.377-0.633
		l-0.643-2.322C14.057,8.2,15,9.234,15,10.5C15,11.88,13.881,13,12.5,13z"/>
</g>
<g id="Layer_1">
</g>
</svg>
