<?xml version="1.0" encoding="iso-8859-1"?>
<!-- Generator: Adobe Illustrator 16.0.0, SVG Export Plug-In . SVG Version: 6.00 Build 0)  -->
<!DOCTYPE svg PUBLIC "-//W3C//DTD SVG 1.1//EN" "http://www.w3.org/Graphics/SVG/1.1/DTD/svg11.dtd">
<svg version="1.1" xmlns="http://www.w3.org/2000/svg" xmlns:xlink="http://www.w3.org/1999/xlink" x="0px" y="0px" width="16px"
	 height="16px" viewBox="0 0 16 16" style="enable-background:new 0 0 16 16;" xml:space="preserve">
<g id="_x31_1-transportation_-_bus" style="enable-background:new    ;">
	<path d="M14-0.001H2C0.896-0.001,0,0.895,0,2v0.999v1v5V10v2c0,1.104,0.896,1.999,2,1.999V15c0,0.552,0.448,1,1,1h1
		c0.552,0,1-0.448,1-1v-1.001h6V15c0,0.552,0.447,1,1,1h1c0.553,0,1-0.448,1-1v-1.001c1.105,0,2-0.895,2-1.999v-2V8.999v-5v-1V2
		C16,0.895,15.105-0.001,14-0.001z M1,3.999h2v5H1V3.999z M4,14.499C4,14.775,3.776,15,3.5,15C3.224,15,3,14.775,3,14.499v-0.5h1
		V14.499z M13,14.499C13,14.775,12.775,15,12.5,15S12,14.775,12,14.499v-0.5h1V14.499z M15,12c0,0.552-0.447,0.999-1,0.999H2
		c-0.552,0-1-0.447-1-0.999v-2h2h1h3h1h3h1h3V12z M4,8.999v-5h3v5H4z M8,8.999v-5h3v5H8z M15,8.999h-3v-5h3V8.999z M15,2.999h-3h-1
		H8H7H4H3H1V2c0-0.553,0.448-1.001,1-1.001h12c0.553,0,1,0.448,1,1.001V2.999z"/>
</g>
<g id="Layer_1">
</g>
</svg>
