<?xml version="1.0" encoding="iso-8859-1"?>
<!-- Generator: Adobe Illustrator 16.0.0, SVG Export Plug-In . SVG Version: 6.00 Build 0)  -->
<!DOCTYPE svg PUBLIC "-//W3C//DTD SVG 1.1//EN" "http://www.w3.org/Graphics/SVG/1.1/DTD/svg11.dtd">
<svg version="1.1" xmlns="http://www.w3.org/2000/svg" xmlns:xlink="http://www.w3.org/1999/xlink" x="0px" y="0px" width="16px"
	 height="16px" viewBox="0 0 16 16" style="enable-background:new 0 0 16 16;" xml:space="preserve">
<g id="_x31_2-transportation_-_pick_up_truck" style="enable-background:new    ;">
	<path d="M15.5,3.993H11V2.998C11,2.446,10.553,2,10,2H1C0.448,2,0,2.446,0,2.998v6.989c0,0.551,0.448,0.998,1,0.998h0.054
		C1.02,11.151,1,11.323,1,11.5c0,1.38,1.119,2.499,2.5,2.499S6,12.88,6,11.5c0-0.177-0.02-0.349-0.054-0.515h3.109
		C9.02,11.151,9,11.323,9,11.5c0,1.38,1.12,2.499,2.5,2.499S14,12.88,14,11.5c0-0.177-0.02-0.349-0.055-0.515H15.5
		c0.275,0,0.5-0.224,0.5-0.5V8.01V6.998V4.492C16,4.217,15.775,3.993,15.5,3.993z M3.5,12.987c-0.829,0-1.5-0.666-1.5-1.487
		s0.671-1.487,1.5-1.487S5,10.679,5,11.5S4.329,12.987,3.5,12.987z M9.51,10.001c-0.004,0-0.006,0.002-0.01,0.002H5.491
		C5.035,9.397,4.316,9,3.5,9c-0.817,0-1.535,0.397-1.991,1.003H1.5c-0.276,0-0.5-0.224-0.5-0.499V3.511
		c0-0.276,0.224-0.499,0.5-0.499h8c0.275,0,0.5,0.223,0.5,0.499v3.487V8.01v1.494c0,0.004-0.002,0.006-0.002,0.01
		C9.814,9.653,9.65,9.816,9.51,10.001z M11.5,12.987c-0.828,0-1.5-0.666-1.5-1.487s0.672-1.487,1.5-1.487S13,10.679,13,11.5
		S12.328,12.987,11.5,12.987z M15,10.003h-1.51C13.035,9.397,12.316,9,11.5,9c-0.172,0-0.338,0.018-0.5,0.051V8.01h4V10.003z
		 M15,6.998h-4V5.004h4V6.998z"/>
</g>
<g id="Layer_1">
</g>
</svg>
