<?xml version="1.0" encoding="iso-8859-1"?>
<!-- Generator: Adobe Illustrator 16.0.0, SVG Export Plug-In . SVG Version: 6.00 Build 0)  -->
<!DOCTYPE svg PUBLIC "-//W3C//DTD SVG 1.1//EN" "http://www.w3.org/Graphics/SVG/1.1/DTD/svg11.dtd">
<svg version="1.1" xmlns="http://www.w3.org/2000/svg" xmlns:xlink="http://www.w3.org/1999/xlink" x="0px" y="0px" width="16px"
	 height="16px" viewBox="0 0 16 16" style="enable-background:new 0 0 16 16;" xml:space="preserve">
<g id="_x31_6-user_-_female" style="enable-background:new    ;">
	<path style="fill-rule:evenodd;clip-rule:evenodd;" d="M14.193,11.97c-0.418-0.397-3.762-1.25-4.479-1.431
		c0.264-0.146,0.508-0.334,0.74-0.539H13.5c-1,0-1.021-4.5-1.021-4.5c0.008-0.132,0.023-0.265,0.023-0.396
		c0-2.818-0.818-5.104-4.503-5.104c-3.684,0-4.502,2.286-4.502,5.104C3.497,5.235,3.5,10,2.5,10h3.044
		c0.238,0.21,0.486,0.401,0.758,0.55c-0.817,0.2-4.061,1.017-4.488,1.42c-0.776,0.732-1.167,2.564-0.391,3.663
		c0,0,0.443,0.367,6.605,0.367c6.164,0,6.548-0.367,6.548-0.367C15.348,14.534,14.963,12.702,14.193,11.97z M13.5,14.999
		l-5.568-0.015c0,0-5.43,0.015-5.432,0.015c-1.097-0.422-0.54-2.146,0.191-2.499C3.367,12.173,6.391,11.226,7,11.036V9.791
		C6.589,9.619,6.22,9.347,5.9,9H4c0.5,0,0.5-3.5,0.5-3.5h0.015C4.507,5.374,4.501,5.247,4.501,5.122
		c0-2.279,0.583-4.126,3.497-4.126c2.916,0,3.498,1.847,3.498,4.126C11.496,5.247,11.5,9,12,9h-1.902C9.779,9.346,9.41,9.617,9,9.79
		v1.322c1.064,0.296,3.893,1.094,4.5,1.388C14.229,12.853,14.461,14.634,13.5,14.999z"/>
</g>
<g id="Layer_1">
</g>
</svg>
