<?xml version="1.0" encoding="iso-8859-1"?>
<!-- Generator: Adobe Illustrator 16.0.0, SVG Export Plug-In . SVG Version: 6.00 Build 0)  -->
<!DOCTYPE svg PUBLIC "-//W3C//DTD SVG 1.1//EN" "http://www.w3.org/Graphics/SVG/1.1/DTD/svg11.dtd">
<svg version="1.1" xmlns="http://www.w3.org/2000/svg" xmlns:xlink="http://www.w3.org/1999/xlink" x="0px" y="0px" width="16px"
	 height="16px" viewBox="0 0 16 16" style="enable-background:new 0 0 16 16;" xml:space="preserve">
<g id="_x33_3-user_-_password_lock" style="enable-background:new    ;">
	<path d="M13,7.35V4.146c0-2.291-2.016-4.148-4.5-4.148S4,1.855,4,4.146v3.204c-0.626,0.893-1,1.975-1,3.148
		c0,3.037,2.462,5.5,5.5,5.5c3.038,0,5.5-2.463,5.5-5.5C14,9.325,13.627,8.243,13,7.35z M5,4.129c0-1.729,1.567-3.13,3.5-3.13
		c1.934,0,3.5,1.401,3.5,3.13v2.16c-0.953-0.794-2.162-1.29-3.5-1.29c-1.337,0-2.546,0.496-3.5,1.29V4.129z M8.5,14.999
		c-2.485,0-4.5-2.015-4.5-4.5s2.015-4.5,4.5-4.5s4.5,2.015,4.5,4.5S10.984,14.999,8.5,14.999z M8.5,8.999
		c-0.275,0-0.5,0.224-0.5,0.5v2c0,0.275,0.224,0.499,0.5,0.499c0.276,0,0.5-0.224,0.5-0.499v-2C9,9.223,8.776,8.999,8.5,8.999z"/>
</g>
<g id="Layer_1">
</g>
</svg>
