<?xml version="1.0" encoding="iso-8859-1"?>
<!-- Generator: Adobe Illustrator 16.0.0, SVG Export Plug-In . SVG Version: 6.00 Build 0)  -->
<!DOCTYPE svg PUBLIC "-//W3C//DTD SVG 1.1//EN" "http://www.w3.org/Graphics/SVG/1.1/DTD/svg11.dtd">
<svg version="1.1" xmlns="http://www.w3.org/2000/svg" xmlns:xlink="http://www.w3.org/1999/xlink" x="0px" y="0px" width="16px"
	 height="16px" viewBox="0 0 16 16" style="enable-background:new 0 0 16 16;" xml:space="preserve">
<g id="_x32_3-user_-_single_delete_remove" style="enable-background:new    ;">
	<g>
		<path d="M10,10.715c-0.357-0.084-0.645-0.148-0.797-0.183c1.729-0.951,2.799-3.257,2.799-5.429c0-2.819-0.818-5.104-4.503-5.104
			c-3.684,0-4.503,2.285-4.503,5.104c0,2.18,1.078,4.493,2.818,5.438c-0.844,0.186-4.566,1.019-4.999,1.428
			c-0.776,0.732-1.167,2.564-0.391,3.663c0,0,0.943,0.367,7.106,0.367c0.947,0,1.757-0.01,2.47-0.024V14.99l-2.568-0.007
			c0,0-5.93,0.015-5.932,0.015c-1.096-0.423-0.54-2.145,0.191-2.499c0.602-0.292,3.398-1.078,4.487-1.38l0.2-0.986v-0.42
			C4.899,9,4,6.968,4,5.121c0-2.278,0.583-4.126,3.498-4.126c2.916,0,3.498,1.848,3.498,4.126c0,1.847-0.898,3.879-2.376,4.592v0.42
			l0.214,1.05c0.323,0.081,0.731,0.184,1.167,0.296v-0.479l0,0V10.715z"/>
		<path d="M15.5,12.999h-4c-0.275,0-0.5,0.224-0.5,0.5s0.225,0.5,0.5,0.5h4c0.275,0,0.5-0.224,0.5-0.5S15.775,12.999,15.5,12.999z"
			/>
	</g>
</g>
<g id="Layer_1">
</g>
</svg>
