<?xml version="1.0" encoding="iso-8859-1"?>
<!-- Generator: Adobe Illustrator 16.0.0, SVG Export Plug-In . SVG Version: 6.00 Build 0)  -->
<!DOCTYPE svg PUBLIC "-//W3C//DTD SVG 1.1//EN" "http://www.w3.org/Graphics/SVG/1.1/DTD/svg11.dtd">
<svg version="1.1" xmlns="http://www.w3.org/2000/svg" xmlns:xlink="http://www.w3.org/1999/xlink" x="0px" y="0px" width="16px"
	 height="16px" viewBox="0 0 16 16" style="enable-background:new 0 0 16 16;" xml:space="preserve">
<g id="_x32_7-user_-_list" style="enable-background:new    ;">
	<path d="M11.5,3.999h4c0.275,0,0.5-0.224,0.5-0.5s-0.225-0.5-0.5-0.5h-4c-0.275,0-0.5,0.224-0.5,0.5S11.225,3.999,11.5,3.999z
		 M15.5,5.999h-4c-0.275,0-0.5,0.224-0.5,0.5s0.225,0.5,0.5,0.5h4c0.275,0,0.5-0.224,0.5-0.5S15.775,5.999,15.5,5.999z M15.5,8.999
		h-3c-0.275,0-0.5,0.224-0.5,0.5s0.225,0.5,0.5,0.5h3c0.275,0,0.5-0.224,0.5-0.5S15.775,8.999,15.5,8.999z M8.954,8.168
		C9.598,7.304,10,6.209,10,4.999c0-2.762-2.015-5-4.5-5S1,2.237,1,4.999c0,1.21,0.402,2.305,1.046,3.169
		C0.86,8.568,0,9.678,0,10.999v2c0,1.656,1.343,3,3,3h5c1.656,0,3-1.344,3-3v-2C11,9.678,10.141,8.568,8.954,8.168z M2,4.999
		c0-2.209,1.567-4,3.5-4S9,2.79,9,4.999s-1.566,4-3.5,4S2,7.208,2,4.999z M10,12.999c0,1.104-0.896,1.999-2,1.999H3
		c-1.104,0-2-0.895-2-1.999v-2c0-1.051,0.813-1.902,1.842-1.984C3.588,9.626,4.501,9.999,5.5,9.999c0.998,0,1.912-0.373,2.658-0.984
		C9.188,9.097,10,9.948,10,10.999V12.999z M15.5,11.999h-3c-0.275,0-0.5,0.224-0.5,0.5s0.225,0.5,0.5,0.5h3
		c0.275,0,0.5-0.224,0.5-0.5S15.775,11.999,15.5,11.999z"/>
</g>
<g id="Layer_1">
</g>
</svg>
