<?xml version="1.0" encoding="iso-8859-1"?>
<!-- Generator: Adobe Illustrator 16.0.0, SVG Export Plug-In . SVG Version: 6.00 Build 0)  -->
<!DOCTYPE svg PUBLIC "-//W3C//DTD SVG 1.1//EN" "http://www.w3.org/Graphics/SVG/1.1/DTD/svg11.dtd">
<svg version="1.1" xmlns="http://www.w3.org/2000/svg" xmlns:xlink="http://www.w3.org/1999/xlink" x="0px" y="0px" width="16px"
	 height="16px" viewBox="0 0 16 16" style="enable-background:new 0 0 16 16;" xml:space="preserve">
<g id="_x32_6-user_-_male_list" style="enable-background:new    ;">
	<path d="M8.265,10.675H7.915c1.892-0.806,3.083-3.122,3.083-5.308c0-2.692-0.818-5.369-4.5-5.369C2.818-0.002,2,2.675,2,5.367
		c0,2.215,1.222,4.565,3.16,5.34c-0.684,0.168-3.953,0.987-4.375,1.387c-0.749,0.71-1.125,2.485-0.377,3.55
		c0,0,0.148,0.355,6.091,0.355s6.094-0.355,6.094-0.355c0.742-1.064,0.371-2.84-0.371-3.55C11.771,11.663,8.265,10.675,8.265,10.675
		z M11.398,14.998l-4.72-0.015c0,0-5.09,0.015-5.093,0.015c-1.028-0.423-0.506-2.146,0.179-2.5c0.601-0.31,3.176-1.176,3.927-1.426
		l0.127-0.628V9.899C4.073,9.446,3,7.302,3,5.386C3,3.23,3.583,0.995,6.499,0.995c2.916,0,3.498,2.235,3.498,4.391
		c0,1.723-0.873,3.617-2.317,4.316v0.742l0.149,0.733c0.983,0.335,3.042,1.047,3.571,1.32
		C12.082,12.851,12.301,14.633,11.398,14.998z M12.5,3.999h3c0.275,0,0.5-0.225,0.5-0.5c0-0.276-0.225-0.5-0.5-0.5h-3
		c-0.275,0-0.5,0.224-0.5,0.5C12,3.774,12.225,3.999,12.5,3.999z M15.5,8.999h-2c-0.275,0-0.5,0.224-0.5,0.5s0.225,0.5,0.5,0.5h2
		c0.275,0,0.5-0.224,0.5-0.5S15.775,8.999,15.5,8.999z M15.5,11.998h-1c-0.275,0-0.5,0.225-0.5,0.501s0.225,0.5,0.5,0.5h1
		c0.275,0,0.5-0.224,0.5-0.5S15.775,11.998,15.5,11.998z M15.5,5.999h-3c-0.275,0-0.5,0.224-0.5,0.5s0.225,0.5,0.5,0.5h3
		c0.275,0,0.5-0.224,0.5-0.5S15.775,5.999,15.5,5.999z"/>
</g>
<g id="Layer_1">
</g>
</svg>
