<?xml version="1.0" encoding="iso-8859-1"?>
<!-- Generator: Adobe Illustrator 16.0.0, SVG Export Plug-In . SVG Version: 6.00 Build 0)  -->
<!DOCTYPE svg PUBLIC "-//W3C//DTD SVG 1.1//EN" "http://www.w3.org/Graphics/SVG/1.1/DTD/svg11.dtd">
<svg version="1.1" xmlns="http://www.w3.org/2000/svg" xmlns:xlink="http://www.w3.org/1999/xlink" x="0px" y="0px" width="16px"
	 height="16px" viewBox="0 0 16 16" style="enable-background:new 0 0 16 16;" xml:space="preserve">
<g id="_x32_2-user_-_single_add" style="enable-background:new    ;">
	<path d="M1.543,14.998c-1.128-0.423-0.556-2.145,0.197-2.499c0.619-0.292,3.496-1.078,4.615-1.38l0.206-0.986v-0.42
		C5.039,9,4.115,6.968,4.115,5.121c0-2.278,0.6-4.126,3.598-4.126s3.598,1.848,3.598,4.126c0,1.847-0.924,3.879-2.445,4.592v0.42
		l0.22,1.05c0.58,0.141,1.412,0.347,2.229,0.559V11c0,0-1.543-0.401-1.848-0.468c1.777-0.951,2.879-3.257,2.879-5.429
		c0-2.819-0.844-5.104-4.633-5.104c-3.79,0-4.632,2.285-4.632,5.104c0,2.18,1.109,4.493,2.898,5.438
		c-0.868,0.186-4.696,1.019-5.142,1.428c-0.798,0.732-1.201,2.564-0.402,3.663c0,0,0.97,0.367,7.31,0.367
		c1.464,0,2.628-0.021,3.569-0.051v-0.956l-3.67-0.009C7.645,14.983,1.545,14.998,1.543,14.998z M15.49,12.999h-1.496v-1.5
		c0-0.276-0.223-0.5-0.498-0.5c-0.277,0-0.5,0.224-0.5,0.5v1.5H11.5c-0.275,0-0.498,0.224-0.498,0.5s0.223,0.5,0.498,0.5h1.496v1.5
		c0,0.276,0.223,0.5,0.5,0.5c0.275,0,0.498-0.224,0.498-0.5v-1.5h1.496c0.275,0,0.498-0.224,0.498-0.5S15.766,12.999,15.49,12.999z"
		/>
</g>
<g id="Layer_1">
</g>
</svg>
