<?xml version="1.0" encoding="iso-8859-1"?>
<!-- Generator: Adobe Illustrator 16.0.0, SVG Export Plug-In . SVG Version: 6.00 Build 0)  -->
<!DOCTYPE svg PUBLIC "-//W3C//DTD SVG 1.1//EN" "http://www.w3.org/Graphics/SVG/1.1/DTD/svg11.dtd">
<svg version="1.1" xmlns="http://www.w3.org/2000/svg" xmlns:xlink="http://www.w3.org/1999/xlink" x="0px" y="0px" width="16px"
	 height="16px" viewBox="0 0 16 16" style="enable-background:new 0 0 16 16;" xml:space="preserve">
<g id="_x39_-user_-_single_tick_done_valid" style="enable-background:new    ;">
	<path d="M3.94,9.015c0.772,0.611,1.717,0.984,2.75,0.984s1.978-0.373,2.75-0.984c0.693,0.054,1.287,0.437,1.619,0.984h1.137
		c-0.318-0.86-1.033-1.537-1.934-1.831c0.666-0.864,1.082-1.959,1.082-3.169c0-2.762-2.084-5-4.654-5c-2.571,0-4.655,2.238-4.655,5
		c0,1.21,0.417,2.305,1.083,3.169C1.889,8.568,1,9.678,1,10.999v2c0,1.656,1.389,3,3.104,3h4.655v-1H4.104
		c-1.143,0-2.069-0.896-2.069-2v-2C2.034,9.948,2.875,9.097,3.94,9.015z M3.069,4.999c0-2.209,1.621-4,3.621-4s3.621,1.791,3.621,4
		s-1.622,4-3.621,4S3.069,7.208,3.069,4.999z M14.818,11.141c-0.193-0.187-0.508-0.187-0.703,0l-2.77,2.68l-0.703-0.679
		c-0.193-0.188-0.508-0.188-0.703,0c-0.193,0.188-0.193,0.491,0,0.679l1.008,0.975c0.016,0.019,0.01,0.045,0.027,0.063
		c0.102,0.099,0.236,0.138,0.371,0.133c0.133,0.005,0.268-0.034,0.369-0.133c0.018-0.018,0.012-0.043,0.027-0.063l3.076-2.975
		C15.012,11.633,15.012,11.329,14.818,11.141z"/>
</g>
<g id="Layer_1">
</g>
</svg>
