<?xml version="1.0" encoding="iso-8859-1"?>
<!-- Generator: Adobe Illustrator 16.0.0, SVG Export Plug-In . SVG Version: 6.00 Build 0)  -->
<!DOCTYPE svg PUBLIC "-//W3C//DTD SVG 1.1//EN" "http://www.w3.org/Graphics/SVG/1.1/DTD/svg11.dtd">
<svg version="1.1" xmlns="http://www.w3.org/2000/svg" xmlns:xlink="http://www.w3.org/1999/xlink" x="0px" y="0px" width="16px"
	 height="16px" viewBox="0 0 16 16" style="enable-background:new 0 0 16 16;" xml:space="preserve">
<g id="_x37_-user_-_single_add" style="enable-background:new    ;">
	<path d="M3.842,9.015C4.588,9.626,5.502,9.999,6.5,9.999s1.912-0.373,2.658-0.984c0.67,0.054,1.244,0.437,1.564,0.984h1.1
		c-0.307-0.86-0.998-1.537-1.869-1.831C10.598,7.304,11,6.209,11,4.999c0-2.762-2.015-5-4.5-5c-2.485,0-4.5,2.238-4.5,5
		c0,1.21,0.402,2.305,1.046,3.169C1.86,8.568,1,9.678,1,10.999v2c0,1.656,1.343,3,3,3h5v-1H4c-1.104,0-2-0.896-2-2v-2
		C2,9.948,2.813,9.097,3.842,9.015z M3,4.999c0-2.209,1.567-4,3.5-4s3.5,1.791,3.5,4s-1.567,4-3.5,4S3,7.208,3,4.999z M14.5,12.999
		H13v-1.5c0-0.276-0.225-0.5-0.5-0.5s-0.5,0.224-0.5,0.5v1.5h-1.5c-0.275,0-0.5,0.224-0.5,0.5s0.225,0.5,0.5,0.5H12v1.5
		c0,0.276,0.225,0.5,0.5,0.5s0.5-0.224,0.5-0.5v-1.5h1.5c0.275,0,0.5-0.224,0.5-0.5S14.775,12.999,14.5,12.999z"/>
</g>
<g id="Layer_1">
</g>
</svg>
