<?xml version="1.0" encoding="iso-8859-1"?>
<!-- Generator: Adobe Illustrator 16.0.0, SVG Export Plug-In . SVG Version: 6.00 Build 0)  -->
<!DOCTYPE svg PUBLIC "-//W3C//DTD SVG 1.1//EN" "http://www.w3.org/Graphics/SVG/1.1/DTD/svg11.dtd">
<svg version="1.1" xmlns="http://www.w3.org/2000/svg" xmlns:xlink="http://www.w3.org/1999/xlink" x="0px" y="0px" width="16px"
	 height="16px" viewBox="0 0 16 16" style="enable-background:new 0 0 16 16;" xml:space="preserve">
<g id="_x34_-user_-_single_tick_done_valid" style="enable-background:new    ;">
	<g>
		<path d="M15.857,11.141c-0.188-0.187-0.492-0.187-0.678,0l-2.68,2.679l-0.68-0.679c-0.188-0.188-0.49-0.188-0.678,0
			c-0.188,0.188-0.188,0.492,0,0.68l0.928,0.928c0.021,0.037,0.039,0.076,0.072,0.108c0.098,0.099,0.229,0.142,0.357,0.138
			c0.129,0.004,0.26-0.039,0.357-0.138c0.031-0.032,0.051-0.071,0.072-0.108l2.928-2.929C16.045,11.632,16.045,11.328,15.857,11.141
			z"/>
		<path d="M10,10.178C9.568,9.873,9.1,9.613,8.592,9.422C10.027,8.65,11,7.184,11,5.499c0-2.485-2.111-4.5-4.714-4.5
			S2.007,2.916,2.007,5.281c0,1.604,0.536,3.369,1.972,4.141C1.65,10.3,0,12.464,0,14.999v1h1.047v-1c0-2.762,2.345-5,5.238-5
			c1.404,0,2.757,0.612,3.699,1.471L10,10.178z M3,5.499c0-1.933,1.567-3.5,3.5-3.5s3.5,1.567,3.5,3.5s-1.567,3.5-3.5,3.5
			S3,7.432,3,5.499z"/>
	</g>
</g>
<g id="Layer_1">
</g>
</svg>
