<?xml version="1.0" encoding="iso-8859-1"?>
<!-- Generator: Adobe Illustrator 16.0.0, SVG Export Plug-In . SVG Version: 6.00 Build 0)  -->
<!DOCTYPE svg PUBLIC "-//W3C//DTD SVG 1.1//EN" "http://www.w3.org/Graphics/SVG/1.1/DTD/svg11.dtd">
<svg version="1.1" xmlns="http://www.w3.org/2000/svg" xmlns:xlink="http://www.w3.org/1999/xlink" x="0px" y="0px" width="16px"
	 height="16px" viewBox="0 0 16 16" style="enable-background:new 0 0 16 16;" xml:space="preserve">
<g id="_x31_9-user_-_female_tick_done" style="enable-background:new    ;">
	<path style="fill-rule:evenodd;clip-rule:evenodd;" d="M9.453,10.001H12.5c-1,0-0.998-4.765-0.998-4.896
		C11.502,2.286,10.682,0,6.997,0C3.313,0,2.494,2.286,2.494,5.104c0,0.131,0.005,4.896-0.995,4.896h3.044
		c0.237,0.21,0.486,0.401,0.758,0.55c-0.817,0.2-4.061,1.017-4.488,1.42c-0.776,0.732-1.167,2.564-0.391,3.663
		c0,0,0.442,0.367,6.606,0.367c1.197,0,2.171-0.014,2.972-0.036v-0.972l-3.069-0.008c0,0-5.43,0.015-5.432,0.015
		c-1.097-0.422-0.54-2.146,0.191-2.499c0.675-0.327,3.7-1.274,4.309-1.464V9.783c-0.41-0.173-0.782-0.437-1.1-0.782h-1.9
		c0.5,0,0.501-3.753,0.501-3.878c0-2.279,0.583-4.126,3.498-4.126c2.917,0,3.499,1.847,3.499,4.126c0,0.125,0.004,3.878,0.504,3.878
		H9.096C8.778,9.346,8.408,9.608,7.999,9.782v1.332c0.451,0.125,1.216,0.34,2.001,0.569v-0.683c0,0-1.003-0.389-1.288-0.46
		C8.978,10.395,9.221,10.206,9.453,10.001z M15.857,11.144c-0.188-0.188-0.492-0.188-0.68,0L12.5,13.822l-0.68-0.679
		c-0.188-0.188-0.49-0.188-0.678,0c-0.188,0.187-0.188,0.491,0,0.679l0.93,0.932c0.021,0.036,0.039,0.073,0.07,0.104
		c0.098,0.099,0.229,0.142,0.355,0.137c0.131,0.005,0.26-0.038,0.359-0.137c0.031-0.032,0.051-0.072,0.072-0.11l2.928-2.926
		C16.045,11.634,16.045,11.33,15.857,11.144z"/>
</g>
<g id="Layer_1">
</g>
</svg>
