<?xml version="1.0" encoding="iso-8859-1"?>
<!-- Generator: Adobe Illustrator 16.0.0, SVG Export Plug-In . SVG Version: 6.00 Build 0)  -->
<!DOCTYPE svg PUBLIC "-//W3C//DTD SVG 1.1//EN" "http://www.w3.org/Graphics/SVG/1.1/DTD/svg11.dtd">
<svg version="1.1" xmlns="http://www.w3.org/2000/svg" xmlns:xlink="http://www.w3.org/1999/xlink" x="0px" y="0px" width="16px"
	 height="16px" viewBox="0 0 16 16" style="enable-background:new 0 0 16 16;" xml:space="preserve">
<g id="_x32_9-user_-_male_group" style="enable-background:new    ;">
	<path d="M7.905,10.638c0.997-0.978,1.597-2.644,1.597-4.23c0-2.435-0.637-4.408-3.503-4.408S2.497,3.973,2.497,6.407
		c0,1.592,0.603,3.263,1.605,4.238c-1.04,0.252-3.093,0.775-3.404,1.056c-0.666,0.6-1,2.099-0.335,2.998
		c0,0,0.379,0.299,5.663,0.299c5.283,0,5.613-0.299,5.613-0.299c0.66-0.899,0.33-2.398-0.33-2.998
		C11.008,11.428,8.924,10.889,7.905,10.638z M10.479,13.999l-4.54-0.012c0,0-4.427,0.011-4.429,0.012
		c-0.894-0.317-0.44-1.609,0.156-1.875c0.453-0.202,2.208-0.721,3.091-0.977l0.121-0.402v-0.69C4.014,9.326,3.5,7.819,3.5,6.441
		c0-1.898,0.417-3.437,2.499-3.437c2.083,0,2.499,1.538,2.499,3.437c0,1.378-0.513,2.886-1.378,3.614v0.689l0.138,0.453
		c1.038,0.269,2.794,0.735,3.222,0.926C11.07,12.389,11.262,13.725,10.479,13.999z M15.309,10.201
		c-0.297-0.27-2.328-0.798-3.361-1.053c0.973-0.931,1.555-2.49,1.555-3.974c0-2.307-0.637-4.176-3.504-4.176
		c-0.908,0-1.574,0.205-2.085,0.535c0.695,0.052,1.245,0.225,1.671,0.5C9.721,2.019,9.846,1.996,10,1.996
		c2.082,0,2.498,1.437,2.498,3.209c0,1.286-0.514,2.693-1.379,3.373v0.667l0.139,0.454c1.037,0.268,2.793,0.734,3.221,0.924
		c0.592,0.265,0.783,1.602,0,1.876l-1.529-0.004c0.057,0.317,0.064,0.648,0.004,0.962c2.482-0.082,2.686-0.258,2.686-0.258
		C16.299,12.3,15.969,10.801,15.309,10.201z"/>
</g>
<g id="Layer_1">
</g>
</svg>
