<?xml version="1.0" encoding="iso-8859-1"?>
<!-- Generator: Adobe Illustrator 16.0.0, SVG Export Plug-In . SVG Version: 6.00 Build 0)  -->
<!DOCTYPE svg PUBLIC "-//W3C//DTD SVG 1.1//EN" "http://www.w3.org/Graphics/SVG/1.1/DTD/svg11.dtd">
<svg version="1.1" xmlns="http://www.w3.org/2000/svg" xmlns:xlink="http://www.w3.org/1999/xlink" x="0px" y="0px" width="16px"
	 height="16px" viewBox="0 0 16 16" style="enable-background:new 0 0 16 16;" xml:space="preserve">
<g id="_x33_0-user_-_female_group" style="enable-background:new    ;">
	<path style="fill-rule:evenodd;clip-rule:evenodd;" d="M15.637,14.701c0,0-0.254,0.222-3.693,0.283
		c-0.055,0.259-0.152,0.505-0.307,0.717c0,0-0.33,0.299-5.613,0.299c-5.282,0-5.662-0.299-5.662-0.299
		c-0.665-0.899-0.33-2.398,0.335-2.998c0.349-0.314,2.871-0.931,3.713-1.13c-0.29-0.158-0.565-0.343-0.81-0.572
		c-0.975,0-2.147,0-2.487,0c0.864,0,0.911-3.5,0.911-3.5C2.017,7.393,1.996,7.284,1.996,7.178c0-2.307,0.728-4.177,4.001-4.177
		c3.272,0,3.999,1.87,3.999,4.177c0,0.272-0.025,0.549-0.068,0.823c0,0,0.092,3,0.955,3c-0.34,0-1.514,0-2.488,0
		c-0.24,0.226-0.512,0.408-0.795,0.564c0.799,0.192,3.367,0.831,3.707,1.138c0.475,0.432,0.771,1.325,0.66,2.129
		c0.588-0.068,0.67-0.131,0.67-0.131c0.152-0.208,0.248-0.45,0.303-0.704l1.535,0.004c0.785-0.274,0.594-1.61,0-1.875
		c-0.393-0.176-1.928-0.589-2.977-0.862l-0.072-1.763c0.201-0.144,0.393-0.306,0.559-0.5c0.51,0,1.262,0,1.449,0
		c-0.344,0-0.439-2.657-0.439-2.794c0-1.772-0.498-3.209-2.998-3.209c-0.002,0-0.002,0-0.004,0C9.629,2.632,9.139,2.356,8.497,2.191
		c0.434-0.112,0.914-0.19,1.5-0.19c3.273,0,4,1.869,4,4.176c0,0.273-0.025,0.55-0.068,0.824c0,0,0.092,3,0.955,3
		c-0.34,0-1.514,0-2.488,0c-0.24,0.225-0.512,0.407-0.797,0.564c0.801,0.192,3.369,0.83,3.709,1.138
		C15.967,12.303,16.297,13.802,15.637,14.701z M10.475,13.126c-0.461-0.206-2.501-0.741-3.476-0.991v-1.371
		c0.375-0.176,0.707-0.437,0.986-0.763c0.512,0,1.261,0,1.449,0c-0.344,0-0.439-2.657-0.439-2.794c0-1.772-0.498-3.209-2.998-3.209
		c-2.499,0-2.999,1.437-2.999,3.209c0,0.143-0.094,2.794-0.437,2.794c0.188,0,0.937,0,1.447,0c0.279,0.327,0.613,0.587,0.989,0.764
		v1.314c-0.732,0.211-2.83,0.821-3.335,1.047c-0.596,0.266-1.05,1.558-0.155,1.875C1.51,15,5.937,14.989,5.937,14.989l4.538,0.012
		C11.26,14.727,11.068,13.391,10.475,13.126z"/>
</g>
<g id="Layer_1">
</g>
</svg>
