<?xml version="1.0" encoding="iso-8859-1"?>
<!-- Generator: Adobe Illustrator 16.0.0, SVG Export Plug-In . SVG Version: 6.00 Build 0)  -->
<!DOCTYPE svg PUBLIC "-//W3C//DTD SVG 1.1//EN" "http://www.w3.org/Graphics/SVG/1.1/DTD/svg11.dtd">
<svg version="1.1" xmlns="http://www.w3.org/2000/svg" xmlns:xlink="http://www.w3.org/1999/xlink" x="0px" y="0px" width="16px"
	 height="16px" viewBox="0 0 16 16" style="enable-background:new 0 0 16 16;" xml:space="preserve">
<g id="_x33_1-user_-_group" style="enable-background:new    ;">
	<path d="M13,7.999h-0.779c0.262,0.289,0.463,0.626,0.596,1H13c1.104,0,2,0.896,2,2s-0.896,2-2,2v1c1.656,0,3-1.344,3-3
		C16,9.342,14.656,7.999,13,7.999z M15,3.999c0-2.209-1.566-4-3.5-4c-0.531,0-1.031,0.146-1.482,0.389
		c0.258,0.233,0.494,0.492,0.709,0.772c0.244-0.097,0.502-0.161,0.773-0.161c1.381,0,2.5,1.343,2.5,3
		c0,1.579-1.021,2.859-2.313,2.977c-0.049,0.154-0.105,0.304-0.166,0.452c0.234,0.139,0.449,0.3,0.637,0.495
		C13.775,7.57,15,5.95,15,3.999z M9.953,8.168C10.598,7.304,11,6.209,11,4.999c0-2.762-2.015-5-4.5-5c-2.485,0-4.5,2.238-4.5,5
		c0,1.21,0.402,2.305,1.046,3.169C1.86,8.568,1,9.678,1,10.999v2c0,1.656,1.343,2.999,3,2.999h5c1.657,0,3-1.343,3-2.999v-2
		C12,9.678,11.141,8.568,9.953,8.168z M3,4.999c0-2.209,1.567-4,3.5-4s3.5,1.791,3.5,4s-1.567,4-3.5,4S3,7.208,3,4.999z M11,12.999
		c0,1.104-0.895,2-2,2H4c-1.104,0-2-0.896-2-2v-2c0-1.051,0.813-1.902,1.842-1.984C4.588,9.626,5.501,9.999,6.5,9.999
		c0.998,0,1.912-0.373,2.658-0.984C10.188,9.097,11,9.948,11,10.999V12.999z"/>
</g>
<g id="Layer_1">
</g>
</svg>
