<?xml version="1.0" encoding="iso-8859-1"?>
<!-- Generator: Adobe Illustrator 16.0.0, SVG Export Plug-In . SVG Version: 6.00 Build 0)  -->
<!DOCTYPE svg PUBLIC "-//W3C//DTD SVG 1.1//EN" "http://www.w3.org/Graphics/SVG/1.1/DTD/svg11.dtd">
<svg version="1.1" xmlns="http://www.w3.org/2000/svg" xmlns:xlink="http://www.w3.org/1999/xlink" x="0px" y="0px" width="16px"
	 height="16px" viewBox="0 0 16 16" style="enable-background:new 0 0 16 16;" xml:space="preserve">
<g id="_x32_-user_-_single_add" style="enable-background:new    ;">
	<g>
		<path d="M15.5,12.998H14v-1.499c0-0.276-0.225-0.501-0.5-0.501S13,11.223,13,11.499v1.499h-1.5c-0.275,0-0.5,0.225-0.5,0.5
			c0,0.277,0.225,0.501,0.5,0.501H13v1.5c0,0.275,0.225,0.5,0.5,0.5s0.5-0.225,0.5-0.5v-1.5h1.5c0.275,0,0.5-0.224,0.5-0.501
			C16,13.223,15.775,12.998,15.5,12.998z"/>
		<path d="M11,10.178c-0.432-0.305-0.9-0.564-1.408-0.756C11.027,8.65,12,7.184,12,5.499c0-2.485-2.111-4.5-4.714-4.5
			c-2.604,0-4.278,1.917-4.278,4.282c0,1.604,0.536,3.369,1.972,4.141C2.65,10.3,1,12.464,1,14.999v1h1.047v-1
			c0-2.762,2.345-5,5.238-5c1.403,0,2.773,0.549,3.714,1.407v-0.408V10.178z M4,5.499c0-1.933,1.567-3.5,3.5-3.5
			c1.934,0,3.5,1.567,3.5,3.5s-1.566,3.5-3.5,3.5C5.567,8.999,4,7.432,4,5.499z"/>
	</g>
</g>
<g id="Layer_1">
</g>
</svg>
