<?xml version="1.0" encoding="iso-8859-1"?>
<!-- Generator: Adobe Illustrator 16.0.0, SVG Export Plug-In . SVG Version: 6.00 Build 0)  -->
<!DOCTYPE svg PUBLIC "-//W3C//DTD SVG 1.1//EN" "http://www.w3.org/Graphics/SVG/1.1/DTD/svg11.dtd">
<svg version="1.1" xmlns="http://www.w3.org/2000/svg" xmlns:xlink="http://www.w3.org/1999/xlink" x="0px" y="0px" width="16px"
	 height="16px" viewBox="0 0 16 16" style="enable-background:new 0 0 16 16;" xml:space="preserve">
<g id="_x34_0-user_-_female" style="enable-background:new    ;">
	<path d="M10.246,7.043c0.76-0.734,1.254-1.817,1.254-3.044c0-2.209-1.566-4-3.5-4c-1.933,0-3.5,1.791-3.5,4
		c0,1.227,0.493,2.31,1.253,3.044C5.597,7.328,3,13.999,3,13.999c0,1.104,0.896,2,2,2h6c1.105,0,2-0.896,2-2
		C13,13.999,10.402,7.328,10.246,7.043z M5.5,3.999c0-1.657,1.119-3,2.5-3s2.5,1.343,2.5,3s-1.119,3-2.5,3S5.5,5.656,5.5,3.999z
		 M11,14.999H5c-0.552,0-1-0.448-1-1c0,0,2.529-6.244,2.572-6.355C7.009,7.868,7.49,7.999,8,7.999s0.991-0.131,1.428-0.355
		C9.471,7.755,12,13.999,12,13.999C12,14.551,11.553,14.999,11,14.999z"/>
</g>
<g id="Layer_1">
</g>
</svg>
