<?xml version="1.0" encoding="iso-8859-1"?>
<!-- Generator: Adobe Illustrator 16.0.0, SVG Export Plug-In . SVG Version: 6.00 Build 0)  -->
<!DOCTYPE svg PUBLIC "-//W3C//DTD SVG 1.1//EN" "http://www.w3.org/Graphics/SVG/1.1/DTD/svg11.dtd">
<svg version="1.1" xmlns="http://www.w3.org/2000/svg" xmlns:xlink="http://www.w3.org/1999/xlink" x="0px" y="0px" width="16px"
	 height="16px" viewBox="0 0 16 16" style="enable-background:new 0 0 16 16;" xml:space="preserve">
<g id="_x32_5-user_-_single_delete_cross" style="enable-background:new    ;">
	<g>
		<path d="M11,10.874c-0.586-0.158-1.084-0.285-1.301-0.339c1.73-0.95,2.803-3.258,2.803-5.432c0-2.819-0.818-5.104-4.503-5.104
			c-3.684,0-4.503,2.285-4.503,5.104c0,2.183,1.081,4.498,2.825,5.44c-0.782,0.192-4.075,1.019-4.506,1.425
			c-0.776,0.732-1.167,2.564-0.391,3.663c0,0,0.443,0.367,6.606,0.367c1.197,0,2.169-0.015,2.97-0.037v-0.97l-3.068-0.009
			c0,0-5.43,0.015-5.432,0.015c-1.096-0.423-0.54-2.145,0.191-2.499c0.591-0.287,2.987-1.05,3.983-1.362l0.204-1.004v-0.42
			C5.399,9,4.5,6.968,4.5,5.121c0-2.278,0.583-4.126,3.498-4.126c2.916,0,3.498,1.848,3.498,4.126c0,1.847-0.896,3.879-2.377,4.592
			v0.42l0.219,1.073c0.449,0.126,1.053,0.296,1.662,0.476V11l0,0V10.874z"/>
		<path d="M14.68,13.999l1.178-1.179c0.188-0.188,0.188-0.491,0-0.679s-0.49-0.188-0.678,0L14,13.32l-1.18-1.179
			c-0.188-0.188-0.49-0.188-0.678,0s-0.188,0.491,0,0.679l1.178,1.179l-1.178,1.179c-0.188,0.188-0.188,0.491,0,0.679
			s0.49,0.188,0.678,0L14,14.678l1.18,1.179c0.188,0.188,0.49,0.188,0.678,0s0.188-0.491,0-0.679L14.68,13.999z"/>
	</g>
</g>
<g id="Layer_1">
</g>
</svg>
