<?xml version="1.0" encoding="iso-8859-1"?>
<!-- Generator: Adobe Illustrator 16.0.0, SVG Export Plug-In . SVG Version: 6.00 Build 0)  -->
<!DOCTYPE svg PUBLIC "-//W3C//DTD SVG 1.1//EN" "http://www.w3.org/Graphics/SVG/1.1/DTD/svg11.dtd">
<svg version="1.1" xmlns="http://www.w3.org/2000/svg" xmlns:xlink="http://www.w3.org/1999/xlink" x="0px" y="0px" width="16px"
	 height="16px" viewBox="0 0 16 16" style="enable-background:new 0 0 16 16;" xml:space="preserve">
<g id="_x33_7-user_-_password_unlock" style="enable-background:new    ;">
	<path d="M10.5,10.999h-3c-0.276,0-0.5,0.224-0.5,0.5s0.224,0.5,0.5,0.5h3c0.275,0,0.5-0.224,0.5-0.5S10.775,10.999,10.5,10.999z
		 M13,5.999h-1h-1H5v-1.5C5,2.566,6.567,1,8.5,1c1.762,0,3.206,1.306,3.45,2.999h1c-0.252-2.246-2.135-4-4.45-4
		c-2.485,0-4.5,2.016-4.5,4.5v1.5c-1.104,0-2,0.896-2,2v6v2h2h9h2v-2v-6C15,6.895,14.105,5.999,13,5.999z M14,13.999
		c0,0.552-0.447,1-1,1H4c-0.552,0-1-0.448-1-1v-6c0-0.552,0.448-1,1-1h9c0.553,0,1,0.448,1,1V13.999z"/>
</g>
<g id="Layer_1">
</g>
</svg>
