<?xml version="1.0" encoding="iso-8859-1"?>
<!-- Generator: Adobe Illustrator 16.0.0, SVG Export Plug-In . SVG Version: 6.00 Build 0)  -->
<!DOCTYPE svg PUBLIC "-//W3C//DTD SVG 1.1//EN" "http://www.w3.org/Graphics/SVG/1.1/DTD/svg11.dtd">
<svg version="1.1" xmlns="http://www.w3.org/2000/svg" xmlns:xlink="http://www.w3.org/1999/xlink" x="0px" y="0px" width="16px"
	 height="16px" viewBox="0 0 16 16" style="enable-background:new 0 0 16 16;" xml:space="preserve">
<g id="_x34_2-user_-_contact_book" style="enable-background:new    ;">
	<path d="M14-0.001H3c-0.552,0-1,0.447-1,1v2H1.5c-0.276,0-0.5,0.224-0.5,0.5s0.224,0.5,0.5,0.5H2v2H1.5c-0.276,0-0.5,0.224-0.5,0.5
		s0.224,0.499,0.5,0.499H2v2.001H1.5c-0.276,0-0.5,0.224-0.5,0.5s0.224,0.5,0.5,0.5H2v2H1.5c-0.276,0-0.5,0.224-0.5,0.5
		c0,0.275,0.224,0.5,0.5,0.5H2v2c0,0.552,0.448,1,1,1h11c0.553,0,1-0.448,1-1v-14C15,0.446,14.553-0.001,14-0.001z M11,14.999H3.5
		c-0.276,0-0.5-0.224-0.5-0.5v-1.5h0.5c0.276,0,0.5-0.225,0.5-0.5c0-0.276-0.224-0.5-0.5-0.5H3v-2h0.5c0.276,0,0.5-0.224,0.5-0.5
		s-0.224-0.5-0.5-0.5H3V6.998h0.5c0.276,0,0.5-0.223,0.5-0.499s-0.224-0.5-0.5-0.5H3v-2h0.5c0.276,0,0.5-0.224,0.5-0.5
		s-0.224-0.5-0.5-0.5H3v-1.5c0-0.276,0.224-0.5,0.5-0.5H11V14.999z M14,14.499c0,0.276-0.225,0.5-0.5,0.5H12v-14h1.5
		c0.275,0,0.5,0.224,0.5,0.5V14.499z"/>
</g>
<g id="Layer_1">
</g>
</svg>
