<?xml version="1.0" encoding="iso-8859-1"?>
<!-- Generator: Adobe Illustrator 16.0.0, SVG Export Plug-In . SVG Version: 6.00 Build 0)  -->
<!DOCTYPE svg PUBLIC "-//W3C//DTD SVG 1.1//EN" "http://www.w3.org/Graphics/SVG/1.1/DTD/svg11.dtd">
<svg version="1.1" xmlns="http://www.w3.org/2000/svg" xmlns:xlink="http://www.w3.org/1999/xlink" x="0px" y="0px" width="16px"
	 height="16px" viewBox="0 0 16 16" style="enable-background:new 0 0 16 16;" xml:space="preserve">
<g id="_x31_-user_-_single" style="enable-background:new    ;">
	<path d="M10.201,9.422C11.572,8.65,12.5,7.184,12.5,5.499c0-2.485-2.016-4.5-4.5-4.5c-2.485,0-4.5,2.015-4.5,4.5
		c0,1.685,0.928,3.151,2.298,3.923C3.575,10.3,2,12.464,2,14.999v1h1v-1c0-2.762,2.239-5,5-5c2.762,0,5,2.238,5,5v1h1v-1
		C14,12.464,12.424,10.3,10.201,9.422z M4.5,5.499c0-1.933,1.567-3.5,3.5-3.5c1.934,0,3.5,1.567,3.5,3.5s-1.566,3.5-3.5,3.5
		C6.067,8.999,4.5,7.432,4.5,5.499z"/>
</g>
<g id="Layer_1">
</g>
</svg>
