<?xml version="1.0" encoding="iso-8859-1"?>
<!-- Generator: Adobe Illustrator 16.0.0, SVG Export Plug-In . SVG Version: 6.00 Build 0)  -->
<!DOCTYPE svg PUBLIC "-//W3C//DTD SVG 1.1//EN" "http://www.w3.org/Graphics/SVG/1.1/DTD/svg11.dtd">
<svg version="1.1" xmlns="http://www.w3.org/2000/svg" xmlns:xlink="http://www.w3.org/1999/xlink" x="0px" y="0px" width="16px"
	 height="16px" viewBox="0 0 16 16" style="enable-background:new 0 0 16 16;" xml:space="preserve">
<g id="_x31_0-user_-_single_delete_cross" style="enable-background:new    ;">
	<path d="M13.057,12.999l1.215-1.179c0.195-0.188,0.195-0.491,0-0.68c-0.193-0.187-0.506-0.187-0.699,0l-1.217,1.18l-1.217-1.18
		c-0.193-0.187-0.508-0.187-0.701,0c-0.193,0.188-0.193,0.492,0,0.68l1.217,1.179l-1.217,1.179c-0.193,0.188-0.193,0.491,0,0.68
		c0.193,0.187,0.508,0.187,0.701,0l1.217-1.18l1.217,1.18c0.193,0.187,0.506,0.187,0.699,0c0.195-0.188,0.195-0.492,0-0.68
		L13.057,12.999z M3.934,9.015c0.771,0.611,1.713,0.984,2.744,0.984s1.974-0.373,2.745-0.984c0.691,0.054,1.283,0.437,1.615,0.984
		h1.135c-0.318-0.86-1.031-1.537-1.93-1.831c0.664-0.864,1.08-1.959,1.08-3.169c0-2.762-2.08-5-4.645-5
		c-2.565,0-4.645,2.238-4.645,5c0,1.21,0.416,2.305,1.08,3.169C1.888,8.568,1,9.678,1,10.999v2c0,1.656,1.386,3,3.097,3H9l0.129-1
		H4.097c-1.14,0-2.064-0.896-2.064-2v-2C2.032,9.948,2.871,9.097,3.934,9.015z M3.064,4.999c0-2.209,1.618-4,3.613-4
		s3.614,1.791,3.614,4s-1.619,4-3.614,4S3.064,7.208,3.064,4.999z"/>
</g>
<g id="Layer_1">
</g>
</svg>
