<?xml version="1.0" encoding="iso-8859-1"?>
<!-- Generator: Adobe Illustrator 16.0.0, SVG Export Plug-In . SVG Version: 6.00 Build 0)  -->
<!DOCTYPE svg PUBLIC "-//W3C//DTD SVG 1.1//EN" "http://www.w3.org/Graphics/SVG/1.1/DTD/svg11.dtd">
<svg version="1.1" xmlns="http://www.w3.org/2000/svg" xmlns:xlink="http://www.w3.org/1999/xlink" x="0px" y="0px" width="16px"
	 height="16px" viewBox="0 0 16 16" style="enable-background:new 0 0 16 16;" xml:space="preserve">
<g id="_x32_0-user_-_female_delete_cross" style="enable-background:new    ;">
	<g>
		<path d="M9.455,10.001H12.5c-1,0-0.998-4.765-0.998-4.896C11.502,2.286,10.682,0,6.999,0C3.314,0,2.495,2.286,2.495,5.104
			c0,0.131,0.005,4.896-0.995,4.896h3.044c0.238,0.21,0.486,0.401,0.758,0.55c-0.817,0.2-4.061,1.017-4.488,1.42
			c-0.776,0.732-1.167,2.564-0.391,3.663c0,0,0.442,0.367,6.606,0.367c1.196,0,2.169-0.014,2.97-0.036v-0.972l-3.068-0.008
			c0,0-5.43,0.015-5.432,0.015c-1.097-0.422-0.54-2.146,0.191-2.499c0.675-0.327,3.7-1.274,4.309-1.464V9.783
			C5.59,9.61,5.219,9.347,4.9,9.001H3c0.5,0,0.501-3.753,0.501-3.878c0-2.279,0.583-4.126,3.498-4.126
			c2.916,0,3.498,1.847,3.498,4.126c0,0.125,0.004,3.878,0.504,3.878H9.098C8.78,9.346,8.409,9.608,8,9.782v1.332
			c0.451,0.125,1.216,0.34,2,0.569v-0.683c0,0-1.001-0.389-1.286-0.46C8.979,10.395,9.223,10.206,9.455,10.001z"/>
		<path d="M14.73,13.992l1.107-1.107c0.205-0.204,0.205-0.535,0-0.739c-0.203-0.204-0.535-0.204-0.738,0l-1.107,1.108l-1.109-1.108
			c-0.203-0.204-0.535-0.204-0.738,0c-0.205,0.204-0.205,0.535,0,0.739l1.107,1.107l-1.107,1.108c-0.205,0.204-0.205,0.535,0,0.739
			c0.203,0.204,0.535,0.204,0.738,0l1.109-1.108L15.1,15.84c0.203,0.204,0.535,0.204,0.738,0c0.205-0.204,0.205-0.535,0-0.739
			L14.73,13.992z"/>
	</g>
</g>
<g id="Layer_1">
</g>
</svg>
