<?xml version="1.0" encoding="iso-8859-1"?>
<!-- Generator: Adobe Illustrator 16.0.0, SVG Export Plug-In . SVG Version: 6.00 Build 0)  -->
<!DOCTYPE svg PUBLIC "-//W3C//DTD SVG 1.1//EN" "http://www.w3.org/Graphics/SVG/1.1/DTD/svg11.dtd">
<svg version="1.1" xmlns="http://www.w3.org/2000/svg" xmlns:xlink="http://www.w3.org/1999/xlink" x="0px" y="0px" width="16px"
	 height="16px" viewBox="0 0 16 16" style="enable-background:new 0 0 16 16;" xml:space="preserve">
<g id="_x36_-user_-_single" style="enable-background:new    ;">
	<path d="M11.953,8.168C12.598,7.304,13,6.209,13,4.999c0-2.762-2.016-5-4.5-5S4,2.237,4,4.999c0,1.21,0.402,2.305,1.046,3.169
		C3.86,8.568,3,9.678,3,10.999v2c0,1.656,1.343,3,3,3h5c1.656,0,3-1.344,3-3v-2C14,9.678,13.141,8.568,11.953,8.168z M5,4.999
		c0-2.209,1.567-4,3.5-4c1.934,0,3.5,1.791,3.5,4s-1.566,4-3.5,4C6.567,8.999,5,7.208,5,4.999z M13,12.999c0,1.104-0.896,2-2,2H6
		c-1.104,0-2-0.896-2-2v-2c0-1.051,0.813-1.902,1.842-1.984C6.588,9.626,7.501,9.999,8.5,9.999c0.999,0,1.913-0.373,2.659-0.984
		C12.188,9.097,13,9.948,13,10.999V12.999z"/>
</g>
<g id="Layer_1">
</g>
</svg>
