<?xml version="1.0" encoding="iso-8859-1"?>
<!-- Generator: Adobe Illustrator 16.0.0, SVG Export Plug-In . SVG Version: 6.00 Build 0)  -->
<!DOCTYPE svg PUBLIC "-//W3C//DTD SVG 1.1//EN" "http://www.w3.org/Graphics/SVG/1.1/DTD/svg11.dtd">
<svg version="1.1" xmlns="http://www.w3.org/2000/svg" xmlns:xlink="http://www.w3.org/1999/xlink" x="0px" y="0px" width="16px"
	 height="16px" viewBox="0 0 16 16" style="enable-background:new 0 0 16 16;" xml:space="preserve">
<g id="_x33_2-user_-_single" style="enable-background:new    ;">
	<path d="M8-0.001c-4.418,0-8,3.582-8,8c0,4.419,3.582,8,8,8c4.418,0,8-3.581,8-8C16,3.581,12.418-0.001,8-0.001z M8.13,14.986
		c0,0-0.214-0.001-0.264-0.001c-1.586-0.03-3.026-0.599-4.186-1.516c0.115-0.285,0.387-0.556,0.56-0.658
		c0.471-0.282,2.296-1.092,2.709-1.274L7,10.999V10C6.027,9.485,5.5,8.399,5.5,7c0-2.501,0.492-3.004,2.499-3.004S10.5,4.499,10.5,7
		c0,1.399-0.527,2.485-1.5,3v0.999l0.049,0.535c0.422,0.177,2.373,0.993,2.846,1.277c0.16,0.096,0.346,0.388,0.428,0.655
		C11.162,14.386,9.719,14.956,8.13,14.986z M13.072,12.776l-0.162-0.244c-0.035-0.062-0.072-0.117-0.111-0.171l-0.031-0.047
		l-0.004,0.005c-0.023-0.031-0.047-0.067-0.074-0.095c-0.338-0.346-2.951-1.153-3.189-1.226c1.186-0.84,2-2.308,2-3.999
		c0-2-0.609-4-3.494-4.001C5.247,2.998,4.5,5,4.5,7c0,1.689,0.855,3.162,2.04,4.004c-0.15,0.045-2.864,0.855-3.224,1.221
		c-0.053,0.054-0.102,0.118-0.149,0.188l-0.002-0.004l-0.24,0.364C1.741,11.523,1,9.855,1,7.999c0-3.865,3.134-7,7-7
		c3.865,0,7,3.135,7,7C15,9.858,14.258,11.527,13.072,12.776z"/>
</g>
<g id="Layer_1">
</g>
</svg>
