<?xml version="1.0" encoding="iso-8859-1"?>
<!-- Generator: Adobe Illustrator 16.0.0, SVG Export Plug-In . SVG Version: 6.00 Build 0)  -->
<!DOCTYPE svg PUBLIC "-//W3C//DTD SVG 1.1//EN" "http://www.w3.org/Graphics/SVG/1.1/DTD/svg11.dtd">
<svg version="1.1" xmlns="http://www.w3.org/2000/svg" xmlns:xlink="http://www.w3.org/1999/xlink" x="0px" y="0px" width="16px"
	 height="16px" viewBox="0 0 16 16" style="enable-background:new 0 0 16 16;" xml:space="preserve">
<g id="_x32_8-user_-_female_list" style="enable-background:new    ;">
	<path style="fill-rule:evenodd;clip-rule:evenodd;" d="M4.999,10.659V9.532C4.766,9.381,4.544,9.21,4.349,9.001
		C3.712,9.002,2.8,9.002,2.499,9.002c0.726-0.001,0.5-3.5,0.5-3.5h0.005C3.003,5.466,3,5.43,3,5.394
		c0-2.151,0.583-4.396,3.498-4.396c2.915,0,3.497,2.245,3.497,4.396c0,0.036-0.004,0.072-0.004,0.108h0.008c0,0,0.018,3.499,0.5,3.5
		c-0.223,0-1.189,0-1.851-0.001C8.452,9.209,8.231,9.38,7.999,9.53v1.136c0.365-0.165,0.693-0.397,1-0.665
		c1.226,0.001,2.628,0.001,3,0.001c-0.734-0.001-0.98-2.542-1.059-3.805c0.035-0.275,0.055-0.55,0.055-0.824
		C10.994,2.682,10.178,0,6.497,0c-3.68,0-4.499,2.682-4.499,5.373c0,0.278,0.02,0.559,0.057,0.839
		c-0.079,1.268-0.327,3.789-1.057,3.79c0.371,0,1.768,0,2.992-0.001C4.298,10.269,4.634,10.492,4.999,10.659z M12.498,4.001h3
		c0.275,0,0.5-0.224,0.5-0.5s-0.225-0.5-0.5-0.5h-3c-0.277,0-0.5,0.224-0.5,0.5S12.221,4.001,12.498,4.001z M8.262,10.677H7.999
		v1.032c1.032,0.309,2.896,0.877,3.397,1.104c0.682,0.309,0.902,1.868,0,2.188l-4.72-0.013c0,0-5.09,0.013-5.092,0.013
		c-1.027-0.37-0.507-1.877,0.18-2.188c0.471-0.213,2.162-0.727,3.234-1.044v-1.02c-0.93,0.231-3.82,0.974-4.215,1.347
		c-0.748,0.71-1.125,2.485-0.377,3.55c0,0,0.428,0.354,6.372,0.354c5.942,0,5.813-0.354,5.813-0.354
		c0.742-1.064,0.371-2.84-0.371-3.55C11.77,11.665,8.262,10.677,8.262,10.677z M15.498,9.001h-2c-0.277,0-0.5,0.224-0.5,0.5
		s0.223,0.5,0.5,0.5h2c0.275,0,0.5-0.224,0.5-0.5S15.773,9.001,15.498,9.001z M15.498,6.001h-3c-0.277,0-0.5,0.224-0.5,0.5
		s0.223,0.5,0.5,0.5h3c0.275,0,0.5-0.224,0.5-0.5S15.773,6.001,15.498,6.001z M15.498,12h-1c-0.277,0-0.5,0.225-0.5,0.501
		s0.223,0.5,0.5,0.5h1c0.275,0,0.5-0.224,0.5-0.5S15.773,12,15.498,12z"/>
</g>
<g id="Layer_1">
</g>
</svg>
