<?xml version="1.0" encoding="iso-8859-1"?>
<!-- Generator: Adobe Illustrator 16.0.0, SVG Export Plug-In . SVG Version: 6.00 Build 0)  -->
<!DOCTYPE svg PUBLIC "-//W3C//DTD SVG 1.1//EN" "http://www.w3.org/Graphics/SVG/1.1/DTD/svg11.dtd">
<svg version="1.1" xmlns="http://www.w3.org/2000/svg" xmlns:xlink="http://www.w3.org/1999/xlink" x="0px" y="0px" width="16px"
	 height="16px" viewBox="0 0 16 16" style="enable-background:new 0 0 16 16;" xml:space="preserve">
<g id="_x32_4-user_-_single_tick_done_valid" style="enable-background:new    ;">
	<g>
		<path d="M10,10.33c-0.113-0.038-0.229-0.077-0.326-0.109c1.445-1.086,2.328-3.152,2.328-5.117c0-2.819-0.818-5.104-4.503-5.104
			c-3.684,0-4.503,2.285-4.503,5.104c0,1.964,0.883,4.03,2.328,5.117c-1.309,0.434-4.135,1.395-4.509,1.748
			c-0.776,0.732-1.167,2.564-0.391,3.663c0,0,0.943,0.367,7.106,0.367c0.947,0,1.757-0.01,2.47-0.024V14.99l-2.568-0.007
			c0,0-5.93,0.015-5.932,0.015c-1.096-0.423-0.54-2.145,0.191-2.499c0.606-0.294,3.441-1.416,4.512-1.838l0.175-0.717V9.702
			C4.899,8.958,4,6.846,4,4.999c0-2.278,0.583-4.004,3.499-4.004C10.414,0.995,11,2.721,11,4.999c0,1.848-0.9,3.961-2.38,4.705v0.24
			l0.198,0.812c0.327,0.115,0.739,0.262,1.182,0.421v-0.178l0,0V10.33z"/>
		<path d="M15.857,11.141c-0.188-0.188-0.492-0.188-0.678,0l-2.68,2.68l-0.68-0.679c-0.188-0.188-0.49-0.188-0.678,0
			s-0.188,0.491,0,0.679l0.975,0.975c0.014,0.019,0.008,0.045,0.025,0.062c0.098,0.099,0.229,0.139,0.357,0.133
			c0.129,0.006,0.26-0.034,0.357-0.133c0.018-0.017,0.012-0.043,0.025-0.062l2.975-2.975C16.045,11.633,16.045,11.329,15.857,11.141
			z"/>
	</g>
</g>
<g id="Layer_1">
</g>
</svg>
