<?xml version="1.0" encoding="iso-8859-1"?>
<!-- Generator: Adobe Illustrator 16.0.0, SVG Export Plug-In . SVG Version: 6.00 Build 0)  -->
<!DOCTYPE svg PUBLIC "-//W3C//DTD SVG 1.1//EN" "http://www.w3.org/Graphics/SVG/1.1/DTD/svg11.dtd">
<svg version="1.1" xmlns="http://www.w3.org/2000/svg" xmlns:xlink="http://www.w3.org/1999/xlink" x="0px" y="0px" width="16px"
	 height="16px" viewBox="0 0 16 16" style="enable-background:new 0 0 16 16;" xml:space="preserve">
<g id="_x31_3-user_-_single_delete_remove" style="enable-background:new    ;">
	<path d="M10.84,11.843C12.143,10.669,13,8.717,13,6.499c0-3.59-2.238-6.5-5-6.5c-2.761,0-5,2.91-5,6.5
		c0,2.216,0.856,4.167,2.158,5.34C3.125,12.727,0,14.446,0,14.999s0.448,1,1,1h9v-1H1c0.455-0.303,3.109-1.61,5.015-2.538
		C6.624,12.804,7.293,12.999,8,12.999s1.375-0.194,1.984-0.538c0.006,0.003,0.01,0.005,0.016,0.007V12.45
		c0.225-0.127,0.434-0.284,0.639-0.451h0.564C11.08,11.943,10.961,11.896,10.84,11.843z M8,12c-2.209,0-4-2.463-4-5.501
		c0-3.037,1.791-5.5,4-5.5s4,2.463,4,5.5C12,9.537,10.209,12,8,12z M15.5,12.998h-4c-0.275,0-0.5,0.225-0.5,0.501
		c0,0.275,0.225,0.5,0.5,0.5h4c0.275,0,0.5-0.225,0.5-0.5C16,13.223,15.775,12.998,15.5,12.998z"/>
</g>
<g id="Layer_1">
</g>
</svg>
