<?xml version="1.0" encoding="iso-8859-1"?>
<!-- Generator: Adobe Illustrator 16.0.0, SVG Export Plug-In . SVG Version: 6.00 Build 0)  -->
<!DOCTYPE svg PUBLIC "-//W3C//DTD SVG 1.1//EN" "http://www.w3.org/Graphics/SVG/1.1/DTD/svg11.dtd">
<svg version="1.1" xmlns="http://www.w3.org/2000/svg" xmlns:xlink="http://www.w3.org/1999/xlink" x="0px" y="0px" width="16px"
	 height="16px" viewBox="0 0 16 16" style="enable-background:new 0 0 16 16;" xml:space="preserve">
<g id="_x31_1-user_-_single" style="enable-background:new    ;">
	<path d="M10.842,11.839C12.145,10.666,13,8.715,13,6.499c0-3.59-2.238-6.5-5-6.5s-5,2.91-5,6.5c0,2.216,0.856,4.167,2.158,5.34
		C3.125,12.727,0,14.446,0,14.999s0.448,1,1,1h14c0.553,0,1-0.447,1-1S12.875,12.727,10.842,11.839z M4,6.499
		c0-3.038,1.791-5.5,4-5.5s4,2.462,4,5.5c0,3.037-1.791,5.5-4,5.5S4,9.536,4,6.499z M1,14.999c0.455-0.303,3.108-1.61,5.014-2.538
		C6.624,12.804,7.293,12.999,8,12.999s1.377-0.195,1.984-0.538c1.902,0.927,4.551,2.231,5.016,2.538H1z"/>
</g>
<g id="Layer_1">
</g>
</svg>
