<?xml version="1.0" encoding="iso-8859-1"?>
<!-- Generator: Adobe Illustrator 16.0.0, SVG Export Plug-In . SVG Version: 6.00 Build 0)  -->
<!DOCTYPE svg PUBLIC "-//W3C//DTD SVG 1.1//EN" "http://www.w3.org/Graphics/SVG/1.1/DTD/svg11.dtd">
<svg version="1.1" xmlns="http://www.w3.org/2000/svg" xmlns:xlink="http://www.w3.org/1999/xlink" x="0px" y="0px" width="16px"
	 height="16px" viewBox="0 0 16 16" style="enable-background:new 0 0 16 16;" xml:space="preserve">
<g id="_x33_9-user_-_male" style="enable-background:new    ;">
	<path d="M10.906,6.226C11.281,5.589,11.5,4.823,11.5,3.999c0-2.209-1.566-4-3.5-4c-1.933,0-3.5,1.791-3.5,4
		c0,0.824,0.219,1.59,0.593,2.227C4.447,6.558,4,7.223,4,7.999l1.5,6c0,0,0.896,2,2,2h1c1.106,0,2-2,2-2l1.5-6
		C12,7.223,11.553,6.558,10.906,6.226z M8,0.999c1.381,0,2.5,1.343,2.5,3s-1.119,3-2.5,3s-2.5-1.343-2.5-3S6.619,0.999,8,0.999z
		 M9.5,13.999c-0.328,0.579-0.447,1-1,1h-1c-0.552,0-0.715-0.301-1-1l-1.5-6c0-0.467,0.326-0.841,0.759-0.951
		C6.367,7.633,7.143,7.999,8,7.999c0.858,0,1.633-0.366,2.242-0.951C10.674,7.158,11,7.532,11,7.999L9.5,13.999z"/>
</g>
<g id="Layer_1">
</g>
</svg>
