<?xml version="1.0" encoding="iso-8859-1"?>
<!-- Generator: Adobe Illustrator 16.0.0, SVG Export Plug-In . SVG Version: 6.00 Build 0)  -->
<!DOCTYPE svg PUBLIC "-//W3C//DTD SVG 1.1//EN" "http://www.w3.org/Graphics/SVG/1.1/DTD/svg11.dtd">
<svg version="1.1" xmlns="http://www.w3.org/2000/svg" xmlns:xlink="http://www.w3.org/1999/xlink" x="0px" y="0px" width="16px"
	 height="16px" viewBox="0 0 16 16" style="enable-background:new 0 0 16 16;" xml:space="preserve">
<g id="_x33_6-user_-_password_lock" style="enable-background:new    ;">
	<path d="M13,5.999v-1.5c0-2.484-2.016-4.5-4.5-4.5S4,2.015,4,4.499v1.5c-1.104,0-2,0.896-2,2v6v2h2h9h2v-2v-6
		C15,6.895,14.104,5.999,13,5.999z M5,4.499C5,2.566,6.567,1,8.5,1C10.434,1,12,2.566,12,4.499v1.5H5V4.499z M14,13.999
		c0,0.552-0.447,1-1,1H4c-0.552,0-1-0.448-1-1v-6c0-0.552,0.448-1,1-1h9c0.553,0,1,0.448,1,1V13.999z M8.5,8.999
		c-0.275,0-0.5,0.224-0.5,0.5v3c0,0.276,0.224,0.5,0.5,0.5c0.276,0,0.5-0.224,0.5-0.5v-3C9,9.223,8.776,8.999,8.5,8.999z"/>
</g>
<g id="Layer_1">
</g>
</svg>
