<?xml version="1.0" encoding="iso-8859-1"?>
<!-- Generator: Adobe Illustrator 16.0.0, SVG Export Plug-In . SVG Version: 6.00 Build 0)  -->
<!DOCTYPE svg PUBLIC "-//W3C//DTD SVG 1.1//EN" "http://www.w3.org/Graphics/SVG/1.1/DTD/svg11.dtd">
<svg version="1.1" xmlns="http://www.w3.org/2000/svg" xmlns:xlink="http://www.w3.org/1999/xlink" x="0px" y="0px" width="16px"
	 height="16px" viewBox="0 0 16 16" style="enable-background:new 0 0 16 16;" xml:space="preserve">
<g id="_x34_1-user_-_password_key" style="enable-background:new    ;">
	<path d="M13.604,2.382c-1.857-1.857-4.868-1.857-6.725,0c-1.727,1.727-1.827,4.44-0.342,6.307l-4.383,3.993
		C2.009,12.813,1.972,13,2.031,13.165L1.996,13.2L4.802,16l0.702-0.7L3.24,13.043l1.363-1.242L6.799,14l0.699-0.699l-2.162-2.167
		l1.903-1.732c1.867,1.535,4.621,1.452,6.365-0.294C15.461,7.251,15.461,4.239,13.604,2.382z M12.898,8.395
		c-1.463,1.464-3.836,1.464-5.3,0c-1.463-1.463-1.463-3.836,0-5.3c1.464-1.463,3.837-1.463,5.3,0
		C14.361,4.559,14.361,6.932,12.898,8.395z"/>
</g>
<g id="Layer_1">
</g>
</svg>
