<?xml version="1.0" encoding="iso-8859-1"?>
<!-- Generator: Adobe Illustrator 16.0.0, SVG Export Plug-In . SVG Version: 6.00 Build 0)  -->
<!DOCTYPE svg PUBLIC "-//W3C//DTD SVG 1.1//EN" "http://www.w3.org/Graphics/SVG/1.1/DTD/svg11.dtd">
<svg version="1.1" xmlns="http://www.w3.org/2000/svg" xmlns:xlink="http://www.w3.org/1999/xlink" x="0px" y="0px" width="16px"
	 height="16px" viewBox="0 0 16 16" style="enable-background:new 0 0 16 16;" xml:space="preserve">
<g id="_x31_7-user_-_female_add" style="enable-background:new    ;">
	<path style="fill-rule:evenodd;clip-rule:evenodd;" d="M9.453,10.001h3.045c-1,0-0.998-4.765-0.998-4.896
		C11.5,2.286,10.68,0,6.997,0C3.313,0,2.494,2.286,2.494,5.104c0,0.131,0.005,4.896-0.995,4.896h3.044
		c0.237,0.21,0.486,0.401,0.758,0.55c-0.817,0.2-4.061,1.017-4.488,1.42c-0.776,0.732-1.167,2.564-0.391,3.663
		c0,0,0.442,0.367,6.606,0.367c1.197,0,2.169-0.014,2.97-0.036v-0.972l-3.067-0.008c0,0-5.43,0.015-5.432,0.015
		c-1.097-0.422-0.54-2.146,0.191-2.499c0.675-0.327,3.7-1.274,4.309-1.464V9.783c-0.41-0.173-0.782-0.437-1.1-0.782h-1.9
		c0.5,0,0.501-3.753,0.501-3.878c0-2.279,0.583-4.126,3.498-4.126c2.915,0,3.497,1.847,3.497,4.126c0,0.125,0.004,3.878,0.504,3.878
		H9.096C8.778,9.346,8.408,9.608,7.999,9.782v1.332c0.451,0.125,1.216,0.34,1.999,0.569v-0.683c0,0-1.001-0.389-1.286-0.46
		C8.977,10.395,9.221,10.206,9.453,10.001z M15.498,13h-1.5v-1.5c0-0.275-0.225-0.499-0.5-0.499c-0.277,0-0.5,0.224-0.5,0.499V13
		h-1.5c-0.277,0-0.5,0.225-0.5,0.501s0.223,0.5,0.5,0.5h1.5V15.5c0,0.277,0.223,0.501,0.5,0.501c0.275,0,0.5-0.224,0.5-0.501v-1.499
		h1.5c0.275,0,0.5-0.224,0.5-0.5S15.773,13,15.498,13z"/>
</g>
<g id="Layer_1">
</g>
</svg>
