<?xml version="1.0" encoding="iso-8859-1"?>
<!-- Generator: Adobe Illustrator 16.0.0, SVG Export Plug-In . SVG Version: 6.00 Build 0)  -->
<!DOCTYPE svg PUBLIC "-//W3C//DTD SVG 1.1//EN" "http://www.w3.org/Graphics/SVG/1.1/DTD/svg11.dtd">
<svg version="1.1" xmlns="http://www.w3.org/2000/svg" xmlns:xlink="http://www.w3.org/1999/xlink" x="0px" y="0px" width="16px"
	 height="16px" viewBox="0 0 16 16" style="enable-background:new 0 0 16 16;" xml:space="preserve">
<g id="_x33_8-user_-_password_unlock" style="enable-background:new    ;">
	<path d="M4.5,11.999h3c0.276,0,0.5-0.224,0.5-0.5s-0.224-0.5-0.5-0.5h-3c-0.276,0-0.5,0.224-0.5,0.5S4.224,11.999,4.5,11.999z
		 M12-0.001c-2.209,0-4,1.791-4,4v2H2c-1.104,0-2,0.942-2,2.104v5.79c0,0.036,0.008,0.07,0.01,0.105H0v2h12v-2h-0.01
		C11.992,13.964,12,13.93,12,13.894v-0.395v-1V8.104c0-1.162-0.896-2.104-2-2.104H9v-2c0-1.657,1.344-3,3-3s3,1.343,3,3v1h1v-1
		C16,1.79,14.209-0.001,12-0.001z M10,6.999c0.553,0,1,0.478,1,1.066v5.867c0,0.023-0.012,0.043-0.014,0.066H11v1H1v-1h0.013
		C1.011,13.976,1,13.956,1,13.933V8.065c0-0.589,0.448-1.066,1-1.066H10z"/>
</g>
<g id="Layer_1">
</g>
</svg>
