<?xml version="1.0" encoding="iso-8859-1"?>
<!-- Generator: Adobe Illustrator 16.0.0, SVG Export Plug-In . SVG Version: 6.00 Build 0)  -->
<!DOCTYPE svg PUBLIC "-//W3C//DTD SVG 1.1//EN" "http://www.w3.org/Graphics/SVG/1.1/DTD/svg11.dtd">
<svg version="1.1" xmlns="http://www.w3.org/2000/svg" xmlns:xlink="http://www.w3.org/1999/xlink" x="0px" y="0px" width="16px"
	 height="16px" viewBox="0 0 16 16" style="enable-background:new 0 0 16 16;" xml:space="preserve">
<g id="_x33_4-user_-_password_unlock" style="enable-background:new    ;">
	<path d="M9.5,9.999h-2c-0.276,0-0.5,0.224-0.5,0.5c0,0.275,0.224,0.5,0.5,0.5h2c0.277,0,0.5-0.225,0.5-0.5
		C10,10.223,9.777,9.999,9.5,9.999z M8.5,4.999c-1.337,0-2.546,0.496-3.5,1.29v-2.16c0-1.729,1.567-3.13,3.5-3.13
		c1.883,0,3.407,1.332,3.485,2.999h1c-0.088-2.221-2.055-4-4.485-4C6.015-0.002,4,1.855,4,4.146v3.204c-0.626,0.893-1,1.975-1,3.148
		c0,3.037,2.462,5.5,5.5,5.5c3.038,0,5.5-2.463,5.5-5.5C14,7.461,11.537,4.999,8.5,4.999z M8.5,14.999c-2.485,0-4.5-2.015-4.5-4.5
		s2.015-4.5,4.5-4.5s4.5,2.015,4.5,4.5S10.984,14.999,8.5,14.999z"/>
</g>
<g id="Layer_1">
</g>
</svg>
