<?xml version="1.0" encoding="iso-8859-1"?>
<!-- Generator: Adobe Illustrator 16.0.0, SVG Export Plug-In . SVG Version: 6.00 Build 0)  -->
<!DOCTYPE svg PUBLIC "-//W3C//DTD SVG 1.1//EN" "http://www.w3.org/Graphics/SVG/1.1/DTD/svg11.dtd">
<svg version="1.1" xmlns="http://www.w3.org/2000/svg" xmlns:xlink="http://www.w3.org/1999/xlink" x="0px" y="0px" width="16px"
	 height="16px" viewBox="0 0 16 16" style="enable-background:new 0 0 16 16;" xml:space="preserve">
<g id="_x31_9-weather_-_moon_night_dawn" style="enable-background:new    ;">
	<path d="M9.5,12.999h-7c-0.276,0-0.5,0.224-0.5,0.5c0,0.275,0.224,0.5,0.5,0.5h7c0.275,0,0.5-0.225,0.5-0.5
		C10,13.223,9.775,12.999,9.5,12.999z M8.5,14.999h-5c-0.276,0-0.5,0.224-0.5,0.5s0.224,0.5,0.5,0.5h5c0.276,0,0.5-0.224,0.5-0.5
		S8.776,14.999,8.5,14.999z M8.319,10.999C8.127,10.362,8,9.698,8,8.999c0-3.526,2.61-6.435,6-6.921
		c-1.178-0.683-2.541-1.079-4-1.079c-4.419,0-8,3.582-8,8c0,0.691,0.097,1.359,0.262,2H0v1h16v-1H8.319z M3.326,10.999
		C3.134,10.361,3,9.698,3,8.999c0-3.86,3.14-7,7-7c0.34,0,0.68,0.025,1.016,0.075C8.604,3.471,7,6.086,7,8.999
		c0,0.688,0.096,1.357,0.265,2H3.326z"/>
</g>
<g id="Layer_1">
</g>
</svg>
