<?xml version="1.0" encoding="iso-8859-1"?>
<!-- Generator: Adobe Illustrator 16.0.0, SVG Export Plug-In . SVG Version: 6.00 Build 0)  -->
<!DOCTYPE svg PUBLIC "-//W3C//DTD SVG 1.1//EN" "http://www.w3.org/Graphics/SVG/1.1/DTD/svg11.dtd">
<svg version="1.1" xmlns="http://www.w3.org/2000/svg" xmlns:xlink="http://www.w3.org/1999/xlink" x="0px" y="0px" width="16px"
	 height="16px" viewBox="0 0 16 16" style="enable-background:new 0 0 16 16;" xml:space="preserve">
<g id="_x31_3-weather_-_cloud_rainy" style="enable-background:new    ;">
	<path d="M7.998,16.004h1.004v-3.01H7.998V16.004z M4.998,16.004h1.003v-3.01H4.998V16.004z M10.998,16.004h1.004v-3.01h-1.004
		V16.004z M10-0.001c-2.228,0-4.15,1.229-5.185,3.031C4.709,3.023,4.608,2.999,4.5,2.999c-2.485,0-4.5,2.015-4.5,4.5
		s2.015,4.5,4.5,4.5h5c0,0,0.33,0,0.5,0c3.314,0,6-2.687,6-6C16,2.685,13.314-0.001,10-0.001z M10,10.999c-0.17,0-0.5,0-0.5,0h-5
		c-1.933,0-3.5-1.567-3.5-3.5s1.567-3.5,3.5-3.5c0.303,0,0.591,0.05,0.872,0.122C6.115,2.292,7.904,0.999,10,0.999
		c2.762,0,5,2.238,5,5C15,8.76,12.762,10.999,10,10.999z"/>
</g>
<g id="Layer_1">
</g>
</svg>
