<?xml version="1.0" encoding="iso-8859-1"?>
<!-- Generator: Adobe Illustrator 16.0.0, SVG Export Plug-In . SVG Version: 6.00 Build 0)  -->
<!DOCTYPE svg PUBLIC "-//W3C//DTD SVG 1.1//EN" "http://www.w3.org/Graphics/SVG/1.1/DTD/svg11.dtd">
<svg version="1.1" xmlns="http://www.w3.org/2000/svg" xmlns:xlink="http://www.w3.org/1999/xlink" x="0px" y="0px" width="16px"
	 height="16px" viewBox="0 0 16 16" style="enable-background:new 0 0 16 16;" xml:space="preserve">
<g id="_x31_1-weather_-_sun_brightness" style="enable-background:new    ;">
	<path d="M4,7.999H1v1h3V7.999z M9,0.999H8v3h1V0.999z M2.843,13.448l0.707,0.708l1.414-1.414l-0.707-0.708L2.843,13.448z
		 M14.156,3.549l-0.707-0.707l-1.414,1.414l0.707,0.708L14.156,3.549z M13,7.999v1h3v-1H13z M8.5,4.999c-1.933,0-3.5,1.567-3.5,3.5
		s1.567,3.5,3.5,3.5c1.934,0,3.5-1.567,3.5-3.5S10.434,4.999,8.5,4.999z M8.5,11.004c-1.383,0-2.505-1.121-2.505-2.505
		S7.116,5.993,8.5,5.993s2.506,1.122,2.506,2.506S9.883,11.004,8.5,11.004z M12.035,12.742l1.414,1.414l0.707-0.708l-1.414-1.414
		L12.035,12.742z M8,15.999h1v-3H8V15.999z M2.843,3.549l1.414,1.415l0.707-0.708L3.55,2.842L2.843,3.549z"/>
</g>
<g id="Layer_1">
</g>
</svg>
