<?xml version="1.0" encoding="iso-8859-1"?>
<!-- Generator: Adobe Illustrator 16.0.0, SVG Export Plug-In . SVG Version: 6.00 Build 0)  -->
<!DOCTYPE svg PUBLIC "-//W3C//DTD SVG 1.1//EN" "http://www.w3.org/Graphics/SVG/1.1/DTD/svg11.dtd">
<svg version="1.1" xmlns="http://www.w3.org/2000/svg" xmlns:xlink="http://www.w3.org/1999/xlink" x="0px" y="0px" width="16px"
	 height="16px" viewBox="0 0 16 16" style="enable-background:new 0 0 16 16;" xml:space="preserve">
<g id="_x36_-weather_-_sunrise_sun" style="enable-background:new    ;">
	<path d="M15.01,6.195l-0.707-0.707l-1.414,1.414l0.707,0.707L15.01,6.195z M8.5,2.998h-1v2.001h1V2.998z M0,11.998v1.001h16v-1.001
		H0z M3.111,6.902L1.697,5.488L0.989,6.195l1.415,1.414L3.111,6.902z M3.095,10.999C3.558,8.714,5.578,6.993,8,6.993
		c2.422,0,4.441,1.721,4.904,4.006h0.994c-0.477-2.835-2.928-5-5.898-5c-2.972,0-5.421,2.165-5.899,5H3.095z"/>
</g>
<g id="Layer_1">
</g>
</svg>
