<?xml version="1.0" encoding="iso-8859-1"?>
<!-- Generator: Adobe Illustrator 16.0.0, SVG Export Plug-In . SVG Version: 6.00 Build 0)  -->
<!DOCTYPE svg PUBLIC "-//W3C//DTD SVG 1.1//EN" "http://www.w3.org/Graphics/SVG/1.1/DTD/svg11.dtd">
<svg version="1.1" xmlns="http://www.w3.org/2000/svg" xmlns:xlink="http://www.w3.org/1999/xlink" x="0px" y="0px" width="16px"
	 height="16px" viewBox="0 0 16 16" style="enable-background:new 0 0 16 16;" xml:space="preserve">
<g id="_x32_1-weather_-_moon_night" style="enable-background:new    ;">
	<path d="M12.195,0.994c0.049,0.392,0.082,0.788,0.082,1.192c0,5.369-4.517,9.723-10.09,9.723c-0.75,0-1.479-0.085-2.183-0.234
		c1.432,2.575,4.25,4.328,7.494,4.328c4.693,0,8.498-3.665,8.498-8.188C15.996,4.967,14.486,2.461,12.195,0.994z M7.498,14.979
		c-1.978,0-3.834-0.753-5.204-2.048c5.708-0.051,10.403-4.255,10.985-9.62c1.059,1.259,1.654,2.84,1.654,4.504
		C14.934,11.767,11.598,14.979,7.498,14.979z"/>
</g>
<g id="Layer_1">
</g>
</svg>
