<?xml version="1.0" encoding="iso-8859-1"?>
<!-- Generator: Adobe Illustrator 16.0.0, SVG Export Plug-In . SVG Version: 6.00 Build 0)  -->
<!DOCTYPE svg PUBLIC "-//W3C//DTD SVG 1.1//EN" "http://www.w3.org/Graphics/SVG/1.1/DTD/svg11.dtd">
<svg version="1.1" xmlns="http://www.w3.org/2000/svg" xmlns:xlink="http://www.w3.org/1999/xlink" x="0px" y="0px" width="16px"
	 height="16px" viewBox="0 0 16 16" style="enable-background:new 0 0 16 16;" xml:space="preserve">
<g id="_x31_7-weather_-_windy_wind_pressure_high" style="enable-background:new    ;">
	<path d="M12,8.999H2v1h9h1c1.105,0,2,0.895,2,2c0,1.104-0.895,2-2,2h-1v1h1c1.656,0,3-1.344,3-3S13.656,8.999,12,8.999z M15,4.999
		c0-1.657-1.344-3-3-3v1c1.105,0,2,0.895,2,2c0,1.104-0.895,2-2,2H3v1h9C13.656,7.999,15,6.656,15,4.999z M12,4.999H5v1h7V4.999z
		 M8,10.999H4v1h4c0.552,0,1,0.447,1,1s-0.447,1-1,1v1c1.105,0,2-0.896,2-2S9.105,10.999,8,10.999z"/>
</g>
<g id="Layer_1">
</g>
</svg>
