<?xml version="1.0" encoding="iso-8859-1"?>
<!-- Generator: Adobe Illustrator 16.0.0, SVG Export Plug-In . SVG Version: 6.00 Build 0)  -->
<!DOCTYPE svg PUBLIC "-//W3C//DTD SVG 1.1//EN" "http://www.w3.org/Graphics/SVG/1.1/DTD/svg11.dtd">
<svg version="1.1" xmlns="http://www.w3.org/2000/svg" xmlns:xlink="http://www.w3.org/1999/xlink" x="0px" y="0px" width="16px"
	 height="16px" viewBox="0 0 16 16" style="enable-background:new 0 0 16 16;" xml:space="preserve">
<g id="_x39_-weather_-_sunset" style="enable-background:new    ;">
	<path d="M1.325,9.999C1.134,9.361,1,8.698,1,7.998c0-3.865,3.134-6.999,7-6.999c3.865,0,7,3.134,7,6.999
		c0,0.7-0.135,1.363-0.324,2.001h1.063C15.902,9.358,16,8.69,16,7.998c0-4.418-3.582-8-8-8c-4.418,0-8,3.582-8,8
		c0,0.692,0.097,1.36,0.262,2.001H1.325z M8,15.999c1.404,0,2.723-0.364,3.869-1H4.13C5.277,15.635,6.595,15.999,8,15.999z
		 M1.5,13.999h13v-1h-13V13.999z M0,11.999h16v-1H0V11.999z"/>
</g>
<g id="Layer_1">
</g>
</svg>
