<?xml version="1.0" encoding="iso-8859-1"?>
<!-- Generator: Adobe Illustrator 16.0.0, SVG Export Plug-In . SVG Version: 6.00 Build 0)  -->
<!DOCTYPE svg PUBLIC "-//W3C//DTD SVG 1.1//EN" "http://www.w3.org/Graphics/SVG/1.1/DTD/svg11.dtd">
<svg version="1.1" xmlns="http://www.w3.org/2000/svg" xmlns:xlink="http://www.w3.org/1999/xlink" x="0px" y="0px" width="16px"
	 height="16px" viewBox="0 0 16 16" style="enable-background:new 0 0 16 16;" xml:space="preserve">
<g id="_x31_6-weather_-_cloudy_sun_cloud" style="enable-background:new    ;">
	<path d="M10.395,4.04C9.488,2.244,7.648,1,5.5,1C2.462,1,0,3.463,0,6.5c0,0.959,0.251,1.857,0.683,2.642
		C0.257,9.829,0,10.632,0,11.5C0,13.985,2.015,16,4.5,16H10c3.314,0,6-2.687,6-6C16,6.821,13.521,4.246,10.395,4.04z M5.5,2
		c1.589,0,2.979,0.828,3.779,2.072C7.362,4.305,5.73,5.438,4.808,7.031C4.704,7.023,4.605,7,4.5,7C3.286,7,2.188,7.486,1.379,8.268
		C1.143,7.725,1,7.132,1,6.5C1,4.014,3.015,2,5.5,2z M11,15.001H4c-1.694-0.244-3-1.739-3-3.501C1,9.566,2.567,8,4.5,8
		c0.303,0,0.591,0.051,0.872,0.123C6.115,6.293,7.904,5,10,5c2.762,0,5,2.239,5,5C15,12.419,13.283,14.537,11,15.001z"/>
</g>
<g id="Layer_1">
</g>
</svg>
