<?xml version="1.0" encoding="iso-8859-1"?>
<!-- Generator: Adobe Illustrator 16.0.0, SVG Export Plug-In . SVG Version: 6.00 Build 0)  -->
<!DOCTYPE svg PUBLIC "-//W3C//DTD SVG 1.1//EN" "http://www.w3.org/Graphics/SVG/1.1/DTD/svg11.dtd">
<svg version="1.1" xmlns="http://www.w3.org/2000/svg" xmlns:xlink="http://www.w3.org/1999/xlink" x="0px" y="0px" width="16px"
	 height="16px" viewBox="0 0 16 16" style="enable-background:new 0 0 16 16;" xml:space="preserve">
<g id="_x32_0-weather_-_moon_night" style="enable-background:new    ;">
	<path d="M8,7.999c0-3.526,2.61-6.435,6-6.921c-1.178-0.683-2.541-1.079-4-1.079c-4.419,0-8,3.582-8,8s3.582,8,8,8
		c1.459,0,2.822-0.397,4-1.08C10.609,14.434,8,11.524,8,7.999z M10,14.999c-3.86,0-7-3.141-7-7c0-3.86,3.14-7,7-7
		c0.34,0,0.68,0.025,1.016,0.075C8.604,2.471,7,5.086,7,7.999s1.604,5.528,4.016,6.925C10.68,14.974,10.34,14.999,10,14.999z"/>
</g>
<g id="Layer_1">
</g>
</svg>
