<?xml version="1.0" encoding="iso-8859-1"?>
<!-- Generator: Adobe Illustrator 16.0.0, SVG Export Plug-In . SVG Version: 6.00 Build 0)  -->
<!DOCTYPE svg PUBLIC "-//W3C//DTD SVG 1.1//EN" "http://www.w3.org/Graphics/SVG/1.1/DTD/svg11.dtd">
<svg version="1.1" xmlns="http://www.w3.org/2000/svg" xmlns:xlink="http://www.w3.org/1999/xlink" x="0px" y="0px" width="16px"
	 height="16px" viewBox="0 0 16 16" style="enable-background:new 0 0 16 16;" xml:space="preserve">
<g id="_x31_4-weather_-_cloud_stormy" style="enable-background:new    ;">
	<path d="M10,0.999c-2.228,0-4.15,1.229-5.185,3.031C4.709,4.023,4.608,3.999,4.5,3.999c-2.485,0-4.5,2.015-4.5,4.5
		c0,2.313,1.753,4.198,4,4.45v-1.001c-1.694-0.244-3-1.688-3-3.449c0-1.933,1.567-3.5,3.5-3.5c0.303,0,0.591,0.051,0.872,0.123
		C6.114,3.292,7.903,1.999,10,1.999c2.762,0,5,2.238,5,5c0,2.049-1.236,3.806-3,4.578v1.055c2.324-0.827,4-3.024,4-5.633
		C16,3.686,13.314,0.999,10,0.999z M9.469,11.846c-0.012-0.037-0.029-0.069-0.049-0.103c-0.014-0.021-0.025-0.041-0.041-0.06
		c-0.027-0.034-0.061-0.061-0.096-0.086c-0.012-0.009-0.02-0.021-0.033-0.029c-0.006-0.004-0.014-0.003-0.021-0.007
		c-0.037-0.02-0.076-0.03-0.119-0.04c-0.023-0.006-0.047-0.013-0.072-0.015C9.025,11.506,9.014,11.499,9,11.499H7.36l1.573-2.742
		C9.07,8.516,8.989,8.208,8.75,8.068C8.511,7.93,8.205,8.013,8.067,8.253l-2,3.488c-0.008,0.014-0.008,0.029-0.015,0.044
		c-0.011,0.022-0.016,0.046-0.023,0.069c-0.011,0.038-0.021,0.074-0.023,0.113C6.005,11.979,6,11.988,6,11.999
		c0,0.022,0.01,0.042,0.013,0.063c0.004,0.031,0.008,0.061,0.018,0.09c0.012,0.037,0.03,0.07,0.05,0.104
		c0.012,0.021,0.024,0.04,0.04,0.059c0.028,0.034,0.06,0.061,0.096,0.086c0.012,0.009,0.02,0.021,0.033,0.029
		c0.007,0.004,0.014,0.003,0.021,0.007c0.037,0.02,0.077,0.03,0.119,0.04c0.024,0.006,0.048,0.013,0.073,0.015
		c0.013,0.001,0.024,0.008,0.038,0.008h1.639l-1.572,2.742C6.429,15.482,6.511,15.79,6.75,15.93
		c0.239,0.139,0.545,0.056,0.683-0.185l2-3.488c0.008-0.014,0.008-0.029,0.014-0.043c0.012-0.022,0.016-0.047,0.023-0.071
		c0.012-0.037,0.021-0.074,0.023-0.112c0-0.011,0.006-0.021,0.006-0.031c0-0.022-0.01-0.042-0.014-0.063
		C9.482,11.905,9.479,11.875,9.469,11.846z"/>
</g>
<g id="Layer_1">
</g>
</svg>
