<?xml version="1.0" encoding="iso-8859-1"?>
<!-- Generator: Adobe Illustrator 16.0.0, SVG Export Plug-In . SVG Version: 6.00 Build 0)  -->
<!DOCTYPE svg PUBLIC "-//W3C//DTD SVG 1.1//EN" "http://www.w3.org/Graphics/SVG/1.1/DTD/svg11.dtd">
<svg version="1.1" xmlns="http://www.w3.org/2000/svg" xmlns:xlink="http://www.w3.org/1999/xlink" x="0px" y="0px" width="16px"
	 height="16px" viewBox="0 0 16 16" style="enable-background:new 0 0 16 16;" xml:space="preserve">
<g id="_x37_-weather_-_sunrise_sun" style="enable-background:new    ;">
	<path d="M3.111,4.902L1.697,3.488L0.99,4.195l1.414,1.414L3.111,4.902z M2.994,9.998c0-2.764,2.241-5.005,5.006-5.005
		c2.764,0,5.006,2.241,5.006,5.005H14c0-3.313-2.686-5.999-6-5.999c-3.314,0-6,2.686-6,5.999H2.994z M8.5,0.998h-1v2.001h1V0.998z
		 M15.01,4.195l-0.707-0.707l-1.414,1.414l0.707,0.707L15.01,4.195z M2.5,15.999h11v-1.001h-11V15.999z M0,10.998v1.001h16v-1.001H0
		z M1,13.999h14v-1H1V13.999z"/>
</g>
<g id="Layer_1">
</g>
</svg>
