<?xml version="1.0" encoding="iso-8859-1"?>
<!-- Generator: Adobe Illustrator 16.0.0, SVG Export Plug-In . SVG Version: 6.00 Build 0)  -->
<!DOCTYPE svg PUBLIC "-//W3C//DTD SVG 1.1//EN" "http://www.w3.org/Graphics/SVG/1.1/DTD/svg11.dtd">
<svg version="1.1" xmlns="http://www.w3.org/2000/svg" xmlns:xlink="http://www.w3.org/1999/xlink" x="0px" y="0px" width="16px"
	 height="16px" viewBox="0 0 16 16" style="enable-background:new 0 0 16 16;" xml:space="preserve">
<g id="_x31_8-weather_-_windy_wind_pressure" style="enable-background:new    ;">
	<path d="M11.914,8.999H1.628L1,9l0.006,0.999H11.01h0.904c1.137,0,2.057,0.895,2.057,2c0,1.104-0.92,2-2.057,2H11.01v0.999h0.904
		c1.705,0,3.086-1.343,3.086-2.999C15,10.342,13.619,8.999,11.914,8.999z M12.008,4.999H4.996v1h7.012V4.999z M15,4.999
		c0-1.632-1.342-2.952-3.01-2.992v1c1.1,0.039,1.98,0.912,1.98,1.992c0,1.079-0.881,1.952-1.98,1.992v0.008h-0.076H3.001v1h8.913
		C13.619,7.999,15,6.655,15,4.999z M2.003,11.999h5.984v-1H2.003V11.999z"/>
</g>
<g id="Layer_1">
</g>
</svg>
