<?xml version="1.0" encoding="iso-8859-1"?>
<!-- Generator: Adobe Illustrator 16.0.0, SVG Export Plug-In . SVG Version: 6.00 Build 0)  -->
<!DOCTYPE svg PUBLIC "-//W3C//DTD SVG 1.1//EN" "http://www.w3.org/Graphics/SVG/1.1/DTD/svg11.dtd">
<svg version="1.1" xmlns="http://www.w3.org/2000/svg" xmlns:xlink="http://www.w3.org/1999/xlink" x="0px" y="0px" width="16px"
	 height="16px" viewBox="0 0 16 16" style="enable-background:new 0 0 16 16;" xml:space="preserve">
<g id="_x35_-weather_-_cloud_rainy" style="enable-background:new    ;">
	<path d="M2.998,16.004h1.003v-2.51H2.998V16.004z M5.998,16.004h1.003v-2.51H5.998V16.004z M11.998,16.004h1.004v-2.51h-1.004
		V16.004z M12.055,2.58C11.334,1.059,9.795-0.002,8-0.002c-1.984,0-3.649,1.294-4.248,3.076C1.625,3.433,0,5.27,0,7.499
		c0,2.485,2.015,4.5,4.5,4.5h7v-0.025c2.504-0.133,4.5-2.187,4.5-4.725C16,4.901,14.293,2.964,12.055,2.58z M11.5,10.974v0.025h-7
		c-1.933,0-3.5-1.566-3.5-3.5c0-1.933,1.567-3.5,3.5-3.5c0.017,0,0.033,0.005,0.05,0.005C4.792,2.308,6.237,0.999,8,0.999
		c1.586,0,2.91,1.063,3.34,2.509C13.369,3.557,15,5.209,15,7.249C15,9.234,13.453,10.843,11.5,10.974z M8.999,16.004h1.003v-2.51
		H8.999V16.004z"/>
</g>
<g id="Layer_1">
</g>
</svg>
