<?xml version="1.0" encoding="iso-8859-1"?>
<!-- Generator: Adobe Illustrator 16.0.0, SVG Export Plug-In . SVG Version: 6.00 Build 0)  -->
<!DOCTYPE svg PUBLIC "-//W3C//DTD SVG 1.1//EN" "http://www.w3.org/Graphics/SVG/1.1/DTD/svg11.dtd">
<svg version="1.1" xmlns="http://www.w3.org/2000/svg" xmlns:xlink="http://www.w3.org/1999/xlink" x="0px" y="0px" width="16px"
	 height="16px" viewBox="0 0 16 16" style="enable-background:new 0 0 16 16;" xml:space="preserve">
<g id="_x31_-weather_-_wind_meter_measurement" style="enable-background:new    ;">
	<path d="M0.5,0.999c-0.276,0-0.5,0.224-0.5,0.5v13.999c0,0.277,0.224,0.501,0.5,0.501c0.276,0,0.5-0.224,0.5-0.501V1.499
		C1,1.223,0.776,0.999,0.5,0.999z M14.5,1.999l-12-1c-0.276,0-0.5,0.224-0.5,0.5v0.5h1l4,0.363v4.773L3,7.499v-4.5H2v5
		c0,0.276,0.224,0.5,0.5,0.5l12-1c0.275,0,0.5-0.224,0.5-0.5v-4.5C15,2.223,14.775,1.999,14.5,1.999z M11,6.771L8,7.044v-4.59
		l3,0.272V6.771z M14,6.499l-2,0.182V2.817l2,0.182V6.499z"/>
</g>
<g id="Layer_1">
</g>
</svg>
