<?xml version="1.0" encoding="iso-8859-1"?>
<!-- Generator: Adobe Illustrator 16.0.0, SVG Export Plug-In . SVG Version: 6.00 Build 0)  -->
<!DOCTYPE svg PUBLIC "-//W3C//DTD SVG 1.1//EN" "http://www.w3.org/Graphics/SVG/1.1/DTD/svg11.dtd">
<svg version="1.1" xmlns="http://www.w3.org/2000/svg" xmlns:xlink="http://www.w3.org/1999/xlink" x="0px" y="0px" width="16px"
	 height="16px" viewBox="0 0 16 16" style="enable-background:new 0 0 16 16;" xml:space="preserve">
<g id="_x32_-weather_-_cloud_cloudy" style="enable-background:new    ;">
	<path d="M12.057,4.58C11.334,3.059,9.797,1.999,8,1.999c-1.984,0-3.649,1.293-4.248,3.075C1.625,5.432,0,7.27,0,9.499
		c0,2.485,2.015,4.5,4.5,4.5h7v-0.025c2.504-0.133,4.5-2.188,4.5-4.725C16,6.901,14.293,4.965,12.057,4.58z M11.5,12.974v0.025h-7
		c-1.933,0-3.5-1.567-3.5-3.5s1.567-3.5,3.5-3.5c0.017,0,0.033,0.005,0.05,0.005C4.792,4.308,6.236,2.999,8,2.999
		c1.586,0,2.91,1.062,3.34,2.509C13.369,5.557,15,7.209,15,9.249C15,11.234,13.453,12.843,11.5,12.974z"/>
</g>
<g id="Layer_1">
</g>
</svg>
