<?xml version="1.0" encoding="iso-8859-1"?>
<!-- Generator: Adobe Illustrator 16.0.0, SVG Export Plug-In . SVG Version: 6.00 Build 0)  -->
<!DOCTYPE svg PUBLIC "-//W3C//DTD SVG 1.1//EN" "http://www.w3.org/Graphics/SVG/1.1/DTD/svg11.dtd">
<svg version="1.1" xmlns="http://www.w3.org/2000/svg" xmlns:xlink="http://www.w3.org/1999/xlink" x="0px" y="0px" width="16px"
	 height="16px" viewBox="0 0 16 16" style="enable-background:new 0 0 16 16;" xml:space="preserve">
<g id="_x31_0-weather_-_sun_brightness" style="enable-background:new    ;">
	<path d="M14.156,3.549l-0.707-0.707l-1.414,1.414l0.707,0.708L14.156,3.549z M3,7.998H1v1.001h2V7.998z M4.964,4.256L3.55,2.842
		L2.842,3.549l1.415,1.415L4.964,4.256z M9,0.999H8v2h1V0.999z M2.842,13.448l0.708,0.708l1.414-1.414l-0.707-0.708L2.842,13.448z
		 M8,15.999h1v-2H8V15.999z M14,7.998v1.001h2V7.998H14z M12.035,12.742l1.414,1.414l0.707-0.708l-1.414-1.414L12.035,12.742z
		 M8.5,3.998c-2.485,0-4.5,2.016-4.5,4.5c0,2.486,2.015,4.501,4.5,4.501S13,10.984,13,8.498C13,6.014,10.984,3.998,8.5,3.998z
		 M8.5,11.992c-1.929,0-3.494-1.563-3.494-3.494c0-1.929,1.564-3.493,3.494-3.493c1.93,0,3.495,1.564,3.495,3.493
		C11.994,10.429,10.43,11.992,8.5,11.992z"/>
</g>
<g id="Layer_1">
</g>
</svg>
