<?xml version="1.0" encoding="iso-8859-1"?>
<!-- Generator: Adobe Illustrator 16.0.0, SVG Export Plug-In . SVG Version: 6.00 Build 0)  -->
<!DOCTYPE svg PUBLIC "-//W3C//DTD SVG 1.1//EN" "http://www.w3.org/Graphics/SVG/1.1/DTD/svg11.dtd">
<svg version="1.1" xmlns="http://www.w3.org/2000/svg" xmlns:xlink="http://www.w3.org/1999/xlink" x="0px" y="0px" width="16px"
	 height="16px" viewBox="0 0 16 16" style="enable-background:new 0 0 16 16;" xml:space="preserve">
<g id="_x34_-weather_-_cloud_stormy" style="enable-background:new    ;">
	<path d="M12.055,2.58C11.334,1.059,9.795-0.002,8-0.002c-1.984,0-3.649,1.293-4.248,3.076C1.625,3.432,0,5.27,0,7.499
		c0,2.314,1.753,4.197,4,4.449v-1c-1.694-0.244-3-1.688-3-3.449c0-1.934,1.567-3.501,3.5-3.501c0.017,0,0.033,0.005,0.05,0.006
		C4.792,2.308,6.237,0.999,8,0.999c1.586,0,2.91,1.063,3.34,2.509C13.369,3.557,15,5.209,15,7.249c0,1.813-1.289,3.326-3,3.674v1
		c2.264-0.361,4-2.308,4-4.674C16,4.901,14.293,2.964,12.055,2.58z M9.469,11.846c-0.012-0.037-0.029-0.07-0.051-0.104
		c-0.012-0.021-0.023-0.04-0.039-0.059c-0.027-0.034-0.061-0.061-0.096-0.086c-0.014-0.009-0.02-0.021-0.033-0.029
		c-0.006-0.004-0.014-0.003-0.021-0.007c-0.037-0.02-0.076-0.03-0.119-0.04c-0.023-0.006-0.047-0.013-0.072-0.015
		C9.025,11.506,9.014,11.499,9,11.499H7.36l1.573-2.743C9.07,8.516,8.989,8.208,8.75,8.068C8.511,7.93,8.205,8.012,8.067,8.253
		l-2,3.488c-0.008,0.014-0.008,0.029-0.015,0.044c-0.011,0.021-0.016,0.046-0.023,0.069c-0.011,0.038-0.021,0.074-0.022,0.113
		C6.005,11.979,6,11.987,6,11.999c0,0.022,0.01,0.042,0.013,0.063c0.004,0.03,0.008,0.06,0.018,0.09
		c0.012,0.037,0.03,0.07,0.05,0.104c0.013,0.021,0.024,0.04,0.04,0.059c0.028,0.034,0.062,0.062,0.099,0.087
		c0.012,0.009,0.019,0.021,0.031,0.027c0.006,0.004,0.013,0.004,0.02,0.007c0.039,0.021,0.08,0.032,0.125,0.042
		c0.022,0.005,0.043,0.012,0.066,0.014c0.014,0.001,0.025,0.008,0.04,0.008h1.639l-1.572,2.742c-0.138,0.24-0.056,0.549,0.183,0.688
		c0.239,0.14,0.545,0.057,0.683-0.184l2-3.488c0.008-0.015,0.008-0.029,0.014-0.044c0.012-0.022,0.016-0.046,0.023-0.07
		c0.012-0.037,0.021-0.074,0.023-0.112c0-0.012,0.006-0.021,0.006-0.031c0-0.022-0.01-0.042-0.014-0.063
		C9.482,11.904,9.479,11.875,9.469,11.846z"/>
</g>
<g id="Layer_1">
</g>
</svg>
