<?xml version="1.0" encoding="iso-8859-1"?>
<!-- Generator: Adobe Illustrator 16.0.0, SVG Export Plug-In . SVG Version: 6.00 Build 0)  -->
<!DOCTYPE svg PUBLIC "-//W3C//DTD SVG 1.1//EN" "http://www.w3.org/Graphics/SVG/1.1/DTD/svg11.dtd">
<svg version="1.1" xmlns="http://www.w3.org/2000/svg" xmlns:xlink="http://www.w3.org/1999/xlink" x="0px" y="0px" width="16px"
	 height="16px" viewBox="0 0 16 16" style="enable-background:new 0 0 16 16;" xml:space="preserve">
<g id="_x31_5-weather_-_cloudy_cloud" style="enable-background:new    ;">
	<path d="M10,1.999c-2.228,0-4.15,1.229-5.185,3.031C4.709,5.023,4.608,4.999,4.5,4.999c-2.485,0-4.5,2.015-4.5,4.5
		c0,2.484,2.015,4.5,4.5,4.5H10c3.314,0,6-2.687,6-6C16,4.685,13.314,1.999,10,1.999z M11,13H4c-1.694-0.244-3-1.739-3-3.501
		c0-1.934,1.567-3.5,3.5-3.5c0.303,0,0.591,0.051,0.872,0.123C6.114,4.292,7.903,2.999,10,2.999c2.762,0,5,2.238,5,5
		C15,10.418,13.283,12.536,11,13z"/>
</g>
<g id="Layer_1">
</g>
</svg>
