<?xml version="1.0" encoding="iso-8859-1"?>
<!-- Generator: Adobe Illustrator 16.0.0, SVG Export Plug-In . SVG Version: 6.00 Build 0)  -->
<!DOCTYPE svg PUBLIC "-//W3C//DTD SVG 1.1//EN" "http://www.w3.org/Graphics/SVG/1.1/DTD/svg11.dtd">
<svg version="1.1" xmlns="http://www.w3.org/2000/svg" xmlns:xlink="http://www.w3.org/1999/xlink" x="0px" y="0px" width="16px"
	 height="16px" viewBox="0 0 16 16" style="enable-background:new 0 0 16 16;" xml:space="preserve">
<g id="_x32_3-web_-_upload_arrow" style="enable-background:new    ;">
	<path d="M5.858,6.354L8,3.855v7.644c0,0.276,0.224,0.5,0.5,0.5c0.276,0,0.5-0.224,0.5-0.5V3.855l2.143,2.498
		c0.195,0.198,0.516,0.198,0.713,0c0.197-0.196,0.197-0.516,0-0.713L8.858,2.144c-0.005-0.006-0.014-0.003-0.02-0.008
		c-0.085-0.079-0.196-0.129-0.32-0.133c-0.002,0-0.002,0-0.004,0c-0.135-0.005-0.27,0.038-0.372,0.141L5.145,5.641
		c-0.197,0.197-0.197,0.517,0,0.713C5.342,6.552,5.661,6.552,5.858,6.354z M15.5,9.999c-0.275,0-0.5,0.224-0.5,0.5v3.5H2v-3.5
		c0-0.276-0.224-0.5-0.5-0.5c-0.276,0-0.5,0.224-0.5,0.5v4c0,0.276,0.224,0.5,0.5,0.5h14c0.275,0,0.5-0.224,0.5-0.5v-4
		C16,10.223,15.775,9.999,15.5,9.999z"/>
</g>
<g id="Layer_1">
</g>
</svg>
