<?xml version="1.0" encoding="iso-8859-1"?>
<!-- Generator: Adobe Illustrator 16.0.0, SVG Export Plug-In . SVG Version: 6.00 Build 0)  -->
<!DOCTYPE svg PUBLIC "-//W3C//DTD SVG 1.1//EN" "http://www.w3.org/Graphics/SVG/1.1/DTD/svg11.dtd">
<svg version="1.1" xmlns="http://www.w3.org/2000/svg" xmlns:xlink="http://www.w3.org/1999/xlink" x="0px" y="0px" width="16px"
	 height="16px" viewBox="0 0 16 16" style="enable-background:new 0 0 16 16;" xml:space="preserve">
<g id="_x31_4-web_-_traffic_statistic_graph" style="enable-background:new    ;">
	<path d="M8.5,0.999c-0.828,0-1.5,0.672-1.5,1.5v12c0,0.828,0.671,1.5,1.5,1.5c0.829,0,1.5-0.672,1.5-1.5v-12
		C10,1.671,9.328,0.999,8.5,0.999z M9,14.499c0,0.276-0.224,0.499-0.5,0.499c-0.275,0-0.5-0.223-0.5-0.499v-12
		c0-0.275,0.224-0.5,0.5-0.5c0.276,0,0.5,0.225,0.5,0.5V14.499z M13.5,8.999c-0.828,0-1.5,0.672-1.5,1.5v4
		c0,0.828,0.672,1.5,1.5,1.5s1.5-0.672,1.5-1.5v-4C15,9.671,14.328,8.999,13.5,8.999z M14,14.499c0,0.276-0.225,0.499-0.5,0.499
		S13,14.775,13,14.499v-4c0-0.276,0.225-0.5,0.5-0.5s0.5,0.224,0.5,0.5V14.499z M3.5,5.499c-0.829,0-1.5,0.671-1.5,1.5v7.5
		c0,0.828,0.671,1.5,1.5,1.5c0.828,0,1.5-0.672,1.5-1.5v-7.5C5,6.17,4.328,5.499,3.5,5.499z M4,14.499
		c0,0.276-0.224,0.499-0.5,0.499c-0.276,0-0.5-0.223-0.5-0.499v-7.5c0-0.276,0.224-0.5,0.5-0.5c0.276,0,0.5,0.224,0.5,0.5V14.499z"
		/>
</g>
<g id="Layer_1">
</g>
</svg>
