<?xml version="1.0" encoding="iso-8859-1"?>
<!-- Generator: Adobe Illustrator 16.0.0, SVG Export Plug-In . SVG Version: 6.00 Build 0)  -->
<!DOCTYPE svg PUBLIC "-//W3C//DTD SVG 1.1//EN" "http://www.w3.org/Graphics/SVG/1.1/DTD/svg11.dtd">
<svg version="1.1" xmlns="http://www.w3.org/2000/svg" xmlns:xlink="http://www.w3.org/1999/xlink" x="0px" y="0px" width="16px"
	 height="16px" viewBox="0 0 16 16" style="enable-background:new 0 0 16 16;" xml:space="preserve">
<g id="_x32_1-web_-_bug" style="enable-background:new    ;">
	<path d="M16,9.999v-1h-2.1c-0.127-0.716-0.377-1.39-0.732-1.998l1.83-1.093l-0.504-0.904L12.57,6.153
		c-0.924-1.096-2.229-1.834-3.708-2.056l2.133-3.603L10.17-0.001L8,3.666L5.829-0.001L5.004,0.495l2.144,3.621
		C5.665,4.332,4.354,5.057,3.43,6.153L1.506,5.004L1.002,5.908l1.829,1.093C2.477,7.609,2.227,8.283,2.099,8.999H0v1h2
		c0,0.791,0.162,1.541,0.439,2.232l-1.437,0.859l0.504,0.904l1.409-0.843C3.974,14.855,5.847,15.999,8,15.999
		c2.152,0,4.025-1.144,5.084-2.847l1.41,0.843l0.504-0.904l-1.438-0.859C13.838,11.54,14,10.79,14,9.999H16z M8,4.999
		c1.631,0,3.064,0.793,3.977,2H4.022C4.935,5.792,6.37,4.999,8,4.999z M8,14.999c-2.762,0-5-2.238-5-5c0-0.712,0.154-1.387,0.422-2
		h9.156C12.846,8.612,13,9.287,13,9.999C13,12.761,10.762,14.999,8,14.999z"/>
</g>
<g id="Layer_1">
</g>
</svg>
