<?xml version="1.0" encoding="iso-8859-1"?>
<!-- Generator: Adobe Illustrator 16.0.0, SVG Export Plug-In . SVG Version: 6.00 Build 0)  -->
<!DOCTYPE svg PUBLIC "-//W3C//DTD SVG 1.1//EN" "http://www.w3.org/Graphics/SVG/1.1/DTD/svg11.dtd">
<svg version="1.1" xmlns="http://www.w3.org/2000/svg" xmlns:xlink="http://www.w3.org/1999/xlink" x="0px" y="0px" width="16px"
	 height="16px" viewBox="0 0 16 16" style="enable-background:new 0 0 16 16;" xml:space="preserve">
<g id="_x33_7-web_-_code_markup_tag" style="enable-background:new    ;">
	<path style="fill-rule:evenodd;clip-rule:evenodd;" d="M3.813,5.096c-0.213-0.162-0.559-0.162-0.771,0L0.16,8.29
		c-0.213,0.162-0.213,0.425,0,0.587c0.068,0.052,2.874,3,2.874,3c0.215,0.162,0.563,0.162,0.777,0c0.215-0.162,0.215-0.424,0-0.588
		L1.273,8.498l2.54-2.815C4.026,5.521,4.026,5.258,3.813,5.096z M15.84,8.096c-0.078-0.058-2.904-3-2.904-3
		c-0.215-0.162-0.563-0.162-0.777,0s-0.215,0.425,0,0.587l2.549,2.803l-2.549,2.803c-0.215,0.164-0.215,0.426,0,0.588
		s0.563,0.162,0.777,0l2.904-3.194C16.055,8.521,16.055,8.258,15.84,8.096z M11.742,2.068c-0.24-0.139-0.549-0.057-0.689,0.184
		L4.046,15.254c-0.139,0.238-0.057,0.541,0.183,0.68c0.24,0.137,0.547,0.055,0.685-0.184l7.014-12.997
		C12.066,2.513,11.984,2.207,11.742,2.068z"/>
</g>
<g id="Layer_1">
</g>
</svg>
