<?xml version="1.0" encoding="iso-8859-1"?>
<!-- Generator: Adobe Illustrator 16.0.0, SVG Export Plug-In . SVG Version: 6.00 Build 0)  -->
<!DOCTYPE svg PUBLIC "-//W3C//DTD SVG 1.1//EN" "http://www.w3.org/Graphics/SVG/1.1/DTD/svg11.dtd">
<svg version="1.1" xmlns="http://www.w3.org/2000/svg" xmlns:xlink="http://www.w3.org/1999/xlink" x="0px" y="0px" width="16px"
	 height="16px" viewBox="0 0 16 16" style="enable-background:new 0 0 16 16;" xml:space="preserve">
<g id="_x34_4-web_-_browser_cross_remove" style="enable-background:new    ;">
	<path d="M8.323,7.002L6.5,8.825L4.677,7.003L4.003,7.677l1.823,1.822l-1.823,1.823l0.674,0.673L6.5,10.173l1.823,1.822l0.674-0.673
		L7.173,9.499l1.824-1.823L8.323,7.002z M12,2.999H1c-0.552,0-1,0.448-1,1v11c0,0.553,0.448,1,1,1h11c0.553,0,1-0.447,1-1v-11
		C13,3.447,12.553,2.999,12,2.999z M12,14.499c0,0.276-0.225,0.5-0.5,0.5h-10c-0.276,0-0.5-0.224-0.5-0.5v-10
		c0-0.275,0.224-0.5,0.5-0.5h10c0.275,0,0.5,0.225,0.5,0.5V14.499z M15-0.001H5c-0.552,0-1,0.447-1,1v1h1v-0.5
		c0-0.275,0.224-0.5,0.5-0.5h9c0.275,0,0.5,0.225,0.5,0.5v9c0,0.276-0.225,0.5-0.5,0.5H14v1h1c0.553,0,1-0.447,1-1v-10
		C16,0.446,15.553-0.001,15-0.001z"/>
</g>
<g id="Layer_1">
</g>
</svg>
