<?xml version="1.0" encoding="iso-8859-1"?>
<!-- Generator: Adobe Illustrator 16.0.0, SVG Export Plug-In . SVG Version: 6.00 Build 0)  -->
<!DOCTYPE svg PUBLIC "-//W3C//DTD SVG 1.1//EN" "http://www.w3.org/Graphics/SVG/1.1/DTD/svg11.dtd">
<svg version="1.1" xmlns="http://www.w3.org/2000/svg" xmlns:xlink="http://www.w3.org/1999/xlink" x="0px" y="0px" width="16px"
	 height="16px" viewBox="0 0 16 16" style="enable-background:new 0 0 16 16;" xml:space="preserve">
<g id="_x33_-web_-_browser_windows" style="enable-background:new    ;">
	<path d="M15.5,0.999h-15C0.224,0.999,0,1.223,0,1.498v14.001c0,0.276,0.224,0.5,0.5,0.5h15c0.275,0,0.5-0.224,0.5-0.5V1.498
		C16,1.223,15.775,0.999,15.5,0.999z M15,14.498c0,0.277-0.225,0.501-0.5,0.501h-13c-0.276,0-0.5-0.224-0.5-0.501V3.999h14V14.498z
		 M15,2.999H1v-0.5c0-0.276,0.224-0.5,0.5-0.5h13c0.275,0,0.5,0.224,0.5,0.5V2.999z"/>
</g>
<g id="Layer_1">
</g>
</svg>
