<?xml version="1.0" encoding="iso-8859-1"?>
<!-- Generator: Adobe Illustrator 16.0.0, SVG Export Plug-In . SVG Version: 6.00 Build 0)  -->
<!DOCTYPE svg PUBLIC "-//W3C//DTD SVG 1.1//EN" "http://www.w3.org/Graphics/SVG/1.1/DTD/svg11.dtd">
<svg version="1.1" xmlns="http://www.w3.org/2000/svg" xmlns:xlink="http://www.w3.org/1999/xlink" x="0px" y="0px" width="16px"
	 height="16px" viewBox="0 0 16 16" style="enable-background:new 0 0 16 16;" xml:space="preserve">
<g id="_x33_0-web_-_browser_windows" style="enable-background:new    ;">
	<path d="M2,0.999h9c0.553,0,1,0.448,1,0.999h1c0-1.104-0.896-1.999-2-1.999H2c-1.104,0-2,0.896-2,1.999v1.001v1v7
		c0,1.104,0.896,2,2,2v-1c-0.552,0-1-0.448-1-1v-7h1v-1H1V1.998C1,1.447,1.448,0.999,2,0.999z M14,2.999h-1h-1H5
		c-1.104,0-2,0.896-2,2v1v1v5v1v1c0,1.104,0.896,2,2,2h9c1.104,0,2-0.896,2-2v-7v-1v-1C16,3.895,15.104,2.999,14,2.999z M15,13.999
		c0,0.552-0.447,1-1,1H5c-0.552,0-1-0.448-1-1v-7h11V13.999z M15,5.999H4v-1c0-0.553,0.448-1,1-1h9c0.553,0,1,0.447,1,1V5.999z"/>
</g>
<g id="Layer_1">
</g>
</svg>
