<?xml version="1.0" encoding="iso-8859-1"?>
<!-- Generator: Adobe Illustrator 16.0.0, SVG Export Plug-In . SVG Version: 6.00 Build 0)  -->
<!DOCTYPE svg PUBLIC "-//W3C//DTD SVG 1.1//EN" "http://www.w3.org/Graphics/SVG/1.1/DTD/svg11.dtd">
<svg version="1.1" xmlns="http://www.w3.org/2000/svg" xmlns:xlink="http://www.w3.org/1999/xlink" x="0px" y="0px" width="16px"
	 height="16px" viewBox="0 0 16 16" style="enable-background:new 0 0 16 16;" xml:space="preserve">
<g id="_x31_6-web_-_wifi_rss_reader_subscribe" style="enable-background:new    ;">
	<path d="M2.5,9.999v1c1.657,0,3,1.343,3,3h1C6.5,11.789,4.709,9.999,2.5,9.999z M3.25,1.999c-0.253,0-0.501,0.021-0.75,0.038v0.987
		C2.667,3.017,2.831,2.999,3,2.999c5.799,0,10.5,4.701,10.5,10.5c0,0.169-0.018,0.333-0.025,0.5h0.988
		c0.016-0.249,0.037-0.497,0.037-0.75C14.5,7.036,9.463,1.999,3.25,1.999z M3,5.999c-0.169,0-0.334,0.014-0.5,0.025v0.987
		c0.083-0.004,0.166-0.013,0.25-0.013c3.728,0,6.75,3.021,6.75,6.75c0,0.084-0.01,0.166-0.014,0.25h0.988
		c0.012-0.166,0.025-0.331,0.025-0.5C10.5,9.356,7.142,5.999,3,5.999z"/>
</g>
<g id="Layer_1">
</g>
</svg>
