<?xml version="1.0" encoding="iso-8859-1"?>
<!-- Generator: Adobe Illustrator 16.0.0, SVG Export Plug-In . SVG Version: 6.00 Build 0)  -->
<!DOCTYPE svg PUBLIC "-//W3C//DTD SVG 1.1//EN" "http://www.w3.org/Graphics/SVG/1.1/DTD/svg11.dtd">
<svg version="1.1" xmlns="http://www.w3.org/2000/svg" xmlns:xlink="http://www.w3.org/1999/xlink" x="0px" y="0px" width="16px"
	 height="16px" viewBox="0 0 16 16" style="enable-background:new 0 0 16 16;" xml:space="preserve">
<g id="_x33_5-web_-_link_chain_url" style="enable-background:new    ;">
	<path d="M7.5,9.998H1V6.999h3.5c0.276,0,0.5-0.224,0.5-0.5S4.776,5.998,4.5,5.998h-4C0.224,5.998,0,6.223,0,6.499v4
		c0,0.276,0.224,0.499,0.5,0.499h7c0.276,0,0.5-0.223,0.5-0.499S7.776,9.998,7.5,9.998z M9.5,7.999h-3c-0.276,0-0.5,0.224-0.5,0.5
		c0,0.275,0.224,0.5,0.5,0.5h3c0.275,0,0.5-0.225,0.5-0.5C10,8.223,9.775,7.999,9.5,7.999z M15.5,5.998h-7
		C8.224,5.998,8,6.223,8,6.499s0.224,0.5,0.5,0.5H15v2.999h-3.5c-0.275,0-0.5,0.225-0.5,0.501s0.225,0.499,0.5,0.499h4
		c0.275,0,0.5-0.223,0.5-0.499v-4C16,6.223,15.775,5.998,15.5,5.998z"/>
</g>
<g id="Layer_1">
</g>
</svg>
