<?xml version="1.0" encoding="iso-8859-1"?>
<!-- Generator: Adobe Illustrator 16.0.0, SVG Export Plug-In . SVG Version: 6.00 Build 0)  -->
<!DOCTYPE svg PUBLIC "-//W3C//DTD SVG 1.1//EN" "http://www.w3.org/Graphics/SVG/1.1/DTD/svg11.dtd">
<svg version="1.1" xmlns="http://www.w3.org/2000/svg" xmlns:xlink="http://www.w3.org/1999/xlink" x="0px" y="0px" width="16px"
	 height="16px" viewBox="0 0 16 16" style="enable-background:new 0 0 16 16;" xml:space="preserve">
<g id="_x33_3-web_-_broken_link_chain_url" style="enable-background:new    ;">
	<path d="M9.25,4.943c0.238,0.128,0.545,0.052,0.684-0.168l1-1.593c0.137-0.22,0.055-0.501-0.184-0.628s-0.545-0.052-0.684,0.168
		l-1,1.593C8.929,4.535,9.012,4.816,9.25,4.943z M5.067,4.775c0.138,0.22,0.444,0.296,0.683,0.168
		c0.239-0.127,0.321-0.408,0.183-0.628l-1-1.593C4.795,2.503,4.489,2.428,4.25,2.555C4.011,2.682,3.929,2.963,4.067,3.183
		L5.067,4.775z M5.75,12.055c-0.239-0.127-0.545-0.052-0.683,0.169l-1,1.592c-0.138,0.221-0.056,0.502,0.183,0.629
		c0.239,0.127,0.545,0.052,0.683-0.169l1-1.592C6.071,12.463,5.989,12.182,5.75,12.055z M7.5,4.999c0.276,0,0.5-0.224,0.5-0.5v-2
		c0-0.276-0.224-0.5-0.5-0.5c-0.276,0-0.5,0.224-0.5,0.5v2C7,4.775,7.224,4.999,7.5,4.999z M7.5,11.999c-0.276,0-0.5,0.225-0.5,0.5
		v2c0,0.276,0.224,0.5,0.5,0.5c0.276,0,0.5-0.224,0.5-0.5v-2C8,12.224,7.776,11.999,7.5,11.999z M15.5,5.999h-7
		c-0.275,0-0.5,0.224-0.5,0.5s0.224,0.5,0.5,0.5H15v3h-3.5c-0.275,0-0.5,0.224-0.5,0.5s0.225,0.5,0.5,0.5h4
		c0.275,0,0.5-0.224,0.5-0.5v-4C16,6.223,15.775,5.999,15.5,5.999z M9.934,12.224c-0.139-0.221-0.445-0.296-0.684-0.169
		s-0.321,0.408-0.184,0.629l1,1.592c0.139,0.221,0.445,0.296,0.684,0.169s0.32-0.408,0.184-0.629L9.934,12.224z M7.5,9.999H1v-3h3.5
		c0.276,0,0.5-0.224,0.5-0.5s-0.224-0.5-0.5-0.5h-4c-0.276,0-0.5,0.224-0.5,0.5v4c0,0.276,0.224,0.5,0.5,0.5h7
		c0.276,0,0.5-0.224,0.5-0.5S7.776,9.999,7.5,9.999z"/>
</g>
<g id="Layer_1">
</g>
</svg>
