<?xml version="1.0" encoding="iso-8859-1"?>
<!-- Generator: Adobe Illustrator 16.0.0, SVG Export Plug-In . SVG Version: 6.00 Build 0)  -->
<!DOCTYPE svg PUBLIC "-//W3C//DTD SVG 1.1//EN" "http://www.w3.org/Graphics/SVG/1.1/DTD/svg11.dtd">
<svg version="1.1" xmlns="http://www.w3.org/2000/svg" xmlns:xlink="http://www.w3.org/1999/xlink" x="0px" y="0px" width="16px"
	 height="16px" viewBox="0 0 16 16" style="enable-background:new 0 0 16 16;" xml:space="preserve">
<g id="_x33_2-web_-_flag_report" style="enable-background:new    ;">
	<path d="M15,3.999h-5v-1v-1H9H4v-1c0-0.553-0.448-1-1-1H2c-0.552,0-1,0.447-1,1v2v7v5c0,0.553,0.448,1,1,1h1c0.552,0,1-0.447,1-1
		v-4h5v2h1h5c0.553,0,1-0.447,1-1v-7C16,4.447,15.553,3.999,15,3.999z M3,14.499c0,0.276-0.224,0.5-0.5,0.5
		c-0.276,0-0.5-0.224-0.5-0.5v-13c0-0.276,0.224-0.5,0.5-0.5c0.276,0,0.5,0.224,0.5,0.5V14.499z M9,9.999H4v-7h5V9.999z M15,11.499
		c0,0.276-0.225,0.5-0.5,0.5H10v-1v-1v-5h4.5c0.275,0,0.5,0.224,0.5,0.5V11.499z"/>
</g>
<g id="Layer_1">
</g>
</svg>
