<?xml version="1.0" encoding="iso-8859-1"?>
<!-- Generator: Adobe Illustrator 16.0.0, SVG Export Plug-In . SVG Version: 6.00 Build 0)  -->
<!DOCTYPE svg PUBLIC "-//W3C//DTD SVG 1.1//EN" "http://www.w3.org/Graphics/SVG/1.1/DTD/svg11.dtd">
<svg version="1.1" xmlns="http://www.w3.org/2000/svg" xmlns:xlink="http://www.w3.org/1999/xlink" x="0px" y="0px" width="16px"
	 height="16px" viewBox="0 0 16 16" style="enable-background:new 0 0 16 16;" xml:space="preserve">
<g id="_x32_4-web_-_download_arrow" style="enable-background:new    ;">
	<path d="M8.142,11.854C8.245,11.957,8.378,12,8.513,11.996c0.001,0,0.002,0,0.003,0c0.125-0.005,0.238-0.054,0.323-0.134
		c0.006-0.005,0.014-0.003,0.019-0.008l2.998-3.497c0.197-0.197,0.197-0.517,0-0.714s-0.518-0.197-0.713,0L9,10.143V2.499
		c0-0.276-0.224-0.5-0.5-0.5c-0.275,0-0.5,0.224-0.5,0.5v7.644L5.858,7.644c-0.197-0.197-0.516-0.197-0.713,0
		c-0.197,0.197-0.197,0.517,0,0.714L8.142,11.854z M15.5,9.999c-0.275,0-0.5,0.224-0.5,0.5v3.5H2v-3.5c0-0.276-0.224-0.5-0.5-0.5
		c-0.276,0-0.5,0.224-0.5,0.5v4c0,0.276,0.224,0.5,0.5,0.5h14c0.275,0,0.5-0.224,0.5-0.5v-4C16,10.223,15.775,9.999,15.5,9.999z"/>
</g>
<g id="Layer_1">
</g>
</svg>
