<?xml version="1.0" encoding="iso-8859-1"?>
<!-- Generator: Adobe Illustrator 16.0.0, SVG Export Plug-In . SVG Version: 6.00 Build 0)  -->
<!DOCTYPE svg PUBLIC "-//W3C//DTD SVG 1.1//EN" "http://www.w3.org/Graphics/SVG/1.1/DTD/svg11.dtd">
<svg version="1.1" xmlns="http://www.w3.org/2000/svg" xmlns:xlink="http://www.w3.org/1999/xlink" x="0px" y="0px" width="16px"
	 height="16px" viewBox="0 0 16 16" style="enable-background:new 0 0 16 16;" xml:space="preserve">
<g id="_x34_5-web_-_browser_tick_done" style="enable-background:new    ;">
	<path d="M9.322,7.002l-3.646,3.646l-2-1.646L3.003,9.676l2.673,2.319l4.319-4.319L9.322,7.002z M12,2.999H1c-0.552,0-1,0.448-1,1
		v11c0,0.553,0.448,1,1,1h11c0.553,0,1-0.447,1-1v-11C13,3.447,12.553,2.999,12,2.999z M12,14.499c0,0.276-0.225,0.5-0.5,0.5h-10
		c-0.276,0-0.5-0.224-0.5-0.5v-10c0-0.275,0.224-0.5,0.5-0.5h10c0.275,0,0.5,0.225,0.5,0.5V14.499z M15-0.001H5
		c-0.552,0-1,0.447-1,1v1h1v-0.5c0-0.275,0.224-0.5,0.5-0.5h9c0.275,0,0.5,0.225,0.5,0.5v9c0,0.276-0.225,0.5-0.5,0.5H14v1h1
		c0.553,0,1-0.447,1-1v-10C16,0.446,15.553-0.001,15-0.001z"/>
</g>
<g id="Layer_1">
</g>
</svg>
