<?xml version="1.0" encoding="iso-8859-1"?>
<!-- Generator: Adobe Illustrator 16.0.0, SVG Export Plug-In . SVG Version: 6.00 Build 0)  -->
<!DOCTYPE svg PUBLIC "-//W3C//DTD SVG 1.1//EN" "http://www.w3.org/Graphics/SVG/1.1/DTD/svg11.dtd">
<svg version="1.1" xmlns="http://www.w3.org/2000/svg" xmlns:xlink="http://www.w3.org/1999/xlink" x="0px" y="0px" width="16px"
	 height="16px" viewBox="0 0 16 16" style="enable-background:new 0 0 16 16;" xml:space="preserve">
<g id="_x33_9-web_-_share_network" style="enable-background:new    ;">
	<path style="fill-rule:evenodd;clip-rule:evenodd;" d="M14,12c-0.67,0-1.258,0.332-1.621,0.837l-5.426-2.411
		C6.982,10.289,7,10.147,7,10.001c0-0.073-0.014-0.144-0.022-0.216l5.536-2.458c0.365,0.41,0.893,0.674,1.486,0.674
		c1.104,0,2-0.896,2-2S15.104,4,14,4c-1.105,0-2,0.896-2,2.001c0,0.146,0.018,0.288,0.047,0.425L6.621,8.837
		C6.257,8.332,5.669,8.001,5,8.001c-1.104,0-2,0.895-2,2C3,11.105,3.896,12,5,12c0.593,0,1.121-0.263,1.487-0.673l5.535,2.458
		C12.014,13.857,12,13.927,12,14c0,1.105,0.895,2,2,2c1.104,0,2-0.895,2-2C16,12.896,15.104,12,14,12z M14,5.002
		c0.553,0,1,0.447,1,1s-0.447,1-1,1s-1-0.447-1-1S13.447,5.002,14,5.002z M5,11.002c-0.553,0-1-0.447-1-1s0.447-1,1-1s1,0.447,1,1
		S5.553,11.002,5,11.002z M14,15.002c-0.553,0-1-0.447-1-1s0.447-1,1-1s1,0.447,1,1S14.553,15.002,14,15.002z"/>
</g>
<g id="Layer_1">
</g>
</svg>
