<?xml version="1.0" encoding="iso-8859-1"?>
<!-- Generator: Adobe Illustrator 16.0.0, SVG Export Plug-In . SVG Version: 6.00 Build 0)  -->
<!DOCTYPE svg PUBLIC "-//W3C//DTD SVG 1.1//EN" "http://www.w3.org/Graphics/SVG/1.1/DTD/svg11.dtd">
<svg version="1.1" xmlns="http://www.w3.org/2000/svg" xmlns:xlink="http://www.w3.org/1999/xlink" x="0px" y="0px" width="16px"
	 height="16px" viewBox="0 0 16 16" style="enable-background:new 0 0 16 16;" xml:space="preserve">
<g id="_x39_-web_-_cross_remove_browser" style="enable-background:new    ;">
	<path d="M3,3.999h1v-1H3V3.999z M6.753,12.995L8.5,11.248l1.748,1.747l0.748-0.749L9.25,10.499l1.746-1.747l-0.748-0.749L8.5,9.75
		L6.753,8.003L6.004,8.752l1.747,1.747l-1.747,1.747L6.753,12.995z M5,3.999h1v-1H5V3.999z M15.5,0.999h-14
		C1.224,0.999,1,1.223,1,1.498v14.001c0,0.276,0.224,0.5,0.5,0.5h14c0.275,0,0.5-0.224,0.5-0.5V1.498
		C16,1.223,15.775,0.999,15.5,0.999z M15,14.498c0,0.277-0.225,0.501-0.5,0.501h-12c-0.276,0-0.5-0.224-0.5-0.501V5.999h13V14.498z
		 M15,4.999H2v-2.5c0-0.276,0.224-0.5,0.5-0.5h12c0.275,0,0.5,0.224,0.5,0.5V4.999z M7,3.999h1v-1H7V3.999z"/>
</g>
<g id="Layer_1">
</g>
</svg>
