<?xml version="1.0" encoding="iso-8859-1"?>
<!-- Generator: Adobe Illustrator 16.0.0, SVG Export Plug-In . SVG Version: 6.00 Build 0)  -->
<!DOCTYPE svg PUBLIC "-//W3C//DTD SVG 1.1//EN" "http://www.w3.org/Graphics/SVG/1.1/DTD/svg11.dtd">
<svg version="1.1" xmlns="http://www.w3.org/2000/svg" xmlns:xlink="http://www.w3.org/1999/xlink" x="0px" y="0px" width="16px"
	 height="16px" viewBox="0 0 16 16" style="enable-background:new 0 0 16 16;" xml:space="preserve">
<g id="_x38_-web_-_tick_done_browser" style="enable-background:new    ;">
	<path d="M3,3.999h1v-1H3V3.999z M7.75,12.992l0.002,0.003l4.243-4.243l-0.748-0.749l-3.572,3.572l-1.923-1.572l-0.749,0.749
		l2.743,2.243L7.75,12.992z M15.5,0.999h-14C1.224,0.999,1,1.223,1,1.498v14.001c0,0.276,0.224,0.5,0.5,0.5h14
		c0.275,0,0.5-0.224,0.5-0.5V1.498C16,1.223,15.775,0.999,15.5,0.999z M15,14.498c0,0.277-0.225,0.501-0.5,0.501h-12
		c-0.276,0-0.5-0.224-0.5-0.501V5.999h13V14.498z M15,4.999H2v-2.5c0-0.276,0.224-0.5,0.5-0.5h12c0.275,0,0.5,0.224,0.5,0.5V4.999z
		 M7,3.999h1v-1H7V3.999z M5,3.999h1v-1H5V3.999z"/>
</g>
<g id="Layer_1">
</g>
</svg>
