<?xml version="1.0" encoding="iso-8859-1"?>
<!-- Generator: Adobe Illustrator 16.0.0, SVG Export Plug-In . SVG Version: 6.00 Build 0)  -->
<!DOCTYPE svg PUBLIC "-//W3C//DTD SVG 1.1//EN" "http://www.w3.org/Graphics/SVG/1.1/DTD/svg11.dtd">
<svg version="1.1" xmlns="http://www.w3.org/2000/svg" xmlns:xlink="http://www.w3.org/1999/xlink" x="0px" y="0px" width="16px"
	 height="16px" viewBox="0 0 16 16" style="enable-background:new 0 0 16 16;" xml:space="preserve">
<g id="_x33_6-web_-_link_url" style="enable-background:new    ;">
	<path d="M7.055,9.209l0.718,0.719l2.154-2.154L9.211,7.055L7.055,9.209z M7.773,11.364L5.619,13.52
		c-0.595,0.595-1.56,0.595-2.155,0c-0.595-0.596-0.595-1.56,0-2.155l2.155-2.155l1.429-1.428C6.286,7.675,5.486,7.905,4.9,8.491
		l-2.155,2.155c-0.992,0.991-0.992,2.6,0,3.591c0.992,0.992,2.6,0.992,3.591,0l2.155-2.154c0.586-0.586,0.817-1.386,0.711-2.146
		L7.773,11.364z M14.238,2.745c-0.992-0.992-2.6-0.992-3.592,0L8.492,4.899c-0.585,0.586-0.816,1.386-0.71,2.147l1.429-1.429
		l2.154-2.155c0.596-0.595,1.561-0.595,2.154,0c0.596,0.595,0.596,1.561,0,2.155l-2.154,2.155L9.938,9.201
		c0.762,0.105,1.561-0.124,2.146-0.71l2.154-2.155C15.23,5.345,15.23,3.736,14.238,2.745z"/>
</g>
<g id="Layer_1">
</g>
</svg>
