<?xml version="1.0" encoding="iso-8859-1"?>
<!-- Generator: Adobe Illustrator 16.0.0, SVG Export Plug-In . SVG Version: 6.00 Build 0)  -->
<!DOCTYPE svg PUBLIC "-//W3C//DTD SVG 1.1//EN" "http://www.w3.org/Graphics/SVG/1.1/DTD/svg11.dtd">
<svg version="1.1" xmlns="http://www.w3.org/2000/svg" xmlns:xlink="http://www.w3.org/1999/xlink" x="0px" y="0px" width="16px"
	 height="16px" viewBox="0 0 16 16" style="enable-background:new 0 0 16 16;" xml:space="preserve">
<g id="_x31_9-web_-_tech_webcam" style="enable-background:new    ;">
	<path d="M15,6.999c0-3.866-3.135-7-7-7c-3.866,0-7,3.134-7,7c0,2.98,1.871,5.509,4.496,6.519L5.2,14.999H3.5
		c-0.276,0-0.5,0.224-0.5,0.5s0.224,0.5,0.5,0.5H5h6h1.5c0.275,0,0.5-0.224,0.5-0.5s-0.225-0.5-0.5-0.5h-1.699l-0.297-1.481
		C13.129,12.508,15,9.979,15,6.999z M6,14.999l0.4-1.201c0.516,0.121,1.047,0.201,1.6,0.201c0.552,0,1.084-0.08,1.6-0.201l0.4,1.201
		H6z M8,12.999c-3.314,0-6-2.687-6-6c0-3.314,2.686-6,6-6c3.314,0,6,2.686,6,6C14,10.313,11.314,12.999,8,12.999z M8,3.999
		c-1.657,0-3,1.343-3,3c0,1.656,1.343,3,3,3c1.656,0,3-1.344,3-3C11,5.342,9.656,3.999,8,3.999z M8,8.999c-1.104,0-2-0.896-2-2
		s0.896-2.001,2-2.001c1.104,0,2,0.896,2,2.001S9.104,8.999,8,8.999z"/>
</g>
<g id="Layer_1">
</g>
</svg>
