<?xml version="1.0" encoding="iso-8859-1"?>
<!-- Generator: Adobe Illustrator 16.0.0, SVG Export Plug-In . SVG Version: 6.00 Build 0)  -->
<!DOCTYPE svg PUBLIC "-//W3C//DTD SVG 1.1//EN" "http://www.w3.org/Graphics/SVG/1.1/DTD/svg11.dtd">
<svg version="1.1" xmlns="http://www.w3.org/2000/svg" xmlns:xlink="http://www.w3.org/1999/xlink" x="0px" y="0px" width="16px"
	 height="16px" viewBox="0 0 16 16" style="enable-background:new 0 0 16 16;" xml:space="preserve">
<g id="_x33_8-web_-_share_network" style="enable-background:new    ;">
	<path style="fill-rule:evenodd;clip-rule:evenodd;" d="M13.5,9.998c-0.879,0-1.65,0.457-2.096,1.144L5.96,8.889
		C5.981,8.761,6,8.633,6,8.499c0-0.074-0.016-0.144-0.022-0.216l5.434-2.414c0.447,0.679,1.215,1.128,2.088,1.128
		c1.381,0,2.5-1.119,2.5-2.5c0-1.38-1.119-2.5-2.5-2.5s-2.5,1.12-2.5,2.5c0,0.146,0.018,0.289,0.043,0.428l-5.358,2.38
		C5.26,6.531,4.446,5.998,3.5,5.998c-1.381,0-2.5,1.12-2.5,2.501c0,1.38,1.119,2.499,2.5,2.499c0.879,0,1.649-0.456,2.095-1.143
		l5.444,2.253C11.02,12.236,11,12.364,11,12.498c0,1.382,1.119,2.501,2.5,2.501S16,13.88,16,12.498
		C16,11.118,14.881,9.998,13.5,9.998z M13.5,2.998c0.828,0,1.5,0.672,1.5,1.5s-0.672,1.5-1.5,1.5S12,5.326,12,4.498
		S12.672,2.998,13.5,2.998z M3.5,9.998c-0.829,0-1.5-0.671-1.5-1.5c0-0.828,0.671-1.5,1.5-1.5c0.828,0,1.5,0.672,1.5,1.5
		C5,9.327,4.328,9.998,3.5,9.998z M13.5,13.998c-0.828,0-1.5-0.671-1.5-1.5c0-0.828,0.672-1.5,1.5-1.5s1.5,0.672,1.5,1.5
		C15,13.327,14.328,13.998,13.5,13.998z"/>
</g>
<g id="Layer_1">
</g>
</svg>
