<?xml version="1.0" encoding="iso-8859-1"?>
<!-- Generator: Adobe Illustrator 16.0.0, SVG Export Plug-In . SVG Version: 6.00 Build 0)  -->
<!DOCTYPE svg PUBLIC "-//W3C//DTD SVG 1.1//EN" "http://www.w3.org/Graphics/SVG/1.1/DTD/svg11.dtd">
<svg version="1.1" xmlns="http://www.w3.org/2000/svg" xmlns:xlink="http://www.w3.org/1999/xlink" x="0px" y="0px" width="16px"
	 height="16px" viewBox="0 0 16 16" style="enable-background:new 0 0 16 16;" xml:space="preserve">
<g id="_x31_-web_-_browse_internet_network" style="enable-background:new    ;">
	<path style="fill-rule:evenodd;clip-rule:evenodd;" d="M8,0C3.582,0,0,3.582,0,8s3.582,7.999,8,7.999c4.417,0,8-3.581,8-7.999
		S12.418,0,8,0z M9.979,7.001H6.022C6.051,6.293,6.112,5.623,6.197,5h3.606C9.889,5.623,9.949,6.293,9.979,7.001z M10,8.001
		C10,9.076,9.93,10.09,9.805,11h-3.61C6.071,10.09,6,9.076,6,8.001H10z M14.914,7.001h-3.938C10.943,6.3,10.873,5.632,10.775,5
		h3.533C14.604,5.622,14.813,6.294,14.914,7.001z M13.725,4H10.59c-0.25-1.15-0.602-2.125-1.027-2.82
		C11.281,1.573,12.748,2.601,13.725,4z M8,0.999c0.679,0,1.277,1.189,1.638,3.001H6.362C6.723,2.188,7.321,0.999,8,0.999z
		 M6.438,1.181C6.012,1.875,5.661,2.85,5.41,4H2.276C3.251,2.602,4.719,1.573,6.438,1.181z M1.692,5h3.532
		c-0.097,0.632-0.167,1.3-0.2,2.001H1.087C1.188,6.294,1.397,5.622,1.692,5z M1,8.001h4C5,9.063,5.079,10.074,5.22,11H1.701
		C1.265,10.089,1,9.079,1,8.001z M2.285,11.999h3.119c0.251,1.152,0.607,2.123,1.033,2.819C4.722,14.427,3.265,13.393,2.285,11.999z
		 M8,15c-0.68,0-1.279-1.188-1.641-3.001h3.281C9.279,13.812,8.679,15,8,15z M9.563,14.818c0.428-0.696,0.783-1.667,1.033-2.819
		h3.119C12.736,13.393,11.277,14.427,9.563,14.818z M10.779,11C10.922,10.074,11,9.063,11,8.001h4c0,1.078-0.266,2.088-0.701,2.999
		H10.779z"/>
</g>
<g id="Layer_1">
</g>
</svg>
