<?xml version="1.0" encoding="iso-8859-1"?>
<!-- Generator: Adobe Illustrator 16.0.0, SVG Export Plug-In . SVG Version: 6.00 Build 0)  -->
<!DOCTYPE svg PUBLIC "-//W3C//DTD SVG 1.1//EN" "http://www.w3.org/Graphics/SVG/1.1/DTD/svg11.dtd">
<svg version="1.1" xmlns="http://www.w3.org/2000/svg" xmlns:xlink="http://www.w3.org/1999/xlink" x="0px" y="0px" width="16px"
	 height="16px" viewBox="0 0 16 16" style="enable-background:new 0 0 16 16;" xml:space="preserve">
<g id="_x34_-web_-_browser_windows" style="enable-background:new    ;">
	<path d="M2,4.999h7v-1H2V4.999z M13-0.001H5c-0.885,0-1.672,0.391-2.221,1H13c1.104,0,2,0.895,2,2v8v2.222
		c0.609-0.55,1-1.337,1-2.222v-8C16,1.342,14.656-0.001,13-0.001z M10,4.999h1v-1h-1V4.999z M11,1.999H3c-1.657,0-3,1.343-3,3v1v1v6
		c0,1.656,1.343,3,3,3h8c1.656,0,3-1.344,3-3v-6v-1v-1C14,3.342,12.656,1.999,11,1.999z M13,12.999c0,1.104-0.896,2-2,2H3
		c-1.104,0-2-0.896-2-2v-6h12V12.999z M13,5.999H1v-1c0-1.104,0.896-2,2-2h8c1.104,0,2,0.896,2,2V5.999z"/>
</g>
<g id="Layer_1">
</g>
</svg>
