<?xml version="1.0" encoding="iso-8859-1"?>
<!-- Generator: Adobe Illustrator 16.0.0, SVG Export Plug-In . SVG Version: 6.00 Build 0)  -->
<!DOCTYPE svg PUBLIC "-//W3C//DTD SVG 1.1//EN" "http://www.w3.org/Graphics/SVG/1.1/DTD/svg11.dtd">
<svg version="1.1" xmlns="http://www.w3.org/2000/svg" xmlns:xlink="http://www.w3.org/1999/xlink" x="0px" y="0px" width="16px"
	 height="16px" viewBox="0 0 16 16" style="enable-background:new 0 0 16 16;" xml:space="preserve">
<g id="_x31_3-web_-_traffic_statistic_graph" style="enable-background:new    ;">
	<path d="M2,7.999c-1.104,0-2,0.896-2,1.999v4.001c0,1.104,0.896,2,2,2s2-0.896,2-2V9.998C4,8.895,3.104,7.999,2,7.999z M3,13.999
		c0,0.552-0.448,1-1,1s-1-0.448-1-1V9.998c0-0.552,0.448-0.999,1-0.999s1,0.447,1,0.999V13.999z M8-0.001c-1.104,0-2,0.896-2,2v12
		c0,1.104,0.896,2,2,2c1.104,0,2-0.896,2-2v-12C10,0.895,9.104-0.001,8-0.001z M9,13.999c0,0.552-0.447,1-1,1s-1-0.448-1-1v-12
		c0-0.553,0.448-1,1-1s1,0.447,1,1V13.999z M14,3.999c-1.105,0-2,0.896-2,2v8c0,1.104,0.895,2,2,2s2-0.896,2-2v-8
		C16,4.895,15.105,3.999,14,3.999z M15,13.999c0,0.552-0.447,1-1,1s-1-0.448-1-1v-8c0-0.553,0.447-1,1-1s1,0.447,1,1V13.999z"/>
</g>
<g id="Layer_1">
</g>
</svg>
