<?xml version="1.0" encoding="iso-8859-1"?>
<!-- Generator: Adobe Illustrator 16.0.0, SVG Export Plug-In . SVG Version: 6.00 Build 0)  -->
<!DOCTYPE svg PUBLIC "-//W3C//DTD SVG 1.1//EN" "http://www.w3.org/Graphics/SVG/1.1/DTD/svg11.dtd">
<svg version="1.1" xmlns="http://www.w3.org/2000/svg" xmlns:xlink="http://www.w3.org/1999/xlink" x="0px" y="0px" width="16px"
	 height="16px" viewBox="0 0 16 16" style="enable-background:new 0 0 16 16;" xml:space="preserve">
<g id="_x32_-web_-_browse_internet_network" style="enable-background:new    ;">
	<path style="fill-rule:evenodd;clip-rule:evenodd;" d="M8,0C3.582,0,0,3.582,0,8s3.582,7.999,8,7.999c4.417,0,8-3.581,8-7.999
		S12.418,0,8,0z M6,8h4c0,1.109-0.076,2.154-0.207,3.086C9.219,11.033,8.622,11,8,11c-0.622,0-1.219,0.033-1.793,0.086
		C6.076,10.154,6,9.109,6,8z M6.023,7c0.03-0.741,0.095-1.441,0.187-2.088C6.783,4.966,7.379,5,8,5s1.218-0.034,1.791-0.088
		C9.883,5.559,9.947,6.259,9.979,7H6.023z M13.682,3.947c0.633,0.888,1.07,1.924,1.232,3.053h-3.939
		c-0.035-0.778-0.119-1.514-0.232-2.206C11.93,4.613,12.939,4.318,13.682,3.947z M15,8c0,1.503-0.492,2.881-1.301,4.021
		c-0.754-0.359-1.768-0.645-2.953-0.82C10.908,10.22,11,9.141,11,8H15z M13.328,3.5h-0.865c-0.529,0.147-1.18,0.268-1.904,0.354
		C10.311,2.767,9.971,1.846,9.563,1.18C11.066,1.523,12.369,2.361,13.328,3.5z M8,0.999c0.67,0,1.261,1.162,1.625,2.938
		C9.105,3.974,8.568,4,8,4C7.433,4,6.895,3.974,6.375,3.937C6.737,2.161,7.329,0.999,8,0.999z M6.438,1.18
		C6.03,1.846,5.69,2.767,5.441,3.854C4.716,3.768,4.067,3.647,3.537,3.5H2.673C3.632,2.362,4.935,1.524,6.438,1.18z M2.318,3.947
		c0.742,0.371,1.752,0.666,2.94,0.848C5.144,5.486,5.062,6.222,5.025,7H1.087C1.25,5.871,1.687,4.835,2.318,3.947z M5,8
		c0,1.141,0.093,2.22,0.254,3.2c-1.186,0.176-2.2,0.461-2.955,0.82C1.493,10.881,1,9.503,1,8H5z M2.656,12.5h0.815
		c0.547-0.15,1.217-0.272,1.968-0.359c0.249,1.088,0.59,2.012,0.998,2.678C4.932,14.475,3.619,13.64,2.656,12.5z M8,15
		c-0.672,0-1.265-1.162-1.627-2.939c0.521-0.036,1.06-0.062,1.627-0.062c0.567,0,1.107,0.025,1.626,0.062
		C9.264,13.838,8.671,15,8,15z M9.563,14.818c0.408-0.666,0.75-1.59,0.998-2.678c0.752,0.087,1.42,0.209,1.967,0.359h0.816
		C12.381,13.64,11.068,14.475,9.563,14.818z"/>
</g>
<g id="Layer_1">
</g>
</svg>
