<?xml version="1.0" encoding="iso-8859-1"?>
<!-- Generator: Adobe Illustrator 16.0.0, SVG Export Plug-In . SVG Version: 6.00 Build 0)  -->
<!DOCTYPE svg PUBLIC "-//W3C//DTD SVG 1.1//EN" "http://www.w3.org/Graphics/SVG/1.1/DTD/svg11.dtd">
<svg version="1.1" xmlns="http://www.w3.org/2000/svg" xmlns:xlink="http://www.w3.org/1999/xlink" x="0px" y="0px" width="16px"
	 height="16px" viewBox="0 0 16 16" style="enable-background:new 0 0 16 16;" xml:space="preserve">
<g id="_x31_8-web_-_log_out_logout_exit" style="enable-background:new    ;">
	<path style="fill-rule:evenodd;clip-rule:evenodd;" d="M1,14.5v-12C1,2.225,1.224,2,1.5,2L8,3.625V2.556L1,1C0.447,1,0,1.447,0,2
		v13c0,0.553,0.447,1,1,1l7-1.557v-1.068L1.5,15C1.224,15,1,14.776,1,14.5z M15.982,8.412c-0.016-0.098-0.049-0.193-0.125-0.27
		c-0.049-0.049-0.105-0.084-0.164-0.107l-4.861-3.893c-0.189-0.19-0.5-0.19-0.689,0c-0.191,0.19-0.191,0.5,0,0.69L14.096,8H2.5
		C2.224,8,2,8.224,2,8.5S2.224,9,2.5,9h11.596l-3.953,3.167c-0.191,0.19-0.191,0.5,0,0.69c0.189,0.19,0.5,0.19,0.689,0l4.861-3.893
		c0.059-0.023,0.115-0.059,0.164-0.107c0.076-0.076,0.109-0.171,0.125-0.27C15.988,8.559,16,8.531,16,8.5S15.988,8.441,15.982,8.412
		z"/>
</g>
<g id="Layer_1">
</g>
</svg>
