<?xml version="1.0" encoding="iso-8859-1"?>
<!-- Generator: Adobe Illustrator 16.0.0, SVG Export Plug-In . SVG Version: 6.00 Build 0)  -->
<!DOCTYPE svg PUBLIC "-//W3C//DTD SVG 1.1//EN" "http://www.w3.org/Graphics/SVG/1.1/DTD/svg11.dtd">
<svg version="1.1" xmlns="http://www.w3.org/2000/svg" xmlns:xlink="http://www.w3.org/1999/xlink" x="0px" y="0px" width="16px"
	 height="16px" viewBox="0 0 16 16" style="enable-background:new 0 0 16 16;" xml:space="preserve">
<g id="_x31_0-web_-_inspect_element_browser" style="enable-background:new    ;">
	<path d="M10.947,11.058c1.385-1.387,1.385-3.635,0-5.021c-1.383-1.387-3.627-1.387-5.011,0c-1.262,1.264-1.36,3.235-0.322,4.625
		l-3.616,3.623l0.716,0.717L6.33,11.38C7.718,12.419,9.688,12.32,10.947,11.058z M6.652,6.754c0.989-0.99,2.592-0.99,3.581,0
		s0.988,2.596,0,3.586s-2.592,0.99-3.581,0S5.663,7.744,6.652,6.754z M15.5-0.001h-15C0.224-0.001,0,0.223,0,0.498v10.501h1v-7h2V4
		h1V3.999h11v10.499c0,0.277-0.225,0.501-0.5,0.501H5v0.999h10.5c0.275,0,0.5-0.224,0.5-0.499V0.498
		C16,0.223,15.775-0.001,15.5-0.001z M3,2.999H1v-1.5c0-0.276,0.224-0.501,0.5-0.501H3V2.999z M15,2.999H4V0.998h10.5
		c0.275,0,0.5,0.225,0.5,0.501V2.999z"/>
</g>
<g id="Layer_1">
</g>
</svg>
