<?xml version="1.0" encoding="iso-8859-1"?>
<!-- Generator: Adobe Illustrator 16.0.0, SVG Export Plug-In . SVG Version: 6.00 Build 0)  -->
<!DOCTYPE svg PUBLIC "-//W3C//DTD SVG 1.1//EN" "http://www.w3.org/Graphics/SVG/1.1/DTD/svg11.dtd">
<svg version="1.1" xmlns="http://www.w3.org/2000/svg" xmlns:xlink="http://www.w3.org/1999/xlink" x="0px" y="0px" width="16px"
	 height="16px" viewBox="0 0 16 16" style="enable-background:new 0 0 16 16;" xml:space="preserve">
<g id="_x32_0-web_-_tech_server_memory_disk_storage" style="enable-background:new    ;">
	<path d="M12.666,8.999h0.668C13.701,8.999,14,8.7,14,8.332V7.665c0-0.368-0.299-0.666-0.666-0.666h-0.668
		C12.299,6.999,12,7.297,12,7.665v0.667C12,8.7,12.299,8.999,12.666,8.999z M12.666,13.999h0.668c0.367,0,0.666-0.298,0.666-0.666
		v-0.667c0-0.368-0.299-0.667-0.666-0.667h-0.668c-0.367,0-0.666,0.299-0.666,0.667v0.667C12,13.701,12.299,13.999,12.666,13.999z
		 M13.334,1.999h-0.668C12.299,1.999,12,2.298,12,2.666v0.666c0,0.368,0.299,0.667,0.666,0.667h0.668C13.701,3.999,14,3.7,14,3.332
		V2.666C14,2.298,13.701,1.999,13.334,1.999z M15-0.001H2c-0.552,0-1,0.448-1,1v14c0,0.553,0.448,1,1,1h13c0.553,0,1-0.447,1-1v-14
		C16,0.447,15.553-0.001,15-0.001z M15,4.999H3.5c-0.276,0-0.5,0.224-0.5,0.5s0.224,0.5,0.5,0.5H15v4H3.5
		c-0.276,0-0.5,0.224-0.5,0.5s0.224,0.5,0.5,0.5H15v3.5c0,0.276-0.225,0.5-0.5,0.5h-12c-0.276,0-0.5-0.224-0.5-0.5v-13
		c0-0.275,0.224-0.5,0.5-0.5h12c0.275,0,0.5,0.225,0.5,0.5V4.999z"/>
</g>
<g id="Layer_1">
</g>
</svg>
