<?xml version="1.0" encoding="iso-8859-1"?>
<!-- Generator: Adobe Illustrator 16.0.0, SVG Export Plug-In . SVG Version: 6.00 Build 0)  -->
<!DOCTYPE svg PUBLIC "-//W3C//DTD SVG 1.1//EN" "http://www.w3.org/Graphics/SVG/1.1/DTD/svg11.dtd">
<svg version="1.1" xmlns="http://www.w3.org/2000/svg" xmlns:xlink="http://www.w3.org/1999/xlink" x="0px" y="0px" width="16px"
	 height="16px" viewBox="0 0 16 16" style="enable-background:new 0 0 16 16;" xml:space="preserve">
<g id="_x32_2-web_-_eye_glass_reading_list" style="enable-background:new    ;">
	<path d="M16,5.999h-1v0.056c-0.635-0.65-1.52-1.056-2.5-1.056c-1.307,0-2.434,0.725-3.033,1.785C9.08,6.648,8.544,6.499,7.99,6.499
		c-0.547,0-1.076,0.147-1.458,0.283C5.931,5.723,4.806,4.999,3.5,4.999c-0.981,0-1.865,0.405-2.5,1.056V5.999H0v2h0.05
		C0.026,8.163,0,8.327,0,8.499c0,1.933,1.567,3.5,3.5,3.5S7,10.432,7,8.499c0-0.285-0.043-0.558-0.107-0.822
		c0.333-0.095,0.709-0.178,1.104-0.178c0.397,0,0.776,0.084,1.111,0.179C9.043,7.942,9,8.215,9,8.499c0,1.933,1.567,3.5,3.5,3.5
		s3.5-1.567,3.5-3.5c0-0.172-0.027-0.336-0.051-0.5H16V5.999z M3.5,10.999c-1.381,0-2.5-1.119-2.5-2.5s1.119-2.5,2.5-2.5
		S6,7.118,6,8.499S4.881,10.999,3.5,10.999z M12.5,10.999c-1.381,0-2.5-1.119-2.5-2.5s1.119-2.5,2.5-2.5s2.5,1.119,2.5,2.5
		S13.881,10.999,12.5,10.999z"/>
</g>
<g id="Layer_1">
</g>
</svg>
