<?xml version="1.0" encoding="iso-8859-1"?>
<!-- Generator: Adobe Illustrator 16.0.0, SVG Export Plug-In . SVG Version: 6.00 Build 0)  -->
<!DOCTYPE svg PUBLIC "-//W3C//DTD SVG 1.1//EN" "http://www.w3.org/Graphics/SVG/1.1/DTD/svg11.dtd">
<svg version="1.1" xmlns="http://www.w3.org/2000/svg" xmlns:xlink="http://www.w3.org/1999/xlink" x="0px" y="0px" width="16px"
	 height="16px" viewBox="0 0 16 16" style="enable-background:new 0 0 16 16;" xml:space="preserve">
<g id="_x31_7-web_-_traffic_statistic_graph" style="enable-background:new    ;">
	<path d="M15-0.001H1C0.448-0.001,0,0.447,0,1v13.999c0,0.553,0.448,1,1,1h14c0.553,0,1-0.447,1-1V1C16,0.447,15.553-0.001,15-0.001
		z M15,14.5c0,0.275-0.225,0.499-0.5,0.499h-13c-0.276,0-0.5-0.224-0.5-0.499v-3.74l3.849-3.445l3.83,2.623l0.058,0.058l0.011-0.011
		l0.016,0.011l0.733-0.732L9.48,9.252L15,3.731V14.5z M15,2.268l-6.389,6.39L4.82,6.062L4.763,6.004L4.751,6.015L4.737,6.004
		L4.513,6.228L1,9.372V1.499C1,1.224,1.224,1,1.5,1h13C14.775,1,15,1.224,15,1.499V2.268z"/>
</g>
<g id="Layer_1">
</g>
</svg>
