<svg version="1.1" xmlns="http://www.w3.org/2000/svg" xmlns:xlink="http://www.w3.org/1999/xlink" x="0px" y="0px" width="30px"
     height="30px" viewBox="0 0 16 16" style="enable-background:new 0 0 30 30;" xml:space="preserve">
<g id="_x35_3-interface_-_cross_cancel" style="enable-background:new    ;">
	<path d="M8.696,7.499l6.164-6.165c0.193-0.191,0.193-0.504,0-0.695c-0.191-0.192-0.502-0.192-0.695,0L8,6.803L1.835,0.639
		c-0.192-0.192-0.504-0.192-0.696,0c-0.192,0.191-0.192,0.504,0,0.695l6.165,6.165L1.14,13.663c-0.192,0.192-0.192,0.504,0,0.696
		c0.192,0.192,0.503,0.192,0.696,0L8,8.194l6.164,6.165c0.193,0.192,0.504,0.192,0.695,0c0.193-0.192,0.193-0.504,0-0.696
		L8.696,7.499z"/>
</g>
    <g id="Layer_1">
</g>
</svg>
