<?xml version="1.0" standalone="no"?>
<!DOCTYPE svg PUBLIC "-//W3C//DTD SVG 20010904//EN"
 "http://www.w3.org/TR/2001/REC-SVG-20010904/DTD/svg10.dtd">
<svg version="1.0" xmlns="http://www.w3.org/2000/svg"
 width="500.000000pt" height="500.000000pt" viewBox="0 0 500.000000 500.000000"
 preserveAspectRatio="xMidYMid meet">
<metadata>
Created by potrace 1.11, written by Peter Selinger 2001-2013
</metadata>
<g transform="translate(0.000000,500.000000) scale(0.100000,-0.100000)"
fill="#000000" stroke="none">
<path d="M2555 4226 c-11 -7 -42 -26 -70 -41 -132 -73 -681 -384 -715 -406 -8
-5 -24 -13 -36 -18 -11 -5 -51 -28 -88 -50 -36 -23 -68 -41 -70 -41 -3 0 -37
-19 -78 -43 -40 -24 -80 -47 -88 -50 -65 -31 -154 -88 -152 -97 1 -7 -2 -9 -8
-5 -11 7 -115 -49 -126 -67 -4 -6 -8 -41 -10 -77 -1 -36 -7 -84 -13 -106 -6
-22 -10 -94 -10 -160 0 -66 1 -160 1 -210 0 -49 -2 -103 -4 -120 -3 -16 -1
-41 4 -54 4 -13 9 -85 9 -160 1 -75 4 -140 7 -146 17 -27 7 -93 -20 -142 -16
-29 -25 -53 -21 -53 4 0 -5 -11 -22 -24 -28 -23 -29 -26 -19 -65 6 -23 9 -52
7 -65 -5 -27 -40 -41 -60 -25 -14 12 -36 3 -28 -12 4 -5 -4 -27 -16 -49 l-23
-40 40 -35 c21 -19 42 -35 46 -35 4 0 5 -21 2 -47 -5 -42 -2 -53 25 -89 37
-50 63 -56 135 -36 l54 15 226 -132 c124 -72 230 -131 236 -131 5 0 10 -4 10
-9 0 -5 10 -13 22 -17 12 -3 28 -13 36 -20 7 -8 20 -14 28 -14 8 0 14 -4 14
-10 0 -5 4 -10 9 -10 5 0 103 -55 218 -121 114 -67 251 -146 303 -177 52 -30
129 -75 170 -100 43 -26 87 -45 103 -45 27 1 27 0 12 -21 -32 -44 -39 -64 -25
-81 14 -16 46 -20 54 -6 3 4 24 11 46 15 23 4 52 14 66 23 19 12 36 14 72 8
26 -4 57 -8 68 -10 30 -4 100 33 112 59 5 12 13 35 18 51 7 21 23 37 57 55 26
14 47 30 47 37 0 26 -33 30 -95 11 -47 -14 -69 -16 -89 -8 -33 12 -33 18 0 17
16 0 35 11 48 25 11 14 37 36 56 49 19 13 37 26 40 29 3 3 34 26 70 51 36 24
67 47 68 52 2 4 8 7 14 7 5 0 22 9 37 20 15 10 39 21 52 23 14 3 52 17 86 31
67 28 103 32 134 15 57 -30 190 -1 214 48 14 27 85 96 102 99 7 1 15 -2 19 -7
3 -5 11 -6 17 -2 6 4 25 8 42 9 44 2 45 3 45 19 0 8 -9 15 -20 15 -29 0 -33 1
-52 11 -10 5 -18 14 -18 19 0 6 8 10 18 10 24 0 82 37 89 58 3 9 26 36 51 59
l45 42 1 173 c0 95 -3 193 -7 218 -4 25 -10 72 -13 105 -3 32 -10 70 -15 84
-9 22 -11 328 -6 895 2 208 4 201 -62 237 -55 30 -98 55 -321 186 -113 66
-225 131 -250 145 -25 14 -106 61 -180 105 -75 43 -142 82 -150 86 -8 4 -28
16 -45 26 -55 33 -259 153 -315 184 -30 16 -66 38 -80 47 -38 27 -64 31 -85
16z"/>
<path d="M998 2033 c7 -3 16 -2 19 1 4 3 -2 6 -13 5 -11 0 -14 -3 -6 -6z"/>
<path d="M3880 1435 c14 -7 27 -11 30 -9 6 7 -22 24 -40 23 -9 0 -5 -6 10 -14z"/>
<path d="M3957 1409 c7 -7 15 -10 18 -7 3 3 -2 9 -12 12 -14 6 -15 5 -6 -5z"/>
</g>
</svg>
