<?xml version="1.0" encoding="UTF-8"?><svg id="Ebene_1" xmlns="http://www.w3.org/2000/svg" viewBox="0 0 310 310"><defs><style>.cls-1{fill:#505050;}</style></defs><path class="cls-1" d="m159.07,24.27c-.29,2.34-.44,4.74-.44,7.22,0,15.8,6.05,30.66,17.04,41.84,11.08,11.28,25.89,17.49,41.69,17.49.65,0,1.31-.01,1.96-.04,4.54,28.13,29.06,49.68,58.53,49.68,2.43,0,4.8-.14,7.13-.42.53,4.84.8,9.79.8,14.95,0,72.11-58.67,130.78-130.78,130.78S24.22,227.11,24.22,155,82.89,24.22,155,24.22c1.39,0,2.74.02,4.07.05h0Zm105.53,240.33c29.28-29.27,45.4-68.2,45.4-109.6,0-11.27-1.08-21.8-3.29-32.19l-2.04-9.58h-12.68l-2.12.82c-3.85,1.5-7.67,2.2-12,2.2-19.33,0-35.06-15.65-35.06-34.88v-8.89l-9.17-9.17-6.82,1.92c-3.23.91-6.4,1.37-9.44,1.37-19.03,0-34.51-15.75-34.51-35.12,0-4.59.81-8.53,2.64-12.76l.99-2.3V2.75l-10.47-1.43c-6.51-.89-13.38-1.32-21.02-1.32-41.4,0-80.33,16.12-109.6,45.4C16.12,74.67,0,113.6,0,155s16.12,80.33,45.4,109.6c29.27,29.28,68.2,45.4,109.6,45.4s80.33-16.12,109.6-45.4h0Zm-163.97-60.72c-4.1,5.28-3.15,12.89,2.13,16.99,5.28,4.1,12.89,3.15,16.99-2.13,4.1-5.28,3.15-12.89-2.13-16.99-5.28-4.1-12.89-3.15-16.99,2.13h0Zm-4.65-62.61c1.44-6.53-2.68-12.99-9.21-14.44-6.53-1.44-12.99,2.68-14.44,9.21-1.45,6.53,2.67,12.99,9.2,14.44,6.53,1.45,12.99-2.68,14.44-9.21h0Zm118.64,26.24c-1.45,6.53,2.68,12.99,9.2,14.44,6.53,1.44,12.99-2.68,14.44-9.21,1.44-6.53-2.68-12.99-9.21-14.44-6.53-1.45-12.99,2.68-14.44,9.2h0Zm-80.33-70.15c6.29-2.27,9.55-9.21,7.28-15.5-2.27-6.29-9.21-9.55-15.5-7.28-6.29,2.27-9.55,9.21-7.28,15.5,2.27,6.29,9.21,9.55,15.5,7.28h0Zm56.93,120.73c2.27,6.29-.99,13.23-7.28,15.5-6.29,2.27-13.23-.99-15.5-7.28-2.27-6.29.99-13.23,7.28-15.5,6.29-2.27,13.23.99,15.5,7.28h0Z"/></svg>