<svg id="Ebene_1" data-name="Ebene 1" xmlns="http://www.w3.org/2000/svg" width="52" height="52" viewBox="0 0 52 52"><defs><style>.cls-1{fill:#fff;}.cls-2{fill:#242424;}</style></defs><title>stageone-icon</title><rect id="Rechteck_20" data-name="Rechteck 20" class="cls-1" width="52" height="52"/><g id="Gruppe_68" data-name="Gruppe 68"><path id="Pfad_110" data-name="Pfad 110" class="cls-2" d="M40.75,11H12.69a.69.69,0,0,0-.69.69V39.75a.69.69,0,0,0,.69.69H40.75a.69.69,0,0,0,.69-.69V11.69A.69.69,0,0,0,40.75,11ZM38,14.93V36.5a.48.48,0,0,1-.48.48H15.93a.47.47,0,0,1-.48-.48h0V14.93a.47.47,0,0,1,.48-.48H37.51a.48.48,0,0,1,.48.48Z"/><path id="Pfad_111" data-name="Pfad 111" class="cls-2" d="M28.63,18.42v3.24l3-.42v7.37h3.25V17.54Z"/></g></svg>