<svg xmlns="http://www.w3.org/2000/svg" width="122.32mm" height="36.26mm" viewBox="0 0 346.74 102.8"><title>Stageone</title><g id="Claim"><path d="M229.76,124c-.23,0-.31-.13-.31-.39V106.72c0-.26.1-.39.34-.39H235c4.29,0,5.64,1.72,5.64,3.8v10.09c0,2.08-1.35,3.8-5.64,3.8Zm1.51-16.1v14.51H235c2.78,0,3.79-1,3.79-2.5v-9.51c0-1.51-1-2.5-3.79-2.5Z" transform="translate(-22.2 -26.57)" style="fill:#333"/><path d="M254,117.52a.33.33,0,0,1-.36.36h-7.39v2.89c0,1.19.63,2,3,2s3-.81,3-2v-.45c0-.26.1-.36.39-.36h.93c.26,0,.39.1.39.36v.55c0,2-1.17,3.35-4.75,3.35s-4.74-1.35-4.74-3.35v-6.55c0-2,1.2-3.36,4.76-3.36s4.73,1.36,4.73,3.36Zm-7.75-1h6v-2.08c0-1.17-.7-2-3-2s-3,.83-3,2Z" transform="translate(-22.2 -26.57)" style="fill:#333"/><path d="M260.57,124c-.26,0-.34-.11-.42-.37l-4.08-12.09c-.08-.23.05-.39.34-.39h1.12c.23,0,.34.16.41.39l2.92,8.61a8,8,0,0,1,.36,1.64,7.62,7.62,0,0,1,.42-1.62l3-8.63c.08-.23.18-.39.42-.39h1c.26,0,.42.16.34.39l-4.19,12.09c-.1.26-.15.37-.41.37Z" transform="translate(-22.2 -26.57)" style="fill:#333"/><path d="M278.12,117.52a.33.33,0,0,1-.36.36h-7.39v2.89c0,1.19.63,2,3,2s3-.81,3-2v-.45c0-.26.1-.36.38-.36h.94c.26,0,.39.1.39.36v.55c0,2-1.17,3.35-4.76,3.35s-4.73-1.35-4.73-3.35v-6.55c0-2,1.2-3.36,4.76-3.36s4.73,1.36,4.73,3.36Zm-7.75-1h6v-2.08c0-1.17-.71-2-3-2s-3,.83-3,2Z" transform="translate(-22.2 -26.57)" style="fill:#333"/><path d="M283.55,123.63c0,.26-.1.39-.36.39h-1.07c-.26,0-.36-.13-.36-.39v-17.4c0-.26.1-.39.36-.39h1.07c.26,0,.36.13.36.39Z" transform="translate(-22.2 -26.57)" style="fill:#333"/><path d="M287.32,114.32c0-2,1.33-3.36,4.89-3.36s4.92,1.36,4.92,3.36v6.55c0,2-1.36,3.35-4.92,3.35s-4.89-1.35-4.89-3.35Zm8,.13c0-1.22-.8-2-3.12-2s-3.09.78-3.09,2v6.29c0,1.22.8,2,3.09,2s3.12-.78,3.12-2Z" transform="translate(-22.2 -26.57)" style="fill:#333"/><path d="M302.25,111.17c.26,0,.34.13.36.39l.05,1a7,7,0,0,1,4.45-1.59c2.5,0,3.61,1.36,3.61,3.33v6.61c0,2-1.11,3.32-3.61,3.32a7.16,7.16,0,0,1-4.39-1.5V129c0,.26-.11.36-.37.36h-1.07c-.25,0-.36-.1-.36-.36V111.56c0-.26.11-.39.36-.39Zm6.65,3.38c0-1.06-.59-2-2.28-2a6.23,6.23,0,0,0-3.9,1.48v7a6.36,6.36,0,0,0,3.9,1.46c1.69,0,2.28-.89,2.28-2Z" transform="translate(-22.2 -26.57)" style="fill:#333"/><path d="M315.87,111.17c.26,0,.37.13.37.39l0,1a6.56,6.56,0,0,1,4.32-1.56,3.36,3.36,0,0,1,3.33,1.77,6.55,6.55,0,0,1,4.52-1.77c2.42,0,3.61,1.36,3.61,3.2v9.47c0,.26-.1.39-.39.39h-1c-.29,0-.42-.13-.42-.39v-9.08c0-1.17-.62-2-2.28-2a5.66,5.66,0,0,0-3.78,1.5,2.81,2.81,0,0,1,0,.47v9.08c0,.26-.1.39-.36.39h-1.07a.34.34,0,0,1-.39-.39v-9.08c0-1.17-.62-2-2.29-2a5.62,5.62,0,0,0-3.74,1.45v9.6c0,.26-.1.39-.37.39h-1.06c-.26,0-.37-.13-.37-.39V111.56c0-.26.11-.39.37-.39Z" transform="translate(-22.2 -26.57)" style="fill:#333"/><path d="M345.28,117.52a.33.33,0,0,1-.37.36h-7.38v2.89c0,1.19.62,2,3,2s3-.81,3-2v-.45c0-.26.1-.36.39-.36h.94c.26,0,.39.1.39.36v.55c0,2-1.17,3.35-4.76,3.35s-4.73-1.35-4.73-3.35v-6.55c0-2,1.19-3.36,4.75-3.36s4.74,1.36,4.74,3.36Zm-7.75-1h6v-2.08c0-1.17-.7-2-3-2s-3,.83-3,2Z" transform="translate(-22.2 -26.57)" style="fill:#333"/><path d="M350.24,111.17c.26,0,.34.13.37.39l.05,1a6.82,6.82,0,0,1,4.45-1.59c2.41,0,3.61,1.36,3.61,3.2v9.47c0,.26-.1.39-.36.39h-1.07a.34.34,0,0,1-.39-.39v-9.08c0-1.17-.62-2-2.29-2a6.27,6.27,0,0,0-3.9,1.45v9.6c0,.26-.1.39-.36.39h-1.07c-.26,0-.36-.13-.36-.39V111.56c0-.26.1-.39.36-.39Z" transform="translate(-22.2 -26.57)" style="fill:#333"/><path d="M368,111.22c.26,0,.39.11.39.37v.73c0,.26-.13.38-.39.38h-2.91v7.78c0,1.3.57,2,3,2h.47c.26,0,.39.11.39.39v.76c0,.28-.13.39-.39.39h-.7c-3.57,0-4.58-1.25-4.58-3.36v-8h-1.56c-.29,0-.39-.12-.39-.38v-.63c0-.26.1-.36.39-.39l1.35-.08h.21v-2.75a.34.34,0,0,1,.39-.39h1.06c.27,0,.37.13.37.39v2.75Z" transform="translate(-22.2 -26.57)" style="fill:#333"/><path d="M148.05,124c-.24,0-.32-.13-.32-.39V106.72c0-.26.11-.39.34-.39h5.26c4.29,0,5.64,1.72,5.64,3.8v10.09c0,2.08-1.35,3.8-5.64,3.8Zm1.5-16.1v14.51h3.78c2.78,0,3.79-1,3.79-2.5v-9.51c0-1.51-1-2.5-3.79-2.5Z" transform="translate(-22.2 -26.57)" style="fill:#333"/><path d="M172.28,117.52a.33.33,0,0,1-.37.36h-7.38v2.89c0,1.19.62,2,3,2s3-.81,3-2v-.45c0-.26.11-.36.39-.36h.94c.26,0,.39.1.39.36v.55c0,2-1.17,3.35-4.76,3.35s-4.73-1.35-4.73-3.35v-6.55c0-2,1.19-3.36,4.76-3.36s4.73,1.36,4.73,3.36Zm-7.75-1h6v-2.08c0-1.17-.7-2-3-2s-3,.83-3,2Z" transform="translate(-22.2 -26.57)" style="fill:#333"/><path d="M182.86,113.93c0-1-.94-1.61-2.89-1.61s-2.83.59-2.83,1.61v.67c0,.81.75,1.25,1.3,1.43l4,1.3c1.3.42,2.27,1.25,2.27,2.47v1.48c0,1.57-1.41,2.94-4.74,2.94s-4.7-1.37-4.7-2.94v-.7c0-.23.1-.36.34-.36h1c.24,0,.34.13.34.36v.63c0,1,1,1.64,3,1.64s3.05-.6,3.05-1.64v-1c0-.77-.65-1.16-1.51-1.45l-4-1.33a2.86,2.86,0,0,1-2-2.52v-1c0-1.56,1.19-3,4.52-3s4.5,1.41,4.5,3v.75c0,.23-.08.34-.37.34h-.93c-.24,0-.34-.11-.34-.34Z" transform="translate(-22.2 -26.57)" style="fill:#333"/><path d="M190,108.65c0,.26-.11.39-.37.39h-1.06c-.26,0-.37-.13-.37-.39v-2.42c0-.26.11-.39.37-.39h1.06c.26,0,.37.13.37.39Zm0,15c0,.26-.11.39-.37.39h-1.06c-.26,0-.37-.13-.37-.39V111.56c0-.26.11-.39.37-.39h1.06c.26,0,.37.13.37.39Z" transform="translate(-22.2 -26.57)" style="fill:#333"/><path d="M193.75,120.9v-6.61c0-2,1.12-3.33,3.62-3.33a6.87,6.87,0,0,1,4.42,1.59l.05-1c0-.26.13-.39.39-.39h1c.26,0,.37.13.37.39V126c0,2-1.28,3.35-4.84,3.35h-3.54c-.28,0-.41-.1-.41-.36v-.78c0-.26.13-.37.41-.37h3.54c2.29,0,3-.8,3-2v-3.14a7.24,7.24,0,0,1-4.39,1.5C194.87,124.22,193.75,122.87,193.75,120.9Zm1.8-.26c0,1.06.62,2,2.31,2a6.5,6.5,0,0,0,3.9-1.46v-7a6.37,6.37,0,0,0-3.9-1.48c-1.69,0-2.31.89-2.31,2Z" transform="translate(-22.2 -26.57)" style="fill:#333"/><path d="M208.94,111.17c.26,0,.34.13.36.39l0,1A6.87,6.87,0,0,1,213.8,111c2.42,0,3.61,1.36,3.61,3.2v9.47c0,.26-.1.39-.36.39H216a.34.34,0,0,1-.39-.39v-9.08c0-1.17-.62-2-2.28-2a6.24,6.24,0,0,0-3.9,1.45v9.6c0,.26-.11.39-.37.39H208c-.26,0-.37-.13-.37-.39V111.56c0-.26.11-.39.37-.39Z" transform="translate(-22.2 -26.57)" style="fill:#333"/></g><g id="Stageone"><path d="M367.13,27.4h-67A1.64,1.64,0,0,0,298.48,29v67a1.65,1.65,0,0,0,1.65,1.64h67a1.65,1.65,0,0,0,1.65-1.64V29A1.64,1.64,0,0,0,367.13,27.4Zm-6.59,9.38V88.31a1.15,1.15,0,0,1-1.15,1.14H307.87a1.15,1.15,0,0,1-1.15-1.14V36.78a1.15,1.15,0,0,1,1.15-1.14h51.52A1.15,1.15,0,0,1,360.54,36.78Z" transform="translate(-22.2 -26.57)" style="fill:#333"/><path d="M264.13,26.57c-15,0-22.68,5.35-22.68,15.88V81.82c0,10.53,7.63,15.87,22.68,15.87s22.67-5.34,22.67-15.87V77.35c0-1.48-.66-2.17-2.08-2.17h-5.88c-1.51,0-2.18.67-2.18,2.17v2.84c0,5.77-4.07,8.58-12.43,8.58S251.9,86,251.9,80.19V44.07c0-5.77,4-8.58,12.33-8.58s12.43,2.78,12.43,8.48v10.9H264.84c-1.51,0-2.18.68-2.18,2.18v4.67c0,1.41.69,2.07,2.18,2.07h19.78c1.49,0,2.18-.66,2.18-2.07V42.45C286.8,31.92,279.17,26.57,264.13,26.57Z" transform="translate(-22.2 -26.57)" style="fill:#333"/><path d="M208,26.57c-15,0-22.67,5.35-22.67,15.88V81.82c0,10.53,7.63,15.87,22.67,15.87s22.67-5.34,22.67-15.87V64c0-1.42-.69-2.07-2.17-2.07H208.73c-1.48,0-2.18.65-2.18,2.07v4.67c0,1.5.67,2.17,2.18,2.17h11.83v9.5c0,5.7-4.07,8.47-12.44,8.47s-12.33-2.8-12.33-8.58V44.07c0-5.77,4-8.58,12.33-8.58s12.44,2.81,12.44,8.58v2.84c0,1.51.67,2.18,2.17,2.18h5.89c1.41,0,2.07-.69,2.07-2.18V42.45C230.69,31.92,223.06,26.57,208,26.57Z" transform="translate(-22.2 -26.57)" style="fill:#333"/><path d="M149.84,26.57c-8.82,0-23.6,2.09-23.6,16V95.24c0,1.38.35,2.3,2.09,2.3h6.25c1.44,0,2.09-.71,2.09-2.3V70.54H162.8v24.7c0,1.59.65,2.3,2.09,2.3h6.25c1.48,0,2.2-.75,2.2-2.3V42.6C173.34,28.66,158.61,26.57,149.84,26.57Zm13,17.67V61.55H136.67V44.24c0-5.67,4.55-8.67,13.17-8.67S162.8,38.57,162.8,44.24Z" transform="translate(-22.2 -26.57)" style="fill:#333"/><path d="M118,27.36H74.46c-1.6,0-2.23.62-2.23,2.23v4.68c0,1.6.63,2.23,2.23,2.23h16.4V95.29c0,1.61.65,2.33,2.12,2.33h6.45c1.47,0,2.13-.72,2.13-2.33V36.5H118c1.54,0,2.22-.69,2.22-2.23V29.59C120.18,28.05,119.5,27.36,118,27.36Z" transform="translate(-22.2 -26.57)" style="fill:#333"/><path d="M56.93,59.36l-18.46-7c-2.43-.92-5-2.27-5-6.56v-2c0-5.72,3.82-8.38,12-8.38s12,2.66,12,8.38v3.14c0,1.55.6,2.18,2.07,2.18h6c1.42,0,2.07-.69,2.07-2.18V42.45c0-5.93-2.89-15.88-22.26-15.88-8.24,0-22.06,2.07-22.06,15.88v5.78c0,6.4,4.61,11.05,9.19,12.82l17.14,6.59.07,0c3.89,1.49,8.3,3.19,8.3,8.06V80.5c0,5.63-4.2,8.37-12.84,8.37S32.44,86.13,32.44,80.5V75.93c0-1.57-.64-2.28-2.08-2.28h-6c-1.47,0-2.18.75-2.18,2.28v5.89c0,5.93,3,15.87,23.08,15.87s23-9.94,23-15.87V73.4C68.25,66.87,64.55,62.28,56.93,59.36Z" transform="translate(-22.2 -26.57)" style="fill:#333"/><path d="M339.33,45a1.35,1.35,0,0,0-1.12,1.29l0,5.47a1,1,0,0,0,1.13,1l5-.7a1,1,0,0,1,1.12,1V68.3a1.14,1.14,0,0,0,1.14,1.13h5.48a1.14,1.14,0,0,0,1.13-1.13V44.14a1,1,0,0,0-1.12-1Z" transform="translate(-22.2 -26.57)" style="fill:#333"/></g></svg>